# Created by Kenney (www.kenney.nl)

mtllib chimney-top.mtl

g chimney-top

v 0.2530917 0.375 -0.17 1 1 1
v 0.425 0.375 -0.17 1 1 1
v 0.2530917 0.625 -0.17 1 1 1
v 0.425 0.625 -0.17 1 1 1
v 0.425 0.375 0.17 1 1 1
v 0.2530917 0.375 0.17 1 1 1
v 0.425 0.625 0.17 1 1 1
v 0.2530917 0.625 0.17 1 1 1
v 0.2130917 0.375 0.13 1 1 1
v 0.2130917 0.625 0.13 1 1 1
v 0.465 0.375 0.13 1 1 1
v 0.465 0.625 0.13 1 1 1
v 0.465 0.625 -0.13 1 1 1
v 0.425 0.625 -0.1134315 1 1 1
v 0.4084314 0.625 -0.13 1 1 1
v 0.425 0.625 0.1134315 1 1 1
v 0.4084314 0.625 0.13 1 1 1
v 0.2696603 0.625 -0.13 1 1 1
v 0.2530917 0.625 -0.1134315 1 1 1
v 0.2130917 0.625 -0.13 1 1 1
v 0.2696603 0.625 0.13 1 1 1
v 0.2530917 0.625 0.1134315 1 1 1
v 0.465 0.375 -0.13 1 1 1
v 0.2130917 0.375 -0.13 1 1 1
v 0.4084314 0.475 -0.13 1 1 1
v 0.2696603 0.475 -0.13 1 1 1
v 0.2530917 0.475 -0.1134315 1 1 1
v 0.2530917 0.475 0.1134315 1 1 1
v 0.2696603 0.475 0.13 1 1 1
v 0.425 0.475 0.1134315 1 1 1
v 0.4084314 0.475 0.13 1 1 1
v 0.425 0.475 -0.1134315 1 1 1
v 0.425 0 0.13 1 1 1
v 0.2530917 0 0.13 1 1 1
v 0.425 0.375 0.13 1 1 1
v 0.2696603 0.375 0.13 1 1 1
v 0.2530917 0.375 0.13 1 1 1
v 0.4084314 0.375 0.13 1 1 1
v 0.425 0.375 -0.13 1 1 1
v 0.425 0 -0.13 1 1 1
v 0.425 0.375 -0.1134315 1 1 1
v 0.425 0.375 0.1134315 1 1 1
v 0.2530917 0 -0.13 1 1 1
v 0.2530917 0.375 -0.13 1 1 1
v 0.2530917 0.375 -0.1134315 1 1 1
v 0.2530917 0.375 0.1134315 1 1 1
v 0.2696603 0.375 -0.13 1 1 1
v 0.4084314 0.375 -0.13 1 1 1

vn -0.3826834 0 -0.9238795
vn 0.3826834 0 -0.9238795
vn 0.3826834 0 0.9238795
vn -0.3826834 0 0.9238795
vn -0.9238795 0 0.3826834
vn 0.9238795 0 0.3826834
vn 0 1 0
vn 0.9238795 0 -0.3826834
vn -0.9238795 0 -0.3826834
vn 0 -1 0
vn 0 0 1
vn 1 0 0
vn -1 0 0
vn 0 0 -1

vt 0.21875 0.325
vt 0.21875 0.425
vt 0.21875 0.365
vt 0.96875 0.075
vt 0.96875 0.175

usemtl colormap

f 3/2/1 2/1/2 1/1/1
f 2/1/2 3/2/1 4/2/2
f 7/2/3 6/1/4 5/1/3
f 6/1/4 7/2/3 8/2/4
f 6/1/4 10/2/5 9/1/5
f 10/2/5 6/1/4 8/2/4
f 12/2/6 5/1/3 11/1/6
f 5/1/3 12/2/6 7/2/3
f 4/2/7 12/2/7 13/2/7
f 12/2/7 4/2/7 14/2/7
f 14/2/7 4/2/7 15/2/7
f 16/2/7 12/2/7 14/2/7
f 12/2/7 16/2/7 7/2/7
f 7/2/7 16/2/7 17/2/7
f 15/2/7 4/2/7 3/2/7
f 15/2/7 3/2/7 18/2/7
f 18/2/7 3/2/7 19/2/7
f 7/2/7 17/2/7 8/2/7
f 19/2/7 3/2/7 20/2/7
f 8/2/7 17/2/7 21/2/7
f 19/2/7 20/2/7 22/2/7
f 8/2/7 21/2/7 22/2/7
f 22/2/7 20/2/7 8/2/7
f 8/2/7 20/2/7 10/2/7
f 4/2/2 23/1/8 2/1/2
f 23/1/8 4/2/2 13/2/8
f 9/1/5 20/2/9 24/1/9
f 20/2/9 9/1/5 10/2/5
f 15/2/4 26/3/3 25/3/4
f 26/3/3 15/2/4 18/2/3
f 19/2/6 26/3/3 18/2/3
f 26/3/3 19/2/6 27/3/6
f 22/2/8 27/3/6 19/2/6
f 27/3/6 22/2/8 28/3/8
f 21/2/2 28/3/8 22/2/8
f 28/3/8 21/2/2 29/3/2
f 5/1/10 23/1/10 11/1/10
f 23/1/10 5/1/10 2/1/10
f 2/1/10 5/1/10 6/1/10
f 2/1/10 6/1/10 1/1/10
f 1/1/10 6/1/10 9/1/10
f 1/1/10 9/1/10 24/1/10
f 12/2/6 23/1/8 13/2/8
f 23/1/8 12/2/6 11/1/6
f 31/3/1 16/2/9 30/3/9
f 16/2/9 31/3/1 17/2/1
f 24/1/9 3/2/1 1/1/1
f 3/2/1 24/1/9 20/2/9
f 21/2/2 31/3/1 29/3/2
f 31/3/1 21/2/2 17/2/1
f 32/3/5 15/2/4 25/3/4
f 15/2/4 32/3/5 14/2/5
f 30/3/9 14/2/5 32/3/5
f 14/2/5 30/3/9 16/2/9
f 25/3/7 30/3/7 32/3/7
f 30/3/7 25/3/7 31/3/7
f 31/3/7 25/3/7 26/3/7
f 31/3/7 26/3/7 29/3/7
f 29/3/7 26/3/7 27/3/7
f 29/3/7 27/3/7 28/3/7
f 35/5/11 34/4/11 33/4/11
f 34/4/11 35/5/11 36/5/11
f 34/4/11 36/5/11 37/5/11
f 36/5/11 35/5/11 38/5/11
f 41/5/12 40/4/12 39/5/12
f 40/4/12 41/5/12 33/4/12
f 33/4/12 41/5/12 42/5/12
f 33/4/12 42/5/12 35/5/12
f 34/4/13 44/5/13 43/4/13
f 44/5/13 34/4/13 45/5/13
f 45/5/13 34/4/13 46/5/13
f 46/5/13 34/4/13 37/5/13
f 44/5/14 40/4/14 43/4/14
f 40/4/14 44/5/14 39/5/14
f 39/5/14 44/5/14 47/5/14
f 39/5/14 47/5/14 48/5/14
f 34/4/10 40/4/10 33/4/10
f 40/4/10 34/4/10 43/4/10

g chimney-top




usemtl colormap

f 3/2/1 2/1/2 1/1/1
f 2/1/2 3/2/1 4/2/2
f 7/2/3 6/1/4 5/1/3
f 6/1/4 7/2/3 8/2/4
f 6/1/4 10/2/5 9/1/5
f 10/2/5 6/1/4 8/2/4
f 12/2/6 5/1/3 11/1/6
f 5/1/3 12/2/6 7/2/3
f 4/2/7 12/2/7 13/2/7
f 12/2/7 4/2/7 14/2/7
f 14/2/7 4/2/7 15/2/7
f 16/2/7 12/2/7 14/2/7
f 12/2/7 16/2/7 7/2/7
f 7/2/7 16/2/7 17/2/7
f 15/2/7 4/2/7 3/2/7
f 15/2/7 3/2/7 18/2/7
f 18/2/7 3/2/7 19/2/7
f 7/2/7 17/2/7 8/2/7
f 19/2/7 3/2/7 20/2/7
f 8/2/7 17/2/7 21/2/7
f 19/2/7 20/2/7 22/2/7
f 8/2/7 21/2/7 22/2/7
f 22/2/7 20/2/7 8/2/7
f 8/2/7 20/2/7 10/2/7
f 4/2/2 23/1/8 2/1/2
f 23/1/8 4/2/2 13/2/8
f 9/1/5 20/2/9 24/1/9
f 20/2/9 9/1/5 10/2/5
f 15/2/4 26/3/3 25/3/4
f 26/3/3 15/2/4 18/2/3
f 19/2/6 26/3/3 18/2/3
f 26/3/3 19/2/6 27/3/6
f 22/2/8 27/3/6 19/2/6
f 27/3/6 22/2/8 28/3/8
f 21/2/2 28/3/8 22/2/8
f 28/3/8 21/2/2 29/3/2
f 5/1/10 23/1/10 11/1/10
f 23/1/10 5/1/10 2/1/10
f 2/1/10 5/1/10 6/1/10
f 2/1/10 6/1/10 1/1/10
f 1/1/10 6/1/10 9/1/10
f 1/1/10 9/1/10 24/1/10
f 12/2/6 23/1/8 13/2/8
f 23/1/8 12/2/6 11/1/6
f 31/3/1 16/2/9 30/3/9
f 16/2/9 31/3/1 17/2/1
f 24/1/9 3/2/1 1/1/1
f 3/2/1 24/1/9 20/2/9
f 21/2/2 31/3/1 29/3/2
f 31/3/1 21/2/2 17/2/1
f 32/3/5 15/2/4 25/3/4
f 15/2/4 32/3/5 14/2/5
f 30/3/9 14/2/5 32/3/5
f 14/2/5 30/3/9 16/2/9
f 25/3/7 30/3/7 32/3/7
f 30/3/7 25/3/7 31/3/7
f 31/3/7 25/3/7 26/3/7
f 31/3/7 26/3/7 29/3/7
f 29/3/7 26/3/7 27/3/7
f 29/3/7 27/3/7 28/3/7
f 35/5/11 34/4/11 33/4/11
f 34/4/11 35/5/11 36/5/11
f 34/4/11 36/5/11 37/5/11
f 36/5/11 35/5/11 38/5/11
f 41/5/12 40/4/12 39/5/12
f 40/4/12 41/5/12 33/4/12
f 33/4/12 41/5/12 42/5/12
f 33/4/12 42/5/12 35/5/12
f 34/4/13 44/5/13 43/4/13
f 44/5/13 34/4/13 45/5/13
f 45/5/13 34/4/13 46/5/13
f 46/5/13 34/4/13 37/5/13
f 44/5/14 40/4/14 43/4/14
f 40/4/14 44/5/14 39/5/14
f 39/5/14 44/5/14 47/5/14
f 39/5/14 47/5/14 48/5/14
f 34/4/10 40/4/10 33/4/10
f 40/4/10 34/4/10 43/4/10

