# Created by Kenney (www.kenney.nl)

mtllib fence-curved.mtl

g fence-curved

v 0.3385572 0.15 -0.2855241 1 1 1
v 0.3650737 0.15 -0.3120406 1 1 1
v 0.3520505 0.15 -0.2701379 1 1 1
v 0.3818013 0.15 -0.2929665 1 1 1
v 0.3842988 0.15 -0.221875 1 1 1
v 0.4099715 0.15 -0.1698158 1 1 1
v 0.4167747 0.15 -0.240625 1 1 1
v 0.4286296 0.15 -0.1148509 1 1 1
v 0.4399537 0.15 -0.057921 1 1 1
v 0.444617 0.15 -0.1841664 1 1 1
v 0.44375 0.15 8.662937E-15 1 1 1
v 0.44375 0.15 0.425 1 1 1
v 0.4648518 0.15 -0.1245567 1 1 1
v 0.4771328 0.15 -0.06281573 1 1 1
v 0.48125 0.15 0.425 1 1 1
v 0.48125 0.15 8.662937E-15 1 1 1
v 0.3120406 0.15 -0.3650737 1 1 1
v 0.2855241 0.15 -0.3385572 1 1 1
v 0.2929665 0.15 -0.3818013 1 1 1
v 0.240625 0.15 -0.4167747 1 1 1
v 0.2701379 0.15 -0.3520505 1 1 1
v 0.221875 0.15 -0.3842988 1 1 1
v 0.1841664 0.15 -0.444617 1 1 1
v 0.1698158 0.15 -0.4099715 1 1 1
v 0.1245567 0.15 -0.4648518 1 1 1
v 0.1148509 0.15 -0.4286296 1 1 1
v 0.06281573 0.15 -0.4771328 1 1 1
v 0.057921 0.15 -0.4399537 1 1 1
v -5.775291E-15 0.15 -0.48125 1 1 1
v -4.331469E-15 0.15 -0.44375 1 1 1
v -0.425 0.15 -0.44375 1 1 1
v -0.425 0.15 -0.48125 1 1 1
v 0.44375 0.305 8.662937E-15 1 1 1
v 0.44375 0.305 0.425 1 1 1
v 0.44375 0.23 2.310117E-14 1 1 1
v 0.44375 0.23 0.425 1 1 1
v 0.5 0.38 0.425 1 1 1
v 0.5 0.38 0.5 1 1 1
v 0.425 0.38 0.425 1 1 1
v 0.425 0.38 0.5 1 1 1
v 0.5 0 0.425 1 1 1
v 0.5 0 0.5 1 1 1
v 0.425 0 0.5 1 1 1
v 0.425 0 0.425 1 1 1
v 0.44375 0.075 8.662937E-15 1 1 1
v 0.44375 0.075 0.425 1 1 1
v 0.48125 0.23 0.425 1 1 1
v 0.48125 0.23 2.310117E-14 1 1 1
v 0.4771328 0.23 -0.06281573 1 1 1
v 0.4648518 0.23 -0.1245567 1 1 1
v 0.444617 0.23 -0.1841664 1 1 1
v 0.4399537 0.23 -0.057921 1 1 1
v 0.4167747 0.23 -0.240625 1 1 1
v 0.4286296 0.23 -0.1148509 1 1 1
v 0.4099715 0.23 -0.1698158 1 1 1
v 0.3818013 0.23 -0.2929665 1 1 1
v 0.3842988 0.23 -0.221875 1 1 1
v 0.3520505 0.23 -0.2701379 1 1 1
v 0.3650737 0.23 -0.3120406 1 1 1
v 0.3385572 0.23 -0.2855241 1 1 1
v 0.3385572 0.305 -0.2855241 1 1 1
v 0.3650737 0.305 -0.3120406 1 1 1
v 0.3520505 0.305 -0.2701379 1 1 1
v 0.3818013 0.305 -0.2929665 1 1 1
v 0.3842988 0.305 -0.221875 1 1 1
v 0.4099715 0.305 -0.1698158 1 1 1
v 0.4167747 0.305 -0.240625 1 1 1
v 0.4286296 0.305 -0.1148509 1 1 1
v 0.4399537 0.305 -0.057921 1 1 1
v 0.444617 0.305 -0.1841664 1 1 1
v 0.4648518 0.305 -0.1245567 1 1 1
v 0.4771328 0.305 -0.06281573 1 1 1
v 0.48125 0.305 0.425 1 1 1
v 0.48125 0.305 8.662937E-15 1 1 1
v 0.48125 0.075 0.425 1 1 1
v 0.48125 0.075 8.662937E-15 1 1 1
v 0.4771328 0.075 -0.06281573 1 1 1
v 0.4648518 0.075 -0.1245567 1 1 1
v 0.444617 0.075 -0.1841664 1 1 1
v 0.4399537 0.075 -0.057921 1 1 1
v 0.4167747 0.075 -0.240625 1 1 1
v 0.4286296 0.075 -0.1148509 1 1 1
v 0.4099715 0.075 -0.1698158 1 1 1
v 0.3818013 0.075 -0.2929665 1 1 1
v 0.3842988 0.075 -0.221875 1 1 1
v 0.3520505 0.075 -0.2701379 1 1 1
v 0.3650737 0.075 -0.3120406 1 1 1
v 0.3385572 0.075 -0.2855241 1 1 1
v 0.3270369 5.803885E-18 -0.2740039 1 1 1
v 0.2740039 5.803885E-18 -0.3270369 1 1 1
v 0.3270369 0.38 -0.2740039 1 1 1
v 0.2740039 0.38 -0.3270369 1 1 1
v 0.3270369 5.803885E-18 -0.3800699 1 1 1
v 0.3800699 5.803885E-18 -0.3270369 1 1 1
v 0.3270369 0.38 -0.3800699 1 1 1
v 0.3800699 0.38 -0.3270369 1 1 1
v 0.3120406 0.075 -0.3650737 1 1 1
v 0.2929665 0.075 -0.3818013 1 1 1
v 0.2855241 0.075 -0.3385572 1 1 1
v 0.240625 0.075 -0.4167747 1 1 1
v 0.2701379 0.075 -0.3520505 1 1 1
v 0.221875 0.075 -0.3842988 1 1 1
v 0.1841664 0.075 -0.444617 1 1 1
v 0.1698158 0.075 -0.4099715 1 1 1
v 0.1245567 0.075 -0.4648518 1 1 1
v 0.1148509 0.075 -0.4286296 1 1 1
v 0.06281573 0.075 -0.4771328 1 1 1
v 0.057921 0.075 -0.4399537 1 1 1
v -5.775291E-15 0.075 -0.48125 1 1 1
v -4.331469E-15 0.075 -0.44375 1 1 1
v -0.425 0.075 -0.44375 1 1 1
v -0.425 0.075 -0.48125 1 1 1
v -5.775291E-15 0.23 -0.48125 1 1 1
v 0.06281573 0.23 -0.4771328 1 1 1
v -5.775291E-15 0.305 -0.48125 1 1 1
v 0.06281573 0.305 -0.4771328 1 1 1
v 0.1245567 0.23 -0.4648518 1 1 1
v 0.1841664 0.23 -0.444617 1 1 1
v 0.1245567 0.305 -0.4648518 1 1 1
v 0.1841664 0.305 -0.444617 1 1 1
v 0.240625 0.23 -0.4167747 1 1 1
v 0.2929665 0.23 -0.3818013 1 1 1
v 0.240625 0.305 -0.4167747 1 1 1
v 0.2929665 0.305 -0.3818013 1 1 1
v 0.2855241 0.23 -0.3385572 1 1 1
v 0.2701379 0.23 -0.3520505 1 1 1
v 0.2855241 0.305 -0.3385572 1 1 1
v 0.2701379 0.305 -0.3520505 1 1 1
v 0.221875 0.23 -0.3842988 1 1 1
v 0.1698158 0.23 -0.4099715 1 1 1
v 0.221875 0.305 -0.3842988 1 1 1
v 0.1698158 0.305 -0.4099715 1 1 1
v 0.3120406 0.305 -0.3650737 1 1 1
v 0.1148509 0.305 -0.4286296 1 1 1
v 0.057921 0.305 -0.4399537 1 1 1
v -4.331469E-15 0.305 -0.44375 1 1 1
v -0.425 0.305 -0.44375 1 1 1
v -0.425 0.305 -0.48125 1 1 1
v 0.3120406 0.23 -0.3650737 1 1 1
v 0.1148509 0.23 -0.4286296 1 1 1
v 0.057921 0.23 -0.4399537 1 1 1
v -4.331469E-15 0.23 -0.44375 1 1 1
v -0.425 0.23 -0.44375 1 1 1
v -0.425 0.23 -0.48125 1 1 1
v -0.5 0 -0.5 1 1 1
v -0.5 0.38 -0.5 1 1 1
v -0.5 0 -0.425 1 1 1
v -0.5 0.38 -0.425 1 1 1
v -0.425 0 -0.5 1 1 1
v -0.425 0.38 -0.5 1 1 1
v -0.425 0 -0.425 1 1 1
v -0.425 0.38 -0.425 1 1 1

vn 0 1 0
vn -0.9994646 0 0.03271909
vn -1 0 0
vn 1 0 0
vn 0 -1 0
vn 0 0 1
vn 0.9994646 0 -0.03271909
vn -0.7071068 0 0.7071068
vn 0.7071068 0 -0.7071068
vn 0.6593459 0 -0.7518399
vn 0.6087614 0 -0.7933533
vn 0.03271909 0 -0.9994646
vn 0.1305262 0 -0.9914449
vn 0.9659258 0 -0.258819
vn 0.9914449 0 -0.1305262
vn 0.258819 0 -0.9659258
vn 0.3826834 0 -0.9238795
vn 0.5 0 -0.8660254
vn 0.9238795 0 -0.3826834
vn -0.1305262 0 0.9914449
vn -0.03271909 0 0.9994646
vn -0.6593459 0 0.7518399
vn -0.6087614 0 0.7933533
vn -0.5 0 0.8660254
vn -0.3826834 0 0.9238795
vn -0.9914449 0 0.1305262
vn -0.9659258 0 0.258819
vn -0.8660254 0 0.5
vn -0.9238795 0 0.3826834
vn 0.8660254 0 -0.5
vn 0.7933533 0 -0.6087614
vn 0 0 -1
vn -0.258819 0 0.9659258
vn -0.7933533 0 0.6087614
vn 0.7518399 0 -0.6593459
vn -0.7518399 0 0.6593459
vn 0.7071068 0 0.7071068
vn -0.7071068 0 -0.7071068

vt 0.59375 0.1039474
vt 0.59375 0.1855263
vt 0.59375 0.1460526
vt 0.59375 0.225
vt 0.59375 0.025
vt 0.59375 0.06447368

usemtl colormap

f 3/1/1 2/1/1 1/1/1
f 3/1/1 4/1/1 2/1/1
f 5/1/1 4/1/1 3/1/1
f 6/1/1 4/1/1 5/1/1
f 6/1/1 7/1/1 4/1/1
f 8/1/1 7/1/1 6/1/1
f 9/1/1 7/1/1 8/1/1
f 9/1/1 10/1/1 7/1/1
f 10/1/1 9/1/1 11/1/1
f 12/1/1 10/1/1 11/1/1
f 12/1/1 13/1/1 10/1/1
f 12/1/1 14/1/1 13/1/1
f 15/1/1 14/1/1 12/1/1
f 14/1/1 15/1/1 16/1/1
f 19/1/1 18/1/1 17/1/1
f 18/1/1 19/1/1 20/1/1
f 18/1/1 20/1/1 21/1/1
f 21/1/1 20/1/1 22/1/1
f 22/1/1 20/1/1 23/1/1
f 22/1/1 23/1/1 24/1/1
f 24/1/1 23/1/1 25/1/1
f 24/1/1 25/1/1 26/1/1
f 26/1/1 25/1/1 27/1/1
f 26/1/1 27/1/1 28/1/1
f 28/1/1 27/1/1 29/1/1
f 28/1/1 29/1/1 30/1/1
f 30/1/1 29/1/1 31/1/1
f 31/1/1 29/1/1 32/1/1
f 35/3/2 34/2/3 33/2/2
f 34/2/3 35/3/2 36/3/3
f 39/4/1 38/4/1 37/4/1
f 38/4/1 39/4/1 40/4/1
f 38/4/4 41/5/4 37/4/4
f 41/5/4 38/4/4 42/5/4
f 43/5/5 41/5/5 42/5/5
f 41/5/5 43/5/5 44/5/5
f 38/4/6 43/5/6 42/5/6
f 43/5/6 38/4/6 40/4/6
f 46/6/3 11/1/2 45/6/2
f 11/1/2 46/6/3 12/1/3
f 36/3/5 48/3/5 47/3/5
f 48/3/5 36/3/5 49/3/5
f 49/3/5 36/3/5 50/3/5
f 50/3/5 36/3/5 51/3/5
f 51/3/5 36/3/5 35/3/5
f 51/3/5 35/3/5 52/3/5
f 51/3/5 52/3/5 53/3/5
f 53/3/5 52/3/5 54/3/5
f 53/3/5 54/3/5 55/3/5
f 53/3/5 55/3/5 56/3/5
f 56/3/5 55/3/5 57/3/5
f 56/3/5 57/3/5 58/3/5
f 56/3/5 58/3/5 59/3/5
f 59/3/5 58/3/5 60/3/5
f 63/2/1 62/2/1 61/2/1
f 63/2/1 64/2/1 62/2/1
f 65/2/1 64/2/1 63/2/1
f 66/2/1 64/2/1 65/2/1
f 66/2/1 67/2/1 64/2/1
f 68/2/1 67/2/1 66/2/1
f 69/2/1 67/2/1 68/2/1
f 69/2/1 70/2/1 67/2/1
f 70/2/1 69/2/1 33/2/1
f 34/2/1 70/2/1 33/2/1
f 34/2/1 71/2/1 70/2/1
f 34/2/1 72/2/1 71/2/1
f 73/2/1 72/2/1 34/2/1
f 72/2/1 73/2/1 74/2/1
f 46/6/5 76/6/5 75/6/5
f 76/6/5 46/6/5 77/6/5
f 77/6/5 46/6/5 78/6/5
f 78/6/5 46/6/5 79/6/5
f 79/6/5 46/6/5 45/6/5
f 79/6/5 45/6/5 80/6/5
f 79/6/5 80/6/5 81/6/5
f 81/6/5 80/6/5 82/6/5
f 81/6/5 82/6/5 83/6/5
f 81/6/5 83/6/5 84/6/5
f 84/6/5 83/6/5 85/6/5
f 84/6/5 85/6/5 86/6/5
f 84/6/5 86/6/5 87/6/5
f 87/6/5 86/6/5 88/6/5
f 73/2/4 48/3/7 74/2/7
f 48/3/7 73/2/4 47/3/4
f 43/5/3 39/4/3 44/5/3
f 39/4/3 43/5/3 40/4/3
f 15/1/4 76/6/7 16/1/7
f 76/6/7 15/1/4 75/6/4
f 91/4/8 90/5/8 89/5/8
f 90/5/8 91/4/8 92/4/8
f 95/4/9 94/5/9 93/5/9
f 94/5/9 95/4/9 96/4/9
f 95/4/1 91/4/1 96/4/1
f 91/4/1 95/4/1 92/4/1
f 89/5/5 93/5/5 94/5/5
f 93/5/5 89/5/5 90/5/5
f 98/6/11 17/1/10 97/6/10
f 17/1/10 98/6/11 19/1/11
f 99/6/5 98/6/5 97/6/5
f 98/6/5 99/6/5 100/6/5
f 100/6/5 99/6/5 101/6/5
f 100/6/5 101/6/5 102/6/5
f 100/6/5 102/6/5 103/6/5
f 103/6/5 102/6/5 104/6/5
f 103/6/5 104/6/5 105/6/5
f 105/6/5 104/6/5 106/6/5
f 105/6/5 106/6/5 107/6/5
f 107/6/5 106/6/5 108/6/5
f 107/6/5 108/6/5 109/6/5
f 109/6/5 108/6/5 110/6/5
f 109/6/5 110/6/5 111/6/5
f 109/6/5 111/6/5 112/6/5
f 115/2/12 114/3/13 113/3/12
f 114/3/13 115/2/12 116/2/13
f 14/1/15 78/6/14 13/1/14
f 78/6/14 14/1/15 77/6/15
f 119/2/16 118/3/17 117/3/16
f 118/3/17 119/2/16 120/2/17
f 123/2/18 122/3/11 121/3/18
f 122/3/11 123/2/18 124/2/11
f 71/2/14 51/3/19 70/2/19
f 51/3/19 71/2/14 50/3/14
f 28/1/20 110/6/21 108/6/20
f 110/6/21 28/1/20 30/1/21
f 25/1/16 103/6/17 105/6/16
f 103/6/17 25/1/16 23/1/17
f 127/2/22 126/3/23 125/3/22
f 126/3/23 127/2/22 128/2/23
f 131/2/24 130/3/25 129/3/24
f 130/3/25 131/2/24 132/2/25
f 45/6/2 9/1/26 80/6/26
f 9/1/26 45/6/2 11/1/2
f 27/1/13 105/6/16 107/6/13
f 105/6/16 27/1/13 25/1/16
f 20/1/18 98/6/11 100/6/18
f 98/6/11 20/1/18 19/1/11
f 16/1/7 77/6/15 14/1/15
f 77/6/15 16/1/7 76/6/7
f 124/2/1 127/2/1 133/2/1
f 127/2/1 124/2/1 123/2/1
f 127/2/1 123/2/1 128/2/1
f 128/2/1 123/2/1 131/2/1
f 131/2/1 123/2/1 120/2/1
f 131/2/1 120/2/1 132/2/1
f 132/2/1 120/2/1 119/2/1
f 132/2/1 119/2/1 134/2/1
f 134/2/1 119/2/1 116/2/1
f 134/2/1 116/2/1 135/2/1
f 135/2/1 116/2/1 115/2/1
f 135/2/1 115/2/1 136/2/1
f 136/2/1 115/2/1 137/2/1
f 137/2/1 115/2/1 138/2/1
f 120/2/17 121/3/18 118/3/17
f 121/3/18 120/2/17 123/2/18
f 52/3/26 68/2/27 54/3/27
f 68/2/27 52/3/26 69/2/26
f 55/3/29 65/2/28 57/3/28
f 65/2/28 55/3/29 66/2/29
f 10/1/19 81/6/30 7/1/30
f 81/6/30 10/1/19 79/6/19
f 72/2/15 50/3/14 71/2/14
f 50/3/14 72/2/15 49/3/15
f 67/2/30 56/3/31 64/2/31
f 56/3/31 67/2/30 53/3/30
f 83/6/29 5/1/28 85/6/28
f 5/1/28 83/6/29 6/1/29
f 7/1/30 84/6/31 4/1/31
f 84/6/31 7/1/30 81/6/30
f 29/1/12 107/6/13 109/6/12
f 107/6/13 29/1/12 27/1/13
f 82/6/27 6/1/29 83/6/29
f 6/1/29 82/6/27 8/1/27
f 125/3/5 122/3/5 139/3/5
f 122/3/5 125/3/5 121/3/5
f 121/3/5 125/3/5 126/3/5
f 121/3/5 126/3/5 129/3/5
f 121/3/5 129/3/5 118/3/5
f 118/3/5 129/3/5 130/3/5
f 118/3/5 130/3/5 117/3/5
f 117/3/5 130/3/5 140/3/5
f 117/3/5 140/3/5 114/3/5
f 114/3/5 140/3/5 141/3/5
f 114/3/5 141/3/5 113/3/5
f 113/3/5 141/3/5 142/3/5
f 113/3/5 142/3/5 143/3/5
f 113/3/5 143/3/5 144/3/5
f 54/3/27 66/2/29 55/3/29
f 66/2/29 54/3/27 68/2/27
f 144/3/32 115/2/12 113/3/12
f 115/2/12 144/3/32 138/2/32
f 23/1/17 100/6/18 103/6/17
f 100/6/18 23/1/17 20/1/18
f 22/1/24 104/6/25 102/6/24
f 104/6/25 22/1/24 24/1/25
f 21/1/23 102/6/24 101/6/23
f 102/6/24 21/1/23 22/1/24
f 74/2/7 49/3/15 72/2/15
f 49/3/15 74/2/7 48/3/7
f 24/1/25 106/6/33 104/6/25
f 106/6/33 24/1/25 26/1/33
f 57/3/28 63/2/34 58/3/34
f 63/2/34 57/3/28 65/2/28
f 128/2/23 129/3/24 126/3/23
f 129/3/24 128/2/23 131/2/24
f 116/2/13 117/3/16 114/3/13
f 117/3/16 116/2/13 119/2/16
f 147/5/3 146/4/3 145/5/3
f 146/4/3 147/5/3 148/4/3
f 85/6/28 3/1/34 86/6/34
f 3/1/34 85/6/28 5/1/28
f 135/2/20 142/3/21 141/3/20
f 142/3/21 135/2/20 136/2/21
f 64/2/31 59/3/35 62/2/35
f 59/3/35 64/2/31 56/3/31
f 146/4/32 149/5/32 145/5/32
f 149/5/32 146/4/32 150/4/32
f 35/3/2 69/2/26 52/3/26
f 69/2/26 35/3/2 33/2/2
f 152/4/6 147/5/6 151/5/6
f 147/5/6 152/4/6 148/4/6
f 80/6/26 8/1/27 82/6/27
f 8/1/27 80/6/26 9/1/26
f 150/4/1 148/4/1 152/4/1
f 148/4/1 150/4/1 146/4/1
f 70/2/19 53/3/30 67/2/30
f 53/3/30 70/2/19 51/3/19
f 147/5/5 149/5/5 151/5/5
f 149/5/5 147/5/5 145/5/5
f 136/2/21 143/3/6 142/3/21
f 143/3/6 136/2/21 137/2/6
f 26/1/33 108/6/20 106/6/33
f 108/6/20 26/1/33 28/1/20
f 134/2/33 141/3/20 140/3/33
f 141/3/20 134/2/33 135/2/20
f 132/2/25 140/3/33 130/3/25
f 140/3/33 132/2/25 134/2/33
f 13/1/14 79/6/19 10/1/19
f 79/6/19 13/1/14 78/6/14
f 18/1/22 101/6/23 99/6/22
f 101/6/23 18/1/22 21/1/23
f 58/3/34 61/2/36 60/3/36
f 61/2/36 58/3/34 63/2/34
f 30/1/21 111/6/6 110/6/21
f 111/6/6 30/1/21 31/1/6
f 112/6/32 29/1/12 109/6/12
f 29/1/12 112/6/32 32/1/32
f 86/6/34 1/1/36 88/6/36
f 1/1/36 86/6/34 3/1/34
f 4/1/31 87/6/35 2/1/35
f 87/6/35 4/1/31 84/6/31
f 122/3/11 133/2/10 139/3/10
f 133/2/10 122/3/11 124/2/11
f 138/2/4 152/4/4 137/2/4
f 137/2/4 152/4/4 143/3/4
f 138/2/4 150/4/4 152/4/4
f 150/4/4 138/2/4 149/5/4
f 112/6/4 149/5/4 138/2/4
f 112/6/4 138/2/4 144/3/4
f 149/5/4 112/6/4 151/5/4
f 112/6/4 144/3/4 32/1/4
f 143/3/4 32/1/4 144/3/4
f 151/5/4 112/6/4 111/6/4
f 151/5/4 111/6/4 152/4/4
f 32/1/4 143/3/4 31/1/4
f 143/3/4 152/4/4 31/1/4
f 31/1/4 152/4/4 111/6/4
f 62/2/37 91/4/37 61/2/37
f 61/2/37 91/4/37 60/3/37
f 62/2/37 96/4/37 91/4/37
f 96/4/37 62/2/37 94/5/37
f 87/6/37 94/5/37 62/2/37
f 87/6/37 62/2/37 59/3/37
f 94/5/37 87/6/37 89/5/37
f 87/6/37 59/3/37 2/1/37
f 60/3/37 2/1/37 59/3/37
f 89/5/37 87/6/37 88/6/37
f 89/5/37 88/6/37 91/4/37
f 2/1/37 60/3/37 1/1/37
f 60/3/37 91/4/37 1/1/37
f 1/1/37 91/4/37 88/6/37
f 97/6/38 90/5/38 99/6/38
f 99/6/38 90/5/38 18/1/38
f 97/6/38 93/5/38 90/5/38
f 93/5/38 97/6/38 95/4/38
f 133/2/38 95/4/38 97/6/38
f 133/2/38 97/6/38 17/1/38
f 95/4/38 133/2/38 92/4/38
f 133/2/38 17/1/38 139/3/38
f 18/1/38 139/3/38 17/1/38
f 92/4/38 133/2/38 127/2/38
f 92/4/38 127/2/38 90/5/38
f 139/3/38 18/1/38 125/3/38
f 18/1/38 90/5/38 125/3/38
f 125/3/38 90/5/38 127/2/38
f 36/3/32 39/4/32 34/2/32
f 34/2/32 39/4/32 73/2/32
f 37/4/32 73/2/32 39/4/32
f 37/4/32 47/3/32 73/2/32
f 47/3/32 15/1/32 36/3/32
f 37/4/32 15/1/32 47/3/32
f 12/1/32 36/3/32 15/1/32
f 12/1/32 39/4/32 36/3/32
f 37/4/32 75/6/32 15/1/32
f 41/5/32 75/6/32 37/4/32
f 46/6/32 39/4/32 12/1/32
f 75/6/32 41/5/32 46/6/32
f 46/6/32 44/5/32 39/4/32
f 44/5/32 46/6/32 41/5/32

g fence-curved




usemtl colormap

f 3/1/1 2/1/1 1/1/1
f 3/1/1 4/1/1 2/1/1
f 5/1/1 4/1/1 3/1/1
f 6/1/1 4/1/1 5/1/1
f 6/1/1 7/1/1 4/1/1
f 8/1/1 7/1/1 6/1/1
f 9/1/1 7/1/1 8/1/1
f 9/1/1 10/1/1 7/1/1
f 10/1/1 9/1/1 11/1/1
f 12/1/1 10/1/1 11/1/1
f 12/1/1 13/1/1 10/1/1
f 12/1/1 14/1/1 13/1/1
f 15/1/1 14/1/1 12/1/1
f 14/1/1 15/1/1 16/1/1
f 19/1/1 18/1/1 17/1/1
f 18/1/1 19/1/1 20/1/1
f 18/1/1 20/1/1 21/1/1
f 21/1/1 20/1/1 22/1/1
f 22/1/1 20/1/1 23/1/1
f 22/1/1 23/1/1 24/1/1
f 24/1/1 23/1/1 25/1/1
f 24/1/1 25/1/1 26/1/1
f 26/1/1 25/1/1 27/1/1
f 26/1/1 27/1/1 28/1/1
f 28/1/1 27/1/1 29/1/1
f 28/1/1 29/1/1 30/1/1
f 30/1/1 29/1/1 31/1/1
f 31/1/1 29/1/1 32/1/1
f 35/3/2 34/2/3 33/2/2
f 34/2/3 35/3/2 36/3/3
f 39/4/1 38/4/1 37/4/1
f 38/4/1 39/4/1 40/4/1
f 38/4/4 41/5/4 37/4/4
f 41/5/4 38/4/4 42/5/4
f 43/5/5 41/5/5 42/5/5
f 41/5/5 43/5/5 44/5/5
f 38/4/6 43/5/6 42/5/6
f 43/5/6 38/4/6 40/4/6
f 46/6/3 11/1/2 45/6/2
f 11/1/2 46/6/3 12/1/3
f 36/3/5 48/3/5 47/3/5
f 48/3/5 36/3/5 49/3/5
f 49/3/5 36/3/5 50/3/5
f 50/3/5 36/3/5 51/3/5
f 51/3/5 36/3/5 35/3/5
f 51/3/5 35/3/5 52/3/5
f 51/3/5 52/3/5 53/3/5
f 53/3/5 52/3/5 54/3/5
f 53/3/5 54/3/5 55/3/5
f 53/3/5 55/3/5 56/3/5
f 56/3/5 55/3/5 57/3/5
f 56/3/5 57/3/5 58/3/5
f 56/3/5 58/3/5 59/3/5
f 59/3/5 58/3/5 60/3/5
f 63/2/1 62/2/1 61/2/1
f 63/2/1 64/2/1 62/2/1
f 65/2/1 64/2/1 63/2/1
f 66/2/1 64/2/1 65/2/1
f 66/2/1 67/2/1 64/2/1
f 68/2/1 67/2/1 66/2/1
f 69/2/1 67/2/1 68/2/1
f 69/2/1 70/2/1 67/2/1
f 70/2/1 69/2/1 33/2/1
f 34/2/1 70/2/1 33/2/1
f 34/2/1 71/2/1 70/2/1
f 34/2/1 72/2/1 71/2/1
f 73/2/1 72/2/1 34/2/1
f 72/2/1 73/2/1 74/2/1
f 46/6/5 76/6/5 75/6/5
f 76/6/5 46/6/5 77/6/5
f 77/6/5 46/6/5 78/6/5
f 78/6/5 46/6/5 79/6/5
f 79/6/5 46/6/5 45/6/5
f 79/6/5 45/6/5 80/6/5
f 79/6/5 80/6/5 81/6/5
f 81/6/5 80/6/5 82/6/5
f 81/6/5 82/6/5 83/6/5
f 81/6/5 83/6/5 84/6/5
f 84/6/5 83/6/5 85/6/5
f 84/6/5 85/6/5 86/6/5
f 84/6/5 86/6/5 87/6/5
f 87/6/5 86/6/5 88/6/5
f 73/2/4 48/3/7 74/2/7
f 48/3/7 73/2/4 47/3/4
f 43/5/3 39/4/3 44/5/3
f 39/4/3 43/5/3 40/4/3
f 15/1/4 76/6/7 16/1/7
f 76/6/7 15/1/4 75/6/4
f 91/4/8 90/5/8 89/5/8
f 90/5/8 91/4/8 92/4/8
f 95/4/9 94/5/9 93/5/9
f 94/5/9 95/4/9 96/4/9
f 95/4/1 91/4/1 96/4/1
f 91/4/1 95/4/1 92/4/1
f 89/5/5 93/5/5 94/5/5
f 93/5/5 89/5/5 90/5/5
f 98/6/11 17/1/10 97/6/10
f 17/1/10 98/6/11 19/1/11
f 99/6/5 98/6/5 97/6/5
f 98/6/5 99/6/5 100/6/5
f 100/6/5 99/6/5 101/6/5
f 100/6/5 101/6/5 102/6/5
f 100/6/5 102/6/5 103/6/5
f 103/6/5 102/6/5 104/6/5
f 103/6/5 104/6/5 105/6/5
f 105/6/5 104/6/5 106/6/5
f 105/6/5 106/6/5 107/6/5
f 107/6/5 106/6/5 108/6/5
f 107/6/5 108/6/5 109/6/5
f 109/6/5 108/6/5 110/6/5
f 109/6/5 110/6/5 111/6/5
f 109/6/5 111/6/5 112/6/5
f 115/2/12 114/3/13 113/3/12
f 114/3/13 115/2/12 116/2/13
f 14/1/15 78/6/14 13/1/14
f 78/6/14 14/1/15 77/6/15
f 119/2/16 118/3/17 117/3/16
f 118/3/17 119/2/16 120/2/17
f 123/2/18 122/3/11 121/3/18
f 122/3/11 123/2/18 124/2/11
f 71/2/14 51/3/19 70/2/19
f 51/3/19 71/2/14 50/3/14
f 28/1/20 110/6/21 108/6/20
f 110/6/21 28/1/20 30/1/21
f 25/1/16 103/6/17 105/6/16
f 103/6/17 25/1/16 23/1/17
f 127/2/22 126/3/23 125/3/22
f 126/3/23 127/2/22 128/2/23
f 131/2/24 130/3/25 129/3/24
f 130/3/25 131/2/24 132/2/25
f 45/6/2 9/1/26 80/6/26
f 9/1/26 45/6/2 11/1/2
f 27/1/13 105/6/16 107/6/13
f 105/6/16 27/1/13 25/1/16
f 20/1/18 98/6/11 100/6/18
f 98/6/11 20/1/18 19/1/11
f 16/1/7 77/6/15 14/1/15
f 77/6/15 16/1/7 76/6/7
f 124/2/1 127/2/1 133/2/1
f 127/2/1 124/2/1 123/2/1
f 127/2/1 123/2/1 128/2/1
f 128/2/1 123/2/1 131/2/1
f 131/2/1 123/2/1 120/2/1
f 131/2/1 120/2/1 132/2/1
f 132/2/1 120/2/1 119/2/1
f 132/2/1 119/2/1 134/2/1
f 134/2/1 119/2/1 116/2/1
f 134/2/1 116/2/1 135/2/1
f 135/2/1 116/2/1 115/2/1
f 135/2/1 115/2/1 136/2/1
f 136/2/1 115/2/1 137/2/1
f 137/2/1 115/2/1 138/2/1
f 120/2/17 121/3/18 118/3/17
f 121/3/18 120/2/17 123/2/18
f 52/3/26 68/2/27 54/3/27
f 68/2/27 52/3/26 69/2/26
f 55/3/29 65/2/28 57/3/28
f 65/2/28 55/3/29 66/2/29
f 10/1/19 81/6/30 7/1/30
f 81/6/30 10/1/19 79/6/19
f 72/2/15 50/3/14 71/2/14
f 50/3/14 72/2/15 49/3/15
f 67/2/30 56/3/31 64/2/31
f 56/3/31 67/2/30 53/3/30
f 83/6/29 5/1/28 85/6/28
f 5/1/28 83/6/29 6/1/29
f 7/1/30 84/6/31 4/1/31
f 84/6/31 7/1/30 81/6/30
f 29/1/12 107/6/13 109/6/12
f 107/6/13 29/1/12 27/1/13
f 82/6/27 6/1/29 83/6/29
f 6/1/29 82/6/27 8/1/27
f 125/3/5 122/3/5 139/3/5
f 122/3/5 125/3/5 121/3/5
f 121/3/5 125/3/5 126/3/5
f 121/3/5 126/3/5 129/3/5
f 121/3/5 129/3/5 118/3/5
f 118/3/5 129/3/5 130/3/5
f 118/3/5 130/3/5 117/3/5
f 117/3/5 130/3/5 140/3/5
f 117/3/5 140/3/5 114/3/5
f 114/3/5 140/3/5 141/3/5
f 114/3/5 141/3/5 113/3/5
f 113/3/5 141/3/5 142/3/5
f 113/3/5 142/3/5 143/3/5
f 113/3/5 143/3/5 144/3/5
f 54/3/27 66/2/29 55/3/29
f 66/2/29 54/3/27 68/2/27
f 144/3/32 115/2/12 113/3/12
f 115/2/12 144/3/32 138/2/32
f 23/1/17 100/6/18 103/6/17
f 100/6/18 23/1/17 20/1/18
f 22/1/24 104/6/25 102/6/24
f 104/6/25 22/1/24 24/1/25
f 21/1/23 102/6/24 101/6/23
f 102/6/24 21/1/23 22/1/24
f 74/2/7 49/3/15 72/2/15
f 49/3/15 74/2/7 48/3/7
f 24/1/25 106/6/33 104/6/25
f 106/6/33 24/1/25 26/1/33
f 57/3/28 63/2/34 58/3/34
f 63/2/34 57/3/28 65/2/28
f 128/2/23 129/3/24 126/3/23
f 129/3/24 128/2/23 131/2/24
f 116/2/13 117/3/16 114/3/13
f 117/3/16 116/2/13 119/2/16
f 147/5/3 146/4/3 145/5/3
f 146/4/3 147/5/3 148/4/3
f 85/6/28 3/1/34 86/6/34
f 3/1/34 85/6/28 5/1/28
f 135/2/20 142/3/21 141/3/20
f 142/3/21 135/2/20 136/2/21
f 64/2/31 59/3/35 62/2/35
f 59/3/35 64/2/31 56/3/31
f 146/4/32 149/5/32 145/5/32
f 149/5/32 146/4/32 150/4/32
f 35/3/2 69/2/26 52/3/26
f 69/2/26 35/3/2 33/2/2
f 152/4/6 147/5/6 151/5/6
f 147/5/6 152/4/6 148/4/6
f 80/6/26 8/1/27 82/6/27
f 8/1/27 80/6/26 9/1/26
f 150/4/1 148/4/1 152/4/1
f 148/4/1 150/4/1 146/4/1
f 70/2/19 53/3/30 67/2/30
f 53/3/30 70/2/19 51/3/19
f 147/5/5 149/5/5 151/5/5
f 149/5/5 147/5/5 145/5/5
f 136/2/21 143/3/6 142/3/21
f 143/3/6 136/2/21 137/2/6
f 26/1/33 108/6/20 106/6/33
f 108/6/20 26/1/33 28/1/20
f 134/2/33 141/3/20 140/3/33
f 141/3/20 134/2/33 135/2/20
f 132/2/25 140/3/33 130/3/25
f 140/3/33 132/2/25 134/2/33
f 13/1/14 79/6/19 10/1/19
f 79/6/19 13/1/14 78/6/14
f 18/1/22 101/6/23 99/6/22
f 101/6/23 18/1/22 21/1/23
f 58/3/34 61/2/36 60/3/36
f 61/2/36 58/3/34 63/2/34
f 30/1/21 111/6/6 110/6/21
f 111/6/6 30/1/21 31/1/6
f 112/6/32 29/1/12 109/6/12
f 29/1/12 112/6/32 32/1/32
f 86/6/34 1/1/36 88/6/36
f 1/1/36 86/6/34 3/1/34
f 4/1/31 87/6/35 2/1/35
f 87/6/35 4/1/31 84/6/31
f 122/3/11 133/2/10 139/3/10
f 133/2/10 122/3/11 124/2/11
f 138/2/4 152/4/4 137/2/4
f 137/2/4 152/4/4 143/3/4
f 138/2/4 150/4/4 152/4/4
f 150/4/4 138/2/4 149/5/4
f 112/6/4 149/5/4 138/2/4
f 112/6/4 138/2/4 144/3/4
f 149/5/4 112/6/4 151/5/4
f 112/6/4 144/3/4 32/1/4
f 143/3/4 32/1/4 144/3/4
f 151/5/4 112/6/4 111/6/4
f 151/5/4 111/6/4 152/4/4
f 32/1/4 143/3/4 31/1/4
f 143/3/4 152/4/4 31/1/4
f 31/1/4 152/4/4 111/6/4
f 62/2/37 91/4/37 61/2/37
f 61/2/37 91/4/37 60/3/37
f 62/2/37 96/4/37 91/4/37
f 96/4/37 62/2/37 94/5/37
f 87/6/37 94/5/37 62/2/37
f 87/6/37 62/2/37 59/3/37
f 94/5/37 87/6/37 89/5/37
f 87/6/37 59/3/37 2/1/37
f 60/3/37 2/1/37 59/3/37
f 89/5/37 87/6/37 88/6/37
f 89/5/37 88/6/37 91/4/37
f 2/1/37 60/3/37 1/1/37
f 60/3/37 91/4/37 1/1/37
f 1/1/37 91/4/37 88/6/37
f 97/6/38 90/5/38 99/6/38
f 99/6/38 90/5/38 18/1/38
f 97/6/38 93/5/38 90/5/38
f 93/5/38 97/6/38 95/4/38
f 133/2/38 95/4/38 97/6/38
f 133/2/38 97/6/38 17/1/38
f 95/4/38 133/2/38 92/4/38
f 133/2/38 17/1/38 139/3/38
f 18/1/38 139/3/38 17/1/38
f 92/4/38 133/2/38 127/2/38
f 92/4/38 127/2/38 90/5/38
f 139/3/38 18/1/38 125/3/38
f 18/1/38 90/5/38 125/3/38
f 125/3/38 90/5/38 127/2/38
f 36/3/32 39/4/32 34/2/32
f 34/2/32 39/4/32 73/2/32
f 37/4/32 73/2/32 39/4/32
f 37/4/32 47/3/32 73/2/32
f 47/3/32 15/1/32 36/3/32
f 37/4/32 15/1/32 47/3/32
f 12/1/32 36/3/32 15/1/32
f 12/1/32 39/4/32 36/3/32
f 37/4/32 75/6/32 15/1/32
f 41/5/32 75/6/32 37/4/32
f 46/6/32 39/4/32 12/1/32
f 75/6/32 41/5/32 46/6/32
f 46/6/32 44/5/32 39/4/32
f 44/5/32 46/6/32 41/5/32

