# Created by Kenney (www.kenney.nl)

mtllib fountain-square.mtl

g fountain-square

v -0.7 0.3352 -0.875 1 1 1
v -0.7 0.28 -0.875 1 1 1
v -0.7 0.3352 -0.725 1 1 1
v -0.7 0.28 -0.725 1 1 1
v -0.9 0.28 -0.875 1 1 1
v -0.9 0.3352 -0.875 1 1 1
v -0.9 0.28 -0.725 1 1 1
v -0.9 0.3352 -0.725 1 1 1
v -0.875 0.28 -0.9 1 1 1
v -0.725 0.28 -0.9 1 1 1
v -0.875 0.3352 -0.9 1 1 1
v -0.725 0.3352 -0.9 1 1 1
v -0.725 0.28 -0.7 1 1 1
v -0.875 0.28 -0.7 1 1 1
v -0.725 0.3352 -0.7 1 1 1
v -0.875 0.3352 -0.7 1 1 1
v -0.7639285 0.4552 -0.8360715 1 1 1
v -0.7639285 0.4552 -0.7639285 1 1 1
v -0.8360715 0.4552 -0.8360715 1 1 1
v -0.8360715 0.4552 -0.7639285 1 1 1
v -0.7639285 0.3352 -0.8360715 1 1 1
v -0.7639285 0.3352 -0.7639285 1 1 1
v -0.8360715 0.3352 -0.8360715 1 1 1
v -0.8360715 0.3352 -0.7639285 1 1 1
v -0.8541073 0.3952 -0.8541073 1 1 1
v -0.7458928 0.3952 -0.8541073 1 1 1
v -0.8541073 0.3952 -0.7458928 1 1 1
v -0.7458928 0.3952 -0.7458928 1 1 1
v -0.7 0.3352 0.725 1 1 1
v -0.7 0.28 0.725 1 1 1
v -0.7 0.3352 0.875 1 1 1
v -0.7 0.28 0.875 1 1 1
v -0.9 0.28 0.725 1 1 1
v -0.9 0.3352 0.725 1 1 1
v -0.9 0.28 0.875 1 1 1
v -0.9 0.3352 0.875 1 1 1
v -0.875 0.28 0.7 1 1 1
v -0.725 0.28 0.7 1 1 1
v -0.875 0.3352 0.7 1 1 1
v -0.725 0.3352 0.7 1 1 1
v -0.725 0.28 0.9 1 1 1
v -0.875 0.28 0.9 1 1 1
v -0.725 0.3352 0.9 1 1 1
v -0.875 0.3352 0.9 1 1 1
v -0.7639285 0.4552 0.7639285 1 1 1
v -0.7639285 0.4552 0.8360715 1 1 1
v -0.8360715 0.4552 0.7639285 1 1 1
v -0.8360715 0.4552 0.8360715 1 1 1
v -0.7639285 0.3352 0.7639285 1 1 1
v -0.7639285 0.3352 0.8360715 1 1 1
v -0.8360715 0.3352 0.7639285 1 1 1
v -0.8360715 0.3352 0.8360715 1 1 1
v -0.8541073 0.3952 0.7458928 1 1 1
v -0.7458928 0.3952 0.7458928 1 1 1
v -0.8541073 0.3952 0.8541073 1 1 1
v -0.7458928 0.3952 0.8541073 1 1 1
v 0.9 0.3352 0.725 1 1 1
v 0.9 0.28 0.725 1 1 1
v 0.9 0.3352 0.875 1 1 1
v 0.9 0.28 0.875 1 1 1
v 0.7 0.28 0.725 1 1 1
v 0.7 0.3352 0.725 1 1 1
v 0.7 0.28 0.875 1 1 1
v 0.7 0.3352 0.875 1 1 1
v 0.725 0.28 0.7 1 1 1
v 0.875 0.28 0.7 1 1 1
v 0.725 0.3352 0.7 1 1 1
v 0.875 0.3352 0.7 1 1 1
v 0.875 0.28 0.9 1 1 1
v 0.725 0.28 0.9 1 1 1
v 0.875 0.3352 0.9 1 1 1
v 0.725 0.3352 0.9 1 1 1
v 0.8360715 0.4552 0.7639285 1 1 1
v 0.8360715 0.4552 0.8360715 1 1 1
v 0.7639285 0.4552 0.7639285 1 1 1
v 0.7639285 0.4552 0.8360715 1 1 1
v 0.8360715 0.3352 0.7639285 1 1 1
v 0.8360715 0.3352 0.8360715 1 1 1
v 0.7639285 0.3352 0.7639285 1 1 1
v 0.7639285 0.3352 0.8360715 1 1 1
v 0.7458928 0.3952 0.7458928 1 1 1
v 0.8541073 0.3952 0.7458928 1 1 1
v 0.7458928 0.3952 0.8541073 1 1 1
v 0.8541073 0.3952 0.8541073 1 1 1
v 0.9 0.3352 -0.875 1 1 1
v 0.9 0.28 -0.875 1 1 1
v 0.9 0.3352 -0.725 1 1 1
v 0.9 0.28 -0.725 1 1 1
v 0.7 0.28 -0.875 1 1 1
v 0.7 0.3352 -0.875 1 1 1
v 0.7 0.28 -0.725 1 1 1
v 0.7 0.3352 -0.725 1 1 1
v 0.725 0.28 -0.9 1 1 1
v 0.875 0.28 -0.9 1 1 1
v 0.725 0.3352 -0.9 1 1 1
v 0.875 0.3352 -0.9 1 1 1
v 0.875 0.28 -0.7 1 1 1
v 0.725 0.28 -0.7 1 1 1
v 0.875 0.3352 -0.7 1 1 1
v 0.725 0.3352 -0.7 1 1 1
v 0.8360715 0.4552 -0.8360715 1 1 1
v 0.8360715 0.4552 -0.7639285 1 1 1
v 0.7639285 0.4552 -0.8360715 1 1 1
v 0.7639285 0.4552 -0.7639285 1 1 1
v 0.8360715 0.3352 -0.8360715 1 1 1
v 0.8360715 0.3352 -0.7639285 1 1 1
v 0.7639285 0.3352 -0.8360715 1 1 1
v 0.7639285 0.3352 -0.7639285 1 1 1
v 0.7458928 0.3952 -0.8541073 1 1 1
v 0.8541073 0.3952 -0.8541073 1 1 1
v 0.7458928 0.3952 -0.7458928 1 1 1
v 0.8541073 0.3952 -0.7458928 1 1 1
v 0.9625 0.14 -1 1 1 1
v 1 0.14 -0.9625 1 1 1
v 0.9625 0.28 -1 1 1 1
v 1 0.28 -0.9625 1 1 1
v -0.9625 0.14 -1 1 1 1
v -0.9625 0.28 -1 1 1 1
v -1 0.14 -0.9625 1 1 1
v -1 0.28 -0.9625 1 1 1
v -1 0.14 0.9625 1 1 1
v -1 0.28 0.9625 1 1 1
v -0.9625 0.14 1 1 1 1
v -0.9625 0.28 1 1 1 1
v 1 0.28 0.9625 1 1 1
v 0.9625 0.28 1 1 1 1
v 0.7 0.28 -0.7 1 1 1
v 0.7 0.28 0.7 1 1 1
v -0.7 0.28 -0.7 1 1 1
v -0.7 0.28 0.7 1 1 1
v -1 0 -1 1 1 1
v -1 0.056 -1 1 1 1
v -1 0 1 1 1 1
v -1 0.056 1 1 1 1
v 1 0.056 -1 1 1 1
v 1 0 -1 1 1 1
v 1 0.056 1 1 1 1
v 1 0 1 1 1 1
v 0.9625 0.14 1 1 1 1
v 0.7 0 -0.7 1 1 1
v 0.7 0 0.7 1 1 1
v -0.7 0 -0.7 1 1 1
v -0.7 0 0.7 1 1 1
v 1 0.14 0.9625 1 1 1
v -0.97 0.056 -0.97 1 1 1
v 0.97 0.056 -0.97 1 1 1
v -0.97 0.056 0.97 1 1 1
v 0.97 0.056 0.97 1 1 1
v -0.97 0.112 -0.97 1 1 1
v -0.97 0.112 0.97 1 1 1
v 0.97 0.112 0.97 1 1 1
v 0.97 0.112 -0.97 1 1 1

vn 0.9238795 0 -0.3826834
vn 0.9238795 0 0.3826834
vn -0.9238795 0 -0.3826834
vn -0.9238795 0 0.3826834
vn -0.3826834 0 -0.9238795
vn 0.3826834 0 -0.9238795
vn 0.3826834 0 0.9238795
vn -0.3826834 0 0.9238795
vn 0 1 0
vn 0 -0.2878713 -0.9576691
vn 0 0 -1
vn -1 0 0
vn -0.9576691 -0.2878713 0
vn 0 -0.2878713 0.9576691
vn 0 0 1
vn 1 0 0
vn 0.9576691 -0.2878713 0
vn 0 0.2878713 0.9576691
vn 0 0.2878713 -0.9576691
vn 0.9576691 0.2878713 0
vn -0.9576691 0.2878713 0
vn 0 -1 0
vn -0.4831825 -0.730116 -0.4831825
vn -0.2167545 -0.6860574 -0.6945089
vn -0.6945089 -0.6860574 -0.2167545
vn -0.4831825 -0.730116 0.4831825
vn -0.6945089 -0.6860574 0.2167545
vn -0.2167545 -0.6860574 0.6945089
vn 0.6945089 -0.6860574 0.2167545
vn 0.4831825 -0.730116 0.4831825
vn 0.2167545 -0.6860574 0.6945089
vn 0.2167545 -0.6860574 -0.6945089
vn 0.4831825 -0.730116 -0.4831825
vn 0.6945089 -0.6860574 -0.2167545

vt 0.21875 0.3565069
vt 0.21875 0.325
vt 0.21875 0.425
vt 0.21875 0.3907534
vt 0.21875 0.375
vt 0.21875 0.345
vt 0.96875 0.115
vt 0.96875 0.125
vt 0.96875 0.095
vt 0.96875 0.075
vt 0.96875 0.175

usemtl colormap

f 3/1/2 2/2/1 1/1/1
f 2/2/1 3/1/2 4/2/2
f 7/2/4 6/1/3 5/2/3
f 6/1/3 7/2/4 8/1/4
f 11/1/5 10/2/6 9/2/5
f 10/2/6 11/1/5 12/1/6
f 15/1/7 14/2/8 13/2/7
f 14/2/8 15/1/7 16/1/8
f 15/1/7 4/2/2 3/1/2
f 4/2/2 15/1/7 13/2/7
f 14/2/8 8/1/4 7/2/4
f 8/1/4 14/2/8 16/1/8
f 1/1/1 10/2/6 12/1/6
f 10/2/6 1/1/1 2/2/1
f 5/2/3 11/1/5 9/2/5
f 11/1/5 5/2/3 6/1/3
f 19/3/9 18/3/9 17/3/9
f 18/3/9 19/3/9 20/3/9
f 12/1/9 3/1/9 1/1/9
f 3/1/9 12/1/9 15/1/9
f 15/1/9 12/1/9 21/1/9
f 21/1/9 12/1/9 11/1/9
f 22/1/9 15/1/9 21/1/9
f 21/1/9 11/1/9 23/1/9
f 15/1/9 22/1/9 16/1/9
f 23/1/9 11/1/9 24/1/9
f 16/1/9 22/1/9 24/1/9
f 16/1/9 24/1/9 11/1/9
f 16/1/9 11/1/9 6/1/9
f 16/1/9 6/1/9 8/1/9
f 25/4/11 21/1/10 23/1/10
f 21/1/10 25/4/11 26/4/11
f 23/1/13 27/4/12 25/4/12
f 27/4/12 23/1/13 24/1/13
f 28/4/15 24/1/14 22/1/14
f 24/1/14 28/4/15 27/4/15
f 28/4/16 21/1/17 26/4/16
f 21/1/17 28/4/16 22/1/17
f 18/3/18 27/4/15 28/4/15
f 27/4/15 18/3/18 20/3/18
f 19/3/19 26/4/11 25/4/11
f 26/4/11 19/3/19 17/3/19
f 17/3/20 28/4/16 26/4/16
f 28/4/16 17/3/20 18/3/20
f 27/4/12 19/3/21 25/4/12
f 19/3/21 27/4/12 20/3/21
f 31/1/2 30/2/1 29/1/1
f 30/2/1 31/1/2 32/2/2
f 35/2/4 34/1/3 33/2/3
f 34/1/3 35/2/4 36/1/4
f 39/1/5 38/2/6 37/2/5
f 38/2/6 39/1/5 40/1/6
f 43/1/7 42/2/8 41/2/7
f 42/2/8 43/1/7 44/1/8
f 43/1/7 32/2/2 31/1/2
f 32/2/2 43/1/7 41/2/7
f 42/2/8 36/1/4 35/2/4
f 36/1/4 42/2/8 44/1/8
f 29/1/1 38/2/6 40/1/6
f 38/2/6 29/1/1 30/2/1
f 33/2/3 39/1/5 37/2/5
f 39/1/5 33/2/3 34/1/3
f 47/3/9 46/3/9 45/3/9
f 46/3/9 47/3/9 48/3/9
f 40/1/9 31/1/9 29/1/9
f 31/1/9 40/1/9 43/1/9
f 43/1/9 40/1/9 49/1/9
f 49/1/9 40/1/9 39/1/9
f 50/1/9 43/1/9 49/1/9
f 49/1/9 39/1/9 51/1/9
f 43/1/9 50/1/9 44/1/9
f 51/1/9 39/1/9 52/1/9
f 44/1/9 50/1/9 52/1/9
f 44/1/9 52/1/9 39/1/9
f 44/1/9 39/1/9 34/1/9
f 44/1/9 34/1/9 36/1/9
f 53/4/11 49/1/10 51/1/10
f 49/1/10 53/4/11 54/4/11
f 51/1/13 55/4/12 53/4/12
f 55/4/12 51/1/13 52/1/13
f 56/4/15 52/1/14 50/1/14
f 52/1/14 56/4/15 55/4/15
f 56/4/16 49/1/17 54/4/16
f 49/1/17 56/4/16 50/1/17
f 46/3/18 55/4/15 56/4/15
f 55/4/15 46/3/18 48/3/18
f 47/3/19 54/4/11 53/4/11
f 54/4/11 47/3/19 45/3/19
f 45/3/20 56/4/16 54/4/16
f 56/4/16 45/3/20 46/3/20
f 55/4/12 47/3/21 53/4/12
f 47/3/21 55/4/12 48/3/21
f 59/1/2 58/2/1 57/1/1
f 58/2/1 59/1/2 60/2/2
f 63/2/4 62/1/3 61/2/3
f 62/1/3 63/2/4 64/1/4
f 67/1/5 66/2/6 65/2/5
f 66/2/6 67/1/5 68/1/6
f 71/1/7 70/2/8 69/2/7
f 70/2/8 71/1/7 72/1/8
f 71/1/7 60/2/2 59/1/2
f 60/2/2 71/1/7 69/2/7
f 70/2/8 64/1/4 63/2/4
f 64/1/4 70/2/8 72/1/8
f 57/1/1 66/2/6 68/1/6
f 66/2/6 57/1/1 58/2/1
f 61/2/3 67/1/5 65/2/5
f 67/1/5 61/2/3 62/1/3
f 75/3/9 74/3/9 73/3/9
f 74/3/9 75/3/9 76/3/9
f 68/1/9 59/1/9 57/1/9
f 59/1/9 68/1/9 71/1/9
f 71/1/9 68/1/9 77/1/9
f 77/1/9 68/1/9 67/1/9
f 78/1/9 71/1/9 77/1/9
f 77/1/9 67/1/9 79/1/9
f 71/1/9 78/1/9 72/1/9
f 79/1/9 67/1/9 80/1/9
f 72/1/9 78/1/9 80/1/9
f 72/1/9 80/1/9 67/1/9
f 72/1/9 67/1/9 62/1/9
f 72/1/9 62/1/9 64/1/9
f 81/4/11 77/1/10 79/1/10
f 77/1/10 81/4/11 82/4/11
f 79/1/13 83/4/12 81/4/12
f 83/4/12 79/1/13 80/1/13
f 84/4/15 80/1/14 78/1/14
f 80/1/14 84/4/15 83/4/15
f 84/4/16 77/1/17 82/4/16
f 77/1/17 84/4/16 78/1/17
f 74/3/18 83/4/15 84/4/15
f 83/4/15 74/3/18 76/3/18
f 75/3/19 82/4/11 81/4/11
f 82/4/11 75/3/19 73/3/19
f 73/3/20 84/4/16 82/4/16
f 84/4/16 73/3/20 74/3/20
f 83/4/12 75/3/21 81/4/12
f 75/3/21 83/4/12 76/3/21
f 87/1/2 86/2/1 85/1/1
f 86/2/1 87/1/2 88/2/2
f 91/2/4 90/1/3 89/2/3
f 90/1/3 91/2/4 92/1/4
f 95/1/5 94/2/6 93/2/5
f 94/2/6 95/1/5 96/1/6
f 99/1/7 98/2/8 97/2/7
f 98/2/8 99/1/7 100/1/8
f 99/1/7 88/2/2 87/1/2
f 88/2/2 99/1/7 97/2/7
f 98/2/8 92/1/4 91/2/4
f 92/1/4 98/2/8 100/1/8
f 85/1/1 94/2/6 96/1/6
f 94/2/6 85/1/1 86/2/1
f 89/2/3 95/1/5 93/2/5
f 95/1/5 89/2/3 90/1/3
f 103/3/9 102/3/9 101/3/9
f 102/3/9 103/3/9 104/3/9
f 96/1/9 87/1/9 85/1/9
f 87/1/9 96/1/9 99/1/9
f 99/1/9 96/1/9 105/1/9
f 105/1/9 96/1/9 95/1/9
f 106/1/9 99/1/9 105/1/9
f 105/1/9 95/1/9 107/1/9
f 99/1/9 106/1/9 100/1/9
f 107/1/9 95/1/9 108/1/9
f 100/1/9 106/1/9 108/1/9
f 100/1/9 108/1/9 95/1/9
f 100/1/9 95/1/9 90/1/9
f 100/1/9 90/1/9 92/1/9
f 109/4/11 105/1/10 107/1/10
f 105/1/10 109/4/11 110/4/11
f 107/1/13 111/4/12 109/4/12
f 111/4/12 107/1/13 108/1/13
f 112/4/15 108/1/14 106/1/14
f 108/1/14 112/4/15 111/4/15
f 112/4/16 105/1/17 110/4/16
f 105/1/17 112/4/16 106/1/17
f 102/3/18 111/4/15 112/4/15
f 111/4/15 102/3/18 104/3/18
f 103/3/19 110/4/11 109/4/11
f 110/4/11 103/3/19 101/3/19
f 101/3/20 112/4/16 110/4/16
f 112/4/16 101/3/20 102/3/20
f 111/4/12 103/3/21 109/4/12
f 103/3/21 111/4/12 104/3/21
f 115/3/6 114/5/1 113/5/6
f 114/5/1 115/3/6 116/3/1
f 119/5/3 118/3/5 117/5/5
f 118/3/5 119/5/3 120/3/3
f 123/5/8 122/3/4 121/5/4
f 122/3/4 123/5/8 124/3/8
f 115/3/9 125/3/9 116/3/9
f 125/3/9 115/3/9 126/3/9
f 126/3/9 115/3/9 127/3/9
f 127/3/9 115/3/9 118/3/9
f 128/3/9 126/3/9 127/3/9
f 127/3/9 118/3/9 129/3/9
f 126/3/9 128/3/9 124/3/9
f 129/3/9 118/3/9 130/3/9
f 124/3/9 128/3/9 130/3/9
f 124/3/9 130/3/9 118/3/9
f 124/3/9 118/3/9 120/3/9
f 124/3/9 120/3/9 122/3/9
f 133/2/12 132/6/12 131/2/12
f 132/6/12 133/2/12 134/6/12
f 118/3/5 113/5/6 117/5/5
f 113/5/6 118/3/5 115/3/6
f 137/6/16 136/2/16 135/6/16
f 136/2/16 137/6/16 138/2/16
f 121/5/4 120/3/3 119/5/3
f 120/3/3 121/5/4 122/3/4
f 132/6/11 136/2/11 131/2/11
f 136/2/11 132/6/11 135/6/11
f 126/3/7 123/5/8 139/5/7
f 123/5/8 126/3/7 124/3/8
f 142/2/9 141/2/9 140/2/9
f 141/2/9 142/2/9 143/2/9
f 125/3/2 114/5/1 116/3/1
f 114/5/1 125/3/2 144/5/2
f 137/6/15 133/2/15 138/2/15
f 133/2/15 137/6/15 134/6/15
f 125/3/2 139/5/7 144/5/2
f 139/5/7 125/3/2 126/3/7
f 136/2/22 140/2/22 131/2/22
f 140/2/22 136/2/22 138/2/22
f 131/2/22 140/2/22 142/2/22
f 138/2/22 141/2/22 140/2/22
f 131/2/22 142/2/22 143/2/22
f 141/2/22 138/2/22 133/2/22
f 141/2/22 133/2/22 143/2/22
f 143/2/22 133/2/22 131/2/22
f 146/6/9 132/6/9 145/6/9
f 145/6/9 132/6/9 147/6/9
f 146/6/9 135/6/9 132/6/9
f 134/6/9 147/6/9 132/6/9
f 135/6/9 146/6/9 137/6/9
f 134/6/9 148/6/9 147/6/9
f 137/6/9 148/6/9 134/6/9
f 148/6/9 137/6/9 146/6/9
f 119/8/25 117/8/24 149/7/23
f 123/8/28 121/8/27 150/7/26
f 139/8/31 151/7/30 144/8/29
f 114/8/34 152/7/33 113/8/32
f 150/7/26 119/8/25 149/7/23
f 119/8/25 150/7/26 121/8/27
f 139/8/31 150/7/26 151/7/30
f 150/7/26 139/8/31 123/8/28
f 149/7/11 146/9/11 145/9/11
f 146/9/11 149/7/11 152/7/11
f 144/8/29 152/7/33 114/8/34
f 152/7/33 144/8/29 151/7/30
f 141/10/12 127/11/12 140/10/12
f 127/11/12 141/10/12 128/11/12
f 151/7/16 146/9/16 152/7/16
f 146/9/16 151/7/16 148/9/16
f 147/9/12 149/7/12 145/9/12
f 149/7/12 147/9/12 150/7/12
f 149/7/23 113/8/32 152/7/33
f 113/8/32 149/7/23 117/8/24
f 130/11/11 141/10/11 143/10/11
f 141/10/11 130/11/11 128/11/11
f 127/11/15 142/10/15 140/10/15
f 142/10/15 127/11/15 129/11/15
f 130/11/16 142/10/16 129/11/16
f 142/10/16 130/11/16 143/10/16
f 151/7/15 147/9/15 148/9/15
f 147/9/15 151/7/15 150/7/15

g fountain-square




usemtl colormap

f 3/1/2 2/2/1 1/1/1
f 2/2/1 3/1/2 4/2/2
f 7/2/4 6/1/3 5/2/3
f 6/1/3 7/2/4 8/1/4
f 11/1/5 10/2/6 9/2/5
f 10/2/6 11/1/5 12/1/6
f 15/1/7 14/2/8 13/2/7
f 14/2/8 15/1/7 16/1/8
f 15/1/7 4/2/2 3/1/2
f 4/2/2 15/1/7 13/2/7
f 14/2/8 8/1/4 7/2/4
f 8/1/4 14/2/8 16/1/8
f 1/1/1 10/2/6 12/1/6
f 10/2/6 1/1/1 2/2/1
f 5/2/3 11/1/5 9/2/5
f 11/1/5 5/2/3 6/1/3
f 19/3/9 18/3/9 17/3/9
f 18/3/9 19/3/9 20/3/9
f 12/1/9 3/1/9 1/1/9
f 3/1/9 12/1/9 15/1/9
f 15/1/9 12/1/9 21/1/9
f 21/1/9 12/1/9 11/1/9
f 22/1/9 15/1/9 21/1/9
f 21/1/9 11/1/9 23/1/9
f 15/1/9 22/1/9 16/1/9
f 23/1/9 11/1/9 24/1/9
f 16/1/9 22/1/9 24/1/9
f 16/1/9 24/1/9 11/1/9
f 16/1/9 11/1/9 6/1/9
f 16/1/9 6/1/9 8/1/9
f 25/4/11 21/1/10 23/1/10
f 21/1/10 25/4/11 26/4/11
f 23/1/13 27/4/12 25/4/12
f 27/4/12 23/1/13 24/1/13
f 28/4/15 24/1/14 22/1/14
f 24/1/14 28/4/15 27/4/15
f 28/4/16 21/1/17 26/4/16
f 21/1/17 28/4/16 22/1/17
f 18/3/18 27/4/15 28/4/15
f 27/4/15 18/3/18 20/3/18
f 19/3/19 26/4/11 25/4/11
f 26/4/11 19/3/19 17/3/19
f 17/3/20 28/4/16 26/4/16
f 28/4/16 17/3/20 18/3/20
f 27/4/12 19/3/21 25/4/12
f 19/3/21 27/4/12 20/3/21
f 31/1/2 30/2/1 29/1/1
f 30/2/1 31/1/2 32/2/2
f 35/2/4 34/1/3 33/2/3
f 34/1/3 35/2/4 36/1/4
f 39/1/5 38/2/6 37/2/5
f 38/2/6 39/1/5 40/1/6
f 43/1/7 42/2/8 41/2/7
f 42/2/8 43/1/7 44/1/8
f 43/1/7 32/2/2 31/1/2
f 32/2/2 43/1/7 41/2/7
f 42/2/8 36/1/4 35/2/4
f 36/1/4 42/2/8 44/1/8
f 29/1/1 38/2/6 40/1/6
f 38/2/6 29/1/1 30/2/1
f 33/2/3 39/1/5 37/2/5
f 39/1/5 33/2/3 34/1/3
f 47/3/9 46/3/9 45/3/9
f 46/3/9 47/3/9 48/3/9
f 40/1/9 31/1/9 29/1/9
f 31/1/9 40/1/9 43/1/9
f 43/1/9 40/1/9 49/1/9
f 49/1/9 40/1/9 39/1/9
f 50/1/9 43/1/9 49/1/9
f 49/1/9 39/1/9 51/1/9
f 43/1/9 50/1/9 44/1/9
f 51/1/9 39/1/9 52/1/9
f 44/1/9 50/1/9 52/1/9
f 44/1/9 52/1/9 39/1/9
f 44/1/9 39/1/9 34/1/9
f 44/1/9 34/1/9 36/1/9
f 53/4/11 49/1/10 51/1/10
f 49/1/10 53/4/11 54/4/11
f 51/1/13 55/4/12 53/4/12
f 55/4/12 51/1/13 52/1/13
f 56/4/15 52/1/14 50/1/14
f 52/1/14 56/4/15 55/4/15
f 56/4/16 49/1/17 54/4/16
f 49/1/17 56/4/16 50/1/17
f 46/3/18 55/4/15 56/4/15
f 55/4/15 46/3/18 48/3/18
f 47/3/19 54/4/11 53/4/11
f 54/4/11 47/3/19 45/3/19
f 45/3/20 56/4/16 54/4/16
f 56/4/16 45/3/20 46/3/20
f 55/4/12 47/3/21 53/4/12
f 47/3/21 55/4/12 48/3/21
f 59/1/2 58/2/1 57/1/1
f 58/2/1 59/1/2 60/2/2
f 63/2/4 62/1/3 61/2/3
f 62/1/3 63/2/4 64/1/4
f 67/1/5 66/2/6 65/2/5
f 66/2/6 67/1/5 68/1/6
f 71/1/7 70/2/8 69/2/7
f 70/2/8 71/1/7 72/1/8
f 71/1/7 60/2/2 59/1/2
f 60/2/2 71/1/7 69/2/7
f 70/2/8 64/1/4 63/2/4
f 64/1/4 70/2/8 72/1/8
f 57/1/1 66/2/6 68/1/6
f 66/2/6 57/1/1 58/2/1
f 61/2/3 67/1/5 65/2/5
f 67/1/5 61/2/3 62/1/3
f 75/3/9 74/3/9 73/3/9
f 74/3/9 75/3/9 76/3/9
f 68/1/9 59/1/9 57/1/9
f 59/1/9 68/1/9 71/1/9
f 71/1/9 68/1/9 77/1/9
f 77/1/9 68/1/9 67/1/9
f 78/1/9 71/1/9 77/1/9
f 77/1/9 67/1/9 79/1/9
f 71/1/9 78/1/9 72/1/9
f 79/1/9 67/1/9 80/1/9
f 72/1/9 78/1/9 80/1/9
f 72/1/9 80/1/9 67/1/9
f 72/1/9 67/1/9 62/1/9
f 72/1/9 62/1/9 64/1/9
f 81/4/11 77/1/10 79/1/10
f 77/1/10 81/4/11 82/4/11
f 79/1/13 83/4/12 81/4/12
f 83/4/12 79/1/13 80/1/13
f 84/4/15 80/1/14 78/1/14
f 80/1/14 84/4/15 83/4/15
f 84/4/16 77/1/17 82/4/16
f 77/1/17 84/4/16 78/1/17
f 74/3/18 83/4/15 84/4/15
f 83/4/15 74/3/18 76/3/18
f 75/3/19 82/4/11 81/4/11
f 82/4/11 75/3/19 73/3/19
f 73/3/20 84/4/16 82/4/16
f 84/4/16 73/3/20 74/3/20
f 83/4/12 75/3/21 81/4/12
f 75/3/21 83/4/12 76/3/21
f 87/1/2 86/2/1 85/1/1
f 86/2/1 87/1/2 88/2/2
f 91/2/4 90/1/3 89/2/3
f 90/1/3 91/2/4 92/1/4
f 95/1/5 94/2/6 93/2/5
f 94/2/6 95/1/5 96/1/6
f 99/1/7 98/2/8 97/2/7
f 98/2/8 99/1/7 100/1/8
f 99/1/7 88/2/2 87/1/2
f 88/2/2 99/1/7 97/2/7
f 98/2/8 92/1/4 91/2/4
f 92/1/4 98/2/8 100/1/8
f 85/1/1 94/2/6 96/1/6
f 94/2/6 85/1/1 86/2/1
f 89/2/3 95/1/5 93/2/5
f 95/1/5 89/2/3 90/1/3
f 103/3/9 102/3/9 101/3/9
f 102/3/9 103/3/9 104/3/9
f 96/1/9 87/1/9 85/1/9
f 87/1/9 96/1/9 99/1/9
f 99/1/9 96/1/9 105/1/9
f 105/1/9 96/1/9 95/1/9
f 106/1/9 99/1/9 105/1/9
f 105/1/9 95/1/9 107/1/9
f 99/1/9 106/1/9 100/1/9
f 107/1/9 95/1/9 108/1/9
f 100/1/9 106/1/9 108/1/9
f 100/1/9 108/1/9 95/1/9
f 100/1/9 95/1/9 90/1/9
f 100/1/9 90/1/9 92/1/9
f 109/4/11 105/1/10 107/1/10
f 105/1/10 109/4/11 110/4/11
f 107/1/13 111/4/12 109/4/12
f 111/4/12 107/1/13 108/1/13
f 112/4/15 108/1/14 106/1/14
f 108/1/14 112/4/15 111/4/15
f 112/4/16 105/1/17 110/4/16
f 105/1/17 112/4/16 106/1/17
f 102/3/18 111/4/15 112/4/15
f 111/4/15 102/3/18 104/3/18
f 103/3/19 110/4/11 109/4/11
f 110/4/11 103/3/19 101/3/19
f 101/3/20 112/4/16 110/4/16
f 112/4/16 101/3/20 102/3/20
f 111/4/12 103/3/21 109/4/12
f 103/3/21 111/4/12 104/3/21
f 115/3/6 114/5/1 113/5/6
f 114/5/1 115/3/6 116/3/1
f 119/5/3 118/3/5 117/5/5
f 118/3/5 119/5/3 120/3/3
f 123/5/8 122/3/4 121/5/4
f 122/3/4 123/5/8 124/3/8
f 115/3/9 125/3/9 116/3/9
f 125/3/9 115/3/9 126/3/9
f 126/3/9 115/3/9 127/3/9
f 127/3/9 115/3/9 118/3/9
f 128/3/9 126/3/9 127/3/9
f 127/3/9 118/3/9 129/3/9
f 126/3/9 128/3/9 124/3/9
f 129/3/9 118/3/9 130/3/9
f 124/3/9 128/3/9 130/3/9
f 124/3/9 130/3/9 118/3/9
f 124/3/9 118/3/9 120/3/9
f 124/3/9 120/3/9 122/3/9
f 133/2/12 132/6/12 131/2/12
f 132/6/12 133/2/12 134/6/12
f 118/3/5 113/5/6 117/5/5
f 113/5/6 118/3/5 115/3/6
f 137/6/16 136/2/16 135/6/16
f 136/2/16 137/6/16 138/2/16
f 121/5/4 120/3/3 119/5/3
f 120/3/3 121/5/4 122/3/4
f 132/6/11 136/2/11 131/2/11
f 136/2/11 132/6/11 135/6/11
f 126/3/7 123/5/8 139/5/7
f 123/5/8 126/3/7 124/3/8
f 142/2/9 141/2/9 140/2/9
f 141/2/9 142/2/9 143/2/9
f 125/3/2 114/5/1 116/3/1
f 114/5/1 125/3/2 144/5/2
f 137/6/15 133/2/15 138/2/15
f 133/2/15 137/6/15 134/6/15
f 125/3/2 139/5/7 144/5/2
f 139/5/7 125/3/2 126/3/7
f 136/2/22 140/2/22 131/2/22
f 140/2/22 136/2/22 138/2/22
f 131/2/22 140/2/22 142/2/22
f 138/2/22 141/2/22 140/2/22
f 131/2/22 142/2/22 143/2/22
f 141/2/22 138/2/22 133/2/22
f 141/2/22 133/2/22 143/2/22
f 143/2/22 133/2/22 131/2/22
f 146/6/9 132/6/9 145/6/9
f 145/6/9 132/6/9 147/6/9
f 146/6/9 135/6/9 132/6/9
f 134/6/9 147/6/9 132/6/9
f 135/6/9 146/6/9 137/6/9
f 134/6/9 148/6/9 147/6/9
f 137/6/9 148/6/9 134/6/9
f 148/6/9 137/6/9 146/6/9
f 119/8/25 117/8/24 149/7/23
f 123/8/28 121/8/27 150/7/26
f 139/8/31 151/7/30 144/8/29
f 114/8/34 152/7/33 113/8/32
f 150/7/26 119/8/25 149/7/23
f 119/8/25 150/7/26 121/8/27
f 139/8/31 150/7/26 151/7/30
f 150/7/26 139/8/31 123/8/28
f 149/7/11 146/9/11 145/9/11
f 146/9/11 149/7/11 152/7/11
f 144/8/29 152/7/33 114/8/34
f 152/7/33 144/8/29 151/7/30
f 141/10/12 127/11/12 140/10/12
f 127/11/12 141/10/12 128/11/12
f 151/7/16 146/9/16 152/7/16
f 146/9/16 151/7/16 148/9/16
f 147/9/12 149/7/12 145/9/12
f 149/7/12 147/9/12 150/7/12
f 149/7/23 113/8/32 152/7/33
f 113/8/32 149/7/23 117/8/24
f 130/11/11 141/10/11 143/10/11
f 141/10/11 130/11/11 128/11/11
f 127/11/15 142/10/15 140/10/15
f 142/10/15 127/11/15 129/11/15
f 130/11/16 142/10/16 129/11/16
f 142/10/16 130/11/16 143/10/16
f 151/7/15 147/9/15 148/9/15
f 147/9/15 151/7/15 150/7/15

g (%ignore)

v 0.7 0.14 -0.7 1 1 1
v 0.7 0.14 0.7 1 1 1
v -0.7 0.14 -0.7 1 1 1
v -0.7 0.14 0.7 1 1 1


vt -27.55906 -27.55906
vt -27.55906 27.55906
vt 27.55906 -27.55906
vt 27.55906 27.55906

usemtl Water

f 155/14/9 154/13/9 153/12/9
f 154/13/9 155/14/9 156/15/9
f 153/12/22 154/13/22 155/14/22
f 156/15/22 155/14/22 154/13/22

