# Created by Kenney (www.kenney.nl)

mtllib fountain-corner-inner.mtl

g fountain-corner-inner

v -0.4710222 0.112 -0.4922354 1 1 1
v -0.4702567 0.112 -0.4960842 1 1 1
v -0.5 0.14 -0.5 1 1 1
v -0.4922354 0.112 -0.4710222 1 1 1
v -0.4885195 0.112 -0.4722836 1 1 1
v -0.485 0.112 -0.4740192 1 1 1
v -0.4817372 0.112 -0.4761994 1 1 1
v -0.4722836 0.112 -0.4885195 1 1 1
v -0.4740192 0.112 -0.485 1 1 1
v -0.4787868 0.112 -0.4787868 1 1 1
v -0.47 0.112 -0.5 1 1 1
v -0.4761994 0.112 -0.4817372 1 1 1
v -0.5 0.112 -0.47 1 1 1
v -0.4960842 0.112 -0.4702567 1 1 1
v -0.4740192 0.056 -0.485 1 1 1
v -0.4761994 0.056 -0.4817372 1 1 1
v -0.4817372 0.056 -0.4761994 1 1 1
v -0.4787868 0.056 -0.4787868 1 1 1
v -0.4960842 0.056 -0.4702567 1 1 1
v -0.4922354 0.056 -0.4710222 1 1 1
v -0.4722836 0.056 -0.4885195 1 1 1
v -0.485 0.056 -0.4740192 1 1 1
v -0.5 0.056 -0.47 1 1 1
v -0.4702567 0.056 -0.4960842 1 1 1
v -0.4710222 0.056 -0.4922354 1 1 1
v -0.47 0.056 -0.5 1 1 1
v -0.5 0.056 -0.5 1 1 1
v -0.4885195 0.056 -0.4722836 1 1 1
v -0.425 0.28 -0.5 1 1 1
v -0.430709 0.28 -0.4712988 1 1 1
v -0.5 0.23 -0.5 1 1 1
v -0.4712988 0.28 -0.430709 1 1 1
v -0.5 0.28 -0.425 1 1 1
v -0.446967 0.28 -0.446967 1 1 1
v -0.2 0 -0.5 1 1 1
v -0.5 0 -0.5 1 1 1
v -0.2025665 0 -0.4608421 1 1 1
v -0.2102222 0 -0.4223543 1 1 1
v -0.2228361 0 -0.385195 1 1 1
v -0.2401924 0 -0.35 1 1 1
v -0.261994 0 -0.3173716 1 1 1
v -0.2878679 0 -0.287868 1 1 1
v -0.3173716 0 -0.261994 1 1 1
v -0.35 0 -0.2401924 1 1 1
v -0.385195 0 -0.2228361 1 1 1
v -0.4223543 0 -0.2102222 1 1 1
v -0.4608421 0 -0.2025665 1 1 1
v -0.5 0 -0.2 1 1 1
v -0.2 0.28 -0.5 1 1 1
v -0.2025665 0.28 -0.4608421 1 1 1
v -0.4223543 0.28 -0.2102222 1 1 1
v -0.4608421 0.28 -0.2025665 1 1 1
v -0.385195 0.28 -0.2228361 1 1 1
v -0.2102222 0.28 -0.4223543 1 1 1
v -0.2228361 0.28 -0.385195 1 1 1
v -0.2401924 0.28 -0.35 1 1 1
v -0.261994 0.28 -0.3173716 1 1 1
v -0.2878679 0.28 -0.287868 1 1 1
v -0.3173716 0.28 -0.261994 1 1 1
v -0.5 0.28 -0.2 1 1 1
v -0.35 0.28 -0.2401924 1 1 1
v 0.5 0 -0.5 1 1 1
v 0.5 0 0.5 1 1 1
v -0.5 0 0.5 1 1 1

vn -0.8883683 -0.3926064 -0.2380376
vn -0.9118383 -0.3926064 -0.1200458
vn -0.4556606 -0.7646871 -0.455661
vn -0.2380372 -0.3926063 -0.8883684
vn -0.3519562 -0.3926064 -0.8496983
vn -0.4598531 -0.3926063 -0.7964894
vn -0.5598816 -0.3926064 -0.7296525
vn -0.849698 -0.3926064 -0.3519565
vn -0.7964892 -0.3926064 -0.4598534
vn -0.6503306 -0.3926064 -0.6503309
vn -0.9180401 -0.391895 -0.06017155
vn -0.7296522 -0.3926064 -0.5598821
vn -0.0601711 -0.391895 -0.9180402
vn -0.1200454 -0.3926063 -0.9118385
vn -0.6246182 0.692678 -0.3606236
vn -0.5722036 0.6926781 -0.4390674
vn -0.4390672 0.6926781 -0.5722038
vn -0.5099985 0.692678 -0.5099987
vn -0.0941413 0.692678 -0.7150766
vn -0.1866722 0.692678 -0.6966711
vn -0.6663452 0.692678 -0.2760093
vn -0.3606233 0.692678 -0.6246184
vn -0.04721995 0.6919054 -0.7204424
vn -0.7150766 0.692678 -0.09414165
vn -0.696671 0.692678 -0.1866725
vn -0.7204424 0.6919054 -0.0472203
vn 0 1 0
vn -0.276009 0.692678 -0.6663454
vn -0.5513542 0.8270313 -0.1096712
vn -0.5124761 0.8320503 -0.2122746
vn -0.3708265 0.8514549 -0.3708265
vn -0.2122746 0.8320503 -0.5124761
vn -0.1096712 0.8270313 -0.5513542
vn -0.3922322 0.8320503 -0.3922322
vn 0 -1 0
vn 0.9978589 0 0.06540301
vn 0.9914449 0 0.1305261
vn 0.258819 0 0.9659258
vn 0.1305262 0 0.9914449
vn 0.3826834 0 0.9238795
vn 0.9659258 0 0.258819
vn 0.9238795 0 0.3826834
vn 0.8660254 0 0.5
vn 0.7933533 0 0.6087614
vn 0.7071068 0 0.7071068
vn 0.6087614 0 0.7933533
vn 0.0654031 0 0.9978589
vn 0.5 0 0.8660254
vn 0 0 -1
vn -1 0 0

vt 0.96875 0.105
vt 0.96875 0.125
vt 0.96875 0.065
vt 0.21875 0.475
vt 0.21875 0.4392857
vt 0.21875 0.275
vt 0.21875 0.315
vt 0.21875 0.355
vt 0.21875 0.375

usemtl colormap

f 3/2/3 2/1/2 1/1/1
f 3/2/3 5/1/5 4/1/4
f 3/2/3 6/1/6 5/1/5
f 3/2/3 7/1/7 6/1/6
f 3/2/3 1/1/1 8/1/8
f 3/2/3 8/1/8 9/1/9
f 3/2/3 10/1/10 7/1/7
f 3/2/3 11/1/11 2/1/2
f 3/2/3 9/1/9 12/1/12
f 3/2/3 14/1/14 13/1/13
f 3/2/3 4/1/4 14/1/14
f 3/2/3 12/1/12 10/1/10
f 16/3/16 9/1/9 15/3/15
f 9/1/9 16/3/16 12/1/12
f 7/1/7 18/3/18 17/3/17
f 18/3/18 7/1/7 10/1/10
f 14/1/14 20/3/20 19/3/19
f 20/3/20 14/1/14 4/1/4
f 18/3/18 12/1/12 16/3/16
f 12/1/12 18/3/18 10/1/10
f 15/3/15 8/1/8 21/3/21
f 8/1/8 15/3/15 9/1/9
f 6/1/6 17/3/17 22/3/22
f 17/3/17 6/1/6 7/1/7
f 13/1/13 19/3/19 23/3/23
f 19/3/19 13/1/13 14/1/14
f 25/3/25 2/1/2 24/3/24
f 2/1/2 25/3/25 1/1/1
f 27/3/27 24/3/24 26/3/26
f 24/3/24 27/3/27 25/3/25
f 25/3/25 27/3/27 21/3/21
f 21/3/21 27/3/27 15/3/15
f 15/3/15 27/3/27 16/3/16
f 16/3/16 27/3/27 18/3/18
f 18/3/18 27/3/27 17/3/17
f 17/3/17 27/3/27 22/3/22
f 22/3/22 27/3/27 28/3/28
f 28/3/28 27/3/27 20/3/20
f 20/3/20 27/3/27 19/3/19
f 19/3/19 27/3/27 23/3/23
f 24/3/24 11/1/11 26/3/26
f 11/1/11 24/3/24 2/1/2
f 21/3/21 1/1/1 25/3/25
f 1/1/1 21/3/21 8/1/8
f 5/1/5 22/3/22 28/3/28
f 22/3/22 5/1/5 6/1/6
f 4/1/4 28/3/28 20/3/20
f 28/3/28 4/1/4 5/1/5
f 31/5/31 30/4/30 29/4/29
f 31/5/31 33/4/33 32/4/32
f 31/5/31 34/4/34 30/4/30
f 31/5/31 32/4/32 34/4/34
f 37/6/35 36/6/35 35/6/35
f 36/6/35 37/6/35 38/6/35
f 36/6/35 38/6/35 39/6/35
f 36/6/35 39/6/35 40/6/35
f 36/6/35 40/6/35 41/6/35
f 36/6/35 41/6/35 42/6/35
f 36/6/35 42/6/35 43/6/35
f 36/6/35 43/6/35 44/6/35
f 36/6/35 44/6/35 45/6/35
f 36/6/35 45/6/35 46/6/35
f 36/6/35 46/6/35 47/6/35
f 36/6/35 47/6/35 48/6/35
f 50/4/37 35/6/36 49/4/36
f 35/6/36 50/4/37 37/6/37
f 51/4/38 47/6/39 46/6/38
f 47/6/39 51/4/38 52/4/39
f 53/4/40 46/6/38 45/6/40
f 46/6/38 53/4/40 51/4/38
f 54/4/41 37/6/37 50/4/37
f 37/6/37 54/4/41 38/6/41
f 55/4/42 38/6/41 54/4/41
f 38/6/41 55/4/42 39/6/42
f 57/4/44 40/6/43 56/4/43
f 40/6/43 57/4/44 41/6/44
f 58/4/45 43/6/46 42/6/45
f 43/6/46 58/4/45 59/4/46
f 58/4/45 41/6/44 57/4/44
f 41/6/44 58/4/45 42/6/45
f 56/4/43 39/6/42 55/4/42
f 39/6/42 56/4/43 40/6/43
f 52/4/39 48/6/47 47/6/39
f 48/6/47 52/4/39 60/4/47
f 59/4/46 44/6/48 43/6/46
f 44/6/48 59/4/46 61/4/48
f 61/4/48 45/6/40 44/6/48
f 45/6/40 61/4/48 53/4/40
f 35/6/27 63/6/27 62/6/27
f 63/6/27 35/6/27 37/6/27
f 63/6/27 37/6/27 38/6/27
f 63/6/27 38/6/27 64/6/27
f 64/6/27 38/6/27 39/6/27
f 64/6/27 39/6/27 40/6/27
f 64/6/27 40/6/27 41/6/27
f 64/6/27 41/6/27 42/6/27
f 64/6/27 42/6/27 43/6/27
f 64/6/27 43/6/27 44/6/27
f 64/6/27 44/6/27 45/6/27
f 64/6/27 45/6/27 46/6/27
f 64/6/27 46/6/27 47/6/27
f 64/6/27 47/6/27 48/6/27
f 27/7/49 35/6/49 36/6/49
f 35/6/49 27/7/49 26/7/49
f 35/6/49 26/7/49 49/4/49
f 49/4/49 26/7/49 11/8/49
f 49/4/49 11/8/49 3/9/49
f 49/4/49 3/9/49 31/5/49
f 49/4/49 31/5/49 29/4/49
f 48/6/50 27/7/50 36/6/50
f 27/7/50 48/6/50 23/7/50
f 23/7/50 48/6/50 13/8/50
f 13/8/50 48/6/50 33/4/50
f 33/4/50 48/6/50 60/4/50
f 33/4/50 3/9/50 13/8/50
f 3/9/50 33/4/50 31/5/50
f 29/4/27 50/4/27 49/4/27
f 50/4/27 29/4/27 54/4/27
f 54/4/27 29/4/27 55/4/27
f 55/4/27 29/4/27 56/4/27
f 56/4/27 29/4/27 57/4/27
f 57/4/27 29/4/27 58/4/27
f 58/4/27 29/4/27 59/4/27
f 59/4/27 29/4/27 61/4/27
f 61/4/27 29/4/27 53/4/27
f 53/4/27 29/4/27 51/4/27
f 51/4/27 29/4/27 52/4/27
f 52/4/27 29/4/27 30/4/27
f 52/4/27 30/4/27 34/4/27
f 52/4/27 34/4/27 32/4/27
f 52/4/27 32/4/27 60/4/27
f 60/4/27 32/4/27 33/4/27

g fountain-corner-inner




usemtl colormap

f 3/2/3 2/1/2 1/1/1
f 3/2/3 5/1/5 4/1/4
f 3/2/3 6/1/6 5/1/5
f 3/2/3 7/1/7 6/1/6
f 3/2/3 1/1/1 8/1/8
f 3/2/3 8/1/8 9/1/9
f 3/2/3 10/1/10 7/1/7
f 3/2/3 11/1/11 2/1/2
f 3/2/3 9/1/9 12/1/12
f 3/2/3 14/1/14 13/1/13
f 3/2/3 4/1/4 14/1/14
f 3/2/3 12/1/12 10/1/10
f 16/3/16 9/1/9 15/3/15
f 9/1/9 16/3/16 12/1/12
f 7/1/7 18/3/18 17/3/17
f 18/3/18 7/1/7 10/1/10
f 14/1/14 20/3/20 19/3/19
f 20/3/20 14/1/14 4/1/4
f 18/3/18 12/1/12 16/3/16
f 12/1/12 18/3/18 10/1/10
f 15/3/15 8/1/8 21/3/21
f 8/1/8 15/3/15 9/1/9
f 6/1/6 17/3/17 22/3/22
f 17/3/17 6/1/6 7/1/7
f 13/1/13 19/3/19 23/3/23
f 19/3/19 13/1/13 14/1/14
f 25/3/25 2/1/2 24/3/24
f 2/1/2 25/3/25 1/1/1
f 27/3/27 24/3/24 26/3/26
f 24/3/24 27/3/27 25/3/25
f 25/3/25 27/3/27 21/3/21
f 21/3/21 27/3/27 15/3/15
f 15/3/15 27/3/27 16/3/16
f 16/3/16 27/3/27 18/3/18
f 18/3/18 27/3/27 17/3/17
f 17/3/17 27/3/27 22/3/22
f 22/3/22 27/3/27 28/3/28
f 28/3/28 27/3/27 20/3/20
f 20/3/20 27/3/27 19/3/19
f 19/3/19 27/3/27 23/3/23
f 24/3/24 11/1/11 26/3/26
f 11/1/11 24/3/24 2/1/2
f 21/3/21 1/1/1 25/3/25
f 1/1/1 21/3/21 8/1/8
f 5/1/5 22/3/22 28/3/28
f 22/3/22 5/1/5 6/1/6
f 4/1/4 28/3/28 20/3/20
f 28/3/28 4/1/4 5/1/5
f 31/5/31 30/4/30 29/4/29
f 31/5/31 33/4/33 32/4/32
f 31/5/31 34/4/34 30/4/30
f 31/5/31 32/4/32 34/4/34
f 37/6/35 36/6/35 35/6/35
f 36/6/35 37/6/35 38/6/35
f 36/6/35 38/6/35 39/6/35
f 36/6/35 39/6/35 40/6/35
f 36/6/35 40/6/35 41/6/35
f 36/6/35 41/6/35 42/6/35
f 36/6/35 42/6/35 43/6/35
f 36/6/35 43/6/35 44/6/35
f 36/6/35 44/6/35 45/6/35
f 36/6/35 45/6/35 46/6/35
f 36/6/35 46/6/35 47/6/35
f 36/6/35 47/6/35 48/6/35
f 50/4/37 35/6/36 49/4/36
f 35/6/36 50/4/37 37/6/37
f 51/4/38 47/6/39 46/6/38
f 47/6/39 51/4/38 52/4/39
f 53/4/40 46/6/38 45/6/40
f 46/6/38 53/4/40 51/4/38
f 54/4/41 37/6/37 50/4/37
f 37/6/37 54/4/41 38/6/41
f 55/4/42 38/6/41 54/4/41
f 38/6/41 55/4/42 39/6/42
f 57/4/44 40/6/43 56/4/43
f 40/6/43 57/4/44 41/6/44
f 58/4/45 43/6/46 42/6/45
f 43/6/46 58/4/45 59/4/46
f 58/4/45 41/6/44 57/4/44
f 41/6/44 58/4/45 42/6/45
f 56/4/43 39/6/42 55/4/42
f 39/6/42 56/4/43 40/6/43
f 52/4/39 48/6/47 47/6/39
f 48/6/47 52/4/39 60/4/47
f 59/4/46 44/6/48 43/6/46
f 44/6/48 59/4/46 61/4/48
f 61/4/48 45/6/40 44/6/48
f 45/6/40 61/4/48 53/4/40
f 35/6/27 63/6/27 62/6/27
f 63/6/27 35/6/27 37/6/27
f 63/6/27 37/6/27 38/6/27
f 63/6/27 38/6/27 64/6/27
f 64/6/27 38/6/27 39/6/27
f 64/6/27 39/6/27 40/6/27
f 64/6/27 40/6/27 41/6/27
f 64/6/27 41/6/27 42/6/27
f 64/6/27 42/6/27 43/6/27
f 64/6/27 43/6/27 44/6/27
f 64/6/27 44/6/27 45/6/27
f 64/6/27 45/6/27 46/6/27
f 64/6/27 46/6/27 47/6/27
f 64/6/27 47/6/27 48/6/27
f 27/7/49 35/6/49 36/6/49
f 35/6/49 27/7/49 26/7/49
f 35/6/49 26/7/49 49/4/49
f 49/4/49 26/7/49 11/8/49
f 49/4/49 11/8/49 3/9/49
f 49/4/49 3/9/49 31/5/49
f 49/4/49 31/5/49 29/4/49
f 48/6/50 27/7/50 36/6/50
f 27/7/50 48/6/50 23/7/50
f 23/7/50 48/6/50 13/8/50
f 13/8/50 48/6/50 33/4/50
f 33/4/50 48/6/50 60/4/50
f 33/4/50 3/9/50 13/8/50
f 3/9/50 33/4/50 31/5/50
f 29/4/27 50/4/27 49/4/27
f 50/4/27 29/4/27 54/4/27
f 54/4/27 29/4/27 55/4/27
f 55/4/27 29/4/27 56/4/27
f 56/4/27 29/4/27 57/4/27
f 57/4/27 29/4/27 58/4/27
f 58/4/27 29/4/27 59/4/27
f 59/4/27 29/4/27 61/4/27
f 61/4/27 29/4/27 53/4/27
f 53/4/27 29/4/27 51/4/27
f 51/4/27 29/4/27 52/4/27
f 52/4/27 29/4/27 30/4/27
f 52/4/27 30/4/27 34/4/27
f 52/4/27 34/4/27 32/4/27
f 52/4/27 32/4/27 60/4/27
f 60/4/27 32/4/27 33/4/27

g (%ignore)

v 0.5 0.14 -0.5 1 1 1
v 0.5 0.14 0.5 1 1 1
v -0.2 0.14 -0.5 1 1 1
v -0.2025665 0.14 -0.4608421 1 1 1
v -0.2102222 0.14 -0.4223543 1 1 1
v -0.5 0.14 0.5 1 1 1
v -0.2228361 0.14 -0.385195 1 1 1
v -0.2401924 0.14 -0.35 1 1 1
v -0.261994 0.14 -0.3173716 1 1 1
v -0.287868 0.14 -0.287868 1 1 1
v -0.3173716 0.14 -0.261994 1 1 1
v -0.35 0.14 -0.2401924 1 1 1
v -0.385195 0.14 -0.2228361 1 1 1
v -0.4223543 0.14 -0.2102222 1 1 1
v -0.4608421 0.14 -0.2025665 1 1 1
v -0.5 0.14 -0.2 1 1 1


vt -19.68504 -19.68504
vt -19.68504 19.68504
vt 7.874015 -19.68504
vt 7.97506 -18.14339
vt 8.276466 -16.62812
vt 19.68504 19.68504
vt 8.773076 -15.16516
vt 9.456392 -13.77953
vt 10.31472 -12.49494
vt 11.33338 -11.33338
vt 12.49494 -10.31472
vt 13.77953 -9.456392
vt 15.16516 -8.773076
vt 16.62812 -8.276466
vt 18.14339 -7.97506
vt 19.68504 -7.874016

usemtl Water

f 67/12/27 66/11/27 65/10/27
f 66/11/27 67/12/27 68/13/27
f 66/11/27 68/13/27 69/14/27
f 66/11/27 69/14/27 70/15/27
f 70/15/27 69/14/27 71/16/27
f 70/15/27 71/16/27 72/17/27
f 70/15/27 72/17/27 73/18/27
f 70/15/27 73/18/27 74/19/27
f 70/15/27 74/19/27 75/20/27
f 70/15/27 75/20/27 76/21/27
f 70/15/27 76/21/27 77/22/27
f 70/15/27 77/22/27 78/23/27
f 70/15/27 78/23/27 79/24/27
f 70/15/27 79/24/27 80/25/27

