# Created by Kenney (www.kenney.nl)

mtllib hedge-large-curved.mtl

g hedge-large-curved

v -0.5 0 -0.5 1 1 1
v -0.5 0.15 -0.5 1 1 1
v -0.5 0 -0.1 1 1 1
v -0.5 0.2 -0.45 1 1 1
v -0.5 0.2 -0.15 1 1 1
v -0.5 0.15 -0.1 1 1 1
v 8.662937E-15 0.2 -0.45 1 1 1
v 1.443823E-15 0.15 -0.5 1 1 1
v 1.443823E-15 0 -0.5 1 1 1
v 5.630909E-14 0.15 -0.1 1 1 1
v 5.197762E-14 0.2 -0.15 1 1 1
v 5.919673E-14 0 -0.1 1 1 1
v 0.1385819 0.2 -0.05740251 1 1 1
v 0.09238795 0.15 -0.03826834 1 1 1
v 0.106066 0.2 -0.106066 1 1 1
v 0.07071068 0.15 -0.07071068 1 1 1
v 0.1913417 0.15 -0.4619398 1 1 1
v 0.1722075 0.2 -0.4157458 1 1 1
v 0.4619398 0.15 -0.1913417 1 1 1
v 0.4157458 0.2 -0.1722075 1 1 1
v 0.3535534 0.15 -0.3535534 1 1 1
v 0.318198 0.2 -0.318198 1 1 1
v 0.15 0.2 3.465175E-14 1 1 1
v 0.1 0.15 3.465175E-14 1 1 1
v 0.5 0 3.465175E-14 1 1 1
v 0.5 0 0.5 1 1 1
v 0.5 0.15 3.753939E-14 1 1 1
v 0.5 0.15 0.5 1 1 1
v 0.1 0 0.5 1 1 1
v 0.4619398 0 -0.1913417 1 1 1
v 0.3535534 0 -0.3535534 1 1 1
v 0.1913417 0 -0.4619398 1 1 1
v 0.1 0 3.465175E-14 1 1 1
v 0.09238795 0 -0.03826834 1 1 1
v 0.07071068 0 -0.07071068 1 1 1
v 0.03826834 0 -0.09238795 1 1 1
v 0.15 0.2 0.5 1 1 1
v 0.1 0.15 0.5 1 1 1
v 0.45 0.2 0.5 1 1 1
v 0.45 0.2 3.465175E-14 1 1 1
v 0.05740251 0.2 -0.1385819 1 1 1
v 0.03826834 0.15 -0.09238795 1 1 1
v 0.425 0.575 0 1 1 1
v 0.45 0.5 0 1 1 1
v 0.425 0.575 0.1 1 1 1
v 0.45 0.475 0.1 1 1 1
v 0.425 0.55 0.3 1 1 1
v 0.45 0.475 0.3 1 1 1
v 0.318198 0.5 -0.318198 1 1 1
v 0.318198 0.25 -0.318198 1 1 1
v 0.4157458 0.5 -0.1722075 1 1 1
v 0.4157458 0.25 -0.1722075 1 1 1
v 0.3005204 0.575 -0.3005204 1 1 1
v 0.3926488 0.575 -0.1626405 1 1 1
v 0.3233578 0.6 -0.1339392 1 1 1
v 0.2474874 0.6 -0.2474874 1 1 1
v 0.1722075 0.25 -0.4157458 1 1 1
v 0.1722075 0.5 -0.4157458 1 1 1
v 0.45 0.25 0 1 1 1
v 0.35 0.6 0.1 1 1 1
v 0.25 0.6 0.1 1 1 1
v 0.35 0.6 0 1 1 1
v 0.25 0.6 0 1 1 1
v 0.2309699 0.6 -0.09567086 1 1 1
v 0.1339392 0.6 -0.3233578 1 1 1
v 0.1767767 0.6 -0.1767767 1 1 1
v 0.09567086 0.6 -0.2309699 1 1 1
v 0 0.6 -0.35 1 1 1
v 0 0.6 -0.25 1 1 1
v -0.1 0.6 -0.25 1 1 1
v -0.1 0.6 -0.35 1 1 1
v 0.1237437 0.575 -0.1237437 1 1 1
v 0.0669696 0.575 -0.1616789 1 1 1
v 0 0.25 -0.45 1 1 1
v 0 0.5 -0.45 1 1 1
v 0.106066 0.25 -0.106066 1 1 1
v 0.05740251 0.25 -0.1385819 1 1 1
v 0.106066 0.5 -0.106066 1 1 1
v 0.05740251 0.5 -0.1385819 1 1 1
v 0.15 0.5 0 1 1 1
v 0.175 0.575 0 1 1 1
v 0.15 0.5 0.1 1 1 1
v 0.175 0.575 0.1 1 1 1
v 0.1385819 0.25 -0.05740251 1 1 1
v 0.1385819 0.5 -0.05740251 1 1 1
v 0.1626405 0.575 -0.3926488 1 1 1
v 0.1616789 0.575 -0.0669696 1 1 1
v 0 0.25 -0.15 1 1 1
v 0 0.5 -0.15 1 1 1
v -0.1 0.5 -0.45 1 1 1
v -0.1 0.575 -0.425 1 1 1
v 0 0.575 -0.425 1 1 1
v 0 0.575 -0.175 1 1 1
v 0.15 0.25 0 1 1 1
v -0.1 0.5 -0.15 1 1 1
v -0.1 0.575 -0.175 1 1 1
v -0.3 0.55 -0.175 1 1 1
v -0.5 0.575 -0.175 1 1 1
v -0.3 0.575 -0.25 1 1 1
v -0.5 0.6 -0.25 1 1 1
v -0.5 0.25 -0.15 1 1 1
v -0.3 0.475 -0.15 1 1 1
v -0.5 0.5 -0.15 1 1 1
v -0.3 0.575 -0.35 1 1 1
v -0.5 0.6 -0.35 1 1 1
v -0.3 0.475 -0.45 1 1 1
v -0.3 0.55 -0.425 1 1 1
v -0.5 0.5 -0.45 1 1 1
v -0.5 0.575 -0.425 1 1 1
v 0.425 0.575 0.5 1 1 1
v 0.35 0.575 0.3 1 1 1
v 0.35 0.6 0.5 1 1 1
v 0.45 0.25 0.5 1 1 1
v 0.45 0.5 0.5 1 1 1
v 0.15 0.475 0.3 1 1 1
v 0.175 0.55 0.3 1 1 1
v 0.25 0.575 0.3 1 1 1
v 0.25 0.6 0.5 1 1 1
v 0.175 0.575 0.5 1 1 1
v 0.15 0.5 0.5 1 1 1
v -0.5 0.25 -0.45 1 1 1
v 0.15 0.25 0.5 1 1 1
v 0.07691155 0.2 -0.1856809 1 1 1
v 0.004924569 0.2 -0.2 1 1 1
v 0.1856809 0.2 -0.07691155 1 1 1
v 0.142114 0.2 -0.142114 1 1 1
v -0.5 0.2 -0.4 1 1 1
v -0.004924571 0.2 -0.4 1 1 1
v 0.2 0.2 0.5 1 1 1
v 0.2 0.2 -0.004924569 1 1 1
v 0.3686468 0.2 -0.1526985 1 1 1
v 0.28215 0.2 -0.28215 1 1 1
v 0.1526985 0.2 -0.3686468 1 1 1
v 0.4 0.2 0.004924571 1 1 1
v -0.5 0.2 -0.2 1 1 1
v 0.4 0.2 0.5 1 1 1

vn -1 0 0
vn 0.07275616 0.7052328 -0.7052328
vn 0 0.7071068 -0.7071068
vn 0.08940511 0.3735052 -0.9233096
vn 0 0.3826834 -0.9238795
vn 0 0 -1
vn 0.09801714 0 -0.9951847
vn -0.09205667 0.3901203 0.9161505
vn 0 0.3826834 0.9238795
vn -0.06659367 0.7055371 0.7055371
vn 0 0.7071068 0.7071068
vn -0.09801714 0 0.9951847
vn 0 0 1
vn -0.6532815 0.7071068 0.2705981
vn -0.8465121 0.4005885 0.3506368
vn -0.5 0.7071068 0.5
vn -0.6478924 0.4005885 0.6478924
vn 0.3560058 0.3668299 -0.8594741
vn 0.2705981 0.7071068 -0.6532815
vn 0.8594741 0.3668299 -0.3560058
vn 0.6532815 0.7071068 -0.2705981
vn 0.6578129 0.3668299 -0.6578129
vn 0.5 0.7071068 -0.5
vn -0.7055371 0.7055371 0.06659367
vn -0.9161505 0.3901203 0.09205667
vn 0.9951847 0 -0.09801714
vn 1 0 0
vn 0.9233096 0.3735052 -0.08940511
vn 0.9238795 0.3826834 0
vn 0 -1 0
vn -0.7071068 0.7071068 0
vn -0.9238795 0.3826834 0
vn -0.9951847 0 0.09801714
vn 0.7052328 0.7052328 -0.07275616
vn 0.7071068 0.7071068 0
vn -0.2705981 0.7071068 0.6532815
vn -0.3506368 0.4005885 0.8465121
vn -0.9238795 0 0.3826834
vn -0.7071068 0 0.7071068
vn -0.3826834 0 0.9238795
vn 0.3826834 0 -0.9238795
vn 0.7071068 0 -0.7071068
vn 0.9238795 0 -0.3826834
vn 0 1 0
vn 0.718003 0.6924193 -0.07090265
vn 0.9529011 0.2954767 -0.0683592
vn 0.7179079 0.6941321 0.05280963
vn 0.9668961 0.2519732 0.04026733
vn 0.7293677 0.6840622 -0.009023788
vn 0.9485123 0.3161708 -0.01898217
vn 0.6566502 -0.3709733 -0.6566502
vn 0.8579547 -0.3709733 -0.3553765
vn 0.6708204 0.3162277 -0.6708204
vn 0.876469 0.3162277 -0.3630454
vn 0.5182524 0.6803154 -0.5182524
vn 0.6771294 0.6803153 -0.2804762
vn 0.1658901 0.9837474 -0.0687139
vn 0.1269667 0.9837474 -0.1269667
vn 0.3553765 -0.3709733 -0.8579547
vn 0.9943337 0 -0.1063032
vn 0.9223351 -0.3755604 -0.09084208
vn 0.1589136 0.9854072 0.06098392
vn -0.1589136 0.9854072 0.06098392
vn 0.1698312 0.985312 -0.017819
vn -0.1503507 0.9885336 0.01399675
vn -0.1298596 0.9900723 0.0537896
vn 0.0687139 0.9837474 -0.1658901
vn -0.09939024 0.9900723 0.09939024
vn -0.0537896 0.9900723 0.1298596
vn 0.017819 0.985312 -0.1698312
vn -0.01399675 0.9885336 0.1503507
vn -0.06098392 0.9854072 0.1589136
vn -0.06098392 0.9854072 -0.1589136
vn -0.4786796 0.7360242 0.4786796
vn -0.2590595 0.7360242 0.6254251
vn 0.09084208 -0.3755604 -0.9223351
vn -0.6463757 -0.4054588 0.6463757
vn -0.349816 -0.4054588 0.8445306
vn -0.9444004 0.3148001 0.0949151
vn -0.6903396 0.7202626 0.06821299
vn -0.9484845 0.3161615 0.02046739
vn -0.6979645 0.7147455 0.04454688
vn -0.8445306 -0.4054588 0.349816
vn 0.3630454 0.3162277 -0.876469
vn 0.2804762 0.6803153 -0.6771294
vn -0.6254251 0.7360242 0.2590595
vn -0.6708204 0.3162277 0.6708204
vn -0.876469 0.3162277 0.3630454
vn -0.09014917 -0.3925548 0.9152999
vn -0.02046739 0.3161615 -0.9484845
vn 0.09125404 0.3149084 -0.9447251
vn -0.04454688 0.7147455 -0.6979645
vn 0.07090265 0.6924193 -0.718003
vn -0.06821299 0.7202626 0.6903396
vn -0.3630454 0.3162277 0.876469
vn -0.9152999 -0.3925548 0.09014917
vn -0.0949151 0.3148001 0.9444004
vn -0.02046739 0.3161615 0.9484845
vn -0.04454688 0.7147455 0.6979645
vn 0 0.6885253 0.7252124
vn 0.09012497 0.7209998 0.6870494
vn 0 0.9867547 0.1622193
vn 0.122496 0.9799681 0.1570264
vn 0 -0.3826834 0.9238795
vn 0 0.9867547 -0.1622193
vn 0.122496 0.9799681 -0.1570264
vn 0 0.3162278 -0.9486833
vn 0 0.6885253 -0.7252124
vn 0.03949763 0.315981 -0.947943
vn 0.09012497 0.7209998 -0.6870494
vn 0 0.3162278 0.9486833
vn 0.03949763 0.315981 0.947943
vn 0.6870494 0.7209998 -0.09012497
vn 0.1622193 0.9867547 0
vn 0.1570264 0.9799681 -0.122496
vn 0.9238795 -0.3826834 0
vn -0.9486833 0.3162278 0
vn -0.7252124 0.6885253 0
vn -0.1622193 0.9867547 0
vn -0.1570264 0.9799681 -0.122496
vn -0.6870494 0.7209998 -0.09012497
vn 0.947943 0.315981 -0.03949763
vn -0.947943 0.315981 -0.03949763
vn 0 -0.3826834 -0.9238795
vn -0.9238795 -0.3826834 0
vn -0.2679605 -0.7139325 0.6469138
vn -0.06914111 -0.7088113 0.7020015
vn -0.6469138 -0.7139325 0.2679605
vn -0.4951264 -0.7139325 0.4951264
vn 0 -0.7071068 -0.7071068
vn 0.06914111 -0.7088113 -0.7020015
vn -0.7071068 -0.7071068 0
vn -0.7020015 -0.7088113 0.06914112
vn 0.6469138 -0.7139325 -0.2679605
vn 0.4951264 -0.7139325 -0.4951264
vn 0.2679605 -0.7139325 -0.6469138
vn 0.7020015 -0.7088113 -0.06914112
vn 0 -0.7071068 0.7071068
vn 0.7071068 -0.7071068 0

vt 0.21875 0.275
vt 0.21875 0.425
vt 0.21875 0.475
vt 0.46875 0.2125
vt 0.46875 0.175
vt 0.46875 0.1625
vt 0.46875 0.2
vt 0.46875 0.05
vt 0.46875 0.225
vt 0.46875 0.025

usemtl colormap

f 3/1/1 2/2/1 1/1/1
f 2/2/1 3/1/1 4/3/1
f 4/3/1 3/1/1 5/3/1
f 5/3/1 3/1/1 6/2/1
f 8/2/4 4/3/3 7/3/2
f 4/3/3 8/2/4 2/2/5
f 2/2/5 9/1/7 1/1/6
f 9/1/7 2/2/5 8/2/4
f 11/3/10 6/2/9 10/2/8
f 6/2/9 11/3/10 5/3/11
f 10/2/8 3/1/13 12/1/12
f 3/1/13 10/2/8 6/2/9
f 15/3/16 14/2/15 13/3/14
f 14/2/15 15/3/16 16/2/17
f 8/2/4 18/3/19 17/2/18
f 18/3/19 8/2/4 7/3/2
f 21/2/22 20/3/21 19/2/20
f 20/3/21 21/2/22 22/3/23
f 13/3/14 24/2/25 23/3/24
f 24/2/25 13/3/14 14/2/15
f 17/2/18 22/3/23 21/2/22
f 22/3/23 17/2/18 18/3/19
f 27/2/28 26/1/27 25/1/26
f 26/1/27 27/2/28 28/2/29
f 29/1/30 25/1/30 26/1/30
f 25/1/30 29/1/30 30/1/30
f 30/1/30 29/1/30 31/1/30
f 31/1/30 29/1/30 32/1/30
f 32/1/30 29/1/30 33/1/30
f 32/1/30 33/1/30 34/1/30
f 32/1/30 34/1/30 9/1/30
f 9/1/30 34/1/30 35/1/30
f 9/1/30 35/1/30 36/1/30
f 9/1/30 36/1/30 12/1/30
f 9/1/30 12/1/30 3/1/30
f 9/1/30 3/1/30 1/1/30
f 24/2/25 37/3/31 23/3/24
f 37/3/31 24/2/25 38/2/32
f 28/2/13 29/1/13 26/1/13
f 29/1/13 28/2/13 38/2/13
f 38/2/13 28/2/13 39/3/13
f 38/2/13 39/3/13 37/3/13
f 29/1/1 24/2/25 33/1/33
f 24/2/25 29/1/1 38/2/32
f 39/3/35 27/2/28 40/3/34
f 27/2/28 39/3/35 28/2/29
f 11/3/10 42/2/37 41/3/36
f 42/2/37 11/3/10 10/2/8
f 41/3/36 16/2/17 15/3/16
f 16/2/17 41/3/36 42/2/37
f 20/3/21 27/2/28 19/2/20
f 27/2/28 20/3/21 40/3/34
f 33/1/33 14/2/15 34/1/38
f 14/2/15 33/1/33 24/2/25
f 16/2/17 36/1/40 35/1/39
f 36/1/40 16/2/17 42/2/37
f 42/2/37 12/1/12 36/1/40
f 12/1/12 42/2/37 10/2/8
f 17/2/18 31/1/42 32/1/41
f 31/1/42 17/2/18 21/2/22
f 34/1/38 16/2/17 35/1/39
f 16/2/17 34/1/38 14/2/15
f 8/2/4 32/1/41 9/1/7
f 32/1/41 8/2/4 17/2/18
f 19/2/20 31/1/42 21/2/22
f 31/1/42 19/2/20 30/1/43
f 27/2/28 30/1/43 19/2/20
f 30/1/43 27/2/28 25/1/26
f 5/3/44 7/3/44 4/3/44
f 11/3/44 7/3/44 5/3/44
f 41/3/44 7/3/44 11/3/44
f 15/3/44 7/3/44 41/3/44
f 13/3/44 7/3/44 15/3/44
f 13/3/44 18/3/44 7/3/44
f 18/3/44 13/3/44 23/3/44
f 37/3/44 18/3/44 23/3/44
f 37/3/44 22/3/44 18/3/44
f 37/3/44 20/3/44 22/3/44
f 39/3/44 20/3/44 37/3/44
f 20/3/44 39/3/44 40/3/44
f 45/4/47 44/5/46 43/4/45
f 46/6/48 44/5/46 45/4/47
f 47/7/49 46/6/48 45/4/47
f 48/6/50 46/6/48 47/7/49
f 51/5/43 50/8/51 49/5/42
f 50/8/51 51/5/43 52/8/52
f 53/4/55 51/5/54 49/5/53
f 51/5/54 53/4/55 54/4/56
f 54/4/56 44/5/46 51/5/54
f 44/5/46 54/4/56 43/4/45
f 53/4/55 55/9/57 54/4/56
f 55/9/57 53/4/55 56/9/58
f 58/5/41 50/8/51 57/8/59
f 50/8/51 58/5/41 49/5/42
f 44/5/60 52/8/52 51/5/43
f 52/8/52 44/5/60 59/8/61
f 62/9/64 61/9/63 60/9/62
f 61/9/63 62/9/64 63/9/65
f 55/9/57 63/9/65 62/9/64
f 63/9/65 55/9/57 56/9/58
f 63/9/65 56/9/58 64/9/66
f 64/9/66 56/9/58 65/9/67
f 64/9/66 65/9/67 66/9/68
f 66/9/68 65/9/67 67/9/69
f 67/9/69 65/9/67 68/9/70
f 67/9/69 68/9/70 69/9/71
f 68/9/70 70/9/72 69/9/71
f 70/9/72 68/9/70 71/9/73
f 67/9/69 72/4/74 66/9/68
f 72/4/74 67/9/69 73/4/75
f 75/5/7 57/8/59 74/8/76
f 57/8/59 75/5/7 58/5/41
f 78/5/39 77/8/78 76/8/77
f 77/8/78 78/5/39 79/5/40
f 82/5/81 81/4/80 80/5/79
f 81/4/80 82/5/81 83/4/82
f 84/8/83 78/5/39 76/8/77
f 78/5/39 84/8/83 85/5/38
f 86/4/85 49/5/53 58/5/84
f 49/5/53 86/4/85 53/4/55
f 63/9/65 83/4/82 61/9/63
f 83/4/82 63/9/65 81/4/80
f 78/5/87 87/4/86 72/4/74
f 87/4/86 78/5/87 85/5/88
f 79/5/40 88/8/89 77/8/78
f 88/8/89 79/5/40 89/5/12
f 91/4/92 75/5/91 90/5/90
f 75/5/91 91/4/92 92/4/93
f 86/4/85 56/9/58 53/4/55
f 56/9/58 86/4/85 65/9/67
f 92/4/93 71/9/73 68/9/70
f 71/9/73 92/4/93 91/4/92
f 54/4/56 62/9/64 43/4/45
f 62/9/64 54/4/56 55/9/57
f 69/9/71 73/4/75 67/9/69
f 73/4/75 69/9/71 93/4/94
f 66/9/68 87/4/86 64/9/66
f 87/4/86 66/9/68 72/4/74
f 92/4/93 65/9/67 86/4/85
f 65/9/67 92/4/93 68/9/70
f 72/4/74 79/5/95 78/5/87
f 79/5/95 72/4/74 73/4/75
f 92/4/93 58/5/84 75/5/91
f 58/5/84 92/4/93 86/4/85
f 94/8/96 85/5/38 84/8/83
f 85/5/38 94/8/96 80/5/33
f 64/9/66 81/4/80 63/9/65
f 81/4/80 64/9/66 87/4/86
f 93/4/94 95/5/98 89/5/97
f 95/5/98 93/4/94 96/4/99
f 73/4/75 89/5/97 79/5/95
f 89/5/97 73/4/75 93/4/94
f 99/4/102 98/4/101 97/7/100
f 98/4/101 99/4/102 100/9/103
f 89/5/12 101/8/104 88/8/89
f 101/8/104 89/5/12 102/6/13
f 102/6/13 89/5/12 95/5/13
f 103/5/13 101/8/104 102/6/13
f 85/5/88 81/4/80 87/4/86
f 81/4/80 85/5/88 80/5/79
f 104/4/105 100/9/103 99/4/102
f 100/9/103 104/4/105 105/9/106
f 108/5/109 107/7/108 106/6/107
f 107/7/108 108/5/109 109/4/110
f 107/7/108 105/9/106 104/4/105
f 105/9/106 107/7/108 109/4/110
f 97/7/100 103/5/112 102/6/111
f 103/5/112 97/7/100 98/4/101
f 70/9/72 97/7/100 96/4/99
f 97/7/100 70/9/72 99/4/102
f 107/7/108 90/5/90 106/6/107
f 90/5/90 107/7/108 91/4/92
f 91/4/92 104/4/105 71/9/73
f 104/4/105 91/4/92 107/7/108
f 69/9/71 96/4/99 93/4/94
f 96/4/99 69/9/71 70/9/72
f 95/5/98 97/7/100 102/6/111
f 97/7/100 95/5/98 96/4/99
f 71/9/73 99/4/102 70/9/72
f 99/4/102 71/9/73 104/4/105
f 43/4/45 60/9/62 45/4/47
f 60/9/62 43/4/45 62/9/64
f 111/4/114 110/4/113 47/7/49
f 110/4/113 111/4/114 112/9/115
f 44/5/60 113/8/116 59/8/61
f 113/8/116 44/5/60 46/6/27
f 113/8/116 46/6/27 48/6/27
f 113/8/116 48/6/27 114/5/27
f 115/6/117 83/4/82 82/5/81
f 83/4/82 115/6/117 116/7/118
f 60/9/62 117/4/119 111/4/114
f 117/4/119 60/9/62 61/9/63
f 61/9/63 116/7/118 117/4/119
f 116/7/118 61/9/63 83/4/82
f 116/7/118 118/9/120 117/4/119
f 118/9/120 116/7/118 119/4/121
f 45/4/47 111/4/114 47/7/49
f 111/4/114 45/4/47 60/9/62
f 110/4/113 48/6/50 47/7/49
f 48/6/50 110/4/113 114/5/122
f 120/5/123 116/7/118 115/6/117
f 116/7/118 120/5/123 119/4/121
f 117/4/119 112/9/115 111/4/114
f 112/9/115 117/4/119 118/9/120
f 108/5/6 74/8/76 121/8/124
f 74/8/76 108/5/6 106/6/6
f 106/6/6 75/5/7 74/8/76
f 75/5/7 106/6/6 90/5/6
f 94/8/96 82/5/1 80/5/33
f 82/5/1 94/8/96 122/8/125
f 82/5/1 122/8/125 115/6/1
f 115/6/1 122/8/125 120/5/1
f 77/8/78 124/10/127 123/10/126
f 124/10/127 77/8/78 88/8/89
f 84/8/83 126/10/129 125/10/128
f 126/10/129 84/8/83 76/8/77
f 121/8/124 128/10/131 127/10/130
f 128/10/131 121/8/124 74/8/76
f 122/8/125 130/10/133 129/10/132
f 130/10/133 122/8/125 94/8/96
f 131/10/134 50/8/51 52/8/52
f 50/8/51 131/10/134 132/10/135
f 94/8/96 125/10/128 130/10/133
f 125/10/128 94/8/96 84/8/83
f 132/10/135 57/8/59 50/8/51
f 57/8/59 132/10/135 133/10/136
f 76/8/77 123/10/126 126/10/129
f 123/10/126 76/8/77 77/8/78
f 133/10/136 74/8/76 57/8/59
f 74/8/76 133/10/136 128/10/131
f 134/10/137 52/8/52 59/8/61
f 52/8/52 134/10/137 131/10/134
f 88/8/89 135/10/138 124/10/127
f 135/10/138 88/8/89 101/8/104
f 136/10/139 59/8/61 113/8/116
f 59/8/61 136/10/139 134/10/137
f 127/10/1 108/5/1 121/8/1
f 108/5/1 127/10/1 109/4/1
f 109/4/1 127/10/1 105/9/1
f 105/9/1 127/10/1 135/10/1
f 105/9/1 135/10/1 100/9/1
f 100/9/1 135/10/1 98/4/1
f 98/4/1 135/10/1 101/8/1
f 98/4/1 101/8/1 103/5/1
f 113/8/13 129/10/13 136/10/13
f 129/10/13 113/8/13 122/8/13
f 122/8/13 113/8/13 114/5/13
f 122/8/13 114/5/13 120/5/13
f 120/5/13 114/5/13 110/4/13
f 120/5/13 110/4/13 119/4/13
f 119/4/13 110/4/13 112/9/13
f 119/4/13 112/9/13 118/9/13

g hedge-large-curved




usemtl colormap

f 3/1/1 2/2/1 1/1/1
f 2/2/1 3/1/1 4/3/1
f 4/3/1 3/1/1 5/3/1
f 5/3/1 3/1/1 6/2/1
f 8/2/4 4/3/3 7/3/2
f 4/3/3 8/2/4 2/2/5
f 2/2/5 9/1/7 1/1/6
f 9/1/7 2/2/5 8/2/4
f 11/3/10 6/2/9 10/2/8
f 6/2/9 11/3/10 5/3/11
f 10/2/8 3/1/13 12/1/12
f 3/1/13 10/2/8 6/2/9
f 15/3/16 14/2/15 13/3/14
f 14/2/15 15/3/16 16/2/17
f 8/2/4 18/3/19 17/2/18
f 18/3/19 8/2/4 7/3/2
f 21/2/22 20/3/21 19/2/20
f 20/3/21 21/2/22 22/3/23
f 13/3/14 24/2/25 23/3/24
f 24/2/25 13/3/14 14/2/15
f 17/2/18 22/3/23 21/2/22
f 22/3/23 17/2/18 18/3/19
f 27/2/28 26/1/27 25/1/26
f 26/1/27 27/2/28 28/2/29
f 29/1/30 25/1/30 26/1/30
f 25/1/30 29/1/30 30/1/30
f 30/1/30 29/1/30 31/1/30
f 31/1/30 29/1/30 32/1/30
f 32/1/30 29/1/30 33/1/30
f 32/1/30 33/1/30 34/1/30
f 32/1/30 34/1/30 9/1/30
f 9/1/30 34/1/30 35/1/30
f 9/1/30 35/1/30 36/1/30
f 9/1/30 36/1/30 12/1/30
f 9/1/30 12/1/30 3/1/30
f 9/1/30 3/1/30 1/1/30
f 24/2/25 37/3/31 23/3/24
f 37/3/31 24/2/25 38/2/32
f 28/2/13 29/1/13 26/1/13
f 29/1/13 28/2/13 38/2/13
f 38/2/13 28/2/13 39/3/13
f 38/2/13 39/3/13 37/3/13
f 29/1/1 24/2/25 33/1/33
f 24/2/25 29/1/1 38/2/32
f 39/3/35 27/2/28 40/3/34
f 27/2/28 39/3/35 28/2/29
f 11/3/10 42/2/37 41/3/36
f 42/2/37 11/3/10 10/2/8
f 41/3/36 16/2/17 15/3/16
f 16/2/17 41/3/36 42/2/37
f 20/3/21 27/2/28 19/2/20
f 27/2/28 20/3/21 40/3/34
f 33/1/33 14/2/15 34/1/38
f 14/2/15 33/1/33 24/2/25
f 16/2/17 36/1/40 35/1/39
f 36/1/40 16/2/17 42/2/37
f 42/2/37 12/1/12 36/1/40
f 12/1/12 42/2/37 10/2/8
f 17/2/18 31/1/42 32/1/41
f 31/1/42 17/2/18 21/2/22
f 34/1/38 16/2/17 35/1/39
f 16/2/17 34/1/38 14/2/15
f 8/2/4 32/1/41 9/1/7
f 32/1/41 8/2/4 17/2/18
f 19/2/20 31/1/42 21/2/22
f 31/1/42 19/2/20 30/1/43
f 27/2/28 30/1/43 19/2/20
f 30/1/43 27/2/28 25/1/26
f 5/3/44 7/3/44 4/3/44
f 11/3/44 7/3/44 5/3/44
f 41/3/44 7/3/44 11/3/44
f 15/3/44 7/3/44 41/3/44
f 13/3/44 7/3/44 15/3/44
f 13/3/44 18/3/44 7/3/44
f 18/3/44 13/3/44 23/3/44
f 37/3/44 18/3/44 23/3/44
f 37/3/44 22/3/44 18/3/44
f 37/3/44 20/3/44 22/3/44
f 39/3/44 20/3/44 37/3/44
f 20/3/44 39/3/44 40/3/44
f 45/4/47 44/5/46 43/4/45
f 46/6/48 44/5/46 45/4/47
f 47/7/49 46/6/48 45/4/47
f 48/6/50 46/6/48 47/7/49
f 51/5/43 50/8/51 49/5/42
f 50/8/51 51/5/43 52/8/52
f 53/4/55 51/5/54 49/5/53
f 51/5/54 53/4/55 54/4/56
f 54/4/56 44/5/46 51/5/54
f 44/5/46 54/4/56 43/4/45
f 53/4/55 55/9/57 54/4/56
f 55/9/57 53/4/55 56/9/58
f 58/5/41 50/8/51 57/8/59
f 50/8/51 58/5/41 49/5/42
f 44/5/60 52/8/52 51/5/43
f 52/8/52 44/5/60 59/8/61
f 62/9/64 61/9/63 60/9/62
f 61/9/63 62/9/64 63/9/65
f 55/9/57 63/9/65 62/9/64
f 63/9/65 55/9/57 56/9/58
f 63/9/65 56/9/58 64/9/66
f 64/9/66 56/9/58 65/9/67
f 64/9/66 65/9/67 66/9/68
f 66/9/68 65/9/67 67/9/69
f 67/9/69 65/9/67 68/9/70
f 67/9/69 68/9/70 69/9/71
f 68/9/70 70/9/72 69/9/71
f 70/9/72 68/9/70 71/9/73
f 67/9/69 72/4/74 66/9/68
f 72/4/74 67/9/69 73/4/75
f 75/5/7 57/8/59 74/8/76
f 57/8/59 75/5/7 58/5/41
f 78/5/39 77/8/78 76/8/77
f 77/8/78 78/5/39 79/5/40
f 82/5/81 81/4/80 80/5/79
f 81/4/80 82/5/81 83/4/82
f 84/8/83 78/5/39 76/8/77
f 78/5/39 84/8/83 85/5/38
f 86/4/85 49/5/53 58/5/84
f 49/5/53 86/4/85 53/4/55
f 63/9/65 83/4/82 61/9/63
f 83/4/82 63/9/65 81/4/80
f 78/5/87 87/4/86 72/4/74
f 87/4/86 78/5/87 85/5/88
f 79/5/40 88/8/89 77/8/78
f 88/8/89 79/5/40 89/5/12
f 91/4/92 75/5/91 90/5/90
f 75/5/91 91/4/92 92/4/93
f 86/4/85 56/9/58 53/4/55
f 56/9/58 86/4/85 65/9/67
f 92/4/93 71/9/73 68/9/70
f 71/9/73 92/4/93 91/4/92
f 54/4/56 62/9/64 43/4/45
f 62/9/64 54/4/56 55/9/57
f 69/9/71 73/4/75 67/9/69
f 73/4/75 69/9/71 93/4/94
f 66/9/68 87/4/86 64/9/66
f 87/4/86 66/9/68 72/4/74
f 92/4/93 65/9/67 86/4/85
f 65/9/67 92/4/93 68/9/70
f 72/4/74 79/5/95 78/5/87
f 79/5/95 72/4/74 73/4/75
f 92/4/93 58/5/84 75/5/91
f 58/5/84 92/4/93 86/4/85
f 94/8/96 85/5/38 84/8/83
f 85/5/38 94/8/96 80/5/33
f 64/9/66 81/4/80 63/9/65
f 81/4/80 64/9/66 87/4/86
f 93/4/94 95/5/98 89/5/97
f 95/5/98 93/4/94 96/4/99
f 73/4/75 89/5/97 79/5/95
f 89/5/97 73/4/75 93/4/94
f 99/4/102 98/4/101 97/7/100
f 98/4/101 99/4/102 100/9/103
f 89/5/12 101/8/104 88/8/89
f 101/8/104 89/5/12 102/6/13
f 102/6/13 89/5/12 95/5/13
f 103/5/13 101/8/104 102/6/13
f 85/5/88 81/4/80 87/4/86
f 81/4/80 85/5/88 80/5/79
f 104/4/105 100/9/103 99/4/102
f 100/9/103 104/4/105 105/9/106
f 108/5/109 107/7/108 106/6/107
f 107/7/108 108/5/109 109/4/110
f 107/7/108 105/9/106 104/4/105
f 105/9/106 107/7/108 109/4/110
f 97/7/100 103/5/112 102/6/111
f 103/5/112 97/7/100 98/4/101
f 70/9/72 97/7/100 96/4/99
f 97/7/100 70/9/72 99/4/102
f 107/7/108 90/5/90 106/6/107
f 90/5/90 107/7/108 91/4/92
f 91/4/92 104/4/105 71/9/73
f 104/4/105 91/4/92 107/7/108
f 69/9/71 96/4/99 93/4/94
f 96/4/99 69/9/71 70/9/72
f 95/5/98 97/7/100 102/6/111
f 97/7/100 95/5/98 96/4/99
f 71/9/73 99/4/102 70/9/72
f 99/4/102 71/9/73 104/4/105
f 43/4/45 60/9/62 45/4/47
f 60/9/62 43/4/45 62/9/64
f 111/4/114 110/4/113 47/7/49
f 110/4/113 111/4/114 112/9/115
f 44/5/60 113/8/116 59/8/61
f 113/8/116 44/5/60 46/6/27
f 113/8/116 46/6/27 48/6/27
f 113/8/116 48/6/27 114/5/27
f 115/6/117 83/4/82 82/5/81
f 83/4/82 115/6/117 116/7/118
f 60/9/62 117/4/119 111/4/114
f 117/4/119 60/9/62 61/9/63
f 61/9/63 116/7/118 117/4/119
f 116/7/118 61/9/63 83/4/82
f 116/7/118 118/9/120 117/4/119
f 118/9/120 116/7/118 119/4/121
f 45/4/47 111/4/114 47/7/49
f 111/4/114 45/4/47 60/9/62
f 110/4/113 48/6/50 47/7/49
f 48/6/50 110/4/113 114/5/122
f 120/5/123 116/7/118 115/6/117
f 116/7/118 120/5/123 119/4/121
f 117/4/119 112/9/115 111/4/114
f 112/9/115 117/4/119 118/9/120
f 108/5/6 74/8/76 121/8/124
f 74/8/76 108/5/6 106/6/6
f 106/6/6 75/5/7 74/8/76
f 75/5/7 106/6/6 90/5/6
f 94/8/96 82/5/1 80/5/33
f 82/5/1 94/8/96 122/8/125
f 82/5/1 122/8/125 115/6/1
f 115/6/1 122/8/125 120/5/1
f 77/8/78 124/10/127 123/10/126
f 124/10/127 77/8/78 88/8/89
f 84/8/83 126/10/129 125/10/128
f 126/10/129 84/8/83 76/8/77
f 121/8/124 128/10/131 127/10/130
f 128/10/131 121/8/124 74/8/76
f 122/8/125 130/10/133 129/10/132
f 130/10/133 122/8/125 94/8/96
f 131/10/134 50/8/51 52/8/52
f 50/8/51 131/10/134 132/10/135
f 94/8/96 125/10/128 130/10/133
f 125/10/128 94/8/96 84/8/83
f 132/10/135 57/8/59 50/8/51
f 57/8/59 132/10/135 133/10/136
f 76/8/77 123/10/126 126/10/129
f 123/10/126 76/8/77 77/8/78
f 133/10/136 74/8/76 57/8/59
f 74/8/76 133/10/136 128/10/131
f 134/10/137 52/8/52 59/8/61
f 52/8/52 134/10/137 131/10/134
f 88/8/89 135/10/138 124/10/127
f 135/10/138 88/8/89 101/8/104
f 136/10/139 59/8/61 113/8/116
f 59/8/61 136/10/139 134/10/137
f 127/10/1 108/5/1 121/8/1
f 108/5/1 127/10/1 109/4/1
f 109/4/1 127/10/1 105/9/1
f 105/9/1 127/10/1 135/10/1
f 105/9/1 135/10/1 100/9/1
f 100/9/1 135/10/1 98/4/1
f 98/4/1 135/10/1 101/8/1
f 98/4/1 101/8/1 103/5/1
f 113/8/13 129/10/13 136/10/13
f 129/10/13 113/8/13 122/8/13
f 122/8/13 113/8/13 114/5/13
f 122/8/13 114/5/13 120/5/13
f 120/5/13 114/5/13 110/4/13
f 120/5/13 110/4/13 119/4/13
f 119/4/13 110/4/13 112/9/13
f 119/4/13 112/9/13 118/9/13

