# Created by Kenney (www.kenney.nl)

mtllib rock-wide.mtl

g rock-wide

v 0.1856318 0.32385 0.5641366 1 1 1
v 0.09985931 0.109603 0.7304916 1 1 1
v -0.1016636 0.32385 0.4800389 1 1 1
v 0.4314691 1.806545E-16 0.1041904 1 1 1
v 0.5467607 0 0.4590216 1 1 1
v 0.2867848 0.32385 0.1306794 1 1 1
v 0.3814072 0.32385 0.4218974 1 1 1
v 0.09795097 0.32385 0.2678753 1 1 1
v -0.08779508 0.32385 0.1329228 1 1 1
v -0.1816886 0.32385 0.4218974 1 1 1
v 0.09985931 0 0.7837145 1 1 1
v -0.2324794 1.806545E-16 0.1064338 1 1 1
v -0.3470421 0 0.4590216 1 1 1
v -0.2805434 0.2679549 0.006454282 1 1 1
v -0.1523012 0.6477 -0.1116299 1 1 1
v -0.1016636 0.6477 0.04421648 1 1 1
v 0.3482031 0.6477 -0.1116299 1 1 1
v 0.5168715 0.109603 0.01553053 1 1 1
v 0.2975656 0.6477 0.04421648 1 1 1
v 0.4314691 1.806545E-16 0.1041904 1 1 1
v 0.2867848 0.32385 0.1306795 1 1 1
v 0.5448524 3.613091E-16 0.02181263 1 1 1
v 0.09795097 0.6477 0.189245 1 1 1
v 0.2795318 3.613091E-16 -0.5035515 1 1 1
v 0.3741513 3.613091E-16 -0.5035515 1 1 1
v 0.2601317 0.4918261 -0.3841369 1 1 1
v 0.2719572 0.6477 -0.346291 1 1 1
v 0.181996 0.6477 -0.346291 1 1 1
v -0.08779508 0.32385 0.1329229 1 1 1
v -0.3489505 3.613091E-16 0.02181263 1 1 1
v -0.2324794 1.806545E-16 0.1064338 1 1 1
v -0.1610714 0.4072408 -0.2597875 1 1 1
v -0.1073572 0.6477 -0.2499534 1 1 1
v -0.1796615 0.4072408 -0.2025731 1 1 1
v -0.2652129 0.2002343 -0.09005556 1 1 1
v -0.3163568 3.613091E-16 -0.07850049 1 1 1
v -0.02897921 0.6477 -0.1930085 1 1 1
v -0.2061586 1.02 -0.5362669 1 1 1
v -0.2062258 0.51 -0.7218009 1 1 1
v -0.03600978 1.02 -0.6598873 1 1 1
v -0.2464598 3.613091E-16 -0.7837145 1 1 1
v 0.1885013 3.613091E-16 -0.7837145 1 1 1
v 0.1080335 1.02 -0.6598873 1 1 1
v 0.1927121 1.02 -0.3992736 1 1 1
v -0.02897921 1.02 -0.2382054 1 1 1
v -0.2506705 1.02 -0.3992736 1 1 1
v -0.02897921 0.6477 -0.1930085 1 1 1
v -0.1073572 0.6477 -0.2499534 1 1 1
v -0.3288872 0.4072408 -0.3817128 1 1 1
v -0.1610714 0.4072408 -0.2597875 1 1 1
v -0.3136649 3.613091E-16 -0.5768782 1 1 1
v -0.2976652 0.4072408 -0.4778041 1 1 1
v 0.2795318 3.613091E-16 -0.5035515 1 1 1
v -0.1796614 0.4072408 -0.2025731 1 1 1
v -0.2652128 0.2002343 -0.09005556 1 1 1
v -0.2652128 0.4072408 -0.1404164 1 1 1
v -0.439219 3.613091E-16 -0.5768782 1 1 1
v -0.3136649 3.613091E-16 -0.5768782 1 1 1
v -0.3748367 0.4072408 -0.4778041 1 1 1
v -0.2976652 0.4072408 -0.4778041 1 1 1
v -0.442588 0.4072408 -0.269287 1 1 1
v -0.1610714 0.4072408 -0.2597875 1 1 1
v -0.5467607 3.613091E-16 -0.2458988 1 1 1
v -0.3163567 3.613091E-16 -0.07850049 1 1 1
v 0.09985931 0 0.7837145 1 1 1
v -0.3470421 0 0.4590216 1 1 1
v -0.2464597 3.613091E-16 -0.7837145 1 1 1
v -0.3163568 3.613091E-16 -0.07850049 1 1 1
v -0.439219 3.613091E-16 -0.5768782 1 1 1
v -0.5467607 3.613091E-16 -0.2458988 1 1 1
v 0.1885013 3.613091E-16 -0.7837145 1 1 1
v 0.4314691 1.806545E-16 0.1041904 1 1 1
v 0.5467607 0 0.4590216 1 1 1
v -0.3538117 3.609557E-16 0.2410952 1 1 1
v -0.3538117 3.609557E-16 0.1410952 1 1 1
v -0.4404142 3.609557E-16 0.2910952 1 1 1
v -0.4404142 3.609557E-16 0.09109516 1 1 1
v -0.5270168 3.609557E-16 0.2410952 1 1 1
v -0.5270168 3.609557E-16 0.1410952 1 1 1
v -0.3867206 0.1 0.1600952 1 1 1
v -0.3867206 0.1 0.2220952 1 1 1
v -0.4404142 0.1 0.1290952 1 1 1
v -0.4404142 0.1 0.2530951 1 1 1
v -0.4941078 0.1 0.1600952 1 1 1
v -0.4941078 0.1 0.2220952 1 1 1
v 0.2129224 0.32385 0.3526033 1 1 1
v 0.2129224 0.32385 0.2526032 1 1 1
v 0.1263199 0.32385 0.4026032 1 1 1
v 0.1263199 0.32385 0.2026033 1 1 1
v 0.03971736 0.32385 0.3526033 1 1 1
v 0.03971736 0.32385 0.2526032 1 1 1
v 0.1800135 0.42385 0.2716033 1 1 1
v 0.1800135 0.42385 0.3336032 1 1 1
v 0.1263199 0.42385 0.2406032 1 1 1
v 0.1263199 0.42385 0.3646033 1 1 1
v 0.07262632 0.42385 0.2716033 1 1 1
v 0.07262632 0.42385 0.3336032 1 1 1
v 0.2363129 0.6477 -0.1242027 1 1 1
v 0.2363129 0.6477 -0.2242027 1 1 1
v 0.1497103 0.6477 -0.07420271 1 1 1
v 0.1497103 0.6477 -0.2742027 1 1 1
v 0.0631078 0.6477 -0.1242027 1 1 1
v 0.0631078 0.6477 -0.2242027 1 1 1
v 0.2034039 0.7477 -0.2052027 1 1 1
v 0.2034039 0.7477 -0.1432027 1 1 1
v 0.1497103 0.7477 -0.2362027 1 1 1
v 0.1497103 0.7477 -0.1122027 1 1 1
v 0.09601676 0.7477 -0.2052027 1 1 1
v 0.09601676 0.7477 -0.1432027 1 1 1

vn -0.2132455 0.651019 0.728492
vn 0.8672327 0.4104959 -0.281781
vn 0 1 0
vn 0.5470822 0.3656516 0.752994
vn -0.8672327 0.4104959 -0.281781
vn -0.5470822 0.3656516 0.752994
vn -0.8777108 0.3850884 0.2851855
vn 0.8916292 0.3479466 0.2897079
vn 0.5767636 0.1927448 0.793847
vn 0 0.2359435 -0.9717667
vn -0.5767636 0.1927448 0.793847
vn -0.9278428 0.2195926 -0.3014744
vn 0.9278428 0.2195926 -0.3014744
vn -0.5638591 0.2824081 -0.7760854
vn 0 0.1205144 -0.9927117
vn -0.5849708 0.09774375 0.8051431
vn -0.9450901 0.1118372 -0.3070784
vn 0.5849708 0.09774375 0.8051431
vn 0.9450901 0.1118372 -0.3070784
vn 0.576721 0.193114 0.7937883
vn 0 0.2363867 -0.9716591
vn -0.9277537 0.2200083 -0.3014455
vn -0.576721 0.193114 0.7937883
vn 0 -1 0
vn 0.8095464 0.3552178 -0.4673918
vn 0.8095464 0.3552178 0.4673918
vn 0 0.3552178 -0.9347836
vn 0 0.3552178 0.9347836
vn -0.8095464 0.3552178 0.4673918
vn -0.8095464 0.3552178 -0.4673918

vt 0.21875 0.3360717
vt 0.21875 0.3229634
vt 0.21875 0.3162576
vt 0.21875 0.3638933
vt 0.21875 0.374494
vt 0.21875 0.3594729
vt 0.21875 0.3564133
vt 0.21875 0.3654537
vt 0.21875 0.3701428
vt 0.21875 0.3677815
vt 0.21875 0.3620029
vt 0.21875 0.3601744
vt 0.21875 0.3455949
vt 0.21875 0.3310154
vt 0.21875 0.3495314
vt 0.21875 0.3426573
vt 0.21875 0.3450754
vt 0.21875 0.4733146
vt 0.21875 0.3972001
vt 0.21875 0.3235757
vt 0.21875 0.2842357
vt 0.21875 0.3176482
vt 0.21875 0.3510606
vt 0.21875 0.325
vt 0.21875 0.425

usemtl colormap

f 3/1/1 2/2/1 1/1/1
f 6/1/2 5/3/2 4/3/2
f 5/3/2 6/1/2 7/1/2
f 6/1/3 1/1/3 7/1/3
f 1/1/3 6/1/3 8/1/3
f 1/1/3 8/1/3 3/1/3
f 3/1/3 8/1/3 9/1/3
f 3/1/3 9/1/3 10/1/3
f 7/1/4 11/3/4 5/3/4
f 11/3/4 7/1/4 2/2/4
f 2/2/4 7/1/4 1/1/4
f 13/3/5 9/1/5 12/3/5
f 9/1/5 13/3/5 10/1/5
f 2/2/6 13/3/6 11/3/6
f 13/3/6 2/2/6 10/1/6
f 10/1/6 2/2/6 3/1/6
f 16/5/7 15/5/7 14/4/7
f 19/5/8 18/6/8 17/5/8
f 22/7/9 21/8/9 20/7/9
f 21/8/9 22/7/9 18/6/9
f 21/8/9 18/6/9 19/5/9
f 21/8/9 19/5/9 8/8/9
f 8/8/9 19/5/9 23/5/9
f 26/9/10 25/7/10 24/7/10
f 25/7/10 26/9/10 27/5/10
f 27/5/10 26/9/10 28/5/10
f 23/5/11 29/8/11 8/8/11
f 16/5/11 29/8/11 23/5/11
f 14/4/11 29/8/11 16/5/11
f 30/7/11 29/8/11 14/4/11
f 29/8/11 30/7/11 31/7/11
f 34/10/12 33/5/12 32/10/12
f 33/5/12 34/10/12 15/5/12
f 15/5/12 34/10/12 35/11/12
f 15/5/12 35/11/12 14/4/12
f 14/4/12 35/11/12 36/7/12
f 14/4/12 36/7/12 30/7/12
f 27/5/3 19/5/3 17/5/3
f 19/5/3 27/5/3 23/5/3
f 23/5/3 27/5/3 28/5/3
f 23/5/3 28/5/3 37/5/3
f 23/5/3 37/5/3 16/5/3
f 16/5/3 37/5/3 33/5/3
f 16/5/3 33/5/3 15/5/3
f 27/5/13 22/7/13 25/7/13
f 22/7/13 27/5/13 17/5/13
f 22/7/13 17/5/13 18/6/13
f 40/12/14 39/13/14 38/12/14
f 39/13/15 42/14/15 41/14/15
f 42/14/15 39/13/15 43/12/15
f 43/12/15 39/13/15 40/12/15
f 43/12/3 45/12/3 44/12/3
f 45/12/3 43/12/3 40/12/3
f 45/12/3 40/12/3 46/12/3
f 46/12/3 40/12/3 38/12/3
f 45/12/16 48/15/16 47/15/16
f 46/12/16 48/15/16 45/12/16
f 49/16/16 48/15/16 46/12/16
f 48/15/16 49/16/16 50/16/16
f 51/14/17 39/13/17 41/14/17
f 39/13/17 51/14/17 38/12/17
f 38/12/17 51/14/17 52/16/17
f 38/12/17 52/16/17 46/12/17
f 46/12/17 52/16/17 49/16/17
f 44/12/18 28/15/18 26/17/18
f 28/15/18 44/12/18 47/15/18
f 47/15/18 44/12/18 45/12/18
f 43/12/19 53/14/19 42/14/19
f 53/14/19 43/12/19 44/12/19
f 53/14/19 44/12/19 26/17/19
f 56/18/20 55/19/20 54/18/20
f 59/18/21 58/20/21 57/20/21
f 58/20/21 59/18/21 60/18/21
f 59/18/3 49/18/3 60/18/3
f 61/18/3 49/18/3 59/18/3
f 56/18/3 49/18/3 61/18/3
f 54/18/3 49/18/3 56/18/3
f 49/18/3 54/18/3 62/18/3
f 63/20/22 59/18/22 57/20/22
f 59/18/22 63/20/22 61/18/22
f 55/19/23 63/20/23 64/20/23
f 63/20/23 55/19/23 61/18/23
f 61/18/23 55/19/23 56/18/23
f 66/21/24 12/22/24 65/21/24
f 67/23/24 65/21/24 12/22/24
f 67/23/24 12/22/24 68/23/24
f 68/23/24 12/22/24 30/23/24
f 67/23/24 68/23/24 51/23/24
f 68/23/24 69/23/24 51/23/24
f 69/23/24 68/23/24 70/23/24
f 71/23/24 65/21/24 67/23/24
f 24/23/24 65/21/24 71/23/24
f 25/23/24 65/21/24 24/23/24
f 72/22/24 65/21/24 25/23/24
f 25/23/24 22/23/24 72/22/24
f 65/21/24 72/22/24 73/21/24
f 76/24/24 75/24/24 74/24/24
f 75/24/24 76/24/24 77/24/24
f 77/24/24 76/24/24 78/24/24
f 77/24/24 78/24/24 79/24/24
f 82/25/3 81/25/3 80/25/3
f 81/25/3 82/25/3 83/25/3
f 83/25/3 82/25/3 84/25/3
f 83/25/3 84/25/3 85/25/3
f 80/25/25 74/24/26 75/24/25
f 74/24/26 80/25/25 81/25/26
f 82/25/27 75/24/25 77/24/27
f 75/24/25 82/25/27 80/25/25
f 83/25/28 78/24/29 76/24/28
f 78/24/29 83/25/28 85/25/29
f 78/24/29 84/25/30 79/24/30
f 84/25/30 78/24/29 85/25/29
f 81/25/26 76/24/28 74/24/26
f 76/24/28 81/25/26 83/25/28
f 84/25/30 77/24/27 79/24/30
f 77/24/27 84/25/30 82/25/27
f 88/24/24 87/24/24 86/24/24
f 87/24/24 88/24/24 89/24/24
f 89/24/24 88/24/24 90/24/24
f 89/24/24 90/24/24 91/24/24
f 94/25/3 93/25/3 92/25/3
f 93/25/3 94/25/3 95/25/3
f 95/25/3 94/25/3 96/25/3
f 95/25/3 96/25/3 97/25/3
f 92/25/25 86/24/26 87/24/25
f 86/24/26 92/25/25 93/25/26
f 94/25/27 87/24/25 89/24/27
f 87/24/25 94/25/27 92/25/25
f 95/25/28 90/24/29 88/24/28
f 90/24/29 95/25/28 97/25/29
f 90/24/29 96/25/30 91/24/30
f 96/25/30 90/24/29 97/25/29
f 93/25/26 88/24/28 86/24/26
f 88/24/28 93/25/26 95/25/28
f 96/25/30 89/24/27 91/24/30
f 89/24/27 96/25/30 94/25/27
f 100/24/24 99/24/24 98/24/24
f 99/24/24 100/24/24 101/24/24
f 101/24/24 100/24/24 102/24/24
f 101/24/24 102/24/24 103/24/24
f 106/25/3 105/25/3 104/25/3
f 105/25/3 106/25/3 107/25/3
f 107/25/3 106/25/3 108/25/3
f 107/25/3 108/25/3 109/25/3
f 104/25/25 98/24/26 99/24/25
f 98/24/26 104/25/25 105/25/26
f 106/25/27 99/24/25 101/24/27
f 99/24/25 106/25/27 104/25/25
f 107/25/28 102/24/29 100/24/28
f 102/24/29 107/25/28 109/25/29
f 102/24/29 108/25/30 103/24/30
f 108/25/30 102/24/29 109/25/29
f 105/25/26 100/24/28 98/24/26
f 100/24/28 105/25/26 107/25/28
f 108/25/30 101/24/27 103/24/30
f 101/24/27 108/25/30 106/25/27

g rock-wide




usemtl colormap

f 3/1/1 2/2/1 1/1/1
f 6/1/2 5/3/2 4/3/2
f 5/3/2 6/1/2 7/1/2
f 6/1/3 1/1/3 7/1/3
f 1/1/3 6/1/3 8/1/3
f 1/1/3 8/1/3 3/1/3
f 3/1/3 8/1/3 9/1/3
f 3/1/3 9/1/3 10/1/3
f 7/1/4 11/3/4 5/3/4
f 11/3/4 7/1/4 2/2/4
f 2/2/4 7/1/4 1/1/4
f 13/3/5 9/1/5 12/3/5
f 9/1/5 13/3/5 10/1/5
f 2/2/6 13/3/6 11/3/6
f 13/3/6 2/2/6 10/1/6
f 10/1/6 2/2/6 3/1/6
f 16/5/7 15/5/7 14/4/7
f 19/5/8 18/6/8 17/5/8
f 22/7/9 21/8/9 20/7/9
f 21/8/9 22/7/9 18/6/9
f 21/8/9 18/6/9 19/5/9
f 21/8/9 19/5/9 8/8/9
f 8/8/9 19/5/9 23/5/9
f 26/9/10 25/7/10 24/7/10
f 25/7/10 26/9/10 27/5/10
f 27/5/10 26/9/10 28/5/10
f 23/5/11 29/8/11 8/8/11
f 16/5/11 29/8/11 23/5/11
f 14/4/11 29/8/11 16/5/11
f 30/7/11 29/8/11 14/4/11
f 29/8/11 30/7/11 31/7/11
f 34/10/12 33/5/12 32/10/12
f 33/5/12 34/10/12 15/5/12
f 15/5/12 34/10/12 35/11/12
f 15/5/12 35/11/12 14/4/12
f 14/4/12 35/11/12 36/7/12
f 14/4/12 36/7/12 30/7/12
f 27/5/3 19/5/3 17/5/3
f 19/5/3 27/5/3 23/5/3
f 23/5/3 27/5/3 28/5/3
f 23/5/3 28/5/3 37/5/3
f 23/5/3 37/5/3 16/5/3
f 16/5/3 37/5/3 33/5/3
f 16/5/3 33/5/3 15/5/3
f 27/5/13 22/7/13 25/7/13
f 22/7/13 27/5/13 17/5/13
f 22/7/13 17/5/13 18/6/13
f 40/12/14 39/13/14 38/12/14
f 39/13/15 42/14/15 41/14/15
f 42/14/15 39/13/15 43/12/15
f 43/12/15 39/13/15 40/12/15
f 43/12/3 45/12/3 44/12/3
f 45/12/3 43/12/3 40/12/3
f 45/12/3 40/12/3 46/12/3
f 46/12/3 40/12/3 38/12/3
f 45/12/16 48/15/16 47/15/16
f 46/12/16 48/15/16 45/12/16
f 49/16/16 48/15/16 46/12/16
f 48/15/16 49/16/16 50/16/16
f 51/14/17 39/13/17 41/14/17
f 39/13/17 51/14/17 38/12/17
f 38/12/17 51/14/17 52/16/17
f 38/12/17 52/16/17 46/12/17
f 46/12/17 52/16/17 49/16/17
f 44/12/18 28/15/18 26/17/18
f 28/15/18 44/12/18 47/15/18
f 47/15/18 44/12/18 45/12/18
f 43/12/19 53/14/19 42/14/19
f 53/14/19 43/12/19 44/12/19
f 53/14/19 44/12/19 26/17/19
f 56/18/20 55/19/20 54/18/20
f 59/18/21 58/20/21 57/20/21
f 58/20/21 59/18/21 60/18/21
f 59/18/3 49/18/3 60/18/3
f 61/18/3 49/18/3 59/18/3
f 56/18/3 49/18/3 61/18/3
f 54/18/3 49/18/3 56/18/3
f 49/18/3 54/18/3 62/18/3
f 63/20/22 59/18/22 57/20/22
f 59/18/22 63/20/22 61/18/22
f 55/19/23 63/20/23 64/20/23
f 63/20/23 55/19/23 61/18/23
f 61/18/23 55/19/23 56/18/23
f 66/21/24 12/22/24 65/21/24
f 67/23/24 65/21/24 12/22/24
f 67/23/24 12/22/24 68/23/24
f 68/23/24 12/22/24 30/23/24
f 67/23/24 68/23/24 51/23/24
f 68/23/24 69/23/24 51/23/24
f 69/23/24 68/23/24 70/23/24
f 71/23/24 65/21/24 67/23/24
f 24/23/24 65/21/24 71/23/24
f 25/23/24 65/21/24 24/23/24
f 72/22/24 65/21/24 25/23/24
f 25/23/24 22/23/24 72/22/24
f 65/21/24 72/22/24 73/21/24
f 76/24/24 75/24/24 74/24/24
f 75/24/24 76/24/24 77/24/24
f 77/24/24 76/24/24 78/24/24
f 77/24/24 78/24/24 79/24/24
f 82/25/3 81/25/3 80/25/3
f 81/25/3 82/25/3 83/25/3
f 83/25/3 82/25/3 84/25/3
f 83/25/3 84/25/3 85/25/3
f 80/25/25 74/24/26 75/24/25
f 74/24/26 80/25/25 81/25/26
f 82/25/27 75/24/25 77/24/27
f 75/24/25 82/25/27 80/25/25
f 83/25/28 78/24/29 76/24/28
f 78/24/29 83/25/28 85/25/29
f 78/24/29 84/25/30 79/24/30
f 84/25/30 78/24/29 85/25/29
f 81/25/26 76/24/28 74/24/26
f 76/24/28 81/25/26 83/25/28
f 84/25/30 77/24/27 79/24/30
f 77/24/27 84/25/30 82/25/27
f 88/24/24 87/24/24 86/24/24
f 87/24/24 88/24/24 89/24/24
f 89/24/24 88/24/24 90/24/24
f 89/24/24 90/24/24 91/24/24
f 94/25/3 93/25/3 92/25/3
f 93/25/3 94/25/3 95/25/3
f 95/25/3 94/25/3 96/25/3
f 95/25/3 96/25/3 97/25/3
f 92/25/25 86/24/26 87/24/25
f 86/24/26 92/25/25 93/25/26
f 94/25/27 87/24/25 89/24/27
f 87/24/25 94/25/27 92/25/25
f 95/25/28 90/24/29 88/24/28
f 90/24/29 95/25/28 97/25/29
f 90/24/29 96/25/30 91/24/30
f 96/25/30 90/24/29 97/25/29
f 93/25/26 88/24/28 86/24/26
f 88/24/28 93/25/26 95/25/28
f 96/25/30 89/24/27 91/24/30
f 89/24/27 96/25/30 94/25/27
f 100/24/24 99/24/24 98/24/24
f 99/24/24 100/24/24 101/24/24
f 101/24/24 100/24/24 102/24/24
f 101/24/24 102/24/24 103/24/24
f 106/25/3 105/25/3 104/25/3
f 105/25/3 106/25/3 107/25/3
f 107/25/3 106/25/3 108/25/3
f 107/25/3 108/25/3 109/25/3
f 104/25/25 98/24/26 99/24/25
f 98/24/26 104/25/25 105/25/26
f 106/25/27 99/24/25 101/24/27
f 99/24/25 106/25/27 104/25/25
f 107/25/28 102/24/29 100/24/28
f 102/24/29 107/25/28 109/25/29
f 102/24/29 108/25/30 103/24/30
f 108/25/30 102/24/29 109/25/29
f 105/25/26 100/24/28 98/24/26
f 100/24/28 105/25/26 107/25/28
f 108/25/30 101/24/27 103/24/30
f 101/24/27 108/25/30 106/25/27

