# Created by Kenney (www.kenney.nl)

mtllib roof-high-gable-top.mtl

g roof-high-gable-top

v 0.5 6.922084E-11 0.5 1 1 1
v 0.5 6.922084E-11 0.4 1 1 1
v -0.5 6.922084E-11 0.5 1 1 1
v 0.475 6.922733E-11 0.4 1 1 1
v 0.475 6.922733E-11 -0.4 1 1 1
v -0.475 6.923166E-11 0.4 1 1 1
v -0.5 6.922084E-11 0.4 1 1 1
v -0.475 6.923166E-11 -0.4 1 1 1
v -0.5 6.922084E-11 -0.5 1 1 1
v -0.5 6.922084E-11 -0.4 1 1 1
v 0.5 6.922084E-11 -0.5 1 1 1
v 0.5 6.922084E-11 -0.4 1 1 1
v 0.475 0.1 -0.4 1 1 1
v 0.475 0.5 1.168041E-09 1 1 1
v 0.475 0.1 0.4 1 1 1
v -0.475 0.1 -0.4 1 1 1
v -0.475 0.5 1.167712E-09 1 1 1
v -0.475 0.1 0.4 1 1 1
v 0.5 0.1 0.4 1 1 1
v -0.5 0.1 0.4 1 1 1
v -0.5 0.1 -0.4 1 1 1
v 0.5 0.1 -0.4 1 1 1
v 0.5 0.5 -5.342144E-14 1 1 1
v 0.475 0.5 -5.342144E-14 1 1 1
v 0.5 0.1407107 -0.5 1 1 1
v 0.5 0.6407107 -4.40366E-13 1 1 1
v -0.5 0.1407107 -0.5 1 1 1
v -0.5 0.6407107 -4.461413E-13 1 1 1
v -0.475 0.5 -3.82613E-13 1 1 1
v -0.5 0.5 -3.82613E-13 1 1 1
v -0.5 0 -0.5 1 1 1
v -0.5 0.1407107 0.5 1 1 1
v -0.5 0 0.5 1 1 1
v 0.5 0 -0.5 1 1 1
v 0.5 0.1407107 0.5 1 1 1
v 0.5 0 0.5 1 1 1

vn 0 -1 0
vn 1 0 0
vn -1 0 0
vn 0 0 1
vn 0 0 -1
vn 0 -0.7071068 -0.7071068
vn 0 0.3826834 -0.9238795
vn 0 0.7071068 -0.7071068
vn 0 -0.7071068 0.7071068
vn 0 0.3826834 0.9238795
vn 0 0.7071068 0.7071068

vt 0.71875 0.025
vt 0.71875 0.065
vt 0.71875 0.225
vt 0.59375 0.065
vt 0.59375 0.025
vt 0.09375 0.1810767
vt 0.09375 0.05621533
vt 0.09375 0.06892331
vt 0.09375 0.225
vt 0.09375 0.025

usemtl colormap

f 3/1/1 2/1/1 1/1/1
f 2/1/1 3/1/1 4/1/1
f 4/1/1 3/1/1 5/1/1
f 5/1/1 3/1/1 6/1/1
f 6/1/1 3/1/1 7/1/1
f 8/1/1 5/1/1 6/1/1
f 9/1/1 5/1/1 8/1/1
f 9/1/1 8/1/1 10/1/1
f 11/1/1 5/1/1 9/1/1
f 5/1/1 11/1/1 12/1/1
f 14/3/2 5/1/2 13/2/2
f 5/1/2 14/3/2 4/1/2
f 4/1/2 14/3/2 15/2/2
f 6/1/3 16/2/3 8/1/3
f 16/2/3 6/1/3 17/3/3
f 17/3/3 6/1/3 18/2/3
f 1/5/2 2/5/2 19/4/2
f 3/5/3 20/4/3 7/5/3
f 21/4/3 9/5/3 10/5/3
f 12/5/2 11/5/2 22/4/2
f 8/5/4 21/4/4 10/5/4
f 21/4/4 8/5/4 16/4/4
f 20/4/5 6/5/5 7/5/5
f 6/5/5 20/4/5 18/4/5
f 4/5/5 19/4/5 2/5/5
f 19/4/5 4/5/5 15/4/5
f 22/4/4 5/5/4 12/5/4
f 5/5/4 22/4/4 13/4/4
f 19/7/6 24/6/6 23/6/6
f 24/6/6 19/7/6 15/7/6
f 27/8/7 26/9/8 25/8/7
f 26/9/8 27/8/7 28/9/8
f 20/7/6 29/6/6 18/7/6
f 29/6/6 20/7/6 30/6/6
f 31/10/3 28/9/3 27/8/3
f 28/9/3 31/10/3 21/7/3
f 28/9/3 21/7/3 30/6/3
f 28/9/3 30/6/3 32/8/3
f 32/8/3 30/6/3 20/7/3
f 32/8/3 20/7/3 33/10/3
f 26/9/2 34/10/2 25/8/2
f 34/10/2 26/9/2 22/7/2
f 22/7/2 26/9/2 23/6/2
f 23/6/2 26/9/2 35/8/2
f 23/6/2 35/8/2 19/7/2
f 19/7/2 35/8/2 36/10/2
f 16/7/9 30/6/9 21/7/9
f 30/6/9 16/7/9 29/6/9
f 27/8/7 34/10/5 31/10/5
f 34/10/5 27/8/7 25/8/7
f 23/6/9 13/7/9 22/7/9
f 13/7/9 23/6/9 24/6/9
f 35/8/10 33/10/4 36/10/4
f 33/10/4 35/8/10 32/8/10
f 26/9/11 32/8/10 35/8/10
f 32/8/10 26/9/11 28/9/11

g roof-high-gable-top




usemtl colormap

f 3/1/1 2/1/1 1/1/1
f 2/1/1 3/1/1 4/1/1
f 4/1/1 3/1/1 5/1/1
f 5/1/1 3/1/1 6/1/1
f 6/1/1 3/1/1 7/1/1
f 8/1/1 5/1/1 6/1/1
f 9/1/1 5/1/1 8/1/1
f 9/1/1 8/1/1 10/1/1
f 11/1/1 5/1/1 9/1/1
f 5/1/1 11/1/1 12/1/1
f 14/3/2 5/1/2 13/2/2
f 5/1/2 14/3/2 4/1/2
f 4/1/2 14/3/2 15/2/2
f 6/1/3 16/2/3 8/1/3
f 16/2/3 6/1/3 17/3/3
f 17/3/3 6/1/3 18/2/3
f 1/5/2 2/5/2 19/4/2
f 3/5/3 20/4/3 7/5/3
f 21/4/3 9/5/3 10/5/3
f 12/5/2 11/5/2 22/4/2
f 8/5/4 21/4/4 10/5/4
f 21/4/4 8/5/4 16/4/4
f 20/4/5 6/5/5 7/5/5
f 6/5/5 20/4/5 18/4/5
f 4/5/5 19/4/5 2/5/5
f 19/4/5 4/5/5 15/4/5
f 22/4/4 5/5/4 12/5/4
f 5/5/4 22/4/4 13/4/4
f 19/7/6 24/6/6 23/6/6
f 24/6/6 19/7/6 15/7/6
f 27/8/7 26/9/8 25/8/7
f 26/9/8 27/8/7 28/9/8
f 20/7/6 29/6/6 18/7/6
f 29/6/6 20/7/6 30/6/6
f 31/10/3 28/9/3 27/8/3
f 28/9/3 31/10/3 21/7/3
f 28/9/3 21/7/3 30/6/3
f 28/9/3 30/6/3 32/8/3
f 32/8/3 30/6/3 20/7/3
f 32/8/3 20/7/3 33/10/3
f 26/9/2 34/10/2 25/8/2
f 34/10/2 26/9/2 22/7/2
f 22/7/2 26/9/2 23/6/2
f 23/6/2 26/9/2 35/8/2
f 23/6/2 35/8/2 19/7/2
f 19/7/2 35/8/2 36/10/2
f 16/7/9 30/6/9 21/7/9
f 30/6/9 16/7/9 29/6/9
f 27/8/7 34/10/5 31/10/5
f 34/10/5 27/8/7 25/8/7
f 23/6/9 13/7/9 22/7/9
f 13/7/9 23/6/9 24/6/9
f 35/8/10 33/10/4 36/10/4
f 33/10/4 35/8/10 32/8/10
f 26/9/11 32/8/10 35/8/10
f 32/8/10 26/9/11 28/9/11

