# Created by Kenney (www.kenney.nl)

mtllib roof-high-cornerinner.mtl

g roof-high-cornerinner

v 0.4 0.9707107 -0.4 1 1 1
v 0.4 1.040711 -0.4 1 1 1
v 0.4 0.9707107 0.5 1 1 1
v 0.4 1.040711 0.5 1 1 1
v -0.4707107 0.1 0.4707107 1 1 1
v -0.4707107 0.1 0.5 1 1 1
v -0.5 0.07071068 0.5 1 1 1
v -0.5 0.9707107 -0.4 1 1 1
v -0.5 0.1 0.4707107 1 1 1
v 0.5 1.140711 -0.5 1 1 1
v 0.5 1.140711 0.5 1 1 1
v -0.5 1.040711 -0.4 1 1 1
v -0.5 1.140711 -0.5 1 1 1
v -0.5 0 0.5 1 1 1
v -0.5 0 -0.5 1 1 1
v 0.5 0 -0.5 1 1 1
v 0.5 0 0.5 1 1 1

vn -1 0 0
vn -0.7071068 0.7071068 0
vn 0 0.7071068 0.7071068
vn 0 0 1
vn 1 0 0
vn 0 0 -1
vn 0 -1 0

vt 0.09375 0.195194
vt 0.09375 0.2074671
vt 0.09375 0.04253293
vt 0.09375 0.03739765
vt 0.09375 0.225
vt 0.71875 0.03739765
vt 0.71875 0.025
vt 0.71875 0.04253293
vt 0.71875 0.195194
vt 0.71875 0.225
vt 0.71875 0.2074671

usemtl colormap

f 3/1/1 2/2/1 1/1/1
f 2/2/1 3/1/1 4/2/1
f 7/4/2 6/3/2 5/3/2
f 3/1/2 5/3/2 6/3/2
f 5/3/2 3/1/2 1/1/2
f 9/3/3 1/1/3 8/1/3
f 1/1/3 9/3/3 5/3/3
f 9/3/3 7/4/3 5/3/3
f 2/2/2 11/5/2 10/5/2
f 11/5/2 2/2/2 4/2/2
f 10/5/3 12/2/3 2/2/3
f 12/2/3 10/5/3 13/5/3
f 2/2/4 8/1/4 1/1/4
f 8/1/4 2/2/4 12/2/4
f 9/8/1 14/7/1 7/6/1
f 8/9/1 14/7/1 9/8/1
f 8/9/1 15/7/1 14/7/1
f 15/7/1 8/9/1 13/10/1
f 12/11/1 13/10/1 8/9/1
f 11/10/5 16/7/5 10/10/5
f 16/7/5 11/10/5 17/7/5
f 13/10/6 16/7/6 15/7/6
f 16/7/6 13/10/6 10/10/6
f 14/7/4 6/8/4 7/6/4
f 14/7/4 3/9/4 6/8/4
f 17/7/4 3/9/4 14/7/4
f 3/9/4 17/7/4 11/10/4
f 3/9/4 11/10/4 4/11/4
f 17/7/7 15/7/7 16/7/7
f 15/7/7 17/7/7 14/7/7

g roof-high-cornerinner




usemtl colormap

f 3/1/1 2/2/1 1/1/1
f 2/2/1 3/1/1 4/2/1
f 7/4/2 6/3/2 5/3/2
f 3/1/2 5/3/2 6/3/2
f 5/3/2 3/1/2 1/1/2
f 9/3/3 1/1/3 8/1/3
f 1/1/3 9/3/3 5/3/3
f 9/3/3 7/4/3 5/3/3
f 2/2/2 11/5/2 10/5/2
f 11/5/2 2/2/2 4/2/2
f 10/5/3 12/2/3 2/2/3
f 12/2/3 10/5/3 13/5/3
f 2/2/4 8/1/4 1/1/4
f 8/1/4 2/2/4 12/2/4
f 9/8/1 14/7/1 7/6/1
f 8/9/1 14/7/1 9/8/1
f 8/9/1 15/7/1 14/7/1
f 15/7/1 8/9/1 13/10/1
f 12/11/1 13/10/1 8/9/1
f 11/10/5 16/7/5 10/10/5
f 16/7/5 11/10/5 17/7/5
f 13/10/6 16/7/6 15/7/6
f 16/7/6 13/10/6 10/10/6
f 14/7/4 6/8/4 7/6/4
f 14/7/4 3/9/4 6/8/4
f 17/7/4 3/9/4 14/7/4
f 3/9/4 17/7/4 11/10/4
f 3/9/4 11/10/4 4/11/4
f 17/7/7 15/7/7 16/7/7
f 15/7/7 17/7/7 14/7/7

