# Created by Kenney (www.kenney.nl)

mtllib roof-high-corner.mtl

g roof-high-corner

v -0.5353553 -0.03535534 -0.5 1 1 1
v -0.5 0 -0.5 1 1 1
v -0.5707107 -3.609557E-16 -0.5 1 1 1
v -0.4707107 0.1 -0.5 1 1 1
v 0.5 0 -0.5 1 1 1
v 0.4 0.9707107 -0.5 1 1 1
v 0.5 1.140711 -0.5 1 1 1
v 0.4 1.040711 -0.5 1 1 1
v 0.5 0 0.5 1 1 1
v -0.5 0 0.5 1 1 1
v 0.5 1.040711 -0.4 1 1 1
v 0.5 0.9707107 -0.4 1 1 1
v 0.5 0.1 0.4707107 1 1 1
v 0.5 -3.609557E-16 0.5707107 1 1 1
v 0.5 -0.03535534 0.5353553 1 1 1
v -0.5353553 -0.03535534 0.5353553 1 1 1
v -0.5707107 -3.609557E-16 0.5707107 1 1 1
v 0.4 1.040711 -0.5 1 1 1
v 0.4 1.040711 -0.4 1 1 1
v 0.5 1.040711 -0.4 1 1 1
v 0.5 0.9707107 -0.4 1 1 1
v 0.5 0.1 0.4707107 1 1 1
v 0.4 0.9707107 -0.4 1 1 1
v -0.4707107 0.1 0.4707107 1 1 1
v 0.4 0.9707107 -0.5 1 1 1
v -0.4707107 0.1 -0.5 1 1 1
v -0.4707107 0.1 0.4707107 1 1 1

vn 0 0 -1
vn 0 -1 0
vn 1 0 0
vn 0 -0.7071068 0.7071068
vn 0.7071068 -0.7071068 0
vn -0.7071068 -0.7071068 0
vn 0 -0.7071068 -0.7071068
vn -0.9238795 0.3826834 0
vn -0.7071068 0.7071068 0
vn -0.9576361 0.2879809 0
vn 0 0.3826834 0.9238795
vn 0 0.2879809 0.9576361
vn 0 0.7071068 0.7071068
vn -1 0 0
vn 0 0 1

vt 0.71875 0.025
vt 0.71875 0.04253293
vt 0.71875 0.195194
vt 0.71875 0.225
vt 0.71875 0.2074671
vt 0.09375 0.025
vt 0.09375 0.2057824
vt 0.09375 0.225
vt 0.09375 0.19233
vt 0.09375 0.075
vt 0.09375 0.175

usemtl colormap

f 3/1/1 2/1/1 1/1/1
f 2/1/1 3/1/1 4/2/1
f 2/1/1 4/2/1 5/1/1
f 5/1/1 4/2/1 6/3/1
f 5/1/1 6/3/1 7/4/1
f 7/4/1 6/3/1 8/5/1
f 10/1/2 5/1/2 9/1/2
f 5/1/2 10/1/2 2/1/2
f 11/5/3 5/1/3 7/4/3
f 5/1/3 11/5/3 12/3/3
f 5/1/3 12/3/3 9/1/3
f 9/1/3 12/3/3 13/2/3
f 9/1/3 13/2/3 14/1/3
f 9/1/3 14/1/3 15/1/3
f 14/6/4 16/6/4 15/6/4
f 16/6/4 14/6/4 17/6/4
f 10/6/5 1/6/5 2/6/5
f 1/6/5 10/6/5 16/6/5
f 17/6/6 1/6/6 16/6/6
f 1/6/6 17/6/6 3/6/6
f 15/6/7 10/6/7 9/6/7
f 10/6/7 15/6/7 16/6/7
f 19/7/10 7/8/9 18/7/8
f 7/8/13 19/7/12 20/7/11
f 23/9/13 22/6/13 21/9/13
f 22/6/13 23/9/13 24/6/13
f 26/6/9 23/9/9 25/9/9
f 23/9/9 26/6/9 24/6/9
f 23/9/14 18/7/8 25/9/14
f 18/7/8 23/9/14 19/7/10
f 20/7/11 23/9/15 21/9/15
f 23/9/15 20/7/11 19/7/12
f 17/10/9 4/11/9 3/10/9
f 4/11/9 17/10/9 27/11/9
f 13/11/13 17/10/13 14/10/13
f 17/10/13 13/11/13 27/11/13

g roof-high-corner




usemtl colormap

f 3/1/1 2/1/1 1/1/1
f 2/1/1 3/1/1 4/2/1
f 2/1/1 4/2/1 5/1/1
f 5/1/1 4/2/1 6/3/1
f 5/1/1 6/3/1 7/4/1
f 7/4/1 6/3/1 8/5/1
f 10/1/2 5/1/2 9/1/2
f 5/1/2 10/1/2 2/1/2
f 11/5/3 5/1/3 7/4/3
f 5/1/3 11/5/3 12/3/3
f 5/1/3 12/3/3 9/1/3
f 9/1/3 12/3/3 13/2/3
f 9/1/3 13/2/3 14/1/3
f 9/1/3 14/1/3 15/1/3
f 14/6/4 16/6/4 15/6/4
f 16/6/4 14/6/4 17/6/4
f 10/6/5 1/6/5 2/6/5
f 1/6/5 10/6/5 16/6/5
f 17/6/6 1/6/6 16/6/6
f 1/6/6 17/6/6 3/6/6
f 15/6/7 10/6/7 9/6/7
f 10/6/7 15/6/7 16/6/7
f 19/7/10 7/8/9 18/7/8
f 7/8/13 19/7/12 20/7/11
f 23/9/13 22/6/13 21/9/13
f 22/6/13 23/9/13 24/6/13
f 26/6/9 23/9/9 25/9/9
f 23/9/9 26/6/9 24/6/9
f 23/9/14 18/7/8 25/9/14
f 18/7/8 23/9/14 19/7/10
f 20/7/11 23/9/15 21/9/15
f 23/9/15 20/7/11 19/7/12
f 17/10/9 4/11/9 3/10/9
f 4/11/9 17/10/9 27/11/9
f 13/11/13 17/10/13 14/10/13
f 17/10/13 13/11/13 27/11/13

