# Created by Kenney (www.kenney.nl)

mtllib roof-window.mtl

g roof-window

v -0.4 7.219114E-16 0.5 1 1 1
v -0.5 0 0.5 1 1 1
v -0.4 0.05 0.5 1 1 1
v -0.5 0 -0.5 1 1 1
v -0.4 7.219114E-16 -0.5 1 1 1
v -0.4 0.05 -0.5 1 1 1
v 0.5 0 -0.5 1 1 1
v 0.5 0.5 -0.5 1 1 1
v 0.4 7.219114E-16 -0.5 1 1 1
v 0.4 0.45 -0.5 1 1 1
v -0.4 0.05 -0.475 1 1 1
v -0.4 7.219114E-16 -0.475 1 1 1
v 0.4 7.219114E-16 -0.475 1 1 1
v 0.4 0.45 -0.475 1 1 1
v 0.5 0 0.5 1 1 1
v 0.4 7.219114E-16 0.5 1 1 1
v 0.5 0.5 0.5 1 1 1
v 0.4 0.45 0.5 1 1 1
v -0.4 0.05 0.475 1 1 1
v -0.4 7.219114E-16 0.475 1 1 1
v 0.4 7.219114E-16 0.475 1 1 1
v 0.4 0.45 0.475 1 1 1
v -0.3961968 0.1334231 -0.1993803 1 1 1
v -0.4461968 0.1334231 -0.1993803 1 1 1
v -0.3961968 0.3000919 -0.1993803 1 1 1
v -0.4461968 0.3000919 -0.1993803 1 1 1
v -0.3961968 0.1334231 0.1993803 1 1 1
v -0.4461968 0.1334231 0.1993803 1 1 1
v -0.3961968 0.3000919 0.1993803 1 1 1
v -0.4461968 0.3000919 0.1993803 1 1 1
v -0.3961968 0.3899373 2.887646E-15 1 1 1
v -0.4461968 0.3899373 2.887646E-15 1 1 1
v -0.3711968 0.1833223 -0.0125 1 1 1
v -0.3711968 0.3295729 -0.0125 1 1 1
v -0.3711968 0.1833223 0.0125 1 1 1
v -0.3711968 0.3352057 5.775291E-15 1 1 1
v -0.3711968 0.3295729 0.0125 1 1 1
v -0.3461968 0.1833223 0.0125 1 1 1
v -0.3461968 0.3295729 0.0125 1 1 1
v -0.3461968 0.1833223 -0.0125 1 1 1
v -0.3461968 0.3295729 -0.0125 1 1 1
v -0.3461968 0.3352057 5.775291E-15 1 1 1
v -0.3961968 0.2678461 0.1494811 1 1 1
v -0.3961968 0.3352057 0 1 1 1
v -0.3961968 0.1833223 0.1494811 1 1 1
v -0.3961968 0.2678461 -0.1494811 1 1 1
v -0.3961968 0.1833223 -0.1494811 1 1 1
v 0.5 0.6259017 -0.5 1 1 1
v 0.5 0.6259017 0.5 1 1 1
v -0.5447214 -0.02236068 -0.5 1 1 1
v -0.567082 0.02236068 -0.5 1 1 1
v -0.5447214 -0.02236068 0.5 1 1 1
v -0.567082 0.02236068 0.5 1 1 1
v 0.4 0.5759017 -0.5 1 1 1
v 0.4 0.5759017 0.5 1 1 1
v 0.4 0.5059017 -0.5 1 1 1
v 0.4 0.5059017 -0.375 1 1 1
v 0.4 0.5059017 -0.2744741 1 1 1
v 0.4 0.5059017 0.2744741 1 1 1
v 0.4 0.5059017 0.375 1 1 1
v 0.4 0.5059017 0.5 1 1 1
v -0.4961968 0.3578469 -0.3161273 1 1 1
v -0.4961968 0.5003011 5.775291E-15 1 1 1
v -0.4961968 0.3122615 -0.2955855 1 1 1
v -0.4961968 0.445459 2.887646E-15 1 1 1
v -0.4961968 0.3122615 0.2955855 1 1 1
v -0.4961968 0.3578469 0.3161273 1 1 1
v 0.01271951 0.3122615 0.2955855 1 1 1
v -0.4461968 0.3122615 0.2955855 1 1 1
v 0.1038904 0.3578469 0.3161273 1 1 1
v -0.4461968 0.445459 2.887646E-15 1 1 1
v -0.4461968 0.3328033 -0.25 1 1 1
v -0.4461968 0.3122615 -0.2955855 1 1 1
v 0.01271951 0.3122615 -0.2955855 1 1 1
v 0.05380321 0.3328033 -0.25 1 1 1
v 0.3887989 0.5003011 5.775291E-15 1 1 1
v -0.4461968 0.08280331 -0.5 1 1 1
v 0.1038904 0.3578469 -0.3161273 1 1 1
v -0.4461968 0.08280331 -0.25 1 1 1
v -0.4461968 0.08280331 0.5 1 1 1
v -0.4461968 0.08280331 0.25 1 1 1
v 0.05380321 0.3328033 0.25 1 1 1
v -0.4461968 0.3328033 0.25 1 1 1
v 0.4 0.45 -0.5 1 1 1
v 0.4 0.45 0.5 1 1 1
v -0.2961968 0.1833223 -0.1494811 1 1 1
v -0.2961968 0.2678461 -0.1494811 1 1 1
v -0.2961968 0.1833223 0.1494811 1 1 1
v -0.2961968 0.3352057 0 1 1 1
v -0.2961968 0.2678461 0.1494811 1 1 1

vn 0 0 1
vn 0 0 -1
vn 1 0 0
vn -1 0 0
vn 0 1 0
vn 0 -0.9117088 -0.410837
vn 0 -0.9117088 0.410837
vn 0 -1 0
vn -0.8944272 -0.4472136 0
vn 0.4472136 -0.8944272 0
vn -0.8506508 0.5257311 0
vn -0.4472136 0.8944272 0
vn 0 -0.410837 0.9117088
vn 0 0.9117088 0.410837
vn 0 0.9117088 -0.410837
vn 0 -0.410837 -0.9117088

vt 0.59375 0.025
vt 0.59375 0.04097695
vt 0.59375 0.1847695
vt 0.59375 0.1687925
vt 0.59375 0.06763387
vt 0.59375 0.1208911
vt 0.59375 0.1496002
vt 0.59375 0.08357861
vt 0.59375 0.1303114
vt 0.59375 0.1321113
vt 0.59375 0.1105873
vt 0.21875 0.275
vt 0.21875 0.475
vt 0.21875 0.4347695
vt 0.21875 0.2909769
vt 0.21875 0.4187925
vt 0.21875 0.025
vt 0.21875 0.03214511
vt 0.21875 0.1687925
vt 0.21875 0.04097695
vt 0.21875 0.209023
vt 0.21875 0.1866553
vt 0.21875 0.225
vt 0.21875 0.139346
vt 0.21875 0.1848657
vt 0.21875 0.1247797
vt 0.21875 0.1673415
vt 0.21875 0.1313436
vt 0.21875 0.05145888
vt 0.21875 0.03189865
vt 0.21875 0.0387973
vt 0.21875 0.0473245
vt 0.21875 0.05744489
vt 0.21875 0.1707313
vt 0.21875 0.1879779
vt 0.21875 0.1861572
vt 0.21875 0.2095741
vt 0.21875 0.175
vt 0.21875 0.075
vt 0.71875 0.1313436
vt 0.71875 0.05145888
vt 0.71875 0.08357861
vt 0.71875 0.1105873
vt 0.71875 0.1321113
vt 0.71875 0.1303114
vt 0.71875 0.1208911
vt 0.71875 0.1673415
vt 0.71875 0.1496002
vt 0.71875 0.06763387

usemtl colormap

f 3/2/1 2/1/1 1/1/1
f 6/2/2 5/1/2 4/1/2
f 9/1/2 8/3/2 7/1/2
f 8/3/2 9/1/2 10/4/2
f 11/2/3 5/1/3 6/2/3
f 5/1/3 11/2/3 12/1/3
f 13/1/4 10/4/4 9/1/4
f 10/4/4 13/1/4 14/4/4
f 17/3/1 16/1/1 15/1/1
f 16/1/1 17/3/1 18/4/1
f 3/2/3 20/1/3 19/2/3
f 20/1/3 3/2/3 1/1/3
f 16/1/4 22/4/4 21/1/4
f 22/4/4 16/1/4 18/4/4
f 25/6/1 24/5/1 23/5/1
f 24/5/1 25/6/1 26/6/1
f 23/5/5 28/5/5 27/5/5
f 28/5/5 23/5/5 24/5/5
f 28/5/2 29/6/2 27/5/2
f 29/6/2 28/5/2 30/6/2
f 29/6/6 32/7/6 31/7/6
f 32/7/6 29/6/6 30/6/6
f 32/7/7 25/6/7 31/7/7
f 25/6/7 32/7/7 26/6/7
f 35/8/4 34/9/4 33/8/4
f 34/9/4 35/8/4 36/10/4
f 36/10/4 35/8/4 37/9/4
f 39/9/1 35/8/1 38/8/1
f 35/8/1 39/9/1 37/9/1
f 41/9/3 38/8/3 40/8/3
f 38/8/3 41/9/3 42/10/3
f 38/8/3 42/10/3 39/9/3
f 34/9/2 40/8/2 33/8/2
f 40/8/2 34/9/2 41/9/2
f 31/7/4 43/11/4 29/6/4
f 29/6/4 43/11/4 27/5/4
f 31/7/4 44/10/4 43/11/4
f 45/8/4 27/5/4 43/11/4
f 31/7/4 46/11/4 44/10/4
f 25/6/4 46/11/4 31/7/4
f 47/8/4 27/5/4 45/8/4
f 46/11/4 25/6/4 47/8/4
f 47/8/4 23/5/4 27/5/4
f 23/5/4 47/8/4 25/6/4
f 2/12/8 20/12/8 1/12/8
f 20/12/8 2/12/8 12/12/8
f 12/12/8 2/12/8 5/12/8
f 5/12/8 2/12/8 4/12/8
f 13/12/8 20/12/8 12/12/8
f 20/12/8 13/12/8 21/12/8
f 9/12/8 21/12/8 13/12/8
f 9/12/8 16/12/8 21/12/8
f 7/12/8 16/12/8 9/12/8
f 16/12/8 7/12/8 15/12/8
f 49/13/3 8/14/3 48/13/3
f 8/14/3 49/13/3 7/12/3
f 7/12/3 49/13/3 17/14/3
f 15/12/3 7/12/3 17/14/3
f 11/15/2 13/12/2 12/12/2
f 13/12/2 11/15/2 14/16/2
f 22/16/1 20/12/1 21/12/1
f 20/12/1 22/16/1 19/15/1
f 52/17/9 51/18/9 50/17/9
f 51/18/9 52/17/9 53/18/9
f 3/20/10 22/19/10 18/19/10
f 22/19/10 3/20/10 19/20/10
f 52/17/10 4/17/10 2/17/10
f 4/17/10 52/17/10 50/17/10
f 11/20/10 10/19/10 14/19/10
f 10/19/10 11/20/10 6/20/10
f 56/22/4 55/21/11 54/21/11
f 55/21/11 56/22/4 57/22/4
f 55/21/11 57/22/4 58/22/4
f 55/21/11 58/22/4 59/22/4
f 55/21/11 59/22/4 60/22/4
f 55/21/11 60/22/4 61/22/4
f 54/21/11 49/23/12 48/23/12
f 49/23/12 54/21/11 55/21/11
f 64/26/4 63/25/4 62/24/4
f 63/25/4 64/26/4 65/27/4
f 63/25/4 65/27/4 66/26/4
f 63/25/4 66/26/4 67/24/4
f 70/24/13 69/26/13 68/26/13
f 69/26/13 70/24/13 66/26/13
f 66/26/13 70/24/13 67/24/13
f 65/27/7 72/28/7 71/27/7
f 64/26/7 72/28/7 65/27/7
f 72/28/7 64/26/7 73/26/7
f 74/26/7 72/28/7 73/26/7
f 72/28/7 74/26/7 75/28/7
f 63/25/14 70/24/14 76/25/14
f 70/24/14 63/25/14 67/24/14
f 77/29/12 57/22/12 56/22/12
f 57/22/12 77/29/12 58/22/12
f 58/22/12 77/29/12 78/24/12
f 78/24/12 77/29/12 74/26/12
f 74/26/12 77/29/12 79/29/12
f 79/29/12 75/28/12 74/26/12
f 58/22/12 78/24/12 76/25/12
f 58/22/12 76/25/12 59/22/12
f 59/22/12 76/25/12 60/22/12
f 70/24/12 60/22/12 76/25/12
f 80/29/12 60/22/12 70/24/12
f 60/22/12 80/29/12 61/22/12
f 80/29/12 70/24/12 68/26/12
f 80/29/12 68/26/12 81/29/12
f 81/29/12 68/26/12 82/28/12
f 78/24/15 63/25/15 76/25/15
f 63/25/15 78/24/15 62/24/15
f 83/28/6 65/27/6 71/27/6
f 65/27/6 83/28/6 69/26/6
f 65/27/6 69/26/6 66/26/6
f 83/28/6 68/26/6 69/26/6
f 68/26/6 83/28/6 82/28/6
f 73/26/16 78/24/16 74/26/16
f 78/24/16 73/26/16 64/26/16
f 78/24/16 64/26/16 62/24/16
f 51/31/2 4/30/2 50/17/2
f 4/30/2 51/31/2 6/32/2
f 6/32/2 51/31/2 77/33/2
f 6/32/2 77/33/2 84/34/2
f 84/34/2 77/33/2 56/35/2
f 84/34/2 56/35/2 8/36/2
f 8/36/2 56/35/2 48/23/2
f 48/23/2 56/35/2 54/37/2
f 2/30/1 53/31/1 52/17/1
f 53/31/1 2/30/1 3/32/1
f 53/31/1 3/32/1 80/33/1
f 80/33/1 3/32/1 85/34/1
f 80/33/1 85/34/1 61/35/1
f 61/35/1 85/34/1 17/36/1
f 61/35/1 17/36/1 49/23/1
f 61/35/1 49/23/1 55/37/1
f 79/38/12 80/38/12 81/38/12
f 80/38/12 79/38/12 77/38/12
f 80/38/12 77/38/12 53/39/12
f 53/39/12 77/38/12 51/39/12
f 83/40/1 81/41/1 82/40/1
f 72/40/2 75/40/2 79/41/2
f 88/42/4 87/43/4 86/42/4
f 87/43/4 88/42/4 89/44/4
f 89/44/4 88/42/4 90/43/4
f 87/43/1 47/42/1 86/42/1
f 47/42/1 87/43/1 46/43/1
f 45/42/2 90/43/2 88/42/2
f 90/43/2 45/42/2 43/43/2
f 44/44/7 34/45/7 36/44/7
f 46/43/7 34/45/7 44/44/7
f 46/43/7 41/45/7 34/45/7
f 87/43/7 41/45/7 46/43/7
f 87/43/7 42/44/7 41/45/7
f 42/44/7 87/43/7 89/44/7
f 36/44/6 43/43/6 44/44/6
f 37/45/6 43/43/6 36/44/6
f 39/45/6 43/43/6 37/45/6
f 43/43/6 39/45/6 90/43/6
f 42/44/6 90/43/6 39/45/6
f 90/43/6 42/44/6 89/44/6
f 86/42/5 40/42/5 88/42/5
f 40/42/5 86/42/5 47/42/5
f 38/42/5 88/42/5 40/42/5
f 40/42/5 47/42/5 33/42/5
f 88/42/5 38/42/5 45/42/5
f 33/42/5 47/42/5 35/42/5
f 45/42/5 38/42/5 35/42/5
f 45/42/5 35/42/5 47/42/5
f 71/47/4 30/46/4 83/40/4
f 83/40/4 30/46/4 81/41/4
f 71/47/4 32/48/4 30/46/4
f 28/49/4 81/41/4 30/46/4
f 71/47/4 26/46/4 32/48/4
f 72/40/4 26/46/4 71/47/4
f 24/49/4 81/41/4 28/49/4
f 26/46/4 72/40/4 24/49/4
f 24/49/4 79/41/4 81/41/4
f 79/41/4 24/49/4 72/40/4

g roof-window




usemtl colormap

f 3/2/1 2/1/1 1/1/1
f 6/2/2 5/1/2 4/1/2
f 9/1/2 8/3/2 7/1/2
f 8/3/2 9/1/2 10/4/2
f 11/2/3 5/1/3 6/2/3
f 5/1/3 11/2/3 12/1/3
f 13/1/4 10/4/4 9/1/4
f 10/4/4 13/1/4 14/4/4
f 17/3/1 16/1/1 15/1/1
f 16/1/1 17/3/1 18/4/1
f 3/2/3 20/1/3 19/2/3
f 20/1/3 3/2/3 1/1/3
f 16/1/4 22/4/4 21/1/4
f 22/4/4 16/1/4 18/4/4
f 25/6/1 24/5/1 23/5/1
f 24/5/1 25/6/1 26/6/1
f 23/5/5 28/5/5 27/5/5
f 28/5/5 23/5/5 24/5/5
f 28/5/2 29/6/2 27/5/2
f 29/6/2 28/5/2 30/6/2
f 29/6/6 32/7/6 31/7/6
f 32/7/6 29/6/6 30/6/6
f 32/7/7 25/6/7 31/7/7
f 25/6/7 32/7/7 26/6/7
f 35/8/4 34/9/4 33/8/4
f 34/9/4 35/8/4 36/10/4
f 36/10/4 35/8/4 37/9/4
f 39/9/1 35/8/1 38/8/1
f 35/8/1 39/9/1 37/9/1
f 41/9/3 38/8/3 40/8/3
f 38/8/3 41/9/3 42/10/3
f 38/8/3 42/10/3 39/9/3
f 34/9/2 40/8/2 33/8/2
f 40/8/2 34/9/2 41/9/2
f 31/7/4 43/11/4 29/6/4
f 29/6/4 43/11/4 27/5/4
f 31/7/4 44/10/4 43/11/4
f 45/8/4 27/5/4 43/11/4
f 31/7/4 46/11/4 44/10/4
f 25/6/4 46/11/4 31/7/4
f 47/8/4 27/5/4 45/8/4
f 46/11/4 25/6/4 47/8/4
f 47/8/4 23/5/4 27/5/4
f 23/5/4 47/8/4 25/6/4
f 2/12/8 20/12/8 1/12/8
f 20/12/8 2/12/8 12/12/8
f 12/12/8 2/12/8 5/12/8
f 5/12/8 2/12/8 4/12/8
f 13/12/8 20/12/8 12/12/8
f 20/12/8 13/12/8 21/12/8
f 9/12/8 21/12/8 13/12/8
f 9/12/8 16/12/8 21/12/8
f 7/12/8 16/12/8 9/12/8
f 16/12/8 7/12/8 15/12/8
f 49/13/3 8/14/3 48/13/3
f 8/14/3 49/13/3 7/12/3
f 7/12/3 49/13/3 17/14/3
f 15/12/3 7/12/3 17/14/3
f 11/15/2 13/12/2 12/12/2
f 13/12/2 11/15/2 14/16/2
f 22/16/1 20/12/1 21/12/1
f 20/12/1 22/16/1 19/15/1
f 52/17/9 51/18/9 50/17/9
f 51/18/9 52/17/9 53/18/9
f 3/20/10 22/19/10 18/19/10
f 22/19/10 3/20/10 19/20/10
f 52/17/10 4/17/10 2/17/10
f 4/17/10 52/17/10 50/17/10
f 11/20/10 10/19/10 14/19/10
f 10/19/10 11/20/10 6/20/10
f 56/22/4 55/21/11 54/21/11
f 55/21/11 56/22/4 57/22/4
f 55/21/11 57/22/4 58/22/4
f 55/21/11 58/22/4 59/22/4
f 55/21/11 59/22/4 60/22/4
f 55/21/11 60/22/4 61/22/4
f 54/21/11 49/23/12 48/23/12
f 49/23/12 54/21/11 55/21/11
f 64/26/4 63/25/4 62/24/4
f 63/25/4 64/26/4 65/27/4
f 63/25/4 65/27/4 66/26/4
f 63/25/4 66/26/4 67/24/4
f 70/24/13 69/26/13 68/26/13
f 69/26/13 70/24/13 66/26/13
f 66/26/13 70/24/13 67/24/13
f 65/27/7 72/28/7 71/27/7
f 64/26/7 72/28/7 65/27/7
f 72/28/7 64/26/7 73/26/7
f 74/26/7 72/28/7 73/26/7
f 72/28/7 74/26/7 75/28/7
f 63/25/14 70/24/14 76/25/14
f 70/24/14 63/25/14 67/24/14
f 77/29/12 57/22/12 56/22/12
f 57/22/12 77/29/12 58/22/12
f 58/22/12 77/29/12 78/24/12
f 78/24/12 77/29/12 74/26/12
f 74/26/12 77/29/12 79/29/12
f 79/29/12 75/28/12 74/26/12
f 58/22/12 78/24/12 76/25/12
f 58/22/12 76/25/12 59/22/12
f 59/22/12 76/25/12 60/22/12
f 70/24/12 60/22/12 76/25/12
f 80/29/12 60/22/12 70/24/12
f 60/22/12 80/29/12 61/22/12
f 80/29/12 70/24/12 68/26/12
f 80/29/12 68/26/12 81/29/12
f 81/29/12 68/26/12 82/28/12
f 78/24/15 63/25/15 76/25/15
f 63/25/15 78/24/15 62/24/15
f 83/28/6 65/27/6 71/27/6
f 65/27/6 83/28/6 69/26/6
f 65/27/6 69/26/6 66/26/6
f 83/28/6 68/26/6 69/26/6
f 68/26/6 83/28/6 82/28/6
f 73/26/16 78/24/16 74/26/16
f 78/24/16 73/26/16 64/26/16
f 78/24/16 64/26/16 62/24/16
f 51/31/2 4/30/2 50/17/2
f 4/30/2 51/31/2 6/32/2
f 6/32/2 51/31/2 77/33/2
f 6/32/2 77/33/2 84/34/2
f 84/34/2 77/33/2 56/35/2
f 84/34/2 56/35/2 8/36/2
f 8/36/2 56/35/2 48/23/2
f 48/23/2 56/35/2 54/37/2
f 2/30/1 53/31/1 52/17/1
f 53/31/1 2/30/1 3/32/1
f 53/31/1 3/32/1 80/33/1
f 80/33/1 3/32/1 85/34/1
f 80/33/1 85/34/1 61/35/1
f 61/35/1 85/34/1 17/36/1
f 61/35/1 17/36/1 49/23/1
f 61/35/1 49/23/1 55/37/1
f 79/38/12 80/38/12 81/38/12
f 80/38/12 79/38/12 77/38/12
f 80/38/12 77/38/12 53/39/12
f 53/39/12 77/38/12 51/39/12
f 83/40/1 81/41/1 82/40/1
f 72/40/2 75/40/2 79/41/2
f 88/42/4 87/43/4 86/42/4
f 87/43/4 88/42/4 89/44/4
f 89/44/4 88/42/4 90/43/4
f 87/43/1 47/42/1 86/42/1
f 47/42/1 87/43/1 46/43/1
f 45/42/2 90/43/2 88/42/2
f 90/43/2 45/42/2 43/43/2
f 44/44/7 34/45/7 36/44/7
f 46/43/7 34/45/7 44/44/7
f 46/43/7 41/45/7 34/45/7
f 87/43/7 41/45/7 46/43/7
f 87/43/7 42/44/7 41/45/7
f 42/44/7 87/43/7 89/44/7
f 36/44/6 43/43/6 44/44/6
f 37/45/6 43/43/6 36/44/6
f 39/45/6 43/43/6 37/45/6
f 43/43/6 39/45/6 90/43/6
f 42/44/6 90/43/6 39/45/6
f 90/43/6 42/44/6 89/44/6
f 86/42/5 40/42/5 88/42/5
f 40/42/5 86/42/5 47/42/5
f 38/42/5 88/42/5 40/42/5
f 40/42/5 47/42/5 33/42/5
f 88/42/5 38/42/5 45/42/5
f 33/42/5 47/42/5 35/42/5
f 45/42/5 38/42/5 35/42/5
f 45/42/5 35/42/5 47/42/5
f 71/47/4 30/46/4 83/40/4
f 83/40/4 30/46/4 81/41/4
f 71/47/4 32/48/4 30/46/4
f 28/49/4 81/41/4 30/46/4
f 71/47/4 26/46/4 32/48/4
f 72/40/4 26/46/4 71/47/4
f 24/49/4 81/41/4 28/49/4
f 26/46/4 72/40/4 24/49/4
f 24/49/4 79/41/4 81/41/4
f 79/41/4 24/49/4 72/40/4

