# Created by Kenney (www.kenney.nl)

mtllib roof-high-gable-detail.mtl

g roof-high-gable-detail

v 0.4 -5.414336E-16 0.5 1 1 1
v 0.4 -5.414336E-16 0.4 1 1 1
v -0.5 -5.414336E-16 0.5 1 1 1
v 0.375 -5.414336E-16 0.4 1 1 1
v 0.375 -5.414336E-16 -0.4 1 1 1
v -0.475 -5.414336E-16 0.4 1 1 1
v -0.5 -5.414336E-16 0.4 1 1 1
v -0.475 -5.414336E-16 -0.4 1 1 1
v -0.5 -5.414336E-16 -0.5 1 1 1
v -0.5 -5.414336E-16 -0.4 1 1 1
v 0.4 -5.414336E-16 -0.5 1 1 1
v 0.4 -5.414336E-16 -0.4 1 1 1
v 0.375 0.2 -0.4 1 1 1
v 0.375 1 0 1 1 1
v 0.375 0.2 0.4 1 1 1
v -0.475 0.2 -0.4 1 1 1
v -0.475 1 0 1 1 1
v -0.475 0.2 0.4 1 1 1
v 0.4 0.2 0.4 1 1 1
v -0.5 0.2 -0.4 1 1 1
v 0.4 0.2 -0.4 1 1 1
v -0.5 0.2 0.4 1 1 1
v -0.6 -0.04472136 -0.6341641 1 1 1
v -0.55 -0.04472136 -0.6341641 1 1 1
v -0.6 1.111803 -0.0559017 1 1 1
v -0.55 1.111803 -0.0559017 1 1 1
v -0.55 -0.08944272 -0.5447214 1 1 1
v -0.6 -0.08944272 -0.5447214 1 1 1
v -0.55 -0.04472136 -0.5223607 1 1 1
v -0.6 1 0 1 1 1
v -0.55 1 0 1 1 1
v 0.45 -0.04472136 -0.6341641 1 1 1
v 0.5 -0.04472136 -0.6341641 1 1 1
v 0.45 1.111803 -0.0559017 1 1 1
v 0.5 1.111803 -0.0559017 1 1 1
v 0.5 1.223607 -0.0559017 1 1 1
v 0.5 1.223607 0.0559017 1 1 1
v 0.5 1 0 1 1 1
v 0.5 1.111803 0.0559017 1 1 1
v 0.5 -0.08944272 -0.5447214 1 1 1
v 0.5 -0.08944272 0.5447214 1 1 1
v 0.5 -0.04472136 0.6341641 1 1 1
v -0.6 -0.08944272 0.5447214 1 1 1
v -0.55 -0.08944272 0.5447214 1 1 1
v -0.55 -0.04472136 0.5223607 1 1 1
v 0.45 -0.04472136 -0.5223607 1 1 1
v 0.45 -0.08944272 -0.5447214 1 1 1
v 0.45 -0.02236068 -0.567082 1 1 1
v 0.45 0.1194098 -0.4961968 1 1 1
v 0.45 1.111803 2.887646E-15 1 1 1
v 0.45 1.223607 -0.0559017 1 1 1
v 0.45 1.223607 0.0559017 1 1 1
v 0.45 1.111803 0.0559017 1 1 1
v 0.45 0.1194098 0.4961968 1 1 1
v 0.45 -0.04472136 0.6341641 1 1 1
v 0.45 -0.02236068 0.567082 1 1 1
v 0.45 -0.08944272 0.5447214 1 1 1
v 0.45 -0.04472136 0.5223607 1 1 1
v 0.45 1 0 1 1 1
v -0.55 -0.04472136 0.6341641 1 1 1
v -0.6 -0.04472136 0.6341641 1 1 1
v -0.55 1.111803 0.0559017 1 1 1
v -0.6 1.111803 0.0559017 1 1 1
v -0.55 1.223607 -0.0559017 1 1 1
v -0.55 1.223607 0.0559017 1 1 1
v -0.6 1.223607 -0.0559017 1 1 1
v -0.6 1.223607 0.0559017 1 1 1
v -0.55 1.111803 2.887646E-15 1 1 1
v -0.55 0.1194098 -0.4961968 1 1 1
v -0.55 0.1194098 0.4961968 1 1 1
v -0.55 -0.02236068 0.567082 1 1 1
v -0.55 -0.02236068 -0.567082 1 1 1
v 0.375 1 0 1 1 1
v 0.375 0.2 -0.4 1 1 1
v 0.4 0.2 -0.4 1 1 1
v 0.4 0 -0.5 1 1 1
v -0.5 0 -0.5 1 1 1
v -0.5 0.2 -0.4 1 1 1
v -0.475 1 0 1 1 1
v -0.475 0.2 -0.4 1 1 1
v -0.475 0.2 0.4 1 1 1
v -0.5 0.2 0.4 1 1 1
v -0.5 0 0.5 1 1 1
v 0.4 0 0.5 1 1 1
v 0.4 0.2 0.4 1 1 1
v 0.375 0.2 0.4 1 1 1
v 0.45 0.1194098 0.4961967 1 1 1
v -0.55 0.1194098 0.4961967 1 1 1
v -0.55 0.1194098 -0.4961968 1 1 1
v 0.45 0.1194098 -0.4961968 1 1 1

vn 0 -1 0
vn 1 0 0
vn -1 0 0
vn 0 0 1
vn 0 0 -1
vn 0 0.4472136 -0.8944272
vn 0 -0.4472136 0.8944272
vn 0 -0.4472136 -0.8944272
vn 0 0.4472136 0.8944272
vn 0 1 0
vn 0 -0.8944272 0.4472136
vn 0 -0.8944272 -0.4472136

vt 0.71875 0.025
vt 0.71875 0.05769024
vt 0.71875 0.1884512
vt 0.59375 0.05769024
vt 0.59375 0.025
vt 0.59375 0.2067256
vt 0.59375 0.1884512
vt 0.59375 0.225
vt 0.59375 0.04451768
vt 0.09375 0.04451768
vt 0.09375 0.2067256
vt 0.09375 0.025
vt 0.09375 0.225
vt 0.09375 0.07184912
vt 0.09375 0.03356139
vt 0.09375 0.075
vt 0.09375 0.175

usemtl colormap

f 3/1/1 2/1/1 1/1/1
f 2/1/1 3/1/1 4/1/1
f 4/1/1 3/1/1 5/1/1
f 5/1/1 3/1/1 6/1/1
f 6/1/1 3/1/1 7/1/1
f 8/1/1 5/1/1 6/1/1
f 9/1/1 5/1/1 8/1/1
f 9/1/1 8/1/1 10/1/1
f 11/1/1 5/1/1 9/1/1
f 5/1/1 11/1/1 12/1/1
f 14/3/2 5/1/2 13/2/2
f 5/1/2 14/3/2 4/1/2
f 4/1/2 14/3/2 15/2/2
f 6/1/3 16/2/3 8/1/3
f 16/2/3 6/1/3 17/3/3
f 17/3/3 6/1/3 18/2/3
f 1/5/2 2/5/2 19/4/2
f 20/4/3 9/5/3 10/5/3
f 12/5/2 11/5/2 21/4/2
f 3/5/3 22/4/3 7/5/3
f 21/4/4 5/5/4 12/5/4
f 5/5/4 21/4/4 13/4/4
f 22/4/5 6/5/5 7/5/5
f 6/5/5 22/4/5 18/4/5
f 15/4/5 2/5/5 4/5/5
f 2/5/5 15/4/5 19/4/5
f 16/4/4 10/5/4 8/5/4
f 10/5/4 16/4/4 20/4/4
f 25/6/6 24/5/6 23/5/6
f 24/5/6 25/6/6 26/6/6
f 29/5/7 28/5/7 27/5/7
f 28/5/7 29/5/7 30/7/7
f 30/7/7 29/5/7 31/7/7
f 34/6/6 33/5/6 32/5/6
f 33/5/6 34/6/6 35/6/6
f 37/8/2 35/6/2 36/8/2
f 35/6/2 37/8/2 38/7/2
f 38/7/2 37/8/2 39/6/2
f 40/5/2 35/6/2 38/7/2
f 35/6/2 40/5/2 33/5/2
f 38/7/2 39/6/2 41/5/2
f 41/5/2 39/6/2 42/5/2
f 30/7/8 44/5/8 43/5/8
f 44/5/8 30/7/8 45/5/8
f 45/5/8 30/7/8 31/7/8
f 48/5/3 47/5/3 46/5/3
f 47/5/3 48/5/3 32/5/3
f 48/5/3 34/6/3 32/5/3
f 34/6/3 48/5/3 49/9/3
f 34/6/3 49/9/3 50/6/3
f 34/6/3 50/6/3 51/8/3
f 51/8/3 50/6/3 52/8/3
f 52/8/3 50/6/3 53/6/3
f 54/9/3 53/6/3 50/6/3
f 53/6/3 54/9/3 55/5/3
f 55/5/3 54/9/3 56/5/3
f 56/5/3 57/5/3 55/5/3
f 57/5/3 56/5/3 58/5/3
f 38/7/7 47/5/7 40/5/7
f 47/5/7 38/7/7 46/5/7
f 46/5/7 38/7/7 59/7/7
f 62/6/9 61/5/9 60/5/9
f 61/5/9 62/6/9 63/6/9
f 66/8/10 65/8/10 64/8/10
f 65/8/10 66/8/10 67/8/10
f 51/8/10 37/8/10 36/8/10
f 37/8/10 51/8/10 52/8/10
f 51/8/5 35/6/5 34/6/5
f 35/6/5 51/8/5 36/8/5
f 61/5/11 44/5/11 60/5/11
f 44/5/11 61/5/11 43/5/11
f 58/5/8 41/5/8 57/5/8
f 41/5/8 58/5/8 38/7/8
f 38/7/8 58/5/8 59/7/8
f 66/8/5 26/6/5 25/6/5
f 26/6/5 66/8/5 64/8/5
f 28/5/12 24/5/12 27/5/12
f 24/5/12 28/5/12 23/5/12
f 47/5/12 33/5/12 40/5/12
f 33/5/12 47/5/12 32/5/12
f 39/6/9 55/5/9 42/5/9
f 55/5/9 39/6/9 53/6/9
f 65/8/4 63/6/4 62/6/4
f 63/6/4 65/8/4 67/8/4
f 37/8/4 53/6/4 39/6/4
f 53/6/4 37/8/4 52/8/4
f 65/8/2 26/6/2 64/8/2
f 26/6/2 65/8/2 68/6/2
f 68/6/2 65/8/2 62/6/2
f 69/9/2 26/6/2 68/6/2
f 68/6/2 62/6/2 70/9/2
f 70/9/2 62/6/2 60/5/2
f 70/9/2 60/5/2 71/5/2
f 44/5/2 71/5/2 60/5/2
f 71/5/2 44/5/2 45/5/2
f 72/5/2 26/6/2 69/9/2
f 26/6/2 72/5/2 24/5/2
f 72/5/2 27/5/2 24/5/2
f 27/5/2 72/5/2 29/5/2
f 55/5/11 41/5/11 42/5/11
f 41/5/11 55/5/11 57/5/11
f 63/6/3 43/5/3 61/5/3
f 43/5/3 63/6/3 30/7/3
f 67/8/3 30/7/3 63/6/3
f 66/8/3 30/7/3 67/8/3
f 25/6/3 30/7/3 66/8/3
f 25/6/3 28/5/3 30/7/3
f 28/5/3 25/6/3 23/5/3
f 50/11/9 70/10/9 54/10/9
f 70/10/9 50/11/9 68/11/9
f 71/12/11 58/12/11 56/12/11
f 58/12/11 71/12/11 45/12/11
f 68/11/6 49/10/6 69/10/6
f 49/10/6 68/11/6 50/11/6
f 29/12/12 48/12/12 46/12/12
f 48/12/12 29/12/12 72/12/12
f 74/14/7 59/13/7 73/13/7
f 75/14/7 59/13/7 74/14/7
f 76/15/7 59/13/7 75/14/7
f 76/15/7 46/12/7 59/13/7
f 46/12/7 76/15/7 29/12/7
f 77/15/7 29/12/7 76/15/7
f 29/12/7 77/15/7 31/13/7
f 31/13/7 77/15/7 78/14/7
f 31/13/7 78/14/7 79/13/7
f 79/13/7 78/14/7 80/14/7
f 81/14/8 31/13/8 79/13/8
f 82/14/8 31/13/8 81/14/8
f 83/15/8 31/13/8 82/14/8
f 83/15/8 45/12/8 31/13/8
f 45/12/8 83/15/8 58/12/8
f 84/15/8 58/12/8 83/15/8
f 58/12/8 84/15/8 59/13/8
f 59/13/8 84/15/8 85/14/8
f 59/13/8 85/14/8 73/13/8
f 73/13/8 85/14/8 86/14/8
f 87/17/9 71/16/9 56/16/9
f 71/16/9 87/17/9 88/17/9
f 89/17/6 48/16/6 72/16/6
f 48/16/6 89/17/6 90/17/6

g roof-high-gable-detail




usemtl colormap

f 3/1/1 2/1/1 1/1/1
f 2/1/1 3/1/1 4/1/1
f 4/1/1 3/1/1 5/1/1
f 5/1/1 3/1/1 6/1/1
f 6/1/1 3/1/1 7/1/1
f 8/1/1 5/1/1 6/1/1
f 9/1/1 5/1/1 8/1/1
f 9/1/1 8/1/1 10/1/1
f 11/1/1 5/1/1 9/1/1
f 5/1/1 11/1/1 12/1/1
f 14/3/2 5/1/2 13/2/2
f 5/1/2 14/3/2 4/1/2
f 4/1/2 14/3/2 15/2/2
f 6/1/3 16/2/3 8/1/3
f 16/2/3 6/1/3 17/3/3
f 17/3/3 6/1/3 18/2/3
f 1/5/2 2/5/2 19/4/2
f 20/4/3 9/5/3 10/5/3
f 12/5/2 11/5/2 21/4/2
f 3/5/3 22/4/3 7/5/3
f 21/4/4 5/5/4 12/5/4
f 5/5/4 21/4/4 13/4/4
f 22/4/5 6/5/5 7/5/5
f 6/5/5 22/4/5 18/4/5
f 15/4/5 2/5/5 4/5/5
f 2/5/5 15/4/5 19/4/5
f 16/4/4 10/5/4 8/5/4
f 10/5/4 16/4/4 20/4/4
f 25/6/6 24/5/6 23/5/6
f 24/5/6 25/6/6 26/6/6
f 29/5/7 28/5/7 27/5/7
f 28/5/7 29/5/7 30/7/7
f 30/7/7 29/5/7 31/7/7
f 34/6/6 33/5/6 32/5/6
f 33/5/6 34/6/6 35/6/6
f 37/8/2 35/6/2 36/8/2
f 35/6/2 37/8/2 38/7/2
f 38/7/2 37/8/2 39/6/2
f 40/5/2 35/6/2 38/7/2
f 35/6/2 40/5/2 33/5/2
f 38/7/2 39/6/2 41/5/2
f 41/5/2 39/6/2 42/5/2
f 30/7/8 44/5/8 43/5/8
f 44/5/8 30/7/8 45/5/8
f 45/5/8 30/7/8 31/7/8
f 48/5/3 47/5/3 46/5/3
f 47/5/3 48/5/3 32/5/3
f 48/5/3 34/6/3 32/5/3
f 34/6/3 48/5/3 49/9/3
f 34/6/3 49/9/3 50/6/3
f 34/6/3 50/6/3 51/8/3
f 51/8/3 50/6/3 52/8/3
f 52/8/3 50/6/3 53/6/3
f 54/9/3 53/6/3 50/6/3
f 53/6/3 54/9/3 55/5/3
f 55/5/3 54/9/3 56/5/3
f 56/5/3 57/5/3 55/5/3
f 57/5/3 56/5/3 58/5/3
f 38/7/7 47/5/7 40/5/7
f 47/5/7 38/7/7 46/5/7
f 46/5/7 38/7/7 59/7/7
f 62/6/9 61/5/9 60/5/9
f 61/5/9 62/6/9 63/6/9
f 66/8/10 65/8/10 64/8/10
f 65/8/10 66/8/10 67/8/10
f 51/8/10 37/8/10 36/8/10
f 37/8/10 51/8/10 52/8/10
f 51/8/5 35/6/5 34/6/5
f 35/6/5 51/8/5 36/8/5
f 61/5/11 44/5/11 60/5/11
f 44/5/11 61/5/11 43/5/11
f 58/5/8 41/5/8 57/5/8
f 41/5/8 58/5/8 38/7/8
f 38/7/8 58/5/8 59/7/8
f 66/8/5 26/6/5 25/6/5
f 26/6/5 66/8/5 64/8/5
f 28/5/12 24/5/12 27/5/12
f 24/5/12 28/5/12 23/5/12
f 47/5/12 33/5/12 40/5/12
f 33/5/12 47/5/12 32/5/12
f 39/6/9 55/5/9 42/5/9
f 55/5/9 39/6/9 53/6/9
f 65/8/4 63/6/4 62/6/4
f 63/6/4 65/8/4 67/8/4
f 37/8/4 53/6/4 39/6/4
f 53/6/4 37/8/4 52/8/4
f 65/8/2 26/6/2 64/8/2
f 26/6/2 65/8/2 68/6/2
f 68/6/2 65/8/2 62/6/2
f 69/9/2 26/6/2 68/6/2
f 68/6/2 62/6/2 70/9/2
f 70/9/2 62/6/2 60/5/2
f 70/9/2 60/5/2 71/5/2
f 44/5/2 71/5/2 60/5/2
f 71/5/2 44/5/2 45/5/2
f 72/5/2 26/6/2 69/9/2
f 26/6/2 72/5/2 24/5/2
f 72/5/2 27/5/2 24/5/2
f 27/5/2 72/5/2 29/5/2
f 55/5/11 41/5/11 42/5/11
f 41/5/11 55/5/11 57/5/11
f 63/6/3 43/5/3 61/5/3
f 43/5/3 63/6/3 30/7/3
f 67/8/3 30/7/3 63/6/3
f 66/8/3 30/7/3 67/8/3
f 25/6/3 30/7/3 66/8/3
f 25/6/3 28/5/3 30/7/3
f 28/5/3 25/6/3 23/5/3
f 50/11/9 70/10/9 54/10/9
f 70/10/9 50/11/9 68/11/9
f 71/12/11 58/12/11 56/12/11
f 58/12/11 71/12/11 45/12/11
f 68/11/6 49/10/6 69/10/6
f 49/10/6 68/11/6 50/11/6
f 29/12/12 48/12/12 46/12/12
f 48/12/12 29/12/12 72/12/12
f 74/14/7 59/13/7 73/13/7
f 75/14/7 59/13/7 74/14/7
f 76/15/7 59/13/7 75/14/7
f 76/15/7 46/12/7 59/13/7
f 46/12/7 76/15/7 29/12/7
f 77/15/7 29/12/7 76/15/7
f 29/12/7 77/15/7 31/13/7
f 31/13/7 77/15/7 78/14/7
f 31/13/7 78/14/7 79/13/7
f 79/13/7 78/14/7 80/14/7
f 81/14/8 31/13/8 79/13/8
f 82/14/8 31/13/8 81/14/8
f 83/15/8 31/13/8 82/14/8
f 83/15/8 45/12/8 31/13/8
f 45/12/8 83/15/8 58/12/8
f 84/15/8 58/12/8 83/15/8
f 58/12/8 84/15/8 59/13/8
f 59/13/8 84/15/8 85/14/8
f 59/13/8 85/14/8 73/13/8
f 73/13/8 85/14/8 86/14/8
f 87/17/9 71/16/9 56/16/9
f 71/16/9 87/17/9 88/17/9
f 89/17/6 48/16/6 72/16/6
f 48/16/6 89/17/6 90/17/6

