# Created by Kenney (www.kenney.nl)

mtllib roof-high-right.mtl

g roof-high-right

v 0.4 0.9707107 -0.5 1 1 1
v 0.4 1.040711 -0.5 1 1 1
v 0.4 0.9707107 0.4 1 1 1
v 0.4 0.9907106 0.4 1 1 1
v 0.4 1.040711 0.4 1 1 1
v 0.4 0.9 -0.5 1 1 1
v -0.4 0.1 -0.5 1 1 1
v 0.4 0.9 -0.475 1 1 1
v -0.4 0.1 -0.475 1 1 1
v -0.5353553 -0.03535534 -0.5 1 1 1
v -0.5 -2.255973E-17 -0.5 1 1 1
v -0.5707107 -3.835154E-16 -0.5 1 1 1
v -0.4707107 0.1 -0.5 1 1 1
v 0.5 1 -0.5 1 1 1
v 0.5 1.140711 -0.5 1 1 1
v -0.4707107 0.1 0.4 1 1 1
v 0.4 0.9 0.475 1 1 1
v -0.4 0.1 0.475 1 1 1
v 0.4 0.9 0.5 1 1 1
v -0.4 0.1 0.5 1 1 1
v -0.5 -2.255973E-17 0.5 1 1 1
v -0.5353553 -0.03535534 0.4 1 1 1
v -0.5353553 -0.03535534 0.5 1 1 1
v -0.5707107 -4.466827E-15 0.4 1 1 1
v 0.5 1.140711 0.4 1 1 1
v -0.4707107 0.1 0.4 1 1 1
v -0.5707107 -4.466827E-15 0.4 1 1 1
v -0.5707107 -3.835158E-16 -0.5 1 1 1
v -0.4 -2.255973E-17 -0.475 1 1 1
v 0.4 -2.255973E-17 -0.475 1 1 1
v 0.5 1.190711 0.4 1 1 1
v 0.5 1.190711 0.5 1 1 1
v 0.5 -2.255973E-17 0.5 1 1 1
v 0.5 -2.255973E-17 -0.5 1 1 1
v 0.4 -2.255973E-17 0.475 1 1 1
v -0.4 -2.255973E-17 0.475 1 1 1
v -0.4 -2.255973E-17 0.5 1 1 1
v -0.4 -2.255973E-17 -0.5 1 1 1
v 0.4 -2.255973E-17 -0.5 1 1 1
v 0.4 -2.255973E-17 0.5 1 1 1
v 0.4 1.040711 0.5 1 1 1
v -0.6414214 -0.0007106781 0.5 1 1 1
v -0.6414214 -0.0007106781 0.4 1 1 1
v 0.4 1.090711 0.4 1 1 1
v -0.5707107 -0.07071068 0.4 1 1 1
v 0.4 1.090711 0.5 1 1 1
v -0.5707107 -0.07071068 0.5 1 1 1

vn -1 0 0
vn -0.9238795 0.3826834 0
vn 0.7071068 -0.7071068 0
vn 0 0 -1
vn -0.7071068 0.7071068 0
vn -0.7071068 -0.7071068 0
vn 1 0 0
vn 0 0 1
vn 0 -1 0
vn -0.7035264 -0.710669 0

vt 0.09375 0.1880473
vt 0.09375 0.199805
vt 0.09375 0.1914066
vt 0.09375 0.1761702
vt 0.09375 0.04179669
vt 0.09375 0.025
vt 0.59375 0.025
vt 0.59375 0.04179669
vt 0.59375 0.1761702
vt 0.59375 0.1929669
vt 0.09375 0.2166017
vt 0.09375 0.175
vt 0.09375 0.075
vt 0.71875 0.025
vt 0.71875 0.04179669
vt 0.71875 0.1761702
vt 0.71875 0.225
vt 0.71875 0.2166017
vt 0.71875 0.1929669
vt 0.59375 0.199805
vt 0.59375 0.225
vt 0.59375 0.2082033
vt 0.59375 0.2166017
vt 0.59375 0.1914066
vt 0.59375 0.1880473

usemtl colormap

f 3/1/1 2/2/2 1/1/1
f 2/2/2 3/1/1 4/3/1
f 2/2/2 4/3/1 5/2/2
f 8/4/3 7/5/3 6/4/3
f 7/5/3 8/4/3 9/5/3
f 12/6/4 11/7/4 10/6/4
f 11/7/4 12/6/4 13/5/4
f 11/7/4 13/5/4 7/8/4
f 7/8/4 13/5/4 1/1/4
f 7/8/4 1/1/4 6/9/4
f 6/9/4 1/1/4 14/10/4
f 14/10/4 1/1/4 2/2/4
f 14/10/4 2/2/4 15/11/4
f 1/1/5 16/5/5 3/1/5
f 16/5/5 1/1/5 13/5/5
f 19/4/3 18/5/3 17/4/3
f 18/5/3 19/4/3 20/5/3
f 21/6/3 10/6/3 11/6/3
f 10/6/3 21/6/3 22/7/3
f 22/7/3 21/6/3 23/7/3
f 24/6/6 10/6/6 22/6/6
f 10/6/6 24/6/6 12/6/6
f 2/2/2 25/11/5 15/11/5
f 25/11/5 2/2/2 5/2/2
f 13/12/5 27/13/5 26/12/5
f 27/13/5 13/12/5 28/13/5
f 9/15/4 30/14/4 29/14/4
f 30/14/4 9/15/4 8/16/4
f 32/17/7 25/18/7 31/17/7
f 25/18/7 32/17/7 33/14/7
f 34/14/7 25/18/7 33/14/7
f 14/19/7 25/18/7 34/14/7
f 25/18/7 14/19/7 15/18/7
f 17/16/8 36/14/8 35/14/8
f 36/14/8 17/16/8 18/15/8
f 21/14/9 36/14/9 37/14/9
f 36/14/9 21/14/9 29/14/9
f 29/14/9 21/14/9 38/14/9
f 38/14/9 21/14/9 11/14/9
f 30/14/9 36/14/9 29/14/9
f 36/14/9 30/14/9 35/14/9
f 39/14/9 35/14/9 30/14/9
f 39/14/9 40/14/9 35/14/9
f 34/14/9 40/14/9 39/14/9
f 40/14/9 34/14/9 33/14/9
f 7/8/4 38/7/4 11/7/4
f 5/20/5 42/7/5 41/20/5
f 42/7/5 5/20/5 43/7/5
f 25/23/4 44/22/4 31/21/4
f 44/22/4 25/23/4 5/20/4
f 16/8/4 5/20/4 4/24/4
f 16/8/4 4/24/4 3/25/4
f 24/7/4 5/20/4 16/8/4
f 24/7/4 43/7/4 5/20/4
f 22/7/4 43/7/4 24/7/4
f 43/7/4 22/7/4 45/7/4
f 41/20/1 44/22/1 5/20/1
f 44/22/1 41/20/1 46/22/1
f 6/9/4 34/7/4 39/7/4
f 34/7/4 6/9/4 14/10/4
f 9/8/7 38/7/7 7/8/7
f 38/7/7 9/8/7 29/7/7
f 30/7/1 6/9/1 39/7/1
f 6/9/1 30/7/1 8/9/1
f 44/22/5 32/21/5 31/21/5
f 32/21/5 44/22/5 46/22/5
f 23/7/3 45/7/3 22/7/3
f 45/7/3 23/7/3 47/7/3
f 20/8/8 21/7/8 37/7/8
f 41/20/8 21/7/8 20/8/8
f 41/20/8 20/8/8 19/9/8
f 42/7/8 21/7/8 41/20/8
f 42/7/8 23/7/8 21/7/8
f 23/7/8 42/7/8 47/7/8
f 19/9/8 32/21/8 41/20/8
f 41/20/8 32/21/8 46/22/8
f 40/7/8 32/21/8 19/9/8
f 32/21/8 40/7/8 33/7/8
f 20/8/7 36/7/7 18/8/7
f 36/7/7 20/8/7 37/7/7
f 42/7/10 45/7/10 47/7/10
f 45/7/10 42/7/10 43/7/10
f 40/7/1 17/9/1 35/7/1
f 17/9/1 40/7/1 19/9/1

g roof-high-right




usemtl colormap

f 3/1/1 2/2/2 1/1/1
f 2/2/2 3/1/1 4/3/1
f 2/2/2 4/3/1 5/2/2
f 8/4/3 7/5/3 6/4/3
f 7/5/3 8/4/3 9/5/3
f 12/6/4 11/7/4 10/6/4
f 11/7/4 12/6/4 13/5/4
f 11/7/4 13/5/4 7/8/4
f 7/8/4 13/5/4 1/1/4
f 7/8/4 1/1/4 6/9/4
f 6/9/4 1/1/4 14/10/4
f 14/10/4 1/1/4 2/2/4
f 14/10/4 2/2/4 15/11/4
f 1/1/5 16/5/5 3/1/5
f 16/5/5 1/1/5 13/5/5
f 19/4/3 18/5/3 17/4/3
f 18/5/3 19/4/3 20/5/3
f 21/6/3 10/6/3 11/6/3
f 10/6/3 21/6/3 22/7/3
f 22/7/3 21/6/3 23/7/3
f 24/6/6 10/6/6 22/6/6
f 10/6/6 24/6/6 12/6/6
f 2/2/2 25/11/5 15/11/5
f 25/11/5 2/2/2 5/2/2
f 13/12/5 27/13/5 26/12/5
f 27/13/5 13/12/5 28/13/5
f 9/15/4 30/14/4 29/14/4
f 30/14/4 9/15/4 8/16/4
f 32/17/7 25/18/7 31/17/7
f 25/18/7 32/17/7 33/14/7
f 34/14/7 25/18/7 33/14/7
f 14/19/7 25/18/7 34/14/7
f 25/18/7 14/19/7 15/18/7
f 17/16/8 36/14/8 35/14/8
f 36/14/8 17/16/8 18/15/8
f 21/14/9 36/14/9 37/14/9
f 36/14/9 21/14/9 29/14/9
f 29/14/9 21/14/9 38/14/9
f 38/14/9 21/14/9 11/14/9
f 30/14/9 36/14/9 29/14/9
f 36/14/9 30/14/9 35/14/9
f 39/14/9 35/14/9 30/14/9
f 39/14/9 40/14/9 35/14/9
f 34/14/9 40/14/9 39/14/9
f 40/14/9 34/14/9 33/14/9
f 7/8/4 38/7/4 11/7/4
f 5/20/5 42/7/5 41/20/5
f 42/7/5 5/20/5 43/7/5
f 25/23/4 44/22/4 31/21/4
f 44/22/4 25/23/4 5/20/4
f 16/8/4 5/20/4 4/24/4
f 16/8/4 4/24/4 3/25/4
f 24/7/4 5/20/4 16/8/4
f 24/7/4 43/7/4 5/20/4
f 22/7/4 43/7/4 24/7/4
f 43/7/4 22/7/4 45/7/4
f 41/20/1 44/22/1 5/20/1
f 44/22/1 41/20/1 46/22/1
f 6/9/4 34/7/4 39/7/4
f 34/7/4 6/9/4 14/10/4
f 9/8/7 38/7/7 7/8/7
f 38/7/7 9/8/7 29/7/7
f 30/7/1 6/9/1 39/7/1
f 6/9/1 30/7/1 8/9/1
f 44/22/5 32/21/5 31/21/5
f 32/21/5 44/22/5 46/22/5
f 23/7/3 45/7/3 22/7/3
f 45/7/3 23/7/3 47/7/3
f 20/8/8 21/7/8 37/7/8
f 41/20/8 21/7/8 20/8/8
f 41/20/8 20/8/8 19/9/8
f 42/7/8 21/7/8 41/20/8
f 42/7/8 23/7/8 21/7/8
f 23/7/8 42/7/8 47/7/8
f 19/9/8 32/21/8 41/20/8
f 41/20/8 32/21/8 46/22/8
f 40/7/8 32/21/8 19/9/8
f 32/21/8 40/7/8 33/7/8
f 20/8/7 36/7/7 18/8/7
f 36/7/7 20/8/7 37/7/7
f 42/7/10 45/7/10 47/7/10
f 45/7/10 42/7/10 43/7/10
f 40/7/1 17/9/1 35/7/1
f 17/9/1 40/7/1 19/9/1

