# Created by Kenney (www.kenney.nl)

mtllib wall-arch.mtl

g wall-arch

v 0.5 1 0.4 1 1 1
v 0.5 1 0.5 1 1 1
v 0.4 1 0.4 1 1 1
v 0.4 1 0.5 1 1 1
v 0.5 0 0.5 1 1 1
v 0.5 0 0.4 1 1 1
v 0.4 0 0.5 1 1 1
v 0.4 0 0.4 1 1 1
v 0.5 1 0.2 1 1 1
v 0.5 1 0.3 1 1 1
v 0.4 1 0.2 1 1 1
v 0.4 1 0.3 1 1 1
v 0.5 -1.639515E-19 0.3 1 1 1
v 0.5 -1.639515E-19 0.2 1 1 1
v 0.4 -1.639515E-19 0.3 1 1 1
v 0.4 -1.639515E-19 0.2 1 1 1
v 0.475 1 0.3 1 1 1
v 0.475 1 0.4 1 1 1
v 0.425 1 0.3 1 1 1
v 0.425 1 0.4 1 1 1
v 0.475 -1.639515E-19 0.4 1 1 1
v 0.475 -1.639515E-19 0.3 1 1 1
v 0.425 -1.639515E-19 0.4 1 1 1
v 0.425 -1.639515E-19 0.3 1 1 1

vn 0 1 0
vn 0 -1 0
vn 0 0 -1
vn -1 0 0
vn 0 0 1
vn 1 0 0

vt 0.59375 0.175
vt 0.59375 0.075
vt 0.96875 0.175
vt 0.96875 0.075
vt 0.21875 0.425
vt 0.21875 0.325

usemtl colormap

f 3/1/1 2/1/1 1/1/1
f 2/1/1 3/1/1 4/1/1
f 7/2/2 6/2/2 5/2/2
f 6/2/2 7/2/2 8/2/2
f 3/1/3 6/2/3 8/2/3
f 6/2/3 3/1/3 1/1/3
f 7/2/4 3/1/4 8/2/4
f 3/1/4 7/2/4 4/1/4
f 2/1/5 7/2/5 5/2/5
f 7/2/5 2/1/5 4/1/5
f 2/1/6 6/2/6 1/1/6
f 6/2/6 2/1/6 5/2/6
f 11/3/1 10/3/1 9/3/1
f 10/3/1 11/3/1 12/3/1
f 15/4/2 14/4/2 13/4/2
f 14/4/2 15/4/2 16/4/2
f 11/3/3 14/4/3 16/4/3
f 14/4/3 11/3/3 9/3/3
f 15/4/4 11/3/4 16/4/4
f 11/3/4 15/4/4 12/3/4
f 10/3/5 15/4/5 13/4/5
f 15/4/5 10/3/5 12/3/5
f 10/3/6 14/4/6 9/3/6
f 14/4/6 10/3/6 13/4/6
f 19/5/1 18/5/1 17/5/1
f 18/5/1 19/5/1 20/5/1
f 23/6/2 22/6/2 21/6/2
f 22/6/2 23/6/2 24/6/2
f 23/6/4 19/5/4 24/6/4
f 19/5/4 23/6/4 20/5/4
f 18/5/6 22/6/6 17/5/6
f 22/6/6 18/5/6 21/6/6

g wall-arch




usemtl colormap

f 3/1/1 2/1/1 1/1/1
f 2/1/1 3/1/1 4/1/1
f 7/2/2 6/2/2 5/2/2
f 6/2/2 7/2/2 8/2/2
f 3/1/3 6/2/3 8/2/3
f 6/2/3 3/1/3 1/1/3
f 7/2/4 3/1/4 8/2/4
f 3/1/4 7/2/4 4/1/4
f 2/1/5 7/2/5 5/2/5
f 7/2/5 2/1/5 4/1/5
f 2/1/6 6/2/6 1/1/6
f 6/2/6 2/1/6 5/2/6
f 11/3/1 10/3/1 9/3/1
f 10/3/1 11/3/1 12/3/1
f 15/4/2 14/4/2 13/4/2
f 14/4/2 15/4/2 16/4/2
f 11/3/3 14/4/3 16/4/3
f 14/4/3 11/3/3 9/3/3
f 15/4/4 11/3/4 16/4/4
f 11/3/4 15/4/4 12/3/4
f 10/3/5 15/4/5 13/4/5
f 15/4/5 10/3/5 12/3/5
f 10/3/6 14/4/6 9/3/6
f 14/4/6 10/3/6 13/4/6
f 19/5/1 18/5/1 17/5/1
f 18/5/1 19/5/1 20/5/1
f 23/6/2 22/6/2 21/6/2
f 22/6/2 23/6/2 24/6/2
f 23/6/4 19/5/4 24/6/4
f 19/5/4 23/6/4 20/5/4
f 18/5/6 22/6/6 17/5/6
f 22/6/6 18/5/6 21/6/6

