# Created by Kenney (www.kenney.nl)

mtllib wall-doorway-base.mtl

g wall-doorway-base

v 0.5 1 -0.5 1 1 1
v 0.5 1 -0.4 1 1 1
v 0.4 1 -0.5 1 1 1
v 0.4 1 -0.4 1 1 1
v 0.5 0 -0.4 1 1 1
v 0.5 0 -0.5 1 1 1
v 0.4 0 -0.4 1 1 1
v 0.4 0 -0.5 1 1 1
v 0.5 1 0.4 1 1 1
v 0.5 1 0.5 1 1 1
v 0.4 1 0.4 1 1 1
v 0.4 1 0.5 1 1 1
v 0.5 0 0.5 1 1 1
v 0.5 0 0.4 1 1 1
v 0.4 0 0.5 1 1 1
v 0.4 0 0.4 1 1 1
v 0.5 1 -0.3 1 1 1
v 0.5 1 -0.2 1 1 1
v 0.4 1 -0.3 1 1 1
v 0.4 1 -0.2 1 1 1
v 0.5 -1.639515E-19 -0.2 1 1 1
v 0.5 -1.639515E-19 -0.3 1 1 1
v 0.4 -1.639515E-19 -0.2 1 1 1
v 0.4 -1.639515E-19 -0.3 1 1 1
v 0.5 1 0.2 1 1 1
v 0.5 1 0.3 1 1 1
v 0.4 1 0.2 1 1 1
v 0.4 1 0.3 1 1 1
v 0.5 -1.639515E-19 0.3 1 1 1
v 0.5 -1.639515E-19 0.2 1 1 1
v 0.4 -1.639515E-19 0.3 1 1 1
v 0.4 -1.639515E-19 0.2 1 1 1
v 0.475 1 -0.4 1 1 1
v 0.475 1 -0.3 1 1 1
v 0.425 1 -0.4 1 1 1
v 0.425 1 -0.3 1 1 1
v 0.475 0 -0.3 1 1 1
v 0.475 0 -0.4 1 1 1
v 0.425 0 -0.3 1 1 1
v 0.425 0 -0.4 1 1 1
v 0.475 1 0.3 1 1 1
v 0.475 1 0.4 1 1 1
v 0.425 1 0.3 1 1 1
v 0.425 1 0.4 1 1 1
v 0.475 -1.639515E-19 0.4 1 1 1
v 0.475 -1.639515E-19 0.3 1 1 1
v 0.425 -1.639515E-19 0.4 1 1 1
v 0.425 -1.639515E-19 0.3 1 1 1

vn 0 1 0
vn 0 -1 0
vn 0 0 -1
vn -1 0 0
vn 0 0 1
vn 1 0 0

vt 0.59375 0.175
vt 0.59375 0.075
vt 0.21875 0.425
vt 0.21875 0.325

usemtl colormap

f 3/1/1 2/1/1 1/1/1
f 2/1/1 3/1/1 4/1/1
f 7/2/2 6/2/2 5/2/2
f 6/2/2 7/2/2 8/2/2
f 3/1/3 6/2/3 8/2/3
f 6/2/3 3/1/3 1/1/3
f 7/2/4 3/1/4 8/2/4
f 3/1/4 7/2/4 4/1/4
f 2/1/5 7/2/5 5/2/5
f 7/2/5 2/1/5 4/1/5
f 2/1/6 6/2/6 1/1/6
f 6/2/6 2/1/6 5/2/6
f 11/1/1 10/1/1 9/1/1
f 10/1/1 11/1/1 12/1/1
f 15/2/2 14/2/2 13/2/2
f 14/2/2 15/2/2 16/2/2
f 11/1/3 14/2/3 16/2/3
f 14/2/3 11/1/3 9/1/3
f 15/2/4 11/1/4 16/2/4
f 11/1/4 15/2/4 12/1/4
f 10/1/5 15/2/5 13/2/5
f 15/2/5 10/1/5 12/1/5
f 10/1/6 14/2/6 9/1/6
f 14/2/6 10/1/6 13/2/6
f 19/1/1 18/1/1 17/1/1
f 18/1/1 19/1/1 20/1/1
f 23/2/2 22/2/2 21/2/2
f 22/2/2 23/2/2 24/2/2
f 19/1/3 22/2/3 24/2/3
f 22/2/3 19/1/3 17/1/3
f 23/2/4 19/1/4 24/2/4
f 19/1/4 23/2/4 20/1/4
f 18/1/5 23/2/5 21/2/5
f 23/2/5 18/1/5 20/1/5
f 18/1/6 22/2/6 17/1/6
f 22/2/6 18/1/6 21/2/6
f 27/1/1 26/1/1 25/1/1
f 26/1/1 27/1/1 28/1/1
f 31/2/2 30/2/2 29/2/2
f 30/2/2 31/2/2 32/2/2
f 27/1/3 30/2/3 32/2/3
f 30/2/3 27/1/3 25/1/3
f 31/2/4 27/1/4 32/2/4
f 27/1/4 31/2/4 28/1/4
f 26/1/5 31/2/5 29/2/5
f 31/2/5 26/1/5 28/1/5
f 26/1/6 30/2/6 25/1/6
f 30/2/6 26/1/6 29/2/6
f 35/3/1 34/3/1 33/3/1
f 34/3/1 35/3/1 36/3/1
f 39/4/2 38/4/2 37/4/2
f 38/4/2 39/4/2 40/4/2
f 39/4/4 35/3/4 40/4/4
f 35/3/4 39/4/4 36/3/4
f 34/3/6 38/4/6 33/3/6
f 38/4/6 34/3/6 37/4/6
f 43/3/1 42/3/1 41/3/1
f 42/3/1 43/3/1 44/3/1
f 47/4/2 46/4/2 45/4/2
f 46/4/2 47/4/2 48/4/2
f 47/4/4 43/3/4 48/4/4
f 43/3/4 47/4/4 44/3/4
f 42/3/6 46/4/6 41/3/6
f 46/4/6 42/3/6 45/4/6

g wall-doorway-base




usemtl colormap

f 3/1/1 2/1/1 1/1/1
f 2/1/1 3/1/1 4/1/1
f 7/2/2 6/2/2 5/2/2
f 6/2/2 7/2/2 8/2/2
f 3/1/3 6/2/3 8/2/3
f 6/2/3 3/1/3 1/1/3
f 7/2/4 3/1/4 8/2/4
f 3/1/4 7/2/4 4/1/4
f 2/1/5 7/2/5 5/2/5
f 7/2/5 2/1/5 4/1/5
f 2/1/6 6/2/6 1/1/6
f 6/2/6 2/1/6 5/2/6
f 11/1/1 10/1/1 9/1/1
f 10/1/1 11/1/1 12/1/1
f 15/2/2 14/2/2 13/2/2
f 14/2/2 15/2/2 16/2/2
f 11/1/3 14/2/3 16/2/3
f 14/2/3 11/1/3 9/1/3
f 15/2/4 11/1/4 16/2/4
f 11/1/4 15/2/4 12/1/4
f 10/1/5 15/2/5 13/2/5
f 15/2/5 10/1/5 12/1/5
f 10/1/6 14/2/6 9/1/6
f 14/2/6 10/1/6 13/2/6
f 19/1/1 18/1/1 17/1/1
f 18/1/1 19/1/1 20/1/1
f 23/2/2 22/2/2 21/2/2
f 22/2/2 23/2/2 24/2/2
f 19/1/3 22/2/3 24/2/3
f 22/2/3 19/1/3 17/1/3
f 23/2/4 19/1/4 24/2/4
f 19/1/4 23/2/4 20/1/4
f 18/1/5 23/2/5 21/2/5
f 23/2/5 18/1/5 20/1/5
f 18/1/6 22/2/6 17/1/6
f 22/2/6 18/1/6 21/2/6
f 27/1/1 26/1/1 25/1/1
f 26/1/1 27/1/1 28/1/1
f 31/2/2 30/2/2 29/2/2
f 30/2/2 31/2/2 32/2/2
f 27/1/3 30/2/3 32/2/3
f 30/2/3 27/1/3 25/1/3
f 31/2/4 27/1/4 32/2/4
f 27/1/4 31/2/4 28/1/4
f 26/1/5 31/2/5 29/2/5
f 31/2/5 26/1/5 28/1/5
f 26/1/6 30/2/6 25/1/6
f 30/2/6 26/1/6 29/2/6
f 35/3/1 34/3/1 33/3/1
f 34/3/1 35/3/1 36/3/1
f 39/4/2 38/4/2 37/4/2
f 38/4/2 39/4/2 40/4/2
f 39/4/4 35/3/4 40/4/4
f 35/3/4 39/4/4 36/3/4
f 34/3/6 38/4/6 33/3/6
f 38/4/6 34/3/6 37/4/6
f 43/3/1 42/3/1 41/3/1
f 42/3/1 43/3/1 44/3/1
f 47/4/2 46/4/2 45/4/2
f 46/4/2 47/4/2 48/4/2
f 47/4/4 43/3/4 48/4/4
f 43/3/4 47/4/4 44/3/4
f 42/3/6 46/4/6 41/3/6
f 46/4/6 42/3/6 45/4/6

