# Created by Kenney (www.kenney.nl)

mtllib wall-window-round.mtl

g wall-window-round

v 0.5 1 -0.5 1 1 1
v 0.5 1 -0.4 1 1 1
v 0.4 1 -0.5 1 1 1
v 0.4 1 -0.4 1 1 1
v 0.5 0 -0.4 1 1 1
v 0.5 0 -0.5 1 1 1
v 0.4 0 -0.4 1 1 1
v 0.4 0 -0.5 1 1 1
v 0.5 1 0.4 1 1 1
v 0.5 1 0.5 1 1 1
v 0.4 1 0.4 1 1 1
v 0.4 1 0.5 1 1 1
v 0.5 0 0.5 1 1 1
v 0.5 0 0.4 1 1 1
v 0.4 0 0.5 1 1 1
v 0.4 0 0.4 1 1 1
v 0.5 0.65 -0.11 1 1 1
v 0.5 0.6764654 -0.1041336 1 1 1
v 0.475 0.65 -0.11 1 1 1
v 0.475 0.6764654 -0.1041336 1 1 1
v 0.5 0.65 0.11 1 1 1
v 0.475 0.65 0.11 1 1 1
v 0.5 0.6764654 0.1041336 1 1 1
v 0.475 0.6764654 0.1041336 1 1 1
v 0.425 0.746675 -0.02690305 1 1 1
v 0.425 0.75 7.219114E-16 1 1 1
v 0.4 0.746675 -0.02690305 1 1 1
v 0.4 0.75 7.219114E-16 1 1 1
v 0.4 0.65 0.11 1 1 1
v 0.4 0.25 0.11 1 1 1
v 0.4 0.6764654 0.1041336 1 1 1
v 0.4 0.7007061 0.09200034 1 1 1
v 0.4 0.7212634 0.07433034 1 1 1
v 0.4 0.65 0.06 1 1 1
v 0.4 0.6634772 0.05587364 1 1 1
v 0.4 0.3 0.06 1 1 1
v 0.4 0.7369 0.05218704 1 1 1
v 0.4 0.3 -0.06 1 1 1
v 0.4 0.6756477 0.0487642 1 1 1
v 0.4 0.6858615 0.03905125 1 1 1
v 0.4 0.6935734 0.02725336 1 1 1
v 0.4 0.746675 0.02690305 1 1 1
v 0.4 0.6983716 0.01400042 1 1 1
v 0.4 0.25 -0.11 1 1 1
v 0.4 0.7 -7.219114E-16 1 1 1
v 0.4 0.6983716 -0.01400042 1 1 1
v 0.4 0.65 -0.11 1 1 1
v 0.4 0.6764654 -0.1041336 1 1 1
v 0.4 0.7007061 -0.09200034 1 1 1
v 0.4 0.7212634 -0.07433034 1 1 1
v 0.4 0.65 -0.06 1 1 1
v 0.4 0.6935734 -0.02725336 1 1 1
v 0.4 0.6858615 -0.03905125 1 1 1
v 0.4 0.6756477 -0.0487642 1 1 1
v 0.4 0.7369 -0.05218704 1 1 1
v 0.4 0.6634772 -0.05587364 1 1 1
v 0.425 0.7369 -0.05218704 1 1 1
v 0.425 0.7212634 -0.07433034 1 1 1
v 0.5 0.7369 -0.05218704 1 1 1
v 0.5 0.746675 -0.02690305 1 1 1
v 0.475 0.7369 -0.05218704 1 1 1
v 0.475 0.746675 -0.02690305 1 1 1
v 0.425 0.7369 0.05218704 1 1 1
v 0.425 0.7212634 0.07433034 1 1 1
v 0.425 0.6764654 0.1041336 1 1 1
v 0.425 0.7007061 0.09200034 1 1 1
v 0.425 0.6764654 -0.1041336 1 1 1
v 0.425 0.7007061 -0.09200034 1 1 1
v 0.5 0.75 7.219114E-16 1 1 1
v 0.5 0.746675 0.02690305 1 1 1
v 0.475 0.75 7.219114E-16 1 1 1
v 0.475 0.746675 0.02690305 1 1 1
v 0.5 0.7007061 -0.09200034 1 1 1
v 0.5 0.7212634 -0.07433034 1 1 1
v 0.475 0.7007061 -0.09200034 1 1 1
v 0.475 0.7212634 -0.07433034 1 1 1
v 0.425 0.25 0.11 1 1 1
v 0.425 0.25 -0.11 1 1 1
v 0.425 0.65 -0.11 1 1 1
v 0.5 0.7369 0.05218704 1 1 1
v 0.5 0.7212634 0.07433034 1 1 1
v 0.475 0.7369 0.05218704 1 1 1
v 0.475 0.7212634 0.07433034 1 1 1
v 0.5 0.6756477 -0.0487642 1 1 1
v 0.5 0.6858615 -0.03905125 1 1 1
v 0.425 0.746675 0.02690305 1 1 1
v 0.5 0.6634772 -0.05587364 1 1 1
v 0.475 0.65 -0.16 1 1 1
v 0.475 0.2 -0.16 1 1 1
v 0.475 0.6894236 -0.1524173 1 1 1
v 0.475 0.25 -0.11 1 1 1
v 0.475 0.7257275 -0.1352786 1 1 1
v 0.475 0.2 0.16 1 1 1
v 0.475 0.7566358 -0.1096586 1 1 1
v 0.475 0.7802106 -0.07716332 1 1 1
v 0.475 0.7949739 -0.03983026 1 1 1
v 0.475 0.8 -7.219114E-16 1 1 1
v 0.475 0.7949739 0.03983026 1 1 1
v 0.475 0.7802106 0.07716332 1 1 1
v 0.475 0.7007061 0.09200034 1 1 1
v 0.475 0.7566358 0.1096586 1 1 1
v 0.475 0.7257275 0.1352786 1 1 1
v 0.475 0.25 0.11 1 1 1
v 0.475 0.6894236 0.1524173 1 1 1
v 0.475 0.65 0.16 1 1 1
v 0.475 0.25 0.16 1 1 1
v 0.5 0.25 -0.11 1 1 1
v 0.5 0.3 -0.06 1 1 1
v 0.5 0.25 0.11 1 1 1
v 0.5 0.65 -0.06 1 1 1
v 0.5 0.6935734 -0.02725336 1 1 1
v 0.5 0.6983716 -0.01400042 1 1 1
v 0.5 0.7 -7.219114E-16 1 1 1
v 0.5 0.6983716 0.01400042 1 1 1
v 0.5 0.6935734 0.02725336 1 1 1
v 0.5 0.6858615 0.03905125 1 1 1
v 0.5 0.6756477 0.0487642 1 1 1
v 0.5 0.6634772 0.05587364 1 1 1
v 0.5 0.65 0.06 1 1 1
v 0.5 0.3 0.06 1 1 1
v 0.5 0.7007061 0.09200034 1 1 1
v 0.425 0.65 0.11 1 1 1
v 0.425 0.25 0.16 1 1 1
v 0.425 0.2 0.16 1 1 1
v 0.425 0.65 0.16 1 1 1
v 0.425 0.6894236 0.1524173 1 1 1
v 0.425 0.7257275 0.1352786 1 1 1
v 0.425 0.7566358 0.1096586 1 1 1
v 0.425 0.7802106 0.07716332 1 1 1
v 0.425 0.2 -0.16 1 1 1
v 0.425 0.7949739 0.03983026 1 1 1
v 0.425 0.8 -7.219114E-16 1 1 1
v 0.425 0.65 -0.16 1 1 1
v 0.425 0.6894236 -0.1524173 1 1 1
v 0.425 0.7257275 -0.1352786 1 1 1
v 0.425 0.7566358 -0.1096586 1 1 1
v 0.425 0.7949739 -0.03983026 1 1 1
v 0.425 0.7802106 -0.07716332 1 1 1
v 0.475 0 0.4 1 1 1
v 0.475 0 -0.4 1 1 1
v 0.425 0 0.4 1 1 1
v 0.425 0 -0.4 1 1 1
v 0.475 1 -0.4 1 1 1
v 0.475 1 0.4 1 1 1
v 0.425 1 -0.4 1 1 1
v 0.425 1 0.4 1 1 1
v 0.475 0.6894235 0.1524173 1 1 1
v 0.475 0.2 0.16 1 1 1
v 0.475 0.2 -0.16 1 1 1
v 0.475 0.6894235 -0.1524173 1 1 1
v 0.425 0.6894235 0.1524173 1 1 1
v 0.425 0.7257275 0.1352786 1 1 1
v 0.425 0.7566358 0.1096586 1 1 1
v 0.425 0.7802106 0.07716332 1 1 1
v 0.425 0.7949739 0.03983026 1 1 1
v 0.425 0.8 -7.219114E-16 1 1 1
v 0.425 0.7949739 -0.03983026 1 1 1
v 0.425 0.65 0.16 1 1 1
v 0.425 0.7802106 -0.07716332 1 1 1
v 0.425 0.2 0.16 1 1 1
v 0.425 0.2 -0.16 1 1 1
v 0.425 0.7566358 -0.1096586 1 1 1
v 0.425 0.65 -0.16 1 1 1
v 0.425 0.7257275 -0.1352786 1 1 1
v 0.425 0.6894235 -0.1524173 1 1 1

vn 0 1 0
vn 0 -1 0
vn 0 0 -1
vn -1 0 0
vn 0 0 1
vn 1 0 0
vn 0 0.1088516 -0.994058
vn 0 0.3345282 -0.9423857
vn 0 0.1088516 0.994058
vn 0 0.3345282 0.9423857
vn 0 0.9699093 -0.2434666
vn 0 0.881448 -0.4722809
vn 0 0.73994 -0.6726728
vn 0 0.881448 0.4722809
vn 0 0.73994 0.6726728
vn 0 0.5539015 0.8325822
vn 0 0.5539015 -0.8325822
vn 0 0.9699093 0.2434666
vn 0 -0.6007817 0.799413
vn 0 -0.7682213 0.6401844
vn 0 -0.4012665 0.9159613
vn 0 -0.4012665 -0.9159613
vn 0 -0.6007817 -0.799413
vn 0 -0.7682213 -0.6401844
vn 0 -0.1480089 -0.988986
vn 0 -0.8946456 -0.4467764
vn 0 -0.9733051 0.2295151
vn 0 -0.8946456 0.4467764
vn 0 -0.9733051 -0.2295151
vn 0 -0.1480089 0.988986

vt 0.59375 0.175
vt 0.59375 0.075
vt 0.59375 0.1
vt 0.59375 0.15
vt 0.21875 0.325
vt 0.21875 0.425
vt 0.21875 0.39
vt 0.21875 0.3939424
vt 0.21875 0.3975728
vt 0.21875 0.4006636
vt 0.21875 0.4030211
vt 0.21875 0.4044974
vt 0.21875 0.405
vt 0.21875 0.345

usemtl colormap

f 3/1/1 2/1/1 1/1/1
f 2/1/1 3/1/1 4/1/1
f 7/2/2 6/2/2 5/2/2
f 6/2/2 7/2/2 8/2/2
f 3/1/3 6/2/3 8/2/3
f 6/2/3 3/1/3 1/1/3
f 7/2/4 3/1/4 8/2/4
f 3/1/4 7/2/4 4/1/4
f 2/1/5 7/2/5 5/2/5
f 7/2/5 2/1/5 4/1/5
f 2/1/6 6/2/6 1/1/6
f 6/2/6 2/1/6 5/2/6
f 11/1/1 10/1/1 9/1/1
f 10/1/1 11/1/1 12/1/1
f 15/2/2 14/2/2 13/2/2
f 14/2/2 15/2/2 16/2/2
f 11/1/3 14/2/3 16/2/3
f 14/2/3 11/1/3 9/1/3
f 15/2/4 11/1/4 16/2/4
f 11/1/4 15/2/4 12/1/4
f 10/1/5 15/2/5 13/2/5
f 15/2/5 10/1/5 12/1/5
f 10/1/6 14/2/6 9/1/6
f 14/2/6 10/1/6 13/2/6
f 19/3/7 18/2/8 17/2/7
f 18/2/8 19/3/7 20/3/8
f 23/2/10 22/3/9 21/2/9
f 22/3/9 23/2/10 24/3/10
f 27/1/11 26/4/1 25/4/11
f 26/4/1 27/1/11 28/1/1
f 31/1/4 30/1/4 29/1/4
f 32/1/4 30/1/4 31/1/4
f 33/1/4 30/1/4 32/1/4
f 34/1/4 30/1/4 33/1/4
f 33/1/4 35/1/4 34/1/4
f 36/1/4 30/1/4 34/1/4
f 37/1/4 35/1/4 33/1/4
f 38/1/4 30/1/4 36/1/4
f 37/1/4 39/1/4 35/1/4
f 37/1/4 40/1/4 39/1/4
f 37/1/4 41/1/4 40/1/4
f 42/1/4 41/1/4 37/1/4
f 42/1/4 43/1/4 41/1/4
f 38/1/4 44/1/4 30/1/4
f 28/1/4 43/1/4 42/1/4
f 28/1/4 45/1/4 43/1/4
f 28/1/4 46/1/4 45/1/4
f 44/1/4 38/1/4 47/1/4
f 27/1/4 46/1/4 28/1/4
f 47/1/4 38/1/4 48/1/4
f 48/1/4 38/1/4 49/1/4
f 49/1/4 38/1/4 50/1/4
f 51/1/4 50/1/4 38/1/4
f 27/1/4 52/1/4 46/1/4
f 27/1/4 53/1/4 52/1/4
f 27/1/4 54/1/4 53/1/4
f 50/1/4 51/1/4 55/1/4
f 55/1/4 54/1/4 27/1/4
f 55/1/4 51/1/4 56/1/4
f 55/1/4 56/1/4 54/1/4
f 58/4/13 55/1/12 57/4/12
f 55/1/12 58/4/13 50/1/13
f 61/3/12 60/2/11 59/2/12
f 60/2/11 61/3/12 62/3/11
f 55/1/12 25/4/11 57/4/12
f 25/4/11 55/1/12 27/1/11
f 37/1/14 64/4/15 63/4/14
f 64/4/15 37/1/14 33/1/15
f 66/4/16 31/1/10 65/4/10
f 31/1/10 66/4/16 32/1/16
f 49/1/17 67/4/8 48/1/8
f 67/4/8 49/1/17 68/4/17
f 50/1/13 68/4/17 49/1/17
f 68/4/17 50/1/13 58/4/13
f 71/3/1 70/2/18 69/2/1
f 70/2/18 71/3/1 72/3/18
f 75/3/17 74/2/13 73/2/17
f 74/2/13 75/3/17 76/3/13
f 30/1/2 78/4/2 77/4/2
f 78/4/2 30/1/2 44/1/2
f 44/1/3 79/4/7 78/4/3
f 79/4/7 44/1/3 47/1/7
f 82/3/14 81/2/15 80/2/14
f 81/2/15 82/3/14 83/3/15
f 85/2/20 54/1/19 84/2/19
f 54/1/19 85/2/20 53/1/20
f 76/3/13 59/2/12 74/2/13
f 59/2/12 76/3/13 61/3/12
f 28/1/1 86/4/18 26/4/1
f 86/4/18 28/1/1 42/1/18
f 72/3/18 80/2/14 70/2/18
f 80/2/14 72/3/18 82/3/14
f 20/3/8 73/2/17 18/2/8
f 73/2/17 20/3/8 75/3/17
f 84/2/19 56/1/21 87/2/21
f 56/1/21 84/2/19 54/1/19
f 90/3/6 89/3/6 88/3/6
f 89/3/6 90/3/6 91/3/6
f 91/3/6 90/3/6 92/3/6
f 89/3/6 91/3/6 93/3/6
f 91/3/6 92/3/6 19/3/6
f 94/3/6 19/3/6 92/3/6
f 19/3/6 94/3/6 20/3/6
f 20/3/6 94/3/6 95/3/6
f 20/3/6 95/3/6 75/3/6
f 75/3/6 95/3/6 76/3/6
f 76/3/6 95/3/6 96/3/6
f 76/3/6 96/3/6 61/3/6
f 61/3/6 96/3/6 62/3/6
f 62/3/6 96/3/6 97/3/6
f 62/3/6 97/3/6 71/3/6
f 71/3/6 97/3/6 98/3/6
f 71/3/6 98/3/6 72/3/6
f 72/3/6 98/3/6 82/3/6
f 82/3/6 98/3/6 99/3/6
f 82/3/6 99/3/6 83/3/6
f 83/3/6 99/3/6 100/3/6
f 100/3/6 99/3/6 101/3/6
f 100/3/6 101/3/6 24/3/6
f 24/3/6 101/3/6 22/3/6
f 22/3/6 101/3/6 102/3/6
f 22/3/6 102/3/6 103/3/6
f 93/3/6 103/3/6 102/3/6
f 93/3/6 91/3/6 103/3/6
f 93/3/6 102/3/6 104/3/6
f 93/3/6 104/3/6 105/3/6
f 93/3/6 105/3/6 106/3/6
f 18/2/6 107/2/6 17/2/6
f 107/2/6 18/2/6 108/2/6
f 108/2/6 18/2/6 73/2/6
f 108/2/6 73/2/6 74/2/6
f 107/2/6 108/2/6 109/2/6
f 108/2/6 74/2/6 110/2/6
f 59/2/6 110/2/6 74/2/6
f 110/2/6 59/2/6 87/2/6
f 87/2/6 59/2/6 84/2/6
f 84/2/6 59/2/6 60/2/6
f 84/2/6 60/2/6 85/2/6
f 85/2/6 60/2/6 111/2/6
f 111/2/6 60/2/6 112/2/6
f 112/2/6 60/2/6 69/2/6
f 112/2/6 69/2/6 113/2/6
f 113/2/6 69/2/6 114/2/6
f 114/2/6 69/2/6 70/2/6
f 114/2/6 70/2/6 115/2/6
f 115/2/6 70/2/6 80/2/6
f 115/2/6 80/2/6 116/2/6
f 116/2/6 80/2/6 117/2/6
f 117/2/6 80/2/6 118/2/6
f 118/2/6 80/2/6 81/2/6
f 118/2/6 81/2/6 119/2/6
f 119/2/6 81/2/6 120/2/6
f 109/2/6 120/2/6 81/2/6
f 109/2/6 108/2/6 120/2/6
f 109/2/6 81/2/6 121/2/6
f 109/2/6 121/2/6 23/2/6
f 109/2/6 23/2/6 21/2/6
f 91/3/3 17/2/7 107/2/3
f 17/2/7 91/3/3 19/3/7
f 103/3/2 107/2/2 109/2/2
f 107/2/2 103/3/2 91/3/2
f 81/2/15 100/3/16 121/2/16
f 100/3/16 81/2/15 83/3/15
f 121/2/16 24/3/10 23/2/10
f 24/3/10 121/2/16 100/3/16
f 65/4/10 29/1/9 122/4/9
f 29/1/9 65/4/10 31/1/10
f 48/1/8 79/4/7 47/1/7
f 79/4/7 48/1/8 67/4/8
f 42/1/18 63/4/14 86/4/18
f 63/4/14 42/1/18 37/1/14
f 64/4/15 32/1/16 66/4/16
f 32/1/16 64/4/15 33/1/15
f 21/2/9 103/3/5 109/2/5
f 103/3/5 21/2/9 22/3/9
f 125/4/4 124/4/4 123/4/4
f 126/4/4 124/4/4 125/4/4
f 127/4/4 124/4/4 126/4/4
f 122/4/4 124/4/4 127/4/4
f 128/4/4 122/4/4 127/4/4
f 77/4/4 124/4/4 122/4/4
f 128/4/4 65/4/4 122/4/4
f 128/4/4 66/4/4 65/4/4
f 78/4/4 124/4/4 77/4/4
f 129/4/4 66/4/4 128/4/4
f 129/4/4 64/4/4 66/4/4
f 129/4/4 63/4/4 64/4/4
f 78/4/4 130/4/4 124/4/4
f 131/4/4 63/4/4 129/4/4
f 131/4/4 86/4/4 63/4/4
f 131/4/4 26/4/4 86/4/4
f 132/4/4 26/4/4 131/4/4
f 132/4/4 25/4/4 26/4/4
f 130/4/4 78/4/4 133/4/4
f 133/4/4 78/4/4 134/4/4
f 134/4/4 78/4/4 135/4/4
f 79/4/4 135/4/4 78/4/4
f 135/4/4 79/4/4 136/4/4
f 136/4/4 79/4/4 67/4/4
f 137/4/4 25/4/4 132/4/4
f 137/4/4 57/4/4 25/4/4
f 137/4/4 58/4/4 57/4/4
f 136/4/4 67/4/4 138/4/4
f 138/4/4 58/4/4 137/4/4
f 138/4/4 67/4/4 68/4/4
f 138/4/4 68/4/4 58/4/4
f 35/1/22 117/2/23 118/2/22
f 117/2/23 35/1/22 39/1/23
f 39/1/23 116/2/24 117/2/23
f 116/2/24 39/1/23 40/1/24
f 122/4/9 30/1/5 77/4/5
f 30/1/5 122/4/9 29/1/9
f 62/3/11 69/2/1 60/2/11
f 69/2/1 62/3/11 71/3/1
f 38/1/1 120/2/1 108/2/1
f 120/2/1 38/1/1 36/1/1
f 34/1/25 118/2/22 119/2/25
f 118/2/22 34/1/25 35/1/22
f 40/1/24 115/2/26 116/2/24
f 115/2/26 40/1/24 41/1/26
f 45/1/2 112/2/27 113/2/2
f 112/2/27 45/1/2 46/1/27
f 36/1/3 119/2/25 120/2/3
f 119/2/25 36/1/3 34/1/25
f 52/1/28 85/2/20 111/2/28
f 85/2/20 52/1/28 53/1/20
f 43/1/29 113/2/2 114/2/29
f 113/2/2 43/1/29 45/1/2
f 110/2/30 38/1/5 108/2/5
f 38/1/5 110/2/30 51/1/30
f 87/2/21 51/1/30 110/2/30
f 51/1/30 87/2/21 56/1/21
f 46/1/27 111/2/28 112/2/27
f 111/2/28 46/1/27 52/1/28
f 41/1/26 114/2/29 115/2/26
f 114/2/29 41/1/26 43/1/29
f 141/5/2 140/5/2 139/5/2
f 140/5/2 141/5/2 142/5/2
f 145/6/1 144/6/1 143/6/1
f 144/6/1 145/6/1 146/6/1
f 147/8/6 144/6/6 105/7/6
f 102/9/6 144/6/6 147/8/6
f 101/10/6 144/6/6 102/9/6
f 99/11/6 144/6/6 101/10/6
f 98/12/6 144/6/6 99/11/6
f 97/13/6 144/6/6 98/12/6
f 96/12/6 144/6/6 97/13/6
f 105/7/6 144/6/6 148/14/6
f 95/11/6 144/6/6 96/12/6
f 139/5/6 148/14/6 144/6/6
f 139/5/6 149/14/6 148/14/6
f 95/11/6 143/6/6 144/6/6
f 140/5/6 149/14/6 139/5/6
f 149/14/6 140/5/6 88/7/6
f 140/5/6 150/8/6 88/7/6
f 143/6/6 150/8/6 140/5/6
f 94/10/6 143/6/6 95/11/6
f 150/8/6 143/6/6 92/9/6
f 92/9/6 143/6/6 94/10/6
f 146/6/4 152/9/4 151/8/4
f 146/6/4 153/10/4 152/9/4
f 146/6/4 154/11/4 153/10/4
f 146/6/4 155/12/4 154/11/4
f 146/6/4 156/13/4 155/12/4
f 146/6/4 157/12/4 156/13/4
f 146/6/4 151/8/4 158/7/4
f 146/6/4 159/11/4 157/12/4
f 146/6/4 158/7/4 141/5/4
f 160/14/4 141/5/4 158/7/4
f 145/6/4 159/11/4 146/6/4
f 161/14/4 141/5/4 160/14/4
f 161/14/4 142/5/4 141/5/4
f 142/5/4 161/14/4 145/6/4
f 159/11/4 145/6/4 162/10/4
f 163/7/4 145/6/4 161/14/4
f 162/10/4 145/6/4 164/9/4
f 165/8/4 145/6/4 163/7/4
f 164/9/4 145/6/4 165/8/4

g wall-window-round




usemtl colormap

f 3/1/1 2/1/1 1/1/1
f 2/1/1 3/1/1 4/1/1
f 7/2/2 6/2/2 5/2/2
f 6/2/2 7/2/2 8/2/2
f 3/1/3 6/2/3 8/2/3
f 6/2/3 3/1/3 1/1/3
f 7/2/4 3/1/4 8/2/4
f 3/1/4 7/2/4 4/1/4
f 2/1/5 7/2/5 5/2/5
f 7/2/5 2/1/5 4/1/5
f 2/1/6 6/2/6 1/1/6
f 6/2/6 2/1/6 5/2/6
f 11/1/1 10/1/1 9/1/1
f 10/1/1 11/1/1 12/1/1
f 15/2/2 14/2/2 13/2/2
f 14/2/2 15/2/2 16/2/2
f 11/1/3 14/2/3 16/2/3
f 14/2/3 11/1/3 9/1/3
f 15/2/4 11/1/4 16/2/4
f 11/1/4 15/2/4 12/1/4
f 10/1/5 15/2/5 13/2/5
f 15/2/5 10/1/5 12/1/5
f 10/1/6 14/2/6 9/1/6
f 14/2/6 10/1/6 13/2/6
f 19/3/7 18/2/8 17/2/7
f 18/2/8 19/3/7 20/3/8
f 23/2/10 22/3/9 21/2/9
f 22/3/9 23/2/10 24/3/10
f 27/1/11 26/4/1 25/4/11
f 26/4/1 27/1/11 28/1/1
f 31/1/4 30/1/4 29/1/4
f 32/1/4 30/1/4 31/1/4
f 33/1/4 30/1/4 32/1/4
f 34/1/4 30/1/4 33/1/4
f 33/1/4 35/1/4 34/1/4
f 36/1/4 30/1/4 34/1/4
f 37/1/4 35/1/4 33/1/4
f 38/1/4 30/1/4 36/1/4
f 37/1/4 39/1/4 35/1/4
f 37/1/4 40/1/4 39/1/4
f 37/1/4 41/1/4 40/1/4
f 42/1/4 41/1/4 37/1/4
f 42/1/4 43/1/4 41/1/4
f 38/1/4 44/1/4 30/1/4
f 28/1/4 43/1/4 42/1/4
f 28/1/4 45/1/4 43/1/4
f 28/1/4 46/1/4 45/1/4
f 44/1/4 38/1/4 47/1/4
f 27/1/4 46/1/4 28/1/4
f 47/1/4 38/1/4 48/1/4
f 48/1/4 38/1/4 49/1/4
f 49/1/4 38/1/4 50/1/4
f 51/1/4 50/1/4 38/1/4
f 27/1/4 52/1/4 46/1/4
f 27/1/4 53/1/4 52/1/4
f 27/1/4 54/1/4 53/1/4
f 50/1/4 51/1/4 55/1/4
f 55/1/4 54/1/4 27/1/4
f 55/1/4 51/1/4 56/1/4
f 55/1/4 56/1/4 54/1/4
f 58/4/13 55/1/12 57/4/12
f 55/1/12 58/4/13 50/1/13
f 61/3/12 60/2/11 59/2/12
f 60/2/11 61/3/12 62/3/11
f 55/1/12 25/4/11 57/4/12
f 25/4/11 55/1/12 27/1/11
f 37/1/14 64/4/15 63/4/14
f 64/4/15 37/1/14 33/1/15
f 66/4/16 31/1/10 65/4/10
f 31/1/10 66/4/16 32/1/16
f 49/1/17 67/4/8 48/1/8
f 67/4/8 49/1/17 68/4/17
f 50/1/13 68/4/17 49/1/17
f 68/4/17 50/1/13 58/4/13
f 71/3/1 70/2/18 69/2/1
f 70/2/18 71/3/1 72/3/18
f 75/3/17 74/2/13 73/2/17
f 74/2/13 75/3/17 76/3/13
f 30/1/2 78/4/2 77/4/2
f 78/4/2 30/1/2 44/1/2
f 44/1/3 79/4/7 78/4/3
f 79/4/7 44/1/3 47/1/7
f 82/3/14 81/2/15 80/2/14
f 81/2/15 82/3/14 83/3/15
f 85/2/20 54/1/19 84/2/19
f 54/1/19 85/2/20 53/1/20
f 76/3/13 59/2/12 74/2/13
f 59/2/12 76/3/13 61/3/12
f 28/1/1 86/4/18 26/4/1
f 86/4/18 28/1/1 42/1/18
f 72/3/18 80/2/14 70/2/18
f 80/2/14 72/3/18 82/3/14
f 20/3/8 73/2/17 18/2/8
f 73/2/17 20/3/8 75/3/17
f 84/2/19 56/1/21 87/2/21
f 56/1/21 84/2/19 54/1/19
f 90/3/6 89/3/6 88/3/6
f 89/3/6 90/3/6 91/3/6
f 91/3/6 90/3/6 92/3/6
f 89/3/6 91/3/6 93/3/6
f 91/3/6 92/3/6 19/3/6
f 94/3/6 19/3/6 92/3/6
f 19/3/6 94/3/6 20/3/6
f 20/3/6 94/3/6 95/3/6
f 20/3/6 95/3/6 75/3/6
f 75/3/6 95/3/6 76/3/6
f 76/3/6 95/3/6 96/3/6
f 76/3/6 96/3/6 61/3/6
f 61/3/6 96/3/6 62/3/6
f 62/3/6 96/3/6 97/3/6
f 62/3/6 97/3/6 71/3/6
f 71/3/6 97/3/6 98/3/6
f 71/3/6 98/3/6 72/3/6
f 72/3/6 98/3/6 82/3/6
f 82/3/6 98/3/6 99/3/6
f 82/3/6 99/3/6 83/3/6
f 83/3/6 99/3/6 100/3/6
f 100/3/6 99/3/6 101/3/6
f 100/3/6 101/3/6 24/3/6
f 24/3/6 101/3/6 22/3/6
f 22/3/6 101/3/6 102/3/6
f 22/3/6 102/3/6 103/3/6
f 93/3/6 103/3/6 102/3/6
f 93/3/6 91/3/6 103/3/6
f 93/3/6 102/3/6 104/3/6
f 93/3/6 104/3/6 105/3/6
f 93/3/6 105/3/6 106/3/6
f 18/2/6 107/2/6 17/2/6
f 107/2/6 18/2/6 108/2/6
f 108/2/6 18/2/6 73/2/6
f 108/2/6 73/2/6 74/2/6
f 107/2/6 108/2/6 109/2/6
f 108/2/6 74/2/6 110/2/6
f 59/2/6 110/2/6 74/2/6
f 110/2/6 59/2/6 87/2/6
f 87/2/6 59/2/6 84/2/6
f 84/2/6 59/2/6 60/2/6
f 84/2/6 60/2/6 85/2/6
f 85/2/6 60/2/6 111/2/6
f 111/2/6 60/2/6 112/2/6
f 112/2/6 60/2/6 69/2/6
f 112/2/6 69/2/6 113/2/6
f 113/2/6 69/2/6 114/2/6
f 114/2/6 69/2/6 70/2/6
f 114/2/6 70/2/6 115/2/6
f 115/2/6 70/2/6 80/2/6
f 115/2/6 80/2/6 116/2/6
f 116/2/6 80/2/6 117/2/6
f 117/2/6 80/2/6 118/2/6
f 118/2/6 80/2/6 81/2/6
f 118/2/6 81/2/6 119/2/6
f 119/2/6 81/2/6 120/2/6
f 109/2/6 120/2/6 81/2/6
f 109/2/6 108/2/6 120/2/6
f 109/2/6 81/2/6 121/2/6
f 109/2/6 121/2/6 23/2/6
f 109/2/6 23/2/6 21/2/6
f 91/3/3 17/2/7 107/2/3
f 17/2/7 91/3/3 19/3/7
f 103/3/2 107/2/2 109/2/2
f 107/2/2 103/3/2 91/3/2
f 81/2/15 100/3/16 121/2/16
f 100/3/16 81/2/15 83/3/15
f 121/2/16 24/3/10 23/2/10
f 24/3/10 121/2/16 100/3/16
f 65/4/10 29/1/9 122/4/9
f 29/1/9 65/4/10 31/1/10
f 48/1/8 79/4/7 47/1/7
f 79/4/7 48/1/8 67/4/8
f 42/1/18 63/4/14 86/4/18
f 63/4/14 42/1/18 37/1/14
f 64/4/15 32/1/16 66/4/16
f 32/1/16 64/4/15 33/1/15
f 21/2/9 103/3/5 109/2/5
f 103/3/5 21/2/9 22/3/9
f 125/4/4 124/4/4 123/4/4
f 126/4/4 124/4/4 125/4/4
f 127/4/4 124/4/4 126/4/4
f 122/4/4 124/4/4 127/4/4
f 128/4/4 122/4/4 127/4/4
f 77/4/4 124/4/4 122/4/4
f 128/4/4 65/4/4 122/4/4
f 128/4/4 66/4/4 65/4/4
f 78/4/4 124/4/4 77/4/4
f 129/4/4 66/4/4 128/4/4
f 129/4/4 64/4/4 66/4/4
f 129/4/4 63/4/4 64/4/4
f 78/4/4 130/4/4 124/4/4
f 131/4/4 63/4/4 129/4/4
f 131/4/4 86/4/4 63/4/4
f 131/4/4 26/4/4 86/4/4
f 132/4/4 26/4/4 131/4/4
f 132/4/4 25/4/4 26/4/4
f 130/4/4 78/4/4 133/4/4
f 133/4/4 78/4/4 134/4/4
f 134/4/4 78/4/4 135/4/4
f 79/4/4 135/4/4 78/4/4
f 135/4/4 79/4/4 136/4/4
f 136/4/4 79/4/4 67/4/4
f 137/4/4 25/4/4 132/4/4
f 137/4/4 57/4/4 25/4/4
f 137/4/4 58/4/4 57/4/4
f 136/4/4 67/4/4 138/4/4
f 138/4/4 58/4/4 137/4/4
f 138/4/4 67/4/4 68/4/4
f 138/4/4 68/4/4 58/4/4
f 35/1/22 117/2/23 118/2/22
f 117/2/23 35/1/22 39/1/23
f 39/1/23 116/2/24 117/2/23
f 116/2/24 39/1/23 40/1/24
f 122/4/9 30/1/5 77/4/5
f 30/1/5 122/4/9 29/1/9
f 62/3/11 69/2/1 60/2/11
f 69/2/1 62/3/11 71/3/1
f 38/1/1 120/2/1 108/2/1
f 120/2/1 38/1/1 36/1/1
f 34/1/25 118/2/22 119/2/25
f 118/2/22 34/1/25 35/1/22
f 40/1/24 115/2/26 116/2/24
f 115/2/26 40/1/24 41/1/26
f 45/1/2 112/2/27 113/2/2
f 112/2/27 45/1/2 46/1/27
f 36/1/3 119/2/25 120/2/3
f 119/2/25 36/1/3 34/1/25
f 52/1/28 85/2/20 111/2/28
f 85/2/20 52/1/28 53/1/20
f 43/1/29 113/2/2 114/2/29
f 113/2/2 43/1/29 45/1/2
f 110/2/30 38/1/5 108/2/5
f 38/1/5 110/2/30 51/1/30
f 87/2/21 51/1/30 110/2/30
f 51/1/30 87/2/21 56/1/21
f 46/1/27 111/2/28 112/2/27
f 111/2/28 46/1/27 52/1/28
f 41/1/26 114/2/29 115/2/26
f 114/2/29 41/1/26 43/1/29
f 141/5/2 140/5/2 139/5/2
f 140/5/2 141/5/2 142/5/2
f 145/6/1 144/6/1 143/6/1
f 144/6/1 145/6/1 146/6/1
f 147/8/6 144/6/6 105/7/6
f 102/9/6 144/6/6 147/8/6
f 101/10/6 144/6/6 102/9/6
f 99/11/6 144/6/6 101/10/6
f 98/12/6 144/6/6 99/11/6
f 97/13/6 144/6/6 98/12/6
f 96/12/6 144/6/6 97/13/6
f 105/7/6 144/6/6 148/14/6
f 95/11/6 144/6/6 96/12/6
f 139/5/6 148/14/6 144/6/6
f 139/5/6 149/14/6 148/14/6
f 95/11/6 143/6/6 144/6/6
f 140/5/6 149/14/6 139/5/6
f 149/14/6 140/5/6 88/7/6
f 140/5/6 150/8/6 88/7/6
f 143/6/6 150/8/6 140/5/6
f 94/10/6 143/6/6 95/11/6
f 150/8/6 143/6/6 92/9/6
f 92/9/6 143/6/6 94/10/6
f 146/6/4 152/9/4 151/8/4
f 146/6/4 153/10/4 152/9/4
f 146/6/4 154/11/4 153/10/4
f 146/6/4 155/12/4 154/11/4
f 146/6/4 156/13/4 155/12/4
f 146/6/4 157/12/4 156/13/4
f 146/6/4 151/8/4 158/7/4
f 146/6/4 159/11/4 157/12/4
f 146/6/4 158/7/4 141/5/4
f 160/14/4 141/5/4 158/7/4
f 145/6/4 159/11/4 146/6/4
f 161/14/4 141/5/4 160/14/4
f 161/14/4 142/5/4 141/5/4
f 142/5/4 161/14/4 145/6/4
f 159/11/4 145/6/4 162/10/4
f 163/7/4 145/6/4 161/14/4
f 162/10/4 145/6/4 164/9/4
f 165/8/4 145/6/4 163/7/4
f 164/9/4 145/6/4 165/8/4

