# Created by Kenney (www.kenney.nl)

mtllib wall-wood-window-stone.mtl

g wall-wood-window-stone

v 0.5 1 -0.5 1 1 1
v 0.5 1 -0.4 1 1 1
v 0.4 1 -0.5 1 1 1
v 0.4 1 -0.4 1 1 1
v 0.5 0 -0.4 1 1 1
v 0.5 0 -0.5 1 1 1
v 0.4 0 -0.4 1 1 1
v 0.4 0 -0.5 1 1 1
v 0.5 1 0.4 1 1 1
v 0.5 1 0.5 1 1 1
v 0.4 1 0.4 1 1 1
v 0.4 1 0.5 1 1 1
v 0.5 0 0.5 1 1 1
v 0.5 0 0.4 1 1 1
v 0.4 0 0.5 1 1 1
v 0.4 0 0.4 1 1 1
v 0.465 0.39 -0.06 1 1 1
v 0.465 0.36 -0.06 1 1 1
v 0.465 0.39 0.06 1 1 1
v 0.465 0.36 0.06 1 1 1
v 0.435 0.36 -0.06 1 1 1
v 0.435 0.39 -0.06 1 1 1
v 0.435 0.36 0.06 1 1 1
v 0.435 0.39 0.06 1 1 1
v 0.465 0.515 0.06 1 1 1
v 0.435 0.515 0.06 1 1 1
v 0.465 0.515 -0.06 1 1 1
v 0.435 0.515 -0.06 1 1 1
v 0.465 0.61 0.06 1 1 1
v 0.465 0.61 -0.06 1 1 1
v 0.435 0.61 0.06 1 1 1
v 0.435 0.61 -0.06 1 1 1
v 0.465 0.64 0.06 1 1 1
v 0.435 0.64 0.06 1 1 1
v 0.465 0.64 -0.06 1 1 1
v 0.435 0.64 -0.06 1 1 1
v 0.465 0.485 -0.06 1 1 1
v 0.465 0.485 0.06 1 1 1
v 0.435 0.485 0.06 1 1 1
v 0.435 0.485 -0.06 1 1 1
v 0.475 0 0.4 1 1 1
v 0.475 0 -0.4 1 1 1
v 0.425 0 0.4 1 1 1
v 0.425 0 -0.4 1 1 1
v 0.475 1 -0.4 1 1 1
v 0.475 1 0.4 1 1 1
v 0.425 1 -0.4 1 1 1
v 0.425 1 0.4 1 1 1
v 0.475 0.75 0.11 1 1 1
v 0.475 0.75 -0.11 1 1 1
v 0.475 0.25 0.11 1 1 1
v 0.475 0.25 -0.11 1 1 1
v 0.425 0.25 0.11 1 1 1
v 0.425 0.25 -0.11 1 1 1
v 0.425 0.75 0.11 1 1 1
v 0.425 0.75 -0.11 1 1 1
v 0.5 0.575 0.16 1 1 1
v 0.4 0.575 0.16 1 1 1
v 0.5 0.575 0.11 1 1 1
v 0.4 0.575 0.11 1 1 1
v 0.4 0.425 -0.16 1 1 1
v 0.4 0.575 -0.16 1 1 1
v 0.4 0.425 -0.11 1 1 1
v 0.4 0.575 -0.11 1 1 1
v 0.5 0.2 0.055 1 1 1
v 0.5 0.2 -0.055 1 1 1
v 0.4 0.2 0.055 1 1 1
v 0.4 0.2 -0.055 1 1 1
v 0.5 0.425 -0.11 1 1 1
v 0.5 0.425 -0.16 1 1 1
v 0.5 0.75 0.055 1 1 1
v 0.4 0.75 0.055 1 1 1
v 0.5 0.8 0.055 1 1 1
v 0.4 0.8 0.055 1 1 1
v 0.4 0.425 0.11 1 1 1
v 0.4 0.425 0.16 1 1 1
v 0.5 0.575 -0.16 1 1 1
v 0.5 0.575 -0.11 1 1 1
v 0.4 0.25 -0.055 1 1 1
v 0.5 0.25 -0.055 1 1 1
v 0.5 0.8 -0.055 1 1 1
v 0.5 0.75 -0.055 1 1 1
v 0.4 0.8 -0.055 1 1 1
v 0.5 0.425 0.16 1 1 1
v 0.5 0.425 0.11 1 1 1
v 0.4 0.25 0.055 1 1 1
v 0.4 0.75 -0.055 1 1 1
v 0.525 0.3 0.06 1 1 1
v 0.375 0.3 0.06 1 1 1
v 0.525 0.3 -0.06 1 1 1
v 0.375 0.3 -0.06 1 1 1
v 0.525 0.7 0.06 1 1 1
v 0.525 0.7 -0.06 1 1 1
v 0.375 0.7 0.06 1 1 1
v 0.375 0.7 -0.06 1 1 1
v 0.5 0.25 0.055 1 1 1
v 0.425 0.75 -0.055 1 1 1
v 0.375 0.75 0.11 1 1 1
v 0.525 0.75 0.11 1 1 1
v 0.525 0.75 -0.11 1 1 1
v 0.375 0.75 -0.11 1 1 1
v 0.375 0.25 0.11 1 1 1
v 0.375 0.25 -0.11 1 1 1
v 0.525 0.25 0.11 1 1 1
v 0.525 0.25 -0.11 1 1 1

vn 0 1 0
vn 0 -1 0
vn 0 0 -1
vn -1 0 0
vn 0 0 1
vn 1 0 0
vn -0.7071068 0 -0.7071068
vn 0.7071068 -0.7071068 0
vn -0.7071068 -0.7071068 0
vn -0.7071068 0 0.7071068
vn 0.7071068 0 -0.7071068
vn 0.7071068 0.7071068 0
vn -0.7071068 0.7071068 0
vn 0.7071068 0 0.7071068

vt 0.59375 0.175
vt 0.59375 0.075
vt 0.71875 0.115
vt 0.71875 0.135
vt 0.71875 0.075
vt 0.71875 0.175
vt 0.71875 0.15
vt 0.71875 0.1
vt 0.96875 0.09166666
vt 0.96875 0.1583333
vt 0.96875 0.075
vt 0.96875 0.175
vt 0.96875 0.1416667
vt 0.96875 0.115
vt 0.96875 0.135

usemtl colormap

f 3/1/1 2/1/1 1/1/1
f 2/1/1 3/1/1 4/1/1
f 7/2/2 6/2/2 5/2/2
f 6/2/2 7/2/2 8/2/2
f 3/1/3 6/2/3 8/2/3
f 6/2/3 3/1/3 1/1/3
f 7/2/4 3/1/4 8/2/4
f 3/1/4 7/2/4 4/1/4
f 2/1/5 7/2/5 5/2/5
f 7/2/5 2/1/5 4/1/5
f 2/1/6 6/2/6 1/1/6
f 6/2/6 2/1/6 5/2/6
f 11/1/1 10/1/1 9/1/1
f 10/1/1 11/1/1 12/1/1
f 15/2/2 14/2/2 13/2/2
f 14/2/2 15/2/2 16/2/2
f 11/1/3 14/2/3 16/2/3
f 14/2/3 11/1/3 9/1/3
f 15/2/4 11/1/4 16/2/4
f 11/1/4 15/2/4 12/1/4
f 10/1/5 15/2/5 13/2/5
f 15/2/5 10/1/5 12/1/5
f 10/1/6 14/2/6 9/1/6
f 14/2/6 10/1/6 13/2/6
f 19/3/6 18/3/6 17/3/6
f 18/3/6 19/3/6 20/3/6
f 23/4/4 22/4/4 21/4/4
f 22/4/4 23/4/4 24/4/4
f 27/3/1 26/4/1 25/3/1
f 26/4/1 27/3/1 28/4/1
f 31/4/2 30/3/2 29/3/2
f 30/3/2 31/4/2 32/4/2
f 23/4/2 18/3/2 20/3/2
f 18/3/2 23/4/2 21/4/2
f 17/3/1 24/4/1 19/3/1
f 24/4/1 17/3/1 22/4/1
f 35/3/1 34/4/1 33/3/1
f 34/4/1 35/3/1 36/4/1
f 31/4/4 36/4/4 32/4/4
f 36/4/4 31/4/4 34/4/4
f 33/3/6 30/3/6 35/3/6
f 30/3/6 33/3/6 29/3/6
f 25/3/6 37/3/6 27/3/6
f 37/3/6 25/3/6 38/3/6
f 39/4/2 37/3/2 38/3/2
f 37/3/2 39/4/2 40/4/2
f 39/4/4 28/4/4 40/4/4
f 28/4/4 39/4/4 26/4/4
f 43/5/2 42/5/2 41/5/2
f 42/5/2 43/5/2 44/5/2
f 47/6/1 46/6/1 45/6/1
f 46/6/1 47/6/1 48/6/1
f 50/7/6 46/6/6 49/7/6
f 49/7/6 46/6/6 51/8/6
f 50/7/6 45/6/6 46/6/6
f 41/5/6 51/8/6 46/6/6
f 45/6/6 50/7/6 42/5/6
f 41/5/6 52/8/6 51/8/6
f 42/5/6 52/8/6 41/5/6
f 52/8/6 42/5/6 50/7/6
f 54/8/4 43/5/4 53/8/4
f 53/8/4 43/5/4 55/7/4
f 54/8/4 44/5/4 43/5/4
f 48/6/4 55/7/4 43/5/4
f 44/5/4 54/8/4 47/6/4
f 48/6/4 56/7/4 55/7/4
f 47/6/4 56/7/4 48/6/4
f 56/7/4 47/6/4 54/8/4
f 59/9/1 58/10/1 57/9/1
f 58/10/1 59/9/1 60/10/1
f 63/10/4 62/10/7 61/10/7
f 62/10/7 63/10/4 64/10/4
f 67/10/9 66/9/8 65/9/8
f 66/9/8 67/10/9 68/10/9
f 63/10/2 70/9/2 69/9/2
f 70/9/2 63/10/2 61/10/2
f 73/9/5 72/10/5 71/9/5
f 72/10/5 73/9/5 74/10/5
f 76/10/10 60/10/4 75/10/4
f 60/10/4 76/10/10 58/10/10
f 78/9/6 70/9/11 77/9/11
f 70/9/11 78/9/6 69/9/6
f 79/10/3 66/9/3 68/10/3
f 66/9/3 79/10/3 80/9/3
f 73/9/12 82/9/6 81/9/12
f 82/9/6 73/9/12 71/9/6
f 62/10/7 70/9/11 61/10/7
f 70/9/11 62/10/7 77/9/11
f 81/9/12 74/10/13 73/9/12
f 74/10/13 81/9/12 83/10/13
f 76/10/2 85/9/2 84/9/2
f 85/9/2 76/10/2 75/10/2
f 57/9/14 85/9/6 59/9/6
f 85/9/6 57/9/14 84/9/14
f 67/10/9 79/10/4 68/10/9
f 79/10/4 67/10/9 86/10/4
f 72/10/4 83/10/13 87/10/4
f 83/10/13 72/10/4 74/10/13
f 57/9/14 76/10/10 84/9/14
f 76/10/10 57/9/14 58/10/10
f 90/11/1 89/12/1 88/11/1
f 89/12/1 90/11/1 91/12/1
f 94/12/2 93/11/2 92/11/2
f 93/11/2 94/12/2 95/12/2
f 96/9/5 67/10/5 65/9/5
f 67/10/5 96/9/5 86/10/5
f 77/9/1 64/10/1 78/9/1
f 64/10/1 77/9/1 62/10/1
f 96/9/6 66/9/8 80/9/6
f 66/9/8 96/9/6 65/9/8
f 83/10/3 97/13/3 87/10/3
f 97/13/3 83/10/3 82/9/3
f 82/9/3 83/10/3 81/9/3
f 99/11/1 71/9/1 98/12/1
f 71/9/1 99/11/1 100/11/1
f 98/12/1 71/9/1 72/10/1
f 100/11/1 82/9/1 71/9/1
f 98/12/1 72/10/1 101/12/1
f 82/9/1 100/11/1 101/12/1
f 87/10/1 101/12/1 72/10/1
f 82/9/1 101/12/1 97/13/1
f 97/13/1 101/12/1 87/10/1
f 91/12/4 102/12/4 89/12/4
f 89/12/4 102/12/4 94/12/4
f 91/12/4 103/12/4 102/12/4
f 98/12/4 94/12/4 102/12/4
f 103/12/4 91/12/4 101/12/4
f 98/12/4 95/12/4 94/12/4
f 101/12/4 95/12/4 98/12/4
f 95/12/4 101/12/4 91/12/4
f 93/11/6 99/11/6 92/11/6
f 92/11/6 99/11/6 88/11/6
f 93/11/6 100/11/6 99/11/6
f 104/11/6 88/11/6 99/11/6
f 100/11/6 93/11/6 105/11/6
f 104/11/6 90/11/6 88/11/6
f 105/11/6 90/11/6 104/11/6
f 90/11/6 105/11/6 93/11/6
f 63/10/3 101/12/3 64/10/3
f 64/10/3 101/12/3 78/9/3
f 63/10/3 103/12/3 101/12/3
f 100/11/3 78/9/3 101/12/3
f 103/12/3 63/10/3 105/11/3
f 100/11/3 69/9/3 78/9/3
f 105/11/3 69/9/3 100/11/3
f 69/9/3 105/11/3 63/10/3
f 85/9/5 99/11/5 59/9/5
f 59/9/5 99/11/5 60/10/5
f 85/9/5 104/11/5 99/11/5
f 98/12/5 60/10/5 99/11/5
f 104/11/5 85/9/5 102/12/5
f 98/12/5 75/10/5 60/10/5
f 102/12/5 75/10/5 98/12/5
f 75/10/5 102/12/5 85/9/5
f 30/14/5 93/11/5 35/14/5
f 35/14/5 93/11/5 36/15/5
f 28/15/5 93/11/5 30/14/5
f 32/15/5 28/15/5 30/14/5
f 95/12/5 32/15/5 36/15/5
f 95/12/5 28/15/5 32/15/5
f 95/12/5 36/15/5 93/11/5
f 27/14/5 93/11/5 28/15/5
f 95/12/5 40/15/5 28/15/5
f 37/14/5 93/11/5 27/14/5
f 95/12/5 22/15/5 40/15/5
f 40/15/5 22/15/5 37/14/5
f 95/12/5 21/15/5 22/15/5
f 17/14/5 37/14/5 22/15/5
f 17/14/5 93/11/5 37/14/5
f 91/12/5 21/15/5 95/12/5
f 18/14/5 93/11/5 17/14/5
f 21/15/5 91/12/5 18/14/5
f 18/14/5 90/11/5 93/11/5
f 90/11/5 18/14/5 91/12/5
f 31/15/3 94/12/3 34/15/3
f 34/15/3 94/12/3 33/14/3
f 25/14/3 94/12/3 31/15/3
f 29/14/3 25/14/3 31/15/3
f 92/11/3 29/14/3 33/14/3
f 92/11/3 25/14/3 29/14/3
f 92/11/3 33/14/3 94/12/3
f 26/15/3 94/12/3 25/14/3
f 92/11/3 38/14/3 25/14/3
f 39/15/3 94/12/3 26/15/3
f 92/11/3 19/14/3 38/14/3
f 38/14/3 19/14/3 39/15/3
f 92/11/3 20/14/3 19/14/3
f 24/15/3 39/15/3 19/14/3
f 24/15/3 94/12/3 39/15/3
f 88/11/3 20/14/3 92/11/3
f 23/15/3 94/12/3 24/15/3
f 20/14/3 88/11/3 23/15/3
f 23/15/3 89/12/3 94/12/3
f 89/12/3 23/15/3 88/11/3
f 96/9/2 102/12/2 86/10/2
f 86/10/2 102/12/2 79/10/2
f 96/9/2 104/11/2 102/12/2
f 103/12/2 79/10/2 102/12/2
f 104/11/2 96/9/2 105/11/2
f 103/12/2 80/9/2 79/10/2
f 105/11/2 80/9/2 103/12/2
f 80/9/2 105/11/2 96/9/2

g wall-wood-window-stone




usemtl colormap

f 3/1/1 2/1/1 1/1/1
f 2/1/1 3/1/1 4/1/1
f 7/2/2 6/2/2 5/2/2
f 6/2/2 7/2/2 8/2/2
f 3/1/3 6/2/3 8/2/3
f 6/2/3 3/1/3 1/1/3
f 7/2/4 3/1/4 8/2/4
f 3/1/4 7/2/4 4/1/4
f 2/1/5 7/2/5 5/2/5
f 7/2/5 2/1/5 4/1/5
f 2/1/6 6/2/6 1/1/6
f 6/2/6 2/1/6 5/2/6
f 11/1/1 10/1/1 9/1/1
f 10/1/1 11/1/1 12/1/1
f 15/2/2 14/2/2 13/2/2
f 14/2/2 15/2/2 16/2/2
f 11/1/3 14/2/3 16/2/3
f 14/2/3 11/1/3 9/1/3
f 15/2/4 11/1/4 16/2/4
f 11/1/4 15/2/4 12/1/4
f 10/1/5 15/2/5 13/2/5
f 15/2/5 10/1/5 12/1/5
f 10/1/6 14/2/6 9/1/6
f 14/2/6 10/1/6 13/2/6
f 19/3/6 18/3/6 17/3/6
f 18/3/6 19/3/6 20/3/6
f 23/4/4 22/4/4 21/4/4
f 22/4/4 23/4/4 24/4/4
f 27/3/1 26/4/1 25/3/1
f 26/4/1 27/3/1 28/4/1
f 31/4/2 30/3/2 29/3/2
f 30/3/2 31/4/2 32/4/2
f 23/4/2 18/3/2 20/3/2
f 18/3/2 23/4/2 21/4/2
f 17/3/1 24/4/1 19/3/1
f 24/4/1 17/3/1 22/4/1
f 35/3/1 34/4/1 33/3/1
f 34/4/1 35/3/1 36/4/1
f 31/4/4 36/4/4 32/4/4
f 36/4/4 31/4/4 34/4/4
f 33/3/6 30/3/6 35/3/6
f 30/3/6 33/3/6 29/3/6
f 25/3/6 37/3/6 27/3/6
f 37/3/6 25/3/6 38/3/6
f 39/4/2 37/3/2 38/3/2
f 37/3/2 39/4/2 40/4/2
f 39/4/4 28/4/4 40/4/4
f 28/4/4 39/4/4 26/4/4
f 43/5/2 42/5/2 41/5/2
f 42/5/2 43/5/2 44/5/2
f 47/6/1 46/6/1 45/6/1
f 46/6/1 47/6/1 48/6/1
f 50/7/6 46/6/6 49/7/6
f 49/7/6 46/6/6 51/8/6
f 50/7/6 45/6/6 46/6/6
f 41/5/6 51/8/6 46/6/6
f 45/6/6 50/7/6 42/5/6
f 41/5/6 52/8/6 51/8/6
f 42/5/6 52/8/6 41/5/6
f 52/8/6 42/5/6 50/7/6
f 54/8/4 43/5/4 53/8/4
f 53/8/4 43/5/4 55/7/4
f 54/8/4 44/5/4 43/5/4
f 48/6/4 55/7/4 43/5/4
f 44/5/4 54/8/4 47/6/4
f 48/6/4 56/7/4 55/7/4
f 47/6/4 56/7/4 48/6/4
f 56/7/4 47/6/4 54/8/4
f 59/9/1 58/10/1 57/9/1
f 58/10/1 59/9/1 60/10/1
f 63/10/4 62/10/7 61/10/7
f 62/10/7 63/10/4 64/10/4
f 67/10/9 66/9/8 65/9/8
f 66/9/8 67/10/9 68/10/9
f 63/10/2 70/9/2 69/9/2
f 70/9/2 63/10/2 61/10/2
f 73/9/5 72/10/5 71/9/5
f 72/10/5 73/9/5 74/10/5
f 76/10/10 60/10/4 75/10/4
f 60/10/4 76/10/10 58/10/10
f 78/9/6 70/9/11 77/9/11
f 70/9/11 78/9/6 69/9/6
f 79/10/3 66/9/3 68/10/3
f 66/9/3 79/10/3 80/9/3
f 73/9/12 82/9/6 81/9/12
f 82/9/6 73/9/12 71/9/6
f 62/10/7 70/9/11 61/10/7
f 70/9/11 62/10/7 77/9/11
f 81/9/12 74/10/13 73/9/12
f 74/10/13 81/9/12 83/10/13
f 76/10/2 85/9/2 84/9/2
f 85/9/2 76/10/2 75/10/2
f 57/9/14 85/9/6 59/9/6
f 85/9/6 57/9/14 84/9/14
f 67/10/9 79/10/4 68/10/9
f 79/10/4 67/10/9 86/10/4
f 72/10/4 83/10/13 87/10/4
f 83/10/13 72/10/4 74/10/13
f 57/9/14 76/10/10 84/9/14
f 76/10/10 57/9/14 58/10/10
f 90/11/1 89/12/1 88/11/1
f 89/12/1 90/11/1 91/12/1
f 94/12/2 93/11/2 92/11/2
f 93/11/2 94/12/2 95/12/2
f 96/9/5 67/10/5 65/9/5
f 67/10/5 96/9/5 86/10/5
f 77/9/1 64/10/1 78/9/1
f 64/10/1 77/9/1 62/10/1
f 96/9/6 66/9/8 80/9/6
f 66/9/8 96/9/6 65/9/8
f 83/10/3 97/13/3 87/10/3
f 97/13/3 83/10/3 82/9/3
f 82/9/3 83/10/3 81/9/3
f 99/11/1 71/9/1 98/12/1
f 71/9/1 99/11/1 100/11/1
f 98/12/1 71/9/1 72/10/1
f 100/11/1 82/9/1 71/9/1
f 98/12/1 72/10/1 101/12/1
f 82/9/1 100/11/1 101/12/1
f 87/10/1 101/12/1 72/10/1
f 82/9/1 101/12/1 97/13/1
f 97/13/1 101/12/1 87/10/1
f 91/12/4 102/12/4 89/12/4
f 89/12/4 102/12/4 94/12/4
f 91/12/4 103/12/4 102/12/4
f 98/12/4 94/12/4 102/12/4
f 103/12/4 91/12/4 101/12/4
f 98/12/4 95/12/4 94/12/4
f 101/12/4 95/12/4 98/12/4
f 95/12/4 101/12/4 91/12/4
f 93/11/6 99/11/6 92/11/6
f 92/11/6 99/11/6 88/11/6
f 93/11/6 100/11/6 99/11/6
f 104/11/6 88/11/6 99/11/6
f 100/11/6 93/11/6 105/11/6
f 104/11/6 90/11/6 88/11/6
f 105/11/6 90/11/6 104/11/6
f 90/11/6 105/11/6 93/11/6
f 63/10/3 101/12/3 64/10/3
f 64/10/3 101/12/3 78/9/3
f 63/10/3 103/12/3 101/12/3
f 100/11/3 78/9/3 101/12/3
f 103/12/3 63/10/3 105/11/3
f 100/11/3 69/9/3 78/9/3
f 105/11/3 69/9/3 100/11/3
f 69/9/3 105/11/3 63/10/3
f 85/9/5 99/11/5 59/9/5
f 59/9/5 99/11/5 60/10/5
f 85/9/5 104/11/5 99/11/5
f 98/12/5 60/10/5 99/11/5
f 104/11/5 85/9/5 102/12/5
f 98/12/5 75/10/5 60/10/5
f 102/12/5 75/10/5 98/12/5
f 75/10/5 102/12/5 85/9/5
f 30/14/5 93/11/5 35/14/5
f 35/14/5 93/11/5 36/15/5
f 28/15/5 93/11/5 30/14/5
f 32/15/5 28/15/5 30/14/5
f 95/12/5 32/15/5 36/15/5
f 95/12/5 28/15/5 32/15/5
f 95/12/5 36/15/5 93/11/5
f 27/14/5 93/11/5 28/15/5
f 95/12/5 40/15/5 28/15/5
f 37/14/5 93/11/5 27/14/5
f 95/12/5 22/15/5 40/15/5
f 40/15/5 22/15/5 37/14/5
f 95/12/5 21/15/5 22/15/5
f 17/14/5 37/14/5 22/15/5
f 17/14/5 93/11/5 37/14/5
f 91/12/5 21/15/5 95/12/5
f 18/14/5 93/11/5 17/14/5
f 21/15/5 91/12/5 18/14/5
f 18/14/5 90/11/5 93/11/5
f 90/11/5 18/14/5 91/12/5
f 31/15/3 94/12/3 34/15/3
f 34/15/3 94/12/3 33/14/3
f 25/14/3 94/12/3 31/15/3
f 29/14/3 25/14/3 31/15/3
f 92/11/3 29/14/3 33/14/3
f 92/11/3 25/14/3 29/14/3
f 92/11/3 33/14/3 94/12/3
f 26/15/3 94/12/3 25/14/3
f 92/11/3 38/14/3 25/14/3
f 39/15/3 94/12/3 26/15/3
f 92/11/3 19/14/3 38/14/3
f 38/14/3 19/14/3 39/15/3
f 92/11/3 20/14/3 19/14/3
f 24/15/3 39/15/3 19/14/3
f 24/15/3 94/12/3 39/15/3
f 88/11/3 20/14/3 92/11/3
f 23/15/3 94/12/3 24/15/3
f 20/14/3 88/11/3 23/15/3
f 23/15/3 89/12/3 94/12/3
f 89/12/3 23/15/3 88/11/3
f 96/9/2 102/12/2 86/10/2
f 86/10/2 102/12/2 79/10/2
f 96/9/2 104/11/2 102/12/2
f 103/12/2 79/10/2 102/12/2
f 104/11/2 96/9/2 105/11/2
f 103/12/2 80/9/2 79/10/2
f 105/11/2 80/9/2 103/12/2
f 80/9/2 105/11/2 96/9/2

