# Created by Kenney (www.kenney.nl)

mtllib wall-wood-window-glass.mtl

g wall-wood-window-glass

v 0.5 1 -0.5 1 1 1
v 0.5 1 -0.4 1 1 1
v 0.4 1 -0.5 1 1 1
v 0.4 1 -0.4 1 1 1
v 0.5 0 -0.4 1 1 1
v 0.5 0 -0.5 1 1 1
v 0.4 0 -0.4 1 1 1
v 0.4 0 -0.5 1 1 1
v 0.5 1 0.4 1 1 1
v 0.5 1 0.5 1 1 1
v 0.4 1 0.4 1 1 1
v 0.4 1 0.5 1 1 1
v 0.5 0 0.5 1 1 1
v 0.5 0 0.4 1 1 1
v 0.4 0 0.5 1 1 1
v 0.4 0 0.4 1 1 1
v 0.5 0.7 0.1 1 1 1
v 0.5 0.7 -0.1 1 1 1
v 0.4 0.7 0.1 1 1 1
v 0.4 0.7 -0.1 1 1 1
v 0.5 0.75 -0.15 1 1 1
v 0.5 0.75 0.15 1 1 1
v 0.475 0.75 -0.15 1 1 1
v 0.475 0.75 0.15 1 1 1
v 0.4 0.3 -0.1 1 1 1
v 0.5 0.3 -0.1 1 1 1
v 0.425 0.25 0.15 1 1 1
v 0.4 0.25 0.15 1 1 1
v 0.425 0.75 0.15 1 1 1
v 0.4 0.75 0.15 1 1 1
v 0.425 0.25 -0.15 1 1 1
v 0.4 0.25 -0.15 1 1 1
v 0.4 0.3 0.1 1 1 1
v 0.5 0.3 0.1 1 1 1
v 0.5 0.25 0.15 1 1 1
v 0.5 0.25 -0.15 1 1 1
v 0.475 0.25 0.15 1 1 1
v 0.475 0.25 -0.15 1 1 1
v 0.425 0.75 -0.15 1 1 1
v 0.4 0.75 -0.15 1 1 1
v 0.475 0.25 0.2 1 1 1
v 0.475 0.8 0.2 1 1 1
v 0.475 0.2 0.2 1 1 1
v 0.475 0.2 -0.2 1 1 1
v 0.475 0.8 -0.2 1 1 1
v 0.425 0.25 0.2 1 1 1
v 0.425 0.2 0.2 1 1 1
v 0.425 0.8 0.2 1 1 1
v 0.425 0.8 -0.2 1 1 1
v 0.425 0.2 -0.2 1 1 1
v 0.475 0.475 0.1 1 1 1
v 0.475 0.475 -0.1 1 1 1
v 0.425 0.475 0.1 1 1 1
v 0.425 0.475 -0.1 1 1 1
v 0.425 0.525 -0.1 1 1 1
v 0.425 0.525 0.1 1 1 1
v 0.475 0.525 -0.1 1 1 1
v 0.475 0.525 0.1 1 1 1
v 0.475 0 0.4 1 1 1
v 0.475 0 -0.4 1 1 1
v 0.425 0 0.4 1 1 1
v 0.425 0 -0.4 1 1 1
v 0.475 1 -0.4 1 1 1
v 0.475 1 0.4 1 1 1
v 0.425 1 -0.4 1 1 1
v 0.425 1 0.4 1 1 1

vn 0 1 0
vn 0 -1 0
vn 0 0 -1
vn -1 0 0
vn 0 0 1
vn 1 0 0
vn 0 0.7071068 -0.7071068
vn 0 0.7071068 0.7071068
vn 0 -0.7071068 0.7071068
vn 0 -0.7071068 -0.7071068

vt 0.59375 0.175
vt 0.59375 0.075
vt 0.59375 0.1583333
vt 0.59375 0.1666667
vt 0.59375 0.09166666
vt 0.59375 0.08333333
vt 0.59375 0.025
vt 0.59375 0.225
vt 0.71875 0.075
vt 0.71875 0.175
vt 0.71875 0.095
vt 0.71875 0.155
vt 0.71875 0.1

usemtl colormap

f 3/1/1 2/1/1 1/1/1
f 2/1/1 3/1/1 4/1/1
f 7/2/2 6/2/2 5/2/2
f 6/2/2 7/2/2 8/2/2
f 3/1/3 6/2/3 8/2/3
f 6/2/3 3/1/3 1/1/3
f 7/2/4 3/1/4 8/2/4
f 3/1/4 7/2/4 4/1/4
f 2/1/5 7/2/5 5/2/5
f 7/2/5 2/1/5 4/1/5
f 2/1/6 6/2/6 1/1/6
f 6/2/6 2/1/6 5/2/6
f 11/1/1 10/1/1 9/1/1
f 10/1/1 11/1/1 12/1/1
f 15/2/2 14/2/2 13/2/2
f 14/2/2 15/2/2 16/2/2
f 11/1/3 14/2/3 16/2/3
f 14/2/3 11/1/3 9/1/3
f 15/2/4 11/1/4 16/2/4
f 11/1/4 15/2/4 12/1/4
f 10/1/5 15/2/5 13/2/5
f 15/2/5 10/1/5 12/1/5
f 10/1/6 14/2/6 9/1/6
f 14/2/6 10/1/6 13/2/6
f 19/3/2 18/3/2 17/3/2
f 18/3/2 19/3/2 20/3/2
f 23/4/7 22/4/8 21/4/7
f 22/4/8 23/4/7 24/4/8
f 26/5/5 20/3/5 25/5/5
f 20/3/5 26/5/5 18/3/5
f 29/4/8 28/6/9 27/6/9
f 28/6/9 29/4/8 30/4/8
f 28/6/9 31/6/10 27/6/9
f 31/6/10 28/6/9 32/6/10
f 19/3/3 34/5/3 33/5/3
f 34/5/3 19/3/3 17/3/3
f 37/6/9 36/6/10 35/6/9
f 36/6/10 37/6/9 38/6/10
f 32/6/10 39/4/7 31/6/10
f 39/4/7 32/6/10 40/4/7
f 40/4/7 29/4/8 39/4/7
f 29/4/8 40/4/7 30/4/8
f 35/6/9 24/4/8 37/6/9
f 24/4/8 35/6/9 22/4/8
f 23/4/7 36/6/10 38/6/10
f 36/6/10 23/4/7 21/4/7
f 25/5/1 34/5/1 26/5/1
f 34/5/1 25/5/1 33/5/1
f 43/2/6 42/1/6 41/6/6
f 43/2/6 37/6/6 42/1/6
f 24/4/6 42/1/6 37/6/6
f 43/2/6 38/6/6 37/6/6
f 44/2/6 38/6/6 43/2/6
f 23/4/6 42/1/6 24/4/6
f 38/6/6 44/2/6 23/4/6
f 23/4/6 45/1/6 42/1/6
f 45/1/6 23/4/6 44/2/6
f 48/1/4 47/2/4 46/6/4
f 48/1/4 29/4/4 47/2/4
f 27/6/4 47/2/4 29/4/4
f 48/1/4 39/4/4 29/4/4
f 49/1/4 39/4/4 48/1/4
f 31/6/4 47/2/4 27/6/4
f 39/4/4 49/1/4 31/6/4
f 31/6/4 50/2/4 47/2/4
f 50/2/4 31/6/4 49/1/4
f 18/3/6 22/4/6 17/3/6
f 17/3/6 22/4/6 34/5/6
f 18/3/6 21/4/6 22/4/6
f 35/6/6 34/5/6 22/4/6
f 21/4/6 18/3/6 36/6/6
f 35/6/6 26/5/6 34/5/6
f 36/6/6 26/5/6 35/6/6
f 26/5/6 36/6/6 18/3/6
f 25/5/4 28/6/4 33/5/4
f 33/5/4 28/6/4 19/3/4
f 25/5/4 32/6/4 28/6/4
f 30/4/4 19/3/4 28/6/4
f 32/6/4 25/5/4 40/4/4
f 30/4/4 20/3/4 19/3/4
f 40/4/4 20/3/4 30/4/4
f 20/3/4 40/4/4 25/5/4
f 53/7/2 52/7/2 51/7/2
f 52/7/2 53/7/2 54/7/2
f 54/7/4 56/8/4 55/8/4
f 56/8/4 54/7/4 53/7/4
f 55/8/1 58/8/1 57/8/1
f 58/8/1 55/8/1 56/8/1
f 58/8/6 52/7/6 57/8/6
f 52/7/6 58/8/6 51/7/6
f 61/9/2 60/9/2 59/9/2
f 60/9/2 61/9/2 62/9/2
f 65/10/1 64/10/1 63/10/1
f 64/10/1 65/10/1 66/10/1
f 45/12/5 50/11/5 44/11/5
f 50/11/5 45/12/5 49/12/5
f 48/12/2 45/12/2 42/12/2
f 45/12/2 48/12/2 49/12/2
f 41/13/3 48/12/3 42/12/3
f 48/12/3 41/13/3 46/13/3
f 43/11/3 46/13/3 41/13/3
f 46/13/3 43/11/3 47/11/3
f 50/11/1 43/11/1 44/11/1
f 43/11/1 50/11/1 47/11/1
f 42/12/6 64/10/6 41/13/6
f 41/13/6 64/10/6 43/11/6
f 45/12/6 64/10/6 42/12/6
f 59/9/6 43/11/6 64/10/6
f 45/12/6 63/10/6 64/10/6
f 59/9/6 44/11/6 43/11/6
f 63/10/6 45/12/6 60/9/6
f 60/9/6 44/11/6 59/9/6
f 44/11/6 60/9/6 45/12/6
f 47/11/4 61/9/4 46/13/4
f 46/13/4 61/9/4 48/12/4
f 50/11/4 61/9/4 47/11/4
f 66/10/4 48/12/4 61/9/4
f 50/11/4 62/9/4 61/9/4
f 66/10/4 49/12/4 48/12/4
f 62/9/4 50/11/4 65/10/4
f 65/10/4 49/12/4 66/10/4
f 49/12/4 65/10/4 50/11/4

g wall-wood-window-glass




usemtl colormap

f 3/1/1 2/1/1 1/1/1
f 2/1/1 3/1/1 4/1/1
f 7/2/2 6/2/2 5/2/2
f 6/2/2 7/2/2 8/2/2
f 3/1/3 6/2/3 8/2/3
f 6/2/3 3/1/3 1/1/3
f 7/2/4 3/1/4 8/2/4
f 3/1/4 7/2/4 4/1/4
f 2/1/5 7/2/5 5/2/5
f 7/2/5 2/1/5 4/1/5
f 2/1/6 6/2/6 1/1/6
f 6/2/6 2/1/6 5/2/6
f 11/1/1 10/1/1 9/1/1
f 10/1/1 11/1/1 12/1/1
f 15/2/2 14/2/2 13/2/2
f 14/2/2 15/2/2 16/2/2
f 11/1/3 14/2/3 16/2/3
f 14/2/3 11/1/3 9/1/3
f 15/2/4 11/1/4 16/2/4
f 11/1/4 15/2/4 12/1/4
f 10/1/5 15/2/5 13/2/5
f 15/2/5 10/1/5 12/1/5
f 10/1/6 14/2/6 9/1/6
f 14/2/6 10/1/6 13/2/6
f 19/3/2 18/3/2 17/3/2
f 18/3/2 19/3/2 20/3/2
f 23/4/7 22/4/8 21/4/7
f 22/4/8 23/4/7 24/4/8
f 26/5/5 20/3/5 25/5/5
f 20/3/5 26/5/5 18/3/5
f 29/4/8 28/6/9 27/6/9
f 28/6/9 29/4/8 30/4/8
f 28/6/9 31/6/10 27/6/9
f 31/6/10 28/6/9 32/6/10
f 19/3/3 34/5/3 33/5/3
f 34/5/3 19/3/3 17/3/3
f 37/6/9 36/6/10 35/6/9
f 36/6/10 37/6/9 38/6/10
f 32/6/10 39/4/7 31/6/10
f 39/4/7 32/6/10 40/4/7
f 40/4/7 29/4/8 39/4/7
f 29/4/8 40/4/7 30/4/8
f 35/6/9 24/4/8 37/6/9
f 24/4/8 35/6/9 22/4/8
f 23/4/7 36/6/10 38/6/10
f 36/6/10 23/4/7 21/4/7
f 25/5/1 34/5/1 26/5/1
f 34/5/1 25/5/1 33/5/1
f 43/2/6 42/1/6 41/6/6
f 43/2/6 37/6/6 42/1/6
f 24/4/6 42/1/6 37/6/6
f 43/2/6 38/6/6 37/6/6
f 44/2/6 38/6/6 43/2/6
f 23/4/6 42/1/6 24/4/6
f 38/6/6 44/2/6 23/4/6
f 23/4/6 45/1/6 42/1/6
f 45/1/6 23/4/6 44/2/6
f 48/1/4 47/2/4 46/6/4
f 48/1/4 29/4/4 47/2/4
f 27/6/4 47/2/4 29/4/4
f 48/1/4 39/4/4 29/4/4
f 49/1/4 39/4/4 48/1/4
f 31/6/4 47/2/4 27/6/4
f 39/4/4 49/1/4 31/6/4
f 31/6/4 50/2/4 47/2/4
f 50/2/4 31/6/4 49/1/4
f 18/3/6 22/4/6 17/3/6
f 17/3/6 22/4/6 34/5/6
f 18/3/6 21/4/6 22/4/6
f 35/6/6 34/5/6 22/4/6
f 21/4/6 18/3/6 36/6/6
f 35/6/6 26/5/6 34/5/6
f 36/6/6 26/5/6 35/6/6
f 26/5/6 36/6/6 18/3/6
f 25/5/4 28/6/4 33/5/4
f 33/5/4 28/6/4 19/3/4
f 25/5/4 32/6/4 28/6/4
f 30/4/4 19/3/4 28/6/4
f 32/6/4 25/5/4 40/4/4
f 30/4/4 20/3/4 19/3/4
f 40/4/4 20/3/4 30/4/4
f 20/3/4 40/4/4 25/5/4
f 53/7/2 52/7/2 51/7/2
f 52/7/2 53/7/2 54/7/2
f 54/7/4 56/8/4 55/8/4
f 56/8/4 54/7/4 53/7/4
f 55/8/1 58/8/1 57/8/1
f 58/8/1 55/8/1 56/8/1
f 58/8/6 52/7/6 57/8/6
f 52/7/6 58/8/6 51/7/6
f 61/9/2 60/9/2 59/9/2
f 60/9/2 61/9/2 62/9/2
f 65/10/1 64/10/1 63/10/1
f 64/10/1 65/10/1 66/10/1
f 45/12/5 50/11/5 44/11/5
f 50/11/5 45/12/5 49/12/5
f 48/12/2 45/12/2 42/12/2
f 45/12/2 48/12/2 49/12/2
f 41/13/3 48/12/3 42/12/3
f 48/12/3 41/13/3 46/13/3
f 43/11/3 46/13/3 41/13/3
f 46/13/3 43/11/3 47/11/3
f 50/11/1 43/11/1 44/11/1
f 43/11/1 50/11/1 47/11/1
f 42/12/6 64/10/6 41/13/6
f 41/13/6 64/10/6 43/11/6
f 45/12/6 64/10/6 42/12/6
f 59/9/6 43/11/6 64/10/6
f 45/12/6 63/10/6 64/10/6
f 59/9/6 44/11/6 43/11/6
f 63/10/6 45/12/6 60/9/6
f 60/9/6 44/11/6 59/9/6
f 44/11/6 60/9/6 45/12/6
f 47/11/4 61/9/4 46/13/4
f 46/13/4 61/9/4 48/12/4
f 50/11/4 61/9/4 47/11/4
f 66/10/4 48/12/4 61/9/4
f 50/11/4 62/9/4 61/9/4
f 66/10/4 49/12/4 48/12/4
f 62/9/4 50/11/4 65/10/4
f 65/10/4 49/12/4 66/10/4
f 49/12/4 65/10/4 50/11/4

