# Created by Kenney (www.kenney.nl)

mtllib wall-broken.mtl

g wall-broken

v 0.4890483 0.3016667 -0.1782734 1 1 1
v 0.440752 0.3016667 -0.1653325 1 1 1
v 0.4592479 0.3016667 -0.2894899 1 1 1
v 0.4109517 0.3016667 -0.2765489 1 1 1
v 0.495 0.7183334 0.1472989 1 1 1
v 0.4467037 0.7183334 0.1602398 1 1 1
v 0.4651996 0.7183334 0.03608245 1 1 1
v 0.4169033 0.7183334 0.0490234 1 1 1
v 0.5143374 0.4683333 -0.1446156 1 1 1
v 0.4329213 0.4683333 -0.06319948 1 1 1
v 0.478982 0.4683333 -0.1799709 1 1 1
v 0.397566 0.4683333 -0.09855482 1 1 1
v 0.5143374 0.4166667 -0.1446156 1 1 1
v 0.478982 0.4166667 -0.1799709 1 1 1
v 0.4329213 0.4166667 -0.06319948 1 1 1
v 0.397566 0.4166667 -0.09855482 1 1 1
v 0.4890483 0.25 -0.1782734 1 1 1
v 0.4592479 0.25 -0.2894899 1 1 1
v 0.440752 0.25 -0.1653325 1 1 1
v 0.4109517 0.25 -0.2765489 1 1 1
v 0.495 0.6666666 0.1472989 1 1 1
v 0.4651996 0.6666666 0.03608245 1 1 1
v 0.4467037 0.6666666 0.1602398 1 1 1
v 0.4169033 0.6666666 0.0490234 1 1 1
v 0.425 0 -0.5 1 1 1
v 0.425 0.08333334 -0.5 1 1 1
v 0.425 0 0.4 1 1 1
v 0.425 0.08333334 -0.425 1 1 1
v 0.425 0.1666667 -0.425 1 1 1
v 0.425 0.1666667 -0.35 1 1 1
v 0.425 0.25 -0.35 1 1 1
v 0.425 0.25 -0.08486027 1 1 1
v 0.425 0.3333333 -0.08486027 1 1 1
v 0.425 0.4166667 -0.05000001 1 1 1
v 0.425 0.4977836 -0.05000001 1 1 1
v 0.425 0.4166667 -0.2 1 1 1
v 0.425 0.3333333 -0.2 1 1 1
v 0.425 0.4977836 0.00999999 1 1 1
v 0.425 0.5948657 0.00999999 1 1 1
v 0.425 0.6666667 0.175 1 1 1
v 0.425 0.6666667 -0.05000001 1 1 1
v 0.425 0.5948657 -0.05000001 1 1 1
v 0.425 0.75 0.175 1 1 1
v 0.425 0.75 0.325 1 1 1
v 0.425 0.9166666 0.325 1 1 1
v 0.425 0.9166666 0.4 1 1 1
v 0.475 0.1666667 -0.425 1 1 1
v 0.475 0.08333334 -0.425 1 1 1
v 0.475 0.1666667 -0.35 1 1 1
v 0.475 -1.798887E-17 0.4 1 1 1
v 0.475 0.08333334 -0.5 1 1 1
v 0.475 -1.798887E-17 -0.5 1 1 1
v 0.475 0.25 -0.08486027 1 1 1
v 0.475 0.25 -0.35 1 1 1
v 0.475 0.4166667 -0.05000001 1 1 1
v 0.475 0.3333333 -0.08486027 1 1 1
v 0.475 0.3333333 -0.2 1 1 1
v 0.475 0.4166667 -0.2 1 1 1
v 0.475 0.4977836 0.00999999 1 1 1
v 0.475 0.4977836 -0.05000001 1 1 1
v 0.475 0.6666667 0.175 1 1 1
v 0.475 0.5948657 0.00999999 1 1 1
v 0.475 0.5948657 -0.05000001 1 1 1
v 0.475 0.6666667 -0.05000001 1 1 1
v 0.475 0.75 0.325 1 1 1
v 0.475 0.75 0.175 1 1 1
v 0.475 0.9166666 0.4 1 1 1
v 0.475 0.9166666 0.325 1 1 1
v 0.5 1 0.4 1 1 1
v 0.5 1 0.5 1 1 1
v 0.4 1 0.4 1 1 1
v 0.4 1 0.5 1 1 1
v 0.5 0 0.5 1 1 1
v 0.5 0 0.4 1 1 1
v 0.4 0 0.5 1 1 1
v 0.4 0 0.4 1 1 1

vn 0 1 0
vn 0 -1 0
vn -0.7071068 0 -0.7071068
vn 0.7071068 0 0.7071068
vn -0.7071068 0 0.7071068
vn 0.7071068 0 -0.7071068
vn -0.9659258 0 0.258819
vn 0.9659258 0 -0.258819
vn 0.258819 0 0.9659258
vn -0.258819 0 -0.9659258
vn -1 0 0
vn 1 0 0
vn 0 0 -1
vn 0 0 1

vt 0.21875 0.2970641
vt 0.21875 0.475
vt 0.21875 0.3682384
vt 0.21875 0.3461744
vt 0.21875 0.275
vt 0.21875 0.4529359
vt 0.21875 0.325
vt 0.21875 0.3340909
vt 0.21875 0.3431818
vt 0.21875 0.3522727
vt 0.21875 0.3613636
vt 0.21875 0.3704545
vt 0.21875 0.3793037
vt 0.21875 0.3898944
vt 0.21875 0.3977273
vt 0.21875 0.4068182
vt 0.21875 0.425
vt 0.59375 0.175
vt 0.59375 0.075

usemtl colormap

f 3/1/1 2/1/1 1/1/1
f 2/1/1 3/1/1 4/1/1
f 1/1/2 2/1/2 3/1/2
f 4/1/2 3/1/2 2/1/2
f 7/2/1 6/2/1 5/2/1
f 6/2/1 7/2/1 8/2/1
f 5/2/2 6/2/2 7/2/2
f 8/2/2 7/2/2 6/2/2
f 11/3/1 10/3/1 9/3/1
f 10/3/1 11/3/1 12/3/1
f 9/3/2 10/3/2 11/3/2
f 12/3/2 11/3/2 10/3/2
f 15/4/2 14/4/2 13/4/2
f 14/4/2 15/4/2 16/4/2
f 13/4/1 14/4/1 15/4/1
f 16/4/1 15/4/1 14/4/1
f 16/4/3 11/3/3 14/4/3
f 11/3/3 16/4/3 12/3/3
f 14/4/4 11/3/4 16/4/4
f 12/3/4 16/4/4 11/3/4
f 10/3/5 16/4/5 15/4/5
f 16/4/5 10/3/5 12/3/5
f 15/4/6 16/4/6 10/3/6
f 12/3/6 10/3/6 16/4/6
f 10/3/4 13/4/4 9/3/4
f 13/4/4 10/3/4 15/4/4
f 9/3/3 13/4/3 10/3/3
f 15/4/3 10/3/3 13/4/3
f 11/3/6 13/4/6 14/4/6
f 13/4/6 11/3/6 9/3/6
f 14/4/5 13/4/5 11/3/5
f 9/3/5 11/3/5 13/4/5
f 19/5/2 18/5/2 17/5/2
f 18/5/2 19/5/2 20/5/2
f 17/5/1 18/5/1 19/5/1
f 20/5/1 19/5/1 18/5/1
f 19/5/7 4/1/7 20/5/7
f 4/1/7 19/5/7 2/1/7
f 20/5/8 4/1/8 19/5/8
f 2/1/8 19/5/8 4/1/8
f 1/1/9 19/5/9 17/5/9
f 19/5/9 1/1/9 2/1/9
f 17/5/10 19/5/10 1/1/10
f 2/1/10 1/1/10 19/5/10
f 1/1/8 18/5/8 3/1/8
f 18/5/8 1/1/8 17/5/8
f 3/1/7 18/5/7 1/1/7
f 17/5/7 1/1/7 18/5/7
f 4/1/10 18/5/10 20/5/10
f 18/5/10 4/1/10 3/1/10
f 20/5/9 18/5/9 4/1/9
f 3/1/9 4/1/9 18/5/9
f 23/6/2 22/6/2 21/6/2
f 22/6/2 23/6/2 24/6/2
f 21/6/1 22/6/1 23/6/1
f 24/6/1 23/6/1 22/6/1
f 23/6/7 8/2/7 24/6/7
f 8/2/7 23/6/7 6/2/7
f 24/6/8 8/2/8 23/6/8
f 6/2/8 23/6/8 8/2/8
f 5/2/9 23/6/9 21/6/9
f 23/6/9 5/2/9 6/2/9
f 21/6/10 23/6/10 5/2/10
f 6/2/10 5/2/10 23/6/10
f 5/2/8 22/6/8 7/2/8
f 22/6/8 5/2/8 21/6/8
f 7/2/7 22/6/7 5/2/7
f 21/6/7 5/2/7 22/6/7
f 8/2/10 22/6/10 24/6/10
f 22/6/10 8/2/10 7/2/10
f 24/6/9 22/6/9 8/2/9
f 7/2/9 8/2/9 22/6/9
f 27/7/11 26/8/11 25/7/11
f 26/8/11 27/7/11 28/8/11
f 28/8/11 27/7/11 29/9/11
f 29/9/11 27/7/11 30/9/11
f 30/9/11 27/7/11 31/10/11
f 31/10/11 27/7/11 32/10/11
f 32/10/11 27/7/11 33/11/11
f 33/11/11 27/7/11 34/12/11
f 34/12/11 27/7/11 35/13/11
f 36/12/11 33/11/11 34/12/11
f 33/11/11 36/12/11 37/11/11
f 35/13/11 27/7/11 38/13/11
f 38/13/11 27/7/11 39/14/11
f 39/14/11 27/7/11 40/15/11
f 41/15/11 39/14/11 40/15/11
f 39/14/11 41/15/11 42/14/11
f 40/15/11 27/7/11 43/16/11
f 43/16/11 27/7/11 44/16/11
f 44/16/11 27/7/11 45/17/11
f 45/17/11 27/7/11 46/17/11
f 49/9/12 48/8/12 47/9/12
f 50/7/12 48/8/12 49/9/12
f 50/7/12 51/8/12 48/8/12
f 51/8/12 50/7/12 52/7/12
f 50/7/12 49/9/12 53/10/12
f 53/10/12 49/9/12 54/10/12
f 50/7/12 53/10/12 55/12/12
f 56/11/12 55/12/12 53/10/12
f 57/11/12 55/12/12 56/11/12
f 55/12/12 57/11/12 58/12/12
f 50/7/12 55/12/12 59/13/12
f 59/13/12 55/12/12 60/13/12
f 50/7/12 59/13/12 61/15/12
f 62/14/12 61/15/12 59/13/12
f 63/14/12 61/15/12 62/14/12
f 61/15/12 63/14/12 64/15/12
f 50/7/12 61/15/12 65/16/12
f 65/16/12 61/15/12 66/16/12
f 65/16/12 67/17/12 50/7/12
f 67/17/12 65/16/12 68/17/12
f 33/11/2 57/11/2 56/11/2
f 57/11/2 33/11/2 37/11/2
f 33/11/13 53/10/13 32/10/13
f 53/10/13 33/11/13 56/11/13
f 31/10/1 53/10/1 54/10/1
f 53/10/1 31/10/1 32/10/1
f 30/9/13 54/10/13 49/9/13
f 54/10/13 30/9/13 31/10/13
f 29/9/1 49/9/1 47/9/1
f 49/9/1 29/9/1 30/9/1
f 28/8/13 47/9/13 48/8/13
f 47/9/13 28/8/13 29/9/13
f 26/8/1 48/8/1 51/8/1
f 48/8/1 26/8/1 28/8/1
f 25/7/13 51/8/13 52/7/13
f 51/8/13 25/7/13 26/8/13
f 27/7/2 52/7/2 50/7/2
f 52/7/2 27/7/2 25/7/2
f 45/17/1 67/17/1 68/17/1
f 67/17/1 45/17/1 46/17/1
f 45/17/13 65/16/13 44/16/13
f 65/16/13 45/17/13 68/17/13
f 43/16/1 65/16/1 66/16/1
f 65/16/1 43/16/1 44/16/1
f 43/16/13 61/15/13 40/15/13
f 61/15/13 43/16/13 66/16/13
f 41/15/1 61/15/1 64/15/1
f 61/15/1 41/15/1 40/15/1
f 41/15/13 63/14/13 42/14/13
f 63/14/13 41/15/13 64/15/13
f 39/14/2 63/14/2 62/14/2
f 63/14/2 39/14/2 42/14/2
f 39/14/13 59/13/13 38/13/13
f 59/13/13 39/14/13 62/14/13
f 35/13/1 59/13/1 60/13/1
f 59/13/1 35/13/1 38/13/1
f 35/13/13 55/12/13 34/12/13
f 55/12/13 35/13/13 60/13/13
f 36/12/1 55/12/1 58/12/1
f 55/12/1 36/12/1 34/12/1
f 36/12/13 57/11/13 37/11/13
f 57/11/13 36/12/13 58/12/13
f 71/18/1 70/18/1 69/18/1
f 70/18/1 71/18/1 72/18/1
f 75/19/2 74/19/2 73/19/2
f 74/19/2 75/19/2 76/19/2
f 71/18/13 74/19/13 76/19/13
f 74/19/13 71/18/13 69/18/13
f 75/19/11 71/18/11 76/19/11
f 71/18/11 75/19/11 72/18/11
f 70/18/14 75/19/14 73/19/14
f 75/19/14 70/18/14 72/18/14
f 70/18/12 74/19/12 69/18/12
f 74/19/12 70/18/12 73/19/12

g wall-broken




usemtl colormap

f 3/1/1 2/1/1 1/1/1
f 2/1/1 3/1/1 4/1/1
f 1/1/2 2/1/2 3/1/2
f 4/1/2 3/1/2 2/1/2
f 7/2/1 6/2/1 5/2/1
f 6/2/1 7/2/1 8/2/1
f 5/2/2 6/2/2 7/2/2
f 8/2/2 7/2/2 6/2/2
f 11/3/1 10/3/1 9/3/1
f 10/3/1 11/3/1 12/3/1
f 9/3/2 10/3/2 11/3/2
f 12/3/2 11/3/2 10/3/2
f 15/4/2 14/4/2 13/4/2
f 14/4/2 15/4/2 16/4/2
f 13/4/1 14/4/1 15/4/1
f 16/4/1 15/4/1 14/4/1
f 16/4/3 11/3/3 14/4/3
f 11/3/3 16/4/3 12/3/3
f 14/4/4 11/3/4 16/4/4
f 12/3/4 16/4/4 11/3/4
f 10/3/5 16/4/5 15/4/5
f 16/4/5 10/3/5 12/3/5
f 15/4/6 16/4/6 10/3/6
f 12/3/6 10/3/6 16/4/6
f 10/3/4 13/4/4 9/3/4
f 13/4/4 10/3/4 15/4/4
f 9/3/3 13/4/3 10/3/3
f 15/4/3 10/3/3 13/4/3
f 11/3/6 13/4/6 14/4/6
f 13/4/6 11/3/6 9/3/6
f 14/4/5 13/4/5 11/3/5
f 9/3/5 11/3/5 13/4/5
f 19/5/2 18/5/2 17/5/2
f 18/5/2 19/5/2 20/5/2
f 17/5/1 18/5/1 19/5/1
f 20/5/1 19/5/1 18/5/1
f 19/5/7 4/1/7 20/5/7
f 4/1/7 19/5/7 2/1/7
f 20/5/8 4/1/8 19/5/8
f 2/1/8 19/5/8 4/1/8
f 1/1/9 19/5/9 17/5/9
f 19/5/9 1/1/9 2/1/9
f 17/5/10 19/5/10 1/1/10
f 2/1/10 1/1/10 19/5/10
f 1/1/8 18/5/8 3/1/8
f 18/5/8 1/1/8 17/5/8
f 3/1/7 18/5/7 1/1/7
f 17/5/7 1/1/7 18/5/7
f 4/1/10 18/5/10 20/5/10
f 18/5/10 4/1/10 3/1/10
f 20/5/9 18/5/9 4/1/9
f 3/1/9 4/1/9 18/5/9
f 23/6/2 22/6/2 21/6/2
f 22/6/2 23/6/2 24/6/2
f 21/6/1 22/6/1 23/6/1
f 24/6/1 23/6/1 22/6/1
f 23/6/7 8/2/7 24/6/7
f 8/2/7 23/6/7 6/2/7
f 24/6/8 8/2/8 23/6/8
f 6/2/8 23/6/8 8/2/8
f 5/2/9 23/6/9 21/6/9
f 23/6/9 5/2/9 6/2/9
f 21/6/10 23/6/10 5/2/10
f 6/2/10 5/2/10 23/6/10
f 5/2/8 22/6/8 7/2/8
f 22/6/8 5/2/8 21/6/8
f 7/2/7 22/6/7 5/2/7
f 21/6/7 5/2/7 22/6/7
f 8/2/10 22/6/10 24/6/10
f 22/6/10 8/2/10 7/2/10
f 24/6/9 22/6/9 8/2/9
f 7/2/9 8/2/9 22/6/9
f 27/7/11 26/8/11 25/7/11
f 26/8/11 27/7/11 28/8/11
f 28/8/11 27/7/11 29/9/11
f 29/9/11 27/7/11 30/9/11
f 30/9/11 27/7/11 31/10/11
f 31/10/11 27/7/11 32/10/11
f 32/10/11 27/7/11 33/11/11
f 33/11/11 27/7/11 34/12/11
f 34/12/11 27/7/11 35/13/11
f 36/12/11 33/11/11 34/12/11
f 33/11/11 36/12/11 37/11/11
f 35/13/11 27/7/11 38/13/11
f 38/13/11 27/7/11 39/14/11
f 39/14/11 27/7/11 40/15/11
f 41/15/11 39/14/11 40/15/11
f 39/14/11 41/15/11 42/14/11
f 40/15/11 27/7/11 43/16/11
f 43/16/11 27/7/11 44/16/11
f 44/16/11 27/7/11 45/17/11
f 45/17/11 27/7/11 46/17/11
f 49/9/12 48/8/12 47/9/12
f 50/7/12 48/8/12 49/9/12
f 50/7/12 51/8/12 48/8/12
f 51/8/12 50/7/12 52/7/12
f 50/7/12 49/9/12 53/10/12
f 53/10/12 49/9/12 54/10/12
f 50/7/12 53/10/12 55/12/12
f 56/11/12 55/12/12 53/10/12
f 57/11/12 55/12/12 56/11/12
f 55/12/12 57/11/12 58/12/12
f 50/7/12 55/12/12 59/13/12
f 59/13/12 55/12/12 60/13/12
f 50/7/12 59/13/12 61/15/12
f 62/14/12 61/15/12 59/13/12
f 63/14/12 61/15/12 62/14/12
f 61/15/12 63/14/12 64/15/12
f 50/7/12 61/15/12 65/16/12
f 65/16/12 61/15/12 66/16/12
f 65/16/12 67/17/12 50/7/12
f 67/17/12 65/16/12 68/17/12
f 33/11/2 57/11/2 56/11/2
f 57/11/2 33/11/2 37/11/2
f 33/11/13 53/10/13 32/10/13
f 53/10/13 33/11/13 56/11/13
f 31/10/1 53/10/1 54/10/1
f 53/10/1 31/10/1 32/10/1
f 30/9/13 54/10/13 49/9/13
f 54/10/13 30/9/13 31/10/13
f 29/9/1 49/9/1 47/9/1
f 49/9/1 29/9/1 30/9/1
f 28/8/13 47/9/13 48/8/13
f 47/9/13 28/8/13 29/9/13
f 26/8/1 48/8/1 51/8/1
f 48/8/1 26/8/1 28/8/1
f 25/7/13 51/8/13 52/7/13
f 51/8/13 25/7/13 26/8/13
f 27/7/2 52/7/2 50/7/2
f 52/7/2 27/7/2 25/7/2
f 45/17/1 67/17/1 68/17/1
f 67/17/1 45/17/1 46/17/1
f 45/17/13 65/16/13 44/16/13
f 65/16/13 45/17/13 68/17/13
f 43/16/1 65/16/1 66/16/1
f 65/16/1 43/16/1 44/16/1
f 43/16/13 61/15/13 40/15/13
f 61/15/13 43/16/13 66/16/13
f 41/15/1 61/15/1 64/15/1
f 61/15/1 41/15/1 40/15/1
f 41/15/13 63/14/13 42/14/13
f 63/14/13 41/15/13 64/15/13
f 39/14/2 63/14/2 62/14/2
f 63/14/2 39/14/2 42/14/2
f 39/14/13 59/13/13 38/13/13
f 59/13/13 39/14/13 62/14/13
f 35/13/1 59/13/1 60/13/1
f 59/13/1 35/13/1 38/13/1
f 35/13/13 55/12/13 34/12/13
f 55/12/13 35/13/13 60/13/13
f 36/12/1 55/12/1 58/12/1
f 55/12/1 36/12/1 34/12/1
f 36/12/13 57/11/13 37/11/13
f 57/11/13 36/12/13 58/12/13
f 71/18/1 70/18/1 69/18/1
f 70/18/1 71/18/1 72/18/1
f 75/19/2 74/19/2 73/19/2
f 74/19/2 75/19/2 76/19/2
f 71/18/13 74/19/13 76/19/13
f 74/19/13 71/18/13 69/18/13
f 75/19/11 71/18/11 76/19/11
f 71/18/11 75/19/11 72/18/11
f 70/18/14 75/19/14 73/19/14
f 75/19/14 70/18/14 72/18/14
f 70/18/12 74/19/12 69/18/12
f 74/19/12 70/18/12 73/19/12

