# Created by Kenney (www.kenney.nl)

mtllib wall-wood-window-small.mtl

g wall-wood-window-small

v 0.5 1 -0.5 1 1 1
v 0.5 1 -0.4 1 1 1
v 0.4 1 -0.5 1 1 1
v 0.4 1 -0.4 1 1 1
v 0.5 0 -0.4 1 1 1
v 0.5 0 -0.5 1 1 1
v 0.4 0 -0.4 1 1 1
v 0.4 0 -0.5 1 1 1
v 0.5 1 0.4 1 1 1
v 0.5 1 0.5 1 1 1
v 0.4 1 0.4 1 1 1
v 0.4 1 0.5 1 1 1
v 0.5 0 0.5 1 1 1
v 0.5 0 0.4 1 1 1
v 0.4 0 0.5 1 1 1
v 0.4 0 0.4 1 1 1
v 0.475 0 0.4 1 1 1
v 0.475 0 -0.4 1 1 1
v 0.425 0 0.4 1 1 1
v 0.425 0 -0.4 1 1 1
v 0.475 1 -0.4 1 1 1
v 0.475 1 0.4 1 1 1
v 0.425 1 -0.4 1 1 1
v 0.425 1 0.4 1 1 1
v 0.475 0.8 0.18 1 1 1
v 0.475 0.8 -0.18 1 1 1
v 0.475 0.2 0.18 1 1 1
v 0.475 0.2 -0.18 1 1 1
v 0.425 0.2 0.18 1 1 1
v 0.425 0.2 -0.18 1 1 1
v 0.425 0.8 0.18 1 1 1
v 0.425 0.8 -0.18 1 1 1
v 0.5 0.7 0.08 1 1 1
v 0.5 0.7 -0.07999999 1 1 1
v 0.4 0.7 0.08 1 1 1
v 0.4 0.7 -0.07999999 1 1 1
v 0.35 0.25 -0.13 1 1 1
v 0.35 0.3 -0.13 1 1 1
v 0.35 0.25 0.13 1 1 1
v 0.35 0.3 0.13 1 1 1
v 0.5 0.75 -0.105 1 1 1
v 0.5 0.75 0.105 1 1 1
v 0.475 0.75 -0.105 1 1 1
v 0.475 0.75 0.105 1 1 1
v 0.4 0.3 0.08 1 1 1
v 0.5 0.3 0.08 1 1 1
v 0.5 0.725 -0.13 1 1 1
v 0.475 0.725 -0.13 1 1 1
v 0.5 0.3 -0.13 1 1 1
v 0.475 0.25 -0.13 1 1 1
v 0.55 0.25 -0.13 1 1 1
v 0.55 0.3 -0.13 1 1 1
v 0.425 0.25 0.18 1 1 1
v 0.425 0.2 0.18 1 1 1
v 0.425 0.8 0.18 1 1 1
v 0.425 0.725 0.13 1 1 1
v 0.425 0.25 0.13 1 1 1
v 0.425 0.75 0.105 1 1 1
v 0.425 0.75 -0.105 1 1 1
v 0.425 0.25 -0.13 1 1 1
v 0.425 0.2 -0.18 1 1 1
v 0.425 0.8 -0.18 1 1 1
v 0.425 0.725 -0.13 1 1 1
v 0.55 0.25 0.13 1 1 1
v 0.475 0.25 0.13 1 1 1
v 0.4 0.3 -0.13 1 1 1
v 0.4 0.725 -0.13 1 1 1
v 0.4 0.3 -0.07999999 1 1 1
v 0.5 0.3 -0.07999999 1 1 1
v 0.4 0.725 0.13 1 1 1
v 0.4 0.3 0.13 1 1 1
v 0.475 0.25 0.18 1 1 1
v 0.475 0.8 0.18 1 1 1
v 0.475 0.2 0.18 1 1 1
v 0.475 0.2 -0.18 1 1 1
v 0.475 0.8 -0.18 1 1 1
v 0.475 0.725 0.13 1 1 1
v 0.5 0.3 0.13 1 1 1
v 0.55 0.3 0.13 1 1 1
v 0.4 0.75 0.105 1 1 1
v 0.5 0.725 0.13 1 1 1
v 0.4 0.75 -0.105 1 1 1

vn 0 1 0
vn 0 -1 0
vn 0 0 -1
vn -1 0 0
vn 0 0 1
vn 1 0 0
vn 0 0.7071068 -0.7071068
vn 0 0.7071068 0.7071068

vt 0.21875 0.425
vt 0.21875 0.325
vt 0.21875 0.405
vt 0.21875 0.345
vt 0.21875 0.385
vt 0.21875 0.365

usemtl colormap

f 3/1/1 2/1/1 1/1/1
f 2/1/1 3/1/1 4/1/1
f 7/2/2 6/2/2 5/2/2
f 6/2/2 7/2/2 8/2/2
f 3/1/3 6/2/3 8/2/3
f 6/2/3 3/1/3 1/1/3
f 7/2/4 3/1/4 8/2/4
f 3/1/4 7/2/4 4/1/4
f 2/1/5 7/2/5 5/2/5
f 7/2/5 2/1/5 4/1/5
f 2/1/6 6/2/6 1/1/6
f 6/2/6 2/1/6 5/2/6
f 11/1/1 10/1/1 9/1/1
f 10/1/1 11/1/1 12/1/1
f 15/2/2 14/2/2 13/2/2
f 14/2/2 15/2/2 16/2/2
f 11/1/3 14/2/3 16/2/3
f 14/2/3 11/1/3 9/1/3
f 15/2/4 11/1/4 16/2/4
f 11/1/4 15/2/4 12/1/4
f 10/1/5 15/2/5 13/2/5
f 15/2/5 10/1/5 12/1/5
f 10/1/6 14/2/6 9/1/6
f 14/2/6 10/1/6 13/2/6
f 19/2/2 18/2/2 17/2/2
f 18/2/2 19/2/2 20/2/2
f 23/1/1 22/1/1 21/1/1
f 22/1/1 23/1/1 24/1/1
f 26/3/6 22/1/6 25/3/6
f 25/3/6 22/1/6 27/4/6
f 26/3/6 21/1/6 22/1/6
f 17/2/6 27/4/6 22/1/6
f 21/1/6 26/3/6 18/2/6
f 17/2/6 28/4/6 27/4/6
f 18/2/6 28/4/6 17/2/6
f 28/4/6 18/2/6 26/3/6
f 30/4/4 19/2/4 29/4/4
f 29/4/4 19/2/4 31/3/4
f 30/4/4 20/2/4 19/2/4
f 24/1/4 31/3/4 19/2/4
f 20/2/4 30/4/4 23/1/4
f 24/1/4 32/3/4 31/3/4
f 23/1/4 32/3/4 24/1/4
f 32/3/4 23/1/4 30/4/4
f 35/5/2 34/2/2 33/2/2
f 34/2/2 35/5/2 36/5/2
f 39/1/4 38/1/4 37/1/4
f 38/1/4 39/1/4 40/1/4
f 43/2/1 42/2/1 41/2/1
f 42/2/1 43/2/1 44/2/1
f 35/5/3 46/2/3 45/5/3
f 46/2/3 35/5/3 33/2/3
f 49/2/3 48/2/3 47/2/3
f 49/2/3 50/2/3 48/2/3
f 50/2/3 49/2/3 51/2/3
f 52/2/3 51/2/3 49/2/3
f 55/6/4 54/6/4 53/6/4
f 55/6/4 56/6/4 54/6/4
f 57/6/4 54/6/4 56/6/4
f 55/6/4 58/6/4 56/6/4
f 55/6/4 59/6/4 58/6/4
f 60/6/4 54/6/4 57/6/4
f 60/6/4 61/6/4 54/6/4
f 62/6/4 59/6/4 55/6/4
f 61/6/4 60/6/4 62/6/4
f 59/6/4 62/6/4 63/6/4
f 63/6/4 62/6/4 60/6/4
f 65/2/2 51/2/2 64/2/2
f 51/2/2 65/2/2 50/2/2
f 38/1/3 60/6/3 37/1/3
f 60/6/3 38/1/3 66/5/3
f 60/6/3 66/5/3 63/6/3
f 63/6/3 66/5/3 67/5/3
f 69/2/5 36/5/5 68/5/5
f 36/5/5 69/2/5 34/2/5
f 71/5/5 56/6/5 70/5/5
f 71/5/5 57/6/5 56/6/5
f 57/6/5 71/5/5 39/1/5
f 40/1/5 39/1/5 71/5/5
f 74/2/6 73/2/6 72/2/6
f 74/2/6 65/2/6 73/2/6
f 74/2/6 50/2/6 65/2/6
f 75/2/6 50/2/6 74/2/6
f 50/2/6 75/2/6 48/2/6
f 76/2/6 48/2/6 75/2/6
f 48/2/6 76/2/6 43/2/6
f 43/2/6 76/2/6 73/2/6
f 77/2/6 73/2/6 65/2/6
f 43/2/6 73/2/6 44/2/6
f 44/2/6 73/2/6 77/2/6
f 43/2/7 47/2/7 48/2/7
f 47/2/7 43/2/7 41/2/7
f 38/1/1 68/5/1 66/5/1
f 68/5/1 38/1/1 45/5/1
f 45/5/1 38/1/1 71/5/1
f 71/5/1 38/1/1 40/1/1
f 46/2/1 68/5/1 45/5/1
f 68/5/1 46/2/1 69/2/1
f 78/2/1 69/2/1 46/2/1
f 78/2/1 49/2/1 69/2/1
f 79/2/1 49/2/1 78/2/1
f 49/2/1 79/2/1 52/2/1
f 80/5/8 56/6/8 58/6/8
f 56/6/8 80/5/8 70/5/8
f 78/2/6 42/2/6 81/2/6
f 46/2/6 42/2/6 78/2/6
f 33/2/6 42/2/6 46/2/6
f 34/2/6 42/2/6 33/2/6
f 42/2/6 34/2/6 41/2/6
f 69/2/6 41/2/6 34/2/6
f 49/2/6 41/2/6 69/2/6
f 41/2/6 49/2/6 47/2/6
f 82/5/1 58/6/1 59/6/1
f 58/6/1 82/5/1 80/5/1
f 82/5/7 63/6/7 67/5/7
f 63/6/7 82/5/7 59/6/7
f 71/5/4 35/5/4 45/5/4
f 35/5/4 71/5/4 80/5/4
f 80/5/4 71/5/4 70/5/4
f 80/5/4 36/5/4 35/5/4
f 82/5/4 36/5/4 80/5/4
f 82/5/4 68/5/4 36/5/4
f 67/5/4 68/5/4 82/5/4
f 68/5/4 67/5/4 66/5/4
f 39/1/2 60/6/2 57/6/2
f 60/6/2 39/1/2 37/1/2
f 79/2/5 65/2/5 64/2/5
f 65/2/5 79/2/5 78/2/5
f 65/2/5 78/2/5 77/2/5
f 77/2/5 78/2/5 81/2/5
f 44/2/8 81/2/8 42/2/8
f 81/2/8 44/2/8 77/2/8
f 79/2/6 51/2/6 52/2/6
f 51/2/6 79/2/6 64/2/6

g wall-wood-window-small




usemtl colormap

f 3/1/1 2/1/1 1/1/1
f 2/1/1 3/1/1 4/1/1
f 7/2/2 6/2/2 5/2/2
f 6/2/2 7/2/2 8/2/2
f 3/1/3 6/2/3 8/2/3
f 6/2/3 3/1/3 1/1/3
f 7/2/4 3/1/4 8/2/4
f 3/1/4 7/2/4 4/1/4
f 2/1/5 7/2/5 5/2/5
f 7/2/5 2/1/5 4/1/5
f 2/1/6 6/2/6 1/1/6
f 6/2/6 2/1/6 5/2/6
f 11/1/1 10/1/1 9/1/1
f 10/1/1 11/1/1 12/1/1
f 15/2/2 14/2/2 13/2/2
f 14/2/2 15/2/2 16/2/2
f 11/1/3 14/2/3 16/2/3
f 14/2/3 11/1/3 9/1/3
f 15/2/4 11/1/4 16/2/4
f 11/1/4 15/2/4 12/1/4
f 10/1/5 15/2/5 13/2/5
f 15/2/5 10/1/5 12/1/5
f 10/1/6 14/2/6 9/1/6
f 14/2/6 10/1/6 13/2/6
f 19/2/2 18/2/2 17/2/2
f 18/2/2 19/2/2 20/2/2
f 23/1/1 22/1/1 21/1/1
f 22/1/1 23/1/1 24/1/1
f 26/3/6 22/1/6 25/3/6
f 25/3/6 22/1/6 27/4/6
f 26/3/6 21/1/6 22/1/6
f 17/2/6 27/4/6 22/1/6
f 21/1/6 26/3/6 18/2/6
f 17/2/6 28/4/6 27/4/6
f 18/2/6 28/4/6 17/2/6
f 28/4/6 18/2/6 26/3/6
f 30/4/4 19/2/4 29/4/4
f 29/4/4 19/2/4 31/3/4
f 30/4/4 20/2/4 19/2/4
f 24/1/4 31/3/4 19/2/4
f 20/2/4 30/4/4 23/1/4
f 24/1/4 32/3/4 31/3/4
f 23/1/4 32/3/4 24/1/4
f 32/3/4 23/1/4 30/4/4
f 35/5/2 34/2/2 33/2/2
f 34/2/2 35/5/2 36/5/2
f 39/1/4 38/1/4 37/1/4
f 38/1/4 39/1/4 40/1/4
f 43/2/1 42/2/1 41/2/1
f 42/2/1 43/2/1 44/2/1
f 35/5/3 46/2/3 45/5/3
f 46/2/3 35/5/3 33/2/3
f 49/2/3 48/2/3 47/2/3
f 49/2/3 50/2/3 48/2/3
f 50/2/3 49/2/3 51/2/3
f 52/2/3 51/2/3 49/2/3
f 55/6/4 54/6/4 53/6/4
f 55/6/4 56/6/4 54/6/4
f 57/6/4 54/6/4 56/6/4
f 55/6/4 58/6/4 56/6/4
f 55/6/4 59/6/4 58/6/4
f 60/6/4 54/6/4 57/6/4
f 60/6/4 61/6/4 54/6/4
f 62/6/4 59/6/4 55/6/4
f 61/6/4 60/6/4 62/6/4
f 59/6/4 62/6/4 63/6/4
f 63/6/4 62/6/4 60/6/4
f 65/2/2 51/2/2 64/2/2
f 51/2/2 65/2/2 50/2/2
f 38/1/3 60/6/3 37/1/3
f 60/6/3 38/1/3 66/5/3
f 60/6/3 66/5/3 63/6/3
f 63/6/3 66/5/3 67/5/3
f 69/2/5 36/5/5 68/5/5
f 36/5/5 69/2/5 34/2/5
f 71/5/5 56/6/5 70/5/5
f 71/5/5 57/6/5 56/6/5
f 57/6/5 71/5/5 39/1/5
f 40/1/5 39/1/5 71/5/5
f 74/2/6 73/2/6 72/2/6
f 74/2/6 65/2/6 73/2/6
f 74/2/6 50/2/6 65/2/6
f 75/2/6 50/2/6 74/2/6
f 50/2/6 75/2/6 48/2/6
f 76/2/6 48/2/6 75/2/6
f 48/2/6 76/2/6 43/2/6
f 43/2/6 76/2/6 73/2/6
f 77/2/6 73/2/6 65/2/6
f 43/2/6 73/2/6 44/2/6
f 44/2/6 73/2/6 77/2/6
f 43/2/7 47/2/7 48/2/7
f 47/2/7 43/2/7 41/2/7
f 38/1/1 68/5/1 66/5/1
f 68/5/1 38/1/1 45/5/1
f 45/5/1 38/1/1 71/5/1
f 71/5/1 38/1/1 40/1/1
f 46/2/1 68/5/1 45/5/1
f 68/5/1 46/2/1 69/2/1
f 78/2/1 69/2/1 46/2/1
f 78/2/1 49/2/1 69/2/1
f 79/2/1 49/2/1 78/2/1
f 49/2/1 79/2/1 52/2/1
f 80/5/8 56/6/8 58/6/8
f 56/6/8 80/5/8 70/5/8
f 78/2/6 42/2/6 81/2/6
f 46/2/6 42/2/6 78/2/6
f 33/2/6 42/2/6 46/2/6
f 34/2/6 42/2/6 33/2/6
f 42/2/6 34/2/6 41/2/6
f 69/2/6 41/2/6 34/2/6
f 49/2/6 41/2/6 69/2/6
f 41/2/6 49/2/6 47/2/6
f 82/5/1 58/6/1 59/6/1
f 58/6/1 82/5/1 80/5/1
f 82/5/7 63/6/7 67/5/7
f 63/6/7 82/5/7 59/6/7
f 71/5/4 35/5/4 45/5/4
f 35/5/4 71/5/4 80/5/4
f 80/5/4 71/5/4 70/5/4
f 80/5/4 36/5/4 35/5/4
f 82/5/4 36/5/4 80/5/4
f 82/5/4 68/5/4 36/5/4
f 67/5/4 68/5/4 82/5/4
f 68/5/4 67/5/4 66/5/4
f 39/1/2 60/6/2 57/6/2
f 60/6/2 39/1/2 37/1/2
f 79/2/5 65/2/5 64/2/5
f 65/2/5 79/2/5 78/2/5
f 65/2/5 78/2/5 77/2/5
f 77/2/5 78/2/5 81/2/5
f 44/2/8 81/2/8 42/2/8
f 81/2/8 44/2/8 77/2/8
f 79/2/6 51/2/6 52/2/6
f 51/2/6 79/2/6 64/2/6

