# Created by Kenney (www.kenney.nl)

mtllib wall-doorway-square.mtl

g wall-doorway-square

v 0.5 1 -0.5 1 1 1
v 0.5 1 -0.4 1 1 1
v 0.4 1 -0.5 1 1 1
v 0.4 1 -0.4 1 1 1
v 0.5 0 -0.4 1 1 1
v 0.5 0 -0.5 1 1 1
v 0.4 0 -0.4 1 1 1
v 0.4 0 -0.5 1 1 1
v 0.5 1 0.4 1 1 1
v 0.5 1 0.5 1 1 1
v 0.4 1 0.4 1 1 1
v 0.4 1 0.5 1 1 1
v 0.5 0 0.5 1 1 1
v 0.5 0 0.4 1 1 1
v 0.4 0 0.5 1 1 1
v 0.4 0 0.4 1 1 1
v 0.4 0 0.2 1 1 1
v 0.4 0.75 0.2 1 1 1
v 0.4 0 0.3 1 1 1
v 0.4 0.85 0.3 1 1 1
v 0.4 0.75 -0.2 1 1 1
v 0.4 0.85 -0.3 1 1 1
v 0.4 0 -0.2 1 1 1
v 0.4 0 -0.3 1 1 1
v 0.5 0 0.3 1 1 1
v 0.5 0.85 0.3 1 1 1
v 0.5 0.85 -0.3 1 1 1
v 0.5 0 0.2 1 1 1
v 0.5 0.75 0.2 1 1 1
v 0.5 0.75 -0.2 1 1 1
v 0.5 0 -0.3 1 1 1
v 0.5 0 -0.2 1 1 1
v 0.425 0 0.3 1 1 1
v 0.425 0.85 0.3 1 1 1
v 0.425 0 0.4 1 1 1
v 0.425 1 0.4 1 1 1
v 0.425 0.85 -0.3 1 1 1
v 0.425 1 -0.4 1 1 1
v 0.425 0 -0.3 1 1 1
v 0.425 0 -0.4 1 1 1
v 0.475 0 0.4 1 1 1
v 0.475 1 0.4 1 1 1
v 0.475 0 0.3 1 1 1
v 0.475 0.85 0.3 1 1 1
v 0.475 0.85 -0.3 1 1 1
v 0.475 1 -0.4 1 1 1
v 0.475 0 -0.4 1 1 1
v 0.475 0 -0.3 1 1 1

vn 0 1 0
vn 0 -1 0
vn 0 0 -1
vn -1 0 0
vn 0 0 1
vn 1 0 0

vt 0.59375 0.175
vt 0.59375 0.075
vt 0.59375 0.1632353
vt 0.21875 0.325
vt 0.21875 0.41
vt 0.21875 0.425

usemtl colormap

f 3/1/1 2/1/1 1/1/1
f 2/1/1 3/1/1 4/1/1
f 7/2/2 6/2/2 5/2/2
f 6/2/2 7/2/2 8/2/2
f 3/1/3 6/2/3 8/2/3
f 6/2/3 3/1/3 1/1/3
f 7/2/4 3/1/4 8/2/4
f 3/1/4 7/2/4 4/1/4
f 2/1/5 7/2/5 5/2/5
f 7/2/5 2/1/5 4/1/5
f 2/1/6 6/2/6 1/1/6
f 6/2/6 2/1/6 5/2/6
f 11/1/1 10/1/1 9/1/1
f 10/1/1 11/1/1 12/1/1
f 15/2/2 14/2/2 13/2/2
f 14/2/2 15/2/2 16/2/2
f 11/1/3 14/2/3 16/2/3
f 14/2/3 11/1/3 9/1/3
f 15/2/4 11/1/4 16/2/4
f 11/1/4 15/2/4 12/1/4
f 10/1/5 15/2/5 13/2/5
f 15/2/5 10/1/5 12/1/5
f 10/1/6 14/2/6 9/1/6
f 14/2/6 10/1/6 13/2/6
f 19/2/4 18/3/4 17/2/4
f 20/1/4 18/3/4 19/2/4
f 20/1/4 21/3/4 18/3/4
f 22/1/4 21/3/4 20/1/4
f 22/1/4 23/2/4 21/3/4
f 23/2/4 22/1/4 24/2/4
f 26/1/5 19/2/5 25/2/5
f 19/2/5 26/1/5 20/1/5
f 22/1/1 26/1/1 27/1/1
f 26/1/1 22/1/1 20/1/1
f 28/2/6 26/1/6 25/2/6
f 29/3/6 26/1/6 28/2/6
f 30/3/6 26/1/6 29/3/6
f 30/3/6 27/1/6 26/1/6
f 27/1/6 30/3/6 31/2/6
f 32/2/6 31/2/6 30/3/6
f 22/1/3 31/2/3 24/2/3
f 31/2/3 22/1/3 27/1/3
f 23/2/2 31/2/2 32/2/2
f 31/2/2 23/2/2 24/2/2
f 19/2/2 28/2/2 25/2/2
f 28/2/2 19/2/2 17/2/2
f 18/3/3 28/2/3 17/2/3
f 28/2/3 18/3/3 29/3/3
f 30/3/5 23/2/5 32/2/5
f 23/2/5 30/3/5 21/3/5
f 18/3/2 30/3/2 29/3/2
f 30/3/2 18/3/2 21/3/2
f 35/4/4 34/5/4 33/4/4
f 36/6/4 34/5/4 35/4/4
f 36/6/4 37/5/4 34/5/4
f 38/6/4 37/5/4 36/6/4
f 38/6/4 39/4/4 37/5/4
f 39/4/4 38/6/4 40/4/4
f 43/4/6 42/6/6 41/4/6
f 44/5/6 42/6/6 43/4/6
f 45/5/6 42/6/6 44/5/6
f 45/5/6 46/6/6 42/6/6
f 46/6/6 45/5/6 47/4/6
f 48/4/6 47/4/6 45/5/6
f 38/6/1 42/6/1 46/6/1
f 42/6/1 38/6/1 36/6/1
f 39/4/2 47/4/2 48/4/2
f 47/4/2 39/4/2 40/4/2
f 35/4/2 43/4/2 41/4/2
f 43/4/2 35/4/2 33/4/2

g wall-doorway-square




usemtl colormap

f 3/1/1 2/1/1 1/1/1
f 2/1/1 3/1/1 4/1/1
f 7/2/2 6/2/2 5/2/2
f 6/2/2 7/2/2 8/2/2
f 3/1/3 6/2/3 8/2/3
f 6/2/3 3/1/3 1/1/3
f 7/2/4 3/1/4 8/2/4
f 3/1/4 7/2/4 4/1/4
f 2/1/5 7/2/5 5/2/5
f 7/2/5 2/1/5 4/1/5
f 2/1/6 6/2/6 1/1/6
f 6/2/6 2/1/6 5/2/6
f 11/1/1 10/1/1 9/1/1
f 10/1/1 11/1/1 12/1/1
f 15/2/2 14/2/2 13/2/2
f 14/2/2 15/2/2 16/2/2
f 11/1/3 14/2/3 16/2/3
f 14/2/3 11/1/3 9/1/3
f 15/2/4 11/1/4 16/2/4
f 11/1/4 15/2/4 12/1/4
f 10/1/5 15/2/5 13/2/5
f 15/2/5 10/1/5 12/1/5
f 10/1/6 14/2/6 9/1/6
f 14/2/6 10/1/6 13/2/6
f 19/2/4 18/3/4 17/2/4
f 20/1/4 18/3/4 19/2/4
f 20/1/4 21/3/4 18/3/4
f 22/1/4 21/3/4 20/1/4
f 22/1/4 23/2/4 21/3/4
f 23/2/4 22/1/4 24/2/4
f 26/1/5 19/2/5 25/2/5
f 19/2/5 26/1/5 20/1/5
f 22/1/1 26/1/1 27/1/1
f 26/1/1 22/1/1 20/1/1
f 28/2/6 26/1/6 25/2/6
f 29/3/6 26/1/6 28/2/6
f 30/3/6 26/1/6 29/3/6
f 30/3/6 27/1/6 26/1/6
f 27/1/6 30/3/6 31/2/6
f 32/2/6 31/2/6 30/3/6
f 22/1/3 31/2/3 24/2/3
f 31/2/3 22/1/3 27/1/3
f 23/2/2 31/2/2 32/2/2
f 31/2/2 23/2/2 24/2/2
f 19/2/2 28/2/2 25/2/2
f 28/2/2 19/2/2 17/2/2
f 18/3/3 28/2/3 17/2/3
f 28/2/3 18/3/3 29/3/3
f 30/3/5 23/2/5 32/2/5
f 23/2/5 30/3/5 21/3/5
f 18/3/2 30/3/2 29/3/2
f 30/3/2 18/3/2 21/3/2
f 35/4/4 34/5/4 33/4/4
f 36/6/4 34/5/4 35/4/4
f 36/6/4 37/5/4 34/5/4
f 38/6/4 37/5/4 36/6/4
f 38/6/4 39/4/4 37/5/4
f 39/4/4 38/6/4 40/4/4
f 43/4/6 42/6/6 41/4/6
f 44/5/6 42/6/6 43/4/6
f 45/5/6 42/6/6 44/5/6
f 45/5/6 46/6/6 42/6/6
f 46/6/6 45/5/6 47/4/6
f 48/4/6 47/4/6 45/5/6
f 38/6/1 42/6/1 46/6/1
f 42/6/1 38/6/1 36/6/1
f 39/4/2 47/4/2 48/4/2
f 47/4/2 39/4/2 40/4/2
f 35/4/2 43/4/2 41/4/2
f 43/4/2 35/4/2 33/4/2

