# Created by Kenney (www.kenney.nl)

mtllib wall-window-glass.mtl

g wall-window-glass

v 0.5 1 -0.5 1 1 1
v 0.5 1 -0.4 1 1 1
v 0.4 1 -0.5 1 1 1
v 0.4 1 -0.4 1 1 1
v 0.5 0 -0.4 1 1 1
v 0.5 0 -0.5 1 1 1
v 0.4 0 -0.4 1 1 1
v 0.4 0 -0.5 1 1 1
v 0.5 1 0.4 1 1 1
v 0.5 1 0.5 1 1 1
v 0.4 1 0.4 1 1 1
v 0.4 1 0.5 1 1 1
v 0.5 0 0.5 1 1 1
v 0.5 0 0.4 1 1 1
v 0.4 0 0.5 1 1 1
v 0.4 0 0.4 1 1 1
v 0.5 0.7 0.1 1 1 1
v 0.5 0.7 -0.1 1 1 1
v 0.4 0.7 0.1 1 1 1
v 0.4 0.7 -0.1 1 1 1
v 0.5 0.75 -0.15 1 1 1
v 0.5 0.75 0.15 1 1 1
v 0.475 0.75 -0.15 1 1 1
v 0.475 0.75 0.15 1 1 1
v 0.4 0.3 -0.1 1 1 1
v 0.5 0.3 -0.1 1 1 1
v 0.425 0.25 0.15 1 1 1
v 0.4 0.25 0.15 1 1 1
v 0.425 0.75 0.15 1 1 1
v 0.4 0.75 0.15 1 1 1
v 0.425 0.25 -0.15 1 1 1
v 0.4 0.25 -0.15 1 1 1
v 0.4 0.3 0.1 1 1 1
v 0.5 0.3 0.1 1 1 1
v 0.5 0.25 0.15 1 1 1
v 0.5 0.25 -0.15 1 1 1
v 0.475 0.25 0.15 1 1 1
v 0.475 0.25 -0.15 1 1 1
v 0.425 0.75 -0.15 1 1 1
v 0.4 0.75 -0.15 1 1 1
v 0.475 0.25 0.2 1 1 1
v 0.475 0.8 0.2 1 1 1
v 0.475 0.2 0.2 1 1 1
v 0.475 0.2 -0.2 1 1 1
v 0.475 0.8 -0.2 1 1 1
v 0.425 0.25 0.2 1 1 1
v 0.425 0.2 0.2 1 1 1
v 0.425 0.8 0.2 1 1 1
v 0.425 0.8 -0.2 1 1 1
v 0.425 0.2 -0.2 1 1 1
v 0.45625 0.43 -0.09250015 1 1 1
v 0.45625 0.43 -0.01250015 1 1 1
v 0.45625 0.455 -0.09250015 1 1 1
v 0.45625 0.455 -0.01250015 1 1 1
v 0.45625 0.545 -0.01250015 1 1 1
v 0.45625 0.545 -0.09250015 1 1 1
v 0.44375 0.545 -0.01250015 1 1 1
v 0.44375 0.545 -0.09250015 1 1 1
v 0.45625 0.57 -0.09250015 1 1 1
v 0.45625 0.57 -0.01250015 1 1 1
v 0.45625 0.43 0.09999985 1 1 1
v 0.45625 0.43 0.01249985 1 1 1
v 0.44375 0.43 0.09999985 1 1 1
v 0.44375 0.43 0.01249985 1 1 1
v 0.44375 0.57 -0.09250015 1 1 1
v 0.44375 0.57 -0.01250015 1 1 1
v 0.45625 0.57 0.01249985 1 1 1
v 0.45625 0.545 0.01249985 1 1 1
v 0.45625 0.57 0.09999985 1 1 1
v 0.45625 0.545 0.09999985 1 1 1
v 0.45625 0.455 0.01249985 1 1 1
v 0.45625 0.455 0.09999985 1 1 1
v 0.4375 0.3 -0.01250015 1 1 1
v 0.4375 0.7 -0.01250015 1 1 1
v 0.4375 0.3 0.01249985 1 1 1
v 0.4375 0.7 0.01249985 1 1 1
v 0.44375 0.455 0.01249985 1 1 1
v 0.44375 0.455 0.09999985 1 1 1
v 0.44375 0.545 0.01249985 1 1 1
v 0.44375 0.57 0.01249985 1 1 1
v 0.44375 0.545 0.09999985 1 1 1
v 0.44375 0.57 0.09999985 1 1 1
v 0.44375 0.43 -0.09250015 1 1 1
v 0.44375 0.455 -0.09250015 1 1 1
v 0.44375 0.43 -0.01250015 1 1 1
v 0.44375 0.455 -0.01250015 1 1 1
v 0.4625 0.7 -0.01250015 1 1 1
v 0.4625 0.3 -0.01250015 1 1 1
v 0.4625 0.7 0.01249985 1 1 1
v 0.4625 0.3 0.01249985 1 1 1
v 0.475 0 0.4 1 1 1
v 0.475 0 -0.4 1 1 1
v 0.425 0 0.4 1 1 1
v 0.425 0 -0.4 1 1 1
v 0.475 1 -0.4 1 1 1
v 0.475 1 0.4 1 1 1
v 0.425 1 -0.4 1 1 1
v 0.425 1 0.4 1 1 1

vn 0 1 0
vn 0 -1 0
vn 0 0 -1
vn -1 0 0
vn 0 0 1
vn 1 0 0
vn 0 0.7071068 -0.7071068
vn 0 0.7071068 0.7071068
vn 0 -0.7071068 0.7071068
vn 0 -0.7071068 -0.7071068

vt 0.59375 0.175
vt 0.59375 0.075
vt 0.59375 0.1583333
vt 0.59375 0.1666667
vt 0.59375 0.09166666
vt 0.59375 0.08333333
vt 0.59375 0.16
vt 0.59375 0.1475
vt 0.59375 0.1025
vt 0.59375 0.09000001
vt 0.59375 0.225
vt 0.59375 0.025
vt 0.21875 0.325
vt 0.21875 0.425
vt 0.21875 0.345
vt 0.21875 0.405
vt 0.21875 0.35

usemtl colormap

f 3/1/1 2/1/1 1/1/1
f 2/1/1 3/1/1 4/1/1
f 7/2/2 6/2/2 5/2/2
f 6/2/2 7/2/2 8/2/2
f 3/1/3 6/2/3 8/2/3
f 6/2/3 3/1/3 1/1/3
f 7/2/4 3/1/4 8/2/4
f 3/1/4 7/2/4 4/1/4
f 2/1/5 7/2/5 5/2/5
f 7/2/5 2/1/5 4/1/5
f 2/1/6 6/2/6 1/1/6
f 6/2/6 2/1/6 5/2/6
f 11/1/1 10/1/1 9/1/1
f 10/1/1 11/1/1 12/1/1
f 15/2/2 14/2/2 13/2/2
f 14/2/2 15/2/2 16/2/2
f 11/1/3 14/2/3 16/2/3
f 14/2/3 11/1/3 9/1/3
f 15/2/4 11/1/4 16/2/4
f 11/1/4 15/2/4 12/1/4
f 10/1/5 15/2/5 13/2/5
f 15/2/5 10/1/5 12/1/5
f 10/1/6 14/2/6 9/1/6
f 14/2/6 10/1/6 13/2/6
f 19/3/2 18/3/2 17/3/2
f 18/3/2 19/3/2 20/3/2
f 23/4/7 22/4/8 21/4/7
f 22/4/8 23/4/7 24/4/8
f 26/5/5 20/3/5 25/5/5
f 20/3/5 26/5/5 18/3/5
f 29/4/8 28/6/9 27/6/9
f 28/6/9 29/4/8 30/4/8
f 28/6/9 31/6/10 27/6/9
f 31/6/10 28/6/9 32/6/10
f 19/3/3 34/5/3 33/5/3
f 34/5/3 19/3/3 17/3/3
f 37/6/9 36/6/10 35/6/9
f 36/6/10 37/6/9 38/6/10
f 32/6/10 39/4/7 31/6/10
f 39/4/7 32/6/10 40/4/7
f 40/4/7 29/4/8 39/4/7
f 29/4/8 40/4/7 30/4/8
f 35/6/9 24/4/8 37/6/9
f 24/4/8 35/6/9 22/4/8
f 23/4/7 36/6/10 38/6/10
f 36/6/10 23/4/7 21/4/7
f 25/5/1 34/5/1 26/5/1
f 34/5/1 25/5/1 33/5/1
f 43/2/6 42/1/6 41/6/6
f 43/2/6 37/6/6 42/1/6
f 24/4/6 42/1/6 37/6/6
f 43/2/6 38/6/6 37/6/6
f 44/2/6 38/6/6 43/2/6
f 23/4/6 42/1/6 24/4/6
f 38/6/6 44/2/6 23/4/6
f 23/4/6 45/1/6 42/1/6
f 45/1/6 23/4/6 44/2/6
f 48/1/4 47/2/4 46/6/4
f 48/1/4 29/4/4 47/2/4
f 27/6/4 47/2/4 29/4/4
f 48/1/4 39/4/4 29/4/4
f 49/1/4 39/4/4 48/1/4
f 31/6/4 47/2/4 27/6/4
f 39/4/4 49/1/4 31/6/4
f 31/6/4 50/2/4 47/2/4
f 50/2/4 31/6/4 49/1/4
f 18/3/6 22/4/6 17/3/6
f 17/3/6 22/4/6 34/5/6
f 18/3/6 21/4/6 22/4/6
f 35/6/6 34/5/6 22/4/6
f 21/4/6 18/3/6 36/6/6
f 35/6/6 26/5/6 34/5/6
f 36/6/6 26/5/6 35/6/6
f 26/5/6 36/6/6 18/3/6
f 25/5/4 28/6/4 33/5/4
f 33/5/4 28/6/4 19/3/4
f 25/5/4 32/6/4 28/6/4
f 30/4/4 19/3/4 28/6/4
f 32/6/4 25/5/4 40/4/4
f 30/4/4 20/3/4 19/3/4
f 40/4/4 20/3/4 30/4/4
f 20/3/4 40/4/4 25/5/4
f 53/8/6 52/7/6 51/7/6
f 52/7/6 53/8/6 54/8/6
f 57/9/2 56/9/2 55/9/2
f 56/9/2 57/9/2 58/9/2
f 59/10/6 55/9/6 56/9/6
f 55/9/6 59/10/6 60/10/6
f 63/7/2 62/7/2 61/7/2
f 62/7/2 63/7/2 64/7/2
f 65/10/1 60/10/1 59/10/1
f 60/10/1 65/10/1 66/10/1
f 69/10/6 68/9/6 67/10/6
f 68/9/6 69/10/6 70/9/6
f 72/8/6 62/7/6 71/8/6
f 62/7/6 72/8/6 61/7/6
f 75/11/4 74/12/4 73/11/4
f 74/12/4 75/11/4 76/12/4
f 63/7/4 77/8/4 64/7/4
f 77/8/4 63/7/4 78/8/4
f 77/8/1 72/8/1 71/8/1
f 72/8/1 77/8/1 78/8/1
f 81/9/4 80/10/4 79/9/4
f 80/10/4 81/9/4 82/10/4
f 85/7/4 84/8/4 83/7/4
f 84/8/4 85/7/4 86/8/4
f 80/10/1 69/10/1 67/10/1
f 69/10/1 80/10/1 82/10/1
f 81/9/2 68/9/2 70/9/2
f 68/9/2 81/9/2 79/9/2
f 57/9/4 65/10/4 58/9/4
f 65/10/4 57/9/4 66/10/4
f 85/7/2 51/7/2 52/7/2
f 51/7/2 85/7/2 83/7/2
f 84/8/1 54/8/1 53/8/1
f 54/8/1 84/8/1 86/8/1
f 89/12/6 88/11/6 87/12/6
f 88/11/6 89/12/6 90/11/6
f 75/11/5 64/7/5 76/12/5
f 64/7/5 75/11/5 90/11/5
f 90/11/5 62/7/5 64/7/5
f 62/7/5 90/11/5 89/12/5
f 62/7/5 89/12/5 71/8/5
f 76/12/5 64/7/5 77/8/5
f 71/8/5 68/9/5 77/8/5
f 71/8/5 89/12/5 68/9/5
f 77/8/5 68/9/5 79/9/5
f 76/12/5 77/8/5 79/9/5
f 68/9/5 89/12/5 67/10/5
f 76/12/5 79/9/5 80/10/5
f 67/10/5 89/12/5 80/10/5
f 76/12/5 80/10/5 89/12/5
f 57/9/3 74/12/3 66/10/3
f 66/10/3 74/12/3 60/10/3
f 87/12/3 60/10/3 74/12/3
f 87/12/3 55/9/3 60/10/3
f 55/9/3 54/8/3 57/9/3
f 87/12/3 54/8/3 55/9/3
f 86/8/3 57/9/3 54/8/3
f 86/8/3 74/12/3 57/9/3
f 87/12/3 52/7/3 54/8/3
f 88/11/3 52/7/3 87/12/3
f 85/7/3 74/12/3 86/8/3
f 52/7/3 88/11/3 85/7/3
f 85/7/3 73/11/3 74/12/3
f 73/11/3 85/7/3 88/11/3
f 93/13/2 92/13/2 91/13/2
f 92/13/2 93/13/2 94/13/2
f 97/14/1 96/14/1 95/14/1
f 96/14/1 97/14/1 98/14/1
f 45/16/5 50/15/5 44/15/5
f 50/15/5 45/16/5 49/16/5
f 48/16/2 45/16/2 42/16/2
f 45/16/2 48/16/2 49/16/2
f 41/17/3 48/16/3 42/16/3
f 48/16/3 41/17/3 46/17/3
f 43/15/3 46/17/3 41/17/3
f 46/17/3 43/15/3 47/15/3
f 50/15/1 43/15/1 44/15/1
f 43/15/1 50/15/1 47/15/1
f 42/16/6 96/14/6 41/17/6
f 41/17/6 96/14/6 43/15/6
f 45/16/6 96/14/6 42/16/6
f 91/13/6 43/15/6 96/14/6
f 45/16/6 95/14/6 96/14/6
f 91/13/6 44/15/6 43/15/6
f 95/14/6 45/16/6 92/13/6
f 92/13/6 44/15/6 91/13/6
f 44/15/6 92/13/6 45/16/6
f 47/15/4 93/13/4 46/17/4
f 46/17/4 93/13/4 48/16/4
f 50/15/4 93/13/4 47/15/4
f 98/14/4 48/16/4 93/13/4
f 50/15/4 94/13/4 93/13/4
f 98/14/4 49/16/4 48/16/4
f 94/13/4 50/15/4 97/14/4
f 97/14/4 49/16/4 98/14/4
f 49/16/4 97/14/4 50/15/4

g wall-window-glass




usemtl colormap

f 3/1/1 2/1/1 1/1/1
f 2/1/1 3/1/1 4/1/1
f 7/2/2 6/2/2 5/2/2
f 6/2/2 7/2/2 8/2/2
f 3/1/3 6/2/3 8/2/3
f 6/2/3 3/1/3 1/1/3
f 7/2/4 3/1/4 8/2/4
f 3/1/4 7/2/4 4/1/4
f 2/1/5 7/2/5 5/2/5
f 7/2/5 2/1/5 4/1/5
f 2/1/6 6/2/6 1/1/6
f 6/2/6 2/1/6 5/2/6
f 11/1/1 10/1/1 9/1/1
f 10/1/1 11/1/1 12/1/1
f 15/2/2 14/2/2 13/2/2
f 14/2/2 15/2/2 16/2/2
f 11/1/3 14/2/3 16/2/3
f 14/2/3 11/1/3 9/1/3
f 15/2/4 11/1/4 16/2/4
f 11/1/4 15/2/4 12/1/4
f 10/1/5 15/2/5 13/2/5
f 15/2/5 10/1/5 12/1/5
f 10/1/6 14/2/6 9/1/6
f 14/2/6 10/1/6 13/2/6
f 19/3/2 18/3/2 17/3/2
f 18/3/2 19/3/2 20/3/2
f 23/4/7 22/4/8 21/4/7
f 22/4/8 23/4/7 24/4/8
f 26/5/5 20/3/5 25/5/5
f 20/3/5 26/5/5 18/3/5
f 29/4/8 28/6/9 27/6/9
f 28/6/9 29/4/8 30/4/8
f 28/6/9 31/6/10 27/6/9
f 31/6/10 28/6/9 32/6/10
f 19/3/3 34/5/3 33/5/3
f 34/5/3 19/3/3 17/3/3
f 37/6/9 36/6/10 35/6/9
f 36/6/10 37/6/9 38/6/10
f 32/6/10 39/4/7 31/6/10
f 39/4/7 32/6/10 40/4/7
f 40/4/7 29/4/8 39/4/7
f 29/4/8 40/4/7 30/4/8
f 35/6/9 24/4/8 37/6/9
f 24/4/8 35/6/9 22/4/8
f 23/4/7 36/6/10 38/6/10
f 36/6/10 23/4/7 21/4/7
f 25/5/1 34/5/1 26/5/1
f 34/5/1 25/5/1 33/5/1
f 43/2/6 42/1/6 41/6/6
f 43/2/6 37/6/6 42/1/6
f 24/4/6 42/1/6 37/6/6
f 43/2/6 38/6/6 37/6/6
f 44/2/6 38/6/6 43/2/6
f 23/4/6 42/1/6 24/4/6
f 38/6/6 44/2/6 23/4/6
f 23/4/6 45/1/6 42/1/6
f 45/1/6 23/4/6 44/2/6
f 48/1/4 47/2/4 46/6/4
f 48/1/4 29/4/4 47/2/4
f 27/6/4 47/2/4 29/4/4
f 48/1/4 39/4/4 29/4/4
f 49/1/4 39/4/4 48/1/4
f 31/6/4 47/2/4 27/6/4
f 39/4/4 49/1/4 31/6/4
f 31/6/4 50/2/4 47/2/4
f 50/2/4 31/6/4 49/1/4
f 18/3/6 22/4/6 17/3/6
f 17/3/6 22/4/6 34/5/6
f 18/3/6 21/4/6 22/4/6
f 35/6/6 34/5/6 22/4/6
f 21/4/6 18/3/6 36/6/6
f 35/6/6 26/5/6 34/5/6
f 36/6/6 26/5/6 35/6/6
f 26/5/6 36/6/6 18/3/6
f 25/5/4 28/6/4 33/5/4
f 33/5/4 28/6/4 19/3/4
f 25/5/4 32/6/4 28/6/4
f 30/4/4 19/3/4 28/6/4
f 32/6/4 25/5/4 40/4/4
f 30/4/4 20/3/4 19/3/4
f 40/4/4 20/3/4 30/4/4
f 20/3/4 40/4/4 25/5/4
f 53/8/6 52/7/6 51/7/6
f 52/7/6 53/8/6 54/8/6
f 57/9/2 56/9/2 55/9/2
f 56/9/2 57/9/2 58/9/2
f 59/10/6 55/9/6 56/9/6
f 55/9/6 59/10/6 60/10/6
f 63/7/2 62/7/2 61/7/2
f 62/7/2 63/7/2 64/7/2
f 65/10/1 60/10/1 59/10/1
f 60/10/1 65/10/1 66/10/1
f 69/10/6 68/9/6 67/10/6
f 68/9/6 69/10/6 70/9/6
f 72/8/6 62/7/6 71/8/6
f 62/7/6 72/8/6 61/7/6
f 75/11/4 74/12/4 73/11/4
f 74/12/4 75/11/4 76/12/4
f 63/7/4 77/8/4 64/7/4
f 77/8/4 63/7/4 78/8/4
f 77/8/1 72/8/1 71/8/1
f 72/8/1 77/8/1 78/8/1
f 81/9/4 80/10/4 79/9/4
f 80/10/4 81/9/4 82/10/4
f 85/7/4 84/8/4 83/7/4
f 84/8/4 85/7/4 86/8/4
f 80/10/1 69/10/1 67/10/1
f 69/10/1 80/10/1 82/10/1
f 81/9/2 68/9/2 70/9/2
f 68/9/2 81/9/2 79/9/2
f 57/9/4 65/10/4 58/9/4
f 65/10/4 57/9/4 66/10/4
f 85/7/2 51/7/2 52/7/2
f 51/7/2 85/7/2 83/7/2
f 84/8/1 54/8/1 53/8/1
f 54/8/1 84/8/1 86/8/1
f 89/12/6 88/11/6 87/12/6
f 88/11/6 89/12/6 90/11/6
f 75/11/5 64/7/5 76/12/5
f 64/7/5 75/11/5 90/11/5
f 90/11/5 62/7/5 64/7/5
f 62/7/5 90/11/5 89/12/5
f 62/7/5 89/12/5 71/8/5
f 76/12/5 64/7/5 77/8/5
f 71/8/5 68/9/5 77/8/5
f 71/8/5 89/12/5 68/9/5
f 77/8/5 68/9/5 79/9/5
f 76/12/5 77/8/5 79/9/5
f 68/9/5 89/12/5 67/10/5
f 76/12/5 79/9/5 80/10/5
f 67/10/5 89/12/5 80/10/5
f 76/12/5 80/10/5 89/12/5
f 57/9/3 74/12/3 66/10/3
f 66/10/3 74/12/3 60/10/3
f 87/12/3 60/10/3 74/12/3
f 87/12/3 55/9/3 60/10/3
f 55/9/3 54/8/3 57/9/3
f 87/12/3 54/8/3 55/9/3
f 86/8/3 57/9/3 54/8/3
f 86/8/3 74/12/3 57/9/3
f 87/12/3 52/7/3 54/8/3
f 88/11/3 52/7/3 87/12/3
f 85/7/3 74/12/3 86/8/3
f 52/7/3 88/11/3 85/7/3
f 85/7/3 73/11/3 74/12/3
f 73/11/3 85/7/3 88/11/3
f 93/13/2 92/13/2 91/13/2
f 92/13/2 93/13/2 94/13/2
f 97/14/1 96/14/1 95/14/1
f 96/14/1 97/14/1 98/14/1
f 45/16/5 50/15/5 44/15/5
f 50/15/5 45/16/5 49/16/5
f 48/16/2 45/16/2 42/16/2
f 45/16/2 48/16/2 49/16/2
f 41/17/3 48/16/3 42/16/3
f 48/16/3 41/17/3 46/17/3
f 43/15/3 46/17/3 41/17/3
f 46/17/3 43/15/3 47/15/3
f 50/15/1 43/15/1 44/15/1
f 43/15/1 50/15/1 47/15/1
f 42/16/6 96/14/6 41/17/6
f 41/17/6 96/14/6 43/15/6
f 45/16/6 96/14/6 42/16/6
f 91/13/6 43/15/6 96/14/6
f 45/16/6 95/14/6 96/14/6
f 91/13/6 44/15/6 43/15/6
f 95/14/6 45/16/6 92/13/6
f 92/13/6 44/15/6 91/13/6
f 44/15/6 92/13/6 45/16/6
f 47/15/4 93/13/4 46/17/4
f 46/17/4 93/13/4 48/16/4
f 50/15/4 93/13/4 47/15/4
f 98/14/4 48/16/4 93/13/4
f 50/15/4 94/13/4 93/13/4
f 98/14/4 49/16/4 48/16/4
f 94/13/4 50/15/4 97/14/4
f 97/14/4 49/16/4 98/14/4
f 49/16/4 97/14/4 50/15/4

