# Created by Kenney (www.kenney.nl)

mtllib balcony-wall.mtl

g balcony-wall

v 0.4 0 0.4 1 1 1
v 0.4125 0 0.4 1 1 1
v 0.4 1 0.4 1 1 1
v 0.5 0 0.4 1 1 1
v 0.5 1 0.4 1 1 1
v 0.5 1 0.5 1 1 1
v 0.5 0 0.5 1 1 1
v 0.5 0 -0.4 1 1 1
v 0.4125 0 -0.4 1 1 1
v 0.5 1 -0.4 1 1 1
v 0.4 0 -0.4 1 1 1
v 0.4 1 -0.4 1 1 1
v 0.5 0 -0.5 1 1 1
v 0.4 0 -0.5 1 1 1
v 0.5 1 -0.5 1 1 1
v 0.4 1 -0.5 1 1 1
v 0.4 0 0.5 1 1 1
v 0.4 1 0.5 1 1 1
v 0.425 1 0.1 1 1 1
v 0.425 1 0.2054093 1 1 1
v 0.425 0.775 0.175 1 1 1
v 0.425 0.854057 0.254057 1 1 1
v 0.425 0.7 0.4 1 1 1
v 0.425 0.8054093 0.4 1 1 1
v 0.425 0.7 -0.4 1 1 1
v 0.425 0.8054093 -0.4 1 1 1
v 0.425 0.775 -0.175 1 1 1
v 0.425 0.854057 -0.254057 1 1 1
v 0.425 1 -0.2054093 1 1 1
v 0.425 1 -0.1 1 1 1
v 0.475 0.8054093 -0.4 1 1 1
v 0.475 0.7 -0.4 1 1 1
v 0.475 0.854057 -0.254057 1 1 1
v 0.475 0.775 -0.175 1 1 1
v 0.475 1 -0.2054093 1 1 1
v 0.475 1 -0.1 1 1 1
v 0.475 1 0.1 1 1 1
v 0.475 0.775 0.175 1 1 1
v 0.475 1 0.2054093 1 1 1
v 0.475 0.854057 0.254057 1 1 1
v 0.475 0.7 0.4 1 1 1
v 0.475 0.8054093 0.4 1 1 1

vn 0 0 -1
vn 1 0 0
vn 0 0 1
vn 0 -1 0
vn 0 1 0
vn -1 0 0
vn 0 0.7071068 -0.7071068
vn 0 0.3162278 -0.9486833
vn 0 0.9486833 -0.3162278
vn 0 -0.7071068 0.7071068
vn 0 -0.9486833 0.3162278
vn 0 -0.3162278 0.9486833
vn 0 0.7071068 0.7071068
vn 0 0.9486833 0.3162278
vn 0 0.3162278 0.9486833
vn 0 -0.7071068 -0.7071068
vn 0 -0.3162278 -0.9486833
vn 0 -0.9486833 -0.3162278

vt 0.59375 0.025
vt 0.59375 0.225
vt 0.59375 0.175
vt 0.59375 0.1222954
vt 0.59375 0.1547272

usemtl colormap

f 3/2/1 2/1/1 1/1/1
f 2/1/1 3/2/1 4/1/1
f 4/1/1 3/2/1 5/2/1
f 6/2/2 4/1/2 5/2/2
f 4/1/2 6/2/2 7/1/2
f 10/2/3 9/1/3 8/1/3
f 9/1/3 10/2/3 11/1/3
f 11/1/3 10/2/3 12/2/3
f 9/1/4 13/1/4 8/1/4
f 13/1/4 9/1/4 14/1/4
f 14/1/4 9/1/4 11/1/4
f 16/2/5 10/2/5 15/2/5
f 10/2/5 16/2/5 12/2/5
f 17/1/4 4/1/4 7/1/4
f 4/1/4 17/1/4 2/1/4
f 2/1/4 17/1/4 1/1/4
f 3/2/5 6/2/5 5/2/5
f 6/2/5 3/2/5 18/2/5
f 17/1/6 3/2/6 1/1/6
f 3/2/6 17/1/6 18/2/6
f 11/1/6 16/2/6 14/1/6
f 16/2/6 11/1/6 12/2/6
f 16/2/1 13/1/1 14/1/1
f 13/1/1 16/2/1 15/2/1
f 10/2/2 13/1/2 15/2/2
f 13/1/2 10/2/2 8/1/2
f 6/2/3 17/1/3 7/1/3
f 17/1/3 6/2/3 18/2/3
f 21/3/6 20/1/6 19/1/6
f 20/1/6 21/3/6 22/4/6
f 22/4/6 21/3/6 23/2/6
f 22/4/6 23/2/6 24/5/6
f 27/3/6 26/5/6 25/2/6
f 26/5/6 27/3/6 28/4/6
f 28/4/6 27/3/6 29/1/6
f 29/1/6 27/3/6 30/1/6
f 33/4/2 32/2/2 31/5/2
f 32/2/2 33/4/2 34/3/2
f 34/3/2 33/4/2 35/1/2
f 34/3/2 35/1/2 36/1/2
f 29/1/5 36/1/5 35/1/5
f 36/1/5 29/1/5 30/1/5
f 29/1/8 33/4/7 28/4/7
f 33/4/7 29/1/8 35/1/8
f 26/5/9 33/4/7 31/5/9
f 33/4/7 26/5/9 28/4/7
f 27/3/10 32/2/11 34/3/10
f 32/2/11 27/3/10 25/2/11
f 36/1/12 27/3/10 34/3/10
f 27/3/10 36/1/12 30/1/12
f 39/1/2 38/3/2 37/1/2
f 38/3/2 39/1/2 40/4/2
f 38/3/2 40/4/2 41/2/2
f 41/2/2 40/4/2 42/5/2
f 22/4/13 42/5/14 40/4/13
f 42/5/14 22/4/13 24/5/14
f 39/1/15 22/4/13 40/4/13
f 22/4/13 39/1/15 20/1/15
f 19/1/5 39/1/5 37/1/5
f 39/1/5 19/1/5 20/1/5
f 19/1/17 38/3/16 21/3/16
f 38/3/16 19/1/17 37/1/17
f 23/2/18 38/3/16 41/2/18
f 38/3/16 23/2/18 21/3/16

g balcony-wall




usemtl colormap

f 3/2/1 2/1/1 1/1/1
f 2/1/1 3/2/1 4/1/1
f 4/1/1 3/2/1 5/2/1
f 6/2/2 4/1/2 5/2/2
f 4/1/2 6/2/2 7/1/2
f 10/2/3 9/1/3 8/1/3
f 9/1/3 10/2/3 11/1/3
f 11/1/3 10/2/3 12/2/3
f 9/1/4 13/1/4 8/1/4
f 13/1/4 9/1/4 14/1/4
f 14/1/4 9/1/4 11/1/4
f 16/2/5 10/2/5 15/2/5
f 10/2/5 16/2/5 12/2/5
f 17/1/4 4/1/4 7/1/4
f 4/1/4 17/1/4 2/1/4
f 2/1/4 17/1/4 1/1/4
f 3/2/5 6/2/5 5/2/5
f 6/2/5 3/2/5 18/2/5
f 17/1/6 3/2/6 1/1/6
f 3/2/6 17/1/6 18/2/6
f 11/1/6 16/2/6 14/1/6
f 16/2/6 11/1/6 12/2/6
f 16/2/1 13/1/1 14/1/1
f 13/1/1 16/2/1 15/2/1
f 10/2/2 13/1/2 15/2/2
f 13/1/2 10/2/2 8/1/2
f 6/2/3 17/1/3 7/1/3
f 17/1/3 6/2/3 18/2/3
f 21/3/6 20/1/6 19/1/6
f 20/1/6 21/3/6 22/4/6
f 22/4/6 21/3/6 23/2/6
f 22/4/6 23/2/6 24/5/6
f 27/3/6 26/5/6 25/2/6
f 26/5/6 27/3/6 28/4/6
f 28/4/6 27/3/6 29/1/6
f 29/1/6 27/3/6 30/1/6
f 33/4/2 32/2/2 31/5/2
f 32/2/2 33/4/2 34/3/2
f 34/3/2 33/4/2 35/1/2
f 34/3/2 35/1/2 36/1/2
f 29/1/5 36/1/5 35/1/5
f 36/1/5 29/1/5 30/1/5
f 29/1/8 33/4/7 28/4/7
f 33/4/7 29/1/8 35/1/8
f 26/5/9 33/4/7 31/5/9
f 33/4/7 26/5/9 28/4/7
f 27/3/10 32/2/11 34/3/10
f 32/2/11 27/3/10 25/2/11
f 36/1/12 27/3/10 34/3/10
f 27/3/10 36/1/12 30/1/12
f 39/1/2 38/3/2 37/1/2
f 38/3/2 39/1/2 40/4/2
f 38/3/2 40/4/2 41/2/2
f 41/2/2 40/4/2 42/5/2
f 22/4/13 42/5/14 40/4/13
f 42/5/14 22/4/13 24/5/14
f 39/1/15 22/4/13 40/4/13
f 22/4/13 39/1/15 20/1/15
f 19/1/5 39/1/5 37/1/5
f 39/1/5 19/1/5 20/1/5
f 19/1/17 38/3/16 21/3/16
f 38/3/16 19/1/17 37/1/17
f 23/2/18 38/3/16 41/2/18
f 38/3/16 23/2/18 21/3/16

