# Created by Kenney (www.kenney.nl)

mtllib banner-red.mtl

g banner-red

v 0.425 0.9499999 -0.12 1 1 1
v 0.425 0.9499999 -0.2 1 1 1
v 0.375 0.9499999 -0.12 1 1 1
v 0.4 0.9499999 -0.2 1 1 1
v 0.375 0.9499999 -0.2 1 1 1
v 0.425 0.9999999 0.12 1 1 1
v 0.425 0.9999999 0.2 1 1 1
v 0.375 0.9999999 0.12 1 1 1
v 0.375 0.9999999 0.2 1 1 1
v 0.425 0.9999999 -0.2 1 1 1
v 0.425 0.9999999 -0.12 1 1 1
v 0.375 0.9499999 0.12 1 1 1
v 0.375 0.9499999 0.2 1 1 1
v 0.375 0.9999999 -0.2 1 1 1
v 0.375 0.9999999 -0.12 1 1 1
v 0.425 0.9999999 -0.04 1 1 1
v 0.425 0.9999999 0.04 1 1 1
v 0.375 0.9999999 -0.04 1 1 1
v 0.375 0.9999999 0.04 1 1 1
v 0.375 0.9499999 -0.04 1 1 1
v 0.375 0.9499999 0.04 1 1 1
v 0.425 0.9499999 -0.04 1 1 1
v 0.425 0.9499999 0.04 1 1 1
v 0.425 0.9499999 0.2 1 1 1
v 0.425 0.9499999 0.12 1 1 1
v 0.4 0.9499999 0.2 1 1 1
v 0.4 0.95 0.2 1 1 1
v 0.4 0.2906489 0.2 1 1 1
v 0.4 0.95 0.12 1 1 1
v 0.4 0.8903894 0.12 1 1 1
v 0.4 0.3340638 0.12 1 1 1
v 0.4 0.2560638 -1.443823E-15 1 1 1
v 0.4 0.160649 -1.443823E-15 1 1 1
v 0.4 0.3340638 -0.12 1 1 1
v 0.4 0.2906489 -0.2 1 1 1
v 0.4 0.8903894 -0.12 1 1 1
v 0.4 0.95 -0.12 1 1 1
v 0.4 0.95 -0.2 1 1 1
v 0.4 0.8903893 0.12 1 1 1
v 0.4 0.8903893 0.04 1 1 1
v 0.4 0.2560638 -1.443823E-15 1 1 1
v 0.4 0.95 0.04 1 1 1
v 0.4 0.95 -0.04 1 1 1
v 0.4 0.8903893 -0.04 1 1 1
v 0.4 0.8903893 -0.12 1 1 1
v 0.4125 0.9624999 0.25 1 1 1
v 0.3875 0.9624999 0.25 1 1 1
v 0.4125 0.9875 0.25 1 1 1
v 0.3875 0.9875 0.25 1 1 1
v 0.3875 0.9875 -0.25 1 1 1
v 0.3875 0.9624999 -0.25 1 1 1
v 0.4125 0.9624999 -0.25 1 1 1
v 0.4125 0.9875 -0.25 1 1 1

vn 0.7071068 -0.7071068 0
vn -0.7071068 -0.7071068 0
vn 0 -1 0
vn 0.7071068 0.7071068 0
vn -0.7071068 0.7071068 0
vn -0.7071068 -0.7071067 0
vn -1 0 0
vn 1 0 0
vn 0 0 1
vn 0 1 0
vn -0.9701425 0 -0.2425357
vn 0.9701425 0 -0.2425356
vn 0 -0.9701425 -0.2425356
vn 0 -0.9701425 0.2425356
vn 0 0.9701425 0.2425357
vn -0.9701425 0 0.2425356
vn 0.9701425 0 0.2425356
vn 0 0.9701425 -0.2425356
vn 0 0 -1

vt 0.09375 0.02500002
vt 0.09375 0.02500002
vt 0.09375 0.02500002
vt 0.09375 0.225
vt 0.09375 0.225
vt 0.09375 0.02500002
vt 0.09375 0.025
vt 0.09375 0.02500002
vt 0.09375 0.02500002
vt 0.09375 0.02500001
vt 0.09375 0.02500001
vt 0.09375 0.145
vt 0.09375 0.2118246
vt 0.09375 0.1510415
vt 0.09375 0.2074246
vt 0.09375 0.2153298
vt 0.09375 0.03187218
vt 0.09375 0.09600782
vt 0.09375 0.105
vt 0.59375 0.07499999
vt 0.59375 0.175
vt 0.59375 0.02500002
vt 0.59375 0.225
vt 0.59375 0.02500002
vt 0.59375 0.225
vt 0.59375 0.07500002
vt 0.59375 0.02500002
vt 0.59375 0.025
vt 0.59375 0.02500002
vt 0.59375 0.02500002
vt 0.59375 0.02500002
vt 0.59375 0.02500001
vt 0.59375 0.02500001

usemtl colormap

f 3/3/2 2/2/1 1/1/1
f 2/2/1 3/3/2 4/2/3
f 4/2/3 3/3/2 5/2/2
f 8/4/5 7/4/4 6/4/4
f 7/4/4 8/4/5 9/4/5
f 10/5/4 1/1/1 2/2/1
f 1/1/1 10/5/4 11/5/4
f 13/7/2 8/4/5 12/6/6
f 8/4/5 13/7/2 9/4/5
f 14/5/5 11/5/4 10/5/4
f 11/5/4 14/5/5 15/5/5
f 5/2/2 15/5/5 14/5/5
f 15/5/5 5/2/2 3/3/2
f 18/5/5 17/5/4 16/5/4
f 17/5/4 18/5/5 19/5/5
f 21/1/2 18/5/5 20/8/2
f 18/5/5 21/1/2 19/5/5
f 17/5/4 22/9/1 16/5/4
f 22/9/1 17/5/4 23/10/1
f 26/2/3 25/11/1 24/7/1
f 25/11/1 26/2/3 12/6/6
f 12/6/6 26/2/3 13/7/2
f 21/1/2 22/9/1 23/10/1
f 22/9/1 21/1/2 20/8/2
f 7/4/4 25/11/1 6/4/4
f 25/11/1 7/4/4 24/7/1
f 29/12/7 28/13/7 27/12/7
f 30/14/7 28/13/7 29/12/7
f 31/15/7 28/13/7 30/14/7
f 32/16/7 28/13/7 31/15/7
f 32/16/7 33/5/7 28/13/7
f 34/15/7 33/5/7 32/16/7
f 34/15/7 35/13/7 33/5/7
f 35/13/7 34/15/7 36/14/7
f 37/12/7 35/13/7 36/14/7
f 35/13/7 37/12/7 38/12/7
f 27/12/8 28/13/8 29/12/8
f 29/12/8 28/13/8 30/14/8
f 30/14/8 28/13/8 31/15/8
f 31/15/8 28/13/8 32/16/8
f 28/13/8 33/5/8 32/16/8
f 32/16/8 33/5/8 34/15/8
f 33/5/8 35/13/8 34/15/8
f 36/14/8 34/15/8 35/13/8
f 36/14/8 35/13/8 37/12/8
f 38/12/8 37/12/8 35/13/8
f 40/17/7 31/18/7 39/17/7
f 31/18/7 40/17/7 41/19/7
f 42/7/7 41/19/7 40/17/7
f 43/7/7 41/19/7 42/7/7
f 44/17/7 41/19/7 43/7/7
f 44/17/7 34/18/7 41/19/7
f 34/18/7 44/17/7 45/17/7
f 39/17/8 31/18/8 40/17/8
f 41/19/8 40/17/8 31/18/8
f 40/17/8 41/19/8 42/7/8
f 42/7/8 41/19/8 43/7/8
f 43/7/8 41/19/8 44/17/8
f 41/19/8 34/18/8 44/17/8
f 45/17/8 44/17/8 34/18/8
f 48/21/9 47/20/9 46/20/9
f 47/20/9 48/21/9 49/21/9
f 12/24/7 19/23/7 21/22/7
f 19/23/7 12/24/7 8/25/7
f 15/23/10 16/23/10 11/23/10
f 16/23/10 15/23/10 18/23/10
f 51/26/11 14/23/11 50/21/11
f 14/23/11 51/26/11 5/27/11
f 53/21/12 2/27/12 52/26/12
f 2/27/12 53/21/12 10/23/12
f 4/27/13 52/26/13 2/27/13
f 52/26/13 4/27/13 51/26/13
f 51/26/13 4/27/13 5/27/13
f 46/20/14 26/27/14 24/28/14
f 26/27/14 46/20/14 47/20/14
f 26/27/14 47/20/14 13/28/14
f 9/25/15 48/21/15 7/25/15
f 48/21/15 9/25/15 49/21/15
f 47/20/16 9/25/16 13/28/16
f 9/25/16 47/20/16 49/21/16
f 20/30/7 15/23/7 3/29/7
f 15/23/7 20/30/7 18/23/7
f 7/25/17 46/20/17 24/28/17
f 46/20/17 7/25/17 48/21/17
f 53/21/18 14/23/18 10/23/18
f 14/23/18 53/21/18 50/21/18
f 19/23/10 6/25/10 17/23/10
f 6/25/10 19/23/10 8/25/10
f 50/21/19 52/26/19 51/26/19
f 52/26/19 50/21/19 53/21/19
f 11/23/8 22/31/8 1/22/8
f 22/31/8 11/23/8 16/23/8
f 12/24/3 23/33/3 25/32/3
f 23/33/3 12/24/3 21/22/3
f 20/30/3 1/22/3 22/31/3
f 1/22/3 20/30/3 3/29/3
f 6/25/8 23/33/8 17/23/8
f 23/33/8 6/25/8 25/32/8

g banner-red




usemtl colormap

f 3/3/2 2/2/1 1/1/1
f 2/2/1 3/3/2 4/2/3
f 4/2/3 3/3/2 5/2/2
f 8/4/5 7/4/4 6/4/4
f 7/4/4 8/4/5 9/4/5
f 10/5/4 1/1/1 2/2/1
f 1/1/1 10/5/4 11/5/4
f 13/7/2 8/4/5 12/6/6
f 8/4/5 13/7/2 9/4/5
f 14/5/5 11/5/4 10/5/4
f 11/5/4 14/5/5 15/5/5
f 5/2/2 15/5/5 14/5/5
f 15/5/5 5/2/2 3/3/2
f 18/5/5 17/5/4 16/5/4
f 17/5/4 18/5/5 19/5/5
f 21/1/2 18/5/5 20/8/2
f 18/5/5 21/1/2 19/5/5
f 17/5/4 22/9/1 16/5/4
f 22/9/1 17/5/4 23/10/1
f 26/2/3 25/11/1 24/7/1
f 25/11/1 26/2/3 12/6/6
f 12/6/6 26/2/3 13/7/2
f 21/1/2 22/9/1 23/10/1
f 22/9/1 21/1/2 20/8/2
f 7/4/4 25/11/1 6/4/4
f 25/11/1 7/4/4 24/7/1
f 29/12/7 28/13/7 27/12/7
f 30/14/7 28/13/7 29/12/7
f 31/15/7 28/13/7 30/14/7
f 32/16/7 28/13/7 31/15/7
f 32/16/7 33/5/7 28/13/7
f 34/15/7 33/5/7 32/16/7
f 34/15/7 35/13/7 33/5/7
f 35/13/7 34/15/7 36/14/7
f 37/12/7 35/13/7 36/14/7
f 35/13/7 37/12/7 38/12/7
f 27/12/8 28/13/8 29/12/8
f 29/12/8 28/13/8 30/14/8
f 30/14/8 28/13/8 31/15/8
f 31/15/8 28/13/8 32/16/8
f 28/13/8 33/5/8 32/16/8
f 32/16/8 33/5/8 34/15/8
f 33/5/8 35/13/8 34/15/8
f 36/14/8 34/15/8 35/13/8
f 36/14/8 35/13/8 37/12/8
f 38/12/8 37/12/8 35/13/8
f 40/17/7 31/18/7 39/17/7
f 31/18/7 40/17/7 41/19/7
f 42/7/7 41/19/7 40/17/7
f 43/7/7 41/19/7 42/7/7
f 44/17/7 41/19/7 43/7/7
f 44/17/7 34/18/7 41/19/7
f 34/18/7 44/17/7 45/17/7
f 39/17/8 31/18/8 40/17/8
f 41/19/8 40/17/8 31/18/8
f 40/17/8 41/19/8 42/7/8
f 42/7/8 41/19/8 43/7/8
f 43/7/8 41/19/8 44/17/8
f 41/19/8 34/18/8 44/17/8
f 45/17/8 44/17/8 34/18/8
f 48/21/9 47/20/9 46/20/9
f 47/20/9 48/21/9 49/21/9
f 12/24/7 19/23/7 21/22/7
f 19/23/7 12/24/7 8/25/7
f 15/23/10 16/23/10 11/23/10
f 16/23/10 15/23/10 18/23/10
f 51/26/11 14/23/11 50/21/11
f 14/23/11 51/26/11 5/27/11
f 53/21/12 2/27/12 52/26/12
f 2/27/12 53/21/12 10/23/12
f 4/27/13 52/26/13 2/27/13
f 52/26/13 4/27/13 51/26/13
f 51/26/13 4/27/13 5/27/13
f 46/20/14 26/27/14 24/28/14
f 26/27/14 46/20/14 47/20/14
f 26/27/14 47/20/14 13/28/14
f 9/25/15 48/21/15 7/25/15
f 48/21/15 9/25/15 49/21/15
f 47/20/16 9/25/16 13/28/16
f 9/25/16 47/20/16 49/21/16
f 20/30/7 15/23/7 3/29/7
f 15/23/7 20/30/7 18/23/7
f 7/25/17 46/20/17 24/28/17
f 46/20/17 7/25/17 48/21/17
f 53/21/18 14/23/18 10/23/18
f 14/23/18 53/21/18 50/21/18
f 19/23/10 6/25/10 17/23/10
f 6/25/10 19/23/10 8/25/10
f 50/21/19 52/26/19 51/26/19
f 52/26/19 50/21/19 53/21/19
f 11/23/8 22/31/8 1/22/8
f 22/31/8 11/23/8 16/23/8
f 12/24/3 23/33/3 25/32/3
f 23/33/3 12/24/3 21/22/3
f 20/30/3 1/22/3 22/31/3
f 1/22/3 20/30/3 3/29/3
f 6/25/8 23/33/8 17/23/8
f 23/33/8 6/25/8 25/32/8

