# Created by Kenney (www.kenney.nl)

mtllib blade.mtl

g blade

v 0.0355 0.25 0.0355 1 1 1
v 0.0555 0 0.0255 1 1 1
v 0.0255 0 0.0555 1 1 1
v 0.0355 0.25 -0.0355 1 1 1
v 0.0255 0 -0.0555 1 1 1
v 0.0555 0 -0.0255 1 1 1
v -0.0555 5.639933E-18 0.0255 1 1 1
v -0.0355 0.25 0.0355 1 1 1
v -0.0255 0 0.0555 1 1 1
v -0.0255 0 -0.0555 1 1 1
v -0.0355 0.25 -0.0355 1 1 1
v -0.0555 0 -0.0255 1 1 1
v 0.0355 2 -0.0355 1 1 1
v 0.0355 2 0.0355 1 1 1
v -0.0355 2 -0.0355 1 1 1
v -0.0355 2 0.0355 1 1 1
v -0.02025 0.4247 0.03550001 1 1 1
v -0.02025 0.4247 0.374875 1 1 1
v -0.02025 0.3842 0.0355 1 1 1
v -0.02025 0.3841999 0.374875 1 1 1
v 0.02025 0.4247 0.03550001 1 1 1
v 0.02025 0.4247 0.374875 1 1 1
v 0.02025 0.3841999 0.374875 1 1 1
v 0.02025 0.3842 0.0355 1 1 1
v -0.0151875 0.3842 0.0355 1 1 1
v -0.02025 0.9477028 0.0355 1 1 1
v -0.02025 0.9477028 0.374875 1 1 1
v -0.02025 0.9072028 0.03549999 1 1 1
v -0.02025 0.9072028 0.374875 1 1 1
v 0.02025 0.9477028 0.0355 1 1 1
v 0.02025 0.9477028 0.374875 1 1 1
v 0.02025 0.9072028 0.374875 1 1 1
v 0.02025 0.9072028 0.03549999 1 1 1
v -0.0151875 0.9072028 0.03549999 1 1 1
v -0.02025 1.447703 0.0355 1 1 1
v -0.02025 1.447703 0.374875 1 1 1
v -0.02025 1.407203 0.03549999 1 1 1
v -0.02025 1.407203 0.374875 1 1 1
v 0.02025 1.447703 0.0355 1 1 1
v 0.02025 1.447703 0.374875 1 1 1
v 0.02025 1.407203 0.374875 1 1 1
v 0.02025 1.407203 0.03549999 1 1 1
v -0.0151875 1.407203 0.03549999 1 1 1
v -0.02025 1.971 0.03550001 1 1 1
v -0.02025 1.971 0.374875 1 1 1
v -0.02025 1.9305 0.0355 1 1 1
v -0.02025 1.9305 0.374875 1 1 1
v 0.02025 1.971 0.03550001 1 1 1
v 0.02025 1.971 0.374875 1 1 1
v 0.02025 1.9305 0.374875 1 1 1
v 0.02025 1.9305 0.0355 1 1 1
v -0.0151875 1.9305 0.0355 1 1 1
v -0.0555 1.1501 -0.0305 1 1 1
v -0.0555 1.2051 -0.0305 1 1 1
v -0.0555 1.1501 0.0305 1 1 1
v -0.0555 1.2051 0.0305 1 1 1
v 0.0555 1.2051 -0.0305 1 1 1
v 0.0555 1.1501 -0.0305 1 1 1
v 0.0555 1.2051 0.0305 1 1 1
v 0.0555 1.1501 0.0305 1 1 1
v 0.0305 1.1501 0.0555 1 1 1
v -0.0305 1.1501 0.0555 1 1 1
v 0.0305 1.2051 0.0555 1 1 1
v -0.0305 1.2051 0.0555 1 1 1
v -0.0305 1.1501 -0.0555 1 1 1
v 0.0305 1.1501 -0.0555 1 1 1
v -0.0305 1.2051 -0.0555 1 1 1
v 0.0305 1.2051 -0.0555 1 1 1
v -0.0555 0.6384514 -0.0305 1 1 1
v -0.0555 0.6934514 -0.0305 1 1 1
v -0.0555 0.6384514 0.0305 1 1 1
v -0.0555 0.6934514 0.0305 1 1 1
v 0.0555 0.6934514 -0.0305 1 1 1
v 0.0555 0.6384514 -0.0305 1 1 1
v 0.0555 0.6934514 0.0305 1 1 1
v 0.0555 0.6384514 0.0305 1 1 1
v 0.0305 0.6384514 0.0555 1 1 1
v -0.0305 0.6384514 0.0555 1 1 1
v 0.0305 0.6934514 0.0555 1 1 1
v -0.0305 0.6934514 0.0555 1 1 1
v -0.0305 0.6384514 -0.0555 1 1 1
v 0.0305 0.6384514 -0.0555 1 1 1
v -0.0305 0.6934514 -0.0555 1 1 1
v 0.0305 0.6934514 -0.0555 1 1 1
v -0.0555 1.661454 -0.0305 1 1 1
v -0.0555 1.716454 -0.0305 1 1 1
v -0.0555 1.661454 0.0305 1 1 1
v -0.0555 1.716454 0.0305 1 1 1
v 0.0555 1.716454 -0.0305 1 1 1
v 0.0555 1.661454 -0.0305 1 1 1
v 0.0555 1.716454 0.0305 1 1 1
v 0.0555 1.661454 0.0305 1 1 1
v 0.0305 1.661454 0.0555 1 1 1
v -0.0305 1.661454 0.0555 1 1 1
v 0.0305 1.716454 0.0555 1 1 1
v -0.0305 1.716454 0.0555 1 1 1
v -0.0305 1.661454 -0.0555 1 1 1
v 0.0305 1.661454 -0.0555 1 1 1
v -0.0305 1.716454 -0.0555 1 1 1
v 0.0305 1.716454 -0.0555 1 1 1
v 0 0.9072028 0.05550002 1 1 1
v 0.025 0.6659514 0.05550002 1 1 1
v 0 0.9072028 0.3545763 1 1 1
v 0.025 0.6659514 0.3545763 1 1 1
v 0 0.4247 0.05550002 1 1 1
v 0 0.4247 0.3545763 1 1 1
v 0 1.430206 0.05550002 1 1 1
v 0.025 1.188954 0.05550002 1 1 1
v 0 1.430206 0.3545763 1 1 1
v 0.025 1.188954 0.3545763 1 1 1
v 0 0.9477028 0.05550002 1 1 1
v 0 0.9477028 0.3545763 1 1 1
v 0 1.930206 0.05550002 1 1 1
v 0.025 1.688954 0.05550002 1 1 1
v 0 1.930206 0.3545763 1 1 1
v 0.025 1.688954 0.3545763 1 1 1
v 0 1.447703 0.05550002 1 1 1
v 0 1.447703 0.3545763 1 1 1

vn 0.7068241 0.02827296 0.7068241
vn 0.7068241 0.02827296 -0.7068241
vn -0.7068241 0.02827296 0.7068241
vn -0.7068241 0.02827296 -0.7068241
vn 0 1 0
vn 1 0 0
vn 0.9992238 0.03939169 0
vn 0 0.03939169 0.9992238
vn 0 0 1
vn -0.9992238 0.03939169 0
vn -1 0 0
vn 0 0.03939169 -0.9992238
vn 0 0 -1
vn -0.9968153 0.07974523 0
vn 0 0.07974523 -0.9968153
vn 0 0.07974523 0.9968153
vn 0 -1 0
vn 0.9968153 0.07974523 0
vn 0 1 1.192093E-07
vn 0 -1.192093E-07 1
vn 0 -1 -1.192093E-07
vn -0.9238795 0 -0.3826834
vn -0.9238795 0 0.3826834
vn 0.9238795 0 -0.3826834
vn 0.9238795 0 0.3826834
vn 0.3826834 0 0.9238795
vn -0.3826834 0 0.9238795
vn -0.3826834 0 -0.9238795
vn 0.3826834 0 -0.9238795
vn 0.9946737 0.1030744 0
vn -0.9946737 -0.1030744 0
vn 0.9946737 -0.1030744 0
vn -0.9946737 0.1030744 0

vt 0.59375 0.05
vt 0.59375 0.025
vt 0.59375 0.225
vt 0.59375 0.075
vt 0.59375 0.175
vt 0.34375 0.075
vt 0.34375 0.175
vt 0.34375 0.125

usemtl colormap

f 3/2/1 2/2/1 1/1/1
f 6/2/2 5/2/2 4/1/2
f 9/2/3 8/1/3 7/2/3
f 12/2/4 11/1/4 10/2/4
f 15/3/5 14/3/5 13/3/5
f 14/3/5 15/3/5 16/3/5
f 14/3/6 4/1/7 13/3/6
f 4/1/7 14/3/6 1/1/7
f 14/3/9 8/1/8 1/1/8
f 8/1/8 14/3/9 16/3/9
f 8/1/10 15/3/11 11/1/10
f 15/3/11 8/1/10 16/3/11
f 15/3/13 4/1/12 11/1/12
f 4/1/12 15/3/13 13/3/13
f 12/2/14 8/1/10 11/1/10
f 8/1/10 12/2/14 7/2/14
f 11/1/12 5/2/15 10/2/15
f 5/2/15 11/1/12 4/1/12
f 1/1/8 9/2/16 3/2/16
f 9/2/16 1/1/8 8/1/8
f 3/2/17 6/2/17 2/2/17
f 6/2/17 3/2/17 5/2/17
f 5/2/17 3/2/17 9/2/17
f 5/2/17 9/2/17 10/2/17
f 10/2/17 9/2/17 7/2/17
f 10/2/17 7/2/17 12/2/17
f 1/1/7 6/2/18 4/1/7
f 6/2/18 1/1/7 2/2/18
f 19/4/11 18/5/11 17/4/11
f 18/5/11 19/4/11 20/5/11
f 18/5/19 21/4/19 17/4/19
f 21/4/19 18/5/19 22/5/19
f 18/5/20 23/5/20 22/5/20
f 23/5/20 18/5/20 20/5/20
f 23/5/21 25/4/21 24/4/21
f 25/4/21 23/5/21 19/4/21
f 19/4/21 23/5/21 20/5/21
f 22/5/6 24/4/6 21/4/6
f 24/4/6 22/5/6 23/5/6
f 28/4/11 27/5/11 26/4/11
f 27/5/11 28/4/11 29/5/11
f 27/5/19 30/4/19 26/4/19
f 30/4/19 27/5/19 31/5/19
f 27/5/20 32/5/20 31/5/20
f 32/5/20 27/5/20 29/5/20
f 32/5/21 34/4/21 33/4/21
f 34/4/21 32/5/21 28/4/21
f 28/4/21 32/5/21 29/5/21
f 31/5/6 33/4/6 30/4/6
f 33/4/6 31/5/6 32/5/6
f 37/4/11 36/5/11 35/4/11
f 36/5/11 37/4/11 38/5/11
f 36/5/19 39/4/19 35/4/19
f 39/4/19 36/5/19 40/5/19
f 36/5/20 41/5/20 40/5/20
f 41/5/20 36/5/20 38/5/20
f 41/5/21 43/4/21 42/4/21
f 43/4/21 41/5/21 37/4/21
f 37/4/21 41/5/21 38/5/21
f 40/5/6 42/4/6 39/4/6
f 42/4/6 40/5/6 41/5/6
f 46/4/11 45/5/11 44/4/11
f 45/5/11 46/4/11 47/5/11
f 45/5/19 48/4/19 44/4/19
f 48/4/19 45/5/19 49/5/19
f 45/5/20 50/5/20 49/5/20
f 50/5/20 45/5/20 47/5/20
f 50/5/21 52/4/21 51/4/21
f 52/4/21 50/5/21 46/4/21
f 46/4/21 50/5/21 47/5/21
f 49/5/6 51/4/6 48/4/6
f 51/4/6 49/5/6 50/5/6
f 55/6/23 54/7/22 53/6/22
f 54/7/22 55/6/23 56/7/23
f 59/7/25 58/6/24 57/7/24
f 58/6/24 59/7/25 60/6/25
f 63/7/26 62/6/27 61/6/26
f 62/6/27 63/7/26 64/7/27
f 67/7/28 66/6/29 65/6/28
f 66/6/29 67/7/28 68/7/29
f 63/7/26 60/6/25 59/7/25
f 60/6/25 63/7/26 61/6/26
f 53/6/22 67/7/28 65/6/28
f 67/7/28 53/6/22 54/7/22
f 62/6/27 56/7/23 55/6/23
f 56/7/23 62/6/27 64/7/27
f 57/7/24 66/6/29 68/7/29
f 66/6/29 57/7/24 58/6/24
f 68/7/5 59/7/5 57/7/5
f 59/7/5 68/7/5 63/7/5
f 63/7/5 68/7/5 67/7/5
f 63/7/5 67/7/5 64/7/5
f 64/7/5 67/7/5 54/7/5
f 64/7/5 54/7/5 56/7/5
f 61/6/17 58/6/17 60/6/17
f 58/6/17 61/6/17 66/6/17
f 66/6/17 61/6/17 62/6/17
f 66/6/17 62/6/17 65/6/17
f 65/6/17 62/6/17 55/6/17
f 65/6/17 55/6/17 53/6/17
f 71/6/23 70/7/22 69/6/22
f 70/7/22 71/6/23 72/7/23
f 75/7/25 74/6/24 73/7/24
f 74/6/24 75/7/25 76/6/25
f 79/7/26 78/6/27 77/6/26
f 78/6/27 79/7/26 80/7/27
f 83/7/28 82/6/29 81/6/28
f 82/6/29 83/7/28 84/7/29
f 79/7/26 76/6/25 75/7/25
f 76/6/25 79/7/26 77/6/26
f 69/6/22 83/7/28 81/6/28
f 83/7/28 69/6/22 70/7/22
f 78/6/27 72/7/23 71/6/23
f 72/7/23 78/6/27 80/7/27
f 73/7/24 82/6/29 84/7/29
f 82/6/29 73/7/24 74/6/24
f 84/7/5 75/7/5 73/7/5
f 75/7/5 84/7/5 79/7/5
f 79/7/5 84/7/5 83/7/5
f 79/7/5 83/7/5 80/7/5
f 80/7/5 83/7/5 70/7/5
f 80/7/5 70/7/5 72/7/5
f 77/6/17 74/6/17 76/6/17
f 74/6/17 77/6/17 82/6/17
f 82/6/17 77/6/17 78/6/17
f 82/6/17 78/6/17 81/6/17
f 81/6/17 78/6/17 71/6/17
f 81/6/17 71/6/17 69/6/17
f 87/6/23 86/7/22 85/6/22
f 86/7/22 87/6/23 88/7/23
f 91/7/25 90/6/24 89/7/24
f 90/6/24 91/7/25 92/6/25
f 95/7/26 94/6/27 93/6/26
f 94/6/27 95/7/26 96/7/27
f 99/7/28 98/6/29 97/6/28
f 98/6/29 99/7/28 100/7/29
f 95/7/26 92/6/25 91/7/25
f 92/6/25 95/7/26 93/6/26
f 85/6/22 99/7/28 97/6/28
f 99/7/28 85/6/22 86/7/22
f 94/6/27 88/7/23 87/6/23
f 88/7/23 94/6/27 96/7/27
f 89/7/24 98/6/29 100/7/29
f 98/6/29 89/7/24 90/6/24
f 100/7/5 91/7/5 89/7/5
f 91/7/5 100/7/5 95/7/5
f 95/7/5 100/7/5 99/7/5
f 95/7/5 99/7/5 96/7/5
f 96/7/5 99/7/5 86/7/5
f 96/7/5 86/7/5 88/7/5
f 93/6/17 90/6/17 92/6/17
f 90/6/17 93/6/17 98/6/17
f 98/6/17 93/6/17 94/6/17
f 98/6/17 94/6/17 97/6/17
f 97/6/17 94/6/17 87/6/17
f 97/6/17 87/6/17 85/6/17
f 103/7/30 102/8/6 101/7/30
f 102/8/6 103/7/30 104/8/6
f 101/7/31 102/8/11 103/7/31
f 104/8/11 103/7/31 102/8/11
f 104/8/6 105/6/32 102/8/6
f 105/6/32 104/8/6 106/6/32
f 102/8/11 105/6/33 104/8/11
f 106/6/33 104/8/11 105/6/33
f 109/7/30 108/8/6 107/7/30
f 108/8/6 109/7/30 110/8/6
f 107/7/31 108/8/11 109/7/31
f 110/8/11 109/7/31 108/8/11
f 110/8/6 111/6/32 108/8/6
f 111/6/32 110/8/6 112/6/32
f 108/8/11 111/6/33 110/8/11
f 112/6/33 110/8/11 111/6/33
f 115/7/30 114/8/6 113/7/30
f 114/8/6 115/7/30 116/8/6
f 113/7/31 114/8/11 115/7/31
f 116/8/11 115/7/31 114/8/11
f 116/8/6 117/6/32 114/8/6
f 117/6/32 116/8/6 118/6/32
f 114/8/11 117/6/33 116/8/11
f 118/6/33 116/8/11 117/6/33

g blade




usemtl colormap

f 3/2/1 2/2/1 1/1/1
f 6/2/2 5/2/2 4/1/2
f 9/2/3 8/1/3 7/2/3
f 12/2/4 11/1/4 10/2/4
f 15/3/5 14/3/5 13/3/5
f 14/3/5 15/3/5 16/3/5
f 14/3/6 4/1/7 13/3/6
f 4/1/7 14/3/6 1/1/7
f 14/3/9 8/1/8 1/1/8
f 8/1/8 14/3/9 16/3/9
f 8/1/10 15/3/11 11/1/10
f 15/3/11 8/1/10 16/3/11
f 15/3/13 4/1/12 11/1/12
f 4/1/12 15/3/13 13/3/13
f 12/2/14 8/1/10 11/1/10
f 8/1/10 12/2/14 7/2/14
f 11/1/12 5/2/15 10/2/15
f 5/2/15 11/1/12 4/1/12
f 1/1/8 9/2/16 3/2/16
f 9/2/16 1/1/8 8/1/8
f 3/2/17 6/2/17 2/2/17
f 6/2/17 3/2/17 5/2/17
f 5/2/17 3/2/17 9/2/17
f 5/2/17 9/2/17 10/2/17
f 10/2/17 9/2/17 7/2/17
f 10/2/17 7/2/17 12/2/17
f 1/1/7 6/2/18 4/1/7
f 6/2/18 1/1/7 2/2/18
f 19/4/11 18/5/11 17/4/11
f 18/5/11 19/4/11 20/5/11
f 18/5/19 21/4/19 17/4/19
f 21/4/19 18/5/19 22/5/19
f 18/5/20 23/5/20 22/5/20
f 23/5/20 18/5/20 20/5/20
f 23/5/21 25/4/21 24/4/21
f 25/4/21 23/5/21 19/4/21
f 19/4/21 23/5/21 20/5/21
f 22/5/6 24/4/6 21/4/6
f 24/4/6 22/5/6 23/5/6
f 28/4/11 27/5/11 26/4/11
f 27/5/11 28/4/11 29/5/11
f 27/5/19 30/4/19 26/4/19
f 30/4/19 27/5/19 31/5/19
f 27/5/20 32/5/20 31/5/20
f 32/5/20 27/5/20 29/5/20
f 32/5/21 34/4/21 33/4/21
f 34/4/21 32/5/21 28/4/21
f 28/4/21 32/5/21 29/5/21
f 31/5/6 33/4/6 30/4/6
f 33/4/6 31/5/6 32/5/6
f 37/4/11 36/5/11 35/4/11
f 36/5/11 37/4/11 38/5/11
f 36/5/19 39/4/19 35/4/19
f 39/4/19 36/5/19 40/5/19
f 36/5/20 41/5/20 40/5/20
f 41/5/20 36/5/20 38/5/20
f 41/5/21 43/4/21 42/4/21
f 43/4/21 41/5/21 37/4/21
f 37/4/21 41/5/21 38/5/21
f 40/5/6 42/4/6 39/4/6
f 42/4/6 40/5/6 41/5/6
f 46/4/11 45/5/11 44/4/11
f 45/5/11 46/4/11 47/5/11
f 45/5/19 48/4/19 44/4/19
f 48/4/19 45/5/19 49/5/19
f 45/5/20 50/5/20 49/5/20
f 50/5/20 45/5/20 47/5/20
f 50/5/21 52/4/21 51/4/21
f 52/4/21 50/5/21 46/4/21
f 46/4/21 50/5/21 47/5/21
f 49/5/6 51/4/6 48/4/6
f 51/4/6 49/5/6 50/5/6
f 55/6/23 54/7/22 53/6/22
f 54/7/22 55/6/23 56/7/23
f 59/7/25 58/6/24 57/7/24
f 58/6/24 59/7/25 60/6/25
f 63/7/26 62/6/27 61/6/26
f 62/6/27 63/7/26 64/7/27
f 67/7/28 66/6/29 65/6/28
f 66/6/29 67/7/28 68/7/29
f 63/7/26 60/6/25 59/7/25
f 60/6/25 63/7/26 61/6/26
f 53/6/22 67/7/28 65/6/28
f 67/7/28 53/6/22 54/7/22
f 62/6/27 56/7/23 55/6/23
f 56/7/23 62/6/27 64/7/27
f 57/7/24 66/6/29 68/7/29
f 66/6/29 57/7/24 58/6/24
f 68/7/5 59/7/5 57/7/5
f 59/7/5 68/7/5 63/7/5
f 63/7/5 68/7/5 67/7/5
f 63/7/5 67/7/5 64/7/5
f 64/7/5 67/7/5 54/7/5
f 64/7/5 54/7/5 56/7/5
f 61/6/17 58/6/17 60/6/17
f 58/6/17 61/6/17 66/6/17
f 66/6/17 61/6/17 62/6/17
f 66/6/17 62/6/17 65/6/17
f 65/6/17 62/6/17 55/6/17
f 65/6/17 55/6/17 53/6/17
f 71/6/23 70/7/22 69/6/22
f 70/7/22 71/6/23 72/7/23
f 75/7/25 74/6/24 73/7/24
f 74/6/24 75/7/25 76/6/25
f 79/7/26 78/6/27 77/6/26
f 78/6/27 79/7/26 80/7/27
f 83/7/28 82/6/29 81/6/28
f 82/6/29 83/7/28 84/7/29
f 79/7/26 76/6/25 75/7/25
f 76/6/25 79/7/26 77/6/26
f 69/6/22 83/7/28 81/6/28
f 83/7/28 69/6/22 70/7/22
f 78/6/27 72/7/23 71/6/23
f 72/7/23 78/6/27 80/7/27
f 73/7/24 82/6/29 84/7/29
f 82/6/29 73/7/24 74/6/24
f 84/7/5 75/7/5 73/7/5
f 75/7/5 84/7/5 79/7/5
f 79/7/5 84/7/5 83/7/5
f 79/7/5 83/7/5 80/7/5
f 80/7/5 83/7/5 70/7/5
f 80/7/5 70/7/5 72/7/5
f 77/6/17 74/6/17 76/6/17
f 74/6/17 77/6/17 82/6/17
f 82/6/17 77/6/17 78/6/17
f 82/6/17 78/6/17 81/6/17
f 81/6/17 78/6/17 71/6/17
f 81/6/17 71/6/17 69/6/17
f 87/6/23 86/7/22 85/6/22
f 86/7/22 87/6/23 88/7/23
f 91/7/25 90/6/24 89/7/24
f 90/6/24 91/7/25 92/6/25
f 95/7/26 94/6/27 93/6/26
f 94/6/27 95/7/26 96/7/27
f 99/7/28 98/6/29 97/6/28
f 98/6/29 99/7/28 100/7/29
f 95/7/26 92/6/25 91/7/25
f 92/6/25 95/7/26 93/6/26
f 85/6/22 99/7/28 97/6/28
f 99/7/28 85/6/22 86/7/22
f 94/6/27 88/7/23 87/6/23
f 88/7/23 94/6/27 96/7/27
f 89/7/24 98/6/29 100/7/29
f 98/6/29 89/7/24 90/6/24
f 100/7/5 91/7/5 89/7/5
f 91/7/5 100/7/5 95/7/5
f 95/7/5 100/7/5 99/7/5
f 95/7/5 99/7/5 96/7/5
f 96/7/5 99/7/5 86/7/5
f 96/7/5 86/7/5 88/7/5
f 93/6/17 90/6/17 92/6/17
f 90/6/17 93/6/17 98/6/17
f 98/6/17 93/6/17 94/6/17
f 98/6/17 94/6/17 97/6/17
f 97/6/17 94/6/17 87/6/17
f 97/6/17 87/6/17 85/6/17
f 103/7/30 102/8/6 101/7/30
f 102/8/6 103/7/30 104/8/6
f 101/7/31 102/8/11 103/7/31
f 104/8/11 103/7/31 102/8/11
f 104/8/6 105/6/32 102/8/6
f 105/6/32 104/8/6 106/6/32
f 102/8/11 105/6/33 104/8/11
f 106/6/33 104/8/11 105/6/33
f 109/7/30 108/8/6 107/7/30
f 108/8/6 109/7/30 110/8/6
f 107/7/31 108/8/11 109/7/31
f 110/8/11 109/7/31 108/8/11
f 110/8/6 111/6/32 108/8/6
f 111/6/32 110/8/6 112/6/32
f 108/8/11 111/6/33 110/8/11
f 112/6/33 110/8/11 111/6/33
f 115/7/30 114/8/6 113/7/30
f 114/8/6 115/7/30 116/8/6
f 113/7/31 114/8/11 115/7/31
f 116/8/11 115/7/31 114/8/11
f 116/8/6 117/6/32 114/8/6
f 117/6/32 116/8/6 118/6/32
f 114/8/11 117/6/33 116/8/11
f 118/6/33 116/8/11 117/6/33

