# Created by Kenney (www.kenney.nl)

mtllib chimney.mtl

g chimney

v 0.425 0 0.13 1 1 1
v 0.425 0 -0.13 1 1 1
v 0.2530917 0 0.13 1 1 1
v 0.2530917 0 -0.13 1 1 1
v 0.425 1 -0.13 1 1 1
v 0.425 1 0.13 1 1 1
v 0.2530917 1 -0.13 1 1 1
v 0.2530917 1 0.13 1 1 1
v 0.2630917 0.375 -0.17 1 1 1
v 0.425 0.375 -0.17 1 1 1
v 0.2630917 0.625 -0.17 1 1 1
v 0.425 0.625 -0.17 1 1 1
v 0.425 0.625 0.17 1 1 1
v 0.425 0.375 0.17 1 1 1
v 0.2130917 0.375 -0.12 1 1 1
v 0.2130917 0.625 -0.12 1 1 1
v 0.2130917 0.375 0.12 1 1 1
v 0.2130917 0.625 0.12 1 1 1
v 0.2630917 0.375 0.17 1 1 1
v 0.2630917 0.625 0.17 1 1 1

vn 0 -1 0
vn 0 1 0
vn 0 0 -1
vn 1 0 0
vn 0 0 1
vn -1 0 0
vn -0.3051836 0 -0.9522935
vn -0.9055126 0 -0.4243195
vn -0.9055126 0 0.4243195
vn -0.3051836 0 0.9522935

vt 0.96875 0.075
vt 0.96875 0.175
vt 0.21875 0.325
vt 0.21875 0.425

usemtl colormap

f 3/1/1 2/1/1 1/1/1
f 2/1/1 3/1/1 4/1/1
f 7/2/2 6/2/2 5/2/2
f 6/2/2 7/2/2 8/2/2
f 7/2/3 2/1/3 4/1/3
f 2/1/3 7/2/3 5/2/3
f 6/2/4 2/1/4 5/2/4
f 2/1/4 6/2/4 1/1/4
f 6/2/5 3/1/5 1/1/5
f 3/1/5 6/2/5 8/2/5
f 3/1/6 7/2/6 4/1/6
f 7/2/6 3/1/6 8/2/6
f 11/4/7 10/3/3 9/3/7
f 10/3/3 11/4/7 12/4/3
f 13/4/4 10/3/4 12/4/4
f 10/3/4 13/4/4 14/3/4
f 17/3/9 16/4/8 15/3/8
f 16/4/8 17/3/9 18/4/9
f 13/4/5 19/3/10 14/3/5
f 19/3/10 13/4/5 20/4/10
f 15/3/8 11/4/7 9/3/7
f 11/4/7 15/3/8 16/4/8
f 19/3/10 18/4/9 17/3/9
f 18/4/9 19/3/10 20/4/10
f 11/4/2 13/4/2 12/4/2
f 13/4/2 11/4/2 20/4/2
f 20/4/2 11/4/2 16/4/2
f 20/4/2 16/4/2 18/4/2
f 19/3/1 10/3/1 14/3/1
f 10/3/1 19/3/1 9/3/1
f 9/3/1 19/3/1 17/3/1
f 9/3/1 17/3/1 15/3/1

g chimney




usemtl colormap

f 3/1/1 2/1/1 1/1/1
f 2/1/1 3/1/1 4/1/1
f 7/2/2 6/2/2 5/2/2
f 6/2/2 7/2/2 8/2/2
f 7/2/3 2/1/3 4/1/3
f 2/1/3 7/2/3 5/2/3
f 6/2/4 2/1/4 5/2/4
f 2/1/4 6/2/4 1/1/4
f 6/2/5 3/1/5 1/1/5
f 3/1/5 6/2/5 8/2/5
f 3/1/6 7/2/6 4/1/6
f 7/2/6 3/1/6 8/2/6
f 11/4/7 10/3/3 9/3/7
f 10/3/3 11/4/7 12/4/3
f 13/4/4 10/3/4 12/4/4
f 10/3/4 13/4/4 14/3/4
f 17/3/9 16/4/8 15/3/8
f 16/4/8 17/3/9 18/4/9
f 13/4/5 19/3/10 14/3/5
f 19/3/10 13/4/5 20/4/10
f 15/3/8 11/4/7 9/3/7
f 11/4/7 15/3/8 16/4/8
f 19/3/10 18/4/9 17/3/9
f 18/4/9 19/3/10 20/4/10
f 11/4/2 13/4/2 12/4/2
f 13/4/2 11/4/2 20/4/2
f 20/4/2 11/4/2 16/4/2
f 20/4/2 16/4/2 18/4/2
f 19/3/1 10/3/1 14/3/1
f 10/3/1 19/3/1 9/3/1
f 9/3/1 19/3/1 17/3/1
f 9/3/1 17/3/1 15/3/1

