# Created by Kenney (www.kenney.nl)

mtllib hedge-gate.mtl

g hedge-gate

v 0.25 0 -0.5 1 1 1
v 0.5 0 -0.5 1 1 1
v 0.25 0.1 -0.5 1 1 1
v 0.5 0.1 -0.5 1 1 1
v 0.4375 0 -0.2 1 1 1
v 0.3125 0 -0.2 1 1 1
v 0.4375 0.1 -0.2 1 1 1
v 0.3125 0.1 -0.2 1 1 1
v 0.25 0 -0.2625 1 1 1
v 0.25 0.1 -0.2625 1 1 1
v 0.5 0.1 -0.2625 1 1 1
v 0.5 0 -0.2625 1 1 1
v 0.25 0 0.2625 1 1 1
v 0.25 0.1 0.2625 1 1 1
v 0.25 0 0.5 1 1 1
v 0.25 0.1 0.5 1 1 1
v 0.5 0.1 0.2625 1 1 1
v 0.5 0 0.2625 1 1 1
v 0.5 0.1 0.5 1 1 1
v 0.5 0 0.5 1 1 1
v 0.3125 0 0.2 1 1 1
v 0.4375 0 0.2 1 1 1
v 0.3125 0.1 0.2 1 1 1
v 0.4375 0.1 0.2 1 1 1
v 0.4375 0.22 -0.5 1 1 1
v 0.4375 0.1 -0.5 1 1 1
v 0.4375 0.195 -0.2625 1 1 1
v 0.4375 0.1 -0.2625 1 1 1
v 0.3125 0.1 -0.5 1 1 1
v 0.3125 0.22 -0.5 1 1 1
v 0.3125 0.1 -0.2625 1 1 1
v 0.3125 0.195 -0.2625 1 1 1
v 0.4075 0.25 -0.5 1 1 1
v 0.4075 0.225 -0.2625 1 1 1
v 0.3425 0.25 -0.5 1 1 1
v 0.3425 0.225 -0.2625 1 1 1
v 0.4075 0.225 0.2625 1 1 1
v 0.4375 0.195 0.2625 1 1 1
v 0.4075 0.25 0.5 1 1 1
v 0.4375 0.22 0.5 1 1 1
v 0.4375 0.1 0.2625 1 1 1
v 0.4375 0.1 0.5 1 1 1
v 0.3125 0.1 0.5 1 1 1
v 0.3125 0.22 0.5 1 1 1
v 0.3425 0.25 0.5 1 1 1
v 0.3425 0.225 0.2625 1 1 1
v 0.3125 0.1 0.2625 1 1 1
v 0.3125 0.195 0.2625 1 1 1

vn 0 0 -1
vn 0.3826834 0 0.9238795
vn -0.3826834 0 0.9238795
vn -1 0 0
vn -0.9238795 0 0.3826834
vn 1 0 0
vn 0.9238795 0 0.3826834
vn 0 -1 0
vn -0.9238795 0 -0.3826834
vn 0.9238795 0 -0.3826834
vn 0 0 1
vn -0.3826834 0 -0.9238795
vn 0.3826834 0 -0.9238795
vn 0 1 0
vn 0.9139047 0.4036985 0.04249458
vn 0.9321023 0.3602053 0.03791634
vn -0.9139047 0.4036985 0.04249458
vn -0.9321023 0.3602053 0.03791634
vn 0.3721796 0.923061 0.0971643
vn 0.3901808 0.9156792 0.0963873
vn -0.3721796 0.923061 0.0971643
vn -0.3901808 0.9156792 0.0963873
vn 0.3901808 0.9156792 -0.0963873
vn 0.9321023 0.3602053 -0.03791634
vn 0.3721796 0.923061 -0.0971643
vn 0.9139047 0.4036985 -0.04249458
vn -0.3901808 0.9156792 -0.0963873
vn -0.3721796 0.923061 -0.0971643
vn -0.9321023 0.3602053 -0.03791634
vn -0.9139047 0.4036985 -0.04249458

vt 0.21875 0.275
vt 0.21875 0.475
vt 0.46875 0.185
vt 0.46875 0.025
vt 0.46875 0.1516667
vt 0.46875 0.225
vt 0.46875 0.1916666

usemtl colormap

f 3/2/1 2/1/1 1/1/1
f 2/1/1 3/2/1 4/2/1
f 7/2/2 6/1/3 5/1/2
f 6/1/3 7/2/2 8/2/3
f 9/1/5 3/2/4 1/1/4
f 3/2/4 9/1/5 10/2/5
f 11/2/7 2/1/6 4/2/6
f 2/1/6 11/2/7 12/1/7
f 5/1/8 2/1/8 12/1/8
f 2/1/8 5/1/8 1/1/8
f 1/1/8 5/1/8 6/1/8
f 1/1/8 6/1/8 9/1/8
f 15/1/4 14/2/9 13/1/9
f 14/2/9 15/1/4 16/2/4
f 19/2/6 18/1/10 17/2/10
f 18/1/10 19/2/6 20/1/6
f 19/2/11 15/1/11 20/1/11
f 15/1/11 19/2/11 16/2/11
f 23/2/12 22/1/13 21/1/12
f 22/1/13 23/2/12 24/2/13
f 15/1/8 18/1/8 20/1/8
f 18/1/8 15/1/8 22/1/8
f 22/1/8 15/1/8 21/1/8
f 21/1/8 15/1/8 13/1/8
f 3/2/14 11/2/14 4/2/14
f 11/2/14 3/2/14 7/2/14
f 7/2/14 3/2/14 8/2/14
f 8/2/14 3/2/14 10/2/14
f 24/2/14 19/2/14 17/2/14
f 19/2/14 24/2/14 16/2/14
f 16/2/14 24/2/14 23/2/14
f 16/2/14 23/2/14 14/2/14
f 6/1/3 10/2/5 9/1/5
f 10/2/5 6/1/3 8/2/3
f 7/2/2 12/1/7 11/2/7
f 12/1/7 7/2/2 5/1/2
f 17/2/10 22/1/13 24/2/13
f 22/1/13 17/2/10 18/1/10
f 13/1/9 23/2/12 21/1/12
f 23/2/12 13/1/9 14/2/9
f 27/5/16 26/4/6 25/3/15
f 26/4/6 27/5/16 28/4/6
f 31/4/4 30/3/17 29/4/4
f 30/3/17 31/4/4 32/5/18
f 35/6/21 34/7/20 33/6/19
f 34/7/20 35/6/21 36/7/22
f 27/5/11 31/4/11 28/4/11
f 31/4/11 27/5/11 32/5/11
f 32/5/11 27/5/11 34/7/11
f 32/5/11 34/7/11 36/7/11
f 39/6/25 38/5/24 37/7/23
f 38/5/24 39/6/25 40/3/26
f 32/5/18 35/6/21 30/3/17
f 35/6/21 32/5/18 36/7/22
f 30/3/1 26/4/1 29/4/1
f 26/4/1 30/3/1 25/3/1
f 25/3/1 30/3/1 35/6/1
f 25/3/1 35/6/1 33/6/1
f 40/3/26 41/4/6 38/5/24
f 41/4/6 40/3/26 42/4/6
f 40/3/11 43/4/11 42/4/11
f 43/4/11 40/3/11 44/3/11
f 44/3/11 40/3/11 39/6/11
f 44/3/11 39/6/11 45/6/11
f 46/7/27 39/6/25 37/7/23
f 39/6/25 46/7/27 45/6/28
f 48/5/1 41/4/1 47/4/1
f 41/4/1 48/5/1 38/5/1
f 38/5/1 48/5/1 46/7/1
f 38/5/1 46/7/1 37/7/1
f 43/4/4 48/5/29 47/4/4
f 48/5/29 43/4/4 44/3/30
f 44/3/30 46/7/27 48/5/29
f 46/7/27 44/3/30 45/6/28
f 33/6/19 27/5/16 25/3/15
f 27/5/16 33/6/19 34/7/20

g hedge-gate




usemtl colormap

f 3/2/1 2/1/1 1/1/1
f 2/1/1 3/2/1 4/2/1
f 7/2/2 6/1/3 5/1/2
f 6/1/3 7/2/2 8/2/3
f 9/1/5 3/2/4 1/1/4
f 3/2/4 9/1/5 10/2/5
f 11/2/7 2/1/6 4/2/6
f 2/1/6 11/2/7 12/1/7
f 5/1/8 2/1/8 12/1/8
f 2/1/8 5/1/8 1/1/8
f 1/1/8 5/1/8 6/1/8
f 1/1/8 6/1/8 9/1/8
f 15/1/4 14/2/9 13/1/9
f 14/2/9 15/1/4 16/2/4
f 19/2/6 18/1/10 17/2/10
f 18/1/10 19/2/6 20/1/6
f 19/2/11 15/1/11 20/1/11
f 15/1/11 19/2/11 16/2/11
f 23/2/12 22/1/13 21/1/12
f 22/1/13 23/2/12 24/2/13
f 15/1/8 18/1/8 20/1/8
f 18/1/8 15/1/8 22/1/8
f 22/1/8 15/1/8 21/1/8
f 21/1/8 15/1/8 13/1/8
f 3/2/14 11/2/14 4/2/14
f 11/2/14 3/2/14 7/2/14
f 7/2/14 3/2/14 8/2/14
f 8/2/14 3/2/14 10/2/14
f 24/2/14 19/2/14 17/2/14
f 19/2/14 24/2/14 16/2/14
f 16/2/14 24/2/14 23/2/14
f 16/2/14 23/2/14 14/2/14
f 6/1/3 10/2/5 9/1/5
f 10/2/5 6/1/3 8/2/3
f 7/2/2 12/1/7 11/2/7
f 12/1/7 7/2/2 5/1/2
f 17/2/10 22/1/13 24/2/13
f 22/1/13 17/2/10 18/1/10
f 13/1/9 23/2/12 21/1/12
f 23/2/12 13/1/9 14/2/9
f 27/5/16 26/4/6 25/3/15
f 26/4/6 27/5/16 28/4/6
f 31/4/4 30/3/17 29/4/4
f 30/3/17 31/4/4 32/5/18
f 35/6/21 34/7/20 33/6/19
f 34/7/20 35/6/21 36/7/22
f 27/5/11 31/4/11 28/4/11
f 31/4/11 27/5/11 32/5/11
f 32/5/11 27/5/11 34/7/11
f 32/5/11 34/7/11 36/7/11
f 39/6/25 38/5/24 37/7/23
f 38/5/24 39/6/25 40/3/26
f 32/5/18 35/6/21 30/3/17
f 35/6/21 32/5/18 36/7/22
f 30/3/1 26/4/1 29/4/1
f 26/4/1 30/3/1 25/3/1
f 25/3/1 30/3/1 35/6/1
f 25/3/1 35/6/1 33/6/1
f 40/3/26 41/4/6 38/5/24
f 41/4/6 40/3/26 42/4/6
f 40/3/11 43/4/11 42/4/11
f 43/4/11 40/3/11 44/3/11
f 44/3/11 40/3/11 39/6/11
f 44/3/11 39/6/11 45/6/11
f 46/7/27 39/6/25 37/7/23
f 39/6/25 46/7/27 45/6/28
f 48/5/1 41/4/1 47/4/1
f 41/4/1 48/5/1 38/5/1
f 38/5/1 48/5/1 46/7/1
f 38/5/1 46/7/1 37/7/1
f 43/4/4 48/5/29 47/4/4
f 48/5/29 43/4/4 44/3/30
f 44/3/30 46/7/27 48/5/29
f 46/7/27 44/3/30 45/6/28
f 33/6/19 27/5/16 25/3/15
f 27/5/16 33/6/19 34/7/20

