# Created by Kenney (www.kenney.nl)

mtllib lantern.mtl

g lantern

v 0.0768 0.2976 -0.048 1 1 1
v 0.0768 0.2976 0.048 1 1 1
v 0.048 0.2976 -0.0768 1 1 1
v 0.048 0.2976 0.0768 1 1 1
v -0.048 0.2976 -0.0768 1 1 1
v -0.048 0.2976 0.0768 1 1 1
v -0.0768 0.2976 -0.048 1 1 1
v -0.0768 0.2976 0.048 1 1 1
v 0.096 2.425171E-15 -0.05999999 1 1 1
v 0.06 2.425171E-15 -0.09599999 1 1 1
v 0.09599999 2.425171E-15 0.06 1 1 1
v 0.05999999 1.212586E-15 0.096 1 1 1
v -0.06 0 -0.096 1 1 1
v -0.06 1.212586E-15 0.09599999 1 1 1
v -0.096 1.212586E-15 -0.06 1 1 1
v -0.096 1.212586E-15 0.06 1 1 1
v 0.048 0.4416 0.048 1 1 1
v -0.048 0.4416 0.048 1 1 1
v 0.03216 0.6816 0.03216 1 1 1
v -0.03216 0.6816 0.03216 1 1 1
v 0.048 0.2976 0.048 1 1 1
v -0.048 0.2976 0.048 1 1 1
v -0.048 0.2976 -0.048 1 1 1
v -0.048 0.4416 -0.048 1 1 1
v 0.048 0.4416 -0.048 1 1 1
v 0.03216 0.6816 -0.03216 1 1 1
v 0.048 0.2976 -0.048 1 1 1
v -0.03216 0.6816 -0.03216 1 1 1
v -0.03216 1.286 -0.03216 1 1 1
v -0.01608 1.23776 -0.03216 1 1 1
v -0.01608 1.26992 -0.03216 1 1 1
v 0.01608 1.23776 -0.03216 1 1 1
v 0.01608 1.26992 -0.03216 1 1 1
v 0.03216 1.286 -0.03216 1 1 1
v 0.03216 1.286 0.03216 1 1 1
v 0.01608 1.23776 0.03216 1 1 1
v 0.01608 1.26992 0.03216 1 1 1
v -0.01608 1.23776 0.03216 1 1 1
v -0.01608 1.26992 0.03216 1 1 1
v -0.03216 1.286 0.03216 1 1 1
v 0.008040002 1.26188 -0.11216 1 1 1
v 0.008040002 1.2458 -0.11216 1 1 1
v 0.008039998 1.2458 0.11216 1 1 1
v -0.008040002 1.2458 0.11216 1 1 1
v -0.008039998 1.26188 -0.11216 1 1 1
v 0.008039998 1.26188 0.11216 1 1 1
v -0.008040002 1.26188 0.11216 1 1 1
v -0.008039998 1.2458 -0.11216 1 1 1
v 0.05819305 1.486 0.1082242 1 1 1
v -0.05819305 1.486 0.1082242 1 1 1
v 0.05819305 1.526 0.1082242 1 1 1
v -0.05819305 1.526 0.1082242 1 1 1
v 0.1082242 1.486 0.05819305 1 1 1
v 0.1082242 1.526 0.05819305 1 1 1
v -0.07180426 1.526 -0.0431074 1 1 1
v -0.0431074 1.526 -0.07180427 1 1 1
v -0.05600733 1.556 -0.03362378 1 1 1
v -0.03362377 1.556 -0.05600733 1 1 1
v 0.0431074 1.526 -0.07180426 1 1 1
v 0.03362378 1.556 -0.05600733 1 1 1
v -0.1082242 1.486 -0.05819305 1 1 1
v -0.1082242 1.526 -0.05819305 1 1 1
v -0.1082242 1.486 0.05819305 1 1 1
v -0.1082242 1.526 0.05819305 1 1 1
v -0.05819305 1.486 -0.1082242 1 1 1
v 0.05819305 1.486 -0.1082242 1 1 1
v -0.05819305 1.526 -0.1082242 1 1 1
v 0.05819305 1.526 -0.1082242 1 1 1
v 0.05600733 1.556 -0.03362377 1 1 1
v 0.05600733 1.556 0.03362378 1 1 1
v 0.03362377 1.556 0.05600733 1 1 1
v -0.03362378 1.556 0.05600733 1 1 1
v -0.05600733 1.556 0.03362377 1 1 1
v 0.07180427 1.526 -0.0431074 1 1 1
v 0.07180426 1.526 0.0431074 1 1 1
v 0.1082242 1.486 -0.05819305 1 1 1
v 0.0431074 1.526 0.07180427 1 1 1
v 0.1082242 1.526 -0.05819305 1 1 1
v -0.0431074 1.526 0.07180426 1 1 1
v -0.07180427 1.526 0.0431074 1 1 1
v -0.04786677 1.486 0.0832944 1 1 1
v 0.04786677 1.486 0.0832944 1 1 1
v -0.0832944 1.486 0.04786677 1 1 1
v 0.0832944 1.486 0.04786677 1 1 1
v -0.0832944 1.486 -0.04786677 1 1 1
v -0.04786677 1.486 -0.0832944 1 1 1
v 0.0832944 1.486 -0.04786677 1 1 1
v 0.04786677 1.486 -0.0832944 1 1 1

vn 0 1 0
vn 0 -1 0
vn 0.3843466 0.07486227 0.9201486
vn 0.3787206 0.07478612 0.9224845
vn 0.9201486 0.07486227 0.3843466
vn 0.9224845 0.07478612 0.3787206
vn -0.9201486 0.07486227 -0.3843466
vn -0.9224845 0.07478612 -0.3787206
vn -0.9201486 0.07486227 0.3843466
vn -0.9224845 0.07478612 0.3787206
vn -0.3843466 0.07486227 -0.9201486
vn -0.3787206 0.07478612 -0.9224845
vn 0.3843466 0.07486227 -0.9201486
vn 0.3787207 0.07478612 -0.9224845
vn -0.3787206 0.07478612 0.9224845
vn -0.3843466 0.07486227 0.9201486
vn 0.9201486 0.07486227 -0.3843466
vn 0.9224845 0.07478612 -0.3787206
vn 0 0.03224184 0.9994802
vn 0 0.03362175 0.9994346
vn 0 0 1
vn -1 0 0
vn -0.9994802 0.03224184 0
vn 0.9994802 0.03224184 0
vn 0.9994346 0.03362175 0
vn 1 0 0
vn 0 0 -1
vn 0 0.03224184 -0.9994802
vn 0 0.03362175 -0.9994346
vn 0.7000713 0.7000713 -0.1407143
vn 0.7000713 -0.7000713 -0.1407143
vn 0.7000713 -0.7000713 0.1407143
vn -0.7000713 -0.7000713 0.1407143
vn -0.9994346 0.03362175 0
vn -0.7000713 0.7000713 -0.1407143
vn 0.7000713 0.7000713 0.1407143
vn -0.7000713 0.7000713 0.1407143
vn -0.7000713 -0.7000713 -0.1407143
vn 0.3826834 0 0.9238795
vn -0.3826834 0 0.9238795
vn 0.9238795 0 0.3826834
vn -0.7838414 0.5200234 -0.3393646
vn -0.3393645 0.5200234 -0.7838414
vn -0.7977627 0.5177628 -0.3090248
vn -0.3090248 0.5177628 -0.7977627
vn 0.3393646 0.5200234 -0.7838414
vn 0.3090248 0.5177628 -0.7977627
vn -0.9238795 0 -0.3826834
vn -0.9238795 0 0.3826834
vn -0.3826834 0 -0.9238795
vn 0.3826834 0 -0.9238795
vn 0.7838414 0.5200234 -0.3393645
vn 0.7977627 0.5177628 -0.3090248
vn 0.7838414 0.5200234 0.3393646
vn 0.7977627 0.5177628 0.3090248
vn 0.3393645 0.5200234 0.7838414
vn 0.3090248 0.5177628 0.7977627
vn -0.7977627 0.5177628 0.3090248
vn -0.3090248 0.5177628 0.7977627
vn -0.7838414 0.5200234 0.3393645
vn -0.3393646 0.5200234 0.7838414
vn 0.9238795 0 -0.3826834
vn -0.3649144 -0.2574199 0.8947471
vn 0.3649144 -0.2574199 0.8947471
vn -0.667469 -0.3301062 0.667469
vn -0.8947471 -0.2574199 0.3649144
vn 0.667469 -0.3301062 0.667469
vn 0.8947471 -0.2574199 0.3649144
vn -0.667469 -0.3301062 -0.667469
vn -0.8947471 -0.2574199 -0.3649144
vn -0.3649144 -0.2574199 -0.8947471
vn 0.667469 -0.3301062 -0.667469
vn 0.8947471 -0.2574199 -0.3649144
vn 0.3649144 -0.2574199 -0.8947471

vt 0.96875 0.225
vt 0.96875 0.025
vt 0.21875 0.304138
vt 0.21875 0.3527013
vt 0.21875 0.275
vt 0.21875 0.475
vt 0.21875 0.4652387
vt 0.21875 0.4717462
vt 0.21875 0.4701194
vt 0.21875 0.4668656
vt 0.21875 0.3892857
vt 0.34375 0.275
vt 0.34375 0.475

usemtl colormap

f 3/1/1 2/1/1 1/1/1
f 2/1/1 3/1/1 4/1/1
f 4/1/1 3/1/1 5/1/1
f 4/1/1 5/1/1 6/1/1
f 6/1/1 5/1/1 7/1/1
f 6/1/1 7/1/1 8/1/1
f 11/2/2 10/2/2 9/2/2
f 10/2/2 11/2/2 12/2/2
f 10/2/2 12/2/2 13/2/2
f 13/2/2 12/2/2 14/2/2
f 13/2/2 14/2/2 15/2/2
f 15/2/2 14/2/2 16/2/2
f 11/2/5 4/1/4 12/2/3
f 4/1/4 11/2/5 2/1/6
f 16/2/9 7/1/8 15/2/7
f 7/1/8 16/2/9 8/1/10
f 15/2/7 5/1/12 13/2/11
f 5/1/12 15/2/7 7/1/8
f 5/1/12 10/2/13 13/2/11
f 10/2/13 5/1/12 3/1/14
f 16/2/9 6/1/15 8/1/10
f 6/1/15 16/2/9 14/2/16
f 3/1/14 9/2/17 10/2/13
f 9/2/17 3/1/14 1/1/18
f 4/1/4 14/2/16 12/2/3
f 14/2/16 4/1/4 6/1/15
f 1/1/18 11/2/5 9/2/17
f 11/2/5 1/1/18 2/1/6
f 19/4/20 18/3/19 17/3/19
f 18/3/19 19/4/20 20/4/20
f 17/3/19 22/5/21 21/5/21
f 22/5/21 17/3/19 18/3/19
f 22/5/22 24/3/23 23/5/22
f 24/3/23 22/5/22 18/3/23
f 26/4/25 17/3/24 25/3/24
f 17/3/24 26/4/25 19/4/25
f 17/3/24 27/5/26 25/3/24
f 27/5/26 17/3/24 21/5/26
f 24/3/28 27/5/27 23/5/27
f 27/5/27 24/3/28 25/3/28
f 28/4/29 25/3/28 24/3/28
f 25/3/28 28/4/29 26/4/29
f 29/6/27 26/4/29 28/4/29
f 26/4/29 29/6/27 30/7/27
f 30/7/27 29/6/27 31/8/27
f 32/7/27 26/4/29 30/7/27
f 31/8/27 29/6/27 33/8/27
f 26/4/29 32/7/27 34/6/27
f 34/6/27 32/7/27 33/8/27
f 34/6/27 33/8/27 29/6/27
f 35/6/21 20/4/20 19/4/20
f 20/4/20 35/6/21 36/7/21
f 36/7/21 35/6/21 37/8/21
f 38/7/21 20/4/20 36/7/21
f 37/8/21 35/6/21 39/8/21
f 20/4/20 38/7/21 40/6/21
f 40/6/21 38/7/21 39/8/21
f 40/6/21 39/8/21 35/6/21
f 35/6/26 26/4/25 34/6/26
f 26/4/25 35/6/26 19/4/25
f 33/8/30 42/10/31 41/9/30
f 42/10/31 33/8/30 32/7/31
f 43/10/32 38/7/33 36/7/32
f 38/7/33 43/10/32 44/10/33
f 18/3/23 28/4/34 24/3/23
f 28/4/34 18/3/23 20/4/34
f 41/9/30 31/8/35 33/8/30
f 31/8/35 41/9/30 45/9/35
f 46/9/21 44/10/21 43/10/21
f 44/10/21 46/9/21 47/9/21
f 20/4/34 29/6/22 28/4/34
f 29/6/22 20/4/34 40/6/22
f 46/9/36 36/7/32 37/8/36
f 36/7/32 46/9/36 43/10/32
f 45/9/27 42/10/27 48/10/27
f 42/10/27 45/9/27 41/9/27
f 44/10/33 39/8/37 38/7/33
f 39/8/37 44/10/33 47/9/37
f 30/7/38 45/9/35 48/10/38
f 45/9/35 30/7/38 31/8/35
f 39/8/37 46/9/36 37/8/36
f 46/9/36 39/8/37 47/9/37
f 30/7/38 42/10/31 32/7/31
f 42/10/31 30/7/38 48/10/38
f 35/6/2 29/6/2 34/6/2
f 29/6/2 35/6/2 40/6/2
f 51/11/39 50/5/40 49/5/39
f 50/5/40 51/11/39 52/11/40
f 54/11/41 49/5/39 53/5/41
f 49/5/39 54/11/41 51/11/39
f 57/6/44 56/11/43 55/11/42
f 56/11/43 57/6/44 58/6/45
f 58/6/45 59/11/46 56/11/43
f 59/11/46 58/6/45 60/6/47
f 63/5/49 62/11/48 61/5/48
f 62/11/48 63/5/49 64/11/49
f 67/11/50 66/5/51 65/5/50
f 66/5/51 67/11/50 68/11/51
f 60/6/1 70/6/1 69/6/1
f 70/6/1 60/6/1 71/6/1
f 71/6/1 60/6/1 58/6/1
f 71/6/1 58/6/1 72/6/1
f 72/6/1 58/6/1 57/6/1
f 72/6/1 57/6/1 73/6/1
f 60/6/47 74/11/52 59/11/46
f 74/11/52 60/6/47 69/6/53
f 69/6/53 75/11/54 74/11/52
f 75/11/54 69/6/53 70/6/55
f 53/5/2 66/5/2 76/5/2
f 66/5/2 53/5/2 49/5/2
f 66/5/2 49/5/2 65/5/2
f 65/5/2 49/5/2 50/5/2
f 65/5/2 50/5/2 61/5/2
f 61/5/2 50/5/2 63/5/2
f 70/6/55 77/11/56 75/11/54
f 77/11/56 70/6/55 71/6/57
f 68/11/1 54/11/1 78/11/1
f 54/11/1 68/11/1 74/11/1
f 74/11/1 68/11/1 59/11/1
f 75/11/1 54/11/1 74/11/1
f 54/11/1 75/11/1 51/11/1
f 51/11/1 75/11/1 77/11/1
f 59/11/1 68/11/1 67/11/1
f 59/11/1 67/11/1 56/11/1
f 56/11/1 67/11/1 55/11/1
f 55/11/1 67/11/1 62/11/1
f 51/11/1 77/11/1 52/11/1
f 52/11/1 77/11/1 79/11/1
f 55/11/1 62/11/1 80/11/1
f 52/11/1 79/11/1 80/11/1
f 64/11/1 80/11/1 62/11/1
f 52/11/1 80/11/1 64/11/1
f 80/11/60 72/6/59 73/6/58
f 72/6/59 80/11/60 79/11/61
f 54/11/41 76/5/62 78/11/62
f 76/5/62 54/11/41 53/5/41
f 62/11/48 65/5/50 61/5/48
f 65/5/50 62/11/48 67/11/50
f 80/11/60 57/6/44 55/11/42
f 57/6/44 80/11/60 73/6/58
f 78/11/62 66/5/51 68/11/51
f 66/5/51 78/11/62 76/5/62
f 71/6/57 79/11/61 77/11/56
f 79/11/61 71/6/57 72/6/59
f 50/5/40 64/11/49 63/5/49
f 64/11/49 50/5/40 52/11/40
f 40/13/65 82/12/64 81/12/63
f 81/12/63 83/12/66 40/13/65
f 82/12/64 40/13/65 35/13/67
f 82/12/64 35/13/67 84/12/68
f 83/12/66 29/13/69 40/13/65
f 29/13/69 83/12/66 85/12/70
f 86/12/71 29/13/69 85/12/70
f 34/13/72 84/12/68 35/13/67
f 86/12/71 34/13/72 29/13/69
f 84/12/68 34/13/72 87/12/73
f 34/13/72 86/12/71 88/12/74
f 34/13/72 88/12/74 87/12/73

g lantern




usemtl colormap

f 3/1/1 2/1/1 1/1/1
f 2/1/1 3/1/1 4/1/1
f 4/1/1 3/1/1 5/1/1
f 4/1/1 5/1/1 6/1/1
f 6/1/1 5/1/1 7/1/1
f 6/1/1 7/1/1 8/1/1
f 11/2/2 10/2/2 9/2/2
f 10/2/2 11/2/2 12/2/2
f 10/2/2 12/2/2 13/2/2
f 13/2/2 12/2/2 14/2/2
f 13/2/2 14/2/2 15/2/2
f 15/2/2 14/2/2 16/2/2
f 11/2/5 4/1/4 12/2/3
f 4/1/4 11/2/5 2/1/6
f 16/2/9 7/1/8 15/2/7
f 7/1/8 16/2/9 8/1/10
f 15/2/7 5/1/12 13/2/11
f 5/1/12 15/2/7 7/1/8
f 5/1/12 10/2/13 13/2/11
f 10/2/13 5/1/12 3/1/14
f 16/2/9 6/1/15 8/1/10
f 6/1/15 16/2/9 14/2/16
f 3/1/14 9/2/17 10/2/13
f 9/2/17 3/1/14 1/1/18
f 4/1/4 14/2/16 12/2/3
f 14/2/16 4/1/4 6/1/15
f 1/1/18 11/2/5 9/2/17
f 11/2/5 1/1/18 2/1/6
f 19/4/20 18/3/19 17/3/19
f 18/3/19 19/4/20 20/4/20
f 17/3/19 22/5/21 21/5/21
f 22/5/21 17/3/19 18/3/19
f 22/5/22 24/3/23 23/5/22
f 24/3/23 22/5/22 18/3/23
f 26/4/25 17/3/24 25/3/24
f 17/3/24 26/4/25 19/4/25
f 17/3/24 27/5/26 25/3/24
f 27/5/26 17/3/24 21/5/26
f 24/3/28 27/5/27 23/5/27
f 27/5/27 24/3/28 25/3/28
f 28/4/29 25/3/28 24/3/28
f 25/3/28 28/4/29 26/4/29
f 29/6/27 26/4/29 28/4/29
f 26/4/29 29/6/27 30/7/27
f 30/7/27 29/6/27 31/8/27
f 32/7/27 26/4/29 30/7/27
f 31/8/27 29/6/27 33/8/27
f 26/4/29 32/7/27 34/6/27
f 34/6/27 32/7/27 33/8/27
f 34/6/27 33/8/27 29/6/27
f 35/6/21 20/4/20 19/4/20
f 20/4/20 35/6/21 36/7/21
f 36/7/21 35/6/21 37/8/21
f 38/7/21 20/4/20 36/7/21
f 37/8/21 35/6/21 39/8/21
f 20/4/20 38/7/21 40/6/21
f 40/6/21 38/7/21 39/8/21
f 40/6/21 39/8/21 35/6/21
f 35/6/26 26/4/25 34/6/26
f 26/4/25 35/6/26 19/4/25
f 33/8/30 42/10/31 41/9/30
f 42/10/31 33/8/30 32/7/31
f 43/10/32 38/7/33 36/7/32
f 38/7/33 43/10/32 44/10/33
f 18/3/23 28/4/34 24/3/23
f 28/4/34 18/3/23 20/4/34
f 41/9/30 31/8/35 33/8/30
f 31/8/35 41/9/30 45/9/35
f 46/9/21 44/10/21 43/10/21
f 44/10/21 46/9/21 47/9/21
f 20/4/34 29/6/22 28/4/34
f 29/6/22 20/4/34 40/6/22
f 46/9/36 36/7/32 37/8/36
f 36/7/32 46/9/36 43/10/32
f 45/9/27 42/10/27 48/10/27
f 42/10/27 45/9/27 41/9/27
f 44/10/33 39/8/37 38/7/33
f 39/8/37 44/10/33 47/9/37
f 30/7/38 45/9/35 48/10/38
f 45/9/35 30/7/38 31/8/35
f 39/8/37 46/9/36 37/8/36
f 46/9/36 39/8/37 47/9/37
f 30/7/38 42/10/31 32/7/31
f 42/10/31 30/7/38 48/10/38
f 35/6/2 29/6/2 34/6/2
f 29/6/2 35/6/2 40/6/2
f 51/11/39 50/5/40 49/5/39
f 50/5/40 51/11/39 52/11/40
f 54/11/41 49/5/39 53/5/41
f 49/5/39 54/11/41 51/11/39
f 57/6/44 56/11/43 55/11/42
f 56/11/43 57/6/44 58/6/45
f 58/6/45 59/11/46 56/11/43
f 59/11/46 58/6/45 60/6/47
f 63/5/49 62/11/48 61/5/48
f 62/11/48 63/5/49 64/11/49
f 67/11/50 66/5/51 65/5/50
f 66/5/51 67/11/50 68/11/51
f 60/6/1 70/6/1 69/6/1
f 70/6/1 60/6/1 71/6/1
f 71/6/1 60/6/1 58/6/1
f 71/6/1 58/6/1 72/6/1
f 72/6/1 58/6/1 57/6/1
f 72/6/1 57/6/1 73/6/1
f 60/6/47 74/11/52 59/11/46
f 74/11/52 60/6/47 69/6/53
f 69/6/53 75/11/54 74/11/52
f 75/11/54 69/6/53 70/6/55
f 53/5/2 66/5/2 76/5/2
f 66/5/2 53/5/2 49/5/2
f 66/5/2 49/5/2 65/5/2
f 65/5/2 49/5/2 50/5/2
f 65/5/2 50/5/2 61/5/2
f 61/5/2 50/5/2 63/5/2
f 70/6/55 77/11/56 75/11/54
f 77/11/56 70/6/55 71/6/57
f 68/11/1 54/11/1 78/11/1
f 54/11/1 68/11/1 74/11/1
f 74/11/1 68/11/1 59/11/1
f 75/11/1 54/11/1 74/11/1
f 54/11/1 75/11/1 51/11/1
f 51/11/1 75/11/1 77/11/1
f 59/11/1 68/11/1 67/11/1
f 59/11/1 67/11/1 56/11/1
f 56/11/1 67/11/1 55/11/1
f 55/11/1 67/11/1 62/11/1
f 51/11/1 77/11/1 52/11/1
f 52/11/1 77/11/1 79/11/1
f 55/11/1 62/11/1 80/11/1
f 52/11/1 79/11/1 80/11/1
f 64/11/1 80/11/1 62/11/1
f 52/11/1 80/11/1 64/11/1
f 80/11/60 72/6/59 73/6/58
f 72/6/59 80/11/60 79/11/61
f 54/11/41 76/5/62 78/11/62
f 76/5/62 54/11/41 53/5/41
f 62/11/48 65/5/50 61/5/48
f 65/5/50 62/11/48 67/11/50
f 80/11/60 57/6/44 55/11/42
f 57/6/44 80/11/60 73/6/58
f 78/11/62 66/5/51 68/11/51
f 66/5/51 78/11/62 76/5/62
f 71/6/57 79/11/61 77/11/56
f 79/11/61 71/6/57 72/6/59
f 50/5/40 64/11/49 63/5/49
f 64/11/49 50/5/40 52/11/40
f 40/13/65 82/12/64 81/12/63
f 81/12/63 83/12/66 40/13/65
f 82/12/64 40/13/65 35/13/67
f 82/12/64 35/13/67 84/12/68
f 83/12/66 29/13/69 40/13/65
f 29/13/69 83/12/66 85/12/70
f 86/12/71 29/13/69 85/12/70
f 34/13/72 84/12/68 35/13/67
f 86/12/71 34/13/72 29/13/69
f 84/12/68 34/13/72 87/12/73
f 34/13/72 86/12/71 88/12/74
f 34/13/72 88/12/74 87/12/73

