# Created by Kenney (www.kenney.nl)

mtllib pillar-stone.mtl

g pillar-stone

v 0.08 -1.263345E-15 -0.05 1 1 1
v 0.08 0.2 -0.05 1 1 1
v 0.05 0 -0.08000001 1 1 1
v 0.05 0.2 -0.08000001 1 1 1
v -0.05 0 -0.08 1 1 1
v -0.05 0.2 -0.08 1 1 1
v 0.08 1.263345E-15 0.05 1 1 1
v 0.05 1.263345E-15 0.08 1 1 1
v 0.08 0.2 0.05 1 1 1
v 0.05 0.2 0.08 1 1 1
v -0.08 0 -0.05 1 1 1
v -0.08 0.2 -0.05 1 1 1
v -0.08 0 0.05 1 1 1
v -0.08 0.2 0.05 1 1 1
v -0.05 1.263345E-15 0.08 1 1 1
v -0.05 0.2 0.08 1 1 1
v -0.08 0.9 -0.05 1 1 1
v -0.08 1 -0.05 1 1 1
v -0.08 0.9 0.05 1 1 1
v -0.08 1 0.05 1 1 1
v 0.08 1 -0.05 1 1 1
v 0.08 1 0.05 1 1 1
v 0.05 1 -0.08000001 1 1 1
v 0.05 1 0.08 1 1 1
v -0.05 1 -0.08 1 1 1
v -0.05 1 0.08 1 1 1
v -0.05 0.2 0.05 1 1 1
v -0.05 0.2 -0.05 1 1 1
v 0.05 0.2 0.05 1 1 1
v 0.05 0.2 -0.05 1 1 1
v -0.08 0.3381664 0.05 1 1 1
v -0.08 0.4381664 0.05 1 1 1
v -0.05 0.3381664 0.08 1 1 1
v -0.05 0.4381664 0.08 1 1 1
v 0.05 0.9 0.08 1 1 1
v -0.05 0.9 0.08 1 1 1
v 0.08 0.3381664 0.05 1 1 1
v 0.05 0.3381664 0.08 1 1 1
v 0.08 0.4381664 0.05 1 1 1
v 0.05 0.4381664 0.08 1 1 1
v -0.08 0.3381664 -0.05 1 1 1
v -0.08 0.4381664 -0.05 1 1 1
v -0.05 0.3381664 -0.08 1 1 1
v -0.05 0.4381664 -0.08 1 1 1
v 0.08 0.3381664 -0.05 1 1 1
v 0.05 0.3381664 -0.08000001 1 1 1
v 0.05 0.3381664 -0.05 1 1 1
v 0.05 0.3381664 0.05 1 1 1
v -0.05 0.3381664 0.05 1 1 1
v -0.05 0.3381664 -0.05 1 1 1
v -0.05 0.4381664 0.05 1 1 1
v -0.05 0.4381664 -0.05 1 1 1
v 0.05 0.4381664 0.05 1 1 1
v 0.05 0.4381664 -0.05 1 1 1
v 0.05 0.4381664 -0.08000001 1 1 1
v 0.08 0.4381664 -0.05 1 1 1
v 0.08 0.9 -0.05 1 1 1
v 0.05 0.9 -0.08000001 1 1 1
v 0.08 0.9 0.05 1 1 1
v 0.05 0.9 -0.05 1 1 1
v -0.05 0.9 -0.08 1 1 1
v 0.05 0.9 0.05 1 1 1
v -0.05 0.9 0.05 1 1 1
v -0.05 0.9 -0.05 1 1 1

vn 0.9238795 0 -0.3826834
vn 0.3826834 0 -0.9238795
vn -0.3826834 0 -0.9238795
vn 0.9238795 0 0.3826834
vn 0.3826834 0 0.9238795
vn -0.9238795 0 -0.3826834
vn -0.9238795 0 0.3826834
vn -0.3826834 0 0.9238795
vn 0 1 0
vn 0 -1 0
vn -1 0 0
vn 1 0 0
vn 0 0 -1
vn 0 0 1

vt 0.96875 0.025
vt 0.96875 0.065
vt 0.96875 0.205
vt 0.96875 0.225
vt 0.96875 0.09263327
vt 0.96875 0.1126333
vt 0.21875 0.315
vt 0.21875 0.3426333
vt 0.21875 0.455
vt 0.21875 0.3626333

usemtl colormap

f 3/1/2 2/2/1 1/1/1
f 2/2/1 3/1/2 4/2/2
f 6/2/3 3/1/2 5/1/3
f 3/1/2 6/2/3 4/2/2
f 9/2/4 8/1/5 7/1/4
f 8/1/5 9/2/4 10/2/5
f 9/2/4 1/1/1 2/2/1
f 1/1/1 9/2/4 7/1/4
f 13/1/7 12/2/6 11/1/6
f 12/2/6 13/1/7 14/2/7
f 15/1/8 14/2/7 13/1/7
f 14/2/7 15/1/8 16/2/8
f 19/3/7 18/4/6 17/3/6
f 18/4/6 19/3/7 20/4/7
f 12/2/6 5/1/3 11/1/6
f 5/1/3 12/2/6 6/2/3
f 10/2/5 15/1/8 8/1/5
f 15/1/8 10/2/5 16/2/8
f 23/4/9 22/4/9 21/4/9
f 22/4/9 23/4/9 24/4/9
f 24/4/9 23/4/9 25/4/9
f 24/4/9 25/4/9 26/4/9
f 26/4/9 25/4/9 18/4/9
f 26/4/9 18/4/9 20/4/9
f 7/1/10 3/1/10 1/1/10
f 3/1/10 7/1/10 8/1/10
f 3/1/10 8/1/10 5/1/10
f 5/1/10 8/1/10 15/1/10
f 5/1/10 15/1/10 11/1/10
f 11/1/10 15/1/10 13/1/10
f 16/2/9 12/2/9 14/2/9
f 27/2/9 12/2/9 16/2/9
f 10/2/9 27/2/9 16/2/9
f 28/2/9 12/2/9 27/2/9
f 28/2/9 6/2/9 12/2/9
f 10/2/9 29/2/9 27/2/9
f 30/2/9 6/2/9 28/2/9
f 10/2/9 30/2/9 29/2/9
f 6/2/9 30/2/9 4/2/9
f 10/2/9 4/2/9 30/2/9
f 9/2/9 4/2/9 10/2/9
f 4/2/9 9/2/9 2/2/9
f 33/5/8 32/6/7 31/5/7
f 32/6/7 33/5/8 34/6/8
f 24/4/5 36/3/8 35/3/5
f 36/3/8 24/4/5 26/4/8
f 36/3/8 20/4/7 19/3/7
f 20/4/7 36/3/8 26/4/8
f 39/6/4 38/5/5 37/5/4
f 38/5/5 39/6/4 40/6/5
f 31/5/7 42/6/6 41/5/6
f 42/6/6 31/5/7 32/6/7
f 42/6/6 43/5/3 41/5/6
f 43/5/3 42/6/6 44/6/3
f 37/5/10 46/5/10 45/5/10
f 46/5/10 37/5/10 38/5/10
f 46/5/10 38/5/10 47/5/10
f 46/5/10 47/5/10 43/5/10
f 47/5/10 38/5/10 48/5/10
f 33/5/10 48/5/10 38/5/10
f 48/5/10 33/5/10 49/5/10
f 49/5/10 33/5/10 31/5/10
f 43/5/10 47/5/10 50/5/10
f 49/5/10 31/5/10 50/5/10
f 43/5/10 50/5/10 41/5/10
f 41/5/10 50/5/10 31/5/10
f 34/6/9 42/6/9 32/6/9
f 51/6/9 42/6/9 34/6/9
f 40/6/9 51/6/9 34/6/9
f 52/6/9 42/6/9 51/6/9
f 52/6/9 44/6/9 42/6/9
f 40/6/9 53/6/9 51/6/9
f 54/6/9 44/6/9 52/6/9
f 40/6/9 54/6/9 53/6/9
f 44/6/9 54/6/9 55/6/9
f 40/6/9 55/6/9 54/6/9
f 39/6/9 55/6/9 40/6/9
f 55/6/9 39/6/9 56/6/9
f 59/3/10 58/3/10 57/3/10
f 58/3/10 59/3/10 35/3/10
f 58/3/10 35/3/10 60/3/10
f 58/3/10 60/3/10 61/3/10
f 60/3/10 35/3/10 62/3/10
f 36/3/10 62/3/10 35/3/10
f 62/3/10 36/3/10 63/3/10
f 63/3/10 36/3/10 19/3/10
f 61/3/10 60/3/10 64/3/10
f 63/3/10 19/3/10 64/3/10
f 61/3/10 64/3/10 17/3/10
f 17/3/10 64/3/10 19/3/10
f 22/4/4 35/3/5 59/3/4
f 35/3/5 22/4/4 24/4/5
f 44/6/3 46/5/2 43/5/3
f 46/5/2 44/6/3 55/6/2
f 58/3/2 21/4/1 57/3/1
f 21/4/1 58/3/2 23/4/2
f 46/5/2 56/6/1 45/5/1
f 56/6/1 46/5/2 55/6/2
f 40/6/5 33/5/8 38/5/5
f 33/5/8 40/6/5 34/6/8
f 22/4/4 57/3/1 21/4/1
f 57/3/1 22/4/4 59/3/4
f 39/6/4 45/5/1 56/6/1
f 45/5/1 39/6/4 37/5/4
f 18/4/6 61/3/3 17/3/6
f 61/3/3 18/4/6 25/4/3
f 25/4/3 58/3/2 61/3/3
f 58/3/2 25/4/3 23/4/2
f 27/7/11 50/8/11 28/7/11
f 50/8/11 27/7/11 49/8/11
f 62/9/12 54/10/12 60/9/12
f 54/10/12 62/9/12 53/10/12
f 48/8/12 30/7/12 47/8/12
f 30/7/12 48/8/12 29/7/12
f 51/10/11 64/9/11 52/10/11
f 64/9/11 51/10/11 63/9/11
f 50/8/13 30/7/13 28/7/13
f 30/7/13 50/8/13 47/8/13
f 62/9/14 51/10/14 53/10/14
f 51/10/14 62/9/14 63/9/14
f 64/9/13 54/10/13 52/10/13
f 54/10/13 64/9/13 60/9/13
f 48/8/14 27/7/14 29/7/14
f 27/7/14 48/8/14 49/8/14

g pillar-stone




usemtl colormap

f 3/1/2 2/2/1 1/1/1
f 2/2/1 3/1/2 4/2/2
f 6/2/3 3/1/2 5/1/3
f 3/1/2 6/2/3 4/2/2
f 9/2/4 8/1/5 7/1/4
f 8/1/5 9/2/4 10/2/5
f 9/2/4 1/1/1 2/2/1
f 1/1/1 9/2/4 7/1/4
f 13/1/7 12/2/6 11/1/6
f 12/2/6 13/1/7 14/2/7
f 15/1/8 14/2/7 13/1/7
f 14/2/7 15/1/8 16/2/8
f 19/3/7 18/4/6 17/3/6
f 18/4/6 19/3/7 20/4/7
f 12/2/6 5/1/3 11/1/6
f 5/1/3 12/2/6 6/2/3
f 10/2/5 15/1/8 8/1/5
f 15/1/8 10/2/5 16/2/8
f 23/4/9 22/4/9 21/4/9
f 22/4/9 23/4/9 24/4/9
f 24/4/9 23/4/9 25/4/9
f 24/4/9 25/4/9 26/4/9
f 26/4/9 25/4/9 18/4/9
f 26/4/9 18/4/9 20/4/9
f 7/1/10 3/1/10 1/1/10
f 3/1/10 7/1/10 8/1/10
f 3/1/10 8/1/10 5/1/10
f 5/1/10 8/1/10 15/1/10
f 5/1/10 15/1/10 11/1/10
f 11/1/10 15/1/10 13/1/10
f 16/2/9 12/2/9 14/2/9
f 27/2/9 12/2/9 16/2/9
f 10/2/9 27/2/9 16/2/9
f 28/2/9 12/2/9 27/2/9
f 28/2/9 6/2/9 12/2/9
f 10/2/9 29/2/9 27/2/9
f 30/2/9 6/2/9 28/2/9
f 10/2/9 30/2/9 29/2/9
f 6/2/9 30/2/9 4/2/9
f 10/2/9 4/2/9 30/2/9
f 9/2/9 4/2/9 10/2/9
f 4/2/9 9/2/9 2/2/9
f 33/5/8 32/6/7 31/5/7
f 32/6/7 33/5/8 34/6/8
f 24/4/5 36/3/8 35/3/5
f 36/3/8 24/4/5 26/4/8
f 36/3/8 20/4/7 19/3/7
f 20/4/7 36/3/8 26/4/8
f 39/6/4 38/5/5 37/5/4
f 38/5/5 39/6/4 40/6/5
f 31/5/7 42/6/6 41/5/6
f 42/6/6 31/5/7 32/6/7
f 42/6/6 43/5/3 41/5/6
f 43/5/3 42/6/6 44/6/3
f 37/5/10 46/5/10 45/5/10
f 46/5/10 37/5/10 38/5/10
f 46/5/10 38/5/10 47/5/10
f 46/5/10 47/5/10 43/5/10
f 47/5/10 38/5/10 48/5/10
f 33/5/10 48/5/10 38/5/10
f 48/5/10 33/5/10 49/5/10
f 49/5/10 33/5/10 31/5/10
f 43/5/10 47/5/10 50/5/10
f 49/5/10 31/5/10 50/5/10
f 43/5/10 50/5/10 41/5/10
f 41/5/10 50/5/10 31/5/10
f 34/6/9 42/6/9 32/6/9
f 51/6/9 42/6/9 34/6/9
f 40/6/9 51/6/9 34/6/9
f 52/6/9 42/6/9 51/6/9
f 52/6/9 44/6/9 42/6/9
f 40/6/9 53/6/9 51/6/9
f 54/6/9 44/6/9 52/6/9
f 40/6/9 54/6/9 53/6/9
f 44/6/9 54/6/9 55/6/9
f 40/6/9 55/6/9 54/6/9
f 39/6/9 55/6/9 40/6/9
f 55/6/9 39/6/9 56/6/9
f 59/3/10 58/3/10 57/3/10
f 58/3/10 59/3/10 35/3/10
f 58/3/10 35/3/10 60/3/10
f 58/3/10 60/3/10 61/3/10
f 60/3/10 35/3/10 62/3/10
f 36/3/10 62/3/10 35/3/10
f 62/3/10 36/3/10 63/3/10
f 63/3/10 36/3/10 19/3/10
f 61/3/10 60/3/10 64/3/10
f 63/3/10 19/3/10 64/3/10
f 61/3/10 64/3/10 17/3/10
f 17/3/10 64/3/10 19/3/10
f 22/4/4 35/3/5 59/3/4
f 35/3/5 22/4/4 24/4/5
f 44/6/3 46/5/2 43/5/3
f 46/5/2 44/6/3 55/6/2
f 58/3/2 21/4/1 57/3/1
f 21/4/1 58/3/2 23/4/2
f 46/5/2 56/6/1 45/5/1
f 56/6/1 46/5/2 55/6/2
f 40/6/5 33/5/8 38/5/5
f 33/5/8 40/6/5 34/6/8
f 22/4/4 57/3/1 21/4/1
f 57/3/1 22/4/4 59/3/4
f 39/6/4 45/5/1 56/6/1
f 45/5/1 39/6/4 37/5/4
f 18/4/6 61/3/3 17/3/6
f 61/3/3 18/4/6 25/4/3
f 25/4/3 58/3/2 61/3/3
f 58/3/2 25/4/3 23/4/2
f 27/7/11 50/8/11 28/7/11
f 50/8/11 27/7/11 49/8/11
f 62/9/12 54/10/12 60/9/12
f 54/10/12 62/9/12 53/10/12
f 48/8/12 30/7/12 47/8/12
f 30/7/12 48/8/12 29/7/12
f 51/10/11 64/9/11 52/10/11
f 64/9/11 51/10/11 63/9/11
f 50/8/13 30/7/13 28/7/13
f 30/7/13 50/8/13 47/8/13
f 62/9/14 51/10/14 53/10/14
f 51/10/14 62/9/14 63/9/14
f 64/9/13 54/10/13 52/10/13
f 54/10/13 64/9/13 60/9/13
f 48/8/14 27/7/14 29/7/14
f 27/7/14 48/8/14 49/8/14

