# Created by Kenney (www.kenney.nl)

mtllib planks.mtl

g planks

v -0.5 0 -0.3514081 1 1 1
v -0.5 0.03 -0.3514081 1 1 1
v -0.5 0 -0.2028162 1 1 1
v -0.5 0.03 -0.2028162 1 1 1
v 0.5 0.03 -0.3514081 1 1 1
v 0.5 0 -0.3514081 1 1 1
v 0.5 0.03 -0.2028162 1 1 1
v 0.5 0 -0.2028162 1 1 1
v 0.5 0.03 0.2028162 1 1 1
v 0.5 0 0.2028162 1 1 1
v 0.5 0.03 0.3514081 1 1 1
v 0.5 0 0.3514081 1 1 1
v -0.5 0 0.2028162 1 1 1
v -0.5 0.03 0.2028162 1 1 1
v -0.5 0 0.3514081 1 1 1
v -0.5 0.03 0.3514081 1 1 1
v -0.1811265 0.03 0.5 1 1 1
v -0.3297184 0.03 0.5 1 1 1
v -0.1811265 0.06 0.5 1 1 1
v -0.3297184 0.06 0.5 1 1 1
v -0.1811265 0.06 -0.5 1 1 1
v -0.3297184 0.06 -0.5 1 1 1
v -0.3297184 0.03 -0.5 1 1 1
v -0.1811265 0.03 -0.5 1 1 1
v 0.5 0.06 0.5 1 1 1
v 0.3514081 0.06 0.5 1 1 1
v 0.5 0.06 -0.5 1 1 1
v 0.3514081 0.06 -0.5 1 1 1
v -0.01084486 0.03 0.5 1 1 1
v -0.01084486 0.03 -0.5 1 1 1
v -0.1594367 0.03 0.5 1 1 1
v -0.1594367 0.03 -0.5 1 1 1
v 0.1594367 0.03 0.5 1 1 1
v 0.1594367 0.03 -0.5 1 1 1
v 0.01084486 0.03 0.5 1 1 1
v 0.01084486 0.03 -0.5 1 1 1
v 0.1594367 0.06 0.5 1 1 1
v 0.01084486 0.06 0.5 1 1 1
v 0.1594367 0.06 -0.5 1 1 1
v 0.01084486 0.06 -0.5 1 1 1
v -0.1594367 0.06 -0.5 1 1 1
v -0.01084486 0.06 -0.5 1 1 1
v 0.5 0.03 0.5 1 1 1
v 0.3514081 0.03 0.5 1 1 1
v -0.01084486 0.06 0.5 1 1 1
v -0.1594367 0.06 0.5 1 1 1
v -0.3514081 0.06 0.5 1 1 1
v -0.5 0.06 0.5 1 1 1
v -0.3514081 0.06 -0.5 1 1 1
v -0.5 0.06 -0.5 1 1 1
v 0.3297184 0.06 0.5 1 1 1
v 0.1811265 0.06 0.5 1 1 1
v 0.3297184 0.06 -0.5 1 1 1
v 0.1811265 0.06 -0.5 1 1 1
v 0.3514081 0.03 -0.5 1 1 1
v 0.5 0.03 -0.5 1 1 1
v 0.3297184 0.03 0.5 1 1 1
v 0.1811265 0.03 0.5 1 1 1
v 0.3297184 0.03 -0.5 1 1 1
v 0.1811265 0.03 -0.5 1 1 1
v -0.3514081 0.03 0.5 1 1 1
v -0.3514081 0.03 -0.5 1 1 1
v -0.5 0.03 0.5 1 1 1
v -0.5 0.03 -0.5 1 1 1

vn -1 0 0
vn 1 0 0
vn 0 0 -1
vn 0 0 1
vn 0 -1 0
vn 0 1 0

vt 0.59375 0.075
vt 0.59375 0.175

usemtl colormap

f 3/1/1 2/2/1 1/1/1
f 2/2/1 3/1/1 4/2/1
f 7/2/2 6/1/2 5/2/2
f 6/1/2 7/2/2 8/1/2
f 2/2/3 6/1/3 1/1/3
f 6/1/3 2/2/3 5/2/3
f 7/2/4 3/1/4 8/1/4
f 3/1/4 7/2/4 4/2/4
f 3/1/5 6/1/5 8/1/5
f 6/1/5 3/1/5 1/1/5
f 5/2/6 4/2/6 7/2/6
f 4/2/6 5/2/6 2/2/6
f 11/2/2 10/1/2 9/2/2
f 10/1/2 11/2/2 12/1/2
f 15/1/1 14/2/1 13/1/1
f 14/2/1 15/1/1 16/2/1
f 15/1/5 10/1/5 12/1/5
f 10/1/5 15/1/5 13/1/5
f 14/2/3 10/1/3 13/1/3
f 10/1/3 14/2/3 9/2/3
f 11/2/4 15/1/4 12/1/4
f 15/1/4 11/2/4 16/2/4
f 9/2/6 16/2/6 11/2/6
f 16/2/6 9/2/6 14/2/6
f 19/2/4 18/1/4 17/1/4
f 18/1/4 19/2/4 20/2/4
f 21/2/6 20/2/6 19/2/6
f 20/2/6 21/2/6 22/2/6
f 22/2/3 24/1/3 23/1/3
f 24/1/3 22/2/3 21/2/3
f 18/1/5 24/1/5 17/1/5
f 24/1/5 18/1/5 23/1/5
f 27/2/6 26/2/6 25/2/6
f 26/2/6 27/2/6 28/2/6
f 31/1/5 30/1/5 29/1/5
f 30/1/5 31/1/5 32/1/5
f 35/1/5 34/1/5 33/1/5
f 34/1/5 35/1/5 36/1/5
f 39/2/6 38/2/6 37/2/6
f 38/2/6 39/2/6 40/2/6
f 41/2/3 30/1/3 32/1/3
f 30/1/3 41/2/3 42/2/3
f 25/2/4 44/1/4 43/1/4
f 44/1/4 25/2/4 26/2/4
f 45/2/4 31/1/4 29/1/4
f 31/1/4 45/2/4 46/2/4
f 49/2/6 48/2/6 47/2/6
f 48/2/6 49/2/6 50/2/6
f 53/2/6 52/2/6 51/2/6
f 52/2/6 53/2/6 54/2/6
f 28/2/3 56/1/3 55/1/3
f 56/1/3 28/2/3 27/2/3
f 51/2/4 58/1/4 57/1/4
f 58/1/4 51/2/4 52/2/4
f 58/1/5 59/1/5 57/1/5
f 59/1/5 58/1/5 60/1/5
f 42/2/6 46/2/6 45/2/6
f 46/2/6 42/2/6 41/2/6
f 63/1/5 62/1/5 61/1/5
f 62/1/5 63/1/5 64/1/5
f 40/2/3 34/1/3 36/1/3
f 34/1/3 40/2/3 39/2/3
f 50/2/3 62/1/3 64/1/3
f 62/1/3 50/2/3 49/2/3
f 43/1/5 55/1/5 56/1/5
f 55/1/5 43/1/5 44/1/5
f 37/2/4 35/1/4 33/1/4
f 35/1/4 37/2/4 38/2/4
f 54/2/3 59/1/3 60/1/3
f 59/1/3 54/2/3 53/2/3
f 47/2/4 63/1/4 61/1/4
f 63/1/4 47/2/4 48/2/4
f 23/1/1 20/2/1 22/2/1
f 20/2/1 23/1/1 18/1/1
f 19/2/2 24/1/2 21/2/2
f 24/1/2 19/2/2 17/1/2
f 44/1/1 28/2/1 55/1/1
f 28/2/1 44/1/1 26/2/1
f 27/2/2 43/1/2 56/1/2
f 43/1/2 27/2/2 25/2/2
f 47/2/2 62/1/2 49/2/2
f 62/1/2 47/2/2 61/1/2
f 32/1/1 46/2/1 41/2/1
f 46/2/1 32/1/1 31/1/1
f 58/1/1 54/2/1 60/1/1
f 54/2/1 58/1/1 52/2/1
f 45/2/2 30/1/2 42/2/2
f 30/1/2 45/2/2 29/1/2
f 53/2/2 57/1/2 59/1/2
f 57/1/2 53/2/2 51/2/2
f 64/1/1 48/2/1 50/2/1
f 48/2/1 64/1/1 63/1/1
f 39/2/2 33/1/2 34/1/2
f 33/1/2 39/2/2 37/2/2
f 36/1/1 38/2/1 40/2/1
f 38/2/1 36/1/1 35/1/1

g planks




usemtl colormap

f 3/1/1 2/2/1 1/1/1
f 2/2/1 3/1/1 4/2/1
f 7/2/2 6/1/2 5/2/2
f 6/1/2 7/2/2 8/1/2
f 2/2/3 6/1/3 1/1/3
f 6/1/3 2/2/3 5/2/3
f 7/2/4 3/1/4 8/1/4
f 3/1/4 7/2/4 4/2/4
f 3/1/5 6/1/5 8/1/5
f 6/1/5 3/1/5 1/1/5
f 5/2/6 4/2/6 7/2/6
f 4/2/6 5/2/6 2/2/6
f 11/2/2 10/1/2 9/2/2
f 10/1/2 11/2/2 12/1/2
f 15/1/1 14/2/1 13/1/1
f 14/2/1 15/1/1 16/2/1
f 15/1/5 10/1/5 12/1/5
f 10/1/5 15/1/5 13/1/5
f 14/2/3 10/1/3 13/1/3
f 10/1/3 14/2/3 9/2/3
f 11/2/4 15/1/4 12/1/4
f 15/1/4 11/2/4 16/2/4
f 9/2/6 16/2/6 11/2/6
f 16/2/6 9/2/6 14/2/6
f 19/2/4 18/1/4 17/1/4
f 18/1/4 19/2/4 20/2/4
f 21/2/6 20/2/6 19/2/6
f 20/2/6 21/2/6 22/2/6
f 22/2/3 24/1/3 23/1/3
f 24/1/3 22/2/3 21/2/3
f 18/1/5 24/1/5 17/1/5
f 24/1/5 18/1/5 23/1/5
f 27/2/6 26/2/6 25/2/6
f 26/2/6 27/2/6 28/2/6
f 31/1/5 30/1/5 29/1/5
f 30/1/5 31/1/5 32/1/5
f 35/1/5 34/1/5 33/1/5
f 34/1/5 35/1/5 36/1/5
f 39/2/6 38/2/6 37/2/6
f 38/2/6 39/2/6 40/2/6
f 41/2/3 30/1/3 32/1/3
f 30/1/3 41/2/3 42/2/3
f 25/2/4 44/1/4 43/1/4
f 44/1/4 25/2/4 26/2/4
f 45/2/4 31/1/4 29/1/4
f 31/1/4 45/2/4 46/2/4
f 49/2/6 48/2/6 47/2/6
f 48/2/6 49/2/6 50/2/6
f 53/2/6 52/2/6 51/2/6
f 52/2/6 53/2/6 54/2/6
f 28/2/3 56/1/3 55/1/3
f 56/1/3 28/2/3 27/2/3
f 51/2/4 58/1/4 57/1/4
f 58/1/4 51/2/4 52/2/4
f 58/1/5 59/1/5 57/1/5
f 59/1/5 58/1/5 60/1/5
f 42/2/6 46/2/6 45/2/6
f 46/2/6 42/2/6 41/2/6
f 63/1/5 62/1/5 61/1/5
f 62/1/5 63/1/5 64/1/5
f 40/2/3 34/1/3 36/1/3
f 34/1/3 40/2/3 39/2/3
f 50/2/3 62/1/3 64/1/3
f 62/1/3 50/2/3 49/2/3
f 43/1/5 55/1/5 56/1/5
f 55/1/5 43/1/5 44/1/5
f 37/2/4 35/1/4 33/1/4
f 35/1/4 37/2/4 38/2/4
f 54/2/3 59/1/3 60/1/3
f 59/1/3 54/2/3 53/2/3
f 47/2/4 63/1/4 61/1/4
f 63/1/4 47/2/4 48/2/4
f 23/1/1 20/2/1 22/2/1
f 20/2/1 23/1/1 18/1/1
f 19/2/2 24/1/2 21/2/2
f 24/1/2 19/2/2 17/1/2
f 44/1/1 28/2/1 55/1/1
f 28/2/1 44/1/1 26/2/1
f 27/2/2 43/1/2 56/1/2
f 43/1/2 27/2/2 25/2/2
f 47/2/2 62/1/2 49/2/2
f 62/1/2 47/2/2 61/1/2
f 32/1/1 46/2/1 41/2/1
f 46/2/1 32/1/1 31/1/1
f 58/1/1 54/2/1 60/1/1
f 54/2/1 58/1/1 52/2/1
f 45/2/2 30/1/2 42/2/2
f 30/1/2 45/2/2 29/1/2
f 53/2/2 57/1/2 59/1/2
f 57/1/2 53/2/2 51/2/2
f 64/1/1 48/2/1 50/2/1
f 48/2/1 64/1/1 63/1/1
f 39/2/2 33/1/2 34/1/2
f 33/1/2 39/2/2 37/2/2
f 36/1/1 38/2/1 40/2/1
f 38/2/1 36/1/1 35/1/1

