# Created by Kenney (www.kenney.nl)

mtllib road-corner.mtl

g road-corner

v 0.3382381 0.0125 0.1037036 1 1 1
v 0.3382381 0.025 0.1037036 1 1 1
v 0.4184211 0.0125 0.119653 1 1 1
v 0.4184211 0.025 0.119653 1 1 1
v 0.2608229 0.0125 0.07742471 1 1 1
v 0.2608229 0.025 0.07742471 1 1 1
v 0.5 0.0125 0.125 1 1 1
v 0.5 0.025 0.125 1 1 1
v 0.1875 0.0125 0.04126588 1 1 1
v 0.1875 0.025 0.04126588 1 1 1
v -0.030423 0.05 -0.4301685 1 1 1
v -0.119653 0.025 -0.4184211 1 1 1
v -0.035 0.05 -0.5 1 1 1
v -0.125 0.025 -0.5 1 1 1
v 0.1195241 0.0125 -0.004154162 1 1 1
v 0.1195241 0.025 -0.004154162 1 1 1
v 0.2952644 0.05 -0.00572445 1 1 1
v 0.2325 0.05 -0.03667641 1 1 1
v 0.3615318 0.05 0.01677032 1 1 1
v -0.01677032 0.05 -0.3615318 1 1 1
v -0.1037036 0.025 -0.3382381 1 1 1
v 0.03667641 0.05 -0.2325 1 1 1
v -0.04126588 0.025 -0.1875 1 1 1
v 0.00572445 0.05 -0.2952644 1 1 1
v -0.07742471 0.025 -0.2608229 1 1 1
v 0.1743126 0.05 -0.07555596 1 1 1
v 0.1216979 0.05 -0.1216979 1 1 1
v 0.05805826 0.025 -0.05805826 1 1 1
v 0.07555596 0.05 -0.1743126 1 1 1
v 0.004154162 0.025 -0.1195241 1 1 1
v 0.5 0.05 -0.5 1 1 1
v 0.5 1.271649E-18 -0.5 1 1 1
v 0.5 0.05 0.035 1 1 1
v 0.5 0 0.125 1 1 1
v 0.4301685 0.05 0.030423 1 1 1
v -0.125 1.456095E-18 -0.5 1 1 1
v -0.125 0.0125 -0.5 1 1 1
v -0.119653 0.0125 -0.4184211 1 1 1
v -0.1037036 0.0125 -0.3382381 1 1 1
v -0.04126588 0.0125 -0.1875 1 1 1
v 0.004154162 0.0125 -0.1195241 1 1 1
v 0.05805826 0.0125 -0.05805826 1 1 1
v -0.07742471 0.0125 -0.2608229 1 1 1
v 0.5 0.025 0.215 1 1 1
v 0.5 0.025 0.5 1 1 1
v 0.4066738 0.025 0.2088831 1 1 1
v -0.5 0.025 0.5 1 1 1
v 0.3149444 0.025 0.190637 1 1 1
v 0.2263813 0.025 0.1605739 1 1 1
v 0.1425 0.025 0.1192082 1 1 1
v 0.06473558 0.025 0.06724764 1 1 1
v -0.005581348 0.025 0.005581348 1 1 1
v -0.06724764 0.025 -0.06473558 1 1 1
v -0.1192082 0.025 -0.1425 1 1 1
v -0.1605739 0.025 -0.2263813 1 1 1
v -0.190637 0.025 -0.3149444 1 1 1
v -0.2088831 0.025 -0.4066738 1 1 1
v -0.215 0.025 -0.5 1 1 1
v -0.5 0.025 -0.5 1 1 1
v 0.5 0.0125 0.215 1 1 1
v 0.4066738 0.0125 0.2088831 1 1 1
v 0.3149444 0.0125 0.190637 1 1 1
v 0.2263813 0.0125 0.1605739 1 1 1
v 0.1425 0.0125 0.1192082 1 1 1
v 0.06473558 0.0125 0.06724764 1 1 1
v -0.005581348 0.0125 0.005581348 1 1 1
v -0.06724764 0.0125 -0.06473558 1 1 1
v -0.1192082 0.0125 -0.1425 1 1 1
v -0.1605739 0.0125 -0.2263813 1 1 1
v -0.215 0.0125 -0.5 1 1 1
v -0.190637 0.0125 -0.3149444 1 1 1
v -0.2088831 0.0125 -0.4066738 1 1 1
v 0.5 1.384366E-18 0.1481861 1 1 1
v 0.5 1.384366E-18 0.1381861 1 1 1
v 0.5 1.435601E-18 0.5 1 1 1
v -0.5 1.599552E-18 0.5 1 1 1
v -0.5 1.599552E-18 -0.5 1 1 1
v 0.5 0.025 0.215 1 1 1
v 0.5 0.0125 0.215 1 1 1
v 0.5 1.384366E-18 0.148186 1 1 1
v 0.5 1.384366E-18 0.1381861 1 1 1
v -0.215 0.025 -0.5 1 1 1
v -0.215 0.0125 -0.5 1 1 1

vn -0.258819 0 0.9659258
vn -0.1305262 0 0.9914449
vn -0.3826834 0 0.9238795
vn -0.06540313 0 0.9978589
vn -0.5 0 0.8660254
vn -0.1393731 0.9900699 0.01834882
vn -0.2653541 0.963518 0.03493454
vn -0.1405698 0.990028 0.009213432
vn -0.2676027 0.9633697 0.01753961
vn -0.6087614 0 0.7933533
vn -0.05379601 0.9900699 0.1298751
vn -0.1024229 0.963518 0.2472707
vn -0.07028788 0.9900699 0.1217422
vn -0.1338219 0.963518 0.2317864
vn -0.03638368 0.9900699 0.1357858
vn -0.06927133 0.963518 0.2585241
vn -0.1357858 0.9900699 0.03638368
vn -0.2585241 0.963518 0.06927133
vn -0.1217422 0.9900699 0.07028788
vn -0.2317864 0.963518 0.1338219
vn -0.1298751 0.9900699 0.05379601
vn -0.2472707 0.963518 0.1024229
vn -0.0855771 0.9900699 0.1115263
vn -0.1629313 0.963518 0.2123362
vn -0.09940208 0.9900699 0.09940208
vn -0.1892528 0.963518 0.1892528
vn -0.1115263 0.9900699 0.0855771
vn -0.2123362 0.963518 0.1629313
vn 1 0 0
vn -0.01834882 0.9900699 0.1393731
vn -0.03493454 0.963518 0.2653541
vn -0.009213432 0.990028 0.1405698
vn 0 1 0
vn 0 0 -1
vn -0.01753961 0.9633697 0.2676027
vn -0.9914449 0 0.1305262
vn -0.9659258 0 0.258819
vn -0.8660254 0 0.5
vn -0.7933533 0 0.6087614
vn -0.7071068 0 0.7071068
vn -0.9238795 0 0.3826834
vn -0.9978589 0 0.06540313
vn 0.9659258 0 -0.258819
vn 0.9238795 0 -0.3826834
vn 0.8660254 0 -0.5
vn 0.7933533 0 -0.6087614
vn 0 -1 0
vn 0.7071068 0 -0.7071068
vn 0.6087614 0 -0.7933533
vn 0.9914449 0 -0.1305262
vn 0.5 0 -0.8660254
vn 0.9978589 0 -0.06540313
vn 0.3826834 0 -0.9238795
vn 0.258819 0 -0.9659258
vn 0.1305262 0 -0.9914449
vn 0.06540313 0 -0.9978589
vn -1 0 0
vn 0 0 1

vt 0.90625 0.125
vt 0.15625 0.375

usemtl colormap

f 3/1/2 2/1/1 1/1/1
f 2/1/1 3/1/2 4/1/2
f 1/1/1 6/1/3 5/1/3
f 6/1/3 1/1/1 2/1/1
f 7/1/4 4/1/2 3/1/2
f 4/1/2 7/1/4 8/1/4
f 5/1/3 10/1/5 9/1/5
f 10/1/5 5/1/3 6/1/3
f 13/1/8 12/1/7 11/1/6
f 12/1/7 13/1/8 14/1/9
f 9/1/5 16/1/10 15/1/10
f 16/1/10 9/1/5 10/1/5
f 18/1/13 6/1/12 17/1/11
f 6/1/12 18/1/13 10/1/14
f 17/1/11 2/1/16 19/1/15
f 2/1/16 17/1/11 6/1/12
f 11/1/6 21/1/18 20/1/17
f 21/1/18 11/1/6 12/1/7
f 24/1/21 23/1/20 22/1/19
f 23/1/20 24/1/21 25/1/22
f 27/1/25 16/1/24 26/1/23
f 16/1/24 27/1/25 28/1/26
f 22/1/19 30/1/28 29/1/27
f 30/1/28 22/1/19 23/1/20
f 20/1/17 25/1/22 24/1/21
f 25/1/22 20/1/17 21/1/18
f 29/1/27 28/1/26 27/1/25
f 28/1/26 29/1/27 30/1/28
f 33/1/29 32/1/29 31/1/29
f 32/1/29 33/1/29 34/1/29
f 34/1/29 33/1/29 8/1/29
f 34/1/29 8/1/29 7/1/29
f 19/1/15 4/1/31 35/1/30
f 4/1/31 19/1/15 2/1/16
f 31/1/33 35/1/30 33/1/32
f 35/1/30 31/1/33 13/1/8
f 35/1/30 13/1/8 19/1/15
f 19/1/15 13/1/8 17/1/11
f 17/1/11 13/1/8 18/1/13
f 18/1/13 13/1/8 26/1/23
f 26/1/23 13/1/8 27/1/25
f 27/1/25 13/1/8 29/1/27
f 29/1/27 13/1/8 22/1/19
f 22/1/19 13/1/8 24/1/21
f 24/1/21 13/1/8 20/1/17
f 20/1/17 13/1/8 11/1/6
f 36/1/34 31/1/34 32/1/34
f 31/1/34 36/1/34 37/1/34
f 31/1/34 37/1/34 14/1/34
f 31/1/34 14/1/34 13/1/34
f 26/1/23 10/1/14 18/1/13
f 10/1/14 26/1/23 16/1/24
f 35/1/30 8/1/35 33/1/32
f 8/1/35 35/1/30 4/1/31
f 39/1/37 12/1/36 38/1/36
f 12/1/36 39/1/37 21/1/37
f 41/1/39 23/1/38 40/1/38
f 23/1/38 41/1/39 30/1/39
f 42/1/40 30/1/39 41/1/39
f 30/1/39 42/1/40 28/1/40
f 43/1/41 21/1/37 39/1/37
f 21/1/37 43/1/41 25/1/41
f 40/1/38 25/1/41 43/1/41
f 25/1/41 40/1/38 23/1/38
f 15/1/10 28/1/40 42/1/40
f 28/1/40 15/1/10 16/1/10
f 38/1/36 14/1/42 37/1/42
f 14/1/42 38/1/36 12/1/36
f 46/2/33 45/2/33 44/2/33
f 45/2/33 46/2/33 47/2/33
f 47/2/33 46/2/33 48/2/33
f 47/2/33 48/2/33 49/2/33
f 47/2/33 49/2/33 50/2/33
f 47/2/33 50/2/33 51/2/33
f 47/2/33 51/2/33 52/2/33
f 47/2/33 52/2/33 53/2/33
f 47/2/33 53/2/33 54/2/33
f 47/2/33 54/2/33 55/2/33
f 47/2/33 55/2/33 56/2/33
f 47/2/33 56/2/33 57/2/33
f 47/2/33 57/2/33 58/2/33
f 47/2/33 58/2/33 59/2/33
f 7/2/33 61/2/33 60/2/33
f 61/2/33 7/2/33 3/2/33
f 61/2/33 3/2/33 1/2/33
f 61/2/33 1/2/33 62/2/33
f 62/2/33 1/2/33 5/2/33
f 62/2/33 5/2/33 63/2/33
f 63/2/33 5/2/33 9/2/33
f 63/2/33 9/2/33 64/2/33
f 64/2/33 9/2/33 15/2/33
f 64/2/33 15/2/33 65/2/33
f 65/2/33 15/2/33 42/2/33
f 65/2/33 42/2/33 66/2/33
f 66/2/33 42/2/33 41/2/33
f 66/2/33 41/2/33 40/2/33
f 66/2/33 40/2/33 67/2/33
f 67/2/33 40/2/33 43/2/33
f 67/2/33 43/2/33 68/2/33
f 68/2/33 43/2/33 39/2/33
f 68/2/33 39/2/33 38/2/33
f 68/2/33 38/2/33 69/2/33
f 69/2/33 38/2/33 37/2/33
f 69/2/33 37/2/33 70/2/33
f 69/2/33 70/2/33 71/2/33
f 71/2/33 70/2/33 72/2/33
f 55/2/44 71/2/43 56/2/43
f 71/2/43 55/2/44 69/2/44
f 54/2/45 69/2/44 55/2/44
f 69/2/44 54/2/45 68/2/45
f 53/2/46 68/2/45 54/2/45
f 68/2/45 53/2/46 67/2/46
f 75/2/47 74/2/47 73/2/47
f 32/2/47 74/2/47 75/2/47
f 74/2/47 32/2/47 34/2/47
f 32/2/47 75/2/47 76/2/47
f 32/2/47 76/2/47 36/2/47
f 36/2/47 76/2/47 77/2/47
f 52/2/48 67/2/46 53/2/46
f 67/2/46 52/2/48 66/2/48
f 52/2/48 65/2/49 66/2/48
f 65/2/49 52/2/48 51/2/49
f 56/2/43 72/2/50 57/2/50
f 72/2/50 56/2/43 71/2/43
f 51/2/49 64/2/51 65/2/49
f 64/2/51 51/2/49 50/2/51
f 57/2/50 70/2/52 58/2/52
f 70/2/52 57/2/50 72/2/50
f 50/2/51 63/2/53 64/2/51
f 63/2/53 50/2/51 49/2/53
f 49/2/53 62/2/54 63/2/53
f 62/2/54 49/2/53 48/2/54
f 48/2/54 61/2/55 62/2/54
f 61/2/55 48/2/54 46/2/55
f 46/2/55 60/2/56 61/2/55
f 60/2/56 46/2/55 44/2/56
f 45/2/29 79/2/29 78/2/29
f 75/2/29 79/2/29 45/2/29
f 80/2/29 79/2/29 75/2/29
f 81/2/29 79/2/29 80/2/29
f 34/2/29 79/2/29 81/2/29
f 79/2/29 34/2/29 7/2/29
f 76/2/57 59/2/57 77/2/57
f 59/2/57 76/2/57 47/2/57
f 45/2/58 76/2/58 75/2/58
f 76/2/58 45/2/58 47/2/58
f 83/2/34 59/2/34 82/2/34
f 59/2/34 83/2/34 77/2/34
f 37/2/34 77/2/34 83/2/34
f 77/2/34 37/2/34 36/2/34

g road-corner




usemtl colormap

f 3/1/2 2/1/1 1/1/1
f 2/1/1 3/1/2 4/1/2
f 1/1/1 6/1/3 5/1/3
f 6/1/3 1/1/1 2/1/1
f 7/1/4 4/1/2 3/1/2
f 4/1/2 7/1/4 8/1/4
f 5/1/3 10/1/5 9/1/5
f 10/1/5 5/1/3 6/1/3
f 13/1/8 12/1/7 11/1/6
f 12/1/7 13/1/8 14/1/9
f 9/1/5 16/1/10 15/1/10
f 16/1/10 9/1/5 10/1/5
f 18/1/13 6/1/12 17/1/11
f 6/1/12 18/1/13 10/1/14
f 17/1/11 2/1/16 19/1/15
f 2/1/16 17/1/11 6/1/12
f 11/1/6 21/1/18 20/1/17
f 21/1/18 11/1/6 12/1/7
f 24/1/21 23/1/20 22/1/19
f 23/1/20 24/1/21 25/1/22
f 27/1/25 16/1/24 26/1/23
f 16/1/24 27/1/25 28/1/26
f 22/1/19 30/1/28 29/1/27
f 30/1/28 22/1/19 23/1/20
f 20/1/17 25/1/22 24/1/21
f 25/1/22 20/1/17 21/1/18
f 29/1/27 28/1/26 27/1/25
f 28/1/26 29/1/27 30/1/28
f 33/1/29 32/1/29 31/1/29
f 32/1/29 33/1/29 34/1/29
f 34/1/29 33/1/29 8/1/29
f 34/1/29 8/1/29 7/1/29
f 19/1/15 4/1/31 35/1/30
f 4/1/31 19/1/15 2/1/16
f 31/1/33 35/1/30 33/1/32
f 35/1/30 31/1/33 13/1/8
f 35/1/30 13/1/8 19/1/15
f 19/1/15 13/1/8 17/1/11
f 17/1/11 13/1/8 18/1/13
f 18/1/13 13/1/8 26/1/23
f 26/1/23 13/1/8 27/1/25
f 27/1/25 13/1/8 29/1/27
f 29/1/27 13/1/8 22/1/19
f 22/1/19 13/1/8 24/1/21
f 24/1/21 13/1/8 20/1/17
f 20/1/17 13/1/8 11/1/6
f 36/1/34 31/1/34 32/1/34
f 31/1/34 36/1/34 37/1/34
f 31/1/34 37/1/34 14/1/34
f 31/1/34 14/1/34 13/1/34
f 26/1/23 10/1/14 18/1/13
f 10/1/14 26/1/23 16/1/24
f 35/1/30 8/1/35 33/1/32
f 8/1/35 35/1/30 4/1/31
f 39/1/37 12/1/36 38/1/36
f 12/1/36 39/1/37 21/1/37
f 41/1/39 23/1/38 40/1/38
f 23/1/38 41/1/39 30/1/39
f 42/1/40 30/1/39 41/1/39
f 30/1/39 42/1/40 28/1/40
f 43/1/41 21/1/37 39/1/37
f 21/1/37 43/1/41 25/1/41
f 40/1/38 25/1/41 43/1/41
f 25/1/41 40/1/38 23/1/38
f 15/1/10 28/1/40 42/1/40
f 28/1/40 15/1/10 16/1/10
f 38/1/36 14/1/42 37/1/42
f 14/1/42 38/1/36 12/1/36
f 46/2/33 45/2/33 44/2/33
f 45/2/33 46/2/33 47/2/33
f 47/2/33 46/2/33 48/2/33
f 47/2/33 48/2/33 49/2/33
f 47/2/33 49/2/33 50/2/33
f 47/2/33 50/2/33 51/2/33
f 47/2/33 51/2/33 52/2/33
f 47/2/33 52/2/33 53/2/33
f 47/2/33 53/2/33 54/2/33
f 47/2/33 54/2/33 55/2/33
f 47/2/33 55/2/33 56/2/33
f 47/2/33 56/2/33 57/2/33
f 47/2/33 57/2/33 58/2/33
f 47/2/33 58/2/33 59/2/33
f 7/2/33 61/2/33 60/2/33
f 61/2/33 7/2/33 3/2/33
f 61/2/33 3/2/33 1/2/33
f 61/2/33 1/2/33 62/2/33
f 62/2/33 1/2/33 5/2/33
f 62/2/33 5/2/33 63/2/33
f 63/2/33 5/2/33 9/2/33
f 63/2/33 9/2/33 64/2/33
f 64/2/33 9/2/33 15/2/33
f 64/2/33 15/2/33 65/2/33
f 65/2/33 15/2/33 42/2/33
f 65/2/33 42/2/33 66/2/33
f 66/2/33 42/2/33 41/2/33
f 66/2/33 41/2/33 40/2/33
f 66/2/33 40/2/33 67/2/33
f 67/2/33 40/2/33 43/2/33
f 67/2/33 43/2/33 68/2/33
f 68/2/33 43/2/33 39/2/33
f 68/2/33 39/2/33 38/2/33
f 68/2/33 38/2/33 69/2/33
f 69/2/33 38/2/33 37/2/33
f 69/2/33 37/2/33 70/2/33
f 69/2/33 70/2/33 71/2/33
f 71/2/33 70/2/33 72/2/33
f 55/2/44 71/2/43 56/2/43
f 71/2/43 55/2/44 69/2/44
f 54/2/45 69/2/44 55/2/44
f 69/2/44 54/2/45 68/2/45
f 53/2/46 68/2/45 54/2/45
f 68/2/45 53/2/46 67/2/46
f 75/2/47 74/2/47 73/2/47
f 32/2/47 74/2/47 75/2/47
f 74/2/47 32/2/47 34/2/47
f 32/2/47 75/2/47 76/2/47
f 32/2/47 76/2/47 36/2/47
f 36/2/47 76/2/47 77/2/47
f 52/2/48 67/2/46 53/2/46
f 67/2/46 52/2/48 66/2/48
f 52/2/48 65/2/49 66/2/48
f 65/2/49 52/2/48 51/2/49
f 56/2/43 72/2/50 57/2/50
f 72/2/50 56/2/43 71/2/43
f 51/2/49 64/2/51 65/2/49
f 64/2/51 51/2/49 50/2/51
f 57/2/50 70/2/52 58/2/52
f 70/2/52 57/2/50 72/2/50
f 50/2/51 63/2/53 64/2/51
f 63/2/53 50/2/51 49/2/53
f 49/2/53 62/2/54 63/2/53
f 62/2/54 49/2/53 48/2/54
f 48/2/54 61/2/55 62/2/54
f 61/2/55 48/2/54 46/2/55
f 46/2/55 60/2/56 61/2/55
f 60/2/56 46/2/55 44/2/56
f 45/2/29 79/2/29 78/2/29
f 75/2/29 79/2/29 45/2/29
f 80/2/29 79/2/29 75/2/29
f 81/2/29 79/2/29 80/2/29
f 34/2/29 79/2/29 81/2/29
f 79/2/29 34/2/29 7/2/29
f 76/2/57 59/2/57 77/2/57
f 59/2/57 76/2/57 47/2/57
f 45/2/58 76/2/58 75/2/58
f 76/2/58 45/2/58 47/2/58
f 83/2/34 59/2/34 82/2/34
f 59/2/34 83/2/34 77/2/34
f 37/2/34 77/2/34 83/2/34
f 77/2/34 37/2/34 36/2/34

