# Created by Kenney (www.kenney.nl)

mtllib road-edge-slope.mtl

g road-edge-slope

v -0.215 0.025 -0.5 1 1 1
v -0.215 0.225 0.5 1 1 1
v -0.5 0.025 -0.5 1 1 1
v -0.5 0.225 0.5 1 1 1
v -0.215 0.0125 -0.5 1 1 1
v -0.5 3.279031E-19 -0.5 1 1 1
v -0.125 0.0125 -0.5 1 1 1
v -0.125 1.639515E-19 -0.5 1 1 1
v -0.125 0.2125 0.5 1 1 1
v -0.215 0.2125 0.5 1 1 1
v 0.5 0 0.5 1 1 1
v 0.5 3.279031E-19 -0.5 1 1 1
v -0.125 0 0.5 1 1 1
v -0.5 0 0.5 1 1 1
v -0.125 0.2 0.5 1 1 1
v -0.035 0.05 -0.5 1 1 1
v -0.035 0.25 0.5 1 1 1
v -0.125 0.025 -0.5 1 1 1
v -0.125 0.225 0.5 1 1 1
v 0.5 0.05 -0.5 1 1 1
v 0.5 0.25 0.5 1 1 1

vn 0 0.9805807 -0.1961161
vn 0 0 -1
vn 1 0 0
vn 0 -1 0
vn -1 0 0
vn 0 0 1
vn -0.1347539 0.971637 -0.1943274
vn -0.1303205 0.9722182 -0.1944436
vn -0.2628087 0.9461112 -0.1892222

vt 0.15625 0.375
vt 0.90625 0.125

usemtl colormap

f 3/1/1 2/1/1 1/1/1
f 2/1/1 3/1/1 4/1/1
f 5/1/2 3/1/2 1/1/2
f 3/1/2 5/1/2 6/1/2
f 7/2/2 6/1/2 5/1/2
f 6/1/2 7/2/2 8/2/2
f 5/1/1 9/1/1 7/1/1
f 9/1/1 5/1/1 10/1/1
f 2/1/3 5/1/3 1/1/3
f 5/1/3 2/1/3 10/1/3
f 13/1/4 12/1/4 11/1/4
f 12/1/4 13/1/4 8/1/4
f 8/1/4 13/1/4 14/1/4
f 8/1/4 14/1/4 6/1/4
f 14/1/5 3/1/5 6/1/5
f 3/1/5 14/1/5 4/1/5
f 15/1/6 14/1/6 13/1/6
f 14/1/6 15/1/6 4/1/6
f 4/1/6 15/1/6 10/1/6
f 10/1/6 15/1/6 9/1/6
f 4/1/6 10/1/6 2/1/6
f 18/2/9 17/2/8 16/2/7
f 17/2/8 18/2/9 19/2/9
f 21/2/3 12/2/3 20/2/3
f 12/2/3 21/2/3 11/2/3
f 21/2/6 13/2/6 11/2/6
f 13/2/6 21/2/6 15/2/6
f 15/2/6 21/2/6 9/2/6
f 9/2/6 21/2/6 19/2/6
f 19/2/6 21/2/6 17/2/6
f 9/2/5 18/2/5 7/2/5
f 18/2/5 9/2/5 19/2/5
f 7/2/2 12/2/2 8/2/2
f 12/2/2 7/2/2 20/2/2
f 20/2/2 7/2/2 18/2/2
f 20/2/2 18/2/2 16/2/2
f 16/2/7 21/2/1 20/2/1
f 21/2/1 16/2/7 17/2/8

g road-edge-slope




usemtl colormap

f 3/1/1 2/1/1 1/1/1
f 2/1/1 3/1/1 4/1/1
f 5/1/2 3/1/2 1/1/2
f 3/1/2 5/1/2 6/1/2
f 7/2/2 6/1/2 5/1/2
f 6/1/2 7/2/2 8/2/2
f 5/1/1 9/1/1 7/1/1
f 9/1/1 5/1/1 10/1/1
f 2/1/3 5/1/3 1/1/3
f 5/1/3 2/1/3 10/1/3
f 13/1/4 12/1/4 11/1/4
f 12/1/4 13/1/4 8/1/4
f 8/1/4 13/1/4 14/1/4
f 8/1/4 14/1/4 6/1/4
f 14/1/5 3/1/5 6/1/5
f 3/1/5 14/1/5 4/1/5
f 15/1/6 14/1/6 13/1/6
f 14/1/6 15/1/6 4/1/6
f 4/1/6 15/1/6 10/1/6
f 10/1/6 15/1/6 9/1/6
f 4/1/6 10/1/6 2/1/6
f 18/2/9 17/2/8 16/2/7
f 17/2/8 18/2/9 19/2/9
f 21/2/3 12/2/3 20/2/3
f 12/2/3 21/2/3 11/2/3
f 21/2/6 13/2/6 11/2/6
f 13/2/6 21/2/6 15/2/6
f 15/2/6 21/2/6 9/2/6
f 9/2/6 21/2/6 19/2/6
f 19/2/6 21/2/6 17/2/6
f 9/2/5 18/2/5 7/2/5
f 18/2/5 9/2/5 19/2/5
f 7/2/2 12/2/2 8/2/2
f 12/2/2 7/2/2 20/2/2
f 20/2/2 7/2/2 18/2/2
f 20/2/2 18/2/2 16/2/2
f 16/2/7 21/2/1 20/2/1
f 21/2/1 16/2/7 17/2/8

