# Created by Kenney (www.kenney.nl)

mtllib rock-large.mtl

g rock-large

v -0.5887498 0.2754605 0.2348184 1 1 1
v -0.4611765 0.2754605 0.4544727 1 1 1
v -0.7105953 0.1377302 0.3573995 1 1 1
v -0.05689529 2.591244E-18 0.532935 1 1 1
v -0.3208479 5.182487E-18 0.7247078 1 1 1
v -0.1407411 0.2754605 0.425572 1 1 1
v -0.3208479 0.2754605 0.5564274 1 1 1
v -0.7990656 5.182487E-18 0.3772624 1 1 1
v -0.6164027 5.182487E-18 -0.1849162 1 1 1
v -0.5070474 0.2754605 -0.01663578 1 1 1
v -0.3684253 0.2754605 -0.01663578 1 1 1
v -0.3896502 0.2754605 0.04868759 1 1 1
v -0.2060857 0.2754605 0.3780963 1 1 1
v -0.1545532 0.2754605 0.2194955 1 1 1
v -0.4621714 2.591244E-18 -0.1849162 1 1 1
v -0.3537288 0.092121 -0.1286389 1 1 1
v 0.2064383 0.7618666 0.08837506 1 1 1
v 0.2696069 0.603614 0.06169212 1 1 1
v 0.2522673 0.7618666 0.08837506 1 1 1
v 0.3165923 0.7618666 0.286347 1 1 1
v 0.4507641 0.1377302 0.3835785 1 1 1
v 0.2785353 0.7618666 0.4034744 1 1 1
v -0.07435605 0.7618666 0.2187129 1 1 1
v -0.1198522 0.7618666 0.3587357 1 1 1
v -0.1545532 0.2754605 0.2194955 1 1 1
v -0.2060858 0.2754605 0.3780964 1 1 1
v 0.1101303 0.7618666 0.5258278 1 1 1
v -0.02365619 0.7618666 0.2555485 1 1 1
v 0.1101303 0 0.6542861 1 1 1
v -0.1407411 0.2754605 0.4255721 1 1 1
v 0.4751819 0 0.3890606 1 1 1
v 0.2975426 0.4341808 0.06196475 1 1 1
v 0.3274473 0.4341808 0.154002 1 1 1
v 0.4342793 7.97052E-21 0.2631753 1 1 1
v 0.3877369 0.4341808 -0.4390844 1 1 1
v 0.5578044 0.1377302 -0.566622 1 1 1
v 0.5368546 0.4341808 -0.2484858 1 1 1
v 0.008313566 0 -0.6258757 1 1 1
v 0.5963098 0 -0.6258757 1 1 1
v -0.009425819 0.1802618 -0.5483242 1 1 1
v 0.06156257 0.4341808 -0.4390844 1 1 1
v 0.6026616 0.4341808 -0.04595287 1 1 1
v 0.3274473 0.4341808 0.154002 1 1 1
v 0.3220777 0.4341808 0.04413894 1 1 1
v 0.2975426 0.4341808 0.06196474 1 1 1
v 0.1900191 0.4341808 -0.3622956 1 1 1
v 0.03661242 0.4341808 -0.3622956 1 1 1
v 0.006361902 0.3545556 -0.3719621 1 1 1
v 0.7990656 0 -0.001857445 1 1 1
v 0.4342793 7.97052E-21 0.2631753 1 1 1
v -0.4286817 0.5256879 -0.4819707 1 1 1
v -0.4611765 0.08722559 -0.7033932 1 1 1
v -0.2713904 0.5256879 -0.5962495 1 1 1
v -0.6144649 0 -0.2955639 1 1 1
v -0.4793958 0.5256879 -0.3258888 1 1 1
v -0.4621714 2.591244E-18 -0.1849162 1 1 1
v -0.3537288 0.092121 -0.1286389 1 1 1
v -0.2843713 0.5256879 -0.1841952 1 1 1
v -0.4750276 0 -0.7247078 1 1 1
v -0.02379897 0 -0.7247078 1 1 1
v -0.1072763 0.5256879 -0.5962495 1 1 1
v -0.02765056 0.5256879 -0.3511868 1 1 1
v 0.006361872 0.3545556 -0.3719621 1 1 1
v -0.2301125 0.5256879 -0.3511868 1 1 1
v -0.3577095 0.5256879 0.04151648 1 1 1
v -0.2152936 1.1628 -0.1647598 1 1 1
v -0.2152936 1.1628 0.06764275 1 1 1
v 0.1900191 0.4341808 -0.3622956 1 1 1
v 0.3220777 0.4341808 0.04413893 1 1 1
v 0.1325383 1.1628 -0.2738418 1 1 1
v 0.2290718 1.1628 0.02325783 1 1 1
v 0.006361898 0.3545556 -0.371962 1 1 1
v 0.0366124 0.4341808 -0.3622956 1 1 1
v -0.02765055 0.5256879 -0.3511867 1 1 1
v -0.2301125 0.5256879 -0.3511867 1 1 1
v -0.1798507 1.1628 -0.2738418 1 1 1
v -0.02365619 0.7618666 0.2555485 1 1 1
v -0.07435606 0.7618666 0.2187129 1 1 1
v -0.02365619 1.1628 0.2068755 1 1 1
v -0.1545532 0.2754605 0.2194955 1 1 1
v -0.3896502 0.2754605 0.04868762 1 1 1
v 0.2975426 0.4341808 0.06196474 1 1 1
v 0.269607 0.603614 0.0616921 1 1 1
v -0.2843713 0.5256879 -0.1841952 1 1 1
v -0.3684253 0.2754605 -0.01663575 1 1 1
v 0.4751819 0 0.3890606 1 1 1
v 0.008313562 0 -0.6258757 1 1 1
v -0.0568953 2.591244E-18 0.532935 1 1 1
v 0.7990655 0 -0.001857442 1 1 1
v -0.02379896 0 -0.7247078 1 1 1
v -0.4750276 0 -0.7247078 1 1 1
v -0.320848 5.182487E-18 0.7247078 1 1 1
v -0.4621714 2.591244E-18 -0.1849162 1 1 1
v -0.7990655 5.182487E-18 0.3772624 1 1 1
v -0.6164027 5.182487E-18 -0.1849162 1 1 1
v -0.6977485 0 -0.2052505 1 1 1
v -0.6977485 0 -0.3052505 1 1 1
v -0.7843511 0 -0.1552505 1 1 1
v -0.7843511 0 -0.3552504 1 1 1
v -0.8709537 0 -0.2052505 1 1 1
v -0.8709537 0 -0.3052505 1 1 1
v -0.7306575 0.1 -0.2862504 1 1 1
v -0.7306575 0.1 -0.2242505 1 1 1
v -0.7843511 0.1 -0.3172505 1 1 1
v -0.7843511 0.1 -0.1932504 1 1 1
v -0.8380447 0.1 -0.2862504 1 1 1
v -0.8380447 0.1 -0.2242505 1 1 1
v -0.0001389012 0 0.7738542 1 1 1
v -0.0001389012 0 0.6738542 1 1 1
v -0.08674144 0 0.8238542 1 1 1
v -0.08674144 0 0.6238542 1 1 1
v -0.173344 0 0.7738542 1 1 1
v -0.173344 0 0.6738542 1 1 1
v -0.03304787 0.1 0.6928542 1 1 1
v -0.03304787 0.1 0.7548542 1 1 1
v -0.08674144 0.1 0.6618542 1 1 1
v -0.08674144 0.1 0.7858542 1 1 1
v -0.140435 0.1 0.6928542 1 1 1
v -0.140435 0.1 0.7548542 1 1 1
v 0.7150831 0 0.3415586 1 1 1
v 0.7150831 0 0.2415586 1 1 1
v 0.6284806 0 0.3915586 1 1 1
v 0.6284806 0 0.1915586 1 1 1
v 0.5418781 0 0.3415586 1 1 1
v 0.5418781 0 0.2415586 1 1 1
v 0.6821742 0.1 0.2605586 1 1 1
v 0.6821742 0.1 0.3225586 1 1 1
v 0.6284806 0.1 0.2295586 1 1 1
v 0.6284806 0.1 0.3535586 1 1 1
v 0.574787 0.1 0.2605586 1 1 1
v 0.574787 0.1 0.3225586 1 1 1
v -0.1700274 0.2754605 0.2347725 1 1 1
v -0.1700274 0.2754605 0.1347725 1 1 1
v -0.2566299 0.2754605 0.2847725 1 1 1
v -0.2566299 0.2754605 0.08477246 1 1 1
v -0.3432325 0.2754605 0.2347725 1 1 1
v -0.3432325 0.2754605 0.1347725 1 1 1
v -0.2029363 0.3754604 0.1537725 1 1 1
v -0.2029363 0.3754604 0.2157725 1 1 1
v -0.2566299 0.3754604 0.1227725 1 1 1
v -0.2566299 0.3754604 0.2467725 1 1 1
v -0.3103235 0.3754604 0.1537725 1 1 1
v -0.3103235 0.3754604 0.2157725 1 1 1

vn -0.550337 0.7713398 0.319631
vn 0.526941 0.443073 0.7252721
vn -0.526941 0.443073 0.7252721
vn -0.8275558 0.4927981 -0.2688892
vn 0 1 0
vn 0 0.5213225 -0.8533597
vn 0 0.1662632 -0.9860814
vn 0.9220955 0.2448992 0.299607
vn -0.9396467 0.1544348 -0.3053097
vn -0.5823919 0.1351567 0.8015937
vn 0.5823919 0.1351567 0.8015937
vn 0.9396467 0.1544348 -0.3053097
vn 0.6400954 0.5826564 -0.5007887
vn 0 0.3951948 -0.9185973
vn -0.8833893 0.370455 -0.2870306
vn 0.8833893 0.370455 -0.2870306
vn 0.5551224 0.3287106 0.7640604
vn -0.5355897 0.4119652 -0.7371759
vn -0.5766253 0.1939398 0.7936566
vn -0.9275539 0.2209382 -0.3013805
vn 0.9275539 0.2209382 -0.3013805
vn 0 0.2373779 -0.9714174
vn -0.9533455 0.1239898 -0.2752431
vn -0.9697325 0.1559344 -0.1878916
vn -0.9759153 0.2181497 0
vn 0.9450901 0.1118372 -0.3070784
vn 0 0.1205144 -0.9927117
vn -0.5849708 0.09774375 0.8051431
vn 0.5849708 0.09774375 0.8051431
vn -0.9450901 0.1118372 -0.3070784
vn 0 -1 0
vn 0.8095464 0.3552178 -0.4673918
vn 0.8095464 0.3552178 0.4673918
vn 0 0.3552178 -0.9347836
vn 0 0.3552178 0.9347836
vn -0.8095464 0.3552178 0.4673918
vn -0.8095464 0.3552178 -0.4673918

vt 0.21875 0.3418508
vt 0.21875 0.325707
vt 0.21875 0.3095633
vt 0.21875 0.320361
vt 0.21875 0.418757
vt 0.21875 0.3896785
vt 0.21875 0.3040734
vt 0.21875 0.329381
vt 0.21875 0.2787657
vt 0.21875 0.3585455
vt 0.21875 0.440334
vt 0.21875 0.3924609
vt 0.21875 0.3702192
vt 0.21875 0.3993292
vt 0.21875 0.4274755
vt 0.21875 0.3739805
vt 0.21875 0.3464089
vt 0.21875 0.3409239
vt 0.21875 0.3467167
vt 0.21875 0.3522592
vt 0.21875 0.3632193
vt 0.21875 0.4062601
vt 0.21875 0.4488209
vt 0.21875 0.4001472
vt 0.21875 0.394828
vt 0.21875 0.4220375
vt 0.21875 0.3895442
vt 0.21875 0.4114658
vt 0.21875 0.3772967
vt 0.21875 0.3900687
vt 0.21875 0.3901645
vt 0.21875 0.4212385
vt 0.21875 0.4524085
vt 0.21875 0.325
vt 0.21875 0.425

usemtl colormap

f 3/2/1 2/1/1 1/1/1
f 6/1/2 5/3/2 4/3/2
f 5/3/2 6/1/2 7/1/2
f 7/1/3 8/3/3 5/3/3
f 8/3/3 7/1/3 3/2/3
f 3/2/3 7/1/3 2/1/3
f 8/3/4 10/1/4 9/3/4
f 10/1/4 8/3/4 1/1/4
f 1/1/4 8/3/4 3/2/4
f 10/1/5 12/1/5 11/1/5
f 12/1/5 10/1/5 2/1/5
f 2/1/5 10/1/5 1/1/5
f 7/1/5 12/1/5 2/1/5
f 13/1/5 12/1/5 7/1/5
f 7/1/5 6/1/5 13/1/5
f 12/1/5 13/1/5 14/1/5
f 9/3/6 16/4/6 15/3/6
f 16/4/6 9/3/6 10/1/6
f 16/4/6 10/1/6 11/1/6
f 19/5/7 18/6/7 17/5/7
f 22/5/8 21/7/8 20/5/8
f 25/8/9 24/5/9 23/5/9
f 24/5/9 25/8/9 26/8/9
f 19/5/5 22/5/5 20/5/5
f 22/5/5 19/5/5 27/5/5
f 27/5/5 19/5/5 17/5/5
f 27/5/5 17/5/5 28/5/5
f 27/5/5 28/5/5 24/5/5
f 24/5/5 28/5/5 23/5/5
f 27/5/10 4/9/10 29/9/10
f 4/9/10 27/5/10 30/8/10
f 24/5/10 30/8/10 27/5/10
f 30/8/10 24/5/10 26/8/10
f 21/7/11 29/9/11 31/9/11
f 29/9/11 21/7/11 27/5/11
f 27/5/11 21/7/11 22/5/11
f 19/5/12 32/10/12 18/6/12
f 32/10/12 19/5/12 33/10/12
f 33/10/12 19/5/12 20/5/12
f 33/10/12 20/5/12 34/9/12
f 34/9/12 20/5/12 31/9/12
f 31/9/12 20/5/12 21/7/12
f 37/11/13 36/12/13 35/11/13
f 40/14/14 39/13/14 38/13/14
f 39/13/14 40/14/14 36/12/14
f 36/12/14 40/14/14 35/11/14
f 35/11/14 40/14/14 41/11/14
f 37/11/5 43/11/5 42/11/5
f 43/11/5 37/11/5 35/11/5
f 43/11/5 35/11/5 44/11/5
f 45/11/5 43/11/5 44/11/5
f 44/11/5 35/11/5 46/11/5
f 46/11/5 35/11/5 41/11/5
f 46/11/5 41/11/5 47/11/5
f 48/15/15 41/11/15 40/14/15
f 41/11/15 48/15/15 47/11/15
f 36/12/16 49/13/16 39/13/16
f 49/13/16 36/12/16 37/11/16
f 49/13/16 37/11/16 42/11/16
f 42/11/17 50/13/17 49/13/17
f 50/13/17 42/11/17 43/11/17
f 53/16/18 52/17/18 51/16/18
f 56/18/19 55/16/19 54/18/19
f 55/16/19 56/18/19 57/19/19
f 55/16/19 57/19/19 58/16/19
f 54/18/20 52/17/20 59/18/20
f 52/17/20 54/18/20 51/16/20
f 51/16/20 54/18/20 55/16/20
f 61/16/21 38/18/21 60/18/21
f 38/18/21 61/16/21 40/20/21
f 40/20/21 61/16/21 62/16/21
f 40/20/21 62/16/21 63/21/21
f 61/16/5 64/16/5 62/16/5
f 64/16/5 61/16/5 53/16/5
f 64/16/5 53/16/5 58/16/5
f 58/16/5 53/16/5 51/16/5
f 58/16/5 51/16/5 55/16/5
f 52/17/22 60/18/22 59/18/22
f 60/18/22 52/17/22 61/16/22
f 61/16/22 52/17/22 53/16/22
f 67/23/25 66/23/24 65/22/23
f 70/23/26 69/24/26 68/24/26
f 69/24/26 70/23/26 71/23/26
f 74/22/27 73/24/27 72/25/27
f 73/24/27 74/22/27 68/24/27
f 68/24/27 74/22/27 70/23/27
f 70/23/27 74/22/27 75/22/27
f 70/23/27 75/22/27 76/23/27
f 79/23/28 78/26/28 77/26/28
f 67/23/28 78/26/28 79/23/28
f 65/22/28 78/26/28 67/23/28
f 65/22/28 80/27/28 78/26/28
f 80/27/28 65/22/28 81/27/28
f 71/23/29 82/24/29 69/24/29
f 82/24/29 71/23/29 83/28/29
f 83/28/29 71/23/29 17/26/29
f 17/26/29 71/23/29 77/26/29
f 77/26/29 71/23/29 79/23/29
f 70/23/5 79/23/5 71/23/5
f 79/23/5 70/23/5 76/23/5
f 79/23/5 76/23/5 67/23/5
f 67/23/5 76/23/5 66/23/5
f 84/22/30 76/23/30 75/22/30
f 76/23/30 84/22/30 66/23/24
f 66/23/24 84/22/30 57/29/30
f 66/23/24 57/29/30 65/22/23
f 65/22/23 57/29/30 85/27/30
f 65/22/23 85/27/30 81/27/30
f 29/30/31 50/31/31 86/30/31
f 87/30/31 50/31/31 29/30/31
f 87/30/31 29/30/31 88/32/31
f 39/30/31 50/31/31 87/30/31
f 50/31/31 39/30/31 89/30/31
f 87/30/31 88/32/31 90/30/31
f 90/30/31 88/32/31 91/30/31
f 91/30/31 88/32/31 92/33/31
f 91/30/31 92/33/31 93/32/31
f 91/30/31 93/32/31 54/30/31
f 94/33/31 93/32/31 92/33/31
f 93/32/31 94/33/31 95/33/31
f 98/34/31 97/34/31 96/34/31
f 97/34/31 98/34/31 99/34/31
f 99/34/31 98/34/31 100/34/31
f 99/34/31 100/34/31 101/34/31
f 104/35/5 103/35/5 102/35/5
f 103/35/5 104/35/5 105/35/5
f 105/35/5 104/35/5 106/35/5
f 105/35/5 106/35/5 107/35/5
f 102/35/32 96/34/33 97/34/32
f 96/34/33 102/35/32 103/35/33
f 104/35/34 97/34/32 99/34/34
f 97/34/32 104/35/34 102/35/32
f 105/35/35 100/34/36 98/34/35
f 100/34/36 105/35/35 107/35/36
f 100/34/36 106/35/37 101/34/37
f 106/35/37 100/34/36 107/35/36
f 103/35/33 98/34/35 96/34/33
f 98/34/35 103/35/33 105/35/35
f 106/35/37 99/34/34 101/34/37
f 99/34/34 106/35/37 104/35/34
f 110/34/31 109/34/31 108/34/31
f 109/34/31 110/34/31 111/34/31
f 111/34/31 110/34/31 112/34/31
f 111/34/31 112/34/31 113/34/31
f 116/35/5 115/35/5 114/35/5
f 115/35/5 116/35/5 117/35/5
f 117/35/5 116/35/5 118/35/5
f 117/35/5 118/35/5 119/35/5
f 114/35/32 108/34/33 109/34/32
f 108/34/33 114/35/32 115/35/33
f 116/35/34 109/34/32 111/34/34
f 109/34/32 116/35/34 114/35/32
f 117/35/35 112/34/36 110/34/35
f 112/34/36 117/35/35 119/35/36
f 112/34/36 118/35/37 113/34/37
f 118/35/37 112/34/36 119/35/36
f 115/35/33 110/34/35 108/34/33
f 110/34/35 115/35/33 117/35/35
f 118/35/37 111/34/34 113/34/37
f 111/34/34 118/35/37 116/35/34
f 122/34/31 121/34/31 120/34/31
f 121/34/31 122/34/31 123/34/31
f 123/34/31 122/34/31 124/34/31
f 123/34/31 124/34/31 125/34/31
f 128/35/5 127/35/5 126/35/5
f 127/35/5 128/35/5 129/35/5
f 129/35/5 128/35/5 130/35/5
f 129/35/5 130/35/5 131/35/5
f 126/35/32 120/34/33 121/34/32
f 120/34/33 126/35/32 127/35/33
f 128/35/34 121/34/32 123/34/34
f 121/34/32 128/35/34 126/35/32
f 129/35/35 124/34/36 122/34/35
f 124/34/36 129/35/35 131/35/36
f 124/34/36 130/35/37 125/34/37
f 130/35/37 124/34/36 131/35/36
f 127/35/33 122/34/35 120/34/33
f 122/34/35 127/35/33 129/35/35
f 130/35/37 123/34/34 125/34/37
f 123/34/34 130/35/37 128/35/34
f 134/34/31 133/34/31 132/34/31
f 133/34/31 134/34/31 135/34/31
f 135/34/31 134/34/31 136/34/31
f 135/34/31 136/34/31 137/34/31
f 140/35/5 139/35/5 138/35/5
f 139/35/5 140/35/5 141/35/5
f 141/35/5 140/35/5 142/35/5
f 141/35/5 142/35/5 143/35/5
f 138/35/32 132/34/33 133/34/32
f 132/34/33 138/35/32 139/35/33
f 140/35/34 133/34/32 135/34/34
f 133/34/32 140/35/34 138/35/32
f 141/35/35 136/34/36 134/34/35
f 136/34/36 141/35/35 143/35/36
f 136/34/36 142/35/37 137/34/37
f 142/35/37 136/34/36 143/35/36
f 139/35/33 134/34/35 132/34/33
f 134/34/35 139/35/33 141/35/35
f 142/35/37 135/34/34 137/34/37
f 135/34/34 142/35/37 140/35/34

g rock-large




usemtl colormap

f 3/2/1 2/1/1 1/1/1
f 6/1/2 5/3/2 4/3/2
f 5/3/2 6/1/2 7/1/2
f 7/1/3 8/3/3 5/3/3
f 8/3/3 7/1/3 3/2/3
f 3/2/3 7/1/3 2/1/3
f 8/3/4 10/1/4 9/3/4
f 10/1/4 8/3/4 1/1/4
f 1/1/4 8/3/4 3/2/4
f 10/1/5 12/1/5 11/1/5
f 12/1/5 10/1/5 2/1/5
f 2/1/5 10/1/5 1/1/5
f 7/1/5 12/1/5 2/1/5
f 13/1/5 12/1/5 7/1/5
f 7/1/5 6/1/5 13/1/5
f 12/1/5 13/1/5 14/1/5
f 9/3/6 16/4/6 15/3/6
f 16/4/6 9/3/6 10/1/6
f 16/4/6 10/1/6 11/1/6
f 19/5/7 18/6/7 17/5/7
f 22/5/8 21/7/8 20/5/8
f 25/8/9 24/5/9 23/5/9
f 24/5/9 25/8/9 26/8/9
f 19/5/5 22/5/5 20/5/5
f 22/5/5 19/5/5 27/5/5
f 27/5/5 19/5/5 17/5/5
f 27/5/5 17/5/5 28/5/5
f 27/5/5 28/5/5 24/5/5
f 24/5/5 28/5/5 23/5/5
f 27/5/10 4/9/10 29/9/10
f 4/9/10 27/5/10 30/8/10
f 24/5/10 30/8/10 27/5/10
f 30/8/10 24/5/10 26/8/10
f 21/7/11 29/9/11 31/9/11
f 29/9/11 21/7/11 27/5/11
f 27/5/11 21/7/11 22/5/11
f 19/5/12 32/10/12 18/6/12
f 32/10/12 19/5/12 33/10/12
f 33/10/12 19/5/12 20/5/12
f 33/10/12 20/5/12 34/9/12
f 34/9/12 20/5/12 31/9/12
f 31/9/12 20/5/12 21/7/12
f 37/11/13 36/12/13 35/11/13
f 40/14/14 39/13/14 38/13/14
f 39/13/14 40/14/14 36/12/14
f 36/12/14 40/14/14 35/11/14
f 35/11/14 40/14/14 41/11/14
f 37/11/5 43/11/5 42/11/5
f 43/11/5 37/11/5 35/11/5
f 43/11/5 35/11/5 44/11/5
f 45/11/5 43/11/5 44/11/5
f 44/11/5 35/11/5 46/11/5
f 46/11/5 35/11/5 41/11/5
f 46/11/5 41/11/5 47/11/5
f 48/15/15 41/11/15 40/14/15
f 41/11/15 48/15/15 47/11/15
f 36/12/16 49/13/16 39/13/16
f 49/13/16 36/12/16 37/11/16
f 49/13/16 37/11/16 42/11/16
f 42/11/17 50/13/17 49/13/17
f 50/13/17 42/11/17 43/11/17
f 53/16/18 52/17/18 51/16/18
f 56/18/19 55/16/19 54/18/19
f 55/16/19 56/18/19 57/19/19
f 55/16/19 57/19/19 58/16/19
f 54/18/20 52/17/20 59/18/20
f 52/17/20 54/18/20 51/16/20
f 51/16/20 54/18/20 55/16/20
f 61/16/21 38/18/21 60/18/21
f 38/18/21 61/16/21 40/20/21
f 40/20/21 61/16/21 62/16/21
f 40/20/21 62/16/21 63/21/21
f 61/16/5 64/16/5 62/16/5
f 64/16/5 61/16/5 53/16/5
f 64/16/5 53/16/5 58/16/5
f 58/16/5 53/16/5 51/16/5
f 58/16/5 51/16/5 55/16/5
f 52/17/22 60/18/22 59/18/22
f 60/18/22 52/17/22 61/16/22
f 61/16/22 52/17/22 53/16/22
f 67/23/25 66/23/24 65/22/23
f 70/23/26 69/24/26 68/24/26
f 69/24/26 70/23/26 71/23/26
f 74/22/27 73/24/27 72/25/27
f 73/24/27 74/22/27 68/24/27
f 68/24/27 74/22/27 70/23/27
f 70/23/27 74/22/27 75/22/27
f 70/23/27 75/22/27 76/23/27
f 79/23/28 78/26/28 77/26/28
f 67/23/28 78/26/28 79/23/28
f 65/22/28 78/26/28 67/23/28
f 65/22/28 80/27/28 78/26/28
f 80/27/28 65/22/28 81/27/28
f 71/23/29 82/24/29 69/24/29
f 82/24/29 71/23/29 83/28/29
f 83/28/29 71/23/29 17/26/29
f 17/26/29 71/23/29 77/26/29
f 77/26/29 71/23/29 79/23/29
f 70/23/5 79/23/5 71/23/5
f 79/23/5 70/23/5 76/23/5
f 79/23/5 76/23/5 67/23/5
f 67/23/5 76/23/5 66/23/5
f 84/22/30 76/23/30 75/22/30
f 76/23/30 84/22/30 66/23/24
f 66/23/24 84/22/30 57/29/30
f 66/23/24 57/29/30 65/22/23
f 65/22/23 57/29/30 85/27/30
f 65/22/23 85/27/30 81/27/30
f 29/30/31 50/31/31 86/30/31
f 87/30/31 50/31/31 29/30/31
f 87/30/31 29/30/31 88/32/31
f 39/30/31 50/31/31 87/30/31
f 50/31/31 39/30/31 89/30/31
f 87/30/31 88/32/31 90/30/31
f 90/30/31 88/32/31 91/30/31
f 91/30/31 88/32/31 92/33/31
f 91/30/31 92/33/31 93/32/31
f 91/30/31 93/32/31 54/30/31
f 94/33/31 93/32/31 92/33/31
f 93/32/31 94/33/31 95/33/31
f 98/34/31 97/34/31 96/34/31
f 97/34/31 98/34/31 99/34/31
f 99/34/31 98/34/31 100/34/31
f 99/34/31 100/34/31 101/34/31
f 104/35/5 103/35/5 102/35/5
f 103/35/5 104/35/5 105/35/5
f 105/35/5 104/35/5 106/35/5
f 105/35/5 106/35/5 107/35/5
f 102/35/32 96/34/33 97/34/32
f 96/34/33 102/35/32 103/35/33
f 104/35/34 97/34/32 99/34/34
f 97/34/32 104/35/34 102/35/32
f 105/35/35 100/34/36 98/34/35
f 100/34/36 105/35/35 107/35/36
f 100/34/36 106/35/37 101/34/37
f 106/35/37 100/34/36 107/35/36
f 103/35/33 98/34/35 96/34/33
f 98/34/35 103/35/33 105/35/35
f 106/35/37 99/34/34 101/34/37
f 99/34/34 106/35/37 104/35/34
f 110/34/31 109/34/31 108/34/31
f 109/34/31 110/34/31 111/34/31
f 111/34/31 110/34/31 112/34/31
f 111/34/31 112/34/31 113/34/31
f 116/35/5 115/35/5 114/35/5
f 115/35/5 116/35/5 117/35/5
f 117/35/5 116/35/5 118/35/5
f 117/35/5 118/35/5 119/35/5
f 114/35/32 108/34/33 109/34/32
f 108/34/33 114/35/32 115/35/33
f 116/35/34 109/34/32 111/34/34
f 109/34/32 116/35/34 114/35/32
f 117/35/35 112/34/36 110/34/35
f 112/34/36 117/35/35 119/35/36
f 112/34/36 118/35/37 113/34/37
f 118/35/37 112/34/36 119/35/36
f 115/35/33 110/34/35 108/34/33
f 110/34/35 115/35/33 117/35/35
f 118/35/37 111/34/34 113/34/37
f 111/34/34 118/35/37 116/35/34
f 122/34/31 121/34/31 120/34/31
f 121/34/31 122/34/31 123/34/31
f 123/34/31 122/34/31 124/34/31
f 123/34/31 124/34/31 125/34/31
f 128/35/5 127/35/5 126/35/5
f 127/35/5 128/35/5 129/35/5
f 129/35/5 128/35/5 130/35/5
f 129/35/5 130/35/5 131/35/5
f 126/35/32 120/34/33 121/34/32
f 120/34/33 126/35/32 127/35/33
f 128/35/34 121/34/32 123/34/34
f 121/34/32 128/35/34 126/35/32
f 129/35/35 124/34/36 122/34/35
f 124/34/36 129/35/35 131/35/36
f 124/34/36 130/35/37 125/34/37
f 130/35/37 124/34/36 131/35/36
f 127/35/33 122/34/35 120/34/33
f 122/34/35 127/35/33 129/35/35
f 130/35/37 123/34/34 125/34/37
f 123/34/34 130/35/37 128/35/34
f 134/34/31 133/34/31 132/34/31
f 133/34/31 134/34/31 135/34/31
f 135/34/31 134/34/31 136/34/31
f 135/34/31 136/34/31 137/34/31
f 140/35/5 139/35/5 138/35/5
f 139/35/5 140/35/5 141/35/5
f 141/35/5 140/35/5 142/35/5
f 141/35/5 142/35/5 143/35/5
f 138/35/32 132/34/33 133/34/32
f 132/34/33 138/35/32 139/35/33
f 140/35/34 133/34/32 135/34/34
f 133/34/32 140/35/34 138/35/32
f 141/35/35 136/34/36 134/34/35
f 136/34/36 141/35/35 143/35/36
f 136/34/36 142/35/37 137/34/37
f 142/35/37 136/34/36 143/35/36
f 139/35/33 134/34/35 132/34/33
f 134/34/35 139/35/33 141/35/35
f 142/35/37 135/34/34 137/34/37
f 135/34/34 142/35/37 140/35/34

