# Created by Kenney (www.kenney.nl)

mtllib rock-small.mtl

g rock-small

v -0.4380099 0.06208146 -0.08012211 1 1 1
v -0.3381544 0.2056275 -0.1837654 1 1 1
v -0.2948976 0.2056275 -0.04380882 1 1 1
v -0.3583742 0 -0.4697875 1 1 1
v -0.2909925 0.2056275 -0.3506038 1 1 1
v -0.4709261 0 -0.07162768 1 1 1
v -0.1833285 0 -0.4697875 1 1 1
v -0.1977207 0.2056275 -0.3506038 1 1 1
v -0.268189 0.2056275 -0.1337248 1 1 1
v -0.1855093 0.2056275 0.04754205 1 1 1
v -0.1570868 0.2056275 -0.05300437 1 1 1
v -0.2610097 0 0.1036748 1 1 1
v -0.1115188 1.02 -0.3193135 1 1 1
v -0.1326903 0.3465071 -0.4994387 1 1 1
v 0.02386728 1.02 -0.4176772 1 1 1
v 0.2595051 1.02 -0.2175106 1 1 1
v 0.3634005 0.3599364 -0.1381471 1 1 1
v 0.1232639 1.02 -0.04380883 1 1 1
v 0.2749348 0 -0.5415044 1 1 1
v 0.4093452 0 -0.1278319 1 1 1
v 0.194467 1.02 -0.4176772 1 1 1
v -0.1600263 0 -0.5415044 1 1 1
v -0.1833285 0 -0.4697875 1 1 1
v -0.2681889 0.2056275 -0.1337248 1 1 1
v -0.164237 1.02 -0.1570635 1 1 1
v 0.3784102 0 -0.1053563 1 1 1
v 0.2566262 0.452625 -0.07182336 1 1 1
v 0.05745429 0.452625 0.07288355 1 1 1
v 0.05745429 1.02 0.004004657 1 1 1
v -0.09062923 0.452625 -0.03470546 1 1 1
v -0.1570868 0.2056275 -0.05300438 1 1 1
v -0.2371426 0.1831509 0.2071394 1 1 1
v -0.1326903 0.452625 0.1140884 1 1 1
v -0.03229988 0.452625 0.2860528 1 1 1
v 0.329334 0.452625 0.1853852 1 1 1
v 0.08824474 0.452625 0.3867204 1 1 1
v 0.2566262 0.452625 -0.07182337 1 1 1
v 0.05745429 0.452625 0.07288353 1 1 1
v -0.09062924 0.452625 -0.03470546 1 1 1
v 0.08824474 0 0.5415044 1 1 1
v -0.2944366 0 0.2219248 1 1 1
v 0.4709261 0 0.2219248 1 1 1
v 0.3784102 0 -0.1053563 1 1 1
v -0.1570868 0.2056275 -0.05300438 1 1 1
v -0.1855092 0.2056275 0.04754206 1 1 1
v -0.2610097 0 0.1036749 1 1 1
v 0.4093452 0 -0.1278318 1 1 1
v -0.3583742 0 -0.4697875 1 1 1
v -0.3541799 0 0.2037406 1 1 1
v -0.3541799 0 0.1037406 1 1 1
v -0.4407824 0 0.2537406 1 1 1
v -0.4407824 0 0.05374057 1 1 1
v -0.5273849 0 0.2037406 1 1 1
v -0.5273849 0 0.1037406 1 1 1
v -0.3870888 0.1 0.1227406 1 1 1
v -0.3870888 0.1 0.1847406 1 1 1
v -0.4407824 0.1 0.09174057 1 1 1
v -0.4407824 0.1 0.2157406 1 1 1
v -0.494476 0.1 0.1227406 1 1 1
v -0.494476 0.1 0.1847406 1 1 1
v 0.1958174 0.452625 0.1223569 1 1 1
v 0.1958174 0.452625 0.02235689 1 1 1
v 0.1092148 0.452625 0.1723569 1 1 1
v 0.1092148 0.452625 -0.02764311 1 1 1
v 0.02261227 0.452625 0.1223569 1 1 1
v 0.02261227 0.452625 0.02235689 1 1 1
v 0.1629084 0.552625 0.04135689 1 1 1
v 0.1629084 0.552625 0.1033569 1 1 1
v 0.1092148 0.552625 0.01035689 1 1 1
v 0.1092148 0.552625 0.1343569 1 1 1
v 0.05552123 0.552625 0.04135689 1 1 1
v 0.05552123 0.552625 0.1033569 1 1 1
v -0.1055052 -3.609557E-16 -0.6347656 1 1 1
v -0.1055052 -3.609557E-16 -0.7347656 1 1 1
v -0.1921077 -3.609557E-16 -0.5847656 1 1 1
v -0.1921077 -3.609557E-16 -0.7847657 1 1 1
v -0.2787102 -3.609557E-16 -0.6347656 1 1 1
v -0.2787102 -3.609557E-16 -0.7347656 1 1 1
v -0.1384141 0.1 -0.7157657 1 1 1
v -0.1384141 0.1 -0.6537656 1 1 1
v -0.1921077 0.1 -0.7467656 1 1 1
v -0.1921077 0.1 -0.6227657 1 1 1
v -0.2458013 0.1 -0.7157657 1 1 1
v -0.2458013 0.1 -0.6537656 1 1 1

vn -0.7180132 0.6597039 0.2219188
vn -0.8698902 0.4275792 -0.2459007
vn 0 0.5014654 -0.8651778
vn 0 1 0
vn -0.5856468 0.406471 0.7012841
vn -0.5722171 0.2286281 -0.7875893
vn 0.7718507 0.194281 0.6053935
vn 0.6058505 0.1077548 0.7882474
vn 0.6651753 0.1370916 0.7339944
vn 0.9450901 0.1118372 -0.3070784
vn 0 0.1205144 -0.9927117
vn -0.9450901 0.1118372 -0.3070784
vn 0.5849708 0.09774375 0.8051431
vn -0.5849708 0.09774375 0.8051431
vn -0.7696949 0.4535042 0.4493369
vn -0.6199859 0.2538795 0.7424034
vn 0.6199859 0.2538795 0.7424034
vn 0.9268758 0.2687978 -0.2620094
vn -0.9268758 0.2687978 -0.2620094
vn 0 -1 0
vn 0.8095464 0.3552178 -0.4673918
vn 0.8095464 0.3552178 0.4673918
vn 0 0.3552178 -0.9347836
vn 0 0.3552178 0.9347836
vn -0.8095464 0.3552178 0.4673918
vn -0.8095464 0.3552178 -0.4673918

vt 0.21875 0.366103
vt 0.21875 0.3826804
vt 0.21875 0.3589336
vt 0.21875 0.4710369
vt 0.21875 0.4224055
vt 0.21875 0.4233752
vt 0.21875 0.397385
vt 0.21875 0.4122329
vt 0.21875 0.430068
vt 0.21875 0.3394707
vt 0.21875 0.4271742
vt 0.21875 0.2798622
vt 0.21875 0.346786
vt 0.21875 0.3090797
vt 0.21875 0.325
vt 0.21875 0.425

usemtl colormap

f 3/2/1 2/2/1 1/1/1
f 6/3/2 5/2/2 4/3/2
f 5/2/2 6/3/2 2/2/2
f 2/2/2 6/3/2 1/1/2
f 5/2/3 7/3/3 4/3/3
f 7/3/3 5/2/3 8/2/3
f 5/2/4 9/2/4 8/2/4
f 3/2/4 9/2/4 5/2/4
f 3/2/4 5/2/4 2/2/4
f 10/2/4 9/2/4 3/2/4
f 9/2/4 10/2/4 11/2/4
f 10/2/5 6/3/5 12/3/5
f 6/3/5 10/2/5 1/1/5
f 1/1/5 10/2/5 3/2/5
f 15/4/6 14/5/6 13/4/6
f 18/4/9 17/6/8 16/4/7
f 21/4/10 20/7/10 19/7/10
f 20/7/10 21/4/10 16/4/10
f 20/7/10 16/4/10 17/6/10
f 14/5/11 19/7/11 22/7/11
f 19/7/11 14/5/11 21/4/11
f 21/4/11 14/5/11 15/4/11
f 23/7/12 14/5/12 22/7/12
f 14/5/12 23/7/12 13/4/12
f 13/4/12 23/7/12 8/8/12
f 13/4/12 8/8/12 24/8/12
f 13/4/12 24/8/12 25/4/12
f 17/6/8 26/7/13 20/7/13
f 26/7/13 17/6/8 27/9/13
f 27/9/13 17/6/8 18/4/9
f 27/9/13 18/4/9 28/9/13
f 28/9/13 18/4/9 29/4/13
f 21/4/4 18/4/4 16/4/4
f 18/4/4 21/4/4 15/4/4
f 18/4/4 15/4/4 29/4/4
f 29/4/4 15/4/4 25/4/4
f 25/4/4 15/4/4 13/4/4
f 29/4/14 30/9/14 28/9/14
f 25/4/14 30/9/14 29/4/14
f 25/4/14 31/8/14 30/9/14
f 31/8/14 25/4/14 24/8/14
f 34/11/15 33/11/15 32/10/15
f 37/11/4 36/11/4 35/11/4
f 36/11/4 37/11/4 38/11/4
f 36/11/4 38/11/4 34/11/4
f 34/11/4 38/11/4 39/11/4
f 34/11/4 39/11/4 33/11/4
f 36/11/16 41/12/16 40/12/16
f 41/12/16 36/11/16 32/10/16
f 32/10/16 36/11/16 34/11/16
f 35/11/17 40/12/17 42/12/17
f 40/12/17 35/11/17 36/11/17
f 37/11/18 42/12/18 43/12/18
f 42/12/18 37/11/18 35/11/18
f 45/13/19 39/11/19 44/13/19
f 39/11/19 45/13/19 33/11/19
f 33/11/19 45/13/19 46/12/19
f 33/11/19 46/12/19 41/12/19
f 33/11/19 41/12/19 32/10/19
f 19/14/20 47/14/20 43/14/20
f 43/14/20 40/14/20 19/14/20
f 40/14/20 43/14/20 42/14/20
f 19/14/20 40/14/20 22/14/20
f 22/14/20 40/14/20 46/14/20
f 46/14/20 40/14/20 41/14/20
f 22/14/20 46/14/20 7/14/20
f 46/14/20 48/14/20 7/14/20
f 48/14/20 46/14/20 6/14/20
f 51/15/20 50/15/20 49/15/20
f 50/15/20 51/15/20 52/15/20
f 52/15/20 51/15/20 53/15/20
f 52/15/20 53/15/20 54/15/20
f 57/16/4 56/16/4 55/16/4
f 56/16/4 57/16/4 58/16/4
f 58/16/4 57/16/4 59/16/4
f 58/16/4 59/16/4 60/16/4
f 55/16/21 49/15/22 50/15/21
f 49/15/22 55/16/21 56/16/22
f 57/16/23 50/15/21 52/15/23
f 50/15/21 57/16/23 55/16/21
f 58/16/24 53/15/25 51/15/24
f 53/15/25 58/16/24 60/16/25
f 53/15/25 59/16/26 54/15/26
f 59/16/26 53/15/25 60/16/25
f 56/16/22 51/15/24 49/15/22
f 51/15/24 56/16/22 58/16/24
f 59/16/26 52/15/23 54/15/26
f 52/15/23 59/16/26 57/16/23
f 63/15/20 62/15/20 61/15/20
f 62/15/20 63/15/20 64/15/20
f 64/15/20 63/15/20 65/15/20
f 64/15/20 65/15/20 66/15/20
f 69/16/4 68/16/4 67/16/4
f 68/16/4 69/16/4 70/16/4
f 70/16/4 69/16/4 71/16/4
f 70/16/4 71/16/4 72/16/4
f 67/16/21 61/15/22 62/15/21
f 61/15/22 67/16/21 68/16/22
f 69/16/23 62/15/21 64/15/23
f 62/15/21 69/16/23 67/16/21
f 70/16/24 65/15/25 63/15/24
f 65/15/25 70/16/24 72/16/25
f 65/15/25 71/16/26 66/15/26
f 71/16/26 65/15/25 72/16/25
f 68/16/22 63/15/24 61/15/22
f 63/15/24 68/16/22 70/16/24
f 71/16/26 64/15/23 66/15/26
f 64/15/23 71/16/26 69/16/23
f 75/15/20 74/15/20 73/15/20
f 74/15/20 75/15/20 76/15/20
f 76/15/20 75/15/20 77/15/20
f 76/15/20 77/15/20 78/15/20
f 81/16/4 80/16/4 79/16/4
f 80/16/4 81/16/4 82/16/4
f 82/16/4 81/16/4 83/16/4
f 82/16/4 83/16/4 84/16/4
f 79/16/21 73/15/22 74/15/21
f 73/15/22 79/16/21 80/16/22
f 81/16/23 74/15/21 76/15/23
f 74/15/21 81/16/23 79/16/21
f 82/16/24 77/15/25 75/15/24
f 77/15/25 82/16/24 84/16/25
f 77/15/25 83/16/26 78/15/26
f 83/16/26 77/15/25 84/16/25
f 80/16/22 75/15/24 73/15/22
f 75/15/24 80/16/22 82/16/24
f 83/16/26 76/15/23 78/15/26
f 76/15/23 83/16/26 81/16/23

g rock-small




usemtl colormap

f 3/2/1 2/2/1 1/1/1
f 6/3/2 5/2/2 4/3/2
f 5/2/2 6/3/2 2/2/2
f 2/2/2 6/3/2 1/1/2
f 5/2/3 7/3/3 4/3/3
f 7/3/3 5/2/3 8/2/3
f 5/2/4 9/2/4 8/2/4
f 3/2/4 9/2/4 5/2/4
f 3/2/4 5/2/4 2/2/4
f 10/2/4 9/2/4 3/2/4
f 9/2/4 10/2/4 11/2/4
f 10/2/5 6/3/5 12/3/5
f 6/3/5 10/2/5 1/1/5
f 1/1/5 10/2/5 3/2/5
f 15/4/6 14/5/6 13/4/6
f 18/4/9 17/6/8 16/4/7
f 21/4/10 20/7/10 19/7/10
f 20/7/10 21/4/10 16/4/10
f 20/7/10 16/4/10 17/6/10
f 14/5/11 19/7/11 22/7/11
f 19/7/11 14/5/11 21/4/11
f 21/4/11 14/5/11 15/4/11
f 23/7/12 14/5/12 22/7/12
f 14/5/12 23/7/12 13/4/12
f 13/4/12 23/7/12 8/8/12
f 13/4/12 8/8/12 24/8/12
f 13/4/12 24/8/12 25/4/12
f 17/6/8 26/7/13 20/7/13
f 26/7/13 17/6/8 27/9/13
f 27/9/13 17/6/8 18/4/9
f 27/9/13 18/4/9 28/9/13
f 28/9/13 18/4/9 29/4/13
f 21/4/4 18/4/4 16/4/4
f 18/4/4 21/4/4 15/4/4
f 18/4/4 15/4/4 29/4/4
f 29/4/4 15/4/4 25/4/4
f 25/4/4 15/4/4 13/4/4
f 29/4/14 30/9/14 28/9/14
f 25/4/14 30/9/14 29/4/14
f 25/4/14 31/8/14 30/9/14
f 31/8/14 25/4/14 24/8/14
f 34/11/15 33/11/15 32/10/15
f 37/11/4 36/11/4 35/11/4
f 36/11/4 37/11/4 38/11/4
f 36/11/4 38/11/4 34/11/4
f 34/11/4 38/11/4 39/11/4
f 34/11/4 39/11/4 33/11/4
f 36/11/16 41/12/16 40/12/16
f 41/12/16 36/11/16 32/10/16
f 32/10/16 36/11/16 34/11/16
f 35/11/17 40/12/17 42/12/17
f 40/12/17 35/11/17 36/11/17
f 37/11/18 42/12/18 43/12/18
f 42/12/18 37/11/18 35/11/18
f 45/13/19 39/11/19 44/13/19
f 39/11/19 45/13/19 33/11/19
f 33/11/19 45/13/19 46/12/19
f 33/11/19 46/12/19 41/12/19
f 33/11/19 41/12/19 32/10/19
f 19/14/20 47/14/20 43/14/20
f 43/14/20 40/14/20 19/14/20
f 40/14/20 43/14/20 42/14/20
f 19/14/20 40/14/20 22/14/20
f 22/14/20 40/14/20 46/14/20
f 46/14/20 40/14/20 41/14/20
f 22/14/20 46/14/20 7/14/20
f 46/14/20 48/14/20 7/14/20
f 48/14/20 46/14/20 6/14/20
f 51/15/20 50/15/20 49/15/20
f 50/15/20 51/15/20 52/15/20
f 52/15/20 51/15/20 53/15/20
f 52/15/20 53/15/20 54/15/20
f 57/16/4 56/16/4 55/16/4
f 56/16/4 57/16/4 58/16/4
f 58/16/4 57/16/4 59/16/4
f 58/16/4 59/16/4 60/16/4
f 55/16/21 49/15/22 50/15/21
f 49/15/22 55/16/21 56/16/22
f 57/16/23 50/15/21 52/15/23
f 50/15/21 57/16/23 55/16/21
f 58/16/24 53/15/25 51/15/24
f 53/15/25 58/16/24 60/16/25
f 53/15/25 59/16/26 54/15/26
f 59/16/26 53/15/25 60/16/25
f 56/16/22 51/15/24 49/15/22
f 51/15/24 56/16/22 58/16/24
f 59/16/26 52/15/23 54/15/26
f 52/15/23 59/16/26 57/16/23
f 63/15/20 62/15/20 61/15/20
f 62/15/20 63/15/20 64/15/20
f 64/15/20 63/15/20 65/15/20
f 64/15/20 65/15/20 66/15/20
f 69/16/4 68/16/4 67/16/4
f 68/16/4 69/16/4 70/16/4
f 70/16/4 69/16/4 71/16/4
f 70/16/4 71/16/4 72/16/4
f 67/16/21 61/15/22 62/15/21
f 61/15/22 67/16/21 68/16/22
f 69/16/23 62/15/21 64/15/23
f 62/15/21 69/16/23 67/16/21
f 70/16/24 65/15/25 63/15/24
f 65/15/25 70/16/24 72/16/25
f 65/15/25 71/16/26 66/15/26
f 71/16/26 65/15/25 72/16/25
f 68/16/22 63/15/24 61/15/22
f 63/15/24 68/16/22 70/16/24
f 71/16/26 64/15/23 66/15/26
f 64/15/23 71/16/26 69/16/23
f 75/15/20 74/15/20 73/15/20
f 74/15/20 75/15/20 76/15/20
f 76/15/20 75/15/20 77/15/20
f 76/15/20 77/15/20 78/15/20
f 81/16/4 80/16/4 79/16/4
f 80/16/4 81/16/4 82/16/4
f 82/16/4 81/16/4 83/16/4
f 82/16/4 83/16/4 84/16/4
f 79/16/21 73/15/22 74/15/21
f 73/15/22 79/16/21 80/16/22
f 81/16/23 74/15/21 76/15/23
f 74/15/21 81/16/23 79/16/21
f 82/16/24 77/15/25 75/15/24
f 77/15/25 82/16/24 84/16/25
f 77/15/25 83/16/26 78/15/26
f 83/16/26 77/15/25 84/16/25
f 80/16/22 75/15/24 73/15/22
f 75/15/24 80/16/22 82/16/24
f 83/16/26 76/15/23 78/15/26
f 76/15/23 83/16/26 81/16/23

