# Created by Kenney (www.kenney.nl)

mtllib roof-corner-inner.mtl

g roof-corner-inner

v -0.5 0.0559017 0.5 1 1 1
v -0.4461968 0.08280331 0.5 1 1 1
v -0.5 0 0.5 1 1 1
v 0.4 0.5059017 0.5 1 1 1
v 0.5 0 0.5 1 1 1
v 0.5 0.6259017 0.5 1 1 1
v 0.4 0.5759017 0.5 1 1 1
v 0.5 0.6259017 -0.5 1 1 1
v 0.5 0 -0.5 1 1 1
v -0.5 0 -0.5 1 1 1
v -0.5 0.5759017 -0.4 1 1 1
v -0.5 0.5059017 -0.4 1 1 1
v -0.5 0.6259017 -0.5 1 1 1
v -0.5 0.08280331 0.4461968 1 1 1
v 0.4 0.5759017 -0.4 1 1 1
v 0.4 0.5059017 -0.4 1 1 1
v -0.4461968 0.08280331 0.4461968 1 1 1

vn 0 0 1
vn 1 0 0
vn 0 -1 0
vn -1 0 0
vn 0 0 -1
vn 0 0.8944272 0.4472136
vn 0 0.6206319 0.784102
vn 0 0.5257311 0.8506508
vn -0.784102 0.6206319 0
vn -0.8506508 0.5257311 0
vn -0.4472136 0.8944272 0

vt 0.21875 0.2928628
vt 0.21875 0.3014589
vt 0.21875 0.275
vt 0.21875 0.4366553
vt 0.21875 0.475
vt 0.21875 0.4590231
vt 0.21875 0.225
vt 0.21875 0.209023
vt 0.21875 0.1866553
vt 0.21875 0.05145888
vt 0.21875 0.175
vt 0.21875 0.075

usemtl colormap

f 3/3/1 2/2/1 1/1/1
f 3/3/1 4/4/1 2/2/1
f 5/3/1 4/4/1 3/3/1
f 4/4/1 5/3/1 6/5/1
f 4/4/1 6/5/1 7/6/1
f 6/5/2 9/3/2 8/5/2
f 9/3/2 6/5/2 5/3/2
f 5/3/3 10/3/3 9/3/3
f 10/3/3 5/3/3 3/3/3
f 13/5/4 12/4/4 11/6/4
f 10/3/4 12/4/4 13/5/4
f 12/4/4 10/3/4 3/3/4
f 12/4/4 3/3/4 14/2/4
f 14/2/4 3/3/4 1/1/4
f 13/5/5 9/3/5 10/3/5
f 9/3/5 13/5/5 8/5/5
f 13/7/6 15/8/7 8/7/6
f 15/8/7 13/7/6 11/8/8
f 4/9/4 15/8/9 16/9/4
f 15/8/9 4/9/4 7/8/10
f 17/10/11 4/9/11 16/9/11
f 4/9/11 17/10/11 2/10/11
f 16/9/1 11/8/8 12/9/1
f 11/8/8 16/9/1 15/8/7
f 15/8/9 6/7/11 8/7/11
f 6/7/11 15/8/9 7/8/10
f 12/9/6 17/10/6 16/9/6
f 17/10/6 12/9/6 14/10/6
f 14/11/6 1/12/6 17/11/6
f 1/12/11 2/11/11 17/11/11

g roof-corner-inner




usemtl colormap

f 3/3/1 2/2/1 1/1/1
f 3/3/1 4/4/1 2/2/1
f 5/3/1 4/4/1 3/3/1
f 4/4/1 5/3/1 6/5/1
f 4/4/1 6/5/1 7/6/1
f 6/5/2 9/3/2 8/5/2
f 9/3/2 6/5/2 5/3/2
f 5/3/3 10/3/3 9/3/3
f 10/3/3 5/3/3 3/3/3
f 13/5/4 12/4/4 11/6/4
f 10/3/4 12/4/4 13/5/4
f 12/4/4 10/3/4 3/3/4
f 12/4/4 3/3/4 14/2/4
f 14/2/4 3/3/4 1/1/4
f 13/5/5 9/3/5 10/3/5
f 9/3/5 13/5/5 8/5/5
f 13/7/6 15/8/7 8/7/6
f 15/8/7 13/7/6 11/8/8
f 4/9/4 15/8/9 16/9/4
f 15/8/9 4/9/4 7/8/10
f 17/10/11 4/9/11 16/9/11
f 4/9/11 17/10/11 2/10/11
f 16/9/1 11/8/8 12/9/1
f 11/8/8 16/9/1 15/8/7
f 15/8/9 6/7/11 8/7/11
f 6/7/11 15/8/9 7/8/10
f 12/9/6 17/10/6 16/9/6
f 17/10/6 12/9/6 14/10/6
f 14/11/6 1/12/6 17/11/6
f 1/12/11 2/11/11 17/11/11

