# Created by Kenney (www.kenney.nl)

mtllib roof-high-flat.mtl

g roof-high-flat

v 0.5 0.04071068 -0.4 1 1 1
v -0.5 0.04071068 -0.4 1 1 1
v 0.5 0.1407107 -0.5 1 1 1
v -0.5 0.1407107 -0.5 1 1 1
v 0.5 0 0.5 1 1 1
v -0.5 0 0.5 1 1 1
v 0.5 0.1407107 0.5 1 1 1
v -0.5 0.1407107 0.5 1 1 1
v -0.5 0 -0.5 1 1 1
v 0.5 0 -0.5 1 1 1
v -0.5 0.04071068 0.4 1 1 1
v 0.5 0.04071068 0.4 1 1 1

vn 0 0.9238795 0.3826834
vn 0 0.7071068 0.7071068
vn 0 0 1
vn 0 0 -1
vn -1 0 0
vn 1 0 0
vn 0 0.9238795 -0.3826834
vn 0 0.7071068 -0.7071068
vn 0 -1 0

vt 0.09375 0.08286437
vt 0.09375 0.225
vt 0.09375 0.025

usemtl colormap

f 3/2/2 2/1/1 1/1/1
f 2/1/1 3/2/2 4/2/2
f 7/2/3 6/3/3 5/3/3
f 6/3/3 7/2/3 8/2/3
f 4/2/4 10/3/4 9/3/4
f 10/3/4 4/2/4 3/2/4
f 9/3/5 2/1/5 4/2/5
f 2/1/5 9/3/5 6/3/5
f 2/1/5 6/3/5 11/1/5
f 11/1/5 6/3/5 8/2/5
f 1/1/6 10/3/6 3/2/6
f 10/3/6 1/1/6 5/3/6
f 5/3/6 1/1/6 12/1/6
f 5/3/6 12/1/6 7/2/6
f 2/1/1 12/1/7 1/1/1
f 12/1/7 2/1/1 11/1/7
f 11/1/7 7/2/8 12/1/7
f 7/2/8 11/1/7 8/2/8
f 5/3/9 9/3/9 10/3/9
f 9/3/9 5/3/9 6/3/9

g roof-high-flat




usemtl colormap

f 3/2/2 2/1/1 1/1/1
f 2/1/1 3/2/2 4/2/2
f 7/2/3 6/3/3 5/3/3
f 6/3/3 7/2/3 8/2/3
f 4/2/4 10/3/4 9/3/4
f 10/3/4 4/2/4 3/2/4
f 9/3/5 2/1/5 4/2/5
f 2/1/5 9/3/5 6/3/5
f 2/1/5 6/3/5 11/1/5
f 11/1/5 6/3/5 8/2/5
f 1/1/6 10/3/6 3/2/6
f 10/3/6 1/1/6 5/3/6
f 5/3/6 1/1/6 12/1/6
f 5/3/6 12/1/6 7/2/6
f 2/1/1 12/1/7 1/1/1
f 12/1/7 2/1/1 11/1/7
f 11/1/7 7/2/8 12/1/7
f 7/2/8 11/1/7 8/2/8
f 5/3/9 9/3/9 10/3/9
f 9/3/9 5/3/9 6/3/9

