# Created by Kenney (www.kenney.nl)

mtllib roof-corner-round.mtl

g roof-corner-round

v -0.5 0 -1.443823E-15 1 1 1
v -0.5 0 -0.5 1 1 1
v -0.5447214 -0.02236068 -1.443823E-15 1 1 1
v -0.5447214 -0.02236068 -0.5 1 1 1
v -0.567082 0.02236068 -1.443823E-15 1 1 1
v -6.35282E-14 -0.02236068 0.5447214 1 1 1
v -6.35282E-14 0.02236068 0.567082 1 1 1
v -0.567082 0.02236068 -0.5 1 1 1
v 0.5 0 0.5 1 1 1
v 5.775291E-15 0 0.5 1 1 1
v 0.5 -0.02236068 0.5447214 1 1 1
v 0.5 0.02236068 0.567082 1 1 1
v 0.4 0.5759017 -0.5 1 1 1
v 0.5 0.6259017 -0.5 1 1 1
v 0.4 0.5759017 -0.4 1 1 1
v 0.4 0.5059017 -0.4 1 1 1
v 0.05 0.08280331 0.4461968 1 1 1
v -0.4461968 0.08280331 -0.05 1 1 1
v 0.5 0.5759017 -0.4 1 1 1
v 0.5 0.5059017 -0.4 1 1 1
v 0.5 0.08280331 0.4461968 1 1 1
v 0.4 0.5059017 -0.5 1 1 1
v -0.4461968 0.08280331 -0.5 1 1 1
v -0.4461968 0.08280331 -0.05000001 1 1 1
v -0.567082 0.02236068 0 1 1 1
v 0 0.02236068 0.567082 1 1 1
v 0.05000001 0.08280331 0.4461968 1 1 1
v 0.5 0 -0.5 1 1 1

vn 0.4472136 -0.8944272 0
vn -0.8237056 -0.4118528 0.3897262
vn -0.8486531 -0.4243266 0.315808
vn -0.3897262 -0.4118528 0.8237056
vn -0.315808 -0.4243266 0.8486531
vn -0.8944272 -0.4472136 0
vn 0 -0.8944272 -0.4472136
vn 0 -0.4472136 0.8944272
vn 0.4082483 -0.8164966 -0.4082483
vn -0.8506508 0.5257311 0
vn -0.4472136 0.8944272 0
vn -0.93279 0.3604203 0
vn -0.2490932 0.9358981 0.2490932
vn -0.1604764 0.907787 0.387518
vn -0.387518 0.907787 0.1604764
vn 0 0.8944272 0.4472136
vn 0 0.5257311 0.8506508
vn 0 0.3604203 0.93279
vn 0 0 1
vn -1 0 0
vn -0.3874773 0.9077869 0.1605748
vn -0.1605748 0.9077869 0.3874773
vn 0 -1 0
vn 0 0 -1
vn 1 0 0

vt 0.21875 0.025
vt 0.21875 0.03214511
vt 0.21875 0.2065871
vt 0.21875 0.225
vt 0.21875 0.1808091
vt 0.21875 0.175
vt 0.21875 0.075
vt 0.21875 0.275
vt 0.21875 0.2821451
vt 0.21875 0.3014589
vt 0.21875 0.4366553
vt 0.21875 0.475
vt 0.21875 0.4590231

usemtl colormap

f 3/1/1 2/1/1 1/1/1
f 2/1/1 3/1/1 4/1/1
f 6/1/4 5/2/3 3/1/2
f 5/2/3 6/1/4 7/2/5
f 3/1/2 8/2/6 4/1/6
f 8/2/6 3/1/2 5/2/3
f 11/1/7 10/1/7 9/1/7
f 10/1/7 11/1/7 6/1/7
f 12/2/8 6/1/4 11/1/8
f 6/1/4 12/2/8 7/2/5
f 6/1/9 1/1/9 10/1/9
f 1/1/9 6/1/9 3/1/9
f 15/3/12 14/4/11 13/3/10
f 18/1/15 17/1/14 16/5/13
f 15/3/18 19/3/17 14/4/16
f 19/3/17 16/5/19 20/5/19
f 16/5/19 19/3/17 15/3/18
f 16/5/13 21/1/16 20/5/16
f 21/1/16 16/5/13 17/1/14
f 16/5/20 13/3/10 22/5/20
f 13/3/10 16/5/20 15/3/12
f 23/1/11 16/5/13 22/5/11
f 16/5/13 23/1/11 18/1/15
f 8/7/11 24/6/21 23/6/11
f 24/6/21 8/7/11 25/7/15
f 21/6/16 26/7/14 12/7/16
f 26/7/14 21/6/16 27/6/22
f 24/6/21 26/7/14 27/6/22
f 26/7/14 24/6/21 25/7/15
f 10/8/23 28/8/23 9/8/23
f 28/8/23 10/8/23 2/8/23
f 2/8/23 10/8/23 1/8/23
f 8/9/24 2/8/24 4/8/24
f 2/8/24 8/9/24 28/8/24
f 28/8/24 8/9/24 23/10/24
f 28/8/24 23/10/24 22/11/24
f 28/8/24 22/11/24 14/12/24
f 14/12/24 22/11/24 13/13/24
f 20/11/25 14/12/25 19/13/25
f 20/11/25 28/8/25 14/12/25
f 28/8/25 20/11/25 9/8/25
f 9/8/25 20/11/25 21/10/25
f 9/8/25 21/10/25 12/9/25
f 9/8/25 12/9/25 11/8/25

g roof-corner-round




usemtl colormap

f 3/1/1 2/1/1 1/1/1
f 2/1/1 3/1/1 4/1/1
f 6/1/4 5/2/3 3/1/2
f 5/2/3 6/1/4 7/2/5
f 3/1/2 8/2/6 4/1/6
f 8/2/6 3/1/2 5/2/3
f 11/1/7 10/1/7 9/1/7
f 10/1/7 11/1/7 6/1/7
f 12/2/8 6/1/4 11/1/8
f 6/1/4 12/2/8 7/2/5
f 6/1/9 1/1/9 10/1/9
f 1/1/9 6/1/9 3/1/9
f 15/3/12 14/4/11 13/3/10
f 18/1/15 17/1/14 16/5/13
f 15/3/18 19/3/17 14/4/16
f 19/3/17 16/5/19 20/5/19
f 16/5/19 19/3/17 15/3/18
f 16/5/13 21/1/16 20/5/16
f 21/1/16 16/5/13 17/1/14
f 16/5/20 13/3/10 22/5/20
f 13/3/10 16/5/20 15/3/12
f 23/1/11 16/5/13 22/5/11
f 16/5/13 23/1/11 18/1/15
f 8/7/11 24/6/21 23/6/11
f 24/6/21 8/7/11 25/7/15
f 21/6/16 26/7/14 12/7/16
f 26/7/14 21/6/16 27/6/22
f 24/6/21 26/7/14 27/6/22
f 26/7/14 24/6/21 25/7/15
f 10/8/23 28/8/23 9/8/23
f 28/8/23 10/8/23 2/8/23
f 2/8/23 10/8/23 1/8/23
f 8/9/24 2/8/24 4/8/24
f 2/8/24 8/9/24 28/8/24
f 28/8/24 8/9/24 23/10/24
f 28/8/24 23/10/24 22/11/24
f 28/8/24 22/11/24 14/12/24
f 14/12/24 22/11/24 13/13/24
f 20/11/25 14/12/25 19/13/25
f 20/11/25 28/8/25 14/12/25
f 28/8/25 20/11/25 9/8/25
f 9/8/25 20/11/25 21/10/25
f 9/8/25 21/10/25 12/9/25
f 9/8/25 12/9/25 11/8/25

