# Created by Kenney (www.kenney.nl)

mtllib stairs-stone-corner.mtl

g stairs-stone-corner

v 0.5 0 0.5 1 1 1
v 0 0 0.5 1 1 1
v 0.5 1 0.5 1 1 1
v -1.443823E-15 1 0.5 1 1 1
v 0 1.524306E-18 5.775291E-15 1 1 1
v -0.425 2.819966E-18 1.155058E-14 1 1 1
v 6.35282E-14 0.5 -6.497203E-14 1 1 1
v -0.375 0.125 1.155058E-14 1 1 1
v -0.5 0.0875 1.155058E-14 1 1 1
v -0.5 0 1.155058E-14 1 1 1
v -0.52 0.125 1.155058E-14 1 1 1
v -0.52 0.0875 1.155058E-14 1 1 1
v -0.25 0.25 1.155058E-14 1 1 1
v -0.375 0.2125 1.155058E-14 1 1 1
v -0.395 0.25 1.155058E-14 1 1 1
v -0.395 0.2125 1.155058E-14 1 1 1
v -0.125 0.375 1.155058E-14 1 1 1
v -0.25 0.3375 1.155058E-14 1 1 1
v -0.27 0.375 1.155058E-14 1 1 1
v -0.27 0.3375 1.155058E-14 1 1 1
v -0.125 0.4625 1.155058E-14 1 1 1
v -0.145 0.5 1.155058E-14 1 1 1
v -0.145 0.4625 1.155058E-14 1 1 1
v 0.5 0.875 0.155 1 1 1
v 0.5 0.875 0.3 1 1 1
v 4.331468E-14 0.875 0.155 1 1 1
v 2.454499E-14 0.875 0.3 1 1 1
v -0.375 0.125 -0.5 1 1 1
v -0.52 0.125 -0.5 1 1 1
v 0.5 0.5875 -0.095 1 1 1
v 7.652261E-14 0.5875 -0.095 1 1 1
v 0.5 0.5875 -0.075 1 1 1
v 7.363497E-14 0.5875 -0.075 1 1 1
v 4.331468E-14 0.8375 0.155 1 1 1
v 0.5 0.8375 0.155 1 1 1
v 6.064056E-14 0.7125 0.03 1 1 1
v 0.5 0.7125 0.03 1 1 1
v 6.064056E-14 0.75 0.03 1 1 1
v 0.5 0.75 0.03 1 1 1
v 5.775292E-14 0.625 0.05 1 1 1
v 0.5 0.625 0.05 1 1 1
v 5.775292E-14 0.7125 0.05 1 1 1
v 0.5 0.7125 0.05 1 1 1
v -0.25 0.25 -0.5 1 1 1
v -0.25 0.3375 -0.5 1 1 1
v 0.5 0.75 0.175 1 1 1
v 4.042704E-14 0.75 0.175 1 1 1
v -0.125 0.375 -0.5 1 1 1
v -0.27 0.375 -0.5 1 1 1
v -0.145 0.4625 -0.5 1 1 1
v -0.145 0.5 -0.5 1 1 1
v 7.363497E-14 0.5 -0.075 1 1 1
v 0.5 0.5 -0.075 1 1 1
v 0.5 1 0.28 1 1 1
v 2.598881E-14 1 0.28 1 1 1
v 0.5 0.5 -0.5 1 1 1
v -0.395 0.2125 -0.5 1 1 1
v -0.395 0.25 -0.5 1 1 1
v 0.5 0.625 -0.095 1 1 1
v 7.652261E-14 0.625 -0.095 1 1 1
v 0.5 0.9625 0.28 1 1 1
v 2.598881E-14 0.9625 0.28 1 1 1
v 0.5 0.9625 0.3 1 1 1
v 2.454499E-14 0.9625 0.3 1 1 1
v 0.5 0.8375 0.175 1 1 1
v 4.042704E-14 0.8375 0.175 1 1 1
v -0.375 0.2125 -0.5 1 1 1
v -0.125 0.4625 -0.5 1 1 1
v 0.5 0 -0.5 1 1 1
v -0.5 0 -0.5 1 1 1
v -0.425 2.819966E-18 -0.5 1 1 1
v -0.5 0.0875 -0.5 1 1 1
v -0.52 0.0875 -0.5 1 1 1
v -0.27 0.3375 -0.5 1 1 1

vn 0 0 1
vn 0 1 0
vn 0 -0.7071068 -0.7071068
vn 0 -1 0
vn 0 0 -1
vn -1 0 0
vn -0.7071068 -0.7071068 0
vn 1 0 0

vt 0.21875 0.275
vt 0.21875 0.475
vt 0.21875 0.375
vt 0.21875 0.3
vt 0.21875 0.2925
vt 0.21875 0.325
vt 0.21875 0.3175
vt 0.21875 0.35
vt 0.21875 0.3425
vt 0.21875 0.3675
vt 0.21875 0.45
vt 0.21875 0.3925
vt 0.21875 0.4425
vt 0.21875 0.4175
vt 0.21875 0.425
vt 0.21875 0.4
vt 0.21875 0.4675
vt 0.34375 0.275

usemtl colormap

f 3/2/1 2/1/1 1/1/1
f 2/1/1 3/2/1 4/2/1
f 7/3/1 6/1/1 5/1/1
f 6/1/1 7/3/1 8/4/1
f 6/1/1 8/4/1 9/5/1
f 9/5/1 10/1/1 6/1/1
f 9/5/1 8/4/1 11/4/1
f 11/4/1 12/5/1 9/5/1
f 8/4/1 7/3/1 13/6/1
f 8/4/1 13/6/1 14/7/1
f 14/7/1 13/6/1 15/6/1
f 15/6/1 16/7/1 14/7/1
f 13/6/1 7/3/1 17/8/1
f 13/6/1 17/8/1 18/9/1
f 18/9/1 17/8/1 19/8/1
f 19/8/1 20/9/1 18/9/1
f 17/8/1 7/3/1 21/10/1
f 21/10/1 7/3/1 22/3/1
f 22/3/1 23/10/1 21/10/1
f 26/11/2 25/11/2 24/11/2
f 25/11/2 26/11/2 27/11/2
f 29/4/2 8/4/2 28/4/2
f 8/4/2 29/4/2 11/4/2
f 32/12/4 31/12/3 30/12/3
f 31/12/3 32/12/4 33/12/4
f 26/11/5 35/13/3 34/13/3
f 35/13/3 26/11/5 24/11/5
f 38/15/5 37/14/3 36/14/3
f 37/14/3 38/15/5 39/15/5
f 42/14/5 41/16/5 40/16/5
f 41/16/5 42/14/5 43/14/5
f 13/6/6 45/9/6 44/6/6
f 45/9/6 13/6/6 18/9/6
f 38/15/2 46/15/2 39/15/2
f 46/15/2 38/15/2 47/15/2
f 49/8/2 17/8/2 48/8/2
f 17/8/2 49/8/2 19/8/2
f 23/10/7 51/3/6 50/10/7
f 51/3/6 23/10/7 22/3/6
f 33/12/5 53/3/5 52/3/5
f 53/3/5 33/12/5 32/12/5
f 55/2/2 3/2/2 54/2/2
f 3/2/2 55/2/2 4/2/2
f 51/3/2 53/3/2 56/3/2
f 53/3/2 51/3/2 52/3/2
f 52/3/2 51/3/2 7/3/2
f 7/3/2 51/3/2 22/3/2
f 16/7/7 58/6/6 57/7/7
f 58/6/6 16/7/7 15/6/6
f 60/16/2 41/16/2 59/16/2
f 41/16/2 60/16/2 40/16/2
f 63/17/4 62/17/3 61/17/3
f 62/17/3 63/17/4 64/17/4
f 64/17/5 25/11/5 27/11/5
f 25/11/5 64/17/5 63/17/5
f 65/13/4 34/13/3 35/13/3
f 34/13/3 65/13/4 66/13/4
f 7/3/6 33/12/6 52/3/6
f 40/16/6 33/12/6 7/3/6
f 40/16/6 7/3/6 5/1/6
f 40/16/6 31/12/6 33/12/6
f 31/12/6 40/16/6 60/16/6
f 40/16/6 5/1/6 2/1/6
f 40/16/6 2/1/6 42/14/6
f 42/14/6 2/1/6 47/15/6
f 47/15/6 36/14/6 42/14/6
f 36/14/6 47/15/6 38/15/6
f 47/15/6 2/1/6 27/11/6
f 27/11/6 66/13/6 47/15/6
f 27/11/6 34/13/6 66/13/6
f 34/13/6 27/11/6 26/11/6
f 27/11/6 2/1/6 64/17/6
f 64/17/6 2/1/6 4/2/6
f 55/2/6 64/17/6 4/2/6
f 64/17/6 55/2/6 62/17/6
f 8/4/6 67/7/6 28/4/6
f 67/7/6 8/4/6 14/7/6
f 55/2/5 61/17/3 62/17/3
f 61/17/3 55/2/5 54/2/5
f 66/13/5 46/15/5 47/15/5
f 46/15/5 66/13/5 65/13/5
f 23/10/7 68/10/4 21/10/4
f 68/10/4 23/10/7 50/10/7
f 60/16/5 30/12/3 31/12/3
f 30/12/3 60/16/5 59/16/5
f 17/8/6 68/10/6 48/8/6
f 68/10/6 17/8/6 21/10/6
f 43/14/4 36/14/3 37/14/3
f 36/14/3 43/14/4 42/14/4
f 16/7/7 67/7/4 14/7/4
f 67/7/4 16/7/7 57/7/7
f 41/16/8 30/12/8 59/16/8
f 30/12/8 41/16/8 32/12/8
f 1/1/8 32/12/8 41/16/8
f 1/1/8 53/3/8 32/12/8
f 1/1/8 56/3/8 53/3/8
f 56/3/8 1/1/8 69/1/8
f 1/1/8 41/16/8 46/15/8
f 43/14/8 46/15/8 41/16/8
f 37/14/8 46/15/8 43/14/8
f 46/15/8 37/14/8 39/15/8
f 1/1/8 46/15/8 25/11/8
f 65/13/8 25/11/8 46/15/8
f 35/13/8 25/11/8 65/13/8
f 25/11/8 35/13/8 24/11/8
f 1/1/8 25/11/8 63/17/8
f 1/1/8 63/17/8 3/2/8
f 61/17/8 3/2/8 63/17/8
f 3/2/8 61/17/8 54/2/8
f 72/5/5 71/1/5 70/1/5
f 28/4/5 71/1/5 72/5/5
f 28/4/5 72/5/5 29/4/5
f 29/4/5 72/5/5 73/5/5
f 56/3/5 71/1/5 28/4/5
f 71/1/5 56/3/5 69/1/5
f 56/3/5 28/4/5 44/6/5
f 44/6/5 28/4/5 67/7/5
f 44/6/5 67/7/5 58/6/5
f 58/6/5 67/7/5 57/7/5
f 56/3/5 44/6/5 45/9/5
f 56/3/5 45/9/5 48/8/5
f 48/8/5 45/9/5 49/8/5
f 49/8/5 45/9/5 74/9/5
f 56/3/5 48/8/5 68/10/5
f 56/3/5 68/10/5 51/3/5
f 51/3/5 68/10/5 50/10/5
f 10/1/6 72/5/6 70/1/6
f 72/5/6 10/1/6 9/5/6
f 58/6/2 13/6/2 44/6/2
f 13/6/2 58/6/2 15/6/2
f 10/1/4 71/1/4 6/1/4
f 71/1/4 10/1/4 70/1/4
f 12/5/7 29/4/6 73/5/7
f 29/4/6 12/5/7 11/4/6
f 20/9/7 45/9/4 18/9/4
f 45/9/4 20/9/7 74/9/7
f 20/9/7 49/8/6 74/9/7
f 49/8/6 20/9/7 19/8/6
f 12/5/7 72/5/4 9/5/4
f 72/5/4 12/5/7 73/5/7
f 2/18/4 69/18/4 1/18/4
f 69/18/4 2/18/4 5/18/4
f 69/18/4 5/18/4 71/18/4
f 71/18/4 5/18/4 6/18/4

g stairs-stone-corner




usemtl colormap

f 3/2/1 2/1/1 1/1/1
f 2/1/1 3/2/1 4/2/1
f 7/3/1 6/1/1 5/1/1
f 6/1/1 7/3/1 8/4/1
f 6/1/1 8/4/1 9/5/1
f 9/5/1 10/1/1 6/1/1
f 9/5/1 8/4/1 11/4/1
f 11/4/1 12/5/1 9/5/1
f 8/4/1 7/3/1 13/6/1
f 8/4/1 13/6/1 14/7/1
f 14/7/1 13/6/1 15/6/1
f 15/6/1 16/7/1 14/7/1
f 13/6/1 7/3/1 17/8/1
f 13/6/1 17/8/1 18/9/1
f 18/9/1 17/8/1 19/8/1
f 19/8/1 20/9/1 18/9/1
f 17/8/1 7/3/1 21/10/1
f 21/10/1 7/3/1 22/3/1
f 22/3/1 23/10/1 21/10/1
f 26/11/2 25/11/2 24/11/2
f 25/11/2 26/11/2 27/11/2
f 29/4/2 8/4/2 28/4/2
f 8/4/2 29/4/2 11/4/2
f 32/12/4 31/12/3 30/12/3
f 31/12/3 32/12/4 33/12/4
f 26/11/5 35/13/3 34/13/3
f 35/13/3 26/11/5 24/11/5
f 38/15/5 37/14/3 36/14/3
f 37/14/3 38/15/5 39/15/5
f 42/14/5 41/16/5 40/16/5
f 41/16/5 42/14/5 43/14/5
f 13/6/6 45/9/6 44/6/6
f 45/9/6 13/6/6 18/9/6
f 38/15/2 46/15/2 39/15/2
f 46/15/2 38/15/2 47/15/2
f 49/8/2 17/8/2 48/8/2
f 17/8/2 49/8/2 19/8/2
f 23/10/7 51/3/6 50/10/7
f 51/3/6 23/10/7 22/3/6
f 33/12/5 53/3/5 52/3/5
f 53/3/5 33/12/5 32/12/5
f 55/2/2 3/2/2 54/2/2
f 3/2/2 55/2/2 4/2/2
f 51/3/2 53/3/2 56/3/2
f 53/3/2 51/3/2 52/3/2
f 52/3/2 51/3/2 7/3/2
f 7/3/2 51/3/2 22/3/2
f 16/7/7 58/6/6 57/7/7
f 58/6/6 16/7/7 15/6/6
f 60/16/2 41/16/2 59/16/2
f 41/16/2 60/16/2 40/16/2
f 63/17/4 62/17/3 61/17/3
f 62/17/3 63/17/4 64/17/4
f 64/17/5 25/11/5 27/11/5
f 25/11/5 64/17/5 63/17/5
f 65/13/4 34/13/3 35/13/3
f 34/13/3 65/13/4 66/13/4
f 7/3/6 33/12/6 52/3/6
f 40/16/6 33/12/6 7/3/6
f 40/16/6 7/3/6 5/1/6
f 40/16/6 31/12/6 33/12/6
f 31/12/6 40/16/6 60/16/6
f 40/16/6 5/1/6 2/1/6
f 40/16/6 2/1/6 42/14/6
f 42/14/6 2/1/6 47/15/6
f 47/15/6 36/14/6 42/14/6
f 36/14/6 47/15/6 38/15/6
f 47/15/6 2/1/6 27/11/6
f 27/11/6 66/13/6 47/15/6
f 27/11/6 34/13/6 66/13/6
f 34/13/6 27/11/6 26/11/6
f 27/11/6 2/1/6 64/17/6
f 64/17/6 2/1/6 4/2/6
f 55/2/6 64/17/6 4/2/6
f 64/17/6 55/2/6 62/17/6
f 8/4/6 67/7/6 28/4/6
f 67/7/6 8/4/6 14/7/6
f 55/2/5 61/17/3 62/17/3
f 61/17/3 55/2/5 54/2/5
f 66/13/5 46/15/5 47/15/5
f 46/15/5 66/13/5 65/13/5
f 23/10/7 68/10/4 21/10/4
f 68/10/4 23/10/7 50/10/7
f 60/16/5 30/12/3 31/12/3
f 30/12/3 60/16/5 59/16/5
f 17/8/6 68/10/6 48/8/6
f 68/10/6 17/8/6 21/10/6
f 43/14/4 36/14/3 37/14/3
f 36/14/3 43/14/4 42/14/4
f 16/7/7 67/7/4 14/7/4
f 67/7/4 16/7/7 57/7/7
f 41/16/8 30/12/8 59/16/8
f 30/12/8 41/16/8 32/12/8
f 1/1/8 32/12/8 41/16/8
f 1/1/8 53/3/8 32/12/8
f 1/1/8 56/3/8 53/3/8
f 56/3/8 1/1/8 69/1/8
f 1/1/8 41/16/8 46/15/8
f 43/14/8 46/15/8 41/16/8
f 37/14/8 46/15/8 43/14/8
f 46/15/8 37/14/8 39/15/8
f 1/1/8 46/15/8 25/11/8
f 65/13/8 25/11/8 46/15/8
f 35/13/8 25/11/8 65/13/8
f 25/11/8 35/13/8 24/11/8
f 1/1/8 25/11/8 63/17/8
f 1/1/8 63/17/8 3/2/8
f 61/17/8 3/2/8 63/17/8
f 3/2/8 61/17/8 54/2/8
f 72/5/5 71/1/5 70/1/5
f 28/4/5 71/1/5 72/5/5
f 28/4/5 72/5/5 29/4/5
f 29/4/5 72/5/5 73/5/5
f 56/3/5 71/1/5 28/4/5
f 71/1/5 56/3/5 69/1/5
f 56/3/5 28/4/5 44/6/5
f 44/6/5 28/4/5 67/7/5
f 44/6/5 67/7/5 58/6/5
f 58/6/5 67/7/5 57/7/5
f 56/3/5 44/6/5 45/9/5
f 56/3/5 45/9/5 48/8/5
f 48/8/5 45/9/5 49/8/5
f 49/8/5 45/9/5 74/9/5
f 56/3/5 48/8/5 68/10/5
f 56/3/5 68/10/5 51/3/5
f 51/3/5 68/10/5 50/10/5
f 10/1/6 72/5/6 70/1/6
f 72/5/6 10/1/6 9/5/6
f 58/6/2 13/6/2 44/6/2
f 13/6/2 58/6/2 15/6/2
f 10/1/4 71/1/4 6/1/4
f 71/1/4 10/1/4 70/1/4
f 12/5/7 29/4/6 73/5/7
f 29/4/6 12/5/7 11/4/6
f 20/9/7 45/9/4 18/9/4
f 45/9/4 20/9/7 74/9/7
f 20/9/7 49/8/6 74/9/7
f 49/8/6 20/9/7 19/8/6
f 12/5/7 72/5/4 9/5/4
f 72/5/4 12/5/7 73/5/7
f 2/18/4 69/18/4 1/18/4
f 69/18/4 2/18/4 5/18/4
f 69/18/4 5/18/4 71/18/4
f 71/18/4 5/18/4 6/18/4

