# Created by Kenney (www.kenney.nl)

mtllib stairs-full.mtl

g stairs-full

v -0.145 0.4625 -0.5 1 1 1
v -0.145 0.5 -0.5 1 1 1
v -0.145 0.4625 0.5 1 1 1
v -0.145 0.5 0.5 1 1 1
v -0.375 0.2125 0.5 1 1 1
v -0.375 0.2125 -0.5 1 1 1
v -0.395 0.2125 0.5 1 1 1
v -0.395 0.2125 -0.5 1 1 1
v -0.25 0.25 -0.5 1 1 1
v -0.25 0.3375 -0.5 1 1 1
v -0.25 0.25 0.5 1 1 1
v -0.25 0.3375 0.5 1 1 1
v 0.5 0 0.5 1 1 1
v 0.5 0 -0.5 1 1 1
v -0.5 0 0.5 1 1 1
v -0.5 0 -0.5 1 1 1
v -0.125 0.4625 0.5 1 1 1
v -0.125 0.4625 -0.5 1 1 1
v -0.395 0.25 0.5 1 1 1
v -0.395 0.25 -0.5 1 1 1
v -0.375 0.125 0.5 1 1 1
v -0.52 0.125 0.5 1 1 1
v -0.375 0.125 -0.5 1 1 1
v -0.52 0.125 -0.5 1 1 1
v 0.5 0.5 -0.5 1 1 1
v 0.5 0.5 0.5 1 1 1
v -0.125 0.375 -0.5 1 1 1
v -0.125 0.375 0.5 1 1 1
v -0.27 0.3375 0.5 1 1 1
v -0.27 0.3375 -0.5 1 1 1
v -0.52 0.0875 -0.5 1 1 1
v -0.52 0.0875 0.5 1 1 1
v -0.5 0.0875 -0.5 1 1 1
v -0.5 0.0875 0.5 1 1 1
v -0.27 0.375 -0.5 1 1 1
v -0.27 0.375 0.5 1 1 1

vn -0.7071068 -0.7071068 0
vn -1 0 0
vn 0 -1 0
vn 0 1 0
vn 1 0 0
vn 0 0 -1
vn 0 0 1

vt 0.21875 0.46
vt 0.21875 0.475
vt 0.21875 0.36
vt 0.21875 0.375
vt 0.21875 0.41
vt 0.21875 0.275
vt 0.21875 0.325
vt 0.21875 0.425
vt 0.21875 0.31

usemtl colormap

f 3/1/1 2/2/2 1/1/1
f 2/2/2 3/1/1 4/2/2
f 7/3/1 6/3/3 5/3/3
f 6/3/3 7/3/1 8/3/1
f 11/4/2 10/5/2 9/4/2
f 10/5/2 11/4/2 12/5/2
f 15/6/3 14/6/3 13/6/3
f 14/6/3 15/6/3 16/6/3
f 3/1/1 18/1/3 17/1/3
f 18/1/3 3/1/1 1/1/1
f 9/4/4 19/4/4 11/4/4
f 19/4/4 9/4/4 20/4/4
f 7/3/1 20/4/2 8/3/1
f 20/4/2 7/3/1 19/4/2
f 23/7/4 22/7/4 21/7/4
f 22/7/4 23/7/4 24/7/4
f 25/2/5 13/6/5 14/6/5
f 13/6/5 25/2/5 26/2/5
f 28/8/2 18/1/2 27/8/2
f 18/1/2 28/8/2 17/1/2
f 29/5/1 10/5/3 12/5/3
f 10/5/3 29/5/1 30/5/1
f 32/9/1 24/7/2 31/9/1
f 24/7/2 32/9/1 22/7/2
f 21/7/2 6/3/2 23/7/2
f 6/3/2 21/7/2 5/3/2
f 15/6/2 33/9/2 16/6/2
f 33/9/2 15/6/2 34/9/2
f 24/7/6 33/9/6 31/9/6
f 23/7/6 33/9/6 24/7/6
f 14/6/6 33/9/6 23/7/6
f 33/9/6 14/6/6 16/6/6
f 14/6/6 23/7/6 25/2/6
f 25/2/6 23/7/6 9/4/6
f 9/4/6 23/7/6 6/3/6
f 9/4/6 6/3/6 20/4/6
f 20/4/6 6/3/6 8/3/6
f 25/2/6 9/4/6 10/5/6
f 25/2/6 10/5/6 27/8/6
f 27/8/6 10/5/6 35/8/6
f 35/8/6 10/5/6 30/5/6
f 25/2/6 27/8/6 18/1/6
f 18/1/6 2/2/6 25/2/6
f 2/2/6 18/1/6 1/1/6
f 32/9/1 33/9/3 34/9/3
f 33/9/3 32/9/1 31/9/1
f 26/2/7 15/6/7 13/6/7
f 15/6/7 26/2/7 21/7/7
f 15/6/7 21/7/7 34/9/7
f 34/9/7 21/7/7 22/7/7
f 22/7/7 32/9/7 34/9/7
f 21/7/7 26/2/7 11/4/7
f 21/7/7 11/4/7 5/3/7
f 5/3/7 11/4/7 19/4/7
f 19/4/7 7/3/7 5/3/7
f 11/4/7 26/2/7 12/5/7
f 12/5/7 26/2/7 28/8/7
f 12/5/7 28/8/7 36/8/7
f 36/8/7 29/5/7 12/5/7
f 28/8/7 26/2/7 17/1/7
f 17/1/7 26/2/7 4/2/7
f 4/2/7 3/1/7 17/1/7
f 29/5/1 35/8/2 30/5/1
f 35/8/2 29/5/1 36/8/2
f 27/8/4 36/8/4 28/8/4
f 36/8/4 27/8/4 35/8/4
f 2/2/4 26/2/4 25/2/4
f 26/2/4 2/2/4 4/2/4

g stairs-full




usemtl colormap

f 3/1/1 2/2/2 1/1/1
f 2/2/2 3/1/1 4/2/2
f 7/3/1 6/3/3 5/3/3
f 6/3/3 7/3/1 8/3/1
f 11/4/2 10/5/2 9/4/2
f 10/5/2 11/4/2 12/5/2
f 15/6/3 14/6/3 13/6/3
f 14/6/3 15/6/3 16/6/3
f 3/1/1 18/1/3 17/1/3
f 18/1/3 3/1/1 1/1/1
f 9/4/4 19/4/4 11/4/4
f 19/4/4 9/4/4 20/4/4
f 7/3/1 20/4/2 8/3/1
f 20/4/2 7/3/1 19/4/2
f 23/7/4 22/7/4 21/7/4
f 22/7/4 23/7/4 24/7/4
f 25/2/5 13/6/5 14/6/5
f 13/6/5 25/2/5 26/2/5
f 28/8/2 18/1/2 27/8/2
f 18/1/2 28/8/2 17/1/2
f 29/5/1 10/5/3 12/5/3
f 10/5/3 29/5/1 30/5/1
f 32/9/1 24/7/2 31/9/1
f 24/7/2 32/9/1 22/7/2
f 21/7/2 6/3/2 23/7/2
f 6/3/2 21/7/2 5/3/2
f 15/6/2 33/9/2 16/6/2
f 33/9/2 15/6/2 34/9/2
f 24/7/6 33/9/6 31/9/6
f 23/7/6 33/9/6 24/7/6
f 14/6/6 33/9/6 23/7/6
f 33/9/6 14/6/6 16/6/6
f 14/6/6 23/7/6 25/2/6
f 25/2/6 23/7/6 9/4/6
f 9/4/6 23/7/6 6/3/6
f 9/4/6 6/3/6 20/4/6
f 20/4/6 6/3/6 8/3/6
f 25/2/6 9/4/6 10/5/6
f 25/2/6 10/5/6 27/8/6
f 27/8/6 10/5/6 35/8/6
f 35/8/6 10/5/6 30/5/6
f 25/2/6 27/8/6 18/1/6
f 18/1/6 2/2/6 25/2/6
f 2/2/6 18/1/6 1/1/6
f 32/9/1 33/9/3 34/9/3
f 33/9/3 32/9/1 31/9/1
f 26/2/7 15/6/7 13/6/7
f 15/6/7 26/2/7 21/7/7
f 15/6/7 21/7/7 34/9/7
f 34/9/7 21/7/7 22/7/7
f 22/7/7 32/9/7 34/9/7
f 21/7/7 26/2/7 11/4/7
f 21/7/7 11/4/7 5/3/7
f 5/3/7 11/4/7 19/4/7
f 19/4/7 7/3/7 5/3/7
f 11/4/7 26/2/7 12/5/7
f 12/5/7 26/2/7 28/8/7
f 12/5/7 28/8/7 36/8/7
f 36/8/7 29/5/7 12/5/7
f 28/8/7 26/2/7 17/1/7
f 17/1/7 26/2/7 4/2/7
f 4/2/7 3/1/7 17/1/7
f 29/5/1 35/8/2 30/5/1
f 35/8/2 29/5/1 36/8/2
f 27/8/4 36/8/4 28/8/4
f 36/8/4 27/8/4 35/8/4
f 2/2/4 26/2/4 25/2/4
f 26/2/4 2/2/4 4/2/4

