# Created by Kenney (www.kenney.nl)

mtllib stairs-full-corner-outer.mtl

g stairs-full-corner-outer

v 0.5 0.0875 -0.52 1 1 1
v 0.5 0.125 -0.52 1 1 1
v -0.52 0.0875 -0.52 1 1 1
v -0.52 0.125 -0.52 1 1 1
v 0.5 0.5 0.5 1 1 1
v -0.145 0.5 0.5 1 1 1
v 0.5 0.5 -0.145 1 1 1
v -0.145 0.5 -0.145 1 1 1
v -0.125 0.375 -0.125 1 1 1
v -0.125 0.4625 -0.125 1 1 1
v -0.125 0.375 0.5 1 1 1
v -0.125 0.4625 0.5 1 1 1
v -0.145 0.4625 -0.145 1 1 1
v 0.5 0.4625 -0.145 1 1 1
v -0.145 0.4625 0.5 1 1 1
v 0.5 0.25 -0.25 1 1 1
v -0.25 0.25 -0.25 1 1 1
v 0.5 0.25 -0.395 1 1 1
v -0.395 0.25 -0.395 1 1 1
v -0.395 0.25 0.5 1 1 1
v -0.25 0.25 0.5 1 1 1
v 0.5 0.3375 -0.27 1 1 1
v 0.5 0.375 -0.27 1 1 1
v -0.27 0.3375 -0.27 1 1 1
v -0.27 0.375 -0.27 1 1 1
v -0.395 0.2125 -0.395 1 1 1
v 0.5 0.2125 -0.395 1 1 1
v 0.5 0 0.5 1 1 1
v 0.5 2.819966E-18 -0.425 1 1 1
v -0.425 3.972574E-18 0.5 1 1 1
v 0.5 0 -0.5 1 1 1
v -0.5 0 -0.5 1 1 1
v -0.5 0 0.5 1 1 1
v -0.25 0.3375 0.5 1 1 1
v -0.25 0.3375 -0.25 1 1 1
v -0.27 0.3375 0.5 1 1 1
v 0.5 0.3375 -0.25 1 1 1
v -0.5 0.0875 -0.5 1 1 1
v 0.5 0.0875 -0.5 1 1 1
v 0.5 0.375 -0.125 1 1 1
v -0.27 0.375 0.5 1 1 1
v -0.5 0.0875 0.5 1 1 1
v -0.52 0.0875 0.5 1 1 1
v -0.52 0.125 0.5 1 1 1
v 0.5 0.2125 -0.375 1 1 1
v 0.5 0.125 -0.375 1 1 1
v 0.5 0.4625 -0.125 1 1 1
v -0.375 0.125 -0.375 1 1 1
v -0.375 0.2125 -0.375 1 1 1
v -0.375 0.2125 0.5 1 1 1
v -0.395 0.2125 0.5 1 1 1
v -0.375 0.125 0.5 1 1 1

vn 0 -0.7071068 -0.7071068
vn 0 0 -1
vn -0.5773503 -0.5773503 -0.5773503
vn 0 1 0
vn -1 0 0
vn -0.7071068 -0.7071068 0
vn 0 -1 0
vn 1 0 0
vn 0 0 1

vt 0.21875 0.31
vt 0.21875 0.325
vt 0.21875 0.475
vt 0.21875 0.425
vt 0.21875 0.46
vt 0.21875 0.375
vt 0.21875 0.41
vt 0.21875 0.36
vt 0.21875 0.275

usemtl colormap

f 3/1/3 2/2/2 1/1/1
f 2/2/2 3/1/3 4/2/2
f 7/3/4 6/3/4 5/3/4
f 6/3/4 7/3/4 8/3/4
f 11/4/5 10/5/5 9/4/5
f 10/5/5 11/4/5 12/5/5
f 8/3/2 14/5/1 13/5/3
f 14/5/1 8/3/2 7/3/2
f 15/5/6 8/3/5 13/5/3
f 8/3/5 15/5/6 6/3/5
f 18/6/4 17/6/4 16/6/4
f 17/6/4 18/6/4 19/6/4
f 17/6/4 19/6/4 20/6/4
f 20/6/4 21/6/4 17/6/4
f 24/7/3 23/4/2 22/7/1
f 23/4/2 24/7/3 25/4/2
f 19/6/2 27/8/1 26/8/3
f 27/8/1 19/6/2 18/6/2
f 30/9/7 29/9/7 28/9/7
f 29/9/7 30/9/7 31/9/7
f 31/9/7 30/9/7 32/9/7
f 32/9/7 30/9/7 33/9/7
f 36/7/6 35/7/7 34/7/7
f 24/7/3 35/7/7 36/7/6
f 22/7/1 35/7/7 24/7/3
f 35/7/7 22/7/1 37/7/7
f 38/1/2 31/9/2 32/9/2
f 31/9/2 38/1/2 39/1/2
f 23/4/4 9/4/4 40/4/4
f 9/4/4 23/4/4 25/4/4
f 9/4/4 25/4/4 41/4/4
f 41/4/4 11/4/4 9/4/4
f 33/9/5 38/1/5 32/9/5
f 38/1/5 33/9/5 42/1/5
f 43/1/6 4/2/5 3/1/3
f 4/2/5 43/1/6 44/2/5
f 16/6/8 27/8/8 18/6/8
f 27/8/8 16/6/8 45/8/8
f 45/8/8 16/6/8 46/2/8
f 28/9/8 46/2/8 16/6/8
f 28/9/8 16/6/8 40/4/8
f 37/7/8 40/4/8 16/6/8
f 22/7/8 40/4/8 37/7/8
f 40/4/8 22/7/8 23/4/8
f 28/9/8 40/4/8 47/5/8
f 28/9/8 47/5/8 5/3/8
f 14/5/8 5/3/8 47/5/8
f 5/3/8 14/5/8 7/3/8
f 29/9/8 46/2/8 28/9/8
f 39/1/8 46/2/8 29/9/8
f 29/9/8 31/9/8 39/1/8
f 1/1/8 46/2/8 39/1/8
f 46/2/8 1/1/8 2/2/8
f 49/8/2 46/2/2 48/2/2
f 46/2/2 49/8/2 45/8/2
f 51/8/6 49/8/7 50/8/7
f 26/8/3 49/8/7 51/8/6
f 27/8/1 49/8/7 26/8/3
f 49/8/7 27/8/1 45/8/7
f 43/1/6 38/1/7 42/1/7
f 3/1/3 38/1/7 43/1/6
f 1/1/1 38/1/7 3/1/3
f 38/1/7 1/1/1 39/1/7
f 52/2/5 49/8/5 48/2/5
f 49/8/5 52/2/5 50/8/5
f 51/8/6 19/6/5 26/8/3
f 19/6/5 51/8/6 20/6/5
f 35/7/2 16/6/2 17/6/2
f 16/6/2 35/7/2 37/7/2
f 15/5/6 10/5/7 12/5/7
f 13/5/3 10/5/7 15/5/6
f 14/5/1 10/5/7 13/5/3
f 10/5/7 14/5/1 47/5/7
f 2/2/4 48/2/4 46/2/4
f 48/2/4 2/2/4 4/2/4
f 48/2/4 4/2/4 44/2/4
f 44/2/4 52/2/4 48/2/4
f 36/7/6 25/4/5 24/7/3
f 25/4/5 36/7/6 41/4/5
f 5/3/9 30/9/9 28/9/9
f 30/9/9 5/3/9 52/2/9
f 30/9/9 52/2/9 42/1/9
f 42/1/9 33/9/9 30/9/9
f 42/1/9 52/2/9 44/2/9
f 44/2/9 43/1/9 42/1/9
f 52/2/9 5/3/9 21/6/9
f 52/2/9 21/6/9 50/8/9
f 50/8/9 21/6/9 20/6/9
f 20/6/9 51/8/9 50/8/9
f 21/6/9 5/3/9 34/7/9
f 34/7/9 5/3/9 11/4/9
f 34/7/9 11/4/9 41/4/9
f 41/4/9 36/7/9 34/7/9
f 11/4/9 5/3/9 12/5/9
f 12/5/9 5/3/9 6/3/9
f 6/3/9 15/5/9 12/5/9
f 10/5/2 40/4/2 9/4/2
f 40/4/2 10/5/2 47/5/2
f 17/6/5 34/7/5 35/7/5
f 34/7/5 17/6/5 21/6/5

g stairs-full-corner-outer




usemtl colormap

f 3/1/3 2/2/2 1/1/1
f 2/2/2 3/1/3 4/2/2
f 7/3/4 6/3/4 5/3/4
f 6/3/4 7/3/4 8/3/4
f 11/4/5 10/5/5 9/4/5
f 10/5/5 11/4/5 12/5/5
f 8/3/2 14/5/1 13/5/3
f 14/5/1 8/3/2 7/3/2
f 15/5/6 8/3/5 13/5/3
f 8/3/5 15/5/6 6/3/5
f 18/6/4 17/6/4 16/6/4
f 17/6/4 18/6/4 19/6/4
f 17/6/4 19/6/4 20/6/4
f 20/6/4 21/6/4 17/6/4
f 24/7/3 23/4/2 22/7/1
f 23/4/2 24/7/3 25/4/2
f 19/6/2 27/8/1 26/8/3
f 27/8/1 19/6/2 18/6/2
f 30/9/7 29/9/7 28/9/7
f 29/9/7 30/9/7 31/9/7
f 31/9/7 30/9/7 32/9/7
f 32/9/7 30/9/7 33/9/7
f 36/7/6 35/7/7 34/7/7
f 24/7/3 35/7/7 36/7/6
f 22/7/1 35/7/7 24/7/3
f 35/7/7 22/7/1 37/7/7
f 38/1/2 31/9/2 32/9/2
f 31/9/2 38/1/2 39/1/2
f 23/4/4 9/4/4 40/4/4
f 9/4/4 23/4/4 25/4/4
f 9/4/4 25/4/4 41/4/4
f 41/4/4 11/4/4 9/4/4
f 33/9/5 38/1/5 32/9/5
f 38/1/5 33/9/5 42/1/5
f 43/1/6 4/2/5 3/1/3
f 4/2/5 43/1/6 44/2/5
f 16/6/8 27/8/8 18/6/8
f 27/8/8 16/6/8 45/8/8
f 45/8/8 16/6/8 46/2/8
f 28/9/8 46/2/8 16/6/8
f 28/9/8 16/6/8 40/4/8
f 37/7/8 40/4/8 16/6/8
f 22/7/8 40/4/8 37/7/8
f 40/4/8 22/7/8 23/4/8
f 28/9/8 40/4/8 47/5/8
f 28/9/8 47/5/8 5/3/8
f 14/5/8 5/3/8 47/5/8
f 5/3/8 14/5/8 7/3/8
f 29/9/8 46/2/8 28/9/8
f 39/1/8 46/2/8 29/9/8
f 29/9/8 31/9/8 39/1/8
f 1/1/8 46/2/8 39/1/8
f 46/2/8 1/1/8 2/2/8
f 49/8/2 46/2/2 48/2/2
f 46/2/2 49/8/2 45/8/2
f 51/8/6 49/8/7 50/8/7
f 26/8/3 49/8/7 51/8/6
f 27/8/1 49/8/7 26/8/3
f 49/8/7 27/8/1 45/8/7
f 43/1/6 38/1/7 42/1/7
f 3/1/3 38/1/7 43/1/6
f 1/1/1 38/1/7 3/1/3
f 38/1/7 1/1/1 39/1/7
f 52/2/5 49/8/5 48/2/5
f 49/8/5 52/2/5 50/8/5
f 51/8/6 19/6/5 26/8/3
f 19/6/5 51/8/6 20/6/5
f 35/7/2 16/6/2 17/6/2
f 16/6/2 35/7/2 37/7/2
f 15/5/6 10/5/7 12/5/7
f 13/5/3 10/5/7 15/5/6
f 14/5/1 10/5/7 13/5/3
f 10/5/7 14/5/1 47/5/7
f 2/2/4 48/2/4 46/2/4
f 48/2/4 2/2/4 4/2/4
f 48/2/4 4/2/4 44/2/4
f 44/2/4 52/2/4 48/2/4
f 36/7/6 25/4/5 24/7/3
f 25/4/5 36/7/6 41/4/5
f 5/3/9 30/9/9 28/9/9
f 30/9/9 5/3/9 52/2/9
f 30/9/9 52/2/9 42/1/9
f 42/1/9 33/9/9 30/9/9
f 42/1/9 52/2/9 44/2/9
f 44/2/9 43/1/9 42/1/9
f 52/2/9 5/3/9 21/6/9
f 52/2/9 21/6/9 50/8/9
f 50/8/9 21/6/9 20/6/9
f 20/6/9 51/8/9 50/8/9
f 21/6/9 5/3/9 34/7/9
f 34/7/9 5/3/9 11/4/9
f 34/7/9 11/4/9 41/4/9
f 41/4/9 36/7/9 34/7/9
f 11/4/9 5/3/9 12/5/9
f 12/5/9 5/3/9 6/3/9
f 6/3/9 15/5/9 12/5/9
f 10/5/2 40/4/2 9/4/2
f 40/4/2 10/5/2 47/5/2
f 17/6/5 34/7/5 35/7/5
f 34/7/5 17/6/5 21/6/5

