# Created by Kenney (www.kenney.nl)

mtllib stall-red.mtl

g stall-red

v 0.3386835 0.9410781 -0.5 1 1 1
v 0.3386835 0.9410781 0.5 1 1 1
v 0.1974197 1.014103 -0.5 1 1 1
v 0.1974197 1.014103 0.5 1 1 1
v 1.732587E-14 1.2116 -0.5 1 1 1
v 0.08275408 1.105692 -0.5 1 1 1
v 1.732587E-14 1.2116 0.5 1 1 1
v 0.08275408 1.105692 0.5 1 1 1
v 0.5 0.850816 -0.2777778 1 1 1
v 0.5 0.811632 -0.2777778 1 1 1
v 0.5 0.772448 -0.2222222 1 1 1
v 0.5 0.850816 -0.1666667 1 1 1
v 0.5 0.811632 -0.1666667 1 1 1
v 0.5 0.89 0.5 1 1 1
v 0.5 0.850816 -0.05555555 1 1 1
v 0.5 0.850816 -0.3888889 1 1 1
v 0.5 0.850816 0.05555555 1 1 1
v 0.5 0.811632 -0.05555555 1 1 1
v 0.5 0.772448 7.219114E-15 1 1 1
v 0.5 0.811632 0.05555555 1 1 1
v 0.5 0.850816 0.1666667 1 1 1
v 0.5 0.89 -0.5 1 1 1
v 0.5 0.772448 -0.4444444 1 1 1
v 0.5 0.811632 -0.3888889 1 1 1
v 0.5 0.811632 -0.5 1 1 1
v 0.5 0.850816 0.2777778 1 1 1
v 0.5 0.772448 0.2222222 1 1 1
v 0.5 0.811632 0.1666667 1 1 1
v 0.5 0.811632 0.2777778 1 1 1
v 0.5 0.850816 0.3888889 1 1 1
v 0.5 0.772448 0.4444444 1 1 1
v 0.5 0.811632 0.3888889 1 1 1
v 0.5 0.850816 0.5 1 1 1
v 0.5 0.811632 0.5 1 1 1
v -0.3386835 0.9410781 -0.5 1 1 1
v -0.3386835 0.9410781 0.5 1 1 1
v -0.5 0.89 -0.5 1 1 1
v -0.5 0.89 0.5 1 1 1
v -0.5 0.811632 -0.2777778 1 1 1
v -0.5 0.850816 -0.2777778 1 1 1
v -0.5 0.772448 -0.2222222 1 1 1
v -0.5 0.850816 -0.1666667 1 1 1
v -0.5 0.811632 -0.1666667 1 1 1
v -0.5 0.850816 -0.05555555 1 1 1
v -0.5 0.850816 -0.3888889 1 1 1
v -0.5 0.850816 0.05555555 1 1 1
v -0.5 0.811632 -0.05555555 1 1 1
v -0.5 0.772448 7.219114E-15 1 1 1
v -0.5 0.811632 0.05555555 1 1 1
v -0.5 0.850816 0.1666667 1 1 1
v -0.5 0.772448 -0.4444444 1 1 1
v -0.5 0.811632 -0.3888889 1 1 1
v -0.5 0.811632 -0.5 1 1 1
v -0.5 0.850816 0.2777778 1 1 1
v -0.5 0.772448 0.2222222 1 1 1
v -0.5 0.811632 0.1666667 1 1 1
v -0.5 0.811632 0.2777778 1 1 1
v -0.5 0.850816 0.3888889 1 1 1
v -0.5 0.772448 0.4444444 1 1 1
v -0.5 0.811632 0.3888889 1 1 1
v -0.5 0.850816 0.5 1 1 1
v -0.5 0.811632 0.5 1 1 1
v -0.08275408 1.105692 -0.5 1 1 1
v -0.08275408 1.105692 0.5 1 1 1
v -0.1974197 1.014103 -0.5 1 1 1
v -0.1974197 1.014103 0.5 1 1 1
v 0.025 1.236983 0.45 1 1 1
v 0.025 1.236983 0.5 1 1 1
v -0.025 1.236983 0.45 1 1 1
v -0.025 1.236983 0.5 1 1 1
v 0.025 0.3655014 0.45 1 1 1
v 0.025 0.3655014 0.5 1 1 1
v -0.025 0.3655014 0.5 1 1 1
v -0.025 0.3655014 0.45 1 1 1
v 0.025 1.236983 -0.5 1 1 1
v 0.025 1.236983 -0.45 1 1 1
v -0.025 1.236983 -0.5 1 1 1
v -0.025 1.236983 -0.45 1 1 1
v 0.025 0.3655014 -0.5 1 1 1
v 0.025 0.3655014 -0.45 1 1 1
v -0.025 0.3655014 -0.45 1 1 1
v -0.025 0.3655014 -0.5 1 1 1
v -0.25 2.48703E-13 0.4 1 1 1
v -0.25 0.3155014 0.4 1 1 1
v -0.25 2.48703E-13 0.45 1 1 1
v -0.25 0.3155014 0.45 1 1 1
v -0.2 2.487933E-13 -0.4 1 1 1
v -0.2 2.487648E-13 -0.45 1 1 1
v -0.25 2.487933E-13 -0.4 1 1 1
v -0.25 2.487933E-13 -0.45 1 1 1
v 0.2 7.264503E-16 0.4 1 1 1
v 0.2 0.3155014 0.4 1 1 1
v 0.2 0 0.41 1 1 1
v 0.2 0.3155014 0.45 1 1 1
v 0.2 7.264503E-16 0.45 1 1 1
v -0.2 0.3155014 0.4 1 1 1
v -0.2 2.486746E-13 0.4 1 1 1
v -0.2 0.3155014 0.41 1 1 1
v -0.2 2.48703E-13 0.45 1 1 1
v -0.2 0.3155014 0.45 1 1 1
v 0.25 7.264503E-16 0.45 1 1 1
v 0.25 6.979798E-16 0.4 1 1 1
v 0.25 0.3155014 0.4 1 1 1
v -0.25 0.3155014 -0.45 1 1 1
v -0.25 0.3155014 -0.4 1 1 1
v 0.25 8.166893E-16 -0.4 1 1 1
v 0.2 8.166893E-16 -0.4 1 1 1
v 0.25 0.3155014 -0.4 1 1 1
v 0.2 0.3155014 -0.4 1 1 1
v -0.2 0.3155014 -0.45 1 1 1
v -0.2 0.3155014 -0.41 1 1 1
v -0.2 0.3155014 -0.4 1 1 1
v 0.25 0.3155014 0.45 1 1 1
v 0.25 7.882187E-16 -0.45 1 1 1
v 0.25 0.3155014 -0.45 1 1 1
v 0.2 8.166893E-16 -0.45 1 1 1
v 0.2 0.3155014 -0.45 1 1 1
v 0.2 1.54314E-15 -0.41 1 1 1
v 0.3 0.3155014 0.5 1 1 1
v -0.3 0.3155014 0.5 1 1 1
v 0.3 0.3655014 0.5 1 1 1
v -0.3 0.3655014 0.5 1 1 1
v 0.325 0.3655014 -0.475 1 1 1
v 0.325 0.3155014 -0.475 1 1 1
v 0.325 0.3655014 0.475 1 1 1
v 0.325 0.3155014 0.475 1 1 1
v 0.3 0.3155014 -0.5 1 1 1
v 0.3 0.3655014 -0.5 1 1 1
v -0.3 0.3155014 -0.5 1 1 1
v -0.3 0.3655014 -0.5 1 1 1
v -0.325 0.3155014 -0.475 1 1 1
v -0.325 0.3655014 -0.475 1 1 1
v -0.325 0.3155014 0.475 1 1 1
v -0.325 0.3655014 0.475 1 1 1
v 0.2125 0.1827507 -0.4 1 1 1
v 0.2125 0.1827507 0.4 1 1 1
v 0.2125 0.1327507 -0.4 1 1 1
v 0.2125 0.1327507 0.4 1 1 1
v 0.2 0.1827507 -0.4125 1 1 1
v -0.2 0.1827507 -0.4125 1 1 1
v 0.2 0.1827507 -0.4375 1 1 1
v -0.2 0.1827507 -0.4375 1 1 1
v 0.2 0.1327507 0.4125 1 1 1
v 0.2 0.1827507 0.4125 1 1 1
v -0.2 0.1327507 0.4125 1 1 1
v -0.2 0.1827507 0.4125 1 1 1
v 0.2 0.1327507 0.4375 1 1 1
v -0.2 0.1327507 0.4375 1 1 1
v 0.2 0.1827507 0.4375 1 1 1
v -0.2 0.1827507 0.4375 1 1 1
v -0.2125 0.1327507 0.4 1 1 1
v -0.2125 0.1327507 -0.4 1 1 1
v -0.2375 0.1327507 0.4 1 1 1
v -0.2375 0.1327507 -0.4 1 1 1
v -0.2125 0.1827507 -0.4 1 1 1
v -0.2125 0.1827507 0.4 1 1 1
v -0.2375 0.1827507 -0.4 1 1 1
v -0.2375 0.1827507 0.4 1 1 1
v 0.2375 0.1827507 -0.4 1 1 1
v 0.2375 0.1327507 -0.4 1 1 1
v 0.2375 0.1827507 0.4 1 1 1
v 0.2375 0.1327507 0.4 1 1 1
v 0.2 0.1327507 -0.4125 1 1 1
v -0.2 0.1327507 -0.4125 1 1 1
v 0.2 0.1327507 -0.4375 1 1 1
v -0.2 0.1327507 -0.4375 1 1 1
v 0.5 0.84 -0.45 1 1 1
v 0.5 0.89 -0.45 1 1 1
v -0.5 0.84 -0.45 1 1 1
v -0.5 0.89 -0.45 1 1 1
v 0.5 0.84 -0.4 1 1 1
v -0.5 0.84 -0.4 1 1 1
v 0.5 0.89 -0.4 1 1 1
v -0.5 0.89 -0.4 1 1 1
v 0.5 0.84 0.4 1 1 1
v 0.5 0.89 0.4 1 1 1
v -0.5 0.84 0.4 1 1 1
v -0.5 0.89 0.4 1 1 1
v 0.5 0.84 0.45 1 1 1
v -0.5 0.84 0.45 1 1 1
v 0.5 0.89 0.45 1 1 1
v -0.5 0.89 0.45 1 1 1

vn 0.3819241 0.9241937 0
vn 0.5442898 0.8388973 0
vn -0.5442898 -0.8388973 0
vn -0.3819241 -0.9241937 0
vn 0.787976 0.6157059 0
vn 0.7108775 0.7033158 0
vn -0.787976 -0.6157059 0
vn -0.7108775 -0.7033158 0
vn 1 0 0
vn 0.806803 0.5908205 0
vn -1 0 0
vn -0.806803 -0.5908205 0
vn -0.3819241 0.9241937 0
vn -0.806803 0.5908205 0
vn 0.806803 -0.5908205 0
vn 0.3819241 -0.9241937 0
vn -0.7108775 0.7033158 0
vn -0.787976 0.6157059 0
vn 0.7108775 -0.7033158 0
vn 0.787976 -0.6157059 0
vn -0.5442898 0.8388973 0
vn 0.5442898 -0.8388973 0
vn 0 1 0
vn 0 0 1
vn 0 0 -1
vn 0 -1 0
vn 0.3826834 0 0.9238795
vn -0.3826834 0 0.9238795
vn 0.9238795 0 -0.3826834
vn 0.9238795 0 0.3826834
vn 0.3826834 0 -0.9238795
vn -0.3826834 0 -0.9238795
vn -0.9238795 0 -0.3826834
vn -0.9238795 0 0.3826834

vt 0.09375 0.1017981
vt 0.09375 0.1350554
vt 0.09375 0.225
vt 0.09375 0.176767
vt 0.09375 0.0606906
vt 0.09375 0.04284531
vt 0.09375 0.025
vt 0.09375 0.07853591
vt 0.09375 0.0428453
vt 0.09375 0.025
vt 0.59375 0.225
vt 0.59375 0.025
vt 0.59375 0.075
vt 0.59375 0.175

usemtl colormap

f 3/2/2 2/1/1 1/1/1
f 2/1/1 3/2/2 4/2/2
f 1/1/4 2/1/4 3/2/3
f 4/2/3 3/2/3 2/1/4
f 7/3/5 6/4/6 5/3/5
f 6/4/6 7/3/5 8/4/6
f 5/3/7 6/4/8 7/3/7
f 8/4/8 7/3/7 6/4/8
f 6/4/6 4/2/2 3/2/2
f 4/2/2 6/4/6 8/4/6
f 3/2/3 4/2/3 6/4/8
f 8/4/8 6/4/8 4/2/3
f 11/7/9 10/6/9 9/5/9
f 9/5/9 12/5/9 11/7/9
f 13/6/9 11/7/9 12/5/9
f 9/5/9 14/8/10 12/5/9
f 12/5/9 14/8/10 15/5/9
f 16/5/9 14/8/10 9/5/9
f 15/5/9 14/8/10 17/5/9
f 15/5/9 17/5/9 18/9/9
f 18/9/9 17/5/9 19/7/9
f 20/9/9 19/7/9 17/5/9
f 17/5/9 14/8/10 21/5/9
f 16/5/9 22/8/10 14/8/10
f 23/10/9 22/8/10 16/5/9
f 24/6/9 23/10/9 16/5/9
f 22/8/10 23/10/9 25/6/9
f 21/5/9 14/8/10 26/5/9
f 21/5/9 26/5/9 27/7/9
f 27/7/9 28/9/9 21/5/9
f 29/9/9 27/7/9 26/5/9
f 26/5/9 14/8/10 30/5/9
f 30/5/9 14/8/10 31/7/9
f 31/7/9 32/9/9 30/5/9
f 31/7/9 14/8/10 33/5/9
f 34/9/9 31/7/9 33/5/9
f 9/5/11 10/6/11 11/7/11
f 11/7/11 12/5/11 9/5/11
f 12/5/11 11/7/11 13/6/11
f 12/5/11 14/8/12 9/5/11
f 15/5/11 14/8/12 12/5/11
f 9/5/11 14/8/12 16/5/11
f 17/5/11 14/8/12 15/5/11
f 18/9/11 17/5/11 15/5/11
f 19/7/11 17/5/11 18/9/11
f 17/5/11 19/7/11 20/9/11
f 21/5/11 14/8/12 17/5/11
f 14/8/12 22/8/12 16/5/11
f 16/5/11 22/8/12 23/10/11
f 25/6/11 23/10/11 22/8/12
f 16/5/11 23/10/11 24/6/11
f 26/5/11 14/8/12 21/5/11
f 27/7/11 26/5/11 21/5/11
f 21/5/11 28/9/11 27/7/11
f 26/5/11 27/7/11 29/9/11
f 30/5/11 14/8/12 26/5/11
f 31/7/11 14/8/12 30/5/11
f 30/5/11 32/9/11 31/7/11
f 33/5/11 14/8/12 31/7/11
f 33/5/11 31/7/11 34/9/11
f 1/1/1 14/8/10 22/8/10
f 14/8/10 1/1/1 2/1/1
f 22/8/12 14/8/12 1/1/4
f 2/1/4 1/1/4 14/8/12
f 37/8/14 36/1/13 35/1/13
f 36/1/13 37/8/14 38/8/14
f 35/1/16 36/1/16 37/8/15
f 38/8/15 37/8/15 36/1/16
f 41/7/11 40/5/11 39/6/11
f 42/5/11 40/5/11 41/7/11
f 42/5/11 41/7/11 43/6/11
f 38/8/14 40/5/11 42/5/11
f 38/8/14 42/5/11 44/5/11
f 38/8/14 45/5/11 40/5/11
f 38/8/14 44/5/11 46/5/11
f 46/5/11 44/5/11 47/9/11
f 46/5/11 47/9/11 48/7/11
f 46/5/11 48/7/11 49/9/11
f 38/8/14 46/5/11 50/5/11
f 37/8/14 45/5/11 38/8/14
f 37/8/14 51/10/11 45/5/11
f 45/5/11 51/10/11 52/6/11
f 51/10/11 37/8/14 53/6/11
f 38/8/14 50/5/11 54/5/11
f 54/5/11 50/5/11 55/7/11
f 55/7/11 50/5/11 56/9/11
f 54/5/11 55/7/11 57/9/11
f 38/8/14 54/5/11 58/5/11
f 38/8/14 58/5/11 59/7/11
f 59/7/11 58/5/11 60/9/11
f 38/8/14 59/7/11 61/5/11
f 61/5/11 59/7/11 62/9/11
f 39/6/9 40/5/9 41/7/9
f 41/7/9 40/5/9 42/5/9
f 43/6/9 41/7/9 42/5/9
f 42/5/9 40/5/9 38/8/15
f 44/5/9 42/5/9 38/8/15
f 40/5/9 45/5/9 38/8/15
f 46/5/9 44/5/9 38/8/15
f 47/9/9 44/5/9 46/5/9
f 48/7/9 47/9/9 46/5/9
f 49/9/9 48/7/9 46/5/9
f 50/5/9 46/5/9 38/8/15
f 38/8/15 45/5/9 37/8/15
f 45/5/9 51/10/9 37/8/15
f 53/6/9 37/8/15 51/10/9
f 52/6/9 51/10/9 45/5/9
f 54/5/9 50/5/9 38/8/15
f 55/7/9 50/5/9 54/5/9
f 56/9/9 50/5/9 55/7/9
f 57/9/9 55/7/9 54/5/9
f 58/5/9 54/5/9 38/8/15
f 59/7/9 58/5/9 38/8/15
f 60/9/9 58/5/9 59/7/9
f 61/5/9 59/7/9 38/8/15
f 62/9/9 59/7/9 61/5/9
f 64/4/17 5/3/18 63/4/17
f 5/3/18 64/4/17 7/3/18
f 63/4/19 5/3/20 64/4/19
f 7/3/20 64/4/19 5/3/20
f 65/2/21 64/4/17 63/4/17
f 64/4/17 65/2/21 66/2/21
f 63/4/19 64/4/19 65/2/22
f 66/2/22 65/2/22 64/4/19
f 35/1/13 66/2/21 65/2/21
f 66/2/21 35/1/13 36/1/13
f 65/2/22 66/2/22 35/1/16
f 36/1/16 35/1/16 66/2/22
f 69/11/23 68/11/23 67/11/23
f 68/11/23 69/11/23 70/11/23
f 68/11/9 71/12/9 67/11/9
f 71/12/9 68/11/9 72/12/9
f 68/11/24 73/12/24 72/12/24
f 73/12/24 68/11/24 70/11/24
f 73/12/11 69/11/11 74/12/11
f 69/11/11 73/12/11 70/11/11
f 69/11/25 71/12/25 74/12/25
f 71/12/25 69/11/25 67/11/25
f 77/11/23 76/11/23 75/11/23
f 76/11/23 77/11/23 78/11/23
f 76/11/9 79/12/9 75/11/9
f 79/12/9 76/11/9 80/12/9
f 76/11/24 81/12/24 80/12/24
f 81/12/24 76/11/24 78/11/24
f 81/12/11 77/11/11 82/12/11
f 77/11/11 81/12/11 78/11/11
f 77/11/25 79/12/25 82/12/25
f 79/12/25 77/11/25 75/11/25
f 85/11/11 84/12/11 83/11/11
f 84/12/11 85/11/11 86/12/11
f 89/11/26 88/11/26 87/11/26
f 88/11/26 89/11/26 90/11/26
f 93/11/11 92/12/11 91/11/11
f 92/12/11 93/11/11 94/12/11
f 94/12/11 93/11/11 95/11/11
f 98/12/9 97/11/9 96/12/9
f 97/11/9 98/12/9 99/11/9
f 99/11/9 98/12/9 100/12/9
f 95/11/26 102/11/26 101/11/26
f 102/11/26 95/11/26 91/11/26
f 91/11/26 95/11/26 93/11/26
f 83/11/25 96/12/25 97/11/25
f 96/12/25 83/11/25 84/12/25
f 91/11/25 103/12/25 102/11/25
f 103/12/25 91/11/25 92/12/25
f 89/11/11 104/12/11 90/11/11
f 104/12/11 89/11/11 105/12/11
f 108/12/24 107/11/24 106/11/24
f 107/11/24 108/12/24 109/12/24
f 111/12/9 88/11/9 110/12/9
f 88/11/9 111/12/9 87/11/9
f 87/11/9 111/12/9 112/12/9
f 100/12/24 85/11/24 99/11/24
f 85/11/24 100/12/24 86/12/24
f 113/12/24 95/11/24 101/11/24
f 95/11/24 113/12/24 94/12/24
f 116/11/25 115/12/25 114/11/25
f 115/12/25 116/11/25 117/12/25
f 108/12/9 114/11/9 115/12/9
f 114/11/9 108/12/9 106/11/9
f 113/12/9 102/11/9 103/12/9
f 102/11/9 113/12/9 101/11/9
f 112/12/24 89/11/24 87/11/24
f 89/11/24 112/12/24 105/12/24
f 107/11/26 114/11/26 106/11/26
f 114/11/26 107/11/26 116/11/26
f 116/11/26 107/11/26 118/11/26
f 118/11/11 117/12/11 116/11/11
f 117/12/11 118/11/11 109/12/11
f 109/12/11 118/11/11 107/11/11
f 85/11/26 97/11/26 99/11/26
f 97/11/26 85/11/26 83/11/26
f 90/11/25 110/12/25 88/11/25
f 110/12/25 90/11/25 104/12/25
f 121/14/27 120/13/28 119/13/27
f 120/13/28 121/14/27 122/14/28
f 125/14/30 124/13/29 123/14/29
f 124/13/29 125/14/30 126/13/30
f 129/13/32 128/14/31 127/13/31
f 128/14/31 129/13/32 130/14/32
f 133/13/34 132/14/33 131/13/33
f 132/14/33 133/13/34 134/14/34
f 123/14/29 127/13/31 128/14/31
f 127/13/31 123/14/29 124/13/29
f 131/13/33 130/14/32 129/13/32
f 130/14/32 131/13/33 132/14/33
f 120/13/28 134/14/34 133/13/34
f 134/14/34 120/13/28 122/14/28
f 121/14/27 126/13/30 125/14/30
f 126/13/30 121/14/27 119/13/27
f 128/14/23 125/14/23 123/14/23
f 125/14/23 128/14/23 121/14/23
f 121/14/23 128/14/23 130/14/23
f 121/14/23 130/14/23 122/14/23
f 122/14/23 130/14/23 132/14/23
f 122/14/23 132/14/23 134/14/23
f 119/13/26 124/13/26 126/13/26
f 124/13/26 119/13/26 127/13/26
f 127/13/26 119/13/26 120/13/26
f 127/13/26 120/13/26 129/13/26
f 129/13/26 120/13/26 133/13/26
f 129/13/26 133/13/26 131/13/26
f 137/13/11 136/14/11 135/14/11
f 136/14/11 137/13/11 138/13/11
f 141/14/23 140/14/23 139/14/23
f 140/14/23 141/14/23 142/14/23
f 145/13/25 144/14/25 143/13/25
f 144/14/25 145/13/25 146/14/25
f 149/14/24 148/13/24 147/13/24
f 148/13/24 149/14/24 150/14/24
f 153/13/26 152/13/26 151/13/26
f 152/13/26 153/13/26 154/13/26
f 157/14/23 156/14/23 155/14/23
f 156/14/23 157/14/23 158/14/23
f 161/14/9 160/13/9 159/14/9
f 160/13/9 161/14/9 162/13/9
f 135/14/23 161/14/23 159/14/23
f 161/14/23 135/14/23 136/14/23
f 139/14/24 164/13/24 163/13/24
f 164/13/24 139/14/24 140/14/24
f 164/13/26 165/13/26 163/13/26
f 165/13/26 164/13/26 166/13/26
f 144/14/23 150/14/23 149/14/23
f 150/14/23 144/14/23 146/14/23
f 148/13/26 143/13/26 147/13/26
f 143/13/26 148/13/26 145/13/26
f 154/13/11 158/14/11 157/14/11
f 158/14/11 154/13/11 153/13/11
f 156/14/9 152/13/9 155/14/9
f 152/13/9 156/14/9 151/13/9
f 138/13/26 160/13/26 162/13/26
f 160/13/26 138/13/26 137/13/26
f 166/13/25 141/14/25 165/13/25
f 141/14/25 166/13/25 142/14/25
f 169/13/25 168/14/25 167/13/25
f 168/14/25 169/13/25 170/14/25
f 173/14/24 172/13/24 171/13/24
f 172/13/24 173/14/24 174/14/24
f 170/14/23 173/14/23 168/14/23
f 173/14/23 170/14/23 174/14/23
f 172/13/26 167/13/26 171/13/26
f 167/13/26 172/13/26 169/13/26
f 177/13/25 176/14/25 175/13/25
f 176/14/25 177/13/25 178/14/25
f 181/14/24 180/13/24 179/13/24
f 180/13/24 181/14/24 182/14/24
f 178/14/23 181/14/23 176/14/23
f 181/14/23 178/14/23 182/14/23
f 180/13/26 175/13/26 179/13/26
f 175/13/26 180/13/26 177/13/26

g stall-red




usemtl colormap

f 3/2/2 2/1/1 1/1/1
f 2/1/1 3/2/2 4/2/2
f 1/1/4 2/1/4 3/2/3
f 4/2/3 3/2/3 2/1/4
f 7/3/5 6/4/6 5/3/5
f 6/4/6 7/3/5 8/4/6
f 5/3/7 6/4/8 7/3/7
f 8/4/8 7/3/7 6/4/8
f 6/4/6 4/2/2 3/2/2
f 4/2/2 6/4/6 8/4/6
f 3/2/3 4/2/3 6/4/8
f 8/4/8 6/4/8 4/2/3
f 11/7/9 10/6/9 9/5/9
f 9/5/9 12/5/9 11/7/9
f 13/6/9 11/7/9 12/5/9
f 9/5/9 14/8/10 12/5/9
f 12/5/9 14/8/10 15/5/9
f 16/5/9 14/8/10 9/5/9
f 15/5/9 14/8/10 17/5/9
f 15/5/9 17/5/9 18/9/9
f 18/9/9 17/5/9 19/7/9
f 20/9/9 19/7/9 17/5/9
f 17/5/9 14/8/10 21/5/9
f 16/5/9 22/8/10 14/8/10
f 23/10/9 22/8/10 16/5/9
f 24/6/9 23/10/9 16/5/9
f 22/8/10 23/10/9 25/6/9
f 21/5/9 14/8/10 26/5/9
f 21/5/9 26/5/9 27/7/9
f 27/7/9 28/9/9 21/5/9
f 29/9/9 27/7/9 26/5/9
f 26/5/9 14/8/10 30/5/9
f 30/5/9 14/8/10 31/7/9
f 31/7/9 32/9/9 30/5/9
f 31/7/9 14/8/10 33/5/9
f 34/9/9 31/7/9 33/5/9
f 9/5/11 10/6/11 11/7/11
f 11/7/11 12/5/11 9/5/11
f 12/5/11 11/7/11 13/6/11
f 12/5/11 14/8/12 9/5/11
f 15/5/11 14/8/12 12/5/11
f 9/5/11 14/8/12 16/5/11
f 17/5/11 14/8/12 15/5/11
f 18/9/11 17/5/11 15/5/11
f 19/7/11 17/5/11 18/9/11
f 17/5/11 19/7/11 20/9/11
f 21/5/11 14/8/12 17/5/11
f 14/8/12 22/8/12 16/5/11
f 16/5/11 22/8/12 23/10/11
f 25/6/11 23/10/11 22/8/12
f 16/5/11 23/10/11 24/6/11
f 26/5/11 14/8/12 21/5/11
f 27/7/11 26/5/11 21/5/11
f 21/5/11 28/9/11 27/7/11
f 26/5/11 27/7/11 29/9/11
f 30/5/11 14/8/12 26/5/11
f 31/7/11 14/8/12 30/5/11
f 30/5/11 32/9/11 31/7/11
f 33/5/11 14/8/12 31/7/11
f 33/5/11 31/7/11 34/9/11
f 1/1/1 14/8/10 22/8/10
f 14/8/10 1/1/1 2/1/1
f 22/8/12 14/8/12 1/1/4
f 2/1/4 1/1/4 14/8/12
f 37/8/14 36/1/13 35/1/13
f 36/1/13 37/8/14 38/8/14
f 35/1/16 36/1/16 37/8/15
f 38/8/15 37/8/15 36/1/16
f 41/7/11 40/5/11 39/6/11
f 42/5/11 40/5/11 41/7/11
f 42/5/11 41/7/11 43/6/11
f 38/8/14 40/5/11 42/5/11
f 38/8/14 42/5/11 44/5/11
f 38/8/14 45/5/11 40/5/11
f 38/8/14 44/5/11 46/5/11
f 46/5/11 44/5/11 47/9/11
f 46/5/11 47/9/11 48/7/11
f 46/5/11 48/7/11 49/9/11
f 38/8/14 46/5/11 50/5/11
f 37/8/14 45/5/11 38/8/14
f 37/8/14 51/10/11 45/5/11
f 45/5/11 51/10/11 52/6/11
f 51/10/11 37/8/14 53/6/11
f 38/8/14 50/5/11 54/5/11
f 54/5/11 50/5/11 55/7/11
f 55/7/11 50/5/11 56/9/11
f 54/5/11 55/7/11 57/9/11
f 38/8/14 54/5/11 58/5/11
f 38/8/14 58/5/11 59/7/11
f 59/7/11 58/5/11 60/9/11
f 38/8/14 59/7/11 61/5/11
f 61/5/11 59/7/11 62/9/11
f 39/6/9 40/5/9 41/7/9
f 41/7/9 40/5/9 42/5/9
f 43/6/9 41/7/9 42/5/9
f 42/5/9 40/5/9 38/8/15
f 44/5/9 42/5/9 38/8/15
f 40/5/9 45/5/9 38/8/15
f 46/5/9 44/5/9 38/8/15
f 47/9/9 44/5/9 46/5/9
f 48/7/9 47/9/9 46/5/9
f 49/9/9 48/7/9 46/5/9
f 50/5/9 46/5/9 38/8/15
f 38/8/15 45/5/9 37/8/15
f 45/5/9 51/10/9 37/8/15
f 53/6/9 37/8/15 51/10/9
f 52/6/9 51/10/9 45/5/9
f 54/5/9 50/5/9 38/8/15
f 55/7/9 50/5/9 54/5/9
f 56/9/9 50/5/9 55/7/9
f 57/9/9 55/7/9 54/5/9
f 58/5/9 54/5/9 38/8/15
f 59/7/9 58/5/9 38/8/15
f 60/9/9 58/5/9 59/7/9
f 61/5/9 59/7/9 38/8/15
f 62/9/9 59/7/9 61/5/9
f 64/4/17 5/3/18 63/4/17
f 5/3/18 64/4/17 7/3/18
f 63/4/19 5/3/20 64/4/19
f 7/3/20 64/4/19 5/3/20
f 65/2/21 64/4/17 63/4/17
f 64/4/17 65/2/21 66/2/21
f 63/4/19 64/4/19 65/2/22
f 66/2/22 65/2/22 64/4/19
f 35/1/13 66/2/21 65/2/21
f 66/2/21 35/1/13 36/1/13
f 65/2/22 66/2/22 35/1/16
f 36/1/16 35/1/16 66/2/22
f 69/11/23 68/11/23 67/11/23
f 68/11/23 69/11/23 70/11/23
f 68/11/9 71/12/9 67/11/9
f 71/12/9 68/11/9 72/12/9
f 68/11/24 73/12/24 72/12/24
f 73/12/24 68/11/24 70/11/24
f 73/12/11 69/11/11 74/12/11
f 69/11/11 73/12/11 70/11/11
f 69/11/25 71/12/25 74/12/25
f 71/12/25 69/11/25 67/11/25
f 77/11/23 76/11/23 75/11/23
f 76/11/23 77/11/23 78/11/23
f 76/11/9 79/12/9 75/11/9
f 79/12/9 76/11/9 80/12/9
f 76/11/24 81/12/24 80/12/24
f 81/12/24 76/11/24 78/11/24
f 81/12/11 77/11/11 82/12/11
f 77/11/11 81/12/11 78/11/11
f 77/11/25 79/12/25 82/12/25
f 79/12/25 77/11/25 75/11/25
f 85/11/11 84/12/11 83/11/11
f 84/12/11 85/11/11 86/12/11
f 89/11/26 88/11/26 87/11/26
f 88/11/26 89/11/26 90/11/26
f 93/11/11 92/12/11 91/11/11
f 92/12/11 93/11/11 94/12/11
f 94/12/11 93/11/11 95/11/11
f 98/12/9 97/11/9 96/12/9
f 97/11/9 98/12/9 99/11/9
f 99/11/9 98/12/9 100/12/9
f 95/11/26 102/11/26 101/11/26
f 102/11/26 95/11/26 91/11/26
f 91/11/26 95/11/26 93/11/26
f 83/11/25 96/12/25 97/11/25
f 96/12/25 83/11/25 84/12/25
f 91/11/25 103/12/25 102/11/25
f 103/12/25 91/11/25 92/12/25
f 89/11/11 104/12/11 90/11/11
f 104/12/11 89/11/11 105/12/11
f 108/12/24 107/11/24 106/11/24
f 107/11/24 108/12/24 109/12/24
f 111/12/9 88/11/9 110/12/9
f 88/11/9 111/12/9 87/11/9
f 87/11/9 111/12/9 112/12/9
f 100/12/24 85/11/24 99/11/24
f 85/11/24 100/12/24 86/12/24
f 113/12/24 95/11/24 101/11/24
f 95/11/24 113/12/24 94/12/24
f 116/11/25 115/12/25 114/11/25
f 115/12/25 116/11/25 117/12/25
f 108/12/9 114/11/9 115/12/9
f 114/11/9 108/12/9 106/11/9
f 113/12/9 102/11/9 103/12/9
f 102/11/9 113/12/9 101/11/9
f 112/12/24 89/11/24 87/11/24
f 89/11/24 112/12/24 105/12/24
f 107/11/26 114/11/26 106/11/26
f 114/11/26 107/11/26 116/11/26
f 116/11/26 107/11/26 118/11/26
f 118/11/11 117/12/11 116/11/11
f 117/12/11 118/11/11 109/12/11
f 109/12/11 118/11/11 107/11/11
f 85/11/26 97/11/26 99/11/26
f 97/11/26 85/11/26 83/11/26
f 90/11/25 110/12/25 88/11/25
f 110/12/25 90/11/25 104/12/25
f 121/14/27 120/13/28 119/13/27
f 120/13/28 121/14/27 122/14/28
f 125/14/30 124/13/29 123/14/29
f 124/13/29 125/14/30 126/13/30
f 129/13/32 128/14/31 127/13/31
f 128/14/31 129/13/32 130/14/32
f 133/13/34 132/14/33 131/13/33
f 132/14/33 133/13/34 134/14/34
f 123/14/29 127/13/31 128/14/31
f 127/13/31 123/14/29 124/13/29
f 131/13/33 130/14/32 129/13/32
f 130/14/32 131/13/33 132/14/33
f 120/13/28 134/14/34 133/13/34
f 134/14/34 120/13/28 122/14/28
f 121/14/27 126/13/30 125/14/30
f 126/13/30 121/14/27 119/13/27
f 128/14/23 125/14/23 123/14/23
f 125/14/23 128/14/23 121/14/23
f 121/14/23 128/14/23 130/14/23
f 121/14/23 130/14/23 122/14/23
f 122/14/23 130/14/23 132/14/23
f 122/14/23 132/14/23 134/14/23
f 119/13/26 124/13/26 126/13/26
f 124/13/26 119/13/26 127/13/26
f 127/13/26 119/13/26 120/13/26
f 127/13/26 120/13/26 129/13/26
f 129/13/26 120/13/26 133/13/26
f 129/13/26 133/13/26 131/13/26
f 137/13/11 136/14/11 135/14/11
f 136/14/11 137/13/11 138/13/11
f 141/14/23 140/14/23 139/14/23
f 140/14/23 141/14/23 142/14/23
f 145/13/25 144/14/25 143/13/25
f 144/14/25 145/13/25 146/14/25
f 149/14/24 148/13/24 147/13/24
f 148/13/24 149/14/24 150/14/24
f 153/13/26 152/13/26 151/13/26
f 152/13/26 153/13/26 154/13/26
f 157/14/23 156/14/23 155/14/23
f 156/14/23 157/14/23 158/14/23
f 161/14/9 160/13/9 159/14/9
f 160/13/9 161/14/9 162/13/9
f 135/14/23 161/14/23 159/14/23
f 161/14/23 135/14/23 136/14/23
f 139/14/24 164/13/24 163/13/24
f 164/13/24 139/14/24 140/14/24
f 164/13/26 165/13/26 163/13/26
f 165/13/26 164/13/26 166/13/26
f 144/14/23 150/14/23 149/14/23
f 150/14/23 144/14/23 146/14/23
f 148/13/26 143/13/26 147/13/26
f 143/13/26 148/13/26 145/13/26
f 154/13/11 158/14/11 157/14/11
f 158/14/11 154/13/11 153/13/11
f 156/14/9 152/13/9 155/14/9
f 152/13/9 156/14/9 151/13/9
f 138/13/26 160/13/26 162/13/26
f 160/13/26 138/13/26 137/13/26
f 166/13/25 141/14/25 165/13/25
f 141/14/25 166/13/25 142/14/25
f 169/13/25 168/14/25 167/13/25
f 168/14/25 169/13/25 170/14/25
f 173/14/24 172/13/24 171/13/24
f 172/13/24 173/14/24 174/14/24
f 170/14/23 173/14/23 168/14/23
f 173/14/23 170/14/23 174/14/23
f 172/13/26 167/13/26 171/13/26
f 167/13/26 172/13/26 169/13/26
f 177/13/25 176/14/25 175/13/25
f 176/14/25 177/13/25 178/14/25
f 181/14/24 180/13/24 179/13/24
f 180/13/24 181/14/24 182/14/24
f 178/14/23 181/14/23 176/14/23
f 181/14/23 178/14/23 182/14/23
f 180/13/26 175/13/26 179/13/26
f 175/13/26 180/13/26 177/13/26

