# Created by Kenney (www.kenney.nl)

mtllib tree-high-crooked.mtl

g tree-high-crooked

v 0.1584724 0.8909026 -0.01937343 1 1 1
v 0.1604343 0.8463057 -0.01937343 1 1 1
v 0.1584724 0.8909026 0.02526656 1 1 1
v 0.1604343 0.8463057 0.02526656 1 1 1
v -0.14432 0 -0.14432 1 1 1
v -0.093808 0.17648 -0.093808 1 1 1
v -0.14432 0 0.14432 1 1 1
v -0.093808 0.17648 0.093808 1 1 1
v 0.06512826 0.8284197 0.03894657 1 1 1
v 0.06196394 0.9003503 0.03894657 1 1 1
v 0.06512826 0.8284197 -0.03305343 1 1 1
v 0.06196394 0.9003503 -0.03305343 1 1 1
v 0.05293207 0.3796318 -0.08487107 1 1 1
v -0.02706793 0.3796318 -0.08487107 1 1 1
v 0.03813207 0.3679225 -0.1554539 1 1 1
v -0.01226793 0.3679225 -0.1554539 1 1 1
v -0.01226793 0.3175712 -0.1576689 1 1 1
v -0.02706793 0.2997091 -0.08838698 1 1 1
v 0.14432 0 -0.14432 1 1 1
v 0.14432 0 0.14432 1 1 1
v 0.093808 0.17648 -0.093808 1 1 1
v 0.093808 0.17648 0.093808 1 1 1
v -0.05558124 1.04544 -0.05558123 1 1 1
v -0.05558124 1.04544 0.05558124 1 1 1
v -0.02419977 0.6460789 0.07314969 1 1 1
v -0.00619977 0.6290225 0.1860083 1 1 1
v -0.02419977 0.558164 0.07701719 1 1 1
v -0.00619977 0.585065 0.1879421 1 1 1
v 0.02980023 0.585065 0.1879421 1 1 1
v 0.02980023 0.6290225 0.1860083 1 1 1
v 0.04780023 0.558164 0.07701719 1 1 1
v 0.04780023 0.6460789 0.07314969 1 1 1
v 0.03813207 0.3175712 -0.1576689 1 1 1
v 0.05293207 0.2997091 -0.08838698 1 1 1
v 0.05558124 1.04544 -0.05558123 1 1 1
v 0.05558124 1.04544 0.05558124 1 1 1
v 1.046772E-14 2.447803 -0.1359206 1 1 1
v 0.1006437 2.449185 -0.09425555 1 1 1
v 9.023893E-15 2.97258 -0.01091935 1 1 1
v -0.1006437 2.449185 -0.09425555 1 1 1
v -0.1423316 2.452522 0.006332776 1 1 1
v 1.046772E-14 2.457241 0.1485862 1 1 1
v -0.1006437 2.455858 0.1069211 1 1 1
v 0.1423316 2.452522 0.006332776 1 1 1
v 0.1006437 2.455858 0.1069211 1 1 1
v 0.2004671 2.314261 0.01091935 1 1 1
v 0.1417516 2.318961 0.152593 1 1 1
v 0.1417516 2.309561 -0.1307544 1 1 1
v 9.023893E-15 2.320908 0.2112762 1 1 1
v 9.023893E-15 2.307615 -0.1894375 1 1 1
v -0.1417516 2.318961 0.152593 1 1 1
v -0.1417516 2.309561 -0.1307544 1 1 1
v -0.2004671 2.314261 0.01091935 1 1 1
v -0.1402066 2.094487 0.1417516 1 1 1
v -0.1136065 2.317091 0.09623454 1 1 1
v 0.00102693 2.106595 0.2004671 1 1 1
v -0.01713804 2.31848 0.1381066 1 1 1
v 0.00102693 2.106595 -0.2004671 1 1 1
v 0.1422605 2.118703 -0.1417516 1 1 1
v -0.01634476 2.309227 -0.14083 1 1 1
v 0.08501798 2.310545 -0.1011048 1 1 1
v 0.1422605 2.118703 0.1417516 1 1 1
v 0.0830304 2.317206 0.09969349 1 1 1
v 0.3001432 1.923083 -7.219114E-16 1 1 1
v 0.2177476 1.916019 -0.1996502 1 1 1
v 0.2177476 1.916019 0.1996502 1 1 1
v 0.01882705 1.898965 0.282348 1 1 1
v 0.01882705 1.898965 -0.282348 1 1 1
v -0.1800935 1.881912 0.1996502 1 1 1
v -0.1800935 1.881912 -0.1996502 1 1 1
v -0.2624891 1.874848 -7.219114E-16 1 1 1
v 0.2007614 2.123718 -3.609557E-15 1 1 1
v 0.1268307 2.313899 -2.165734E-15 1 1 1
v -0.1402066 2.094487 -0.1417516 1 1 1
v -0.1143747 2.310663 -0.097549 1 1 1
v -0.1987075 2.089472 -3.609557E-15 1 1 1
v -0.1532795 2.313899 -2.165734E-15 1 1 1
v 0.2615198 1.518142 -0.3136458 1 1 1
v 0.2028099 1.74572 -0.2078484 1 1 1
v -0.02613584 1.560532 -0.430025 1 1 1
v -0.00142559 1.775817 -0.2904775 1 1 1
v 0.3806707 1.478026 -0.02679997 1 1 1
v 0.2615198 1.463682 0.2624821 1 1 1
v 0.2874071 1.717237 -0.004187826 1 1 1
v 0.2028099 1.707053 0.2012025 1 1 1
v -0.02613584 1.483514 0.3847429 1 1 1
v -0.00142559 1.721134 0.2880076 1 1 1
v -0.3137915 1.580364 -0.3077641 1 1 1
v -0.2056611 1.789897 -0.2036724 1 1 1
v -0.4329424 1.56602 -0.01848204 1 1 1
v -0.2902583 1.779713 0.001717897 1 1 1
v 0.1752797 1.912378 -0.1459727 1 1 1
v 0.01246394 1.89842 -0.2288858 1 1 1
v 0.1706271 1.911979 0.1666573 1 1 1
v 0.0172764 1.898832 0.2374779 1 1 1
v -0.2056611 1.751231 0.2053784 1 1 1
v -0.1544396 1.884111 0.1808914 1 1 1
v -0.3137915 1.525904 0.2683638 1 1 1
v -0.1678087 1.882965 -0.1674967 1 1 1
v -0.2397987 1.876793 0.01089466 1 1 1
v 0.2336887 1.917386 0.01473175 1 1 1
v 0.2567964 1.33144 0.2567964 1 1 1
v 1.082867E-14 1.33144 0.363165 1 1 1
v 0.2181598 1.472603 0.2181598 1 1 1
v 1.227249E-14 1.488446 0.3023921 1 1 1
v -0.363165 1.33144 -6.497203E-15 1 1 1
v -0.2567964 1.33144 0.2567964 1 1 1
v -0.5115 1.04544 -7.219114E-16 1 1 1
v -0.3616851 1.04544 0.3616851 1 1 1
v 5.05338E-15 1.04544 0.5115 1 1 1
v -0.3616851 1.04544 -0.3616851 1 1 1
v -0.2567964 1.33144 -0.2567964 1 1 1
v 5.05338E-15 1.04544 -0.5115 1 1 1
v 1.082867E-14 1.33144 -0.363165 1 1 1
v 0.3616851 1.04544 -0.3616851 1 1 1
v 0.2567964 1.33144 -0.2567964 1 1 1
v 0.3616851 1.04544 0.3616851 1 1 1
v -0.2051805 1.520025 0.2051805 1 1 1
v 0.5115 1.04544 -7.219114E-16 1 1 1
v 0.363165 1.33144 -6.497203E-15 1 1 1
v 0.3041753 1.48384 -5.05338E-15 1 1 1
v -0.195124 1.556767 -0.195124 1 1 1
v 1.371632E-14 1.543598 -0.2810446 1 1 1
v 0.2068259 1.514013 -0.2068259 1 1 1
v -0.2795217 1.547532 -2.165734E-15 1 1 1

vn 0.9990338 0.04394889 0
vn -0.9613956 0.2751701 0
vn -0.985191 0.1714603 0
vn 0.1409386 0.006200083 0.989999
vn 0.1409386 0.006200083 -0.989999
vn 0 0.9865172 -0.1636575
vn -0.9783715 0.009091079 -0.2066558
vn 0.9613956 0.2751701 0
vn 0.985191 0.1714603 0
vn 0 -1 0
vn -0.9990338 0.04394889 0
vn -0.9873304 0.006973726 0.1585248
vn 0 0.2751701 0.9613956
vn 0 0.1714603 0.985191
vn 0 0.04394889 0.9990338
vn 0 -0.9718298 0.2356839
vn 0.1844479 -0.9828423 0
vn 0.9873304 0.006973726 0.1585248
vn 0.9783715 0.009091079 -0.2066558
vn 0 -0.9683352 -0.2496542
vn 0 0.9887716 0.1494343
vn 0 0.04394889 -0.9990338
vn 0.09742919 0.9952425 0
vn 0 0.2751701 -0.9613956
vn 0 0.1714603 -0.985191
vn 0 0.2999001 -0.9539706
vn 0.6671573 0.3090624 -0.6777769
vn 0.3710195 0.215177 -0.9033512
vn -0.6671573 0.3090624 -0.6777769
vn -0.8957203 0.2325735 -0.3789389
vn -0.9435029 0.3311821 -0.01098645
vn 0 0.3624641 0.9319977
vn -0.6671573 0.3533018 0.6558041
vn -0.3710195 0.2745726 0.8871045
vn -0.3710195 0.215177 -0.9033512
vn 0.8957203 0.2325735 -0.3789389
vn 0.9435029 0.3311821 -0.01098645
vn 0.8957203 0.257176 0.3626922
vn 0.6671573 0.3533018 0.6558041
vn 0.3710195 0.2745726 0.8871045
vn -0.8957203 0.257176 0.3626922
vn 0.9219008 0.3872128 -0.01284518
vn 0.6518824 0.4088261 0.6386788
vn 0 -0.9994503 0.0331552
vn 0 0.4177787 0.9085488
vn 0 0.3566471 -0.9342393
vn -0.6518824 0.3655996 -0.6643691
vn -0.6518824 0.4088261 0.6386788
vn 0.6518824 0.3655996 -0.6643691
vn -0.9219008 0.3872128 -0.01284518
vn -0.6936824 0.2689821 0.6681717
vn -0.7059917 0.2218855 0.6725641
vn -0.02795279 0.3260553 0.9449374
vn -0.04336679 0.2786493 0.9594133
vn -0.02795279 0.3260553 -0.9449374
vn 0.6377769 0.3831284 -0.6681716
vn -0.04333138 0.2786525 -0.9594139
vn 0.6461009 0.3378008 -0.6844299
vn 0.6377769 0.3831284 0.6681716
vn 0.6385053 0.3371084 0.6918589
vn 0.0854169 -0.9963452 0
vn -0.0312372 0.3643662 0.9307318
vn 0.6244842 0.4205813 0.6581267
vn 0.9135311 0.4067689 0
vn 0.9320253 0.3623151 0.007515698
vn -0.6936824 0.2689821 -0.6681717
vn -0.7133883 0.2212101 -0.6649384
vn -0.9694366 0.2453416 0
vn -0.9800944 0.1983886 0.007553337
vn -0.6869587 0.3081511 -0.6581268
vn -0.9585674 0.2848659 0
vn 0.8960929 0.4438664 0
vn -0.6869587 0.3081511 0.6581268
vn -0.0312372 0.3643662 -0.9307318
vn 0.6244842 0.4205813 -0.6581267
vn 0.6737553 0.4472689 -0.5882214
vn 0.6841006 0.4034982 -0.6076147
vn 0.04972418 0.539228 -0.8406907
vn 0.04497019 0.4976823 -0.8661928
vn 0.9322374 0.3602414 0.03405284
vn 0.6737553 0.3291249 0.6616122
vn 0.948837 0.3143649 0.02971623
vn 0.6841006 0.2824955 0.6724602
vn 0.04972418 0.3721471 0.9268409
vn 0.04497019 0.3265586 0.9441065
vn -0.5743069 0.5822501 -0.5754619
vn -0.5941601 0.5417455 -0.5945465
vn -0.832789 0.5511337 0.05209747
vn -0.8588966 0.5098761 0.04819748
vn 0.7256306 0.3416241 -0.5972882
vn 0.08198084 0.4399623 -0.8942663
vn 0.7053901 0.2241362 0.6724492
vn 0.08163232 0.2646424 0.9608853
vn -0.5941601 0.4207428 0.6855285
vn -0.5839704 0.3592494 0.727955
vn -0.5743069 0.4641061 0.6743717
vn -0.6054488 0.4900203 -0.6271458
vn -0.8879359 0.4554401 0.06437476
vn 0.9658942 0.254972 0.04514262
vn -0.1079994 -0.9897389 -0.09355788
vn 0.6428906 0.4163931 0.6428906
vn 0 0.4163931 0.9091846
vn 0.6578095 0.3609734 0.6610483
vn -0.02417072 0.3608688 0.9323033
vn -0.9091846 0.4163931 0
vn -0.6428906 0.4163931 0.6428906
vn -0.8877054 0.4604119 0
vn -0.6277025 0.4604119 0.6277025
vn 0 0.4604119 0.8877054
vn -0.6277025 0.4604119 -0.6277025
vn -0.6428906 0.4163931 -0.6428906
vn 0 0.4604119 -0.8877054
vn 0 0.4163931 -0.9091846
vn 0.6277025 0.4604119 -0.6277025
vn 0.6428906 0.4163931 -0.6428906
vn 0.6277025 0.4604119 0.6277025
vn -0.68155 0.3607924 0.6366463
vn 0.9091846 0.4163931 0
vn 0.8877054 0.4604119 0
vn 0.932371 0.3608951 -0.02095214
vn -0.6610326 0.3609734 -0.6578253
vn -0.02400036 0.3608704 -0.9323072
vn 0.6366273 0.360792 -0.681568
vn -0.9323742 0.3608963 -0.02078578

vt 0.59375 0.05456408
vt 0.59375 0.06309579
vt 0.59375 0.225
vt 0.59375 0.1912381
vt 0.59375 0.06651748
vt 0.59375 0.05275667
vt 0.59375 0.1523738
vt 0.59375 0.1546138
vt 0.59375 0.1642464
vt 0.59375 0.1676635
vt 0.59375 0.025
vt 0.59375 0.1014006
vt 0.59375 0.1046636
vt 0.59375 0.1182193
vt 0.59375 0.113073
vt 0.46875 0.09608198
vt 0.46875 0.09628984
vt 0.46875 0.175
vt 0.46875 0.09679165
vt 0.46875 0.09750132
vt 0.46875 0.09729346
vt 0.46875 0.07599953
vt 0.46875 0.0767063
vt 0.46875 0.07529275
vt 0.46875 0.07699905
vt 0.46875 0.075
vt 0.46875 0.1245092
vt 0.46875 0.1746869
vt 0.46875 0.1272385
vt 0.46875 0.1299678
vt 0.46875 0.1729142
vt 0.46875 0.1732112
vt 0.46875 0.1747127
vt 0.46875 0.08587266
vt 0.46875 0.08428039
vt 0.46875 0.08043633
vt 0.46875 0.07659227
vt 0.46875 0.1310983
vt 0.46875 0.1739673
vt 0.46875 0.1732378
vt 0.46875 0.1233787
vt 0.46875 0.08700347
vt 0.46875 0.1371635
vt 0.46875 0.09634653
vt 0.46875 0.1437971
vt 0.46875 0.07816144
vt 0.46875 0.1308856
vt 0.46875 0.128641
vt 0.46875 0.07937106
vt 0.46875 0.1317445
vt 0.46875 0.1007176
vt 0.46875 0.1469005
vt 0.46875 0.09755615
vt 0.46875 0.1446559
vt 0.46875 0.1738963
vt 0.46875 0.1708198
vt 0.46875 0.1738084
vt 0.46875 0.1709107
vt 0.46875 0.138378
vt 0.46875 0.167666
vt 0.46875 0.08871413
vt 0.46875 0.1674134
vt 0.46875 0.1660531
vt 0.46875 0.1309329
vt 0.46875 0.1585401
vt 0.46875 0.1616385
vt 0.46875 0.1678143
vt 0.46875 0.1607376
vt 0.46875 0.1724244
vt 0.46875 0.1666386
vt 0.46875 0.1731939

usemtl colormap

f 3/1/1 2/2/1 1/1/1
f 2/2/1 3/1/1 4/2/1
f 7/3/2 6/4/3 5/3/2
f 6/4/3 7/3/2 8/4/3
f 4/2/4 10/6/4 9/5/4
f 10/6/4 4/2/4 3/1/4
f 12/6/5 2/2/5 11/5/5
f 2/2/5 12/6/5 1/1/5
f 15/8/6 14/7/6 13/7/6
f 14/7/6 15/8/6 16/8/6
f 18/10/7 16/8/7 17/9/7
f 16/8/7 18/10/7 14/7/7
f 21/4/9 20/3/8 19/3/8
f 20/3/8 21/4/9 22/4/9
f 7/3/10 19/3/10 20/3/10
f 19/3/10 7/3/10 5/3/10
f 8/4/3 23/11/11 6/4/3
f 23/11/11 8/4/3 24/11/11
f 27/14/12 26/13/12 25/12/12
f 26/13/12 27/14/12 28/15/12
f 22/4/14 7/3/13 20/3/13
f 7/3/13 22/4/14 8/4/14
f 30/13/15 28/15/15 29/15/15
f 28/15/15 30/13/15 26/13/15
f 29/15/16 27/14/16 31/14/16
f 27/14/16 29/15/16 28/15/16
f 9/5/17 2/2/17 4/2/17
f 2/2/17 9/5/17 11/5/17
f 30/13/18 31/14/18 32/12/18
f 31/14/18 30/13/18 29/15/18
f 15/8/19 34/10/19 33/9/19
f 34/10/19 15/8/19 13/7/19
f 18/10/20 33/9/20 34/10/20
f 33/9/20 18/10/20 17/9/20
f 25/12/21 30/13/21 32/12/21
f 30/13/21 25/12/21 26/13/21
f 16/8/22 33/9/22 17/9/22
f 33/9/22 16/8/22 15/8/22
f 12/6/23 3/1/23 1/1/23
f 3/1/23 12/6/23 10/6/23
f 6/4/25 19/3/24 5/3/24
f 19/3/24 6/4/25 21/4/25
f 18/10/22 23/11/22 14/7/22
f 14/7/22 23/11/22 13/7/22
f 18/10/22 6/4/25 23/11/22
f 35/11/22 13/7/22 23/11/22
f 6/4/25 18/10/22 21/4/25
f 35/11/22 34/10/22 13/7/22
f 21/4/25 34/10/22 35/11/22
f 34/10/22 21/4/25 18/10/22
f 22/4/14 31/14/15 8/4/14
f 31/14/15 22/4/14 36/11/15
f 27/14/15 8/4/14 31/14/15
f 31/14/15 36/11/15 32/12/15
f 8/4/14 27/14/15 24/11/15
f 32/12/15 36/11/15 25/12/15
f 24/11/15 27/14/15 25/12/15
f 24/11/15 25/12/15 36/11/15
f 12/6/1 36/11/1 10/6/1
f 10/6/1 36/11/1 9/5/1
f 36/11/1 12/6/1 35/11/1
f 22/4/9 9/5/1 36/11/1
f 11/5/1 35/11/1 12/6/1
f 22/4/9 11/5/1 9/5/1
f 11/5/1 21/4/9 35/11/1
f 21/4/9 11/5/1 22/4/9
f 39/18/28 38/17/27 37/16/26
f 41/19/31 39/18/30 40/17/29
f 39/18/34 43/21/33 42/20/32
f 39/18/35 37/16/26 40/17/29
f 44/19/37 38/17/27 39/18/36
f 45/21/39 44/19/37 39/18/38
f 39/18/40 42/20/32 45/21/39
f 43/21/33 39/18/41 41/19/31
f 45/21/39 46/22/42 44/19/37
f 46/22/42 45/21/39 47/23/43
f 47/23/44 48/24/44 46/22/44
f 48/24/44 47/23/44 49/25/44
f 48/24/44 49/25/44 50/26/44
f 50/26/44 49/25/44 51/23/44
f 50/26/44 51/23/44 52/24/44
f 52/24/44 51/23/44 53/22/44
f 45/21/39 49/25/45 47/23/43
f 49/25/45 45/21/39 42/20/32
f 52/24/47 37/16/26 50/26/46
f 37/16/26 52/24/47 40/17/29
f 49/25/45 43/21/33 51/23/48
f 43/21/33 49/25/45 42/20/32
f 38/17/27 46/22/42 48/24/49
f 46/22/42 38/17/27 44/19/37
f 53/22/50 43/21/33 41/19/31
f 43/21/33 53/22/50 51/23/48
f 37/16/26 48/24/49 50/26/46
f 48/24/49 37/16/26 38/17/27
f 53/22/50 40/17/29 52/24/47
f 40/17/29 53/22/50 41/19/31
f 56/29/53 55/28/52 54/27/51
f 55/28/52 56/29/53 57/18/54
f 60/31/57 59/30/56 58/29/55
f 59/30/56 60/31/57 61/32/58
f 62/30/59 57/18/54 56/29/53
f 57/18/54 62/30/59 63/33/60
f 66/35/61 65/35/61 64/34/61
f 65/35/61 66/35/61 67/36/61
f 65/35/61 67/36/61 68/36/61
f 68/36/61 67/36/61 69/37/61
f 68/36/61 69/37/61 70/37/61
f 70/37/61 69/37/61 71/26/61
f 66/35/63 56/29/53 67/36/62
f 56/29/53 66/35/63 62/30/59
f 73/39/65 62/30/59 72/38/64
f 62/30/59 73/39/65 63/33/60
f 76/41/68 75/40/67 74/27/66
f 75/40/67 76/41/68 77/39/69
f 71/26/71 74/27/66 70/37/70
f 74/27/66 71/26/71 76/41/68
f 62/30/59 64/34/72 72/38/64
f 64/34/72 62/30/59 66/35/63
f 54/27/51 77/39/69 76/41/68
f 77/39/69 54/27/51 55/28/52
f 67/36/62 54/27/51 69/37/73
f 54/27/51 67/36/62 56/29/53
f 74/27/66 68/36/74 70/37/70
f 68/36/74 74/27/66 58/29/55
f 58/29/55 65/35/75 68/36/74
f 65/35/75 58/29/55 59/30/56
f 59/30/56 64/34/72 65/35/75
f 64/34/72 59/30/56 72/38/64
f 61/32/58 72/38/64 59/30/56
f 72/38/64 61/32/58 73/39/65
f 71/26/71 54/27/51 76/41/68
f 54/27/51 71/26/71 69/37/73
f 75/40/67 58/29/55 74/27/66
f 58/29/55 75/40/67 60/31/57
f 80/44/78 79/43/77 78/42/76
f 79/43/77 80/44/78 81/45/79
f 84/47/82 83/26/81 82/46/80
f 83/26/81 84/47/82 85/48/83
f 85/48/83 86/49/84 83/26/81
f 86/49/84 85/48/83 87/50/85
f 90/53/88 89/52/87 88/51/86
f 89/52/87 90/53/88 91/54/89
f 81/45/79 92/55/90 79/43/77
f 92/55/90 81/45/79 93/56/91
f 94/57/92 87/50/85 85/48/83
f 87/50/85 94/57/92 95/58/93
f 95/58/93 96/59/94 87/50/85
f 96/59/94 95/58/93 97/60/95
f 88/51/86 81/45/79 80/44/78
f 81/45/79 88/51/86 89/52/87
f 79/43/77 82/46/80 78/42/76
f 82/46/80 79/43/77 84/47/82
f 87/50/85 98/61/96 86/49/84
f 98/61/96 87/50/85 96/59/94
f 89/52/87 93/56/91 81/45/79
f 93/56/91 89/52/87 99/62/97
f 91/54/89 99/62/97 89/52/87
f 99/62/97 91/54/89 100/63/98
f 101/18/99 85/48/83 84/47/82
f 85/48/83 101/18/99 94/57/92
f 83/26/100 78/42/100 82/46/100
f 78/42/100 83/26/100 86/49/100
f 78/42/100 86/49/100 80/44/100
f 80/44/100 86/49/100 98/61/100
f 80/44/100 98/61/100 88/51/100
f 88/51/100 98/61/100 90/53/100
f 96/59/94 100/63/98 91/54/89
f 100/63/98 96/59/94 97/60/95
f 98/61/96 91/54/89 90/53/88
f 91/54/89 98/61/96 96/59/94
f 92/55/90 84/47/82 79/43/77
f 84/47/82 92/55/90 101/18/99
f 104/65/103 103/64/102 102/64/101
f 103/64/102 104/65/103 105/66/104
f 108/26/107 107/64/106 106/64/105
f 107/64/106 108/26/107 109/26/108
f 103/64/102 109/26/108 110/26/109
f 109/26/108 103/64/102 107/64/106
f 108/26/107 112/64/111 111/26/110
f 112/64/111 108/26/107 106/64/105
f 112/64/111 113/26/112 111/26/110
f 113/26/112 112/64/111 114/64/113
f 114/64/113 115/26/114 113/26/112
f 115/26/114 114/64/113 116/64/115
f 102/64/101 110/26/109 117/26/116
f 110/26/109 102/64/101 103/64/102
f 105/66/104 107/64/106 103/64/102
f 107/64/106 105/66/104 118/67/117
f 117/26/10 115/26/10 119/26/10
f 115/26/10 117/26/10 110/26/10
f 115/26/10 110/26/10 113/26/10
f 113/26/10 110/26/10 109/26/10
f 113/26/10 109/26/10 111/26/10
f 111/26/10 109/26/10 108/26/10
f 102/64/101 119/26/119 120/64/118
f 119/26/119 102/64/101 117/26/116
f 121/68/120 102/64/101 120/64/118
f 102/64/101 121/68/120 104/65/103
f 122/18/121 114/64/113 112/64/111
f 114/64/113 122/18/121 123/69/122
f 123/69/122 116/64/115 114/64/113
f 116/64/115 123/69/122 124/70/123
f 124/70/123 120/64/118 116/64/115
f 120/64/118 124/70/123 121/68/120
f 116/64/115 119/26/119 115/26/114
f 119/26/119 116/64/115 120/64/118
f 106/64/105 122/18/121 112/64/111
f 122/18/121 106/64/105 125/71/124
f 107/64/106 125/71/124 106/64/105
f 125/71/124 107/64/106 118/67/117

g tree-high-crooked




usemtl colormap

f 3/1/1 2/2/1 1/1/1
f 2/2/1 3/1/1 4/2/1
f 7/3/2 6/4/3 5/3/2
f 6/4/3 7/3/2 8/4/3
f 4/2/4 10/6/4 9/5/4
f 10/6/4 4/2/4 3/1/4
f 12/6/5 2/2/5 11/5/5
f 2/2/5 12/6/5 1/1/5
f 15/8/6 14/7/6 13/7/6
f 14/7/6 15/8/6 16/8/6
f 18/10/7 16/8/7 17/9/7
f 16/8/7 18/10/7 14/7/7
f 21/4/9 20/3/8 19/3/8
f 20/3/8 21/4/9 22/4/9
f 7/3/10 19/3/10 20/3/10
f 19/3/10 7/3/10 5/3/10
f 8/4/3 23/11/11 6/4/3
f 23/11/11 8/4/3 24/11/11
f 27/14/12 26/13/12 25/12/12
f 26/13/12 27/14/12 28/15/12
f 22/4/14 7/3/13 20/3/13
f 7/3/13 22/4/14 8/4/14
f 30/13/15 28/15/15 29/15/15
f 28/15/15 30/13/15 26/13/15
f 29/15/16 27/14/16 31/14/16
f 27/14/16 29/15/16 28/15/16
f 9/5/17 2/2/17 4/2/17
f 2/2/17 9/5/17 11/5/17
f 30/13/18 31/14/18 32/12/18
f 31/14/18 30/13/18 29/15/18
f 15/8/19 34/10/19 33/9/19
f 34/10/19 15/8/19 13/7/19
f 18/10/20 33/9/20 34/10/20
f 33/9/20 18/10/20 17/9/20
f 25/12/21 30/13/21 32/12/21
f 30/13/21 25/12/21 26/13/21
f 16/8/22 33/9/22 17/9/22
f 33/9/22 16/8/22 15/8/22
f 12/6/23 3/1/23 1/1/23
f 3/1/23 12/6/23 10/6/23
f 6/4/25 19/3/24 5/3/24
f 19/3/24 6/4/25 21/4/25
f 18/10/22 23/11/22 14/7/22
f 14/7/22 23/11/22 13/7/22
f 18/10/22 6/4/25 23/11/22
f 35/11/22 13/7/22 23/11/22
f 6/4/25 18/10/22 21/4/25
f 35/11/22 34/10/22 13/7/22
f 21/4/25 34/10/22 35/11/22
f 34/10/22 21/4/25 18/10/22
f 22/4/14 31/14/15 8/4/14
f 31/14/15 22/4/14 36/11/15
f 27/14/15 8/4/14 31/14/15
f 31/14/15 36/11/15 32/12/15
f 8/4/14 27/14/15 24/11/15
f 32/12/15 36/11/15 25/12/15
f 24/11/15 27/14/15 25/12/15
f 24/11/15 25/12/15 36/11/15
f 12/6/1 36/11/1 10/6/1
f 10/6/1 36/11/1 9/5/1
f 36/11/1 12/6/1 35/11/1
f 22/4/9 9/5/1 36/11/1
f 11/5/1 35/11/1 12/6/1
f 22/4/9 11/5/1 9/5/1
f 11/5/1 21/4/9 35/11/1
f 21/4/9 11/5/1 22/4/9
f 39/18/28 38/17/27 37/16/26
f 41/19/31 39/18/30 40/17/29
f 39/18/34 43/21/33 42/20/32
f 39/18/35 37/16/26 40/17/29
f 44/19/37 38/17/27 39/18/36
f 45/21/39 44/19/37 39/18/38
f 39/18/40 42/20/32 45/21/39
f 43/21/33 39/18/41 41/19/31
f 45/21/39 46/22/42 44/19/37
f 46/22/42 45/21/39 47/23/43
f 47/23/44 48/24/44 46/22/44
f 48/24/44 47/23/44 49/25/44
f 48/24/44 49/25/44 50/26/44
f 50/26/44 49/25/44 51/23/44
f 50/26/44 51/23/44 52/24/44
f 52/24/44 51/23/44 53/22/44
f 45/21/39 49/25/45 47/23/43
f 49/25/45 45/21/39 42/20/32
f 52/24/47 37/16/26 50/26/46
f 37/16/26 52/24/47 40/17/29
f 49/25/45 43/21/33 51/23/48
f 43/21/33 49/25/45 42/20/32
f 38/17/27 46/22/42 48/24/49
f 46/22/42 38/17/27 44/19/37
f 53/22/50 43/21/33 41/19/31
f 43/21/33 53/22/50 51/23/48
f 37/16/26 48/24/49 50/26/46
f 48/24/49 37/16/26 38/17/27
f 53/22/50 40/17/29 52/24/47
f 40/17/29 53/22/50 41/19/31
f 56/29/53 55/28/52 54/27/51
f 55/28/52 56/29/53 57/18/54
f 60/31/57 59/30/56 58/29/55
f 59/30/56 60/31/57 61/32/58
f 62/30/59 57/18/54 56/29/53
f 57/18/54 62/30/59 63/33/60
f 66/35/61 65/35/61 64/34/61
f 65/35/61 66/35/61 67/36/61
f 65/35/61 67/36/61 68/36/61
f 68/36/61 67/36/61 69/37/61
f 68/36/61 69/37/61 70/37/61
f 70/37/61 69/37/61 71/26/61
f 66/35/63 56/29/53 67/36/62
f 56/29/53 66/35/63 62/30/59
f 73/39/65 62/30/59 72/38/64
f 62/30/59 73/39/65 63/33/60
f 76/41/68 75/40/67 74/27/66
f 75/40/67 76/41/68 77/39/69
f 71/26/71 74/27/66 70/37/70
f 74/27/66 71/26/71 76/41/68
f 62/30/59 64/34/72 72/38/64
f 64/34/72 62/30/59 66/35/63
f 54/27/51 77/39/69 76/41/68
f 77/39/69 54/27/51 55/28/52
f 67/36/62 54/27/51 69/37/73
f 54/27/51 67/36/62 56/29/53
f 74/27/66 68/36/74 70/37/70
f 68/36/74 74/27/66 58/29/55
f 58/29/55 65/35/75 68/36/74
f 65/35/75 58/29/55 59/30/56
f 59/30/56 64/34/72 65/35/75
f 64/34/72 59/30/56 72/38/64
f 61/32/58 72/38/64 59/30/56
f 72/38/64 61/32/58 73/39/65
f 71/26/71 54/27/51 76/41/68
f 54/27/51 71/26/71 69/37/73
f 75/40/67 58/29/55 74/27/66
f 58/29/55 75/40/67 60/31/57
f 80/44/78 79/43/77 78/42/76
f 79/43/77 80/44/78 81/45/79
f 84/47/82 83/26/81 82/46/80
f 83/26/81 84/47/82 85/48/83
f 85/48/83 86/49/84 83/26/81
f 86/49/84 85/48/83 87/50/85
f 90/53/88 89/52/87 88/51/86
f 89/52/87 90/53/88 91/54/89
f 81/45/79 92/55/90 79/43/77
f 92/55/90 81/45/79 93/56/91
f 94/57/92 87/50/85 85/48/83
f 87/50/85 94/57/92 95/58/93
f 95/58/93 96/59/94 87/50/85
f 96/59/94 95/58/93 97/60/95
f 88/51/86 81/45/79 80/44/78
f 81/45/79 88/51/86 89/52/87
f 79/43/77 82/46/80 78/42/76
f 82/46/80 79/43/77 84/47/82
f 87/50/85 98/61/96 86/49/84
f 98/61/96 87/50/85 96/59/94
f 89/52/87 93/56/91 81/45/79
f 93/56/91 89/52/87 99/62/97
f 91/54/89 99/62/97 89/52/87
f 99/62/97 91/54/89 100/63/98
f 101/18/99 85/48/83 84/47/82
f 85/48/83 101/18/99 94/57/92
f 83/26/100 78/42/100 82/46/100
f 78/42/100 83/26/100 86/49/100
f 78/42/100 86/49/100 80/44/100
f 80/44/100 86/49/100 98/61/100
f 80/44/100 98/61/100 88/51/100
f 88/51/100 98/61/100 90/53/100
f 96/59/94 100/63/98 91/54/89
f 100/63/98 96/59/94 97/60/95
f 98/61/96 91/54/89 90/53/88
f 91/54/89 98/61/96 96/59/94
f 92/55/90 84/47/82 79/43/77
f 84/47/82 92/55/90 101/18/99
f 104/65/103 103/64/102 102/64/101
f 103/64/102 104/65/103 105/66/104
f 108/26/107 107/64/106 106/64/105
f 107/64/106 108/26/107 109/26/108
f 103/64/102 109/26/108 110/26/109
f 109/26/108 103/64/102 107/64/106
f 108/26/107 112/64/111 111/26/110
f 112/64/111 108/26/107 106/64/105
f 112/64/111 113/26/112 111/26/110
f 113/26/112 112/64/111 114/64/113
f 114/64/113 115/26/114 113/26/112
f 115/26/114 114/64/113 116/64/115
f 102/64/101 110/26/109 117/26/116
f 110/26/109 102/64/101 103/64/102
f 105/66/104 107/64/106 103/64/102
f 107/64/106 105/66/104 118/67/117
f 117/26/10 115/26/10 119/26/10
f 115/26/10 117/26/10 110/26/10
f 115/26/10 110/26/10 113/26/10
f 113/26/10 110/26/10 109/26/10
f 113/26/10 109/26/10 111/26/10
f 111/26/10 109/26/10 108/26/10
f 102/64/101 119/26/119 120/64/118
f 119/26/119 102/64/101 117/26/116
f 121/68/120 102/64/101 120/64/118
f 102/64/101 121/68/120 104/65/103
f 122/18/121 114/64/113 112/64/111
f 114/64/113 122/18/121 123/69/122
f 123/69/122 116/64/115 114/64/113
f 116/64/115 123/69/122 124/70/123
f 124/70/123 120/64/118 116/64/115
f 120/64/118 124/70/123 121/68/120
f 116/64/115 119/26/119 115/26/114
f 119/26/119 116/64/115 120/64/118
f 106/64/105 122/18/121 112/64/111
f 122/18/121 106/64/105 125/71/124
f 107/64/106 125/71/124 106/64/105
f 125/71/124 107/64/106 118/67/117

