# Created by Kenney (www.kenney.nl)

mtllib wall-window-shutters.mtl

g wall-window-shutters

v 0.390625 0.3125 -0.216238 1 1 1
v 0.390625 0.375 -0.216238 1 1 1
v 0.4 0.3125 -0.2 1 1 1
v 0.4 0.375 -0.2 1 1 1
v 0.390625 0.625 -0.216238 1 1 1
v 0.390625 0.6875 -0.216238 1 1 1
v 0.4 0.625 -0.2 1 1 1
v 0.4 0.6875 -0.2 1 1 1
v 0.4 0.3125 0.2 1 1 1
v 0.4 0.375 0.2 1 1 1
v 0.390625 0.3125 0.216238 1 1 1
v 0.390625 0.375 0.216238 1 1 1
v 0.4 0.625 0.2 1 1 1
v 0.4 0.6875 0.2 1 1 1
v 0.390625 0.625 0.216238 1 1 1
v 0.390625 0.6875 0.216238 1 1 1
v 0.475 0 0.4 1 1 1
v 0.475 0 -0.4 1 1 1
v 0.425 0 0.4 1 1 1
v 0.425 0 -0.4 1 1 1
v 0.475 1 -0.4 1 1 1
v 0.475 1 0.4 1 1 1
v 0.425 1 -0.4 1 1 1
v 0.425 1 0.4 1 1 1
v 0.475 0.8 0.25 1 1 1
v 0.475 0.8 -0.25 1 1 1
v 0.475 0.2 0.25 1 1 1
v 0.475 0.2 -0.25 1 1 1
v 0.425 0.2 0.25 1 1 1
v 0.425 0.2 -0.25 1 1 1
v 0.425 0.8 0.25 1 1 1
v 0.425 0.8 -0.25 1 1 1
v 0.4 0.25 -0.2 1 1 1
v 0.4216506 0.25 -0.2125 1 1 1
v 0.4 0.3125 -0.2 1 1 1
v 0.4216506 0.75 -0.2125 1 1 1
v 0.4 0.375 -0.2 1 1 1
v 0.4 0.625 -0.2 1 1 1
v 0.4 0.6875 -0.2 1 1 1
v 0.4 0.75 -0.2 1 1 1
v 0.3591506 0.25 -0.3207532 1 1 1
v 0.3375 0.25 -0.3082532 1 1 1
v 0.3591506 0.75 -0.3207532 1 1 1
v 0.3375 0.75 -0.3082532 1 1 1
v 0.3466506 0.275 -0.3424038 1 1 1
v 0.325 0.275 -0.3299038 1 1 1
v 0.3466506 0.725 -0.3424038 1 1 1
v 0.325 0.725 -0.3299038 1 1 1
v 0.390625 0.3125 -0.216238 1 1 1
v 0.390625 0.375 -0.216238 1 1 1
v 0.390625 0.625 -0.216238 1 1 1
v 0.390625 0.6875 -0.216238 1 1 1
v 0.3466506 0.725 0.3424038 1 1 1
v 0.3466506 0.275 0.3424038 1 1 1
v 0.325 0.725 0.3299038 1 1 1
v 0.325 0.275 0.3299038 1 1 1
v 0.4216506 0.25 0.2125 1 1 1
v 0.4216506 0.75 0.2125 1 1 1
v 0.4 0.25 0.2 1 1 1
v 0.4 0.75 0.2 1 1 1
v 0.4 0.3125 0.2 1 1 1
v 0.4 0.375 0.2 1 1 1
v 0.4 0.625 0.2 1 1 1
v 0.4 0.6875 0.2 1 1 1
v 0.3591506 0.25 0.3207532 1 1 1
v 0.3591506 0.75 0.3207532 1 1 1
v 0.3375 0.25 0.3082532 1 1 1
v 0.390625 0.3125 0.216238 1 1 1
v 0.390625 0.375 0.216238 1 1 1
v 0.390625 0.625 0.216238 1 1 1
v 0.390625 0.6875 0.216238 1 1 1
v 0.3375 0.75 0.3082532 1 1 1
v 0.45625 0.43 0.07 1 1 1
v 0.44375 0.43 0.07 1 1 1
v 0.45625 0.43 0.15 1 1 1
v 0.44375 0.43 0.15 1 1 1
v 0.45625 0.57 0.07 1 1 1
v 0.45625 0.545 0.07 1 1 1
v 0.45625 0.57 0.15 1 1 1
v 0.45625 0.545 0.15 1 1 1
v 0.45625 0.455 -0.045 1 1 1
v 0.45625 0.455 0.045 1 1 1
v 0.44375 0.455 -0.045 1 1 1
v 0.44375 0.455 0.045 1 1 1
v 0.44375 0.545 0.07 1 1 1
v 0.44375 0.545 0.15 1 1 1
v 0.45625 0.545 0.045 1 1 1
v 0.45625 0.545 -0.045 1 1 1
v 0.44375 0.545 0.045 1 1 1
v 0.44375 0.545 -0.045 1 1 1
v 0.45625 0.43 -0.045 1 1 1
v 0.45625 0.43 0.045 1 1 1
v 0.45625 0.455 0.07 1 1 1
v 0.45625 0.455 0.15 1 1 1
v 0.44375 0.455 0.07 1 1 1
v 0.44375 0.455 0.15 1 1 1
v 0.45625 0.545 -0.15 1 1 1
v 0.44375 0.545 -0.15 1 1 1
v 0.45625 0.545 -0.07 1 1 1
v 0.44375 0.545 -0.07 1 1 1
v 0.4375 0.3 0.045 1 1 1
v 0.4375 0.7 0.045 1 1 1
v 0.4375 0.3 0.07 1 1 1
v 0.4375 0.7 0.07 1 1 1
v 0.4625 0.7 0.045 1 1 1
v 0.4625 0.3 0.045 1 1 1
v 0.4625 0.7 0.07 1 1 1
v 0.4625 0.3 0.07 1 1 1
v 0.4625 0.7 -0.07 1 1 1
v 0.4625 0.3 -0.07 1 1 1
v 0.4625 0.7 -0.045 1 1 1
v 0.4625 0.3 -0.045 1 1 1
v 0.4375 0.3 -0.07 1 1 1
v 0.4375 0.7 -0.07 1 1 1
v 0.4375 0.3 -0.045 1 1 1
v 0.4375 0.7 -0.045 1 1 1
v 0.45625 0.57 -0.045 1 1 1
v 0.45625 0.57 0.045 1 1 1
v 0.45625 0.43 -0.15 1 1 1
v 0.44375 0.43 -0.15 1 1 1
v 0.45625 0.43 -0.07 1 1 1
v 0.44375 0.43 -0.07 1 1 1
v 0.45625 0.455 -0.15 1 1 1
v 0.45625 0.455 -0.07 1 1 1
v 0.44375 0.43 0.045 1 1 1
v 0.44375 0.43 -0.045 1 1 1
v 0.44375 0.57 0.07 1 1 1
v 0.44375 0.57 0.15 1 1 1
v 0.44375 0.455 -0.15 1 1 1
v 0.44375 0.455 -0.07 1 1 1
v 0.44375 0.57 -0.045 1 1 1
v 0.44375 0.57 0.045 1 1 1
v 0.44375 0.57 -0.15 1 1 1
v 0.44375 0.57 -0.07 1 1 1
v 0.45625 0.57 -0.15 1 1 1
v 0.45625 0.57 -0.07 1 1 1
v 0.5 1 -0.5 1 1 1
v 0.5 1 -0.4 1 1 1
v 0.4 1 -0.5 1 1 1
v 0.4 1 -0.4 1 1 1
v 0.5 0 -0.4 1 1 1
v 0.5 0 -0.5 1 1 1
v 0.4 0 -0.4 1 1 1
v 0.4 0 -0.5 1 1 1
v 0.5 1 0.4 1 1 1
v 0.5 1 0.5 1 1 1
v 0.4 1 0.4 1 1 1
v 0.4 1 0.5 1 1 1
v 0.5 0 0.5 1 1 1
v 0.5 0 0.4 1 1 1
v 0.4 0 0.5 1 1 1
v 0.4 0 0.4 1 1 1
v 0.5 0.3 -0.15 1 1 1
v 0.5 0.3 0.15 1 1 1
v 0.4 0.3 -0.15 1 1 1
v 0.4 0.3 0.15 1 1 1
v 0.425 0.25 0.25 1 1 1
v 0.425 0.75 0.2 1 1 1
v 0.425 0.25 0.2 1 1 1
v 0.425 0.75 -0.2 1 1 1
v 0.425 0.25 -0.2 1 1 1
v 0.4 0.75 -0.2 1 1 1
v 0.4 0.75 0.2 1 1 1
v 0.475 0.25 0.25 1 1 1
v 0.475 0.25 0.2 1 1 1
v 0.475 0.75 0.2 1 1 1
v 0.475 0.25 -0.2 1 1 1
v 0.475 0.75 -0.2 1 1 1
v 0.4 0.25 0.2 1 1 1
v 0.4 0.25 -0.2 1 1 1
v 0.5 0.75 -0.2 1 1 1
v 0.5 0.75 0.2 1 1 1
v 0.4 0.7 0.15 1 1 1
v 0.5 0.7 0.15 1 1 1
v 0.5 0.7 -0.15 1 1 1
v 0.4 0.7 -0.15 1 1 1
v 0.5 0.25 0.2 1 1 1
v 0.5 0.25 -0.2 1 1 1

vn -0.8660254 0 0.5
vn -0.8660254 0 -0.5
vn 0 -1 0
vn 0 1 0
vn 1 0 0
vn -1 0 0
vn 0.5 0 0.8660254
vn -0.1913417 -0.9238795 -0.3314135
vn -0.1913417 0.9238795 -0.3314135
vn -0.4619398 -0.3826835 -0.8001032
vn -0.4619398 0.3826835 -0.8001032
vn 0.8660254 0 -0.5
vn -0.4619398 0.3826834 0.8001032
vn -0.4619398 -0.3826834 0.8001032
vn 0.5000001 0 -0.8660254
vn 0.8660254 0 0.5000001
vn -0.8660254 0 -0.5000001
vn -0.1913417 0.9238795 0.3314136
vn -0.1913417 -0.9238795 0.3314136
vn 0 0 1
vn 0 0 -1

vt 0.21875 0.275
vt 0.21875 0.3083333
vt 0.21875 0.4416667
vt 0.21875 0.475
vt 0.21875 0.325
vt 0.21875 0.425
vt 0.21875 0.405
vt 0.21875 0.345
vt 0.59375 0.025
vt 0.59375 0.035
vt 0.59375 0.105
vt 0.59375 0.045
vt 0.59375 0.085
vt 0.59375 0.095
vt 0.59375 0.029
vt 0.59375 0.101
vt 0.59375 0.16
vt 0.59375 0.09000001
vt 0.59375 0.1025
vt 0.59375 0.1475
vt 0.59375 0.225
vt 0.59375 0.175
vt 0.59375 0.075
vt 0.59375 0.09166666
vt 0.59375 0.08333333
vt 0.59375 0.1666667
vt 0.59375 0.1583333

usemtl colormap

f 3/1/1 2/2/1 1/1/1
f 2/2/1 3/1/1 4/2/1
f 7/3/1 6/4/1 5/3/1
f 6/4/1 7/3/1 8/4/1
f 11/1/2 10/2/2 9/1/2
f 10/2/2 11/1/2 12/2/2
f 15/3/2 14/4/2 13/3/2
f 14/4/2 15/3/2 16/4/2
f 19/5/3 18/5/3 17/5/3
f 18/5/3 19/5/3 20/5/3
f 23/6/4 22/6/4 21/6/4
f 22/6/4 23/6/4 24/6/4
f 26/7/5 22/6/5 25/7/5
f 25/7/5 22/6/5 27/8/5
f 26/7/5 21/6/5 22/6/5
f 17/5/5 27/8/5 22/6/5
f 21/6/5 26/7/5 18/5/5
f 17/5/5 28/8/5 27/8/5
f 18/5/5 28/8/5 17/5/5
f 28/8/5 18/5/5 26/7/5
f 30/8/6 19/5/6 29/8/6
f 29/8/6 19/5/6 31/7/6
f 30/8/6 20/5/6 19/5/6
f 24/6/6 31/7/6 19/5/6
f 20/5/6 30/8/6 23/6/6
f 24/6/6 32/7/6 31/7/6
f 23/6/6 32/7/6 24/6/6
f 32/7/6 23/6/6 30/8/6
f 45/15/12 47/16/12 41/9/12
f 47/16/12 43/11/12 41/9/12
f 41/9/12 43/11/12 34/9/12
f 36/11/12 34/9/12 43/11/12
f 39/14/1 40/11/1 52/14/1
f 44/11/1 52/14/1 40/11/1
f 48/16/1 46/15/1 44/11/1
f 46/15/1 42/9/1 44/11/1
f 42/9/1 52/14/1 44/11/1
f 52/14/1 42/9/1 51/13/1
f 37/12/1 38/13/1 50/12/1
f 51/13/1 50/12/1 38/13/1
f 51/13/1 42/9/1 50/12/1
f 50/12/1 42/9/1 49/10/1
f 49/10/1 42/9/1 35/10/1
f 33/9/1 35/10/1 42/9/1
f 48/16/11 44/11/9 47/16/11
f 43/11/9 47/16/11 44/11/9
f 46/15/10 45/15/10 42/9/8
f 41/9/8 42/9/8 45/15/10
f 48/16/11 47/16/11 46/15/10
f 45/15/10 46/15/10 47/16/11
f 44/11/9 40/11/4 43/11/9
f 36/11/4 43/11/9 40/11/4
f 42/9/8 41/9/8 33/9/3
f 34/9/3 33/9/3 41/9/8
f 40/11/7 39/14/7 36/11/7
f 39/14/7 38/13/7 36/11/7
f 38/13/7 37/12/7 36/11/7
f 37/12/7 35/10/7 36/11/7
f 36/11/7 35/10/7 34/9/7
f 33/9/7 34/9/7 35/10/7
f 55/16/13 54/15/14 53/16/13
f 54/15/14 55/16/13 56/15/14
f 59/9/15 58/11/15 57/9/15
f 58/11/15 59/9/15 60/11/15
f 60/11/15 59/9/15 61/10/15
f 60/11/15 61/10/15 62/12/15
f 60/11/15 62/12/15 63/13/15
f 60/11/15 63/13/15 64/14/15
f 58/11/16 65/9/16 57/9/16
f 65/9/16 58/11/16 54/15/16
f 54/15/16 58/11/16 53/16/16
f 53/16/16 58/11/16 66/11/16
f 56/15/17 59/9/17 67/9/17
f 59/9/17 56/15/17 61/10/17
f 61/10/17 56/15/17 68/10/17
f 55/16/17 68/10/17 56/15/17
f 68/10/17 55/16/17 69/12/17
f 69/12/17 55/16/17 62/12/17
f 62/12/17 55/16/17 70/13/17
f 63/13/17 62/12/17 70/13/17
f 70/13/17 55/16/17 71/14/17
f 71/14/17 55/16/17 64/14/17
f 64/14/17 55/16/17 60/11/17
f 60/11/17 55/16/17 72/11/17
f 58/11/4 72/11/18 66/11/18
f 72/11/18 58/11/4 60/11/4
f 67/9/19 57/9/3 65/9/19
f 57/9/3 67/9/19 59/9/3
f 56/15/14 65/9/19 54/15/14
f 65/9/19 56/15/14 67/9/19
f 53/16/13 72/11/18 55/16/13
f 72/11/18 53/16/13 66/11/18
f 75/17/3 74/17/3 73/17/3
f 74/17/3 75/17/3 76/17/3
f 79/18/5 78/19/5 77/18/5
f 78/19/5 79/18/5 80/19/5
f 83/20/4 82/20/4 81/20/4
f 82/20/4 83/20/4 84/20/4
f 80/19/3 85/19/3 78/19/3
f 85/19/3 80/19/3 86/19/3
f 89/19/3 88/19/3 87/19/3
f 88/19/3 89/19/3 90/19/3
f 82/20/5 91/17/5 81/20/5
f 91/17/5 82/20/5 92/17/5
f 95/20/4 94/20/4 93/20/4
f 94/20/4 95/20/4 96/20/4
f 99/19/3 98/19/3 97/19/3
f 98/19/3 99/19/3 100/19/3
f 103/21/6 102/9/6 101/21/6
f 102/9/6 103/21/6 104/9/6
f 107/9/5 106/21/5 105/9/5
f 106/21/5 107/9/5 108/21/5
f 111/9/5 110/21/5 109/9/5
f 110/21/5 111/9/5 112/21/5
f 115/21/6 114/9/6 113/21/6
f 114/9/6 115/21/6 116/9/6
f 118/18/5 88/19/5 117/18/5
f 88/19/5 118/18/5 87/19/5
f 121/17/3 120/17/3 119/17/3
f 120/17/3 121/17/3 122/17/3
f 123/20/5 121/17/5 119/17/5
f 121/17/5 123/20/5 124/20/5
f 125/17/3 91/17/3 92/17/3
f 91/17/3 125/17/3 126/17/3
f 125/17/6 83/20/6 126/17/6
f 83/20/6 125/17/6 84/20/6
f 94/20/5 73/17/5 93/20/5
f 73/17/5 94/20/5 75/17/5
f 86/19/6 127/18/6 85/19/6
f 127/18/6 86/19/6 128/18/6
f 127/18/4 79/18/4 77/18/4
f 79/18/4 127/18/4 128/18/4
f 76/17/6 95/20/6 74/17/6
f 95/20/6 76/17/6 96/20/6
f 122/17/6 129/20/6 120/17/6
f 129/20/6 122/17/6 130/20/6
f 131/18/4 118/18/4 117/18/4
f 118/18/4 131/18/4 132/18/4
f 100/19/6 133/18/6 98/19/6
f 133/18/6 100/19/6 134/18/6
f 89/19/6 131/18/6 90/19/6
f 131/18/6 89/19/6 132/18/6
f 129/20/4 124/20/4 123/20/4
f 124/20/4 129/20/4 130/20/4
f 135/18/5 99/19/5 97/19/5
f 99/19/5 135/18/5 136/18/5
f 133/18/4 136/18/4 135/18/4
f 136/18/4 133/18/4 134/18/4
f 103/21/20 74/17/20 104/9/20
f 74/17/20 103/21/20 108/21/20
f 108/21/20 73/17/20 74/17/20
f 73/17/20 108/21/20 107/9/20
f 73/17/20 107/9/20 93/20/20
f 104/9/20 74/17/20 95/20/20
f 93/20/20 78/19/20 95/20/20
f 93/20/20 107/9/20 78/19/20
f 85/19/20 95/20/20 78/19/20
f 104/9/20 95/20/20 85/19/20
f 78/19/20 107/9/20 77/18/20
f 104/9/20 85/19/20 127/18/20
f 77/18/20 107/9/20 127/18/20
f 104/9/20 127/18/20 107/9/20
f 101/21/21 125/17/21 106/21/21
f 125/17/21 101/21/21 102/9/21
f 92/17/21 106/21/21 125/17/21
f 106/21/21 92/17/21 105/9/21
f 125/17/21 102/9/21 84/20/21
f 105/9/21 92/17/21 82/20/21
f 84/20/21 89/19/21 82/20/21
f 84/20/21 102/9/21 89/19/21
f 87/19/21 82/20/21 89/19/21
f 105/9/21 82/20/21 87/19/21
f 89/19/21 102/9/21 132/18/21
f 105/9/21 87/19/21 118/18/21
f 132/18/21 102/9/21 118/18/21
f 105/9/21 118/18/21 102/9/21
f 115/21/20 126/17/20 116/9/20
f 126/17/20 115/21/20 112/21/20
f 126/17/20 112/21/20 91/17/20
f 111/9/20 91/17/20 112/21/20
f 91/17/20 111/9/20 81/20/20
f 116/9/20 126/17/20 83/20/20
f 81/20/20 88/19/20 83/20/20
f 81/20/20 111/9/20 88/19/20
f 83/20/20 88/19/20 90/19/20
f 116/9/20 83/20/20 90/19/20
f 88/19/20 111/9/20 117/18/20
f 116/9/20 90/19/20 131/18/20
f 117/18/20 111/9/20 131/18/20
f 116/9/20 131/18/20 111/9/20
f 100/19/21 114/9/21 134/18/21
f 134/18/21 114/9/21 136/18/21
f 109/9/21 136/18/21 114/9/21
f 109/9/21 99/19/21 136/18/21
f 99/19/21 124/20/21 100/19/21
f 109/9/21 124/20/21 99/19/21
f 130/20/21 100/19/21 124/20/21
f 130/20/21 114/9/21 100/19/21
f 109/9/21 121/17/21 124/20/21
f 110/21/21 121/17/21 109/9/21
f 122/17/21 114/9/21 130/20/21
f 121/17/21 110/21/21 122/17/21
f 122/17/21 113/21/21 114/9/21
f 113/21/21 122/17/21 110/21/21
f 139/22/4 138/22/4 137/22/4
f 138/22/4 139/22/4 140/22/4
f 143/23/3 142/23/3 141/23/3
f 142/23/3 143/23/3 144/23/3
f 139/22/21 142/23/21 144/23/21
f 142/23/21 139/22/21 137/22/21
f 143/23/6 139/22/6 144/23/6
f 139/22/6 143/23/6 140/22/6
f 138/22/20 143/23/20 141/23/20
f 143/23/20 138/22/20 140/22/20
f 138/22/5 142/23/5 137/22/5
f 142/23/5 138/22/5 141/23/5
f 147/22/4 146/22/4 145/22/4
f 146/22/4 147/22/4 148/22/4
f 151/23/3 150/23/3 149/23/3
f 150/23/3 151/23/3 152/23/3
f 147/22/21 150/23/21 152/23/21
f 150/23/21 147/22/21 145/22/21
f 151/23/6 147/22/6 152/23/6
f 147/22/6 151/23/6 148/22/6
f 146/22/20 151/23/20 149/23/20
f 151/23/20 146/22/20 148/22/20
f 146/22/5 150/23/5 145/22/5
f 150/23/5 146/22/5 149/23/5
f 155/24/4 154/24/4 153/24/4
f 154/24/4 155/24/4 156/24/4
f 31/22/6 29/23/6 157/25/6
f 31/22/6 158/26/6 29/23/6
f 159/25/6 29/23/6 158/26/6
f 31/22/6 160/26/6 158/26/6
f 32/22/6 160/26/6 31/22/6
f 161/25/6 29/23/6 159/25/6
f 160/26/6 32/22/6 161/25/6
f 161/25/6 30/23/6 29/23/6
f 30/23/6 161/25/6 32/22/6
f 162/26/4 158/26/4 160/26/4
f 158/26/4 162/26/4 163/26/4
f 27/23/5 25/22/5 164/25/5
f 27/23/5 165/25/5 25/22/5
f 166/26/5 25/22/5 165/25/5
f 27/23/5 167/25/5 165/25/5
f 28/23/5 167/25/5 27/23/5
f 168/26/5 25/22/5 166/26/5
f 167/25/5 28/23/5 168/26/5
f 168/26/5 26/22/5 25/22/5
f 26/22/5 168/26/5 28/23/5
f 169/25/3 161/25/3 159/25/3
f 161/25/3 169/25/3 170/25/3
f 168/26/4 172/26/4 171/26/4
f 172/26/4 168/26/4 166/26/4
f 158/26/20 169/25/20 159/25/20
f 169/25/20 158/26/20 163/26/20
f 170/25/21 160/26/21 161/25/21
f 160/26/21 170/25/21 162/26/21
f 173/27/21 154/24/21 156/24/21
f 154/24/21 173/27/21 174/27/21
f 173/27/3 175/27/3 174/27/3
f 175/27/3 173/27/3 176/27/3
f 153/24/20 176/27/20 155/24/20
f 176/27/20 153/24/20 175/27/20
f 165/25/3 178/25/3 177/25/3
f 178/25/3 165/25/3 167/25/3
f 177/25/20 166/26/20 165/25/20
f 166/26/20 177/25/20 172/26/20
f 168/26/21 178/25/21 167/25/21
f 178/25/21 168/26/21 171/26/21
f 171/26/5 175/27/5 178/25/5
f 175/27/5 171/26/5 172/26/5
f 153/24/5 178/25/5 175/27/5
f 175/27/5 172/26/5 174/27/5
f 178/25/5 153/24/5 177/25/5
f 174/27/5 172/26/5 154/24/5
f 177/25/5 153/24/5 154/24/5
f 177/25/5 154/24/5 172/26/5
f 155/24/6 169/25/6 156/24/6
f 156/24/6 169/25/6 173/27/6
f 155/24/6 170/25/6 169/25/6
f 163/26/6 173/27/6 169/25/6
f 170/25/6 155/24/6 162/26/6
f 163/26/6 176/27/6 173/27/6
f 162/26/6 176/27/6 163/26/6
f 176/27/6 162/26/6 155/24/6

g wall-window-shutters




usemtl colormap

f 3/1/1 2/2/1 1/1/1
f 2/2/1 3/1/1 4/2/1
f 7/3/1 6/4/1 5/3/1
f 6/4/1 7/3/1 8/4/1
f 11/1/2 10/2/2 9/1/2
f 10/2/2 11/1/2 12/2/2
f 15/3/2 14/4/2 13/3/2
f 14/4/2 15/3/2 16/4/2
f 19/5/3 18/5/3 17/5/3
f 18/5/3 19/5/3 20/5/3
f 23/6/4 22/6/4 21/6/4
f 22/6/4 23/6/4 24/6/4
f 26/7/5 22/6/5 25/7/5
f 25/7/5 22/6/5 27/8/5
f 26/7/5 21/6/5 22/6/5
f 17/5/5 27/8/5 22/6/5
f 21/6/5 26/7/5 18/5/5
f 17/5/5 28/8/5 27/8/5
f 18/5/5 28/8/5 17/5/5
f 28/8/5 18/5/5 26/7/5
f 30/8/6 19/5/6 29/8/6
f 29/8/6 19/5/6 31/7/6
f 30/8/6 20/5/6 19/5/6
f 24/6/6 31/7/6 19/5/6
f 20/5/6 30/8/6 23/6/6
f 24/6/6 32/7/6 31/7/6
f 23/6/6 32/7/6 24/6/6
f 32/7/6 23/6/6 30/8/6
f 45/15/12 47/16/12 41/9/12
f 47/16/12 43/11/12 41/9/12
f 41/9/12 43/11/12 34/9/12
f 36/11/12 34/9/12 43/11/12
f 39/14/1 40/11/1 52/14/1
f 44/11/1 52/14/1 40/11/1
f 48/16/1 46/15/1 44/11/1
f 46/15/1 42/9/1 44/11/1
f 42/9/1 52/14/1 44/11/1
f 52/14/1 42/9/1 51/13/1
f 37/12/1 38/13/1 50/12/1
f 51/13/1 50/12/1 38/13/1
f 51/13/1 42/9/1 50/12/1
f 50/12/1 42/9/1 49/10/1
f 49/10/1 42/9/1 35/10/1
f 33/9/1 35/10/1 42/9/1
f 48/16/11 44/11/9 47/16/11
f 43/11/9 47/16/11 44/11/9
f 46/15/10 45/15/10 42/9/8
f 41/9/8 42/9/8 45/15/10
f 48/16/11 47/16/11 46/15/10
f 45/15/10 46/15/10 47/16/11
f 44/11/9 40/11/4 43/11/9
f 36/11/4 43/11/9 40/11/4
f 42/9/8 41/9/8 33/9/3
f 34/9/3 33/9/3 41/9/8
f 40/11/7 39/14/7 36/11/7
f 39/14/7 38/13/7 36/11/7
f 38/13/7 37/12/7 36/11/7
f 37/12/7 35/10/7 36/11/7
f 36/11/7 35/10/7 34/9/7
f 33/9/7 34/9/7 35/10/7
f 55/16/13 54/15/14 53/16/13
f 54/15/14 55/16/13 56/15/14
f 59/9/15 58/11/15 57/9/15
f 58/11/15 59/9/15 60/11/15
f 60/11/15 59/9/15 61/10/15
f 60/11/15 61/10/15 62/12/15
f 60/11/15 62/12/15 63/13/15
f 60/11/15 63/13/15 64/14/15
f 58/11/16 65/9/16 57/9/16
f 65/9/16 58/11/16 54/15/16
f 54/15/16 58/11/16 53/16/16
f 53/16/16 58/11/16 66/11/16
f 56/15/17 59/9/17 67/9/17
f 59/9/17 56/15/17 61/10/17
f 61/10/17 56/15/17 68/10/17
f 55/16/17 68/10/17 56/15/17
f 68/10/17 55/16/17 69/12/17
f 69/12/17 55/16/17 62/12/17
f 62/12/17 55/16/17 70/13/17
f 63/13/17 62/12/17 70/13/17
f 70/13/17 55/16/17 71/14/17
f 71/14/17 55/16/17 64/14/17
f 64/14/17 55/16/17 60/11/17
f 60/11/17 55/16/17 72/11/17
f 58/11/4 72/11/18 66/11/18
f 72/11/18 58/11/4 60/11/4
f 67/9/19 57/9/3 65/9/19
f 57/9/3 67/9/19 59/9/3
f 56/15/14 65/9/19 54/15/14
f 65/9/19 56/15/14 67/9/19
f 53/16/13 72/11/18 55/16/13
f 72/11/18 53/16/13 66/11/18
f 75/17/3 74/17/3 73/17/3
f 74/17/3 75/17/3 76/17/3
f 79/18/5 78/19/5 77/18/5
f 78/19/5 79/18/5 80/19/5
f 83/20/4 82/20/4 81/20/4
f 82/20/4 83/20/4 84/20/4
f 80/19/3 85/19/3 78/19/3
f 85/19/3 80/19/3 86/19/3
f 89/19/3 88/19/3 87/19/3
f 88/19/3 89/19/3 90/19/3
f 82/20/5 91/17/5 81/20/5
f 91/17/5 82/20/5 92/17/5
f 95/20/4 94/20/4 93/20/4
f 94/20/4 95/20/4 96/20/4
f 99/19/3 98/19/3 97/19/3
f 98/19/3 99/19/3 100/19/3
f 103/21/6 102/9/6 101/21/6
f 102/9/6 103/21/6 104/9/6
f 107/9/5 106/21/5 105/9/5
f 106/21/5 107/9/5 108/21/5
f 111/9/5 110/21/5 109/9/5
f 110/21/5 111/9/5 112/21/5
f 115/21/6 114/9/6 113/21/6
f 114/9/6 115/21/6 116/9/6
f 118/18/5 88/19/5 117/18/5
f 88/19/5 118/18/5 87/19/5
f 121/17/3 120/17/3 119/17/3
f 120/17/3 121/17/3 122/17/3
f 123/20/5 121/17/5 119/17/5
f 121/17/5 123/20/5 124/20/5
f 125/17/3 91/17/3 92/17/3
f 91/17/3 125/17/3 126/17/3
f 125/17/6 83/20/6 126/17/6
f 83/20/6 125/17/6 84/20/6
f 94/20/5 73/17/5 93/20/5
f 73/17/5 94/20/5 75/17/5
f 86/19/6 127/18/6 85/19/6
f 127/18/6 86/19/6 128/18/6
f 127/18/4 79/18/4 77/18/4
f 79/18/4 127/18/4 128/18/4
f 76/17/6 95/20/6 74/17/6
f 95/20/6 76/17/6 96/20/6
f 122/17/6 129/20/6 120/17/6
f 129/20/6 122/17/6 130/20/6
f 131/18/4 118/18/4 117/18/4
f 118/18/4 131/18/4 132/18/4
f 100/19/6 133/18/6 98/19/6
f 133/18/6 100/19/6 134/18/6
f 89/19/6 131/18/6 90/19/6
f 131/18/6 89/19/6 132/18/6
f 129/20/4 124/20/4 123/20/4
f 124/20/4 129/20/4 130/20/4
f 135/18/5 99/19/5 97/19/5
f 99/19/5 135/18/5 136/18/5
f 133/18/4 136/18/4 135/18/4
f 136/18/4 133/18/4 134/18/4
f 103/21/20 74/17/20 104/9/20
f 74/17/20 103/21/20 108/21/20
f 108/21/20 73/17/20 74/17/20
f 73/17/20 108/21/20 107/9/20
f 73/17/20 107/9/20 93/20/20
f 104/9/20 74/17/20 95/20/20
f 93/20/20 78/19/20 95/20/20
f 93/20/20 107/9/20 78/19/20
f 85/19/20 95/20/20 78/19/20
f 104/9/20 95/20/20 85/19/20
f 78/19/20 107/9/20 77/18/20
f 104/9/20 85/19/20 127/18/20
f 77/18/20 107/9/20 127/18/20
f 104/9/20 127/18/20 107/9/20
f 101/21/21 125/17/21 106/21/21
f 125/17/21 101/21/21 102/9/21
f 92/17/21 106/21/21 125/17/21
f 106/21/21 92/17/21 105/9/21
f 125/17/21 102/9/21 84/20/21
f 105/9/21 92/17/21 82/20/21
f 84/20/21 89/19/21 82/20/21
f 84/20/21 102/9/21 89/19/21
f 87/19/21 82/20/21 89/19/21
f 105/9/21 82/20/21 87/19/21
f 89/19/21 102/9/21 132/18/21
f 105/9/21 87/19/21 118/18/21
f 132/18/21 102/9/21 118/18/21
f 105/9/21 118/18/21 102/9/21
f 115/21/20 126/17/20 116/9/20
f 126/17/20 115/21/20 112/21/20
f 126/17/20 112/21/20 91/17/20
f 111/9/20 91/17/20 112/21/20
f 91/17/20 111/9/20 81/20/20
f 116/9/20 126/17/20 83/20/20
f 81/20/20 88/19/20 83/20/20
f 81/20/20 111/9/20 88/19/20
f 83/20/20 88/19/20 90/19/20
f 116/9/20 83/20/20 90/19/20
f 88/19/20 111/9/20 117/18/20
f 116/9/20 90/19/20 131/18/20
f 117/18/20 111/9/20 131/18/20
f 116/9/20 131/18/20 111/9/20
f 100/19/21 114/9/21 134/18/21
f 134/18/21 114/9/21 136/18/21
f 109/9/21 136/18/21 114/9/21
f 109/9/21 99/19/21 136/18/21
f 99/19/21 124/20/21 100/19/21
f 109/9/21 124/20/21 99/19/21
f 130/20/21 100/19/21 124/20/21
f 130/20/21 114/9/21 100/19/21
f 109/9/21 121/17/21 124/20/21
f 110/21/21 121/17/21 109/9/21
f 122/17/21 114/9/21 130/20/21
f 121/17/21 110/21/21 122/17/21
f 122/17/21 113/21/21 114/9/21
f 113/21/21 122/17/21 110/21/21
f 139/22/4 138/22/4 137/22/4
f 138/22/4 139/22/4 140/22/4
f 143/23/3 142/23/3 141/23/3
f 142/23/3 143/23/3 144/23/3
f 139/22/21 142/23/21 144/23/21
f 142/23/21 139/22/21 137/22/21
f 143/23/6 139/22/6 144/23/6
f 139/22/6 143/23/6 140/22/6
f 138/22/20 143/23/20 141/23/20
f 143/23/20 138/22/20 140/22/20
f 138/22/5 142/23/5 137/22/5
f 142/23/5 138/22/5 141/23/5
f 147/22/4 146/22/4 145/22/4
f 146/22/4 147/22/4 148/22/4
f 151/23/3 150/23/3 149/23/3
f 150/23/3 151/23/3 152/23/3
f 147/22/21 150/23/21 152/23/21
f 150/23/21 147/22/21 145/22/21
f 151/23/6 147/22/6 152/23/6
f 147/22/6 151/23/6 148/22/6
f 146/22/20 151/23/20 149/23/20
f 151/23/20 146/22/20 148/22/20
f 146/22/5 150/23/5 145/22/5
f 150/23/5 146/22/5 149/23/5
f 155/24/4 154/24/4 153/24/4
f 154/24/4 155/24/4 156/24/4
f 31/22/6 29/23/6 157/25/6
f 31/22/6 158/26/6 29/23/6
f 159/25/6 29/23/6 158/26/6
f 31/22/6 160/26/6 158/26/6
f 32/22/6 160/26/6 31/22/6
f 161/25/6 29/23/6 159/25/6
f 160/26/6 32/22/6 161/25/6
f 161/25/6 30/23/6 29/23/6
f 30/23/6 161/25/6 32/22/6
f 162/26/4 158/26/4 160/26/4
f 158/26/4 162/26/4 163/26/4
f 27/23/5 25/22/5 164/25/5
f 27/23/5 165/25/5 25/22/5
f 166/26/5 25/22/5 165/25/5
f 27/23/5 167/25/5 165/25/5
f 28/23/5 167/25/5 27/23/5
f 168/26/5 25/22/5 166/26/5
f 167/25/5 28/23/5 168/26/5
f 168/26/5 26/22/5 25/22/5
f 26/22/5 168/26/5 28/23/5
f 169/25/3 161/25/3 159/25/3
f 161/25/3 169/25/3 170/25/3
f 168/26/4 172/26/4 171/26/4
f 172/26/4 168/26/4 166/26/4
f 158/26/20 169/25/20 159/25/20
f 169/25/20 158/26/20 163/26/20
f 170/25/21 160/26/21 161/25/21
f 160/26/21 170/25/21 162/26/21
f 173/27/21 154/24/21 156/24/21
f 154/24/21 173/27/21 174/27/21
f 173/27/3 175/27/3 174/27/3
f 175/27/3 173/27/3 176/27/3
f 153/24/20 176/27/20 155/24/20
f 176/27/20 153/24/20 175/27/20
f 165/25/3 178/25/3 177/25/3
f 178/25/3 165/25/3 167/25/3
f 177/25/20 166/26/20 165/25/20
f 166/26/20 177/25/20 172/26/20
f 168/26/21 178/25/21 167/25/21
f 178/25/21 168/26/21 171/26/21
f 171/26/5 175/27/5 178/25/5
f 175/27/5 171/26/5 172/26/5
f 153/24/5 178/25/5 175/27/5
f 175/27/5 172/26/5 174/27/5
f 178/25/5 153/24/5 177/25/5
f 174/27/5 172/26/5 154/24/5
f 177/25/5 153/24/5 154/24/5
f 177/25/5 154/24/5 172/26/5
f 155/24/6 169/25/6 156/24/6
f 156/24/6 169/25/6 173/27/6
f 155/24/6 170/25/6 169/25/6
f 163/26/6 173/27/6 169/25/6
f 170/25/6 155/24/6 162/26/6
f 163/26/6 176/27/6 173/27/6
f 162/26/6 176/27/6 163/26/6
f 176/27/6 162/26/6 155/24/6

