# Created by Kenney (www.kenney.nl)

mtllib wall-window-stone.mtl

g wall-window-stone

v 0.5 1 -0.5 1 1 1
v 0.5 1 -0.4 1 1 1
v 0.4 1 -0.5 1 1 1
v 0.4 1 -0.4 1 1 1
v 0.5 0 -0.4 1 1 1
v 0.5 0 -0.5 1 1 1
v 0.4 0 -0.4 1 1 1
v 0.4 0 -0.5 1 1 1
v 0.5 1 0.4 1 1 1
v 0.5 1 0.5 1 1 1
v 0.4 1 0.4 1 1 1
v 0.4 1 0.5 1 1 1
v 0.5 0 0.5 1 1 1
v 0.5 0 0.4 1 1 1
v 0.4 0 0.5 1 1 1
v 0.4 0 0.4 1 1 1
v 0.475 0 0.4 1 1 1
v 0.475 0 -0.4 1 1 1
v 0.425 0 0.4 1 1 1
v 0.425 0 -0.4 1 1 1
v 0.475 1 -0.4 1 1 1
v 0.475 1 0.4 1 1 1
v 0.425 1 -0.4 1 1 1
v 0.425 1 0.4 1 1 1
v 0.475 0.75 0.11 1 1 1
v 0.475 0.75 -0.11 1 1 1
v 0.475 0.25 0.11 1 1 1
v 0.475 0.25 -0.11 1 1 1
v 0.425 0.25 0.11 1 1 1
v 0.425 0.25 -0.11 1 1 1
v 0.425 0.75 0.11 1 1 1
v 0.425 0.75 -0.11 1 1 1
v 0.5 0.575 -0.16 1 1 1
v 0.5 0.425 -0.16 1 1 1
v 0.5 0.575 -0.11 1 1 1
v 0.5 0.425 -0.11 1 1 1
v 0.5 0.575 0.16 1 1 1
v 0.4 0.575 0.16 1 1 1
v 0.5 0.575 0.11 1 1 1
v 0.4 0.575 0.11 1 1 1
v 0.5 0.4375 0.16 1 1 1
v 0.4 0.4375 0.16 1 1 1
v 0.5 0.4375 0.11 1 1 1
v 0.4 0.4375 0.11 1 1 1
v 0.525 0.7 0.06 1 1 1
v 0.525 0.7 -0.06 1 1 1
v 0.375 0.7 0.06 1 1 1
v 0.375 0.7 -0.06 1 1 1
v 0.375 0.3 0.06 1 1 1
v 0.525 0.3 0.06 1 1 1
v 0.5 0.2 0.055 1 1 1
v 0.5 0.2 -0.055 1 1 1
v 0.4 0.2 0.055 1 1 1
v 0.4 0.2 -0.055 1 1 1
v 0.4 0.25 -0.055 1 1 1
v 0.4 0.25 0.055 1 1 1
v 0.4 0.425 -0.11 1 1 1
v 0.4 0.425 -0.16 1 1 1
v 0.4 0.575 -0.16 1 1 1
v 0.4 0.575 -0.11 1 1 1
v 0.4 0.75 -0.055 1 1 1
v 0.4 0.8 -0.055 1 1 1
v 0.4 0.75 0.055 1 1 1
v 0.4 0.8 0.055 1 1 1
v 0.5 0.8 0.055 1 1 1
v 0.5 0.8 -0.055 1 1 1
v 0.525 0.3 -0.06 1 1 1
v 0.375 0.3 -0.06 1 1 1
v 0.5 0.25 -0.055 1 1 1
v 0.5 0.25 0.055 1 1 1
v 0.5 0.75 -0.055 1 1 1
v 0.5 0.75 0.055 1 1 1
v 0.525 0.75 0.11 1 1 1
v 0.525 0.25 0.11 1 1 1
v 0.375 0.75 0.11 1 1 1
v 0.375 0.25 0.11 1 1 1
v 0.375 0.75 -0.11 1 1 1
v 0.375 0.25 -0.11 1 1 1
v 0.525 0.75 -0.11 1 1 1
v 0.525 0.25 -0.11 1 1 1

vn 0 1 0
vn 0 -1 0
vn 0 0 -1
vn -1 0 0
vn 0 0 1
vn 1 0 0
vn 0.7071068 0 -0.7071068
vn 0.7071068 0 0.7071068
vn -0.7071068 0 0.7071068
vn 0.7071068 -0.7071068 0
vn -0.7071068 -0.7071068 0
vn -0.7071068 0 -0.7071068
vn -0.7071068 0.7071068 0
vn 0.7071068 0.7071068 0

vt 0.59375 0.175
vt 0.59375 0.075
vt 0.21875 0.325
vt 0.21875 0.425
vt 0.21875 0.4
vt 0.21875 0.35
vt 0.96875 0.09166666
vt 0.96875 0.1583333
vt 0.96875 0.075
vt 0.96875 0.175

usemtl colormap

f 3/1/1 2/1/1 1/1/1
f 2/1/1 3/1/1 4/1/1
f 7/2/2 6/2/2 5/2/2
f 6/2/2 7/2/2 8/2/2
f 3/1/3 6/2/3 8/2/3
f 6/2/3 3/1/3 1/1/3
f 7/2/4 3/1/4 8/2/4
f 3/1/4 7/2/4 4/1/4
f 2/1/5 7/2/5 5/2/5
f 7/2/5 2/1/5 4/1/5
f 2/1/6 6/2/6 1/1/6
f 6/2/6 2/1/6 5/2/6
f 11/1/1 10/1/1 9/1/1
f 10/1/1 11/1/1 12/1/1
f 15/2/2 14/2/2 13/2/2
f 14/2/2 15/2/2 16/2/2
f 11/1/3 14/2/3 16/2/3
f 14/2/3 11/1/3 9/1/3
f 15/2/4 11/1/4 16/2/4
f 11/1/4 15/2/4 12/1/4
f 10/1/5 15/2/5 13/2/5
f 15/2/5 10/1/5 12/1/5
f 10/1/6 14/2/6 9/1/6
f 14/2/6 10/1/6 13/2/6
f 19/3/2 18/3/2 17/3/2
f 18/3/2 19/3/2 20/3/2
f 23/4/1 22/4/1 21/4/1
f 22/4/1 23/4/1 24/4/1
f 26/5/6 22/4/6 25/5/6
f 25/5/6 22/4/6 27/6/6
f 26/5/6 21/4/6 22/4/6
f 17/3/6 27/6/6 22/4/6
f 21/4/6 26/5/6 18/3/6
f 17/3/6 28/6/6 27/6/6
f 18/3/6 28/6/6 17/3/6
f 28/6/6 18/3/6 26/5/6
f 30/6/4 19/3/4 29/6/4
f 29/6/4 19/3/4 31/5/4
f 30/6/4 20/3/4 19/3/4
f 24/4/4 31/5/4 19/3/4
f 20/3/4 30/6/4 23/4/4
f 24/4/4 32/5/4 31/5/4
f 23/4/4 32/5/4 24/4/4
f 32/5/4 23/4/4 30/6/4
f 35/7/6 34/7/7 33/7/7
f 34/7/7 35/7/6 36/7/6
f 39/7/1 38/8/1 37/7/1
f 38/8/1 39/7/1 40/8/1
f 37/7/8 42/8/9 41/7/8
f 42/8/9 37/7/8 38/8/9
f 37/7/8 43/7/6 39/7/6
f 43/7/6 37/7/8 41/7/8
f 42/8/2 43/7/2 41/7/2
f 43/7/2 42/8/2 44/8/2
f 47/10/2 46/9/2 45/9/2
f 46/9/2 47/10/2 48/10/2
f 47/10/3 50/9/3 49/10/3
f 50/9/3 47/10/3 45/9/3
f 53/8/11 52/7/10 51/7/10
f 52/7/10 53/8/11 54/8/11
f 53/8/11 55/8/4 54/8/11
f 55/8/4 53/8/11 56/8/4
f 57/8/2 34/7/2 36/7/2
f 34/7/2 57/8/2 58/8/2
f 57/8/4 59/8/12 58/8/12
f 59/8/12 57/8/4 60/8/4
f 63/8/4 62/8/13 61/8/4
f 62/8/13 63/8/4 64/8/13
f 66/7/14 64/8/13 65/7/14
f 64/8/13 66/7/14 62/8/13
f 42/8/9 40/8/4 44/8/4
f 40/8/4 42/8/9 38/8/9
f 46/9/5 68/10/5 67/9/5
f 68/10/5 46/9/5 48/10/5
f 67/9/1 49/10/1 50/9/1
f 49/10/1 67/9/1 68/10/1
f 70/7/6 52/7/10 69/7/6
f 52/7/10 70/7/6 51/7/10
f 55/8/3 52/7/3 54/8/3
f 52/7/3 55/8/3 69/7/3
f 62/8/3 71/7/3 61/8/3
f 71/7/3 62/8/3 66/7/3
f 33/7/1 60/8/1 35/7/1
f 60/8/1 33/7/1 59/8/1
f 59/8/12 34/7/7 58/8/12
f 34/7/7 59/8/12 33/7/7
f 70/7/5 53/8/5 51/7/5
f 53/8/5 70/7/5 56/8/5
f 65/7/5 63/8/5 72/7/5
f 63/8/5 65/7/5 64/8/5
f 65/7/14 71/7/6 66/7/14
f 71/7/6 65/7/14 72/7/6
f 43/7/5 73/9/5 39/7/5
f 39/7/5 73/9/5 40/8/5
f 43/7/5 74/9/5 73/9/5
f 75/10/5 40/8/5 73/9/5
f 74/9/5 43/7/5 76/10/5
f 75/10/5 44/8/5 40/8/5
f 76/10/5 44/8/5 75/10/5
f 44/8/5 76/10/5 43/7/5
f 57/8/3 77/10/3 60/8/3
f 60/8/3 77/10/3 35/7/3
f 57/8/3 78/10/3 77/10/3
f 79/9/3 35/7/3 77/10/3
f 78/10/3 57/8/3 80/9/3
f 79/9/3 36/7/3 35/7/3
f 80/9/3 36/7/3 79/9/3
f 36/7/3 80/9/3 57/8/3
f 46/9/6 73/9/6 45/9/6
f 45/9/6 73/9/6 50/9/6
f 46/9/6 79/9/6 73/9/6
f 74/9/6 50/9/6 73/9/6
f 79/9/6 46/9/6 80/9/6
f 74/9/6 67/9/6 50/9/6
f 80/9/6 67/9/6 74/9/6
f 67/9/6 80/9/6 46/9/6
f 73/9/1 72/7/1 75/10/1
f 72/7/1 73/9/1 79/9/1
f 75/10/1 72/7/1 63/8/1
f 79/9/1 71/7/1 72/7/1
f 75/10/1 63/8/1 77/10/1
f 71/7/1 79/9/1 77/10/1
f 61/8/1 77/10/1 63/8/1
f 71/7/1 77/10/1 61/8/1
f 70/7/2 76/10/2 56/8/2
f 56/8/2 76/10/2 55/8/2
f 70/7/2 74/9/2 76/10/2
f 78/10/2 55/8/2 76/10/2
f 74/9/2 70/7/2 80/9/2
f 78/10/2 69/7/2 55/8/2
f 80/9/2 69/7/2 78/10/2
f 69/7/2 80/9/2 70/7/2
f 68/10/4 76/10/4 49/10/4
f 49/10/4 76/10/4 47/10/4
f 68/10/4 78/10/4 76/10/4
f 75/10/4 47/10/4 76/10/4
f 78/10/4 68/10/4 77/10/4
f 75/10/4 48/10/4 47/10/4
f 77/10/4 48/10/4 75/10/4
f 48/10/4 77/10/4 68/10/4

g wall-window-stone




usemtl colormap

f 3/1/1 2/1/1 1/1/1
f 2/1/1 3/1/1 4/1/1
f 7/2/2 6/2/2 5/2/2
f 6/2/2 7/2/2 8/2/2
f 3/1/3 6/2/3 8/2/3
f 6/2/3 3/1/3 1/1/3
f 7/2/4 3/1/4 8/2/4
f 3/1/4 7/2/4 4/1/4
f 2/1/5 7/2/5 5/2/5
f 7/2/5 2/1/5 4/1/5
f 2/1/6 6/2/6 1/1/6
f 6/2/6 2/1/6 5/2/6
f 11/1/1 10/1/1 9/1/1
f 10/1/1 11/1/1 12/1/1
f 15/2/2 14/2/2 13/2/2
f 14/2/2 15/2/2 16/2/2
f 11/1/3 14/2/3 16/2/3
f 14/2/3 11/1/3 9/1/3
f 15/2/4 11/1/4 16/2/4
f 11/1/4 15/2/4 12/1/4
f 10/1/5 15/2/5 13/2/5
f 15/2/5 10/1/5 12/1/5
f 10/1/6 14/2/6 9/1/6
f 14/2/6 10/1/6 13/2/6
f 19/3/2 18/3/2 17/3/2
f 18/3/2 19/3/2 20/3/2
f 23/4/1 22/4/1 21/4/1
f 22/4/1 23/4/1 24/4/1
f 26/5/6 22/4/6 25/5/6
f 25/5/6 22/4/6 27/6/6
f 26/5/6 21/4/6 22/4/6
f 17/3/6 27/6/6 22/4/6
f 21/4/6 26/5/6 18/3/6
f 17/3/6 28/6/6 27/6/6
f 18/3/6 28/6/6 17/3/6
f 28/6/6 18/3/6 26/5/6
f 30/6/4 19/3/4 29/6/4
f 29/6/4 19/3/4 31/5/4
f 30/6/4 20/3/4 19/3/4
f 24/4/4 31/5/4 19/3/4
f 20/3/4 30/6/4 23/4/4
f 24/4/4 32/5/4 31/5/4
f 23/4/4 32/5/4 24/4/4
f 32/5/4 23/4/4 30/6/4
f 35/7/6 34/7/7 33/7/7
f 34/7/7 35/7/6 36/7/6
f 39/7/1 38/8/1 37/7/1
f 38/8/1 39/7/1 40/8/1
f 37/7/8 42/8/9 41/7/8
f 42/8/9 37/7/8 38/8/9
f 37/7/8 43/7/6 39/7/6
f 43/7/6 37/7/8 41/7/8
f 42/8/2 43/7/2 41/7/2
f 43/7/2 42/8/2 44/8/2
f 47/10/2 46/9/2 45/9/2
f 46/9/2 47/10/2 48/10/2
f 47/10/3 50/9/3 49/10/3
f 50/9/3 47/10/3 45/9/3
f 53/8/11 52/7/10 51/7/10
f 52/7/10 53/8/11 54/8/11
f 53/8/11 55/8/4 54/8/11
f 55/8/4 53/8/11 56/8/4
f 57/8/2 34/7/2 36/7/2
f 34/7/2 57/8/2 58/8/2
f 57/8/4 59/8/12 58/8/12
f 59/8/12 57/8/4 60/8/4
f 63/8/4 62/8/13 61/8/4
f 62/8/13 63/8/4 64/8/13
f 66/7/14 64/8/13 65/7/14
f 64/8/13 66/7/14 62/8/13
f 42/8/9 40/8/4 44/8/4
f 40/8/4 42/8/9 38/8/9
f 46/9/5 68/10/5 67/9/5
f 68/10/5 46/9/5 48/10/5
f 67/9/1 49/10/1 50/9/1
f 49/10/1 67/9/1 68/10/1
f 70/7/6 52/7/10 69/7/6
f 52/7/10 70/7/6 51/7/10
f 55/8/3 52/7/3 54/8/3
f 52/7/3 55/8/3 69/7/3
f 62/8/3 71/7/3 61/8/3
f 71/7/3 62/8/3 66/7/3
f 33/7/1 60/8/1 35/7/1
f 60/8/1 33/7/1 59/8/1
f 59/8/12 34/7/7 58/8/12
f 34/7/7 59/8/12 33/7/7
f 70/7/5 53/8/5 51/7/5
f 53/8/5 70/7/5 56/8/5
f 65/7/5 63/8/5 72/7/5
f 63/8/5 65/7/5 64/8/5
f 65/7/14 71/7/6 66/7/14
f 71/7/6 65/7/14 72/7/6
f 43/7/5 73/9/5 39/7/5
f 39/7/5 73/9/5 40/8/5
f 43/7/5 74/9/5 73/9/5
f 75/10/5 40/8/5 73/9/5
f 74/9/5 43/7/5 76/10/5
f 75/10/5 44/8/5 40/8/5
f 76/10/5 44/8/5 75/10/5
f 44/8/5 76/10/5 43/7/5
f 57/8/3 77/10/3 60/8/3
f 60/8/3 77/10/3 35/7/3
f 57/8/3 78/10/3 77/10/3
f 79/9/3 35/7/3 77/10/3
f 78/10/3 57/8/3 80/9/3
f 79/9/3 36/7/3 35/7/3
f 80/9/3 36/7/3 79/9/3
f 36/7/3 80/9/3 57/8/3
f 46/9/6 73/9/6 45/9/6
f 45/9/6 73/9/6 50/9/6
f 46/9/6 79/9/6 73/9/6
f 74/9/6 50/9/6 73/9/6
f 79/9/6 46/9/6 80/9/6
f 74/9/6 67/9/6 50/9/6
f 80/9/6 67/9/6 74/9/6
f 67/9/6 80/9/6 46/9/6
f 73/9/1 72/7/1 75/10/1
f 72/7/1 73/9/1 79/9/1
f 75/10/1 72/7/1 63/8/1
f 79/9/1 71/7/1 72/7/1
f 75/10/1 63/8/1 77/10/1
f 71/7/1 79/9/1 77/10/1
f 61/8/1 77/10/1 63/8/1
f 71/7/1 77/10/1 61/8/1
f 70/7/2 76/10/2 56/8/2
f 56/8/2 76/10/2 55/8/2
f 70/7/2 74/9/2 76/10/2
f 78/10/2 55/8/2 76/10/2
f 74/9/2 70/7/2 80/9/2
f 78/10/2 69/7/2 55/8/2
f 80/9/2 69/7/2 78/10/2
f 69/7/2 80/9/2 70/7/2
f 68/10/4 76/10/4 49/10/4
f 49/10/4 76/10/4 47/10/4
f 68/10/4 78/10/4 76/10/4
f 75/10/4 47/10/4 76/10/4
f 78/10/4 68/10/4 77/10/4
f 75/10/4 48/10/4 47/10/4
f 77/10/4 48/10/4 75/10/4
f 48/10/4 77/10/4 68/10/4

