# Created by Kenney (www.kenney.nl)

mtllib wall-corner-diagonal.mtl

g wall-corner-diagonal

v 0.5 1 -0.5 1 1 1
v 0.5 1 -0.4 1 1 1
v 0.4 1 -0.5 1 1 1
v 0.4 1 -0.4 1 1 1
v 0.5 0 -0.4 1 1 1
v 0.5 0 -0.5 1 1 1
v 0.4 0 -0.4 1 1 1
v 0.4 0 -0.5 1 1 1
v -0.4 1 0.4 1 1 1
v -0.4 1 0.5 1 1 1
v -0.5 1 0.4 1 1 1
v -0.5 1 0.5 1 1 1
v -0.4 0 0.5 1 1 1
v -0.4 0 0.4 1 1 1
v -0.5 0 0.5 1 1 1
v -0.5 0 0.4 1 1 1
v 0.475 1 -0.4 1 1 1
v 0.475 0 -0.4 1 1 1
v 0.475 1 -0.02928932 1 1 1
v 0.475 0 -0.02928932 1 1 1
v 0.425 0 -0.4 1 1 1
v 0.425 1 -0.4 1 1 1
v 0.425 0 -0.05 1 1 1
v 0.425 1 -0.05 1 1 1
v -0.4 0 0.425 1 1 1
v -0.05 0 0.425 1 1 1
v -0.4 1 0.425 1 1 1
v -0.05 1 0.425 1 1 1
v -0.4 0 0.475 1 1 1
v -0.02928932 0 0.475 1 1 1
v -0.02928932 1 0.475 1 1 1
v -0.4 1 0.475 1 1 1

vn 0 1 0
vn 0 -1 0
vn 0 0 -1
vn -1 0 0
vn 0 0 1
vn 1 0 0
vn 0.7071068 0 0.7071068
vn -0.7071068 0 -0.7071068

vt 0.59375 0.175
vt 0.59375 0.075
vt 0.21875 0.425
vt 0.21875 0.325

usemtl colormap

f 3/1/1 2/1/1 1/1/1
f 2/1/1 3/1/1 4/1/1
f 7/2/2 6/2/2 5/2/2
f 6/2/2 7/2/2 8/2/2
f 3/1/3 6/2/3 8/2/3
f 6/2/3 3/1/3 1/1/3
f 7/2/4 3/1/4 8/2/4
f 3/1/4 7/2/4 4/1/4
f 2/1/5 7/2/5 5/2/5
f 7/2/5 2/1/5 4/1/5
f 2/1/6 6/2/6 1/1/6
f 6/2/6 2/1/6 5/2/6
f 11/1/1 10/1/1 9/1/1
f 10/1/1 11/1/1 12/1/1
f 15/2/2 14/2/2 13/2/2
f 14/2/2 15/2/2 16/2/2
f 11/1/3 14/2/3 16/2/3
f 14/2/3 11/1/3 9/1/3
f 15/2/4 11/1/4 16/2/4
f 11/1/4 15/2/4 12/1/4
f 10/1/5 15/2/5 13/2/5
f 15/2/5 10/1/5 12/1/5
f 10/1/6 14/2/6 9/1/6
f 14/2/6 10/1/6 13/2/6
f 19/3/6 18/4/6 17/3/6
f 18/4/6 19/3/6 20/4/6
f 23/4/4 22/3/4 21/4/4
f 22/3/4 23/4/4 24/3/4
f 27/3/3 26/4/3 25/4/3
f 26/4/3 27/3/3 28/3/3
f 26/4/2 29/4/2 25/4/2
f 26/4/2 30/4/2 29/4/2
f 23/4/2 30/4/2 26/4/2
f 23/4/2 20/4/2 30/4/2
f 20/4/2 23/4/2 18/4/2
f 21/4/2 18/4/2 23/4/2
f 19/3/7 30/4/7 20/4/7
f 30/4/7 19/3/7 31/3/7
f 28/3/8 23/4/8 26/4/8
f 23/4/8 28/3/8 24/3/8
f 22/3/1 19/3/1 17/3/1
f 19/3/1 22/3/1 24/3/1
f 19/3/1 24/3/1 31/3/1
f 31/3/1 24/3/1 28/3/1
f 31/3/1 28/3/1 32/3/1
f 32/3/1 28/3/1 27/3/1
f 31/3/5 29/4/5 30/4/5
f 29/4/5 31/3/5 32/3/5

g wall-corner-diagonal




usemtl colormap

f 3/1/1 2/1/1 1/1/1
f 2/1/1 3/1/1 4/1/1
f 7/2/2 6/2/2 5/2/2
f 6/2/2 7/2/2 8/2/2
f 3/1/3 6/2/3 8/2/3
f 6/2/3 3/1/3 1/1/3
f 7/2/4 3/1/4 8/2/4
f 3/1/4 7/2/4 4/1/4
f 2/1/5 7/2/5 5/2/5
f 7/2/5 2/1/5 4/1/5
f 2/1/6 6/2/6 1/1/6
f 6/2/6 2/1/6 5/2/6
f 11/1/1 10/1/1 9/1/1
f 10/1/1 11/1/1 12/1/1
f 15/2/2 14/2/2 13/2/2
f 14/2/2 15/2/2 16/2/2
f 11/1/3 14/2/3 16/2/3
f 14/2/3 11/1/3 9/1/3
f 15/2/4 11/1/4 16/2/4
f 11/1/4 15/2/4 12/1/4
f 10/1/5 15/2/5 13/2/5
f 15/2/5 10/1/5 12/1/5
f 10/1/6 14/2/6 9/1/6
f 14/2/6 10/1/6 13/2/6
f 19/3/6 18/4/6 17/3/6
f 18/4/6 19/3/6 20/4/6
f 23/4/4 22/3/4 21/4/4
f 22/3/4 23/4/4 24/3/4
f 27/3/3 26/4/3 25/4/3
f 26/4/3 27/3/3 28/3/3
f 26/4/2 29/4/2 25/4/2
f 26/4/2 30/4/2 29/4/2
f 23/4/2 30/4/2 26/4/2
f 23/4/2 20/4/2 30/4/2
f 20/4/2 23/4/2 18/4/2
f 21/4/2 18/4/2 23/4/2
f 19/3/7 30/4/7 20/4/7
f 30/4/7 19/3/7 31/3/7
f 28/3/8 23/4/8 26/4/8
f 23/4/8 28/3/8 24/3/8
f 22/3/1 19/3/1 17/3/1
f 19/3/1 22/3/1 24/3/1
f 19/3/1 24/3/1 31/3/1
f 31/3/1 24/3/1 28/3/1
f 31/3/1 28/3/1 32/3/1
f 32/3/1 28/3/1 27/3/1
f 31/3/5 29/4/5 30/4/5
f 29/4/5 31/3/5 32/3/5

