# Created by Kenney (www.kenney.nl)

mtllib wall-wood-doorway-square-wide.mtl

g wall-wood-doorway-square-wide

v 0.5 1 -0.5 1 1 1
v 0.5 1 -0.4 1 1 1
v 0.4 1 -0.5 1 1 1
v 0.4 1 -0.4 1 1 1
v 0.5 0 -0.4 1 1 1
v 0.5 0 -0.5 1 1 1
v 0.4 0 -0.4 1 1 1
v 0.4 0 -0.5 1 1 1
v 0.4 0 -0.3 1 1 1
v 0.4 0.85 -0.3 1 1 1
v 0.4 0 -0.2 1 1 1
v 0.4 0.75 -0.2 1 1 1
v 0.4 0.85 0.5 1 1 1
v 0.4 0.75 0.5 1 1 1
v 0.5 0.75 0.5 1 1 1
v 0.5 0.85 0.5 1 1 1
v 0.5 0.75 -0.2 1 1 1
v 0.5 0.85 -0.3 1 1 1
v 0.5 0 -0.3 1 1 1
v 0.5 0 -0.2 1 1 1
v 0.425 0 -0.4 1 1 1
v 0.425 1 -0.4 1 1 1
v 0.425 0 -0.3 1 1 1
v 0.425 0.85 -0.3 1 1 1
v 0.425 1 0.5 1 1 1
v 0.425 0.85 0.5 1 1 1
v 0.475 0.85 0.5 1 1 1
v 0.475 1 0.5 1 1 1
v 0.475 0.85 -0.3 1 1 1
v 0.475 1 -0.4 1 1 1
v 0.475 8.377019E-19 -0.4 1 1 1
v 0.475 8.377019E-19 -0.3 1 1 1

vn 0 1 0
vn 0 -1 0
vn 0 0 -1
vn -1 0 0
vn 0 0 1
vn 1 0 0

vt 0.59375 0.175
vt 0.59375 0.075
vt 0.96875 0.075
vt 0.96875 0.175
vt 0.96875 0.1632353
vt 0.71875 0.075
vt 0.71875 0.175
vt 0.71875 0.16

usemtl colormap

f 3/1/1 2/1/1 1/1/1
f 2/1/1 3/1/1 4/1/1
f 7/2/2 6/2/2 5/2/2
f 6/2/2 7/2/2 8/2/2
f 3/1/3 6/2/3 8/2/3
f 6/2/3 3/1/3 1/1/3
f 7/2/4 3/1/4 8/2/4
f 3/1/4 7/2/4 4/1/4
f 2/1/5 7/2/5 5/2/5
f 7/2/5 2/1/5 4/1/5
f 2/1/6 6/2/6 1/1/6
f 6/2/6 2/1/6 5/2/6
f 11/3/4 10/4/4 9/3/4
f 10/4/4 11/3/4 12/5/4
f 10/4/4 12/5/4 13/4/4
f 13/4/4 12/5/4 14/5/4
f 17/5/6 16/4/6 15/5/6
f 17/5/6 18/4/6 16/4/6
f 18/4/6 17/5/6 19/3/6
f 20/3/6 19/3/6 17/5/6
f 14/5/2 17/5/2 15/5/2
f 17/5/2 14/5/2 12/5/2
f 16/4/5 14/5/5 15/5/5
f 14/5/5 16/4/5 13/4/5
f 10/4/1 16/4/1 18/4/1
f 16/4/1 10/4/1 13/4/1
f 10/4/3 19/3/3 9/3/3
f 19/3/3 10/4/3 18/4/3
f 11/3/2 19/3/2 20/3/2
f 19/3/2 11/3/2 9/3/2
f 17/5/5 11/3/5 20/3/5
f 11/3/5 17/5/5 12/5/5
f 23/6/4 22/7/4 21/6/4
f 22/7/4 23/6/4 24/8/4
f 22/7/4 24/8/4 25/7/4
f 25/7/4 24/8/4 26/8/4
f 29/8/6 28/7/6 27/8/6
f 29/8/6 30/7/6 28/7/6
f 30/7/6 29/8/6 31/6/6
f 32/6/6 31/6/6 29/8/6
f 28/7/5 26/8/5 27/8/5
f 26/8/5 28/7/5 25/7/5
f 22/7/1 28/7/1 30/7/1
f 28/7/1 22/7/1 25/7/1
f 23/6/2 31/6/2 32/6/2
f 31/6/2 23/6/2 21/6/2

g wall-wood-doorway-square-wide




usemtl colormap

f 3/1/1 2/1/1 1/1/1
f 2/1/1 3/1/1 4/1/1
f 7/2/2 6/2/2 5/2/2
f 6/2/2 7/2/2 8/2/2
f 3/1/3 6/2/3 8/2/3
f 6/2/3 3/1/3 1/1/3
f 7/2/4 3/1/4 8/2/4
f 3/1/4 7/2/4 4/1/4
f 2/1/5 7/2/5 5/2/5
f 7/2/5 2/1/5 4/1/5
f 2/1/6 6/2/6 1/1/6
f 6/2/6 2/1/6 5/2/6
f 11/3/4 10/4/4 9/3/4
f 10/4/4 11/3/4 12/5/4
f 10/4/4 12/5/4 13/4/4
f 13/4/4 12/5/4 14/5/4
f 17/5/6 16/4/6 15/5/6
f 17/5/6 18/4/6 16/4/6
f 18/4/6 17/5/6 19/3/6
f 20/3/6 19/3/6 17/5/6
f 14/5/2 17/5/2 15/5/2
f 17/5/2 14/5/2 12/5/2
f 16/4/5 14/5/5 15/5/5
f 14/5/5 16/4/5 13/4/5
f 10/4/1 16/4/1 18/4/1
f 16/4/1 10/4/1 13/4/1
f 10/4/3 19/3/3 9/3/3
f 19/3/3 10/4/3 18/4/3
f 11/3/2 19/3/2 20/3/2
f 19/3/2 11/3/2 9/3/2
f 17/5/5 11/3/5 20/3/5
f 11/3/5 17/5/5 12/5/5
f 23/6/4 22/7/4 21/6/4
f 22/7/4 23/6/4 24/8/4
f 22/7/4 24/8/4 25/7/4
f 25/7/4 24/8/4 26/8/4
f 29/8/6 28/7/6 27/8/6
f 29/8/6 30/7/6 28/7/6
f 30/7/6 29/8/6 31/6/6
f 32/6/6 31/6/6 29/8/6
f 28/7/5 26/8/5 27/8/5
f 26/8/5 28/7/5 25/7/5
f 22/7/1 28/7/1 30/7/1
f 28/7/1 22/7/1 25/7/1
f 23/6/2 31/6/2 32/6/2
f 31/6/2 23/6/2 21/6/2

