# Created by Kenney (www.kenney.nl)

mtllib wall-wood-block.mtl

g wall-wood-block

v 0.475 1 -0.4 1 1 1
v 0.475 1 0.4 1 1 1
v 0.4 1 -0.475 1 1 1
v 0.4 1 0.475 1 1 1
v -0.4 1 0.475 1 1 1
v -0.4 1 -0.475 1 1 1
v -0.475 1 0.4 1 1 1
v -0.475 1 -0.4 1 1 1
v 0.4 0 0.475 1 1 1
v -0.4 0 0.475 1 1 1
v -0.4 0 -0.475 1 1 1
v 0.4 0 -0.475 1 1 1
v -0.475 0 -0.4 1 1 1
v -0.475 0 0.4 1 1 1
v 0.475 0 -0.4 1 1 1
v 0.475 0 0.4 1 1 1
v -0.5 0 -0.5 1 1 1
v -0.5 1 -0.5 1 1 1
v -0.5 0 -0.4 1 1 1
v -0.5 1 -0.4 1 1 1
v -0.4 1 -0.5 1 1 1
v -0.4 0 -0.5 1 1 1
v -0.4 1 -0.475 1 1 1
v -0.4 0 -0.475 1 1 1
v -0.475 0 -0.4 1 1 1
v -0.475 1 -0.4 1 1 1
v -0.5 0 0.5 1 1 1
v -0.5 1 0.5 1 1 1
v -0.4 0 0.5 1 1 1
v -0.4 1 0.5 1 1 1
v -0.5 1 0.4 1 1 1
v -0.5 0 0.4 1 1 1
v -0.475 1 0.4 1 1 1
v -0.475 0 0.4 1 1 1
v -0.4 0 0.475 1 1 1
v -0.4 1 0.475 1 1 1
v 0.5 0 -0.5 1 1 1
v 0.5 1 -0.5 1 1 1
v 0.4 0 -0.5000001 1 1 1
v 0.4 1 -0.5000001 1 1 1
v 0.5 1 -0.4 1 1 1
v 0.5 0 -0.4 1 1 1
v 0.475 1 -0.4 1 1 1
v 0.475 0 -0.4 1 1 1
v 0.4 0 -0.475 1 1 1
v 0.4 1 -0.475 1 1 1
v 0.5 0 0.5 1 1 1
v 0.5 1 0.5 1 1 1
v 0.5 0 0.4 1 1 1
v 0.5 1 0.4 1 1 1
v 0.4 1 0.5 1 1 1
v 0.4 0 0.5 1 1 1
v 0.4 1 0.475 1 1 1
v 0.4 0 0.475 1 1 1
v 0.475 0 0.4 1 1 1
v 0.475 1 0.4 1 1 1

vn 0 1 0
vn 0 0 1
vn 0 0 -1
vn -1 0 0
vn 1 0 0
vn 0 -1 0
vn 1.192093E-07 0 1
vn -1.192093E-07 0 -1
vn 1 0 -1.192093E-07
vn -1 0 1.192093E-07
vn 1.192093E-07 0 -1
vn -1.192093E-07 0 1
vn -1 0 -1.192093E-07
vn 1 0 1.192093E-07
vn 1 0 1.490099E-08
vn -1 0 -1.490099E-08
vn 1.490099E-08 0 -1
vn -1.490099E-08 0 1

vt 0.71875 0.175
vt 0.71875 0.075
vt 0.59375 0.075
vt 0.59375 0.175

usemtl colormap

f 3/1/1 2/1/1 1/1/1
f 2/1/1 3/1/1 4/1/1
f 4/1/1 3/1/1 5/1/1
f 5/1/1 3/1/1 6/1/1
f 5/1/1 6/1/1 7/1/1
f 7/1/1 6/1/1 8/1/1
f 4/1/2 10/2/2 9/2/2
f 10/2/2 4/1/2 5/1/2
f 6/1/3 12/2/3 11/2/3
f 12/2/3 6/1/3 3/1/3
f 14/2/4 8/1/4 13/2/4
f 8/1/4 14/2/4 7/1/4
f 2/1/5 15/2/5 1/1/5
f 15/2/5 2/1/5 16/2/5
f 9/2/6 15/2/6 16/2/6
f 15/2/6 9/2/6 12/2/6
f 12/2/6 9/2/6 10/2/6
f 12/2/6 10/2/6 11/2/6
f 11/2/6 10/2/6 14/2/6
f 11/2/6 14/2/6 13/2/6
f 19/3/4 18/4/4 17/3/4
f 18/4/4 19/3/4 20/4/4
f 23/4/5 22/3/5 21/4/5
f 22/3/5 23/4/5 24/3/5
f 26/4/2 19/3/2 25/3/2
f 19/3/2 26/4/2 20/4/2
f 24/3/6 17/3/6 22/3/6
f 17/3/6 24/3/6 25/3/6
f 17/3/6 25/3/6 19/3/6
f 18/4/3 22/3/3 17/3/3
f 22/3/3 18/4/3 21/4/3
f 18/4/1 23/4/1 21/4/1
f 23/4/1 18/4/1 26/4/1
f 26/4/1 18/4/1 20/4/1
f 29/3/7 28/4/7 27/3/7
f 28/4/7 29/3/7 30/4/7
f 33/4/8 32/3/8 31/4/8
f 32/3/8 33/4/8 34/3/8
f 36/4/9 29/3/9 35/3/9
f 29/3/9 36/4/9 30/4/9
f 34/3/6 27/3/6 32/3/6
f 27/3/6 34/3/6 35/3/6
f 27/3/6 35/3/6 29/3/6
f 28/4/10 32/3/10 27/3/10
f 32/3/10 28/4/10 31/4/10
f 28/4/1 33/4/1 31/4/1
f 33/4/1 28/4/1 36/4/1
f 36/4/1 28/4/1 30/4/1
f 39/3/11 38/4/11 37/3/11
f 38/4/11 39/3/11 40/4/11
f 43/4/12 42/3/12 41/4/12
f 42/3/12 43/4/12 44/3/12
f 46/4/13 39/3/13 45/3/13
f 39/3/13 46/4/13 40/4/13
f 44/3/6 37/3/6 42/3/6
f 37/3/6 44/3/6 45/3/6
f 37/3/6 45/3/6 39/3/6
f 38/4/14 42/3/14 37/3/14
f 42/3/14 38/4/14 41/4/14
f 38/4/1 43/4/1 41/4/1
f 43/4/1 38/4/1 46/4/1
f 46/4/1 38/4/1 40/4/1
f 49/3/15 48/4/15 47/3/15
f 48/4/15 49/3/15 50/4/15
f 53/4/16 52/3/16 51/4/16
f 52/3/16 53/4/16 54/3/16
f 56/4/17 49/3/17 55/3/17
f 49/3/17 56/4/17 50/4/17
f 54/3/6 47/3/6 52/3/6
f 47/3/6 54/3/6 55/3/6
f 47/3/6 55/3/6 49/3/6
f 48/4/18 52/3/18 47/3/18
f 52/3/18 48/4/18 51/4/18
f 48/4/1 53/4/1 51/4/1
f 53/4/1 48/4/1 56/4/1
f 56/4/1 48/4/1 50/4/1

g wall-wood-block




usemtl colormap

f 3/1/1 2/1/1 1/1/1
f 2/1/1 3/1/1 4/1/1
f 4/1/1 3/1/1 5/1/1
f 5/1/1 3/1/1 6/1/1
f 5/1/1 6/1/1 7/1/1
f 7/1/1 6/1/1 8/1/1
f 4/1/2 10/2/2 9/2/2
f 10/2/2 4/1/2 5/1/2
f 6/1/3 12/2/3 11/2/3
f 12/2/3 6/1/3 3/1/3
f 14/2/4 8/1/4 13/2/4
f 8/1/4 14/2/4 7/1/4
f 2/1/5 15/2/5 1/1/5
f 15/2/5 2/1/5 16/2/5
f 9/2/6 15/2/6 16/2/6
f 15/2/6 9/2/6 12/2/6
f 12/2/6 9/2/6 10/2/6
f 12/2/6 10/2/6 11/2/6
f 11/2/6 10/2/6 14/2/6
f 11/2/6 14/2/6 13/2/6
f 19/3/4 18/4/4 17/3/4
f 18/4/4 19/3/4 20/4/4
f 23/4/5 22/3/5 21/4/5
f 22/3/5 23/4/5 24/3/5
f 26/4/2 19/3/2 25/3/2
f 19/3/2 26/4/2 20/4/2
f 24/3/6 17/3/6 22/3/6
f 17/3/6 24/3/6 25/3/6
f 17/3/6 25/3/6 19/3/6
f 18/4/3 22/3/3 17/3/3
f 22/3/3 18/4/3 21/4/3
f 18/4/1 23/4/1 21/4/1
f 23/4/1 18/4/1 26/4/1
f 26/4/1 18/4/1 20/4/1
f 29/3/7 28/4/7 27/3/7
f 28/4/7 29/3/7 30/4/7
f 33/4/8 32/3/8 31/4/8
f 32/3/8 33/4/8 34/3/8
f 36/4/9 29/3/9 35/3/9
f 29/3/9 36/4/9 30/4/9
f 34/3/6 27/3/6 32/3/6
f 27/3/6 34/3/6 35/3/6
f 27/3/6 35/3/6 29/3/6
f 28/4/10 32/3/10 27/3/10
f 32/3/10 28/4/10 31/4/10
f 28/4/1 33/4/1 31/4/1
f 33/4/1 28/4/1 36/4/1
f 36/4/1 28/4/1 30/4/1
f 39/3/11 38/4/11 37/3/11
f 38/4/11 39/3/11 40/4/11
f 43/4/12 42/3/12 41/4/12
f 42/3/12 43/4/12 44/3/12
f 46/4/13 39/3/13 45/3/13
f 39/3/13 46/4/13 40/4/13
f 44/3/6 37/3/6 42/3/6
f 37/3/6 44/3/6 45/3/6
f 37/3/6 45/3/6 39/3/6
f 38/4/14 42/3/14 37/3/14
f 42/3/14 38/4/14 41/4/14
f 38/4/1 43/4/1 41/4/1
f 43/4/1 38/4/1 46/4/1
f 46/4/1 38/4/1 40/4/1
f 49/3/15 48/4/15 47/3/15
f 48/4/15 49/3/15 50/4/15
f 53/4/16 52/3/16 51/4/16
f 52/3/16 53/4/16 54/3/16
f 56/4/17 49/3/17 55/3/17
f 49/3/17 56/4/17 50/4/17
f 54/3/6 47/3/6 52/3/6
f 47/3/6 54/3/6 55/3/6
f 47/3/6 55/3/6 49/3/6
f 48/4/18 52/3/18 47/3/18
f 52/3/18 48/4/18 51/4/18
f 48/4/1 53/4/1 51/4/1
f 53/4/1 48/4/1 56/4/1
f 56/4/1 48/4/1 50/4/1

