# Created by Kenney (www.kenney.nl)

mtllib wall-doorway-round.mtl

g wall-doorway-round

v 0.5 1 -0.5 1 1 1
v 0.5 1 -0.4 1 1 1
v 0.4 1 -0.5 1 1 1
v 0.4 1 -0.4 1 1 1
v 0.5 0 -0.4 1 1 1
v 0.5 0 -0.5 1 1 1
v 0.4 0 -0.4 1 1 1
v 0.4 0 -0.5 1 1 1
v 0.5 1 0.4 1 1 1
v 0.5 1 0.5 1 1 1
v 0.4 1 0.4 1 1 1
v 0.4 1 0.5 1 1 1
v 0.5 0 0.5 1 1 1
v 0.5 0 0.4 1 1 1
v 0.4 0 0.5 1 1 1
v 0.4 0 0.4 1 1 1
v 0.425 1.073297E-17 0.3 1 1 1
v 0.425 0.55 0.3 1 1 1
v 0.425 1.073297E-17 0.4 1 1 1
v 0.425 1 0.4 1 1 1
v 0.425 0.85 0 1 1 1
v 0.425 1 -0.4 1 1 1
v 0.425 0.55 -0.3 1 1 1
v 0.425 1.073297E-17 -0.3 1 1 1
v 0.425 1.073297E-17 -0.4 1 1 1
v 0.475 2.758259E-17 0.3 1 1 1
v 0.475 2.758259E-17 0.4 1 1 1
v 0.475 0.55 0.3 1 1 1
v 0.475 1 0.4 1 1 1
v 0.475 0.5839189 0.2864484 1 1 1
v 0.475 0.616748 0.2704363 1 1 1
v 0.475 0.6483092 0.2520508 1 1 1
v 0.475 0.678431 0.2313915 1 1 1
v 0.475 0.7069501 0.2085705 1 1 1
v 0.475 0.7337117 0.1837117 1 1 1
v 0.475 0.7585704 0.1569501 1 1 1
v 0.475 0.7813914 0.1284311 1 1 1
v 0.475 0.8020508 0.09830916 1 1 1
v 0.475 0.8204364 0.06674799 1 1 1
v 0.475 0.8364484 0.03391889 1 1 1
v 0.475 0.85 0 1 1 1
v 0.475 1 -0.4 1 1 1
v 0.475 0.8364484 -0.03391892 1 1 1
v 0.475 0.8204364 -0.06674805 1 1 1
v 0.475 0.8020508 -0.09830919 1 1 1
v 0.475 0.7813914 -0.1284311 1 1 1
v 0.475 0.7585704 -0.1569502 1 1 1
v 0.475 0.7337117 -0.1837117 1 1 1
v 0.475 0.7069501 -0.2085705 1 1 1
v 0.475 0.678431 -0.2313914 1 1 1
v 0.475 0.6483092 -0.2520508 1 1 1
v 0.475 0.616748 -0.2704364 1 1 1
v 0.475 0.5839189 -0.2864484 1 1 1
v 0.475 0.55 -0.3 1 1 1
v 0.475 2.758259E-17 -0.4 1 1 1
v 0.475 2.758259E-17 -0.3 1 1 1
v 0.5 4.295025E-17 0.2 1 1 1
v 0.5 4.293188E-17 0.3 1 1 1
v 0.5 0.5269129 0.2 1 1 1
v 0.5 0.6483092 0.2520508 1 1 1
v 0.5 0.55 0.3 1 1 1
v 0.5 0.7337117 0.1837117 1 1 1
v 0.5 0.5944961 0.1670371 1 1 1
v 0.5 0.6625668 0.1125669 1 1 1
v 0.5 0.8020508 0.09830917 1 1 1
v 0.5 0.717037 0.04449607 1 1 1
v 0.5 0.85 2.887646E-15 1 1 1
v 0.5 0.7387396 0 1 1 1
v 0.5 0.717037 -0.04449607 1 1 1
v 0.5 0.8020508 -0.09830917 1 1 1
v 0.5 0.6625668 -0.1125669 1 1 1
v 0.5 0.5944961 -0.1670371 1 1 1
v 0.5 0.7337117 -0.1837117 1 1 1
v 0.5 0.5269129 -0.2 1 1 1
v 0.5 0.6483092 -0.2520508 1 1 1
v 0.5 4.295025E-17 -0.2 1 1 1
v 0.5 4.293188E-17 -0.3 1 1 1
v 0.5 0.55 -0.3 1 1 1
v 0.4 4.295025E-17 0.2 1 1 1
v 0.4 0.5269129 0.2 1 1 1
v 0.4 4.293188E-17 0.3 1 1 1
v 0.4 0.6483092 0.2520508 1 1 1
v 0.4 0.55 0.3 1 1 1
v 0.4 0.7337117 0.1837117 1 1 1
v 0.4 0.5944961 0.1670371 1 1 1
v 0.4 0.6625668 0.1125669 1 1 1
v 0.4 0.8020508 0.09830917 1 1 1
v 0.4 0.717037 0.04449607 1 1 1
v 0.4 0.85 2.887646E-15 1 1 1
v 0.4 0.7387396 0 1 1 1
v 0.4 0.717037 -0.04449607 1 1 1
v 0.4 0.8020508 -0.09830917 1 1 1
v 0.4 0.6625668 -0.1125669 1 1 1
v 0.4 0.5944961 -0.1670371 1 1 1
v 0.4 0.7337117 -0.1837117 1 1 1
v 0.4 0.5269129 -0.2 1 1 1
v 0.4 0.6483092 -0.2520508 1 1 1
v 0.4 4.295025E-17 -0.2 1 1 1
v 0.4 0.55 -0.3 1 1 1
v 0.4 4.293188E-17 -0.3 1 1 1

vn 0 1 0
vn 0 -1 0
vn 0 0 -1
vn -1 0 0
vn 0 0 1
vn 1 0 0
vn 0 0.2249536 0.9743695
vn 0 0.534847 0.844949
vn 0 0.7071068 0.7071068
vn 0 0.844949 0.534847
vn 0 0.8987918 0.4383758
vn 0 0.844949 -0.534847
vn 0 0.8987918 -0.4383758
vn 0 0.7071068 -0.7071068
vn 0 0.534847 -0.844949
vn 0 0.2249536 -0.9743695
vn 0 -0.2249536 0.9743695
vn 0 -0.534847 0.844949
vn 0 -0.7071068 0.7071068
vn 0 -0.844949 0.534847
vn 0 -0.8987918 0.4383758
vn 0 -0.844949 -0.534847
vn 0 -0.8987918 -0.4383758
vn 0 -0.7071068 -0.7071068
vn 0 -0.534847 -0.844949
vn 0 -0.2249536 -0.9743695

vt 0.59375 0.175
vt 0.59375 0.075
vt 0.21875 0.325
vt 0.21875 0.38
vt 0.21875 0.425
vt 0.21875 0.41
vt 0.21875 0.3833919
vt 0.21875 0.3866748
vt 0.21875 0.3898309
vt 0.21875 0.3928431
vt 0.21875 0.395695
vt 0.21875 0.3983712
vt 0.21875 0.400857
vt 0.21875 0.4031391
vt 0.21875 0.4052051
vt 0.21875 0.4070436
vt 0.21875 0.4086449
vt 0.96875 0.075
vt 0.96875 0.1369897
vt 0.96875 0.1512717
vt 0.96875 0.1397059
vt 0.96875 0.161319
vt 0.96875 0.1449407
vt 0.96875 0.1529491
vt 0.96875 0.1693589
vt 0.96875 0.1593573
vt 0.96875 0.175
vt 0.96875 0.1619105

usemtl colormap

f 3/1/1 2/1/1 1/1/1
f 2/1/1 3/1/1 4/1/1
f 7/2/2 6/2/2 5/2/2
f 6/2/2 7/2/2 8/2/2
f 3/1/3 6/2/3 8/2/3
f 6/2/3 3/1/3 1/1/3
f 7/2/4 3/1/4 8/2/4
f 3/1/4 7/2/4 4/1/4
f 2/1/5 7/2/5 5/2/5
f 7/2/5 2/1/5 4/1/5
f 2/1/6 6/2/6 1/1/6
f 6/2/6 2/1/6 5/2/6
f 11/1/1 10/1/1 9/1/1
f 10/1/1 11/1/1 12/1/1
f 15/2/2 14/2/2 13/2/2
f 14/2/2 15/2/2 16/2/2
f 11/1/3 14/2/3 16/2/3
f 14/2/3 11/1/3 9/1/3
f 15/2/4 11/1/4 16/2/4
f 11/1/4 15/2/4 12/1/4
f 10/1/5 15/2/5 13/2/5
f 15/2/5 10/1/5 12/1/5
f 10/1/6 14/2/6 9/1/6
f 14/2/6 10/1/6 13/2/6
f 19/3/4 18/4/4 17/3/4
f 20/5/4 18/4/4 19/3/4
f 20/5/4 21/6/4 18/4/4
f 22/5/4 21/6/4 20/5/4
f 22/5/4 23/4/4 21/6/4
f 22/5/4 24/3/4 23/4/4
f 24/3/4 22/5/4 25/3/4
f 28/4/6 27/3/6 26/3/6
f 27/3/6 28/4/6 29/5/6
f 30/7/6 29/5/6 28/4/6
f 28/4/6 31/8/6 30/7/6
f 31/8/6 29/5/6 30/7/6
f 28/4/6 32/9/6 31/8/6
f 32/9/6 29/5/6 31/8/6
f 28/4/6 33/10/6 32/9/6
f 33/10/6 29/5/6 32/9/6
f 28/4/6 34/11/6 33/10/6
f 34/11/6 29/5/6 33/10/6
f 35/12/6 29/5/6 34/11/6
f 28/4/6 35/12/6 34/11/6
f 36/13/6 29/5/6 35/12/6
f 28/4/6 36/13/6 35/12/6
f 37/14/6 29/5/6 36/13/6
f 28/4/6 37/14/6 36/13/6
f 38/15/6 29/5/6 37/14/6
f 28/4/6 38/15/6 37/14/6
f 28/4/6 39/16/6 38/15/6
f 39/16/6 29/5/6 38/15/6
f 28/4/6 40/17/6 39/16/6
f 40/17/6 29/5/6 39/16/6
f 40/17/6 28/4/6 41/6/6
f 41/6/6 29/5/6 40/17/6
f 41/6/6 42/5/6 29/5/6
f 43/17/6 42/5/6 41/6/6
f 41/6/6 44/16/6 43/17/6
f 44/16/6 42/5/6 43/17/6
f 41/6/6 45/15/6 44/16/6
f 45/15/6 42/5/6 44/16/6
f 41/6/6 46/14/6 45/15/6
f 46/14/6 42/5/6 45/15/6
f 41/6/6 47/13/6 46/14/6
f 47/13/6 42/5/6 46/14/6
f 48/12/6 42/5/6 47/13/6
f 41/6/6 48/12/6 47/13/6
f 49/11/6 42/5/6 48/12/6
f 41/6/6 49/11/6 48/12/6
f 50/10/6 42/5/6 49/11/6
f 41/6/6 50/10/6 49/11/6
f 51/9/6 42/5/6 50/10/6
f 41/6/6 51/9/6 50/10/6
f 41/6/6 52/8/6 51/9/6
f 52/8/6 42/5/6 51/9/6
f 41/6/6 53/7/6 52/8/6
f 53/7/6 42/5/6 52/8/6
f 53/7/6 41/6/6 54/4/6
f 54/4/6 42/5/6 53/7/6
f 42/5/6 54/4/6 55/3/6
f 56/3/6 55/3/6 54/4/6
f 19/3/2 26/3/2 27/3/2
f 26/3/2 19/3/2 17/3/2
f 22/5/1 29/5/1 42/5/1
f 29/5/1 22/5/1 20/5/1
f 24/3/2 55/3/2 56/3/2
f 55/3/2 24/3/2 25/3/2
f 59/19/6 58/18/6 57/18/6
f 58/18/6 59/19/6 60/20/6
f 58/18/6 60/20/6 61/21/6
f 59/19/6 62/22/6 60/20/6
f 63/23/6 62/22/6 59/19/6
f 64/24/6 62/22/6 63/23/6
f 64/24/6 65/25/6 62/22/6
f 66/26/6 65/25/6 64/24/6
f 66/26/6 67/27/6 65/25/6
f 68/28/6 67/27/6 66/26/6
f 69/26/6 67/27/6 68/28/6
f 69/26/6 70/25/6 67/27/6
f 71/24/6 70/25/6 69/26/6
f 72/23/6 70/25/6 71/24/6
f 72/23/6 73/22/6 70/25/6
f 74/19/6 73/22/6 72/23/6
f 73/22/6 74/19/6 75/20/6
f 76/18/6 75/20/6 74/19/6
f 77/18/6 75/20/6 76/18/6
f 75/20/6 77/18/6 78/21/6
f 81/18/4 80/19/4 79/18/4
f 80/19/4 81/18/4 82/20/4
f 82/20/4 81/18/4 83/21/4
f 84/22/4 80/19/4 82/20/4
f 84/22/4 85/23/4 80/19/4
f 84/22/4 86/24/4 85/23/4
f 87/25/4 86/24/4 84/22/4
f 87/25/4 88/26/4 86/24/4
f 89/27/4 88/26/4 87/25/4
f 89/27/4 90/28/4 88/26/4
f 89/27/4 91/26/4 90/28/4
f 92/25/4 91/26/4 89/27/4
f 92/25/4 93/24/4 91/26/4
f 92/25/4 94/23/4 93/24/4
f 95/22/4 94/23/4 92/25/4
f 95/22/4 96/19/4 94/23/4
f 97/20/4 96/19/4 95/22/4
f 97/20/4 98/18/4 96/19/4
f 99/21/4 98/18/4 97/20/4
f 98/18/4 99/21/4 100/18/4
f 61/21/7 81/18/5 58/18/5
f 81/18/5 61/21/7 83/21/7
f 60/20/8 83/21/7 61/21/7
f 83/21/7 60/20/8 82/20/8
f 62/22/9 82/20/8 60/20/8
f 82/20/8 62/22/9 84/22/9
f 87/25/10 62/22/9 65/25/10
f 62/22/9 87/25/10 84/22/9
f 89/27/11 65/25/10 67/27/11
f 65/25/10 89/27/11 87/25/10
f 92/25/12 67/27/13 70/25/12
f 67/27/13 92/25/12 89/27/13
f 95/22/14 70/25/12 73/22/14
f 70/25/12 95/22/14 92/25/12
f 95/22/14 75/20/15 97/20/15
f 75/20/15 95/22/14 73/22/14
f 97/20/15 78/21/16 99/21/16
f 78/21/16 97/20/15 75/20/15
f 99/21/16 77/18/3 100/18/3
f 77/18/3 99/21/16 78/21/16
f 98/18/2 77/18/2 76/18/2
f 77/18/2 98/18/2 100/18/2
f 74/19/17 98/18/5 76/18/5
f 98/18/5 74/19/17 96/19/17
f 72/23/18 96/19/17 74/19/17
f 96/19/17 72/23/18 94/23/18
f 71/24/19 94/23/18 72/23/18
f 94/23/18 71/24/19 93/24/19
f 91/26/20 71/24/19 69/26/20
f 71/24/19 91/26/20 93/24/19
f 90/28/21 69/26/20 68/28/21
f 69/26/20 90/28/21 91/26/20
f 88/26/22 68/28/23 66/26/22
f 68/28/23 88/26/22 90/28/23
f 86/24/24 66/26/22 64/24/24
f 66/26/22 86/24/24 88/26/22
f 86/24/24 63/23/25 85/23/25
f 63/23/25 86/24/24 64/24/24
f 85/23/25 59/19/26 80/19/26
f 59/19/26 85/23/25 63/23/25
f 80/19/26 57/18/3 79/18/3
f 57/18/3 80/19/26 59/19/26
f 81/18/2 57/18/2 58/18/2
f 57/18/2 81/18/2 79/18/2

g wall-doorway-round




usemtl colormap

f 3/1/1 2/1/1 1/1/1
f 2/1/1 3/1/1 4/1/1
f 7/2/2 6/2/2 5/2/2
f 6/2/2 7/2/2 8/2/2
f 3/1/3 6/2/3 8/2/3
f 6/2/3 3/1/3 1/1/3
f 7/2/4 3/1/4 8/2/4
f 3/1/4 7/2/4 4/1/4
f 2/1/5 7/2/5 5/2/5
f 7/2/5 2/1/5 4/1/5
f 2/1/6 6/2/6 1/1/6
f 6/2/6 2/1/6 5/2/6
f 11/1/1 10/1/1 9/1/1
f 10/1/1 11/1/1 12/1/1
f 15/2/2 14/2/2 13/2/2
f 14/2/2 15/2/2 16/2/2
f 11/1/3 14/2/3 16/2/3
f 14/2/3 11/1/3 9/1/3
f 15/2/4 11/1/4 16/2/4
f 11/1/4 15/2/4 12/1/4
f 10/1/5 15/2/5 13/2/5
f 15/2/5 10/1/5 12/1/5
f 10/1/6 14/2/6 9/1/6
f 14/2/6 10/1/6 13/2/6
f 19/3/4 18/4/4 17/3/4
f 20/5/4 18/4/4 19/3/4
f 20/5/4 21/6/4 18/4/4
f 22/5/4 21/6/4 20/5/4
f 22/5/4 23/4/4 21/6/4
f 22/5/4 24/3/4 23/4/4
f 24/3/4 22/5/4 25/3/4
f 28/4/6 27/3/6 26/3/6
f 27/3/6 28/4/6 29/5/6
f 30/7/6 29/5/6 28/4/6
f 28/4/6 31/8/6 30/7/6
f 31/8/6 29/5/6 30/7/6
f 28/4/6 32/9/6 31/8/6
f 32/9/6 29/5/6 31/8/6
f 28/4/6 33/10/6 32/9/6
f 33/10/6 29/5/6 32/9/6
f 28/4/6 34/11/6 33/10/6
f 34/11/6 29/5/6 33/10/6
f 35/12/6 29/5/6 34/11/6
f 28/4/6 35/12/6 34/11/6
f 36/13/6 29/5/6 35/12/6
f 28/4/6 36/13/6 35/12/6
f 37/14/6 29/5/6 36/13/6
f 28/4/6 37/14/6 36/13/6
f 38/15/6 29/5/6 37/14/6
f 28/4/6 38/15/6 37/14/6
f 28/4/6 39/16/6 38/15/6
f 39/16/6 29/5/6 38/15/6
f 28/4/6 40/17/6 39/16/6
f 40/17/6 29/5/6 39/16/6
f 40/17/6 28/4/6 41/6/6
f 41/6/6 29/5/6 40/17/6
f 41/6/6 42/5/6 29/5/6
f 43/17/6 42/5/6 41/6/6
f 41/6/6 44/16/6 43/17/6
f 44/16/6 42/5/6 43/17/6
f 41/6/6 45/15/6 44/16/6
f 45/15/6 42/5/6 44/16/6
f 41/6/6 46/14/6 45/15/6
f 46/14/6 42/5/6 45/15/6
f 41/6/6 47/13/6 46/14/6
f 47/13/6 42/5/6 46/14/6
f 48/12/6 42/5/6 47/13/6
f 41/6/6 48/12/6 47/13/6
f 49/11/6 42/5/6 48/12/6
f 41/6/6 49/11/6 48/12/6
f 50/10/6 42/5/6 49/11/6
f 41/6/6 50/10/6 49/11/6
f 51/9/6 42/5/6 50/10/6
f 41/6/6 51/9/6 50/10/6
f 41/6/6 52/8/6 51/9/6
f 52/8/6 42/5/6 51/9/6
f 41/6/6 53/7/6 52/8/6
f 53/7/6 42/5/6 52/8/6
f 53/7/6 41/6/6 54/4/6
f 54/4/6 42/5/6 53/7/6
f 42/5/6 54/4/6 55/3/6
f 56/3/6 55/3/6 54/4/6
f 19/3/2 26/3/2 27/3/2
f 26/3/2 19/3/2 17/3/2
f 22/5/1 29/5/1 42/5/1
f 29/5/1 22/5/1 20/5/1
f 24/3/2 55/3/2 56/3/2
f 55/3/2 24/3/2 25/3/2
f 59/19/6 58/18/6 57/18/6
f 58/18/6 59/19/6 60/20/6
f 58/18/6 60/20/6 61/21/6
f 59/19/6 62/22/6 60/20/6
f 63/23/6 62/22/6 59/19/6
f 64/24/6 62/22/6 63/23/6
f 64/24/6 65/25/6 62/22/6
f 66/26/6 65/25/6 64/24/6
f 66/26/6 67/27/6 65/25/6
f 68/28/6 67/27/6 66/26/6
f 69/26/6 67/27/6 68/28/6
f 69/26/6 70/25/6 67/27/6
f 71/24/6 70/25/6 69/26/6
f 72/23/6 70/25/6 71/24/6
f 72/23/6 73/22/6 70/25/6
f 74/19/6 73/22/6 72/23/6
f 73/22/6 74/19/6 75/20/6
f 76/18/6 75/20/6 74/19/6
f 77/18/6 75/20/6 76/18/6
f 75/20/6 77/18/6 78/21/6
f 81/18/4 80/19/4 79/18/4
f 80/19/4 81/18/4 82/20/4
f 82/20/4 81/18/4 83/21/4
f 84/22/4 80/19/4 82/20/4
f 84/22/4 85/23/4 80/19/4
f 84/22/4 86/24/4 85/23/4
f 87/25/4 86/24/4 84/22/4
f 87/25/4 88/26/4 86/24/4
f 89/27/4 88/26/4 87/25/4
f 89/27/4 90/28/4 88/26/4
f 89/27/4 91/26/4 90/28/4
f 92/25/4 91/26/4 89/27/4
f 92/25/4 93/24/4 91/26/4
f 92/25/4 94/23/4 93/24/4
f 95/22/4 94/23/4 92/25/4
f 95/22/4 96/19/4 94/23/4
f 97/20/4 96/19/4 95/22/4
f 97/20/4 98/18/4 96/19/4
f 99/21/4 98/18/4 97/20/4
f 98/18/4 99/21/4 100/18/4
f 61/21/7 81/18/5 58/18/5
f 81/18/5 61/21/7 83/21/7
f 60/20/8 83/21/7 61/21/7
f 83/21/7 60/20/8 82/20/8
f 62/22/9 82/20/8 60/20/8
f 82/20/8 62/22/9 84/22/9
f 87/25/10 62/22/9 65/25/10
f 62/22/9 87/25/10 84/22/9
f 89/27/11 65/25/10 67/27/11
f 65/25/10 89/27/11 87/25/10
f 92/25/12 67/27/13 70/25/12
f 67/27/13 92/25/12 89/27/13
f 95/22/14 70/25/12 73/22/14
f 70/25/12 95/22/14 92/25/12
f 95/22/14 75/20/15 97/20/15
f 75/20/15 95/22/14 73/22/14
f 97/20/15 78/21/16 99/21/16
f 78/21/16 97/20/15 75/20/15
f 99/21/16 77/18/3 100/18/3
f 77/18/3 99/21/16 78/21/16
f 98/18/2 77/18/2 76/18/2
f 77/18/2 98/18/2 100/18/2
f 74/19/17 98/18/5 76/18/5
f 98/18/5 74/19/17 96/19/17
f 72/23/18 96/19/17 74/19/17
f 96/19/17 72/23/18 94/23/18
f 71/24/19 94/23/18 72/23/18
f 94/23/18 71/24/19 93/24/19
f 91/26/20 71/24/19 69/26/20
f 71/24/19 91/26/20 93/24/19
f 90/28/21 69/26/20 68/28/21
f 69/26/20 90/28/21 91/26/20
f 88/26/22 68/28/23 66/26/22
f 68/28/23 88/26/22 90/28/23
f 86/24/24 66/26/22 64/24/24
f 66/26/22 86/24/24 88/26/22
f 86/24/24 63/23/25 85/23/25
f 63/23/25 86/24/24 64/24/24
f 85/23/25 59/19/26 80/19/26
f 59/19/26 85/23/25 63/23/25
f 80/19/26 57/18/3 79/18/3
f 57/18/3 80/19/26 59/19/26
f 81/18/2 57/18/2 58/18/2
f 57/18/2 81/18/2 79/18/2

