# Created by Kenney (www.kenney.nl)

mtllib wall-half.mtl

g wall-half

v 0.5 0.5 -0.5 1 1 1
v 0.5 0.5 -0.4 1 1 1
v 0.4 0.5 -0.5 1 1 1
v 0.4 0.5 -0.4 1 1 1
v 0.5 0 -0.4 1 1 1
v 0.5 0 -0.5 1 1 1
v 0.4 0 -0.4 1 1 1
v 0.4 0 -0.5 1 1 1
v 0.5 0.5 0.4 1 1 1
v 0.5 0.5 0.5 1 1 1
v 0.4 0.5 0.4 1 1 1
v 0.4 0.5 0.5 1 1 1
v 0.5 0 0.5 1 1 1
v 0.5 0 0.4 1 1 1
v 0.4 0 0.5 1 1 1
v 0.4 0 0.4 1 1 1
v 0.475 0.5 -0.4 1 1 1
v 0.475 0.5 0.4 1 1 1
v 0.425 0.5 -0.4 1 1 1
v 0.425 0.5 0.4 1 1 1
v 0.475 0 0.4 1 1 1
v 0.475 0 -0.4 1 1 1
v 0.425 0 0.4 1 1 1
v 0.425 0 -0.4 1 1 1

vn 0 1 0
vn 0 -1 0
vn 0 0 -1
vn -1 0 0
vn 0 0 1
vn 1 0 0

vt 0.59375 0.175
vt 0.59375 0.075
vt 0.21875 0.425
vt 0.21875 0.325

usemtl colormap

f 3/1/1 2/1/1 1/1/1
f 2/1/1 3/1/1 4/1/1
f 7/2/2 6/2/2 5/2/2
f 6/2/2 7/2/2 8/2/2
f 3/1/3 6/2/3 8/2/3
f 6/2/3 3/1/3 1/1/3
f 7/2/4 3/1/4 8/2/4
f 3/1/4 7/2/4 4/1/4
f 2/1/5 7/2/5 5/2/5
f 7/2/5 2/1/5 4/1/5
f 2/1/6 6/2/6 1/1/6
f 6/2/6 2/1/6 5/2/6
f 11/1/1 10/1/1 9/1/1
f 10/1/1 11/1/1 12/1/1
f 15/2/2 14/2/2 13/2/2
f 14/2/2 15/2/2 16/2/2
f 11/1/3 14/2/3 16/2/3
f 14/2/3 11/1/3 9/1/3
f 15/2/4 11/1/4 16/2/4
f 11/1/4 15/2/4 12/1/4
f 10/1/5 15/2/5 13/2/5
f 15/2/5 10/1/5 12/1/5
f 10/1/6 14/2/6 9/1/6
f 14/2/6 10/1/6 13/2/6
f 19/3/1 18/3/1 17/3/1
f 18/3/1 19/3/1 20/3/1
f 23/4/2 22/4/2 21/4/2
f 22/4/2 23/4/2 24/4/2
f 23/4/4 19/3/4 24/4/4
f 19/3/4 23/4/4 20/3/4
f 18/3/6 22/4/6 17/3/6
f 22/4/6 18/3/6 21/4/6

g wall-half




usemtl colormap

f 3/1/1 2/1/1 1/1/1
f 2/1/1 3/1/1 4/1/1
f 7/2/2 6/2/2 5/2/2
f 6/2/2 7/2/2 8/2/2
f 3/1/3 6/2/3 8/2/3
f 6/2/3 3/1/3 1/1/3
f 7/2/4 3/1/4 8/2/4
f 3/1/4 7/2/4 4/1/4
f 2/1/5 7/2/5 5/2/5
f 7/2/5 2/1/5 4/1/5
f 2/1/6 6/2/6 1/1/6
f 6/2/6 2/1/6 5/2/6
f 11/1/1 10/1/1 9/1/1
f 10/1/1 11/1/1 12/1/1
f 15/2/2 14/2/2 13/2/2
f 14/2/2 15/2/2 16/2/2
f 11/1/3 14/2/3 16/2/3
f 14/2/3 11/1/3 9/1/3
f 15/2/4 11/1/4 16/2/4
f 11/1/4 15/2/4 12/1/4
f 10/1/5 15/2/5 13/2/5
f 15/2/5 10/1/5 12/1/5
f 10/1/6 14/2/6 9/1/6
f 14/2/6 10/1/6 13/2/6
f 19/3/1 18/3/1 17/3/1
f 18/3/1 19/3/1 20/3/1
f 23/4/2 22/4/2 21/4/2
f 22/4/2 23/4/2 24/4/2
f 23/4/4 19/3/4 24/4/4
f 19/3/4 23/4/4 20/3/4
f 18/3/6 22/4/6 17/3/6
f 22/4/6 18/3/6 21/4/6

